<svg width="153" height="22" viewBox="0 0 153 22" fill="none" xmlns="http://www.w3.org/2000/svg">
<path d="M6.3418 17.2187C5.17513 17.2187 4.13607 17.0182 3.22461 16.6172C2.31836 16.2109 1.60221 15.6536 1.07617 14.9453C0.555339 14.2318 0.287109 13.4089 0.271484 12.4766H3.67773C3.69857 12.8672 3.82617 13.2109 4.06055 13.5078C4.30013 13.7995 4.61784 14.026 5.01367 14.1875C5.40951 14.349 5.85482 14.4297 6.34961 14.4297C6.86523 14.4297 7.32096 14.3385 7.7168 14.1562C8.11263 13.974 8.42253 13.7214 8.64648 13.3984C8.87044 13.0755 8.98242 12.7031 8.98242 12.2812C8.98242 11.8542 8.86263 11.4766 8.62305 11.1484C8.38867 10.8151 8.05013 10.5547 7.60742 10.3672C7.16992 10.1797 6.64909 10.0859 6.04492 10.0859H4.55273V7.60156H6.04492C6.55534 7.60156 7.00586 7.51302 7.39648 7.33594C7.79232 7.15885 8.09961 6.91406 8.31836 6.60156C8.53711 6.28385 8.64648 5.91406 8.64648 5.49219C8.64648 5.09115 8.55013 4.73958 8.35742 4.4375C8.16992 4.13021 7.9043 3.89062 7.56055 3.71875C7.22201 3.54687 6.82617 3.46094 6.37305 3.46094C5.91471 3.46094 5.49544 3.54427 5.11523 3.71094C4.73503 3.8724 4.43034 4.10417 4.20117 4.40625C3.97201 4.70833 3.84961 5.0625 3.83398 5.46875H0.591797C0.607422 4.54687 0.870443 3.73437 1.38086 3.03125C1.89128 2.32812 2.57878 1.77865 3.44336 1.38281C4.31315 0.98177 5.29492 0.781249 6.38867 0.781249C7.49284 0.781249 8.45898 0.98177 9.28711 1.38281C10.1152 1.78385 10.7585 2.32552 11.2168 3.00781C11.6803 3.6849 11.9095 4.44531 11.9043 5.28906C11.9095 6.1849 11.6309 6.93229 11.0684 7.53125C10.5111 8.13021 9.78451 8.51042 8.88867 8.67187V8.79687C10.0658 8.94792 10.9616 9.35677 11.5762 10.0234C12.196 10.6849 12.5033 11.513 12.498 12.5078C12.5033 13.4193 12.2402 14.2292 11.709 14.9375C11.1829 15.6458 10.4564 16.2031 9.5293 16.6094C8.60221 17.0156 7.53971 17.2187 6.3418 17.2187ZM14.9609 17V5H18.1875V7.09375H18.3125C18.5313 6.34896 18.8984 5.78646 19.4141 5.40625C19.9297 5.02083 20.5234 4.82812 21.1953 4.82812C21.362 4.82812 21.5417 4.83854 21.7344 4.85937C21.9271 4.88021 22.0964 4.90885 22.2422 4.94531V7.89844C22.0859 7.85156 21.8698 7.8099 21.5938 7.77344C21.3177 7.73698 21.0651 7.71875 20.8359 7.71875C20.3464 7.71875 19.9089 7.82552 19.5234 8.03906C19.1432 8.2474 18.8411 8.53906 18.6172 8.91406C18.3984 9.28906 18.2891 9.72135 18.2891 10.2109V17H14.9609ZM27.8262 17.1953C26.9147 17.1953 26.0892 16.9609 25.3496 16.4922C24.6152 16.0182 24.0319 15.3229 23.5996 14.4062C23.1725 13.4844 22.959 12.3542 22.959 11.0156C22.959 9.64062 23.1803 8.4974 23.623 7.58594C24.0658 6.66927 24.6543 5.98437 25.3887 5.53125C26.1283 5.07292 26.9382 4.84375 27.8184 4.84375C28.4902 4.84375 29.0501 4.95833 29.498 5.1875C29.9512 5.41146 30.3158 5.69271 30.5918 6.03125C30.873 6.36458 31.0866 6.69271 31.2324 7.01562H31.334V1H34.6543V17H31.373V15.0781H31.2324C31.0762 15.4115 30.8548 15.7422 30.5684 16.0703C30.2871 16.3932 29.9199 16.6615 29.4668 16.875C29.0189 17.0885 28.472 17.1953 27.8262 17.1953ZM28.8809 14.5469C29.4173 14.5469 29.8704 14.401 30.2402 14.1094C30.6152 13.8125 30.9017 13.3984 31.0996 12.8672C31.3027 12.3359 31.4043 11.7135 31.4043 11C31.4043 10.2865 31.3053 9.66667 31.1074 9.14062C30.9095 8.61458 30.623 8.20833 30.248 7.92187C29.873 7.63542 29.4173 7.49219 28.8809 7.49219C28.334 7.49219 27.873 7.64062 27.498 7.9375C27.123 8.23437 26.8392 8.64583 26.6465 9.17187C26.4538 9.69792 26.3574 10.3073 26.3574 11C26.3574 11.6979 26.4538 12.3151 26.6465 12.8516C26.8444 13.3828 27.1283 13.7995 27.498 14.1016C27.873 14.3984 28.334 14.5469 28.8809 14.5469ZM42.4824 21.5V5H45.7637V7.01562H45.9121C46.0579 6.69271 46.2689 6.36458 46.5449 6.03125C46.8262 5.69271 47.1908 5.41146 47.6387 5.1875C48.0918 4.95833 48.6543 4.84375 49.3262 4.84375C50.2012 4.84375 51.0085 5.07292 51.748 5.53125C52.4876 5.98437 53.0788 6.66927 53.5215 7.58594C53.9642 8.4974 54.1855 9.64062 54.1855 11.0156C54.1855 12.3542 53.9694 13.4844 53.5371 14.4062C53.11 15.3229 52.5267 16.0182 51.7871 16.4922C51.0527 16.9609 50.2298 17.1953 49.3184 17.1953C48.6725 17.1953 48.123 17.0885 47.6699 16.875C47.222 16.6615 46.8548 16.3932 46.5684 16.0703C46.2819 15.7422 46.0632 15.4115 45.9121 15.0781H45.8105V21.5H42.4824ZM45.7402 11C45.7402 11.7135 45.8392 12.3359 46.0371 12.8672C46.235 13.3984 46.5215 13.8125 46.8965 14.1094C47.2715 14.401 47.7272 14.5469 48.2637 14.5469C48.8053 14.5469 49.2637 14.3984 49.6387 14.1016C50.0137 13.7995 50.2975 13.3828 50.4902 12.8516C50.6882 12.3151 50.7871 11.6979 50.7871 11C50.7871 10.3073 50.6908 9.69792 50.498 9.17187C50.3053 8.64583 50.0215 8.23437 49.6465 7.9375C49.2715 7.64062 48.8105 7.49219 48.2637 7.49219C47.722 7.49219 47.2637 7.63542 46.8887 7.92187C46.5189 8.20833 46.235 8.61458 46.0371 9.14062C45.8392 9.66667 45.7402 10.2865 45.7402 11ZM59.8262 17.2266C59.0605 17.2266 58.3783 17.0938 57.7793 16.8281C57.1803 16.5573 56.7064 16.1589 56.3574 15.6328C56.0137 15.1016 55.8418 14.4401 55.8418 13.6484C55.8418 12.9818 55.9642 12.4219 56.209 11.9687C56.4538 11.5156 56.7871 11.151 57.209 10.875C57.6309 10.599 58.11 10.3906 58.6465 10.25C59.1882 10.1094 59.7559 10.0104 60.3496 9.95312C61.0475 9.88021 61.61 9.8125 62.0371 9.75C62.4642 9.68229 62.7741 9.58333 62.9668 9.45312C63.1595 9.32292 63.2559 9.13021 63.2559 8.875V8.82812C63.2559 8.33333 63.0996 7.95052 62.7871 7.67969C62.4798 7.40885 62.0423 7.27344 61.4746 7.27344C60.8757 7.27344 60.3991 7.40625 60.0449 7.67187C59.6908 7.93229 59.4564 8.26042 59.3418 8.65625L56.2637 8.40625C56.4199 7.67708 56.7272 7.04687 57.1855 6.51562C57.6439 5.97917 58.235 5.56771 58.959 5.28125C59.6882 4.98958 60.5319 4.84375 61.4902 4.84375C62.1569 4.84375 62.7949 4.92187 63.4043 5.07812C64.0189 5.23437 64.5632 5.47656 65.0371 5.80469C65.5163 6.13281 65.8939 6.55469 66.1699 7.07031C66.446 7.58073 66.584 8.19271 66.584 8.90625V17H63.4277V15.3359H63.334C63.1413 15.7109 62.8835 16.0417 62.5605 16.3281C62.2376 16.6094 61.8496 16.8307 61.3965 16.9922C60.9434 17.1484 60.4199 17.2266 59.8262 17.2266ZM60.7793 14.9297C61.2689 14.9297 61.7012 14.8333 62.0762 14.6406C62.4512 14.4427 62.7454 14.1771 62.959 13.8438C63.1725 13.5104 63.2793 13.1328 63.2793 12.7109V11.4375C63.1751 11.5052 63.0319 11.5677 62.8496 11.625C62.6725 11.6771 62.472 11.7266 62.248 11.7734C62.0241 11.8151 61.8001 11.8542 61.5762 11.8906C61.3522 11.9219 61.1491 11.9505 60.9668 11.9766C60.5762 12.0339 60.235 12.125 59.9434 12.25C59.6517 12.375 59.4251 12.5443 59.2637 12.7578C59.1022 12.9661 59.0215 13.2266 59.0215 13.5391C59.0215 13.9922 59.1855 14.3385 59.5137 14.5781C59.847 14.8125 60.2689 14.9297 60.7793 14.9297ZM69.166 17V5H72.3926V7.09375H72.5176C72.7363 6.34896 73.1035 5.78646 73.6191 5.40625C74.1348 5.02083 74.7285 4.82812 75.4004 4.82812C75.5671 4.82812 75.7467 4.83854 75.9395 4.85937C76.1322 4.88021 76.3014 4.90885 76.4473 4.94531V7.89844C76.291 7.85156 76.0749 7.8099 75.7988 7.77344C75.5228 7.73698 75.2702 7.71875 75.041 7.71875C74.5514 7.71875 74.1139 7.82552 73.7285 8.03906C73.3483 8.2474 73.0462 8.53906 72.8223 8.91406C72.6035 9.28906 72.4941 9.72135 72.4941 10.2109V17H69.166ZM81.2461 17.2266C80.4805 17.2266 79.7982 17.0938 79.1992 16.8281C78.6003 16.5573 78.1263 16.1589 77.7773 15.6328C77.4336 15.1016 77.2617 14.4401 77.2617 13.6484C77.2617 12.9818 77.3841 12.4219 77.6289 11.9687C77.8737 11.5156 78.207 11.151 78.6289 10.875C79.0508 10.599 79.5299 10.3906 80.0664 10.25C80.6081 10.1094 81.1758 10.0104 81.7695 9.95312C82.4674 9.88021 83.0299 9.8125 83.457 9.75C83.8841 9.68229 84.194 9.58333 84.3867 9.45312C84.5794 9.32292 84.6758 9.13021 84.6758 8.875V8.82812C84.6758 8.33333 84.5195 7.95052 84.207 7.67969C83.8997 7.40885 83.4622 7.27344 82.8945 7.27344C82.2956 7.27344 81.819 7.40625 81.4648 7.67187C81.1107 7.93229 80.8763 8.26042 80.7617 8.65625L77.6836 8.40625C77.8398 7.67708 78.1471 7.04687 78.6055 6.51562C79.0638 5.97917 79.6549 5.56771 80.3789 5.28125C81.1081 4.98958 81.9518 4.84375 82.9102 4.84375C83.5768 4.84375 84.2148 4.92187 84.8242 5.07812C85.4388 5.23437 85.9831 5.47656 86.457 5.80469C86.9362 6.13281 87.3138 6.55469 87.5898 7.07031C87.8659 7.58073 88.0039 8.19271 88.0039 8.90625V17H84.8477V15.3359H84.7539C84.5612 15.7109 84.3034 16.0417 83.9805 16.3281C83.6576 16.6094 83.2695 16.8307 82.8164 16.9922C82.3633 17.1484 81.8398 17.2266 81.2461 17.2266ZM82.1992 14.9297C82.6888 14.9297 83.1211 14.8333 83.4961 14.6406C83.8711 14.4427 84.1654 14.1771 84.3789 13.8438C84.5924 13.5104 84.6992 13.1328 84.6992 12.7109V11.4375C84.5951 11.5052 84.4518 11.5677 84.2695 11.625C84.0924 11.6771 83.8919 11.7266 83.668 11.7734C83.444 11.8151 83.2201 11.8542 82.9961 11.8906C82.7721 11.9219 82.569 11.9505 82.3867 11.9766C81.9961 12.0339 81.6549 12.125 81.3633 12.25C81.0716 12.375 80.8451 12.5443 80.6836 12.7578C80.5221 12.9661 80.4414 13.2266 80.4414 13.5391C80.4414 13.9922 80.6055 14.3385 80.9336 14.5781C81.2669 14.8125 81.6888 14.9297 82.1992 14.9297ZM90.5859 17V5H93.7578V7.11719H93.8984C94.1484 6.41406 94.5651 5.85937 95.1484 5.45312C95.7318 5.04687 96.4297 4.84375 97.2422 4.84375C98.0651 4.84375 98.7656 5.04948 99.3438 5.46094C99.9219 5.86719 100.307 6.41927 100.5 7.11719H100.625C100.87 6.42969 101.313 5.88021 101.953 5.46875C102.599 5.05208 103.362 4.84375 104.242 4.84375C105.362 4.84375 106.271 5.20052 106.969 5.91406C107.672 6.6224 108.023 7.6276 108.023 8.92969V17H104.703V9.58594C104.703 8.91927 104.526 8.41927 104.172 8.08594C103.818 7.7526 103.375 7.58594 102.844 7.58594C102.24 7.58594 101.768 7.77865 101.43 8.16406C101.091 8.54427 100.922 9.04687 100.922 9.67187V17H97.6953V9.51562C97.6953 8.92708 97.526 8.45833 97.1875 8.10937C96.8542 7.76042 96.4141 7.58594 95.8672 7.58594C95.4974 7.58594 95.1641 7.67969 94.8672 7.86719C94.5755 8.04948 94.3438 8.30729 94.1719 8.64062C94 8.96875 93.9141 9.35417 93.9141 9.79687V17H90.5859ZM116.121 17.2344C114.887 17.2344 113.824 16.9844 112.934 16.4844C112.048 15.9792 111.366 15.2656 110.887 14.3437C110.408 13.4167 110.168 12.3203 110.168 11.0547C110.168 9.82031 110.408 8.73698 110.887 7.80469C111.366 6.8724 112.04 6.14583 112.91 5.625C113.785 5.10417 114.811 4.84375 115.988 4.84375C116.78 4.84375 117.517 4.97135 118.199 5.22656C118.887 5.47656 119.486 5.85417 119.996 6.35937C120.512 6.86458 120.913 7.5 121.199 8.26562C121.486 9.02604 121.629 9.91667 121.629 10.9375V11.8516H111.496V9.78906H118.496C118.496 9.3099 118.392 8.88542 118.184 8.51563C117.975 8.14583 117.686 7.85677 117.316 7.64844C116.952 7.4349 116.527 7.32812 116.043 7.32812C115.538 7.32812 115.09 7.44531 114.699 7.67969C114.314 7.90885 114.012 8.21875 113.793 8.60937C113.574 8.99479 113.462 9.42448 113.457 9.89844V11.8594C113.457 12.4531 113.566 12.9661 113.785 13.3984C114.009 13.8307 114.324 14.1641 114.73 14.3984C115.137 14.6328 115.618 14.75 116.176 14.75C116.546 14.75 116.884 14.6979 117.191 14.5938C117.499 14.4896 117.762 14.3333 117.98 14.125C118.199 13.9167 118.366 13.6615 118.48 13.3594L121.559 13.5625C121.402 14.3021 121.082 14.9479 120.598 15.5C120.118 16.0469 119.499 16.474 118.738 16.7813C117.983 17.0833 117.111 17.2344 116.121 17.2344ZM130.184 5V7.5H122.957V5H130.184ZM124.598 2.125H127.926V13.3125C127.926 13.6198 127.973 13.8594 128.066 14.0312C128.16 14.1979 128.29 14.3151 128.457 14.3828C128.629 14.4505 128.827 14.4844 129.051 14.4844C129.207 14.4844 129.363 14.4714 129.52 14.4453C129.676 14.4141 129.796 14.3906 129.879 14.375L130.402 16.8516C130.236 16.9036 130.001 16.9635 129.699 17.0313C129.397 17.1042 129.03 17.1484 128.598 17.1641C127.796 17.1953 127.092 17.0885 126.488 16.8437C125.889 16.599 125.423 16.2187 125.09 15.7031C124.757 15.1875 124.592 14.5365 124.598 13.75V2.125ZM137.691 17.2344C136.457 17.2344 135.395 16.9844 134.504 16.4844C133.618 15.9792 132.936 15.2656 132.457 14.3437C131.978 13.4167 131.738 12.3203 131.738 11.0547C131.738 9.82031 131.978 8.73698 132.457 7.80469C132.936 6.8724 133.611 6.14583 134.48 5.625C135.355 5.10417 136.382 4.84375 137.559 4.84375C138.35 4.84375 139.087 4.97135 139.77 5.22656C140.457 5.47656 141.056 5.85417 141.566 6.35937C142.082 6.86458 142.483 7.5 142.77 8.26562C143.056 9.02604 143.199 9.91667 143.199 10.9375V11.8516H133.066V9.78906H140.066C140.066 9.3099 139.962 8.88542 139.754 8.51563C139.546 8.14583 139.257 7.85677 138.887 7.64844C138.522 7.4349 138.098 7.32812 137.613 7.32812C137.108 7.32812 136.66 7.44531 136.27 7.67969C135.884 7.90885 135.582 8.21875 135.363 8.60937C135.145 8.99479 135.033 9.42448 135.027 9.89844V11.8594C135.027 12.4531 135.137 12.9661 135.355 13.3984C135.579 13.8307 135.895 14.1641 136.301 14.3984C136.707 14.6328 137.189 14.75 137.746 14.75C138.116 14.75 138.454 14.6979 138.762 14.5938C139.069 14.4896 139.332 14.3333 139.551 14.125C139.77 13.9167 139.936 13.6615 140.051 13.3594L143.129 13.5625C142.973 14.3021 142.652 14.9479 142.168 15.5C141.689 16.0469 141.069 16.474 140.309 16.7813C139.553 17.0833 138.681 17.2344 137.691 17.2344ZM145.371 17V5H148.598V7.09375H148.723C148.941 6.34896 149.309 5.78646 149.824 5.40625C150.34 5.02083 150.934 4.82812 151.605 4.82812C151.772 4.82812 151.952 4.83854 152.145 4.85937C152.337 4.88021 152.507 4.90885 152.652 4.94531V7.89844C152.496 7.85156 152.28 7.8099 152.004 7.77344C151.728 7.73698 151.475 7.71875 151.246 7.71875C150.757 7.71875 150.319 7.82552 149.934 8.03906C149.553 8.2474 149.251 8.53906 149.027 8.91406C148.809 9.28906 148.699 9.72135 148.699 10.2109V17H145.371Z" fill="#D9D9D9"/>
</svg>
