<svg width="92" height="259" viewBox="0 0 92 259" fill="none" xmlns="http://www.w3.org/2000/svg">
<path d="M1.68768 11H0.395064L4.1337 0.818182H5.40643L9.14506 11H7.85245L4.80984 2.42898H4.73029L1.68768 11ZM2.16495 7.02273H7.37518V8.11648H2.16495V7.02273ZM10.731 11V0.818182H11.9043V4.5767H12.0037C12.0899 4.44413 12.2092 4.27509 12.3617 4.0696C12.5175 3.8608 12.7395 3.67519 13.0279 3.51278C13.3195 3.34706 13.714 3.2642 14.2111 3.2642C14.8541 3.2642 15.4209 3.42495 15.9114 3.74645C16.4019 4.06794 16.7847 4.52367 17.0598 5.11364C17.3349 5.7036 17.4725 6.39962 17.4725 7.2017C17.4725 8.01042 17.3349 8.71141 17.0598 9.30469C16.7847 9.89465 16.4036 10.352 15.9164 10.6768C15.4292 10.9983 14.8674 11.1591 14.231 11.1591C13.7405 11.1591 13.3477 11.0779 13.0527 10.9155C12.7578 10.7498 12.5307 10.5625 12.3716 10.3537C12.2125 10.1416 12.0899 9.96591 12.0037 9.8267H11.8645V11H10.731ZM11.8844 7.18182C11.8844 7.75852 11.9689 8.26728 12.138 8.7081C12.307 9.1456 12.5539 9.48864 12.8787 9.73722C13.2035 9.98248 13.6013 10.1051 14.0719 10.1051C14.5624 10.1051 14.9718 9.97585 15.2999 9.71733C15.6313 9.45549 15.8799 9.10417 16.0456 8.66335C16.2147 8.21922 16.2992 7.72538 16.2992 7.18182C16.2992 6.64489 16.2163 6.16098 16.0506 5.73011C15.8882 5.29593 15.6413 4.95289 15.3098 4.70099C14.9817 4.44579 14.5691 4.31818 14.0719 4.31818C13.5946 4.31818 13.1936 4.43916 12.8688 4.68111C12.544 4.91974 12.2987 5.2545 12.133 5.68537C11.9673 6.11293 11.8844 6.61174 11.8844 7.18182ZM22.3695 11.1591C21.6801 11.1591 21.0752 10.995 20.5549 10.6669C20.0378 10.3388 19.6335 9.87973 19.3418 9.28977C19.0534 8.69981 18.9093 8.01042 18.9093 7.22159C18.9093 6.42614 19.0534 5.73177 19.3418 5.13849C19.6335 4.54522 20.0378 4.08452 20.5549 3.75639C21.0752 3.42827 21.6801 3.2642 22.3695 3.2642C23.0589 3.2642 23.6621 3.42827 24.1792 3.75639C24.6995 4.08452 25.1039 4.54522 25.3922 5.13849C25.6839 5.73177 25.8297 6.42614 25.8297 7.22159C25.8297 8.01042 25.6839 8.69981 25.3922 9.28977C25.1039 9.87973 24.6995 10.3388 24.1792 10.6669C23.6621 10.995 23.0589 11.1591 22.3695 11.1591ZM22.3695 10.1051C22.8932 10.1051 23.324 9.97088 23.6621 9.70241C24.0002 9.43395 24.2504 9.08097 24.4128 8.64347C24.5752 8.20597 24.6564 7.73201 24.6564 7.22159C24.6564 6.71117 24.5752 6.23556 24.4128 5.79474C24.2504 5.35393 24.0002 4.99763 23.6621 4.72585C23.324 4.45407 22.8932 4.31818 22.3695 4.31818C21.8458 4.31818 21.415 4.45407 21.0769 4.72585C20.7388 4.99763 20.4886 5.35393 20.3262 5.79474C20.1638 6.23556 20.0826 6.71117 20.0826 7.22159C20.0826 7.73201 20.1638 8.20597 20.3262 8.64347C20.4886 9.08097 20.7388 9.43395 21.0769 9.70241C21.415 9.97088 21.8458 10.1051 22.3695 10.1051ZM32.4332 7.87784V3.36364H33.6065V11H32.4332V9.70739H32.3537C32.1747 10.0952 31.8963 10.425 31.5185 10.6967C31.1406 10.9652 30.6634 11.0994 30.0866 11.0994C29.6094 11.0994 29.1851 10.995 28.8139 10.7862C28.4427 10.5741 28.151 10.2559 27.9389 9.83168C27.7268 9.40412 27.6207 8.86553 27.6207 8.21591V3.36364H28.794V8.13636C28.794 8.69318 28.9498 9.13731 29.2614 9.46875C29.5762 9.80019 29.9773 9.96591 30.4645 9.96591C30.7562 9.96591 31.0528 9.89134 31.3544 9.74219C31.6593 9.59304 31.9145 9.36435 32.12 9.05611C32.3288 8.74787 32.4332 8.35511 32.4332 7.87784ZM39.0765 3.36364V4.35795H35.1191V3.36364H39.0765ZM36.2725 1.53409H37.4458V8.8125C37.4458 9.14394 37.4939 9.39252 37.59 9.55824C37.6895 9.72064 37.8154 9.83002 37.9679 9.88636C38.1236 9.93939 38.2877 9.96591 38.46 9.96591C38.5893 9.96591 38.6954 9.95928 38.7782 9.94602C38.8611 9.92945 38.9274 9.91619 38.9771 9.90625L39.2157 10.9602C39.1362 10.9901 39.0252 11.0199 38.8826 11.0497C38.7401 11.0829 38.5595 11.0994 38.3407 11.0994C38.0093 11.0994 37.6845 11.0282 37.3663 10.8857C37.0514 10.7431 36.7896 10.526 36.5808 10.2344C36.3753 9.94271 36.2725 9.57481 36.2725 9.13068V1.53409ZM9.46325 39H8.23029C8.15738 38.6454 8.02977 38.3338 7.84748 38.0653C7.6685 37.7969 7.44975 37.5715 7.19123 37.3892C6.93602 37.2036 6.65264 37.0644 6.34109 36.9716C6.02953 36.8788 5.70472 36.8324 5.36666 36.8324C4.75018 36.8324 4.1917 36.9882 3.69123 37.2997C3.19407 37.6113 2.798 38.0703 2.50302 38.6768C2.21135 39.2834 2.06552 40.0275 2.06552 40.9091C2.06552 41.7907 2.21135 42.5348 2.50302 43.1413C2.798 43.7479 3.19407 44.2069 3.69123 44.5185C4.1917 44.83 4.75018 44.9858 5.36666 44.9858C5.70472 44.9858 6.02953 44.9394 6.34109 44.8466C6.65264 44.7538 6.93602 44.6162 7.19123 44.4339C7.44975 44.2483 7.6685 44.0213 7.84748 43.7528C8.02977 43.4811 8.15738 43.1695 8.23029 42.8182H9.46325C9.37044 43.3385 9.20141 43.8042 8.95614 44.2152C8.71088 44.6262 8.40595 44.9759 8.04137 45.2642C7.67679 45.5492 7.26746 45.7663 6.81339 45.9155C6.36263 46.0646 5.88039 46.1392 5.36666 46.1392C4.49828 46.1392 3.72603 45.9271 3.04989 45.5028C2.37376 45.0786 1.8418 44.4754 1.45401 43.6932C1.06623 42.911 0.872337 41.983 0.872337 40.9091C0.872337 39.8352 1.06623 38.9072 1.45401 38.125C1.8418 37.3428 2.37376 36.7396 3.04989 36.3153C3.72603 35.8911 4.49828 35.679 5.36666 35.679C5.88039 35.679 6.36263 35.7536 6.81339 35.9027C7.26746 36.0518 7.67679 36.2706 8.04137 36.5589C8.40595 36.844 8.71088 37.192 8.95614 37.603C9.20141 38.0107 9.37044 38.4763 9.46325 39ZM13.5437 46.179C13.0598 46.179 12.6206 46.0878 12.2262 45.9055C11.8318 45.7199 11.5186 45.4531 11.2866 45.1051C11.0546 44.7538 10.9386 44.3295 10.9386 43.8324C10.9386 43.3949 11.0247 43.0402 11.1971 42.7685C11.3694 42.4934 11.5998 42.2779 11.8881 42.1222C12.1765 41.9664 12.4947 41.8504 12.8427 41.7741C13.194 41.6946 13.547 41.6316 13.9016 41.5852C14.3656 41.5256 14.7418 41.4808 15.0302 41.451C15.3219 41.4179 15.534 41.3632 15.6665 41.2869C15.8024 41.2107 15.8704 41.0781 15.8704 40.8892V40.8494C15.8704 40.3589 15.7362 39.9777 15.4677 39.706C15.2025 39.4342 14.7998 39.2983 14.2596 39.2983C13.6995 39.2983 13.2603 39.4209 12.9421 39.6662C12.6239 39.9115 12.4002 40.1733 12.271 40.4517L11.1573 40.054C11.3562 39.59 11.6213 39.2287 11.9528 38.9702C12.2875 38.7083 12.6521 38.526 13.0465 38.4233C13.4442 38.3172 13.8353 38.2642 14.2198 38.2642C14.4651 38.2642 14.7468 38.294 15.065 38.3537C15.3865 38.41 15.6964 38.5277 15.9947 38.7067C16.2963 38.8857 16.5465 39.1558 16.7454 39.517C16.9442 39.8783 17.0437 40.3622 17.0437 40.9688V46H15.8704V44.9659H15.8107C15.7312 45.1316 15.5986 45.3089 15.413 45.4979C15.2274 45.6868 14.9805 45.8475 14.6722 45.9801C14.364 46.1127 13.9878 46.179 13.5437 46.179ZM13.7227 45.125C14.1867 45.125 14.5778 45.0339 14.896 44.8516C15.2174 44.6693 15.4594 44.4339 15.6218 44.1456C15.7875 43.8572 15.8704 43.554 15.8704 43.2358V42.1619C15.8207 42.2216 15.7113 42.2763 15.5423 42.326C15.3765 42.3724 15.1843 42.4138 14.9656 42.4503C14.7501 42.4834 14.5397 42.5133 14.3342 42.5398C14.132 42.563 13.9679 42.5829 13.842 42.5994C13.5371 42.6392 13.252 42.7038 12.9869 42.7933C12.725 42.8795 12.5129 43.0104 12.3505 43.1861C12.1914 43.3584 12.1119 43.5937 12.1119 43.892C12.1119 44.2997 12.2627 44.608 12.5643 44.8168C12.8692 45.0223 13.2553 45.125 13.7227 45.125ZM19.1852 46V38.3636H20.3187V39.517H20.3983C20.5375 39.1392 20.7894 38.8326 21.1539 38.5973C21.5185 38.362 21.9295 38.2443 22.3869 38.2443C22.4731 38.2443 22.5808 38.246 22.71 38.2493C22.8393 38.2526 22.9371 38.2576 23.0034 38.2642V39.4574C22.9636 39.4474 22.8725 39.4325 22.7299 39.4126C22.5907 39.3894 22.4432 39.3778 22.2875 39.3778C21.9163 39.3778 21.5848 39.4557 21.2931 39.6115C21.0048 39.764 20.7761 39.9761 20.6071 40.2479C20.4413 40.5163 20.3585 40.8229 20.3585 41.1676V46H19.1852ZM27.3635 46.1591C26.6277 46.1591 25.993 45.9967 25.4593 45.6719C24.929 45.3438 24.5197 44.8864 24.2314 44.2997C23.9463 43.7098 23.8038 43.0237 23.8038 42.2415C23.8038 41.4593 23.9463 40.7699 24.2314 40.1733C24.5197 39.5734 24.9208 39.1061 25.4345 38.7713C25.9515 38.4332 26.5547 38.2642 27.2441 38.2642C27.6419 38.2642 28.0346 38.3305 28.4224 38.4631C28.8102 38.5956 29.1632 38.8111 29.4814 39.1094C29.7995 39.4044 30.0531 39.7955 30.242 40.2827C30.4309 40.7699 30.5254 41.3698 30.5254 42.0824V42.5795H24.639V41.5653H29.3322C29.3322 41.1345 29.246 40.75 29.0737 40.4119C28.9047 40.0739 28.6627 39.8071 28.3478 39.6115C28.0363 39.416 27.6684 39.3182 27.2441 39.3182C26.7768 39.3182 26.3725 39.4342 26.0311 39.6662C25.693 39.8949 25.4328 40.1932 25.2505 40.5611C25.0682 40.929 24.9771 41.3234 24.9771 41.7443V42.4205C24.9771 42.9972 25.0765 43.486 25.2754 43.8871C25.4776 44.2848 25.7576 44.5881 26.1156 44.7969C26.4735 45.0024 26.8895 45.1051 27.3635 45.1051C27.6717 45.1051 27.9501 45.062 28.1987 44.9759C28.4506 44.8864 28.6677 44.7538 28.85 44.5781C29.0323 44.3991 29.1731 44.1771 29.2725 43.9119L30.4061 44.2301C30.2868 44.6146 30.0862 44.9527 29.8045 45.2443C29.5228 45.5327 29.1748 45.758 28.7605 45.9205C28.3462 46.0795 27.8805 46.1591 27.3635 46.1591ZM35.5119 46.1591C34.7761 46.1591 34.1414 45.9967 33.6078 45.6719C33.0775 45.3438 32.6681 44.8864 32.3798 44.2997C32.0948 43.7098 31.9522 43.0237 31.9522 42.2415C31.9522 41.4593 32.0948 40.7699 32.3798 40.1733C32.6681 39.5734 33.0692 39.1061 33.5829 38.7713C34.1 38.4332 34.7032 38.2642 35.3926 38.2642C35.7903 38.2642 36.1831 38.3305 36.5708 38.4631C36.9586 38.5956 37.3116 38.8111 37.6298 39.1094C37.948 39.4044 38.2015 39.7955 38.3904 40.2827C38.5794 40.7699 38.6738 41.3698 38.6738 42.0824V42.5795H32.7875V41.5653H37.4806C37.4806 41.1345 37.3945 40.75 37.2221 40.4119C37.0531 40.0739 36.8111 39.8071 36.4963 39.6115C36.1847 39.416 35.8168 39.3182 35.3926 39.3182C34.9252 39.3182 34.5209 39.4342 34.1795 39.6662C33.8414 39.8949 33.5813 40.1932 33.399 40.5611C33.2167 40.929 33.1255 41.3234 33.1255 41.7443V42.4205C33.1255 42.9972 33.225 43.486 33.4238 43.8871C33.626 44.2848 33.9061 44.5881 34.264 44.7969C34.622 45.0024 35.0379 45.1051 35.5119 45.1051C35.8201 45.1051 36.0985 45.062 36.3471 44.9759C36.599 44.8864 36.8161 44.7538 36.9984 44.5781C37.1807 44.3991 37.3216 44.1771 37.421 43.9119L38.5545 44.2301C38.4352 44.6146 38.2347 44.9527 37.9529 45.2443C37.6712 45.5327 37.3232 45.758 36.9089 45.9205C36.4946 46.0795 36.0289 46.1591 35.5119 46.1591ZM40.4586 46V38.3636H41.5922V39.517H41.6717C41.8109 39.1392 42.0628 38.8326 42.4274 38.5973C42.792 38.362 43.2029 38.2443 43.6603 38.2443C43.7465 38.2443 43.8542 38.246 43.9835 38.2493C44.1127 38.2526 44.2105 38.2576 44.2768 38.2642V39.4574C44.237 39.4474 44.1459 39.4325 44.0034 39.4126C43.8642 39.3894 43.7167 39.3778 43.5609 39.3778C43.1897 39.3778 42.8583 39.4557 42.5666 39.6115C42.2782 39.764 42.0495 39.9761 41.8805 40.2479C41.7148 40.5163 41.6319 40.8229 41.6319 41.1676V46H40.4586ZM51.0767 40.0739L50.0227 40.3722C49.9564 40.1965 49.8587 40.0258 49.7294 39.8601C49.6035 39.6911 49.4311 39.5518 49.2124 39.4425C48.9936 39.3331 48.7135 39.2784 48.3722 39.2784C47.9048 39.2784 47.5154 39.3861 47.2038 39.6016C46.8956 39.8137 46.7415 40.0838 46.7415 40.4119C46.7415 40.7036 46.8475 40.9339 47.0597 41.103C47.2718 41.272 47.6032 41.4129 48.054 41.5256L49.1875 41.804C49.8703 41.9697 50.379 42.2232 50.7138 42.5646C51.0485 42.9027 51.2159 43.3385 51.2159 43.8722C51.2159 44.3097 51.09 44.7008 50.8381 45.0455C50.5895 45.3902 50.2415 45.6619 49.794 45.8608C49.3466 46.0597 48.8262 46.1591 48.233 46.1591C47.4541 46.1591 46.8094 45.9901 46.299 45.652C45.7886 45.3139 45.4654 44.8201 45.3295 44.1705L46.4432 43.892C46.5492 44.303 46.7498 44.6113 47.0447 44.8168C47.343 45.0223 47.7325 45.125 48.2131 45.125C48.7599 45.125 49.1941 45.009 49.5156 44.777C49.8404 44.5417 50.0028 44.2599 50.0028 43.9318C50.0028 43.6667 49.91 43.4446 49.7244 43.2656C49.5388 43.0833 49.2538 42.9474 48.8693 42.858L47.5966 42.5597C46.8973 42.3939 46.3835 42.1371 46.0554 41.7891C45.7306 41.4377 45.5682 40.9986 45.5682 40.4716C45.5682 40.0407 45.6892 39.6596 45.9311 39.3281C46.1764 38.9967 46.5095 38.7365 46.9304 38.5476C47.3546 38.3587 47.8352 38.2642 48.3722 38.2642C49.1278 38.2642 49.7211 38.4299 50.152 38.7614C50.5862 39.0928 50.8944 39.5303 51.0767 40.0739ZM6.83825 73.3636C6.77859 72.8598 6.53664 72.4688 6.11239 72.1903C5.68815 71.9119 5.16779 71.7727 4.55131 71.7727C4.10056 71.7727 3.70614 71.8456 3.36808 71.9915C3.03332 72.1373 2.77148 72.3378 2.58256 72.593C2.39696 72.8482 2.30415 73.1383 2.30415 73.4631C2.30415 73.7348 2.36879 73.9685 2.49805 74.1641C2.63062 74.3563 2.79966 74.517 3.00515 74.6463C3.21064 74.7723 3.42608 74.8767 3.65146 74.9595C3.87683 75.0391 4.08398 75.1037 4.2729 75.1534L5.307 75.4318C5.57215 75.5014 5.86713 75.5975 6.19194 75.7202C6.52006 75.8428 6.83327 76.0102 7.13157 76.2223C7.43318 76.4311 7.68176 76.6996 7.87731 77.0277C8.07286 77.3558 8.17063 77.7585 8.17063 78.2358C8.17063 78.786 8.02646 79.2831 7.7381 79.7273C7.45307 80.1714 7.03545 80.5244 6.48526 80.7862C5.93839 81.0481 5.27385 81.179 4.49165 81.179C3.76249 81.179 3.1311 81.0613 2.59748 80.826C2.06718 80.5907 1.64956 80.2625 1.34464 79.8416C1.04303 79.4207 0.872337 78.9318 0.832564 78.375H2.10529C2.13844 78.7595 2.2677 79.0777 2.49308 79.3295C2.72177 79.5781 3.01012 79.7637 3.35813 79.8864C3.70946 80.0057 4.0873 80.0653 4.49165 80.0653C4.9623 80.0653 5.38488 79.9891 5.75941 79.8366C6.13394 79.6809 6.43058 79.4654 6.64933 79.1903C6.86808 78.9119 6.97745 78.5871 6.97745 78.2159C6.97745 77.8778 6.88299 77.6027 6.69407 77.3906C6.50515 77.1785 6.25657 77.0062 5.94833 76.8736C5.64009 76.741 5.307 76.625 4.94904 76.5256L3.6962 76.1676C2.90075 75.9389 2.27101 75.6125 1.807 75.1882C1.34298 74.764 1.11097 74.2088 1.11097 73.5227C1.11097 72.9527 1.26509 72.4555 1.57333 72.0312C1.88488 71.6037 2.3025 71.2723 2.82617 71.0369C3.35316 70.7983 3.94147 70.679 4.59109 70.679C5.24734 70.679 5.83067 70.7966 6.34109 71.032C6.8515 71.264 7.25586 71.5821 7.55415 71.9865C7.85576 72.3909 8.01486 72.8499 8.03143 73.3636H6.83825ZM14.8512 77.8778V73.3636H16.0245V81H14.8512V79.7074H14.7717C14.5927 80.0952 14.3143 80.425 13.9364 80.6967C13.5586 80.9652 13.0813 81.0994 12.5046 81.0994C12.0273 81.0994 11.6031 80.995 11.2319 80.7862C10.8607 80.5741 10.569 80.2559 10.3569 79.8317C10.1448 79.4041 10.0387 78.8655 10.0387 78.2159V73.3636H11.212V78.1364C11.212 78.6932 11.3678 79.1373 11.6793 79.4688C11.9942 79.8002 12.3952 79.9659 12.8825 79.9659C13.1741 79.9659 13.4708 79.8913 13.7724 79.7422C14.0773 79.593 14.3325 79.3643 14.538 79.0561C14.7468 78.7479 14.8512 78.3551 14.8512 77.8778ZM18.1735 83.8636V73.3636H19.307V74.5767H19.4462C19.5324 74.4441 19.6517 74.2751 19.8042 74.0696C19.9599 73.8608 20.182 73.6752 20.4703 73.5128C20.762 73.3471 21.1564 73.2642 21.6536 73.2642C22.2966 73.2642 22.8633 73.425 23.3539 73.7464C23.8444 74.0679 24.2272 74.5237 24.5023 75.1136C24.7774 75.7036 24.915 76.3996 24.915 77.2017C24.915 78.0104 24.7774 78.7114 24.5023 79.3047C24.2272 79.8946 23.8461 80.352 23.3588 80.6768C22.8716 80.9983 22.3098 81.1591 21.6735 81.1591C21.1829 81.1591 20.7902 81.0779 20.4952 80.9155C20.2002 80.7498 19.9732 80.5625 19.8141 80.3537C19.655 80.1416 19.5324 79.9659 19.4462 79.8267H19.3468V83.8636H18.1735ZM19.3269 77.1818C19.3269 77.7585 19.4114 78.2673 19.5804 78.7081C19.7495 79.1456 19.9964 79.4886 20.3212 79.7372C20.646 79.9825 21.0437 80.1051 21.5144 80.1051C22.0049 80.1051 22.4142 79.9759 22.7424 79.7173C23.0738 79.4555 23.3224 79.1042 23.4881 78.6634C23.6571 78.2192 23.7417 77.7254 23.7417 77.1818C23.7417 76.6449 23.6588 76.161 23.4931 75.7301C23.3307 75.2959 23.0837 74.9529 22.7523 74.701C22.4242 74.4458 22.0115 74.3182 21.5144 74.3182C21.0371 74.3182 20.6361 74.4392 20.3113 74.6811C19.9864 74.9197 19.7412 75.2545 19.5755 75.6854C19.4097 76.1129 19.3269 76.6117 19.3269 77.1818ZM26.7047 83.8636V73.3636H27.8382V74.5767H27.9775C28.0636 74.4441 28.1829 74.2751 28.3354 74.0696C28.4912 73.8608 28.7132 73.6752 29.0016 73.5128C29.2933 73.3471 29.6877 73.2642 30.1848 73.2642C30.8278 73.2642 31.3946 73.425 31.8851 73.7464C32.3757 74.0679 32.7585 74.5237 33.0336 75.1136C33.3087 75.7036 33.4462 76.3996 33.4462 77.2017C33.4462 78.0104 33.3087 78.7114 33.0336 79.3047C32.7585 79.8946 32.3773 80.352 31.8901 80.6768C31.4029 80.9983 30.8411 81.1591 30.2047 81.1591C29.7142 81.1591 29.3214 81.0779 29.0265 80.9155C28.7315 80.7498 28.5044 80.5625 28.3453 80.3537C28.1863 80.1416 28.0636 79.9659 27.9775 79.8267H27.878V83.8636H26.7047ZM27.8581 77.1818C27.8581 77.7585 27.9426 78.2673 28.1117 78.7081C28.2807 79.1456 28.5276 79.4886 28.8525 79.7372C29.1773 79.9825 29.575 80.1051 30.0456 80.1051C30.5362 80.1051 30.9455 79.9759 31.2736 79.7173C31.6051 79.4555 31.8536 79.1042 32.0194 78.6634C32.1884 78.2192 32.2729 77.7254 32.2729 77.1818C32.2729 76.6449 32.19 76.161 32.0243 75.7301C31.8619 75.2959 31.615 74.9529 31.2836 74.701C30.9554 74.4458 30.5428 74.3182 30.0456 74.3182C29.5684 74.3182 29.1673 74.4392 28.8425 74.6811C28.5177 74.9197 28.2724 75.2545 28.1067 75.6854C27.941 76.1129 27.8581 76.6117 27.8581 77.1818ZM38.3382 81.1591C37.6489 81.1591 37.044 80.995 36.5236 80.6669C36.0066 80.3388 35.6022 79.8797 35.3105 79.2898C35.0222 78.6998 34.878 78.0104 34.878 77.2216C34.878 76.4261 35.0222 75.7318 35.3105 75.1385C35.6022 74.5452 36.0066 74.0845 36.5236 73.7564C37.044 73.4283 37.6489 73.2642 38.3382 73.2642C39.0276 73.2642 39.6309 73.4283 40.1479 73.7564C40.6683 74.0845 41.0726 74.5452 41.361 75.1385C41.6526 75.7318 41.7985 76.4261 41.7985 77.2216C41.7985 78.0104 41.6526 78.6998 41.361 79.2898C41.0726 79.8797 40.6683 80.3388 40.1479 80.6669C39.6309 80.995 39.0276 81.1591 38.3382 81.1591ZM38.3382 80.1051C38.8619 80.1051 39.2928 79.9709 39.6309 79.7024C39.9689 79.4339 40.2192 79.081 40.3816 78.6435C40.544 78.206 40.6252 77.732 40.6252 77.2216C40.6252 76.7112 40.544 76.2356 40.3816 75.7947C40.2192 75.3539 39.9689 74.9976 39.6309 74.7259C39.2928 74.4541 38.8619 74.3182 38.3382 74.3182C37.8146 74.3182 37.3837 74.4541 37.0456 74.7259C36.7076 74.9976 36.4573 75.3539 36.2949 75.7947C36.1325 76.2356 36.0513 76.7112 36.0513 77.2216C36.0513 77.732 36.1325 78.206 36.2949 78.6435C36.4573 79.081 36.7076 79.4339 37.0456 79.7024C37.3837 79.9709 37.8146 80.1051 38.3382 80.1051ZM43.5895 81V73.3636H44.723V74.517H44.8026C44.9418 74.1392 45.1937 73.8326 45.5582 73.5973C45.9228 73.362 46.3338 73.2443 46.7912 73.2443C46.8774 73.2443 46.9851 73.246 47.1143 73.2493C47.2436 73.2526 47.3414 73.2576 47.4077 73.2642V74.4574C47.3679 74.4474 47.2768 74.4325 47.1342 74.4126C46.995 74.3894 46.8475 74.3778 46.6918 74.3778C46.3205 74.3778 45.9891 74.4557 45.6974 74.6115C45.4091 74.764 45.1804 74.9761 45.0114 75.2479C44.8456 75.5163 44.7628 75.8229 44.7628 76.1676V81H43.5895ZM52.598 73.3636V74.358H48.6406V73.3636H52.598ZM49.794 71.5341H50.9673V78.8125C50.9673 79.1439 51.0154 79.3925 51.1115 79.5582C51.2109 79.7206 51.3369 79.83 51.4893 79.8864C51.6451 79.9394 51.8092 79.9659 51.9815 79.9659C52.1108 79.9659 52.2169 79.9593 52.2997 79.946C52.3826 79.9295 52.4489 79.9162 52.4986 79.9062L52.7372 80.9602C52.6577 80.9901 52.5466 81.0199 52.4041 81.0497C52.2616 81.0829 52.081 81.0994 51.8622 81.0994C51.5308 81.0994 51.206 81.0282 50.8878 80.8857C50.5729 80.7431 50.3111 80.526 50.1023 80.2344C49.8968 79.9427 49.794 79.5748 49.794 79.1307V71.5341ZM1.27006 116V105.818H4.71041C5.50586 105.818 6.1588 105.954 6.66921 106.226C7.17963 106.494 7.55747 106.864 7.80273 107.335C8.048 107.805 8.17063 108.34 8.17063 108.94C8.17063 109.54 8.048 110.072 7.80273 110.536C7.55747 111 7.18129 111.365 6.67418 111.63C6.16708 111.892 5.51912 112.023 4.73029 112.023H1.9462V110.909H4.69052C5.23408 110.909 5.67158 110.83 6.00302 110.67C6.33777 110.511 6.57972 110.286 6.72887 109.994C6.88133 109.699 6.95756 109.348 6.95756 108.94C6.95756 108.533 6.88133 108.176 6.72887 107.871C6.57641 107.567 6.3328 107.331 5.99805 107.165C5.66329 106.996 5.22082 106.912 4.67063 106.912H2.50302V116H1.27006ZM6.06268 111.426L8.56836 116H7.13654L4.67063 111.426H6.06268ZM13.1857 116.159C12.4499 116.159 11.8152 115.997 11.2816 115.672C10.7513 115.344 10.342 114.886 10.0536 114.3C9.76858 113.71 9.62607 113.024 9.62607 112.241C9.62607 111.459 9.76858 110.77 10.0536 110.173C10.342 109.573 10.743 109.106 11.2567 108.771C11.7738 108.433 12.377 108.264 13.0664 108.264C13.4641 108.264 13.8569 108.33 14.2447 108.463C14.6325 108.596 14.9854 108.811 15.3036 109.109C15.6218 109.404 15.8754 109.795 16.0643 110.283C16.2532 110.77 16.3477 111.37 16.3477 112.082V112.58H10.4613V111.565H15.1545C15.1545 111.134 15.0683 110.75 14.896 110.412C14.7269 110.074 14.485 109.807 14.1701 109.612C13.8585 109.416 13.4906 109.318 13.0664 109.318C12.5991 109.318 12.1947 109.434 11.8533 109.666C11.5153 109.895 11.2551 110.193 11.0728 110.561C10.8905 110.929 10.7994 111.323 10.7994 111.744V112.42C10.7994 112.997 10.8988 113.486 11.0977 113.887C11.2998 114.285 11.5799 114.588 11.9379 114.797C12.2958 115.002 12.7118 115.105 13.1857 115.105C13.494 115.105 13.7724 115.062 14.021 114.976C14.2728 114.886 14.4899 114.754 14.6722 114.578C14.8545 114.399 14.9954 114.177 15.0948 113.912L16.2283 114.23C16.109 114.615 15.9085 114.953 15.6268 115.244C15.3451 115.533 14.997 115.758 14.5827 115.92C14.1684 116.08 13.7028 116.159 13.1857 116.159ZM24.1444 108.364L21.3205 116H20.1273L17.3034 108.364H18.5762L20.6841 114.449H20.7637L22.8716 108.364H24.1444ZM25.693 116V108.364H26.8663V116H25.693ZM26.2896 107.091C26.0609 107.091 25.8637 107.013 25.698 106.857C25.5356 106.701 25.4544 106.514 25.4544 106.295C25.4544 106.077 25.5356 105.889 25.698 105.734C25.8637 105.578 26.0609 105.5 26.2896 105.5C26.5183 105.5 26.7138 105.578 26.8762 105.734C27.042 105.889 27.1248 106.077 27.1248 106.295C27.1248 106.514 27.042 106.701 26.8762 106.857C26.7138 107.013 26.5183 107.091 26.2896 107.091ZM32.217 116.159C31.4812 116.159 30.8465 115.997 30.3129 115.672C29.7826 115.344 29.3732 114.886 29.0849 114.3C28.7998 113.71 28.6573 113.024 28.6573 112.241C28.6573 111.459 28.7998 110.77 29.0849 110.173C29.3732 109.573 29.7743 109.106 30.288 108.771C30.805 108.433 31.4083 108.264 32.0977 108.264C32.4954 108.264 32.8881 108.33 33.2759 108.463C33.6637 108.596 34.0167 108.811 34.3349 109.109C34.6531 109.404 34.9066 109.795 35.0955 110.283C35.2844 110.77 35.3789 111.37 35.3789 112.082V112.58H29.4925V111.565H34.1857C34.1857 111.134 34.0996 110.75 33.9272 110.412C33.7582 110.074 33.5162 109.807 33.2013 109.612C32.8898 109.416 32.5219 109.318 32.0977 109.318C31.6303 109.318 31.226 109.434 30.8846 109.666C30.5465 109.895 30.2863 110.193 30.104 110.561C29.9218 110.929 29.8306 111.323 29.8306 111.744V112.42C29.8306 112.997 29.93 113.486 30.1289 113.887C30.3311 114.285 30.6112 114.588 30.9691 114.797C31.3271 115.002 31.743 115.105 32.217 115.105C32.5252 115.105 32.8036 115.062 33.0522 114.976C33.3041 114.886 33.5212 114.754 33.7035 114.578C33.8858 114.399 34.0266 114.177 34.1261 113.912L35.2596 114.23C35.1403 114.615 34.9397 114.953 34.658 115.244C34.3763 115.533 34.0283 115.758 33.614 115.92C33.1997 116.08 32.734 116.159 32.217 116.159ZM38.8938 116L36.5671 108.364H37.8001L39.4506 114.21H39.5302L41.1609 108.364H42.4137L44.0245 114.19H44.104L45.7546 108.364H46.9876L44.6609 116H43.5075L41.837 110.134H41.7177L40.0472 116H38.8938ZM53.9478 110.074L52.8938 110.372C52.8275 110.196 52.7298 110.026 52.6005 109.86C52.4746 109.691 52.3022 109.552 52.0835 109.442C51.8647 109.333 51.5846 109.278 51.2433 109.278C50.7759 109.278 50.3865 109.386 50.0749 109.602C49.7667 109.814 49.6126 110.084 49.6126 110.412C49.6126 110.704 49.7186 110.934 49.9308 111.103C50.1429 111.272 50.4743 111.413 50.9251 111.526L52.0586 111.804C52.7414 111.97 53.2501 112.223 53.5849 112.565C53.9196 112.903 54.087 113.339 54.087 113.872C54.087 114.31 53.9611 114.701 53.7092 115.045C53.4606 115.39 53.1126 115.662 52.6651 115.861C52.2177 116.06 51.6973 116.159 51.104 116.159C50.3252 116.159 49.6805 115.99 49.1701 115.652C48.6597 115.314 48.3365 114.82 48.2006 114.17L49.3143 113.892C49.4203 114.303 49.6209 114.611 49.9158 114.817C50.2141 115.022 50.6036 115.125 51.0842 115.125C51.631 115.125 52.0652 115.009 52.3867 114.777C52.7115 114.542 52.8739 114.26 52.8739 113.932C52.8739 113.667 52.7811 113.445 52.5955 113.266C52.4099 113.083 52.1249 112.947 51.7404 112.858L50.4677 112.56C49.7683 112.394 49.2546 112.137 48.9265 111.789C48.6017 111.438 48.4393 110.999 48.4393 110.472C48.4393 110.041 48.5603 109.66 48.8022 109.328C49.0475 108.997 49.3806 108.737 49.8015 108.548C50.2257 108.359 50.7063 108.264 51.2433 108.264C51.9989 108.264 52.5922 108.43 53.0231 108.761C53.4573 109.093 53.7655 109.53 53.9478 110.074ZM5.16779 140.818H6.40075V148.097C6.40075 148.746 6.28143 149.298 6.04279 149.752C5.80415 150.206 5.46774 150.551 5.03356 150.786C4.59937 151.022 4.0873 151.139 3.49734 151.139C2.94052 151.139 2.44502 151.038 2.01083 150.836C1.57665 150.63 1.23526 150.339 0.986683 149.961C0.738104 149.583 0.613814 149.134 0.613814 148.614H1.82688C1.82688 148.902 1.89814 149.154 2.04066 149.369C2.18649 149.581 2.38536 149.747 2.63725 149.866C2.88915 149.986 3.17584 150.045 3.49734 150.045C3.85198 150.045 4.15359 149.971 4.40217 149.822C4.65075 149.673 4.83967 149.454 4.96893 149.165C5.1015 148.874 5.16779 148.518 5.16779 148.097V140.818ZM11.8148 151.159C11.1254 151.159 10.5205 150.995 10.0002 150.667C9.48313 150.339 9.07878 149.88 8.78711 149.29C8.49876 148.7 8.35458 148.01 8.35458 147.222C8.35458 146.426 8.49876 145.732 8.78711 145.138C9.07878 144.545 9.48313 144.085 10.0002 143.756C10.5205 143.428 11.1254 143.264 11.8148 143.264C12.5042 143.264 13.1074 143.428 13.6245 143.756C14.1448 144.085 14.5492 144.545 14.8375 145.138C15.1292 145.732 15.275 146.426 15.275 147.222C15.275 148.01 15.1292 148.7 14.8375 149.29C14.5492 149.88 14.1448 150.339 13.6245 150.667C13.1074 150.995 12.5042 151.159 11.8148 151.159ZM11.8148 150.105C12.3385 150.105 12.7694 149.971 13.1074 149.702C13.4455 149.434 13.6957 149.081 13.8581 148.643C14.0205 148.206 14.1017 147.732 14.1017 147.222C14.1017 146.711 14.0205 146.236 13.8581 145.795C13.6957 145.354 13.4455 144.998 13.1074 144.726C12.7694 144.454 12.3385 144.318 11.8148 144.318C11.2911 144.318 10.8603 144.454 10.5222 144.726C10.1841 144.998 9.93389 145.354 9.77148 145.795C9.60908 146.236 9.52788 146.711 9.52788 147.222C9.52788 147.732 9.60908 148.206 9.77148 148.643C9.93389 149.081 10.1841 149.434 10.5222 149.702C10.8603 149.971 11.2911 150.105 11.8148 150.105ZM17.0661 151V143.364H18.2393V151H17.0661ZM17.6626 142.091C17.4339 142.091 17.2367 142.013 17.071 141.857C16.9086 141.701 16.8274 141.514 16.8274 141.295C16.8274 141.077 16.9086 140.889 17.071 140.734C17.2367 140.578 17.4339 140.5 17.6626 140.5C17.8913 140.5 18.0869 140.578 18.2493 140.734C18.415 140.889 18.4979 141.077 18.4979 141.295C18.4979 141.514 18.415 141.701 18.2493 141.857C18.0869 142.013 17.8913 142.091 17.6626 142.091ZM21.5616 146.406V151H20.3883V143.364H21.5218V144.557H21.6213C21.8002 144.169 22.072 143.857 22.4366 143.622C22.8012 143.384 23.2718 143.264 23.8485 143.264C24.3656 143.264 24.818 143.37 25.2058 143.582C25.5936 143.791 25.8952 144.109 26.1106 144.537C26.3261 144.961 26.4338 145.498 26.4338 146.148V151H25.2605V146.227C25.2605 145.627 25.1047 145.16 24.7931 144.825C24.4816 144.487 24.054 144.318 23.5105 144.318C23.1359 144.318 22.8012 144.399 22.5062 144.562C22.2145 144.724 21.9842 144.961 21.8152 145.273C21.6461 145.584 21.5616 145.962 21.5616 146.406ZM35.3988 151.159C34.7624 151.159 34.2006 150.998 33.7134 150.677C33.2262 150.352 32.8451 149.895 32.57 149.305C32.2949 148.711 32.1573 148.01 32.1573 147.202C32.1573 146.4 32.2949 145.704 32.57 145.114C32.8451 144.524 33.2279 144.068 33.7184 143.746C34.2089 143.425 34.7757 143.264 35.4187 143.264C35.9158 143.264 36.3086 143.347 36.5969 143.513C36.8886 143.675 37.1107 143.861 37.2631 144.07C37.4189 144.275 37.5399 144.444 37.6261 144.577H37.7255V140.818H38.8988V151H37.7653V149.827H37.6261C37.5399 149.966 37.4173 150.142 37.2582 150.354C37.0991 150.562 36.872 150.75 36.5771 150.915C36.2821 151.078 35.8893 151.159 35.3988 151.159ZM35.5579 150.105C36.0285 150.105 36.4263 149.982 36.7511 149.737C37.0759 149.489 37.3228 149.146 37.4918 148.708C37.6609 148.267 37.7454 147.759 37.7454 147.182C37.7454 146.612 37.6625 146.113 37.4968 145.685C37.3311 145.254 37.0858 144.92 36.761 144.681C36.4362 144.439 36.0352 144.318 35.5579 144.318C35.0607 144.318 34.6464 144.446 34.315 144.701C33.9869 144.953 33.7399 145.296 33.5742 145.73C33.4118 146.161 33.3306 146.645 33.3306 147.182C33.3306 147.725 33.4135 148.219 33.5792 148.663C33.7482 149.104 33.9968 149.455 34.3249 149.717C34.6564 149.976 35.0674 150.105 35.5579 150.105ZM41.2106 151V143.364H42.3839V151H41.2106ZM41.8072 142.091C41.5785 142.091 41.3813 142.013 41.2156 141.857C41.0531 141.701 40.9719 141.514 40.9719 141.295C40.9719 141.077 41.0531 140.889 41.2156 140.734C41.3813 140.578 41.5785 140.5 41.8072 140.5C42.0359 140.5 42.2314 140.578 42.3938 140.734C42.5595 140.889 42.6424 141.077 42.6424 141.295C42.6424 141.514 42.5595 141.701 42.3938 141.857C42.2314 142.013 42.0359 142.091 41.8072 142.091ZM49.9419 145.074L48.888 145.372C48.8217 145.196 48.7239 145.026 48.5946 144.86C48.4687 144.691 48.2963 144.552 48.0776 144.442C47.8588 144.333 47.5788 144.278 47.2374 144.278C46.7701 144.278 46.3806 144.386 46.0691 144.602C45.7608 144.814 45.6067 145.084 45.6067 145.412C45.6067 145.704 45.7128 145.934 45.9249 146.103C46.137 146.272 46.4685 146.413 46.9192 146.526L48.0527 146.804C48.7355 146.97 49.2443 147.223 49.579 147.565C49.9138 147.903 50.0811 148.339 50.0811 148.872C50.0811 149.31 49.9552 149.701 49.7033 150.045C49.4547 150.39 49.1067 150.662 48.6593 150.861C48.2118 151.06 47.6915 151.159 47.0982 151.159C46.3193 151.159 45.6747 150.99 45.1642 150.652C44.6538 150.314 44.3307 149.82 44.1948 149.17L45.3084 148.892C45.4145 149.303 45.615 149.611 45.91 149.817C46.2083 150.022 46.5977 150.125 47.0783 150.125C47.6252 150.125 48.0594 150.009 48.3809 149.777C48.7057 149.542 48.8681 149.26 48.8681 148.932C48.8681 148.667 48.7753 148.445 48.5897 148.266C48.4041 148.083 48.119 147.947 47.7346 147.858L46.4618 147.56C45.7625 147.394 45.2488 147.137 44.9206 146.789C44.5958 146.438 44.4334 145.999 44.4334 145.472C44.4334 145.041 44.5544 144.66 44.7963 144.328C45.0416 143.997 45.3747 143.737 45.7956 143.548C46.2199 143.359 46.7005 143.264 47.2374 143.264C47.9931 143.264 48.5864 143.43 49.0172 143.761C49.4514 144.093 49.7596 144.53 49.9419 145.074ZM54.9496 151.159C54.2337 151.159 53.6172 150.99 53.1001 150.652C52.5831 150.314 52.1854 149.848 51.907 149.255C51.6286 148.662 51.4893 147.984 51.4893 147.222C51.4893 146.446 51.6319 145.762 51.9169 145.168C52.2053 144.572 52.6063 144.106 53.12 143.771C53.6371 143.433 54.2403 143.264 54.9297 143.264C55.4666 143.264 55.9505 143.364 56.3814 143.562C56.8123 143.761 57.1652 144.04 57.4403 144.398C57.7154 144.756 57.8861 145.173 57.9524 145.651H56.7791C56.6896 145.303 56.4908 144.994 56.1825 144.726C55.8776 144.454 55.4666 144.318 54.9496 144.318C54.4922 144.318 54.0911 144.437 53.7464 144.676C53.4051 144.911 53.1383 145.245 52.946 145.675C52.7571 146.103 52.6626 146.605 52.6626 147.182C52.6626 147.772 52.7554 148.286 52.9411 148.723C53.13 149.161 53.3951 149.5 53.7365 149.742C54.0812 149.984 54.4856 150.105 54.9496 150.105C55.2545 150.105 55.5312 150.052 55.7798 149.946C56.0284 149.84 56.2389 149.688 56.4112 149.489C56.5836 149.29 56.7062 149.051 56.7791 148.773H57.9524C57.8861 149.223 57.7221 149.629 57.4602 149.991C57.2017 150.349 56.8587 150.634 56.4311 150.846C56.0069 151.055 55.513 151.159 54.9496 151.159ZM61.9148 151.179C61.4309 151.179 60.9917 151.088 60.5973 150.906C60.2029 150.72 59.8897 150.453 59.6577 150.105C59.4257 149.754 59.3097 149.33 59.3097 148.832C59.3097 148.395 59.3958 148.04 59.5682 147.768C59.7405 147.493 59.9709 147.278 60.2592 147.122C60.5476 146.966 60.8658 146.85 61.2138 146.774C61.5651 146.695 61.9181 146.632 62.2727 146.585C62.7367 146.526 63.1129 146.481 63.4013 146.451C63.6929 146.418 63.9051 146.363 64.0376 146.287C64.1735 146.211 64.2415 146.078 64.2415 145.889V145.849C64.2415 145.359 64.1072 144.978 63.8388 144.706C63.5736 144.434 63.1709 144.298 62.6307 144.298C62.0705 144.298 61.6314 144.421 61.3132 144.666C60.995 144.911 60.7713 145.173 60.642 145.452L59.5284 145.054C59.7273 144.59 59.9924 144.229 60.3239 143.97C60.6586 143.708 61.0232 143.526 61.4176 143.423C61.8153 143.317 62.2064 143.264 62.5909 143.264C62.8362 143.264 63.1179 143.294 63.4361 143.354C63.7576 143.41 64.0675 143.528 64.3658 143.707C64.6674 143.886 64.9176 144.156 65.1165 144.517C65.3153 144.878 65.4148 145.362 65.4148 145.969V151H64.2415V149.966H64.1818C64.1023 150.132 63.9697 150.309 63.7841 150.498C63.5985 150.687 63.3516 150.848 63.0433 150.98C62.7351 151.113 62.3589 151.179 61.9148 151.179ZM62.0938 150.125C62.5578 150.125 62.9489 150.034 63.267 149.852C63.5885 149.669 63.8305 149.434 63.9929 149.146C64.1586 148.857 64.2415 148.554 64.2415 148.236V147.162C64.1918 147.222 64.0824 147.276 63.9134 147.326C63.7476 147.372 63.5554 147.414 63.3366 147.45C63.1212 147.483 62.9107 147.513 62.7053 147.54C62.5031 147.563 62.339 147.583 62.2131 147.599C61.9081 147.639 61.6231 147.704 61.358 147.793C61.0961 147.879 60.884 148.01 60.7216 148.186C60.5625 148.358 60.483 148.594 60.483 148.892C60.483 149.3 60.6338 149.608 60.9354 149.817C61.2403 150.022 61.6264 150.125 62.0938 150.125ZM67.5563 151V143.364H68.6898V144.517H68.7694C68.9086 144.139 69.1605 143.833 69.525 143.597C69.8896 143.362 70.3006 143.244 70.758 143.244C70.8442 143.244 70.9519 143.246 71.0811 143.249C71.2104 143.253 71.3082 143.258 71.3745 143.264V144.457C71.3347 144.447 71.2435 144.433 71.101 144.413C70.9618 144.389 70.8143 144.378 70.6586 144.378C70.2873 144.378 69.9559 144.456 69.6642 144.612C69.3759 144.764 69.1472 144.976 68.9782 145.248C68.8124 145.516 68.7296 145.823 68.7296 146.168V151H67.5563ZM75.4164 151.159C74.78 151.159 74.2182 150.998 73.731 150.677C73.2438 150.352 72.8626 149.895 72.5875 149.305C72.3124 148.711 72.1749 148.01 72.1749 147.202C72.1749 146.4 72.3124 145.704 72.5875 145.114C72.8626 144.524 73.2454 144.068 73.736 143.746C74.2265 143.425 74.7933 143.264 75.4363 143.264C75.9334 143.264 76.3262 143.347 76.6145 143.513C76.9062 143.675 77.1283 143.861 77.2807 144.07C77.4365 144.275 77.5575 144.444 77.6436 144.577H77.7431V140.818H78.9164V151H77.7828V149.827H77.6436C77.5575 149.966 77.4348 150.142 77.2757 150.354C77.1167 150.562 76.8896 150.75 76.5946 150.915C76.2997 151.078 75.9069 151.159 75.4164 151.159ZM75.5755 150.105C76.0461 150.105 76.4438 149.982 76.7686 149.737C77.0935 149.489 77.3404 149.146 77.5094 148.708C77.6784 148.267 77.763 147.759 77.763 147.182C77.763 146.612 77.6801 146.113 77.5144 145.685C77.3487 145.254 77.1034 144.92 76.7786 144.681C76.4538 144.439 76.0527 144.318 75.5755 144.318C75.0783 144.318 74.664 144.446 74.3326 144.701C74.0044 144.953 73.7575 145.296 73.5918 145.73C73.4294 146.161 73.3482 146.645 73.3482 147.182C73.3482 147.725 73.431 148.219 73.5968 148.663C73.7658 149.104 74.0144 149.455 74.3425 149.717C74.6739 149.976 75.0849 150.105 75.5755 150.105ZM0.713246 176.912V175.818H8.34961V176.912H5.14791V186H3.91495V176.912H0.713246ZM12.1877 186.159C11.4519 186.159 10.8172 185.997 10.2836 185.672C9.75326 185.344 9.34393 184.886 9.05558 184.3C8.77054 183.71 8.62802 183.024 8.62802 182.241C8.62802 181.459 8.77054 180.77 9.05558 180.173C9.34393 179.573 9.74497 179.106 10.2587 178.771C10.7757 178.433 11.379 178.264 12.0684 178.264C12.4661 178.264 12.8588 178.33 13.2466 178.463C13.6344 178.596 13.9874 178.811 14.3056 179.109C14.6238 179.404 14.8773 179.795 15.0662 180.283C15.2551 180.77 15.3496 181.37 15.3496 182.082V182.58H9.46325V181.565H14.1564C14.1564 181.134 14.0703 180.75 13.8979 180.412C13.7289 180.074 13.4869 179.807 13.1721 179.612C12.8605 179.416 12.4926 179.318 12.0684 179.318C11.601 179.318 11.1967 179.434 10.8553 179.666C10.5172 179.895 10.257 180.193 10.0748 180.561C9.89246 180.929 9.80131 181.323 9.80131 181.744V182.42C9.80131 182.997 9.90075 183.486 10.0996 183.887C10.3018 184.285 10.5819 184.588 10.9398 184.797C11.2978 185.002 11.7137 185.105 12.1877 185.105C12.4959 185.105 12.7743 185.062 13.0229 184.976C13.2748 184.886 13.4919 184.754 13.6742 184.578C13.8565 184.399 13.9973 184.177 14.0968 183.912L15.2303 184.23C15.111 184.615 14.9105 184.953 14.6287 185.244C14.347 185.533 13.999 185.758 13.5847 185.92C13.1704 186.08 12.7047 186.159 12.1877 186.159ZM17.1344 186V178.364H18.2679V179.517H18.3475C18.4867 179.139 18.7386 178.833 19.1032 178.597C19.4677 178.362 19.8787 178.244 20.3361 178.244C20.4223 178.244 20.53 178.246 20.6593 178.249C20.7885 178.253 20.8863 178.258 20.9526 178.264V179.457C20.9128 179.447 20.8217 179.433 20.6792 179.413C20.54 179.389 20.3925 179.378 20.2367 179.378C19.8655 179.378 19.534 179.456 19.2424 179.612C18.954 179.764 18.7253 179.976 18.5563 180.248C18.3906 180.516 18.3077 180.823 18.3077 181.168V186H17.1344ZM22.3434 186V178.364H23.4769V179.557H23.5763C23.7354 179.149 23.9923 178.833 24.3469 178.607C24.7016 178.379 25.1275 178.264 25.6246 178.264C26.1284 178.264 26.5477 178.379 26.8825 178.607C27.2205 178.833 27.484 179.149 27.6729 179.557H27.7525C27.948 179.162 28.2414 178.849 28.6325 178.617C29.0236 178.382 29.4925 178.264 30.0394 178.264C30.7222 178.264 31.2807 178.478 31.7148 178.906C32.149 179.33 32.3661 179.991 32.3661 180.889V186H31.1928V180.889C31.1928 180.326 31.0387 179.923 30.7305 179.681C30.4222 179.439 30.0593 179.318 29.6417 179.318C29.1048 179.318 28.6888 179.481 28.3938 179.805C28.0988 180.127 27.9513 180.535 27.9513 181.028V186H26.7582V180.77C26.7582 180.336 26.6173 179.986 26.3356 179.721C26.0539 179.452 25.6909 179.318 25.2468 179.318C24.9419 179.318 24.6568 179.399 24.3917 179.562C24.1299 179.724 23.9177 179.95 23.7553 180.238C23.5962 180.523 23.5167 180.853 23.5167 181.227V186H22.3434ZM39.9205 180.074L38.8665 180.372C38.8002 180.196 38.7024 180.026 38.5732 179.86C38.4472 179.691 38.2749 179.552 38.0561 179.442C37.8374 179.333 37.5573 179.278 37.2159 179.278C36.7486 179.278 36.3591 179.386 36.0476 179.602C35.7393 179.814 35.5852 180.084 35.5852 180.412C35.5852 180.704 35.6913 180.934 35.9034 181.103C36.1155 181.272 36.447 181.413 36.8977 181.526L38.0312 181.804C38.714 181.97 39.2228 182.223 39.5575 182.565C39.8923 182.903 40.0597 183.339 40.0597 183.872C40.0597 184.31 39.9337 184.701 39.6818 185.045C39.4332 185.39 39.0852 185.662 38.6378 185.861C38.1903 186.06 37.67 186.159 37.0767 186.159C36.2978 186.159 35.6532 185.99 35.1428 185.652C34.6323 185.314 34.3092 184.82 34.1733 184.17L35.2869 183.892C35.393 184.303 35.5935 184.611 35.8885 184.817C36.1868 185.022 36.5762 185.125 37.0568 185.125C37.6037 185.125 38.0379 185.009 38.3594 184.777C38.6842 184.542 38.8466 184.26 38.8466 183.932C38.8466 183.667 38.7538 183.445 38.5682 183.266C38.3826 183.083 38.0975 182.947 37.7131 182.858L36.4403 182.56C35.741 182.394 35.2273 182.137 34.8991 181.789C34.5743 181.438 34.4119 180.999 34.4119 180.472C34.4119 180.041 34.5329 179.66 34.7749 179.328C35.0201 178.997 35.3532 178.737 35.7741 178.548C36.1984 178.359 36.679 178.264 37.2159 178.264C37.9716 178.264 38.5649 178.43 38.9957 178.761C39.4299 179.093 39.7382 179.53 39.9205 180.074ZM48.8656 186.159C48.1762 186.159 47.5713 185.995 47.051 185.667C46.5339 185.339 46.1296 184.88 45.8379 184.29C45.5495 183.7 45.4054 183.01 45.4054 182.222C45.4054 181.426 45.5495 180.732 45.8379 180.138C46.1296 179.545 46.5339 179.085 47.051 178.756C47.5713 178.428 48.1762 178.264 48.8656 178.264C49.555 178.264 50.1582 178.428 50.6752 178.756C51.1956 179.085 51.6 179.545 51.8883 180.138C52.18 180.732 52.3258 181.426 52.3258 182.222C52.3258 183.01 52.18 183.7 51.8883 184.29C51.6 184.88 51.1956 185.339 50.6752 185.667C50.1582 185.995 49.555 186.159 48.8656 186.159ZM48.8656 185.105C49.3893 185.105 49.8201 184.971 50.1582 184.702C50.4963 184.434 50.7465 184.081 50.9089 183.643C51.0713 183.206 51.1525 182.732 51.1525 182.222C51.1525 181.711 51.0713 181.236 50.9089 180.795C50.7465 180.354 50.4963 179.998 50.1582 179.726C49.8201 179.454 49.3893 179.318 48.8656 179.318C48.3419 179.318 47.911 179.454 47.573 179.726C47.2349 179.998 46.9847 180.354 46.8223 180.795C46.6599 181.236 46.5787 181.711 46.5787 182.222C46.5787 182.732 46.6599 183.206 46.8223 183.643C46.9847 184.081 47.2349 184.434 47.573 184.702C47.911 184.971 48.3419 185.105 48.8656 185.105ZM57.5174 178.364V179.358H53.4009V178.364H57.5174ZM54.6339 186V177.31C54.6339 176.872 54.7366 176.508 54.9421 176.216C55.1476 175.924 55.4144 175.705 55.7425 175.56C56.0707 175.414 56.417 175.341 56.7816 175.341C57.07 175.341 57.3053 175.364 57.4876 175.411C57.6699 175.457 57.8058 175.5 57.8952 175.54L57.5572 176.554C57.4975 176.534 57.4147 176.509 57.3086 176.479C57.2058 176.45 57.07 176.435 56.9009 176.435C56.5131 176.435 56.2331 176.532 56.0607 176.728C55.8917 176.924 55.8072 177.21 55.8072 177.588V186H54.6339ZM69.9402 175.818H71.1731V182.56C71.1731 183.256 71.0091 183.877 70.6809 184.424C70.3561 184.968 69.8971 185.397 69.3038 185.712C68.7105 186.023 68.0145 186.179 67.2157 186.179C66.417 186.179 65.7209 186.023 65.1277 185.712C64.5344 185.397 64.0737 184.968 63.7456 184.424C63.4208 183.877 63.2583 183.256 63.2583 182.56V175.818H64.4913V182.46C64.4913 182.957 64.6007 183.4 64.8194 183.788C65.0382 184.172 65.3497 184.475 65.7541 184.697C66.1618 184.916 66.649 185.026 67.2157 185.026C67.7825 185.026 68.2697 184.916 68.6774 184.697C69.0851 184.475 69.3966 184.172 69.612 183.788C69.8308 183.4 69.9402 182.957 69.9402 182.46V175.818ZM78.8853 180.074L77.8313 180.372C77.765 180.196 77.6673 180.026 77.538 179.86C77.4121 179.691 77.2397 179.552 77.021 179.442C76.8022 179.333 76.5221 179.278 76.1808 179.278C75.7134 179.278 75.324 179.386 75.0124 179.602C74.7042 179.814 74.5501 180.084 74.5501 180.412C74.5501 180.704 74.6561 180.934 74.8683 181.103C75.0804 181.272 75.4118 181.413 75.8626 181.526L76.9961 181.804C77.6789 181.97 78.1876 182.223 78.5224 182.565C78.8571 182.903 79.0245 183.339 79.0245 183.872C79.0245 184.31 78.8986 184.701 78.6467 185.045C78.3981 185.39 78.0501 185.662 77.6026 185.861C77.1552 186.06 76.6348 186.159 76.0415 186.159C75.2627 186.159 74.618 185.99 74.1076 185.652C73.5972 185.314 73.274 184.82 73.1381 184.17L74.2518 183.892C74.3578 184.303 74.5584 184.611 74.8533 184.817C75.1516 185.022 75.5411 185.125 76.0217 185.125C76.5685 185.125 77.0027 185.009 77.3242 184.777C77.649 184.542 77.8114 184.26 77.8114 183.932C77.8114 183.667 77.7186 183.445 77.533 183.266C77.3474 183.083 77.0624 182.947 76.6779 182.858L75.4052 182.56C74.7058 182.394 74.1921 182.137 73.864 181.789C73.5392 181.438 73.3768 180.999 73.3768 180.472C73.3768 180.041 73.4978 179.66 73.7397 179.328C73.985 178.997 74.3181 178.737 74.739 178.548C75.1632 178.359 75.6438 178.264 76.1808 178.264C76.9364 178.264 77.5297 178.43 77.9606 178.761C78.3948 179.093 78.703 179.53 78.8853 180.074ZM83.9924 186.159C83.2566 186.159 82.6219 185.997 82.0882 185.672C81.5579 185.344 81.1486 184.886 80.8603 184.3C80.5752 183.71 80.4327 183.024 80.4327 182.241C80.4327 181.459 80.5752 180.77 80.8603 180.173C81.1486 179.573 81.5497 179.106 82.0634 178.771C82.5804 178.433 83.1837 178.264 83.873 178.264C84.2708 178.264 84.6635 178.33 85.0513 178.463C85.4391 178.596 85.7921 178.811 86.1103 179.109C86.4284 179.404 86.682 179.795 86.8709 180.283C87.0598 180.77 87.1543 181.37 87.1543 182.082V182.58H81.2679V181.565H85.9611C85.9611 181.134 85.8749 180.75 85.7026 180.412C85.5336 180.074 85.2916 179.807 84.9767 179.612C84.6652 179.416 84.2973 179.318 83.873 179.318C83.4057 179.318 83.0014 179.434 82.66 179.666C82.3219 179.895 82.0617 180.193 81.8794 180.561C81.6971 180.929 81.606 181.323 81.606 181.744V182.42C81.606 182.997 81.7054 183.486 81.9043 183.887C82.1065 184.285 82.3865 184.588 82.7445 184.797C83.1025 185.002 83.5184 185.105 83.9924 185.105C84.3006 185.105 84.579 185.062 84.8276 184.976C85.0795 184.886 85.2966 184.754 85.4789 184.578C85.6612 184.399 85.802 184.177 85.9015 183.912L87.035 184.23C86.9157 184.615 86.7151 184.953 86.4334 185.244C86.1517 185.533 85.8037 185.758 85.3894 185.92C84.9751 186.08 84.5094 186.159 83.9924 186.159ZM1.27006 221V210.818H4.71041C5.50917 210.818 6.16211 210.962 6.66921 211.251C7.17963 211.536 7.55747 211.922 7.80273 212.409C8.048 212.896 8.17063 213.44 8.17063 214.04C8.17063 214.64 8.048 215.185 7.80273 215.675C7.56078 216.166 7.18626 216.557 6.67916 216.849C6.17205 217.137 5.52243 217.281 4.73029 217.281H2.26438V216.188H4.69052C5.23739 216.188 5.67655 216.093 6.00799 215.904C6.33943 215.715 6.57972 215.46 6.72887 215.138C6.88133 214.814 6.95756 214.447 6.95756 214.04C6.95756 213.632 6.88133 213.268 6.72887 212.946C6.57972 212.625 6.33777 212.373 6.00302 212.19C5.66826 212.005 5.22414 211.912 4.67063 211.912H2.50302V221H1.27006ZM9.99769 221V213.364H11.1312V214.517H11.2108C11.35 214.139 11.6019 213.833 11.9664 213.597C12.331 213.362 12.742 213.244 13.1994 213.244C13.2856 213.244 13.3933 213.246 13.5225 213.249C13.6518 213.253 13.7496 213.258 13.8159 213.264V214.457C13.7761 214.447 13.685 214.433 13.5424 214.413C13.4032 214.389 13.2557 214.378 13.1 214.378C12.7288 214.378 12.3973 214.456 12.1056 214.612C11.8173 214.764 11.5886 214.976 11.4196 215.248C11.2538 215.516 11.171 215.823 11.171 216.168V221H9.99769ZM15.2067 221V213.364H16.38V221H15.2067ZM15.8033 212.091C15.5746 212.091 15.3774 212.013 15.2116 211.857C15.0492 211.701 14.968 211.514 14.968 211.295C14.968 211.077 15.0492 210.889 15.2116 210.734C15.3774 210.578 15.5746 210.5 15.8033 210.5C16.032 210.5 16.2275 210.578 16.3899 210.734C16.5556 210.889 16.6385 211.077 16.6385 211.295C16.6385 211.514 16.5556 211.701 16.3899 211.857C16.2275 212.013 16.032 212.091 15.8033 212.091ZM24.7733 213.364L21.9494 221H20.7562L17.9324 213.364H19.2051L21.313 219.449H21.3926L23.5005 213.364H24.7733ZM28.3366 221.179C27.8527 221.179 27.4136 221.088 27.0192 220.906C26.6248 220.72 26.3116 220.453 26.0795 220.105C25.8475 219.754 25.7315 219.33 25.7315 218.832C25.7315 218.395 25.8177 218.04 25.9901 217.768C26.1624 217.493 26.3928 217.278 26.6811 217.122C26.9695 216.966 27.2876 216.85 27.6357 216.774C27.987 216.695 28.34 216.632 28.6946 216.585C29.1586 216.526 29.5348 216.481 29.8232 216.451C30.1148 216.418 30.3269 216.363 30.4595 216.287C30.5954 216.211 30.6634 216.078 30.6634 215.889V215.849C30.6634 215.359 30.5291 214.978 30.2607 214.706C29.9955 214.434 29.5928 214.298 29.0526 214.298C28.4924 214.298 28.0533 214.421 27.7351 214.666C27.4169 214.911 27.1932 215.173 27.0639 215.452L25.9503 215.054C26.1491 214.59 26.4143 214.229 26.7457 213.97C27.0805 213.708 27.4451 213.526 27.8395 213.423C28.2372 213.317 28.6283 213.264 29.0128 213.264C29.258 213.264 29.5398 213.294 29.858 213.354C30.1795 213.41 30.4893 213.528 30.7876 213.707C31.0893 213.886 31.3395 214.156 31.5384 214.517C31.7372 214.878 31.8366 215.362 31.8366 215.969V221H30.6634V219.966H30.6037C30.5241 220.132 30.3916 220.309 30.206 220.498C30.0204 220.687 29.7734 220.848 29.4652 220.98C29.157 221.113 28.7808 221.179 28.3366 221.179ZM28.5156 220.125C28.9796 220.125 29.3707 220.034 29.6889 219.852C30.0104 219.669 30.2524 219.434 30.4148 219.146C30.5805 218.857 30.6634 218.554 30.6634 218.236V217.162C30.6136 217.222 30.5043 217.276 30.3352 217.326C30.1695 217.372 29.9773 217.414 29.7585 217.45C29.5431 217.483 29.3326 217.513 29.1271 217.54C28.925 217.563 28.7609 217.583 28.6349 217.599C28.33 217.639 28.045 217.704 27.7798 217.793C27.518 217.879 27.3059 218.01 27.1435 218.186C26.9844 218.358 26.9048 218.594 26.9048 218.892C26.9048 219.3 27.0556 219.608 27.3572 219.817C27.6622 220.022 28.0483 220.125 28.5156 220.125ZM37.0804 221.159C36.3645 221.159 35.748 220.99 35.231 220.652C34.714 220.314 34.3162 219.848 34.0378 219.255C33.7594 218.662 33.6202 217.984 33.6202 217.222C33.6202 216.446 33.7627 215.762 34.0478 215.168C34.3361 214.572 34.7372 214.106 35.2509 213.771C35.7679 213.433 36.3712 213.264 37.0605 213.264C37.5975 213.264 38.0814 213.364 38.5123 213.562C38.9431 213.761 39.2961 214.04 39.5712 214.398C39.8463 214.756 40.017 215.173 40.0833 215.651H38.91C38.8205 215.303 38.6216 214.994 38.3134 214.726C38.0085 214.454 37.5975 214.318 37.0804 214.318C36.623 214.318 36.222 214.437 35.8773 214.676C35.5359 214.911 35.2691 215.245 35.0769 215.675C34.888 216.103 34.7935 216.605 34.7935 217.182C34.7935 217.772 34.8863 218.286 35.0719 218.723C35.2608 219.161 35.526 219.5 35.8674 219.742C36.2121 219.984 36.6164 220.105 37.0804 220.105C37.3854 220.105 37.6621 220.052 37.9107 219.946C38.1593 219.84 38.3697 219.688 38.5421 219.489C38.7144 219.29 38.8371 219.051 38.91 218.773H40.0833C40.017 219.223 39.8529 219.629 39.5911 219.991C39.3326 220.349 38.9895 220.634 38.562 220.846C38.1377 221.055 37.6439 221.159 37.0804 221.159ZM42.5542 223.864C42.3553 223.864 42.178 223.847 42.0222 223.814C41.8664 223.784 41.7587 223.754 41.699 223.724L41.9973 222.69C42.2824 222.763 42.5343 222.79 42.753 222.77C42.9718 222.75 43.1657 222.652 43.3347 222.477C43.507 222.304 43.6645 222.024 43.807 221.636L44.0257 221.04L41.2019 213.364H42.4746L44.5826 219.449H44.6621L46.7701 213.364H48.0428L44.8013 222.114C44.6555 222.508 44.4748 222.835 44.2594 223.093C44.044 223.355 43.7937 223.549 43.5087 223.675C43.227 223.801 42.9088 223.864 42.5542 223.864ZM53.688 221V210.818H57.1284C57.9271 210.818 58.5801 210.962 59.0872 211.251C59.5976 211.536 59.9754 211.922 60.2207 212.409C60.466 212.896 60.5886 213.44 60.5886 214.04C60.5886 214.64 60.466 215.185 60.2207 215.675C59.9788 216.166 59.6042 216.557 59.0971 216.849C58.59 217.137 57.9404 217.281 57.1483 217.281H54.6824V216.188H57.1085C57.6554 216.188 58.0945 216.093 58.426 215.904C58.7574 215.715 58.9977 215.46 59.1468 215.138C59.2993 214.814 59.3755 214.447 59.3755 214.04C59.3755 213.632 59.2993 213.268 59.1468 212.946C58.9977 212.625 58.7557 212.373 58.421 212.19C58.0862 212.005 57.6421 211.912 57.0886 211.912H54.921V221H53.688ZM65.4359 221.159C64.7465 221.159 64.1416 220.995 63.6213 220.667C63.1042 220.339 62.6999 219.88 62.4082 219.29C62.1199 218.7 61.9757 218.01 61.9757 217.222C61.9757 216.426 62.1199 215.732 62.4082 215.138C62.6999 214.545 63.1042 214.085 63.6213 213.756C64.1416 213.428 64.7465 213.264 65.4359 213.264C66.1253 213.264 66.7285 213.428 67.2456 213.756C67.7659 214.085 68.1703 214.545 68.4586 215.138C68.7503 215.732 68.8961 216.426 68.8961 217.222C68.8961 218.01 68.7503 218.7 68.4586 219.29C68.1703 219.88 67.7659 220.339 67.2456 220.667C66.7285 220.995 66.1253 221.159 65.4359 221.159ZM65.4359 220.105C65.9596 220.105 66.3904 219.971 66.7285 219.702C67.0666 219.434 67.3168 219.081 67.4792 218.643C67.6416 218.206 67.7228 217.732 67.7228 217.222C67.7228 216.711 67.6416 216.236 67.4792 215.795C67.3168 215.354 67.0666 214.998 66.7285 214.726C66.3904 214.454 65.9596 214.318 65.4359 214.318C64.9122 214.318 64.4814 214.454 64.1433 214.726C63.8052 214.998 63.555 215.354 63.3926 215.795C63.2302 216.236 63.149 216.711 63.149 217.222C63.149 217.732 63.2302 218.206 63.3926 218.643C63.555 219.081 63.8052 219.434 64.1433 219.702C64.4814 219.971 64.9122 220.105 65.4359 220.105ZM71.8604 210.818V221H70.6871V210.818H71.8604ZM74.0094 221V213.364H75.1827V221H74.0094ZM74.606 212.091C74.3773 212.091 74.1801 212.013 74.0144 211.857C73.852 211.701 73.7708 211.514 73.7708 211.295C73.7708 211.077 73.852 210.889 74.0144 210.734C74.1801 210.578 74.3773 210.5 74.606 210.5C74.8347 210.5 75.0302 210.578 75.1926 210.734C75.3584 210.889 75.4412 211.077 75.4412 211.295C75.4412 211.514 75.3584 211.701 75.1926 211.857C75.0302 212.013 74.8347 212.091 74.606 212.091ZM80.4339 221.159C79.718 221.159 79.1016 220.99 78.5845 220.652C78.0675 220.314 77.6697 219.848 77.3913 219.255C77.1129 218.662 76.9737 217.984 76.9737 217.222C76.9737 216.446 77.1162 215.762 77.4013 215.168C77.6896 214.572 78.0907 214.106 78.6044 213.771C79.1214 213.433 79.7247 213.264 80.4141 213.264C80.951 213.264 81.4349 213.364 81.8658 213.562C82.2966 213.761 82.6496 214.04 82.9247 214.398C83.1998 214.756 83.3705 215.173 83.4368 215.651H82.2635C82.174 215.303 81.9751 214.994 81.6669 214.726C81.362 214.454 80.951 214.318 80.4339 214.318C79.9766 214.318 79.5755 214.437 79.2308 214.676C78.8894 214.911 78.6226 215.245 78.4304 215.675C78.2415 216.103 78.147 216.605 78.147 217.182C78.147 217.772 78.2398 218.286 78.4254 218.723C78.6143 219.161 78.8795 219.5 79.2209 219.742C79.5656 219.984 79.9699 220.105 80.4339 220.105C80.7389 220.105 81.0156 220.052 81.2642 219.946C81.5128 219.84 81.7232 219.688 81.8956 219.489C82.0679 219.29 82.1906 219.051 82.2635 218.773H83.4368C83.3705 219.223 83.2064 219.629 82.9446 219.991C82.6861 220.349 82.343 220.634 81.9155 220.846C81.4912 221.055 80.9974 221.159 80.4339 221.159ZM85.9077 223.864C85.7088 223.864 85.5315 223.847 85.3757 223.814C85.2199 223.784 85.1122 223.754 85.0526 223.724L85.3509 222.69C85.6359 222.763 85.8878 222.79 86.1065 222.77C86.3253 222.75 86.5192 222.652 86.6882 222.477C86.8606 222.304 87.018 222.024 87.1605 221.636L87.3793 221.04L84.5554 213.364H85.8281L87.9361 219.449H88.0156L90.1236 213.364H91.3963L88.1548 222.114C88.009 222.508 87.8284 222.835 87.6129 223.093C87.3975 223.355 87.1473 223.549 86.8622 223.675C86.5805 223.801 86.2623 223.864 85.9077 223.864ZM9.46325 249H8.23029C8.15738 248.645 8.02977 248.334 7.84748 248.065C7.6685 247.797 7.44975 247.571 7.19123 247.389C6.93602 247.204 6.65264 247.064 6.34109 246.972C6.02953 246.879 5.70472 246.832 5.36666 246.832C4.75018 246.832 4.1917 246.988 3.69123 247.3C3.19407 247.611 2.798 248.07 2.50302 248.677C2.21135 249.283 2.06552 250.027 2.06552 250.909C2.06552 251.791 2.21135 252.535 2.50302 253.141C2.798 253.748 3.19407 254.207 3.69123 254.518C4.1917 254.83 4.75018 254.986 5.36666 254.986C5.70472 254.986 6.02953 254.939 6.34109 254.847C6.65264 254.754 6.93602 254.616 7.19123 254.434C7.44975 254.248 7.6685 254.021 7.84748 253.753C8.02977 253.481 8.15738 253.17 8.23029 252.818H9.46325C9.37044 253.339 9.20141 253.804 8.95614 254.215C8.71088 254.626 8.40595 254.976 8.04137 255.264C7.67679 255.549 7.26746 255.766 6.81339 255.915C6.36263 256.065 5.88039 256.139 5.36666 256.139C4.49828 256.139 3.72603 255.927 3.04989 255.503C2.37376 255.079 1.8418 254.475 1.45401 253.693C1.06623 252.911 0.872337 251.983 0.872337 250.909C0.872337 249.835 1.06623 248.907 1.45401 248.125C1.8418 247.343 2.37376 246.74 3.04989 246.315C3.72603 245.891 4.49828 245.679 5.36666 245.679C5.88039 245.679 6.36263 245.754 6.81339 245.903C7.26746 246.052 7.67679 246.271 8.04137 246.559C8.40595 246.844 8.71088 247.192 8.95614 247.603C9.20141 248.011 9.37044 248.476 9.46325 249ZM14.3988 256.159C13.7094 256.159 13.1045 255.995 12.5842 255.667C12.0671 255.339 11.6628 254.88 11.3711 254.29C11.0827 253.7 10.9386 253.01 10.9386 252.222C10.9386 251.426 11.0827 250.732 11.3711 250.138C11.6628 249.545 12.0671 249.085 12.5842 248.756C13.1045 248.428 13.7094 248.264 14.3988 248.264C15.0882 248.264 15.6914 248.428 16.2085 248.756C16.7288 249.085 17.1332 249.545 17.4215 250.138C17.7132 250.732 17.859 251.426 17.859 252.222C17.859 253.01 17.7132 253.7 17.4215 254.29C17.1332 254.88 16.7288 255.339 16.2085 255.667C15.6914 255.995 15.0882 256.159 14.3988 256.159ZM14.3988 255.105C14.9225 255.105 15.3533 254.971 15.6914 254.702C16.0295 254.434 16.2797 254.081 16.4421 253.643C16.6045 253.206 16.6857 252.732 16.6857 252.222C16.6857 251.711 16.6045 251.236 16.4421 250.795C16.2797 250.354 16.0295 249.998 15.6914 249.726C15.3533 249.454 14.9225 249.318 14.3988 249.318C13.8751 249.318 13.4442 249.454 13.1062 249.726C12.7681 249.998 12.5179 250.354 12.3555 250.795C12.1931 251.236 12.1119 251.711 12.1119 252.222C12.1119 252.732 12.1931 253.206 12.3555 253.643C12.5179 254.081 12.7681 254.434 13.1062 254.702C13.4442 254.971 13.8751 255.105 14.3988 255.105ZM22.7523 256.159C22.0364 256.159 21.4199 255.99 20.9029 255.652C20.3858 255.314 19.9881 254.848 19.7097 254.255C19.4313 253.662 19.2921 252.984 19.2921 252.222C19.2921 251.446 19.4346 250.762 19.7196 250.168C20.008 249.572 20.409 249.106 20.9228 248.771C21.4398 248.433 22.043 248.264 22.7324 248.264C23.2694 248.264 23.7533 248.364 24.1841 248.562C24.615 248.761 24.968 249.04 25.2431 249.398C25.5182 249.756 25.6889 250.173 25.7551 250.651H24.5819C24.4924 250.303 24.2935 249.994 23.9853 249.726C23.6803 249.454 23.2694 249.318 22.7523 249.318C22.2949 249.318 21.8939 249.437 21.5492 249.676C21.2078 249.911 20.941 250.245 20.7488 250.675C20.5598 251.103 20.4654 251.605 20.4654 252.182C20.4654 252.772 20.5582 253.286 20.7438 253.723C20.9327 254.161 21.1979 254.5 21.5392 254.742C21.8839 254.984 22.2883 255.105 22.7523 255.105C23.0572 255.105 23.334 255.052 23.5826 254.946C23.8311 254.84 24.0416 254.688 24.214 254.489C24.3863 254.29 24.5089 254.051 24.5819 253.773H25.7551C25.6889 254.223 25.5248 254.629 25.263 254.991C25.0044 255.349 24.6614 255.634 24.2338 255.846C23.8096 256.055 23.3158 256.159 22.7523 256.159ZM28.5641 253.216L28.5442 251.764H28.7828L32.1238 248.364H33.5755L30.0158 251.963H29.9164L28.5641 253.216ZM27.4703 256V245.818H28.6436V256H27.4703ZM32.3226 256L29.3397 252.222L30.1749 251.406L33.8141 256H32.3226ZM35.0856 256V248.364H36.2589V256H35.0856ZM35.6822 247.091C35.4535 247.091 35.2563 247.013 35.0906 246.857C34.9281 246.701 34.8469 246.514 34.8469 246.295C34.8469 246.077 34.9281 245.889 35.0906 245.734C35.2563 245.578 35.4535 245.5 35.6822 245.5C35.9109 245.5 36.1064 245.578 36.2688 245.734C36.4345 245.889 36.5174 246.077 36.5174 246.295C36.5174 246.514 36.4345 246.701 36.2688 246.857C36.1064 247.013 35.9109 247.091 35.6822 247.091ZM41.6096 256.159C40.8738 256.159 40.2391 255.997 39.7054 255.672C39.1751 255.344 38.7658 254.886 38.4775 254.3C38.1924 253.71 38.0499 253.024 38.0499 252.241C38.0499 251.459 38.1924 250.77 38.4775 250.173C38.7658 249.573 39.1668 249.106 39.6806 248.771C40.1976 248.433 40.8008 248.264 41.4902 248.264C41.888 248.264 42.2807 248.33 42.6685 248.463C43.0563 248.596 43.4093 248.811 43.7275 249.109C44.0456 249.404 44.2992 249.795 44.4881 250.283C44.677 250.77 44.7715 251.37 44.7715 252.082V252.58H38.8851V251.565H43.5783C43.5783 251.134 43.4921 250.75 43.3198 250.412C43.1507 250.074 42.9088 249.807 42.5939 249.612C42.2824 249.416 41.9145 249.318 41.4902 249.318C41.0229 249.318 40.6185 249.434 40.2772 249.666C39.9391 249.895 39.6789 250.193 39.4966 250.561C39.3143 250.929 39.2232 251.323 39.2232 251.744V252.42C39.2232 252.997 39.3226 253.486 39.5215 253.887C39.7237 254.285 40.0037 254.588 40.3617 254.797C40.7196 255.002 41.1356 255.105 41.6096 255.105C41.9178 255.105 42.1962 255.062 42.4448 254.976C42.6967 254.886 42.9138 254.754 43.0961 254.578C43.2784 254.399 43.4192 254.177 43.5186 253.912L44.6522 254.23C44.5328 254.615 44.3323 254.953 44.0506 255.244C43.7689 255.533 43.4209 255.758 43.0066 255.92C42.5923 256.08 42.1266 256.159 41.6096 256.159ZM50.6529 256V245.818H54.0932C54.892 245.818 55.5449 245.962 56.052 246.251C56.5624 246.536 56.9403 246.922 57.1855 247.409C57.4308 247.896 57.5534 248.44 57.5534 249.04C57.5534 249.64 57.4308 250.185 57.1855 250.675C56.9436 251.166 56.5691 251.557 56.062 251.849C55.5549 252.137 54.9052 252.281 54.1131 252.281H51.6472V251.188H54.0733C54.6202 251.188 55.0594 251.093 55.3908 250.904C55.7222 250.715 55.9625 250.46 56.1117 250.138C56.2641 249.814 56.3404 249.447 56.3404 249.04C56.3404 248.632 56.2641 248.268 56.1117 247.946C55.9625 247.625 55.7206 247.373 55.3858 247.19C55.0511 247.005 54.6069 246.912 54.0534 246.912H51.8858V256H50.6529ZM62.4007 256.159C61.7114 256.159 61.1065 255.995 60.5861 255.667C60.0691 255.339 59.6647 254.88 59.373 254.29C59.0847 253.7 58.9405 253.01 58.9405 252.222C58.9405 251.426 59.0847 250.732 59.373 250.138C59.6647 249.545 60.0691 249.085 60.5861 248.756C61.1065 248.428 61.7114 248.264 62.4007 248.264C63.0901 248.264 63.6934 248.428 64.2104 248.756C64.7308 249.085 65.1351 249.545 65.4235 250.138C65.7151 250.732 65.861 251.426 65.861 252.222C65.861 253.01 65.7151 253.7 65.4235 254.29C65.1351 254.88 64.7308 255.339 64.2104 255.667C63.6934 255.995 63.0901 256.159 62.4007 256.159ZM62.4007 255.105C62.9244 255.105 63.3553 254.971 63.6934 254.702C64.0314 254.434 64.2817 254.081 64.4441 253.643C64.6065 253.206 64.6877 252.732 64.6877 252.222C64.6877 251.711 64.6065 251.236 64.4441 250.795C64.2817 250.354 64.0314 249.998 63.6934 249.726C63.3553 249.454 62.9244 249.318 62.4007 249.318C61.8771 249.318 61.4462 249.454 61.1081 249.726C60.7701 249.998 60.5198 250.354 60.3574 250.795C60.195 251.236 60.1138 251.711 60.1138 252.222C60.1138 252.732 60.195 253.206 60.3574 253.643C60.5198 254.081 60.7701 254.434 61.1081 254.702C61.4462 254.971 61.8771 255.105 62.4007 255.105ZM68.8253 245.818V256H67.652V245.818H68.8253ZM70.9743 256V248.364H72.1475V256H70.9743ZM71.5708 247.091C71.3422 247.091 71.1449 247.013 70.9792 246.857C70.8168 246.701 70.7356 246.514 70.7356 246.295C70.7356 246.077 70.8168 245.889 70.9792 245.734C71.1449 245.578 71.3422 245.5 71.5708 245.5C71.7995 245.5 71.9951 245.578 72.1575 245.734C72.3232 245.889 72.4061 246.077 72.4061 246.295C72.4061 246.514 72.3232 246.701 72.1575 246.857C71.9951 247.013 71.7995 247.091 71.5708 247.091ZM77.3988 256.159C76.6829 256.159 76.0664 255.99 75.5494 255.652C75.0323 255.314 74.6346 254.848 74.3562 254.255C74.0778 253.662 73.9386 252.984 73.9386 252.222C73.9386 251.446 74.0811 250.762 74.3661 250.168C74.6545 249.572 75.0555 249.106 75.5692 248.771C76.0863 248.433 76.6895 248.264 77.3789 248.264C77.9158 248.264 78.3997 248.364 78.8306 248.562C79.2615 248.761 79.6145 249.04 79.8896 249.398C80.1647 249.756 80.3353 250.173 80.4016 250.651H79.2283C79.1388 250.303 78.94 249.994 78.6317 249.726C78.3268 249.454 77.9158 249.318 77.3988 249.318C76.9414 249.318 76.5404 249.437 76.1957 249.676C75.8543 249.911 75.5875 250.245 75.3952 250.675C75.2063 251.103 75.1119 251.605 75.1119 252.182C75.1119 252.772 75.2047 253.286 75.3903 253.723C75.5792 254.161 75.8443 254.5 76.1857 254.742C76.5304 254.984 76.9348 255.105 77.3988 255.105C77.7037 255.105 77.9805 255.052 78.229 254.946C78.4776 254.84 78.6881 254.688 78.8604 254.489C79.0328 254.29 79.1554 254.051 79.2283 253.773H80.4016C80.3353 254.223 80.1713 254.629 79.9094 254.991C79.6509 255.349 79.3079 255.634 78.8803 255.846C78.4561 256.055 77.9622 256.159 77.3988 256.159ZM82.8725 258.864C82.6737 258.864 82.4963 258.847 82.3406 258.814C82.1848 258.784 82.0771 258.754 82.0174 258.724L82.3157 257.69C82.6007 257.763 82.8526 257.79 83.0714 257.77C83.2901 257.75 83.484 257.652 83.6531 257.477C83.8254 257.304 83.9828 257.024 84.1254 256.636L84.3441 256.04L81.5202 248.364H82.793L84.9009 254.449H84.9805L87.0884 248.364H88.3612L85.1197 257.114C84.9738 257.508 84.7932 257.835 84.5778 258.093C84.3623 258.355 84.1121 258.549 83.8271 258.675C83.5453 258.801 83.2272 258.864 82.8725 258.864Z" fill="white"/>
</svg>
