<svg width="138" height="11" viewBox="0 0 138 11" fill="none" xmlns="http://www.w3.org/2000/svg">
<path d="M7.24381 10C7.15981 10 7.10381 9.96267 7.07581 9.888L6.51581 8.124C6.50648 8.096 6.48781 8.082 6.45981 8.082H2.27381C2.24581 8.082 2.22715 8.096 2.21781 8.124L1.65781 9.888C1.62981 9.96267 1.57381 10 1.48981 10H0.733813C0.631146 10 0.593813 9.94867 0.621813 9.846L3.71581 0.312C3.74381 0.237333 3.79981 0.199999 3.88381 0.199999H4.83581C4.91981 0.199999 4.97581 0.237333 5.00381 0.312L8.11181 9.846L8.12581 9.902C8.12581 9.96733 8.08381 10 7.99981 10H7.24381ZM2.49781 7.2C2.48848 7.21867 2.48848 7.23733 2.49781 7.256C2.51648 7.26533 2.53515 7.27 2.55381 7.27H6.16581C6.18448 7.27 6.19848 7.26533 6.20781 7.256C6.22648 7.23733 6.23115 7.21867 6.22181 7.2L4.40181 1.488C4.39248 1.46933 4.37848 1.46 4.35981 1.46C4.34115 1.46 4.32715 1.46933 4.31781 1.488L2.49781 7.2ZM14.24 0.339999C14.24 0.246666 14.2867 0.199999 14.38 0.199999H15.094C15.1873 0.199999 15.234 0.246666 15.234 0.339999V9.86C15.234 9.95333 15.1873 10 15.094 10H14.38C14.2867 10 14.24 9.95333 14.24 9.86V9.272C14.24 9.25333 14.2307 9.244 14.212 9.244C14.2027 9.23467 14.1887 9.23933 14.17 9.258C13.9647 9.52867 13.708 9.73867 13.4 9.888C13.1013 10.0373 12.7653 10.112 12.392 10.112C11.7387 10.112 11.188 9.944 10.74 9.608C10.3013 9.272 9.99798 8.81467 9.82998 8.236C9.69932 7.816 9.63398 7.22333 9.63398 6.458C9.63398 5.68333 9.68998 5.10467 9.80198 4.722C9.96998 4.12467 10.278 3.658 10.726 3.322C11.174 2.97667 11.7293 2.804 12.392 2.804C12.756 2.804 13.092 2.87867 13.4 3.028C13.708 3.168 13.9647 3.37333 14.17 3.644C14.1887 3.66267 14.2027 3.672 14.212 3.672C14.2307 3.66267 14.24 3.64867 14.24 3.63V0.339999ZM13.988 8.166C14.072 7.97933 14.1327 7.76 14.17 7.508C14.2073 7.256 14.226 6.906 14.226 6.458C14.226 6.01 14.2073 5.66 14.17 5.408C14.1327 5.14667 14.0673 4.918 13.974 4.722C13.862 4.40467 13.6753 4.15267 13.414 3.966C13.162 3.77 12.8587 3.672 12.504 3.672C12.1307 3.672 11.8087 3.76533 11.538 3.952C11.2673 4.13867 11.0713 4.386 10.95 4.694C10.838 4.89933 10.754 5.13267 10.698 5.394C10.6513 5.646 10.628 6.00067 10.628 6.458C10.628 6.89667 10.6467 7.242 10.684 7.494C10.7213 7.73667 10.7867 7.956 10.88 8.152C10.992 8.488 11.188 8.754 11.468 8.95C11.7573 9.146 12.098 9.244 12.49 9.244C12.8633 9.244 13.176 9.146 13.428 8.95C13.68 8.754 13.8667 8.49267 13.988 8.166ZM22.1626 0.339999C22.1626 0.246666 22.2092 0.199999 22.3026 0.199999H23.0166C23.1099 0.199999 23.1566 0.246666 23.1566 0.339999V9.86C23.1566 9.95333 23.1099 10 23.0166 10H22.3026C22.2092 10 22.1626 9.95333 22.1626 9.86V9.272C22.1626 9.25333 22.1532 9.244 22.1346 9.244C22.1252 9.23467 22.1112 9.23933 22.0926 9.258C21.8872 9.52867 21.6306 9.73867 21.3226 9.888C21.0239 10.0373 20.6879 10.112 20.3146 10.112C19.6612 10.112 19.1106 9.944 18.6626 9.608C18.2239 9.272 17.9206 8.81467 17.7526 8.236C17.6219 7.816 17.5566 7.22333 17.5566 6.458C17.5566 5.68333 17.6126 5.10467 17.7246 4.722C17.8926 4.12467 18.2006 3.658 18.6486 3.322C19.0966 2.97667 19.6519 2.804 20.3146 2.804C20.6786 2.804 21.0146 2.87867 21.3226 3.028C21.6306 3.168 21.8872 3.37333 22.0926 3.644C22.1112 3.66267 22.1252 3.672 22.1346 3.672C22.1532 3.66267 22.1626 3.64867 22.1626 3.63V0.339999ZM21.9106 8.166C21.9946 7.97933 22.0552 7.76 22.0926 7.508C22.1299 7.256 22.1486 6.906 22.1486 6.458C22.1486 6.01 22.1299 5.66 22.0926 5.408C22.0552 5.14667 21.9899 4.918 21.8966 4.722C21.7846 4.40467 21.5979 4.15267 21.3366 3.966C21.0846 3.77 20.7812 3.672 20.4266 3.672C20.0532 3.672 19.7312 3.76533 19.4606 3.952C19.1899 4.13867 18.9939 4.386 18.8726 4.694C18.7606 4.89933 18.6766 5.13267 18.6206 5.394C18.5739 5.646 18.5506 6.00067 18.5506 6.458C18.5506 6.89667 18.5692 7.242 18.6066 7.494C18.6439 7.73667 18.7092 7.956 18.8026 8.152C18.9146 8.488 19.1106 8.754 19.3906 8.95C19.6799 9.146 20.0206 9.244 20.4126 9.244C20.7859 9.244 21.0986 9.146 21.3506 8.95C21.6026 8.754 21.7892 8.49267 21.9106 8.166ZM31.9499 3.602C31.9499 3.69533 31.9032 3.742 31.8099 3.742H30.2279C30.1905 3.742 30.1719 3.76067 30.1719 3.798V7.928C30.1719 8.376 30.2699 8.69333 30.4659 8.88C30.6712 9.05733 30.9885 9.146 31.4179 9.146H31.7679C31.8612 9.146 31.9079 9.19267 31.9079 9.286V9.86C31.9079 9.95333 31.8612 10 31.7679 10C31.6559 10.0093 31.4832 10.014 31.2499 10.014C30.5779 10.014 30.0692 9.888 29.7239 9.636C29.3785 9.384 29.2059 8.91733 29.2059 8.236V3.798C29.2059 3.76067 29.1872 3.742 29.1499 3.742H28.2959C28.2025 3.742 28.1559 3.69533 28.1559 3.602V3.056C28.1559 2.96267 28.2025 2.916 28.2959 2.916H29.1499C29.1872 2.916 29.2059 2.89733 29.2059 2.86V1.236C29.2059 1.14267 29.2525 1.096 29.3459 1.096H30.0319C30.1252 1.096 30.1719 1.14267 30.1719 1.236V2.86C30.1719 2.89733 30.1905 2.916 30.2279 2.916H31.8099C31.9032 2.916 31.9499 2.96267 31.9499 3.056V3.602ZM39.3784 5.268C39.4157 5.52933 39.4344 5.856 39.4344 6.248V6.696C39.4344 6.78933 39.3877 6.836 39.2944 6.836H34.7724C34.7351 6.836 34.7164 6.85467 34.7164 6.892C34.7351 7.40533 34.7631 7.73667 34.8004 7.886C34.9031 8.306 35.1224 8.63733 35.4584 8.88C35.7944 9.12267 36.2237 9.244 36.7464 9.244C37.1384 9.244 37.4837 9.15533 37.7824 8.978C38.0811 8.80067 38.3144 8.54867 38.4824 8.222C38.5384 8.138 38.6037 8.11933 38.6784 8.166L39.2244 8.488C39.2991 8.53467 39.3177 8.6 39.2804 8.684C39.0471 9.132 38.6971 9.48667 38.2304 9.748C37.7637 10 37.2271 10.126 36.6204 10.126C35.9577 10.1167 35.4024 9.958 34.9544 9.65C34.5064 9.342 34.1844 8.91267 33.9884 8.362C33.8204 7.914 33.7364 7.27 33.7364 6.43C33.7364 6.038 33.7411 5.72067 33.7504 5.478C33.7691 5.226 33.8064 5.002 33.8624 4.806C34.0211 4.19933 34.3384 3.714 34.8144 3.35C35.2997 2.986 35.8831 2.804 36.5644 2.804C37.4137 2.804 38.0671 3.01867 38.5244 3.448C38.9817 3.87733 39.2664 4.484 39.3784 5.268ZM36.5644 3.672C36.1071 3.672 35.7244 3.79333 35.4164 4.036C35.1177 4.26933 34.9217 4.58667 34.8284 4.988C34.7724 5.184 34.7351 5.50133 34.7164 5.94C34.7164 5.97733 34.7351 5.996 34.7724 5.996H38.3984C38.4357 5.996 38.4544 5.97733 38.4544 5.94C38.4357 5.52 38.4077 5.22133 38.3704 5.044C38.2677 4.624 38.0577 4.29267 37.7404 4.05C37.4324 3.798 37.0404 3.672 36.5644 3.672ZM44.3653 10.112C43.6933 10.112 43.1146 9.93933 42.6293 9.594C42.1533 9.23933 41.8266 8.76333 41.6493 8.166C41.5279 7.75533 41.4673 7.17667 41.4673 6.43C41.4673 5.758 41.5279 5.18867 41.6493 4.722C41.8173 4.14333 42.1439 3.68133 42.6293 3.336C43.1146 2.98133 43.6933 2.804 44.3653 2.804C45.0466 2.804 45.6346 2.97667 46.1293 3.322C46.6333 3.66733 46.9599 4.09667 47.1093 4.61C47.1559 4.778 47.1839 4.918 47.1933 5.03V5.058C47.1933 5.12333 47.1513 5.16533 47.0673 5.184L46.3673 5.282H46.3393C46.2739 5.282 46.2319 5.24 46.2133 5.156L46.1713 4.946C46.0873 4.59133 45.8819 4.29267 45.5553 4.05C45.2286 3.798 44.8319 3.672 44.3653 3.672C43.8986 3.672 43.5066 3.798 43.1893 4.05C42.8813 4.29267 42.6806 4.61933 42.5873 5.03C42.5033 5.38467 42.4613 5.856 42.4613 6.444C42.4613 7.06 42.5033 7.536 42.5873 7.872C42.6806 8.292 42.8813 8.628 43.1893 8.88C43.5066 9.12267 43.8986 9.244 44.3653 9.244C44.8226 9.244 45.2146 9.12733 45.5413 8.894C45.8773 8.65133 46.0873 8.34333 46.1713 7.97V7.914L46.1853 7.858C46.1946 7.76467 46.2506 7.72733 46.3533 7.746L47.0393 7.858C47.1326 7.87667 47.1746 7.928 47.1653 8.012L47.1093 8.292C46.9693 8.83333 46.6473 9.272 46.1433 9.608C45.6393 9.944 45.0466 10.112 44.3653 10.112ZM52.1847 2.818C52.9314 2.818 53.524 3.03733 53.9627 3.476C54.4107 3.91467 54.6347 4.50267 54.6347 5.24V9.86C54.6347 9.95333 54.588 10 54.4947 10H53.7807C53.6874 10 53.6407 9.95333 53.6407 9.86V5.436C53.6407 4.92267 53.482 4.50267 53.1647 4.176C52.8567 3.84933 52.4554 3.686 51.9607 3.686C51.4474 3.686 51.032 3.84467 50.7147 4.162C50.3974 4.47933 50.2387 4.89467 50.2387 5.408V9.86C50.2387 9.95333 50.192 10 50.0987 10H49.3847C49.2914 10 49.2447 9.95333 49.2447 9.86V0.339999C49.2447 0.246666 49.2914 0.199999 49.3847 0.199999H50.0987C50.192 0.199999 50.2387 0.246666 50.2387 0.339999V3.658C50.2387 3.67667 50.2434 3.69067 50.2527 3.7C50.2714 3.70933 50.2854 3.70467 50.2947 3.686C50.7054 3.10733 51.3354 2.818 52.1847 2.818ZM60.0116 2.818C60.7582 2.818 61.3509 3.03733 61.7896 3.476C62.2376 3.91467 62.4616 4.50267 62.4616 5.24V9.86C62.4616 9.95333 62.4149 10 62.3216 10H61.6076C61.5142 10 61.4676 9.95333 61.4676 9.86V5.436C61.4676 4.92267 61.3089 4.50267 60.9916 4.176C60.6836 3.84933 60.2822 3.686 59.7876 3.686C59.2742 3.686 58.8589 3.84467 58.5416 4.162C58.2242 4.47933 58.0656 4.89467 58.0656 5.408V9.86C58.0656 9.95333 58.0189 10 57.9256 10H57.2116C57.1182 10 57.0716 9.95333 57.0716 9.86V3.056C57.0716 2.96267 57.1182 2.916 57.2116 2.916H57.9256C58.0189 2.916 58.0656 2.96267 58.0656 3.056V3.658C58.0656 3.67667 58.0702 3.69067 58.0796 3.7C58.0982 3.70933 58.1122 3.70467 58.1216 3.686C58.5322 3.10733 59.1622 2.818 60.0116 2.818ZM65.5704 1.628C65.3464 1.628 65.1598 1.55333 65.0104 1.404C64.8611 1.25467 64.7864 1.068 64.7864 0.843999C64.7864 0.610666 64.8611 0.424 65.0104 0.284C65.1598 0.134666 65.3464 0.0599995 65.5704 0.0599995C65.7944 0.0599995 65.9811 0.134666 66.1304 0.284C66.2798 0.424 66.3544 0.610666 66.3544 0.843999C66.3544 1.068 66.2798 1.25467 66.1304 1.404C65.9811 1.55333 65.7944 1.628 65.5704 1.628ZM65.1784 9.986C65.0851 9.986 65.0384 9.93933 65.0384 9.846V3.042C65.0384 2.94867 65.0851 2.902 65.1784 2.902H65.8924C65.9858 2.902 66.0324 2.94867 66.0324 3.042V9.846C66.0324 9.93933 65.9858 9.986 65.8924 9.986H65.1784ZM71.4208 10.112C70.7488 10.112 70.1701 9.93933 69.6848 9.594C69.2088 9.23933 68.8821 8.76333 68.7048 8.166C68.5835 7.75533 68.5228 7.17667 68.5228 6.43C68.5228 5.758 68.5835 5.18867 68.7048 4.722C68.8728 4.14333 69.1995 3.68133 69.6848 3.336C70.1701 2.98133 70.7488 2.804 71.4208 2.804C72.1021 2.804 72.6901 2.97667 73.1848 3.322C73.6888 3.66733 74.0155 4.09667 74.1648 4.61C74.2115 4.778 74.2395 4.918 74.2488 5.03V5.058C74.2488 5.12333 74.2068 5.16533 74.1228 5.184L73.4228 5.282H73.3948C73.3295 5.282 73.2875 5.24 73.2688 5.156L73.2268 4.946C73.1428 4.59133 72.9375 4.29267 72.6108 4.05C72.2841 3.798 71.8875 3.672 71.4208 3.672C70.9541 3.672 70.5621 3.798 70.2448 4.05C69.9368 4.29267 69.7361 4.61933 69.6428 5.03C69.5588 5.38467 69.5168 5.856 69.5168 6.444C69.5168 7.06 69.5588 7.536 69.6428 7.872C69.7361 8.292 69.9368 8.628 70.2448 8.88C70.5621 9.12267 70.9541 9.244 71.4208 9.244C71.8781 9.244 72.2701 9.12733 72.5968 8.894C72.9328 8.65133 73.1428 8.34333 73.2268 7.97V7.914L73.2408 7.858C73.2501 7.76467 73.3061 7.72733 73.4088 7.746L74.0948 7.858C74.1881 7.87667 74.2301 7.928 74.2208 8.012L74.1648 8.292C74.0248 8.83333 73.7028 9.272 73.1988 9.608C72.6948 9.944 72.1021 10.112 71.4208 10.112ZM78.7502 2.804C79.5902 2.804 80.2389 3.01867 80.6962 3.448C81.1536 3.87733 81.3822 4.44667 81.3822 5.156V9.86C81.3822 9.95333 81.3356 10 81.2422 10H80.5282C80.4349 10 80.3882 9.95333 80.3882 9.86V9.286C80.3882 9.26733 80.3789 9.25333 80.3602 9.244C80.3509 9.23467 80.3369 9.23933 80.3182 9.258C80.0849 9.538 79.7816 9.75267 79.4082 9.902C79.0349 10.042 78.6196 10.112 78.1622 10.112C77.4996 10.112 76.9442 9.944 76.4962 9.608C76.0482 9.272 75.8242 8.75867 75.8242 8.068C75.8242 7.368 76.0762 6.81733 76.5802 6.416C77.0936 6.00533 77.8029 5.8 78.7082 5.8H80.3322C80.3696 5.8 80.3882 5.78133 80.3882 5.744V5.212C80.3882 4.736 80.2529 4.36267 79.9822 4.092C79.7209 3.812 79.3102 3.672 78.7502 3.672C78.3022 3.672 77.9382 3.76067 77.6582 3.938C77.3782 4.106 77.2056 4.344 77.1402 4.652C77.1122 4.74533 77.0562 4.78733 76.9722 4.778L76.2162 4.68C76.1136 4.66133 76.0716 4.624 76.0902 4.568C76.1649 4.04533 76.4449 3.62067 76.9302 3.294C77.4156 2.96733 78.0222 2.804 78.7502 2.804ZM78.3582 9.258C78.9089 9.258 79.3849 9.12267 79.7862 8.852C80.1876 8.572 80.3882 8.19867 80.3882 7.732V6.64C80.3882 6.60267 80.3696 6.584 80.3322 6.584H78.8622C78.2462 6.584 77.7516 6.71 77.3782 6.962C77.0049 7.214 76.8182 7.564 76.8182 8.012C76.8182 8.42267 76.9582 8.73533 77.2382 8.95C77.5276 9.15533 77.9009 9.258 78.3582 9.258ZM83.8706 10C83.7773 10 83.7306 9.95333 83.7306 9.86V0.339999C83.7306 0.246666 83.7773 0.199999 83.8706 0.199999H84.5846C84.678 0.199999 84.7246 0.246666 84.7246 0.339999V9.86C84.7246 9.95333 84.678 10 84.5846 10H83.8706ZM92.6439 10.07C92.1213 10.07 91.6546 9.986 91.2439 9.818C90.8426 9.65 90.5299 9.426 90.3059 9.146C90.0913 8.866 89.9839 8.55333 89.9839 8.208V8.04C89.9839 7.94667 90.0306 7.9 90.1239 7.9H90.7959C90.8893 7.9 90.9359 7.94667 90.9359 8.04V8.152C90.9359 8.46 91.0946 8.73067 91.4119 8.964C91.7386 9.188 92.1446 9.3 92.6299 9.3C93.1153 9.3 93.5073 9.19267 93.8059 8.978C94.1046 8.754 94.2539 8.474 94.2539 8.138C94.2539 7.90467 94.1746 7.71333 94.0159 7.564C93.8666 7.41467 93.6846 7.298 93.4699 7.214C93.2646 7.13 92.9426 7.02267 92.5039 6.892C91.9813 6.74267 91.5519 6.59333 91.2159 6.444C90.8799 6.29467 90.5953 6.08933 90.3619 5.828C90.1379 5.55733 90.0259 5.21667 90.0259 4.806C90.0259 4.20867 90.2593 3.73267 90.7259 3.378C91.1926 3.02333 91.8086 2.846 92.5739 2.846C93.0873 2.846 93.5399 2.93 93.9319 3.098C94.3333 3.266 94.6413 3.49933 94.8559 3.798C95.0706 4.08733 95.1779 4.414 95.1779 4.778V4.82C95.1779 4.91333 95.1313 4.96 95.0379 4.96H94.3799C94.2866 4.96 94.2399 4.91333 94.2399 4.82V4.778C94.2399 4.46067 94.0859 4.19467 93.7779 3.98C93.4793 3.76533 93.0733 3.658 92.5599 3.658C92.0839 3.658 91.7013 3.756 91.4119 3.952C91.1226 4.13867 90.9779 4.4 90.9779 4.736C90.9779 5.05333 91.1179 5.296 91.3979 5.464C91.6779 5.632 92.1119 5.8 92.6999 5.968C93.2413 6.12667 93.6799 6.276 94.0159 6.416C94.3519 6.556 94.6413 6.76133 94.8839 7.032C95.1266 7.29333 95.2479 7.63867 95.2479 8.068C95.2479 8.67467 95.0099 9.16 94.5339 9.524C94.0579 9.888 93.4279 10.07 92.6439 10.07ZM97.4802 10C97.3868 10 97.3402 9.95333 97.3402 9.86V0.339999C97.3402 0.246666 97.3868 0.199999 97.4802 0.199999H98.1942C98.2875 0.199999 98.3342 0.246666 98.3342 0.339999V6.066C98.3342 6.08467 98.3388 6.09867 98.3482 6.108C98.3668 6.11733 98.3855 6.11267 98.4042 6.094L101.372 2.986C101.419 2.93933 101.475 2.916 101.54 2.916H102.38C102.436 2.916 102.473 2.93467 102.492 2.972C102.511 3.00933 102.501 3.04667 102.464 3.084L100.672 5.072C100.653 5.09067 100.649 5.114 100.658 5.142L102.8 9.832L102.814 9.888C102.814 9.96267 102.772 10 102.688 10H101.932C101.857 10 101.806 9.96267 101.778 9.888L99.9722 5.8C99.9535 5.76267 99.9302 5.758 99.9022 5.786L98.3622 7.41C98.3435 7.42867 98.3342 7.452 98.3342 7.48V9.86C98.3342 9.95333 98.2875 10 98.1942 10H97.4802ZM105.306 1.628C105.082 1.628 104.895 1.55333 104.746 1.404C104.596 1.25467 104.522 1.068 104.522 0.843999C104.522 0.610666 104.596 0.424 104.746 0.284C104.895 0.134666 105.082 0.0599995 105.306 0.0599995C105.53 0.0599995 105.716 0.134666 105.866 0.284C106.015 0.424 106.09 0.610666 106.09 0.843999C106.09 1.068 106.015 1.25467 105.866 1.404C105.716 1.55333 105.53 1.628 105.306 1.628ZM104.914 9.986C104.82 9.986 104.774 9.93933 104.774 9.846V3.042C104.774 2.94867 104.82 2.902 104.914 2.902H105.628C105.721 2.902 105.768 2.94867 105.768 3.042V9.846C105.768 9.93933 105.721 9.986 105.628 9.986H104.914ZM108.622 10C108.529 10 108.482 9.95333 108.482 9.86V0.339999C108.482 0.246666 108.529 0.199999 108.622 0.199999H109.336C109.43 0.199999 109.476 0.246666 109.476 0.339999V9.86C109.476 9.95333 109.43 10 109.336 10H108.622ZM112.129 10C112.035 10 111.989 9.95333 111.989 9.86V0.339999C111.989 0.246666 112.035 0.199999 112.129 0.199999H112.843C112.936 0.199999 112.983 0.246666 112.983 0.339999V9.86C112.983 9.95333 112.936 10 112.843 10H112.129ZM117.819 10.07C117.297 10.07 116.83 9.986 116.419 9.818C116.018 9.65 115.705 9.426 115.481 9.146C115.267 8.866 115.159 8.55333 115.159 8.208V8.04C115.159 7.94667 115.206 7.9 115.299 7.9H115.971C116.065 7.9 116.111 7.94667 116.111 8.04V8.152C116.111 8.46 116.27 8.73067 116.587 8.964C116.914 9.188 117.32 9.3 117.805 9.3C118.291 9.3 118.683 9.19267 118.981 8.978C119.28 8.754 119.429 8.474 119.429 8.138C119.429 7.90467 119.35 7.71333 119.191 7.564C119.042 7.41467 118.86 7.298 118.645 7.214C118.44 7.13 118.118 7.02267 117.679 6.892C117.157 6.74267 116.727 6.59333 116.391 6.444C116.055 6.29467 115.771 6.08933 115.537 5.828C115.313 5.55733 115.201 5.21667 115.201 4.806C115.201 4.20867 115.435 3.73267 115.901 3.378C116.368 3.02333 116.984 2.846 117.749 2.846C118.263 2.846 118.715 2.93 119.107 3.098C119.509 3.266 119.817 3.49933 120.031 3.798C120.246 4.08733 120.353 4.414 120.353 4.778V4.82C120.353 4.91333 120.307 4.96 120.213 4.96H119.555C119.462 4.96 119.415 4.91333 119.415 4.82V4.778C119.415 4.46067 119.261 4.19467 118.953 3.98C118.655 3.76533 118.249 3.658 117.735 3.658C117.259 3.658 116.877 3.756 116.587 3.952C116.298 4.13867 116.153 4.4 116.153 4.736C116.153 5.05333 116.293 5.296 116.573 5.464C116.853 5.632 117.287 5.8 117.875 5.968C118.417 6.12667 118.855 6.276 119.191 6.416C119.527 6.556 119.817 6.76133 120.059 7.032C120.302 7.29333 120.423 7.63867 120.423 8.068C120.423 8.67467 120.185 9.16 119.709 9.524C119.233 9.888 118.603 10.07 117.819 10.07ZM137 3.808C137.12 3.808 137.18 3.868 137.18 3.988V4.744C137.18 4.864 137.12 4.924 137 4.924H134.012C133.964 4.924 133.94 4.948 133.94 4.996V7.912C133.94 8.032 133.88 8.092 133.76 8.092H133.004C132.884 8.092 132.824 8.032 132.824 7.912V4.996C132.824 4.948 132.8 4.924 132.752 4.924H129.764C129.644 4.924 129.584 4.864 129.584 4.744V3.988C129.584 3.868 129.644 3.808 129.764 3.808H132.752C132.8 3.808 132.824 3.784 132.824 3.736V0.676C132.824 0.556 132.884 0.496 133.004 0.496H133.76C133.88 0.496 133.94 0.556 133.94 0.676V3.736C133.94 3.784 133.964 3.808 134.012 3.808H137Z" fill="#C2BEBE"/>
</svg>
