<svg width="154" height="11" viewBox="0 0 154 11" fill="none" xmlns="http://www.w3.org/2000/svg">
<path d="M7.0169 10C6.9329 10 6.8769 9.96267 6.8489 9.888L6.2889 8.124C6.27957 8.096 6.2609 8.082 6.2329 8.082H2.0469C2.0189 8.082 2.00023 8.096 1.9909 8.124L1.4309 9.888C1.4029 9.96267 1.3469 10 1.2629 10H0.5069C0.404233 10 0.3669 9.94867 0.3949 9.846L3.4889 0.312C3.5169 0.237333 3.5729 0.199999 3.6569 0.199999H4.6089C4.6929 0.199999 4.7489 0.237333 4.7769 0.312L7.8849 9.846L7.8989 9.902C7.8989 9.96733 7.8569 10 7.7729 10H7.0169ZM2.2709 7.2C2.26157 7.21867 2.26157 7.23733 2.2709 7.256C2.28957 7.26533 2.30823 7.27 2.3269 7.27H5.9389C5.95757 7.27 5.97157 7.26533 5.9809 7.256C5.99957 7.23733 6.00423 7.21867 5.9949 7.2L4.1749 1.488C4.16557 1.46933 4.15157 1.46 4.1329 1.46C4.11423 1.46 4.10023 1.46933 4.0909 1.488L2.2709 7.2ZM14.0131 0.339999C14.0131 0.246666 14.0597 0.199999 14.1531 0.199999H14.8671C14.9604 0.199999 15.0071 0.246666 15.0071 0.339999V9.86C15.0071 9.95333 14.9604 10 14.8671 10H14.1531C14.0597 10 14.0131 9.95333 14.0131 9.86V9.272C14.0131 9.25333 14.0037 9.244 13.9851 9.244C13.9757 9.23467 13.9617 9.23933 13.9431 9.258C13.7377 9.52867 13.4811 9.73867 13.1731 9.888C12.8744 10.0373 12.5384 10.112 12.1651 10.112C11.5117 10.112 10.9611 9.944 10.5131 9.608C10.0744 9.272 9.77107 8.81467 9.60307 8.236C9.4724 7.816 9.40707 7.22333 9.40707 6.458C9.40707 5.68333 9.46307 5.10467 9.57507 4.722C9.74307 4.12467 10.0511 3.658 10.4991 3.322C10.9471 2.97667 11.5024 2.804 12.1651 2.804C12.5291 2.804 12.8651 2.87867 13.1731 3.028C13.4811 3.168 13.7377 3.37333 13.9431 3.644C13.9617 3.66267 13.9757 3.672 13.9851 3.672C14.0037 3.66267 14.0131 3.64867 14.0131 3.63V0.339999ZM13.7611 8.166C13.8451 7.97933 13.9057 7.76 13.9431 7.508C13.9804 7.256 13.9991 6.906 13.9991 6.458C13.9991 6.01 13.9804 5.66 13.9431 5.408C13.9057 5.14667 13.8404 4.918 13.7471 4.722C13.6351 4.40467 13.4484 4.15267 13.1871 3.966C12.9351 3.77 12.6317 3.672 12.2771 3.672C11.9037 3.672 11.5817 3.76533 11.3111 3.952C11.0404 4.13867 10.8444 4.386 10.7231 4.694C10.6111 4.89933 10.5271 5.13267 10.4711 5.394C10.4244 5.646 10.4011 6.00067 10.4011 6.458C10.4011 6.89667 10.4197 7.242 10.4571 7.494C10.4944 7.73667 10.5597 7.956 10.6531 8.152C10.7651 8.488 10.9611 8.754 11.2411 8.95C11.5304 9.146 11.8711 9.244 12.2631 9.244C12.6364 9.244 12.9491 9.146 13.2011 8.95C13.4531 8.754 13.6397 8.49267 13.7611 8.166ZM21.9356 0.339999C21.9356 0.246666 21.9823 0.199999 22.0756 0.199999H22.7896C22.883 0.199999 22.9296 0.246666 22.9296 0.339999V9.86C22.9296 9.95333 22.883 10 22.7896 10H22.0756C21.9823 10 21.9356 9.95333 21.9356 9.86V9.272C21.9356 9.25333 21.9263 9.244 21.9076 9.244C21.8983 9.23467 21.8843 9.23933 21.8656 9.258C21.6603 9.52867 21.4036 9.73867 21.0956 9.888C20.797 10.0373 20.461 10.112 20.0876 10.112C19.4343 10.112 18.8836 9.944 18.4356 9.608C17.997 9.272 17.6936 8.81467 17.5256 8.236C17.395 7.816 17.3296 7.22333 17.3296 6.458C17.3296 5.68333 17.3856 5.10467 17.4976 4.722C17.6656 4.12467 17.9736 3.658 18.4216 3.322C18.8696 2.97667 19.425 2.804 20.0876 2.804C20.4516 2.804 20.7876 2.87867 21.0956 3.028C21.4036 3.168 21.6603 3.37333 21.8656 3.644C21.8843 3.66267 21.8983 3.672 21.9076 3.672C21.9263 3.66267 21.9356 3.64867 21.9356 3.63V0.339999ZM21.6836 8.166C21.7676 7.97933 21.8283 7.76 21.8656 7.508C21.903 7.256 21.9216 6.906 21.9216 6.458C21.9216 6.01 21.903 5.66 21.8656 5.408C21.8283 5.14667 21.763 4.918 21.6696 4.722C21.5576 4.40467 21.371 4.15267 21.1096 3.966C20.8576 3.77 20.5543 3.672 20.1996 3.672C19.8263 3.672 19.5043 3.76533 19.2336 3.952C18.963 4.13867 18.767 4.386 18.6456 4.694C18.5336 4.89933 18.4496 5.13267 18.3936 5.394C18.347 5.646 18.3236 6.00067 18.3236 6.458C18.3236 6.89667 18.3423 7.242 18.3796 7.494C18.417 7.73667 18.4823 7.956 18.5756 8.152C18.6876 8.488 18.8836 8.754 19.1636 8.95C19.453 9.146 19.7936 9.244 20.1856 9.244C20.559 9.244 20.8716 9.146 21.1236 8.95C21.3756 8.754 21.5623 8.49267 21.6836 8.166ZM35.083 0.928C35.083 1.02133 35.0363 1.068 34.943 1.068H29.791C29.7536 1.068 29.735 1.08667 29.735 1.124V4.582C29.735 4.61933 29.7536 4.638 29.791 4.638H33.403C33.4963 4.638 33.543 4.68467 33.543 4.778V5.366C33.543 5.45933 33.4963 5.506 33.403 5.506H29.791C29.7536 5.506 29.735 5.52467 29.735 5.562V9.076C29.735 9.11333 29.7536 9.132 29.791 9.132H34.943C35.0363 9.132 35.083 9.17867 35.083 9.272V9.86C35.083 9.95333 35.0363 10 34.943 10H28.881C28.7876 10 28.741 9.95333 28.741 9.86V0.339999C28.741 0.246666 28.7876 0.199999 28.881 0.199999H34.943C35.0363 0.199999 35.083 0.246666 35.083 0.339999V0.928ZM41.6975 0.339999C41.6975 0.246666 41.7442 0.199999 41.8375 0.199999H42.5515C42.6449 0.199999 42.6915 0.246666 42.6915 0.339999V9.86C42.6915 9.95333 42.6449 10 42.5515 10H41.8375C41.7442 10 41.6975 9.95333 41.6975 9.86V9.272C41.6975 9.25333 41.6882 9.244 41.6695 9.244C41.6602 9.23467 41.6462 9.23933 41.6275 9.258C41.4222 9.52867 41.1655 9.73867 40.8575 9.888C40.5589 10.0373 40.2229 10.112 39.8495 10.112C39.1962 10.112 38.6455 9.944 38.1975 9.608C37.7589 9.272 37.4555 8.81467 37.2875 8.236C37.1569 7.816 37.0915 7.22333 37.0915 6.458C37.0915 5.68333 37.1475 5.10467 37.2595 4.722C37.4275 4.12467 37.7355 3.658 38.1835 3.322C38.6315 2.97667 39.1869 2.804 39.8495 2.804C40.2135 2.804 40.5495 2.87867 40.8575 3.028C41.1655 3.168 41.4222 3.37333 41.6275 3.644C41.6462 3.66267 41.6602 3.672 41.6695 3.672C41.6882 3.66267 41.6975 3.64867 41.6975 3.63V0.339999ZM41.4455 8.166C41.5295 7.97933 41.5902 7.76 41.6275 7.508C41.6649 7.256 41.6835 6.906 41.6835 6.458C41.6835 6.01 41.6649 5.66 41.6275 5.408C41.5902 5.14667 41.5249 4.918 41.4315 4.722C41.3195 4.40467 41.1329 4.15267 40.8715 3.966C40.6195 3.77 40.3162 3.672 39.9615 3.672C39.5882 3.672 39.2662 3.76533 38.9955 3.952C38.7249 4.13867 38.5289 4.386 38.4075 4.694C38.2955 4.89933 38.2115 5.13267 38.1555 5.394C38.1089 5.646 38.0855 6.00067 38.0855 6.458C38.0855 6.89667 38.1042 7.242 38.1415 7.494C38.1789 7.73667 38.2442 7.956 38.3375 8.152C38.4495 8.488 38.6455 8.754 38.9255 8.95C39.2149 9.146 39.5555 9.244 39.9475 9.244C40.3209 9.244 40.6335 9.146 40.8855 8.95C41.1375 8.754 41.3242 8.49267 41.4455 8.166ZM49.5081 3.056C49.5081 2.96267 49.5548 2.916 49.6481 2.916H50.3621C50.4554 2.916 50.5021 2.96267 50.5021 3.056V9.86C50.5021 9.95333 50.4554 10 50.3621 10H49.6481C49.5548 10 49.5081 9.95333 49.5081 9.86V9.258C49.5081 9.23933 49.4988 9.22533 49.4801 9.216C49.4614 9.20667 49.4474 9.21133 49.4381 9.23C49.0461 9.80867 48.4254 10.098 47.5761 10.098C47.1281 10.098 46.7128 10.0093 46.3301 9.832C45.9568 9.64533 45.6581 9.37933 45.4341 9.034C45.2194 8.68867 45.1121 8.27333 45.1121 7.788V3.056C45.1121 2.96267 45.1588 2.916 45.2521 2.916H45.9661C46.0594 2.916 46.1061 2.96267 46.1061 3.056V7.494C46.1061 8.026 46.2554 8.45067 46.5541 8.768C46.8528 9.076 47.2588 9.23 47.7721 9.23C48.3041 9.23 48.7241 9.07133 49.0321 8.754C49.3494 8.43667 49.5081 8.01667 49.5081 7.494V3.056ZM55.684 10.112C55.012 10.112 54.4333 9.93933 53.948 9.594C53.472 9.23933 53.1453 8.76333 52.968 8.166C52.8466 7.75533 52.786 7.17667 52.786 6.43C52.786 5.758 52.8466 5.18867 52.968 4.722C53.136 4.14333 53.4626 3.68133 53.948 3.336C54.4333 2.98133 55.012 2.804 55.684 2.804C56.3653 2.804 56.9533 2.97667 57.448 3.322C57.952 3.66733 58.2786 4.09667 58.428 4.61C58.4746 4.778 58.5026 4.918 58.512 5.03V5.058C58.512 5.12333 58.47 5.16533 58.386 5.184L57.686 5.282H57.658C57.5926 5.282 57.5506 5.24 57.532 5.156L57.49 4.946C57.406 4.59133 57.2006 4.29267 56.874 4.05C56.5473 3.798 56.1506 3.672 55.684 3.672C55.2173 3.672 54.8253 3.798 54.508 4.05C54.2 4.29267 53.9993 4.61933 53.906 5.03C53.822 5.38467 53.78 5.856 53.78 6.444C53.78 7.06 53.822 7.536 53.906 7.872C53.9993 8.292 54.2 8.628 54.508 8.88C54.8253 9.12267 55.2173 9.244 55.684 9.244C56.1413 9.244 56.5333 9.12733 56.86 8.894C57.196 8.65133 57.406 8.34333 57.49 7.97V7.914L57.504 7.858C57.5133 7.76467 57.5693 7.72733 57.672 7.746L58.358 7.858C58.4513 7.87667 58.4933 7.928 58.484 8.012L58.428 8.292C58.288 8.83333 57.966 9.272 57.462 9.608C56.958 9.944 56.3653 10.112 55.684 10.112ZM63.0134 2.804C63.8534 2.804 64.5021 3.01867 64.9594 3.448C65.4167 3.87733 65.6454 4.44667 65.6454 5.156V9.86C65.6454 9.95333 65.5987 10 65.5054 10H64.7914C64.6981 10 64.6514 9.95333 64.6514 9.86V9.286C64.6514 9.26733 64.6421 9.25333 64.6234 9.244C64.6141 9.23467 64.6001 9.23933 64.5814 9.258C64.3481 9.538 64.0447 9.75267 63.6714 9.902C63.2981 10.042 62.8827 10.112 62.4254 10.112C61.7627 10.112 61.2074 9.944 60.7594 9.608C60.3114 9.272 60.0874 8.75867 60.0874 8.068C60.0874 7.368 60.3394 6.81733 60.8434 6.416C61.3567 6.00533 62.0661 5.8 62.9714 5.8H64.5954C64.6327 5.8 64.6514 5.78133 64.6514 5.744V5.212C64.6514 4.736 64.5161 4.36267 64.2454 4.092C63.9841 3.812 63.5734 3.672 63.0134 3.672C62.5654 3.672 62.2014 3.76067 61.9214 3.938C61.6414 4.106 61.4687 4.344 61.4034 4.652C61.3754 4.74533 61.3194 4.78733 61.2354 4.778L60.4794 4.68C60.3767 4.66133 60.3347 4.624 60.3534 4.568C60.4281 4.04533 60.7081 3.62067 61.1934 3.294C61.6787 2.96733 62.2854 2.804 63.0134 2.804ZM62.6214 9.258C63.1721 9.258 63.6481 9.12267 64.0494 8.852C64.4507 8.572 64.6514 8.19867 64.6514 7.732V6.64C64.6514 6.60267 64.6327 6.584 64.5954 6.584H63.1254C62.5094 6.584 62.0147 6.71 61.6414 6.962C61.2681 7.214 61.0814 7.564 61.0814 8.012C61.0814 8.42267 61.2214 8.73533 61.5014 8.95C61.7907 9.15533 62.1641 9.258 62.6214 9.258ZM71.1171 3.602C71.1171 3.69533 71.0704 3.742 70.9771 3.742H69.3951C69.3578 3.742 69.3391 3.76067 69.3391 3.798V7.928C69.3391 8.376 69.4371 8.69333 69.6331 8.88C69.8384 9.05733 70.1558 9.146 70.5851 9.146H70.9351C71.0284 9.146 71.0751 9.19267 71.0751 9.286V9.86C71.0751 9.95333 71.0284 10 70.9351 10C70.8231 10.0093 70.6504 10.014 70.4171 10.014C69.7451 10.014 69.2364 9.888 68.8911 9.636C68.5458 9.384 68.3731 8.91733 68.3731 8.236V3.798C68.3731 3.76067 68.3544 3.742 68.3171 3.742H67.4631C67.3698 3.742 67.3231 3.69533 67.3231 3.602V3.056C67.3231 2.96267 67.3698 2.916 67.4631 2.916H68.3171C68.3544 2.916 68.3731 2.89733 68.3731 2.86V1.236C68.3731 1.14267 68.4198 1.096 68.5131 1.096H69.1991C69.2924 1.096 69.3391 1.14267 69.3391 1.236V2.86C69.3391 2.89733 69.3578 2.916 69.3951 2.916H70.9771C71.0704 2.916 71.1171 2.96267 71.1171 3.056V3.602ZM73.9907 1.628C73.7667 1.628 73.58 1.55333 73.4307 1.404C73.2814 1.25467 73.2067 1.068 73.2067 0.843999C73.2067 0.610666 73.2814 0.424 73.4307 0.284C73.58 0.134666 73.7667 0.0599995 73.9907 0.0599995C74.2147 0.0599995 74.4014 0.134666 74.5507 0.284C74.7 0.424 74.7747 0.610666 74.7747 0.843999C74.7747 1.068 74.7 1.25467 74.5507 1.404C74.4014 1.55333 74.2147 1.628 73.9907 1.628ZM73.5987 9.986C73.5054 9.986 73.4587 9.93933 73.4587 9.846V3.042C73.4587 2.94867 73.5054 2.902 73.5987 2.902H74.3127C74.406 2.902 74.4527 2.94867 74.4527 3.042V9.846C74.4527 9.93933 74.406 9.986 74.3127 9.986H73.5987ZM79.8691 10.112C79.1971 10.112 78.6184 9.93933 78.1331 9.594C77.6477 9.24867 77.3117 8.77267 77.1251 8.166C76.9944 7.73667 76.9291 7.16267 76.9291 6.444C76.9291 5.72533 76.9944 5.156 77.1251 4.736C77.3024 4.13867 77.6337 3.66733 78.1191 3.322C78.6044 2.97667 79.1924 2.804 79.8831 2.804C80.5457 2.804 81.1151 2.97667 81.5911 3.322C82.0764 3.66733 82.4077 4.134 82.5851 4.722C82.7157 5.12333 82.7811 5.69733 82.7811 6.444C82.7811 7.2 82.7157 7.774 82.5851 8.166C82.4077 8.77267 82.0764 9.24867 81.5911 9.594C81.1151 9.93933 80.5411 10.112 79.8691 10.112ZM79.8691 9.244C80.3171 9.244 80.6997 9.12267 81.0171 8.88C81.3344 8.628 81.5491 8.292 81.6611 7.872C81.7451 7.536 81.7871 7.06467 81.7871 6.458C81.7871 5.842 81.7497 5.37067 81.6751 5.044C81.5631 4.624 81.3437 4.29267 81.0171 4.05C80.6997 3.798 80.3124 3.672 79.8551 3.672C79.3977 3.672 79.0104 3.798 78.6931 4.05C78.3757 4.29267 78.1611 4.624 78.0491 5.044C77.9744 5.37067 77.9371 5.842 77.9371 6.458C77.9371 7.074 77.9744 7.54533 78.0491 7.872C78.1517 8.292 78.3617 8.628 78.6791 8.88C79.0057 9.12267 79.4024 9.244 79.8691 9.244ZM88.016 2.818C88.7626 2.818 89.3553 3.03733 89.794 3.476C90.242 3.91467 90.466 4.50267 90.466 5.24V9.86C90.466 9.95333 90.4193 10 90.326 10H89.612C89.5186 10 89.472 9.95333 89.472 9.86V5.436C89.472 4.92267 89.3133 4.50267 88.996 4.176C88.688 3.84933 88.2866 3.686 87.792 3.686C87.2786 3.686 86.8633 3.84467 86.546 4.162C86.2286 4.47933 86.07 4.89467 86.07 5.408V9.86C86.07 9.95333 86.0233 10 85.93 10H85.216C85.1226 10 85.076 9.95333 85.076 9.86V3.056C85.076 2.96267 85.1226 2.916 85.216 2.916H85.93C86.0233 2.916 86.07 2.96267 86.07 3.056V3.658C86.07 3.67667 86.0746 3.69067 86.084 3.7C86.1026 3.70933 86.1166 3.70467 86.126 3.686C86.5366 3.10733 87.1666 2.818 88.016 2.818ZM100.382 0.339999C100.382 0.246666 100.428 0.199999 100.522 0.199999H101.236C101.329 0.199999 101.376 0.246666 101.376 0.339999V9.86C101.376 9.95333 101.329 10 101.236 10H100.522C100.428 10 100.382 9.95333 100.382 9.86V9.272C100.382 9.25333 100.372 9.244 100.354 9.244C100.344 9.23467 100.33 9.23933 100.312 9.258C100.106 9.52867 99.8496 9.73867 99.5416 9.888C99.2429 10.0373 98.9069 10.112 98.5336 10.112C97.8803 10.112 97.3296 9.944 96.8816 9.608C96.4429 9.272 96.1396 8.81467 95.9716 8.236C95.8409 7.816 95.7756 7.22333 95.7756 6.458C95.7756 5.68333 95.8316 5.10467 95.9436 4.722C96.1116 4.12467 96.4196 3.658 96.8676 3.322C97.3156 2.97667 97.8709 2.804 98.5336 2.804C98.8976 2.804 99.2336 2.87867 99.5416 3.028C99.8496 3.168 100.106 3.37333 100.312 3.644C100.33 3.66267 100.344 3.672 100.354 3.672C100.372 3.66267 100.382 3.64867 100.382 3.63V0.339999ZM100.13 8.166C100.214 7.97933 100.274 7.76 100.312 7.508C100.349 7.256 100.368 6.906 100.368 6.458C100.368 6.01 100.349 5.66 100.312 5.408C100.274 5.14667 100.209 4.918 100.116 4.722C100.004 4.40467 99.8169 4.15267 99.5556 3.966C99.3036 3.77 99.0003 3.672 98.6456 3.672C98.2723 3.672 97.9503 3.76533 97.6796 3.952C97.4089 4.13867 97.2129 4.386 97.0916 4.694C96.9796 4.89933 96.8956 5.13267 96.8396 5.394C96.7929 5.646 96.7696 6.00067 96.7696 6.458C96.7696 6.89667 96.7883 7.242 96.8256 7.494C96.8629 7.73667 96.9283 7.956 97.0216 8.152C97.1336 8.488 97.3296 8.754 97.6096 8.95C97.8989 9.146 98.2396 9.244 98.6316 9.244C99.0049 9.244 99.3176 9.146 99.5696 8.95C99.8216 8.754 100.008 8.49267 100.13 8.166ZM109.34 5.268C109.377 5.52933 109.396 5.856 109.396 6.248V6.696C109.396 6.78933 109.349 6.836 109.256 6.836H104.734C104.697 6.836 104.678 6.85467 104.678 6.892C104.697 7.40533 104.725 7.73667 104.762 7.886C104.865 8.306 105.084 8.63733 105.42 8.88C105.756 9.12267 106.185 9.244 106.708 9.244C107.1 9.244 107.445 9.15533 107.744 8.978C108.043 8.80067 108.276 8.54867 108.444 8.222C108.5 8.138 108.565 8.11933 108.64 8.166L109.186 8.488C109.261 8.53467 109.279 8.6 109.242 8.684C109.009 9.132 108.659 9.48667 108.192 9.748C107.725 10 107.189 10.126 106.582 10.126C105.919 10.1167 105.364 9.958 104.916 9.65C104.468 9.342 104.146 8.91267 103.95 8.362C103.782 7.914 103.698 7.27 103.698 6.43C103.698 6.038 103.703 5.72067 103.712 5.478C103.731 5.226 103.768 5.002 103.824 4.806C103.983 4.19933 104.3 3.714 104.776 3.35C105.261 2.986 105.845 2.804 106.526 2.804C107.375 2.804 108.029 3.01867 108.486 3.448C108.943 3.87733 109.228 4.484 109.34 5.268ZM106.526 3.672C106.069 3.672 105.686 3.79333 105.378 4.036C105.079 4.26933 104.883 4.58667 104.79 4.988C104.734 5.184 104.697 5.50133 104.678 5.94C104.678 5.97733 104.697 5.996 104.734 5.996H108.36C108.397 5.996 108.416 5.97733 108.416 5.94C108.397 5.52 108.369 5.22133 108.332 5.044C108.229 4.624 108.019 4.29267 107.702 4.05C107.394 3.798 107.002 3.672 106.526 3.672ZM114.735 3.602C114.735 3.69533 114.689 3.742 114.595 3.742H113.013C112.976 3.742 112.957 3.76067 112.957 3.798V7.928C112.957 8.376 113.055 8.69333 113.251 8.88C113.457 9.05733 113.774 9.146 114.203 9.146H114.553C114.647 9.146 114.693 9.19267 114.693 9.286V9.86C114.693 9.95333 114.647 10 114.553 10C114.441 10.0093 114.269 10.014 114.035 10.014C113.363 10.014 112.855 9.888 112.509 9.636C112.164 9.384 111.991 8.91733 111.991 8.236V3.798C111.991 3.76067 111.973 3.742 111.935 3.742H111.081C110.988 3.742 110.941 3.69533 110.941 3.602V3.056C110.941 2.96267 110.988 2.916 111.081 2.916H111.935C111.973 2.916 111.991 2.89733 111.991 2.86V1.236C111.991 1.14267 112.038 1.096 112.131 1.096H112.817C112.911 1.096 112.957 1.14267 112.957 1.236V2.86C112.957 2.89733 112.976 2.916 113.013 2.916H114.595C114.689 2.916 114.735 2.96267 114.735 3.056V3.602ZM119.387 2.804C120.227 2.804 120.876 3.01867 121.333 3.448C121.79 3.87733 122.019 4.44667 122.019 5.156V9.86C122.019 9.95333 121.972 10 121.879 10H121.165C121.072 10 121.025 9.95333 121.025 9.86V9.286C121.025 9.26733 121.016 9.25333 120.997 9.244C120.988 9.23467 120.974 9.23933 120.955 9.258C120.722 9.538 120.418 9.75267 120.045 9.902C119.672 10.042 119.256 10.112 118.799 10.112C118.136 10.112 117.581 9.944 117.133 9.608C116.685 9.272 116.461 8.75867 116.461 8.068C116.461 7.368 116.713 6.81733 117.217 6.416C117.73 6.00533 118.44 5.8 119.345 5.8H120.969C121.006 5.8 121.025 5.78133 121.025 5.744V5.212C121.025 4.736 120.89 4.36267 120.619 4.092C120.358 3.812 119.947 3.672 119.387 3.672C118.939 3.672 118.575 3.76067 118.295 3.938C118.015 4.106 117.842 4.344 117.777 4.652C117.749 4.74533 117.693 4.78733 117.609 4.778L116.853 4.68C116.75 4.66133 116.708 4.624 116.727 4.568C116.802 4.04533 117.082 3.62067 117.567 3.294C118.052 2.96733 118.659 2.804 119.387 2.804ZM118.995 9.258C119.546 9.258 120.022 9.12267 120.423 8.852C120.824 8.572 121.025 8.19867 121.025 7.732V6.64C121.025 6.60267 121.006 6.584 120.969 6.584H119.499C118.883 6.584 118.388 6.71 118.015 6.962C117.642 7.214 117.455 7.564 117.455 8.012C117.455 8.42267 117.595 8.73533 117.875 8.95C118.164 9.15533 118.538 9.258 118.995 9.258ZM125.039 1.628C124.815 1.628 124.629 1.55333 124.479 1.404C124.33 1.25467 124.255 1.068 124.255 0.843999C124.255 0.610666 124.33 0.424 124.479 0.284C124.629 0.134666 124.815 0.0599995 125.039 0.0599995C125.263 0.0599995 125.45 0.134666 125.599 0.284C125.749 0.424 125.823 0.610666 125.823 0.843999C125.823 1.068 125.749 1.25467 125.599 1.404C125.45 1.55333 125.263 1.628 125.039 1.628ZM124.647 9.986C124.554 9.986 124.507 9.93933 124.507 9.846V3.042C124.507 2.94867 124.554 2.902 124.647 2.902H125.361C125.455 2.902 125.501 2.94867 125.501 3.042V9.846C125.501 9.93933 125.455 9.986 125.361 9.986H124.647ZM128.356 10C128.262 10 128.216 9.95333 128.216 9.86V0.339999C128.216 0.246666 128.262 0.199999 128.356 0.199999H129.07C129.163 0.199999 129.21 0.246666 129.21 0.339999V9.86C129.21 9.95333 129.163 10 129.07 10H128.356ZM134.046 10.07C133.524 10.07 133.057 9.986 132.646 9.818C132.245 9.65 131.932 9.426 131.708 9.146C131.494 8.866 131.386 8.55333 131.386 8.208V8.04C131.386 7.94667 131.433 7.9 131.526 7.9H132.198C132.292 7.9 132.338 7.94667 132.338 8.04V8.152C132.338 8.46 132.497 8.73067 132.814 8.964C133.141 9.188 133.547 9.3 134.032 9.3C134.518 9.3 134.91 9.19267 135.208 8.978C135.507 8.754 135.656 8.474 135.656 8.138C135.656 7.90467 135.577 7.71333 135.418 7.564C135.269 7.41467 135.087 7.298 134.872 7.214C134.667 7.13 134.345 7.02267 133.906 6.892C133.384 6.74267 132.954 6.59333 132.618 6.444C132.282 6.29467 131.998 6.08933 131.764 5.828C131.54 5.55733 131.428 5.21667 131.428 4.806C131.428 4.20867 131.662 3.73267 132.128 3.378C132.595 3.02333 133.211 2.846 133.976 2.846C134.49 2.846 134.942 2.93 135.334 3.098C135.736 3.266 136.044 3.49933 136.258 3.798C136.473 4.08733 136.58 4.414 136.58 4.778V4.82C136.58 4.91333 136.534 4.96 136.44 4.96H135.782C135.689 4.96 135.642 4.91333 135.642 4.82V4.778C135.642 4.46067 135.488 4.19467 135.18 3.98C134.882 3.76533 134.476 3.658 133.962 3.658C133.486 3.658 133.104 3.756 132.814 3.952C132.525 4.13867 132.38 4.4 132.38 4.736C132.38 5.05333 132.52 5.296 132.8 5.464C133.08 5.632 133.514 5.8 134.102 5.968C134.644 6.12667 135.082 6.276 135.418 6.416C135.754 6.556 136.044 6.76133 136.286 7.032C136.529 7.29333 136.65 7.63867 136.65 8.068C136.65 8.67467 136.412 9.16 135.936 9.524C135.46 9.888 134.83 10.07 134.046 10.07ZM153.227 3.808C153.347 3.808 153.407 3.868 153.407 3.988V4.744C153.407 4.864 153.347 4.924 153.227 4.924H150.239C150.191 4.924 150.167 4.948 150.167 4.996V7.912C150.167 8.032 150.107 8.092 149.987 8.092H149.231C149.111 8.092 149.051 8.032 149.051 7.912V4.996C149.051 4.948 149.027 4.924 148.979 4.924H145.991C145.871 4.924 145.811 4.864 145.811 4.744V3.988C145.811 3.868 145.871 3.808 145.991 3.808H148.979C149.027 3.808 149.051 3.784 149.051 3.736V0.676C149.051 0.556 149.111 0.496 149.231 0.496H149.987C150.107 0.496 150.167 0.556 150.167 0.676V3.736C150.167 3.784 150.191 3.808 150.239 3.808H153.227Z" fill="#C2BEBE"/>
</svg>
