<svg width="148" height="13" viewBox="0 0 148 13" fill="none" xmlns="http://www.w3.org/2000/svg">
<path d="M7.15432 10C7.07032 10 7.01432 9.96267 6.98632 9.888L6.42632 8.124C6.41699 8.096 6.39832 8.082 6.37032 8.082H2.18432C2.15632 8.082 2.13765 8.096 2.12832 8.124L1.56832 9.888C1.54032 9.96267 1.48432 10 1.40032 10H0.64432C0.541654 10 0.50432 9.94867 0.53232 9.846L3.62632 0.312C3.65432 0.237333 3.71032 0.199999 3.79432 0.199999H4.74632C4.83032 0.199999 4.88632 0.237333 4.91432 0.312L8.02232 9.846L8.03632 9.902C8.03632 9.96733 7.99432 10 7.91032 10H7.15432ZM2.40832 7.2C2.39899 7.21867 2.39899 7.23733 2.40832 7.256C2.42699 7.26533 2.44565 7.27 2.46432 7.27H6.07632C6.09499 7.27 6.10899 7.26533 6.11832 7.256C6.13699 7.23733 6.14165 7.21867 6.13232 7.2L4.31232 1.488C4.30299 1.46933 4.28899 1.46 4.27032 1.46C4.25165 1.46 4.23765 1.46933 4.22832 1.488L2.40832 7.2ZM14.1505 0.339999C14.1505 0.246666 14.1972 0.199999 14.2905 0.199999H15.0045C15.0978 0.199999 15.1445 0.246666 15.1445 0.339999V9.86C15.1445 9.95333 15.0978 10 15.0045 10H14.2905C14.1972 10 14.1505 9.95333 14.1505 9.86V9.272C14.1505 9.25333 14.1412 9.244 14.1225 9.244C14.1132 9.23467 14.0992 9.23933 14.0805 9.258C13.8752 9.52867 13.6185 9.73867 13.3105 9.888C13.0118 10.0373 12.6758 10.112 12.3025 10.112C11.6492 10.112 11.0985 9.944 10.6505 9.608C10.2118 9.272 9.90849 8.81467 9.74049 8.236C9.60983 7.816 9.54449 7.22333 9.54449 6.458C9.54449 5.68333 9.60049 5.10467 9.71249 4.722C9.88049 4.12467 10.1885 3.658 10.6365 3.322C11.0845 2.97667 11.6398 2.804 12.3025 2.804C12.6665 2.804 13.0025 2.87867 13.3105 3.028C13.6185 3.168 13.8752 3.37333 14.0805 3.644C14.0992 3.66267 14.1132 3.672 14.1225 3.672C14.1412 3.66267 14.1505 3.64867 14.1505 3.63V0.339999ZM13.8985 8.166C13.9825 7.97933 14.0432 7.76 14.0805 7.508C14.1178 7.256 14.1365 6.906 14.1365 6.458C14.1365 6.01 14.1178 5.66 14.0805 5.408C14.0432 5.14667 13.9778 4.918 13.8845 4.722C13.7725 4.40467 13.5858 4.15267 13.3245 3.966C13.0725 3.77 12.7692 3.672 12.4145 3.672C12.0412 3.672 11.7192 3.76533 11.4485 3.952C11.1778 4.13867 10.9818 4.386 10.8605 4.694C10.7485 4.89933 10.6645 5.13267 10.6085 5.394C10.5618 5.646 10.5385 6.00067 10.5385 6.458C10.5385 6.89667 10.5572 7.242 10.5945 7.494C10.6318 7.73667 10.6972 7.956 10.7905 8.152C10.9025 8.488 11.0985 8.754 11.3785 8.95C11.6678 9.146 12.0085 9.244 12.4005 9.244C12.7738 9.244 13.0865 9.146 13.3385 8.95C13.5905 8.754 13.7772 8.49267 13.8985 8.166ZM22.0731 0.339999C22.0731 0.246666 22.1197 0.199999 22.2131 0.199999H22.9271C23.0204 0.199999 23.0671 0.246666 23.0671 0.339999V9.86C23.0671 9.95333 23.0204 10 22.9271 10H22.2131C22.1197 10 22.0731 9.95333 22.0731 9.86V9.272C22.0731 9.25333 22.0637 9.244 22.0451 9.244C22.0357 9.23467 22.0217 9.23933 22.0031 9.258C21.7977 9.52867 21.5411 9.73867 21.2331 9.888C20.9344 10.0373 20.5984 10.112 20.2251 10.112C19.5717 10.112 19.0211 9.944 18.5731 9.608C18.1344 9.272 17.8311 8.81467 17.6631 8.236C17.5324 7.816 17.4671 7.22333 17.4671 6.458C17.4671 5.68333 17.5231 5.10467 17.6351 4.722C17.8031 4.12467 18.1111 3.658 18.5591 3.322C19.0071 2.97667 19.5624 2.804 20.2251 2.804C20.5891 2.804 20.9251 2.87867 21.2331 3.028C21.5411 3.168 21.7977 3.37333 22.0031 3.644C22.0217 3.66267 22.0357 3.672 22.0451 3.672C22.0637 3.66267 22.0731 3.64867 22.0731 3.63V0.339999ZM21.8211 8.166C21.9051 7.97933 21.9657 7.76 22.0031 7.508C22.0404 7.256 22.0591 6.906 22.0591 6.458C22.0591 6.01 22.0404 5.66 22.0031 5.408C21.9657 5.14667 21.9004 4.918 21.8071 4.722C21.6951 4.40467 21.5084 4.15267 21.2471 3.966C20.9951 3.77 20.6917 3.672 20.3371 3.672C19.9637 3.672 19.6417 3.76533 19.3711 3.952C19.1004 4.13867 18.9044 4.386 18.7831 4.694C18.6711 4.89933 18.5871 5.13267 18.5311 5.394C18.4844 5.646 18.4611 6.00067 18.4611 6.458C18.4611 6.89667 18.4797 7.242 18.5171 7.494C18.5544 7.73667 18.6197 7.956 18.7131 8.152C18.8251 8.488 19.0211 8.754 19.3011 8.95C19.5904 9.146 19.9311 9.244 20.3231 9.244C20.6964 9.244 21.0091 9.146 21.2611 8.95C21.5131 8.754 21.6997 8.49267 21.8211 8.166ZM30.1524 10C30.0777 10 30.0264 9.96267 29.9984 9.888L28.0104 3.07L27.9964 3.028C27.9964 2.95333 28.0431 2.916 28.1364 2.916H28.8644C28.9484 2.916 28.9997 2.958 29.0184 3.042L30.5024 8.558C30.5117 8.57667 30.5211 8.586 30.5304 8.586C30.5491 8.586 30.5631 8.57667 30.5724 8.558L32.0844 3.042C32.1031 2.958 32.1544 2.916 32.2384 2.916H32.9104C32.9944 2.916 33.0457 2.95333 33.0644 3.028L34.5904 8.544C34.5997 8.56267 34.6137 8.572 34.6324 8.572C34.6511 8.572 34.6651 8.56267 34.6744 8.544L36.2004 3.042C36.2191 2.958 36.2704 2.916 36.3544 2.916L37.0824 2.93C37.1291 2.93 37.1617 2.944 37.1804 2.972C37.2084 3 37.2177 3.03733 37.2084 3.084L35.1924 9.888C35.1644 9.96267 35.1131 10 35.0384 10H34.2964C34.2217 10 34.1704 9.96267 34.1424 9.888L32.6164 4.652C32.6071 4.63333 32.5931 4.624 32.5744 4.624C32.5651 4.624 32.5557 4.63333 32.5464 4.652L31.0624 9.888C31.0344 9.96267 30.9831 10 30.9084 10H30.1524ZM41.5218 10.112C40.8498 10.112 40.2711 9.93933 39.7858 9.594C39.3005 9.24867 38.9645 8.77267 38.7778 8.166C38.6471 7.73667 38.5818 7.16267 38.5818 6.444C38.5818 5.72533 38.6471 5.156 38.7778 4.736C38.9551 4.13867 39.2865 3.66733 39.7718 3.322C40.2571 2.97667 40.8451 2.804 41.5358 2.804C42.1985 2.804 42.7678 2.97667 43.2438 3.322C43.7291 3.66733 44.0605 4.134 44.2378 4.722C44.3685 5.12333 44.4338 5.69733 44.4338 6.444C44.4338 7.2 44.3685 7.774 44.2378 8.166C44.0605 8.77267 43.7291 9.24867 43.2438 9.594C42.7678 9.93933 42.1938 10.112 41.5218 10.112ZM41.5218 9.244C41.9698 9.244 42.3525 9.12267 42.6698 8.88C42.9871 8.628 43.2018 8.292 43.3138 7.872C43.3978 7.536 43.4398 7.06467 43.4398 6.458C43.4398 5.842 43.4025 5.37067 43.3278 5.044C43.2158 4.624 42.9965 4.29267 42.6698 4.05C42.3525 3.798 41.9651 3.672 41.5078 3.672C41.0505 3.672 40.6631 3.798 40.3458 4.05C40.0285 4.29267 39.8138 4.624 39.7018 5.044C39.6271 5.37067 39.5898 5.842 39.5898 6.458C39.5898 7.074 39.6271 7.54533 39.7018 7.872C39.8045 8.292 40.0145 8.628 40.3318 8.88C40.6585 9.12267 41.0551 9.244 41.5218 9.244ZM49.5847 2.846C49.8927 2.846 50.1587 2.90667 50.3827 3.028C50.4574 3.06533 50.4854 3.126 50.4667 3.21L50.3127 3.896C50.2847 3.98933 50.224 4.01733 50.1307 3.98C49.972 3.91467 49.79 3.882 49.5847 3.882L49.4027 3.896C48.9174 3.91467 48.516 4.09667 48.1987 4.442C47.8814 4.778 47.7227 5.20733 47.7227 5.73V9.86C47.7227 9.95333 47.676 10 47.5827 10H46.8687C46.7754 10 46.7287 9.95333 46.7287 9.86V3.056C46.7287 2.96267 46.7754 2.916 46.8687 2.916H47.5827C47.676 2.916 47.7227 2.96267 47.7227 3.056V3.91C47.7227 3.938 47.7274 3.95667 47.7367 3.966C47.7554 3.966 47.7694 3.95667 47.7787 3.938C47.9747 3.59267 48.222 3.32667 48.5207 3.14C48.8287 2.944 49.1834 2.846 49.5847 2.846ZM52.2483 10C52.155 10 52.1083 9.95333 52.1083 9.86V0.339999C52.1083 0.246666 52.155 0.199999 52.2483 0.199999H52.9623C53.0557 0.199999 53.1023 0.246666 53.1023 0.339999V6.066C53.1023 6.08467 53.107 6.09867 53.1163 6.108C53.135 6.11733 53.1537 6.11267 53.1723 6.094L56.1403 2.986C56.187 2.93933 56.243 2.916 56.3083 2.916H57.1483C57.2043 2.916 57.2417 2.93467 57.2603 2.972C57.279 3.00933 57.2697 3.04667 57.2323 3.084L55.4403 5.072C55.4217 5.09067 55.417 5.114 55.4263 5.142L57.5683 9.832L57.5823 9.888C57.5823 9.96267 57.5403 10 57.4563 10H56.7003C56.6257 10 56.5743 9.96267 56.5463 9.888L54.7403 5.8C54.7217 5.76267 54.6983 5.758 54.6703 5.786L53.1303 7.41C53.1117 7.42867 53.1023 7.452 53.1023 7.48V9.86C53.1023 9.95333 53.0557 10 52.9623 10H52.2483ZM67.9167 5.268C67.9541 5.52933 67.9727 5.856 67.9727 6.248V6.696C67.9727 6.78933 67.9261 6.836 67.8327 6.836H63.3107C63.2734 6.836 63.2547 6.85467 63.2547 6.892C63.2734 7.40533 63.3014 7.73667 63.3387 7.886C63.4414 8.306 63.6607 8.63733 63.9967 8.88C64.3327 9.12267 64.7621 9.244 65.2847 9.244C65.6767 9.244 66.0221 9.15533 66.3207 8.978C66.6194 8.80067 66.8527 8.54867 67.0207 8.222C67.0767 8.138 67.1421 8.11933 67.2167 8.166L67.7627 8.488C67.8374 8.53467 67.8561 8.6 67.8187 8.684C67.5854 9.132 67.2354 9.48667 66.7687 9.748C66.3021 10 65.7654 10.126 65.1587 10.126C64.4961 10.1167 63.9407 9.958 63.4927 9.65C63.0447 9.342 62.7227 8.91267 62.5267 8.362C62.3587 7.914 62.2747 7.27 62.2747 6.43C62.2747 6.038 62.2794 5.72067 62.2887 5.478C62.3074 5.226 62.3447 5.002 62.4007 4.806C62.5594 4.19933 62.8767 3.714 63.3527 3.35C63.8381 2.986 64.4214 2.804 65.1027 2.804C65.9521 2.804 66.6054 3.01867 67.0627 3.448C67.5201 3.87733 67.8047 4.484 67.9167 5.268ZM65.1027 3.672C64.6454 3.672 64.2627 3.79333 63.9547 4.036C63.6561 4.26933 63.4601 4.58667 63.3667 4.988C63.3107 5.184 63.2734 5.50133 63.2547 5.94C63.2547 5.97733 63.2734 5.996 63.3107 5.996H66.9367C66.9741 5.996 66.9927 5.97733 66.9927 5.94C66.9741 5.52 66.9461 5.22133 66.9087 5.044C66.8061 4.624 66.5961 4.29267 66.2787 4.05C65.9707 3.798 65.5787 3.672 65.1027 3.672ZM69.4362 10C69.3802 10 69.3382 9.98133 69.3102 9.944C69.2915 9.90667 69.3008 9.86933 69.3382 9.832L71.6762 6.5C71.6948 6.472 71.6948 6.444 71.6762 6.416L69.3382 3.084C69.3195 3.06533 69.3102 3.042 69.3102 3.014C69.3102 2.94867 69.3522 2.916 69.4362 2.916H70.1922C70.2668 2.916 70.3228 2.944 70.3602 3L72.1942 5.646C72.2035 5.65533 72.2175 5.66 72.2362 5.66C72.2548 5.66 72.2688 5.65533 72.2782 5.646L74.0982 3C74.1355 2.944 74.1915 2.916 74.2662 2.916H75.0922C75.1482 2.916 75.1855 2.93467 75.2042 2.972C75.2228 3 75.2135 3.03733 75.1762 3.084L72.8382 6.416C72.8288 6.444 72.8288 6.472 72.8382 6.5L75.1762 9.832C75.1948 9.85067 75.2042 9.87867 75.2042 9.916C75.2042 9.93467 75.1948 9.95333 75.1762 9.972C75.1575 9.99067 75.1295 10 75.0922 10H74.3222C74.2475 10 74.1915 9.972 74.1542 9.916L72.3342 7.27C72.3248 7.25133 72.3108 7.242 72.2922 7.242C72.2735 7.242 72.2595 7.25133 72.2502 7.27L70.4022 9.916C70.3648 9.972 70.3088 10 70.2342 10H69.4362ZM82.492 4.68C82.632 5.128 82.702 5.72067 82.702 6.458C82.702 7.20467 82.6414 7.78333 82.52 8.194C82.352 8.79133 82.044 9.26267 81.596 9.608C81.1574 9.944 80.602 10.112 79.93 10.112C79.566 10.112 79.23 10.042 78.922 9.902C78.614 9.75267 78.3574 9.54267 78.152 9.272C78.1334 9.25333 78.1147 9.24867 78.096 9.258C78.0867 9.258 78.082 9.26733 78.082 9.286V12.576C78.082 12.6693 78.0354 12.716 77.942 12.716H77.228C77.1347 12.716 77.088 12.6693 77.088 12.576V3.056C77.088 2.96267 77.1347 2.916 77.228 2.916H77.942C78.0354 2.916 78.082 2.96267 78.082 3.056V3.644C78.082 3.66267 78.0867 3.67667 78.096 3.686C78.1147 3.686 78.1334 3.67667 78.152 3.658C78.3574 3.38733 78.6094 3.17733 78.908 3.028C79.216 2.87867 79.5567 2.804 79.93 2.804C80.5834 2.804 81.1294 2.972 81.568 3.308C82.016 3.644 82.324 4.10133 82.492 4.68ZM81.386 8.222C81.4887 8.01667 81.5634 7.788 81.61 7.536C81.666 7.27467 81.694 6.91533 81.694 6.458C81.694 6.01933 81.6754 5.67867 81.638 5.436C81.6007 5.184 81.5354 4.96 81.442 4.764C81.33 4.428 81.1294 4.162 80.84 3.966C80.56 3.77 80.224 3.672 79.832 3.672C79.4587 3.672 79.146 3.77 78.894 3.966C78.642 4.162 78.4554 4.42333 78.334 4.75C78.25 4.93667 78.1894 5.156 78.152 5.408C78.1147 5.66 78.096 6.01 78.096 6.458C78.096 6.906 78.1147 7.26067 78.152 7.522C78.1894 7.774 78.2547 7.998 78.348 8.194C78.46 8.51133 78.642 8.768 78.894 8.964C79.1554 9.15067 79.4634 9.244 79.818 9.244C80.1914 9.244 80.5134 9.15067 80.784 8.964C81.064 8.77733 81.2647 8.53 81.386 8.222ZM90.3309 5.268C90.3683 5.52933 90.3869 5.856 90.3869 6.248V6.696C90.3869 6.78933 90.3403 6.836 90.2469 6.836H85.7249C85.6876 6.836 85.6689 6.85467 85.6689 6.892C85.6876 7.40533 85.7156 7.73667 85.7529 7.886C85.8556 8.306 86.0749 8.63733 86.4109 8.88C86.7469 9.12267 87.1763 9.244 87.6989 9.244C88.0909 9.244 88.4363 9.15533 88.7349 8.978C89.0336 8.80067 89.2669 8.54867 89.4349 8.222C89.4909 8.138 89.5563 8.11933 89.6309 8.166L90.1769 8.488C90.2516 8.53467 90.2703 8.6 90.2329 8.684C89.9996 9.132 89.6496 9.48667 89.1829 9.748C88.7163 10 88.1796 10.126 87.5729 10.126C86.9103 10.1167 86.3549 9.958 85.9069 9.65C85.4589 9.342 85.1369 8.91267 84.9409 8.362C84.7729 7.914 84.6889 7.27 84.6889 6.43C84.6889 6.038 84.6936 5.72067 84.7029 5.478C84.7216 5.226 84.7589 5.002 84.8149 4.806C84.9736 4.19933 85.2909 3.714 85.7669 3.35C86.2523 2.986 86.8356 2.804 87.5169 2.804C88.3663 2.804 89.0196 3.01867 89.4769 3.448C89.9343 3.87733 90.2189 4.484 90.3309 5.268ZM87.5169 3.672C87.0596 3.672 86.6769 3.79333 86.3689 4.036C86.0703 4.26933 85.8743 4.58667 85.7809 4.988C85.7249 5.184 85.6876 5.50133 85.6689 5.94C85.6689 5.97733 85.6876 5.996 85.7249 5.996H89.3509C89.3883 5.996 89.4069 5.97733 89.4069 5.94C89.3883 5.52 89.3603 5.22133 89.3229 5.044C89.2203 4.624 89.0103 4.29267 88.6929 4.05C88.3849 3.798 87.9929 3.672 87.5169 3.672ZM95.4998 2.846C95.8078 2.846 96.0738 2.90667 96.2978 3.028C96.3725 3.06533 96.4005 3.126 96.3818 3.21L96.2278 3.896C96.1998 3.98933 96.1391 4.01733 96.0458 3.98C95.8871 3.91467 95.7051 3.882 95.4998 3.882L95.3178 3.896C94.8325 3.91467 94.4311 4.09667 94.1138 4.442C93.7965 4.778 93.6378 5.20733 93.6378 5.73V9.86C93.6378 9.95333 93.5911 10 93.4978 10H92.7838C92.6905 10 92.6438 9.95333 92.6438 9.86V3.056C92.6438 2.96267 92.6905 2.916 92.7838 2.916H93.4978C93.5911 2.916 93.6378 2.96267 93.6378 3.056V3.91C93.6378 3.938 93.6425 3.95667 93.6518 3.966C93.6705 3.966 93.6845 3.95667 93.6938 3.938C93.8898 3.59267 94.1371 3.32667 94.4358 3.14C94.7438 2.944 95.0985 2.846 95.4998 2.846ZM98.6954 1.628C98.4714 1.628 98.2847 1.55333 98.1354 1.404C97.9861 1.25467 97.9114 1.068 97.9114 0.843999C97.9114 0.610666 97.9861 0.424 98.1354 0.284C98.2847 0.134666 98.4714 0.0599995 98.6954 0.0599995C98.9194 0.0599995 99.1061 0.134666 99.2554 0.284C99.4047 0.424 99.4794 0.610666 99.4794 0.843999C99.4794 1.068 99.4047 1.25467 99.2554 1.404C99.1061 1.55333 98.9194 1.628 98.6954 1.628ZM98.3034 9.986C98.2101 9.986 98.1634 9.93933 98.1634 9.846V3.042C98.1634 2.94867 98.2101 2.902 98.3034 2.902H99.0174C99.1107 2.902 99.1574 2.94867 99.1574 3.042V9.846C99.1574 9.93933 99.1107 9.986 99.0174 9.986H98.3034ZM107.304 5.268C107.341 5.52933 107.36 5.856 107.36 6.248V6.696C107.36 6.78933 107.313 6.836 107.22 6.836H102.698C102.66 6.836 102.642 6.85467 102.642 6.892C102.66 7.40533 102.688 7.73667 102.726 7.886C102.828 8.306 103.048 8.63733 103.384 8.88C103.72 9.12267 104.149 9.244 104.672 9.244C105.064 9.244 105.409 9.15533 105.708 8.978C106.006 8.80067 106.24 8.54867 106.408 8.222C106.464 8.138 106.529 8.11933 106.604 8.166L107.15 8.488C107.224 8.53467 107.243 8.6 107.206 8.684C106.972 9.132 106.622 9.48667 106.156 9.748C105.689 10 105.152 10.126 104.546 10.126C103.883 10.1167 103.328 9.958 102.88 9.65C102.432 9.342 102.11 8.91267 101.914 8.362C101.746 7.914 101.662 7.27 101.662 6.43C101.662 6.038 101.666 5.72067 101.676 5.478C101.694 5.226 101.732 5.002 101.788 4.806C101.946 4.19933 102.264 3.714 102.74 3.35C103.225 2.986 103.808 2.804 104.49 2.804C105.339 2.804 105.992 3.01867 106.45 3.448C106.907 3.87733 107.192 4.484 107.304 5.268ZM104.49 3.672C104.032 3.672 103.65 3.79333 103.342 4.036C103.043 4.26933 102.847 4.58667 102.754 4.988C102.698 5.184 102.66 5.50133 102.642 5.94C102.642 5.97733 102.66 5.996 102.698 5.996H106.324C106.361 5.996 106.38 5.97733 106.38 5.94C106.361 5.52 106.333 5.22133 106.296 5.044C106.193 4.624 105.983 4.29267 105.666 4.05C105.358 3.798 104.966 3.672 104.49 3.672ZM112.557 2.818C113.303 2.818 113.896 3.03733 114.335 3.476C114.783 3.91467 115.007 4.50267 115.007 5.24V9.86C115.007 9.95333 114.96 10 114.867 10H114.153C114.059 10 114.013 9.95333 114.013 9.86V5.436C114.013 4.92267 113.854 4.50267 113.537 4.176C113.229 3.84933 112.827 3.686 112.333 3.686C111.819 3.686 111.404 3.84467 111.087 4.162C110.769 4.47933 110.611 4.89467 110.611 5.408V9.86C110.611 9.95333 110.564 10 110.471 10H109.757C109.663 10 109.617 9.95333 109.617 9.86V3.056C109.617 2.96267 109.663 2.916 109.757 2.916H110.471C110.564 2.916 110.611 2.96267 110.611 3.056V3.658C110.611 3.67667 110.615 3.69067 110.625 3.7C110.643 3.70933 110.657 3.70467 110.667 3.686C111.077 3.10733 111.707 2.818 112.557 2.818ZM120.022 10.112C119.35 10.112 118.771 9.93933 118.286 9.594C117.81 9.23933 117.483 8.76333 117.306 8.166C117.184 7.75533 117.124 7.17667 117.124 6.43C117.124 5.758 117.184 5.18867 117.306 4.722C117.474 4.14333 117.8 3.68133 118.286 3.336C118.771 2.98133 119.35 2.804 120.022 2.804C120.703 2.804 121.291 2.97667 121.786 3.322C122.29 3.66733 122.616 4.09667 122.766 4.61C122.812 4.778 122.84 4.918 122.85 5.03V5.058C122.85 5.12333 122.808 5.16533 122.724 5.184L122.024 5.282H121.996C121.93 5.282 121.888 5.24 121.87 5.156L121.828 4.946C121.744 4.59133 121.538 4.29267 121.212 4.05C120.885 3.798 120.488 3.672 120.022 3.672C119.555 3.672 119.163 3.798 118.846 4.05C118.538 4.29267 118.337 4.61933 118.244 5.03C118.16 5.38467 118.118 5.856 118.118 6.444C118.118 7.06 118.16 7.536 118.244 7.872C118.337 8.292 118.538 8.628 118.846 8.88C119.163 9.12267 119.555 9.244 120.022 9.244C120.479 9.244 120.871 9.12733 121.198 8.894C121.534 8.65133 121.744 8.34333 121.828 7.97V7.914L121.842 7.858C121.851 7.76467 121.907 7.72733 122.01 7.746L122.696 7.858C122.789 7.87667 122.831 7.928 122.822 8.012L122.766 8.292C122.626 8.83333 122.304 9.272 121.8 9.608C121.296 9.944 120.703 10.112 120.022 10.112ZM130.292 5.268C130.33 5.52933 130.348 5.856 130.348 6.248V6.696C130.348 6.78933 130.302 6.836 130.208 6.836H125.686C125.649 6.836 125.63 6.85467 125.63 6.892C125.649 7.40533 125.677 7.73667 125.714 7.886C125.817 8.306 126.036 8.63733 126.372 8.88C126.708 9.12267 127.138 9.244 127.66 9.244C128.052 9.244 128.398 9.15533 128.696 8.978C128.995 8.80067 129.228 8.54867 129.396 8.222C129.452 8.138 129.518 8.11933 129.592 8.166L130.138 8.488C130.213 8.53467 130.232 8.6 130.194 8.684C129.961 9.132 129.611 9.48667 129.144 9.748C128.678 10 128.141 10.126 127.534 10.126C126.872 10.1167 126.316 9.958 125.868 9.65C125.42 9.342 125.098 8.91267 124.902 8.362C124.734 7.914 124.65 7.27 124.65 6.43C124.65 6.038 124.655 5.72067 124.664 5.478C124.683 5.226 124.72 5.002 124.776 4.806C124.935 4.19933 125.252 3.714 125.728 3.35C126.214 2.986 126.797 2.804 127.478 2.804C128.328 2.804 128.981 3.01867 129.438 3.448C129.896 3.87733 130.18 4.484 130.292 5.268ZM127.478 3.672C127.021 3.672 126.638 3.79333 126.33 4.036C126.032 4.26933 125.836 4.58667 125.742 4.988C125.686 5.184 125.649 5.50133 125.63 5.94C125.63 5.97733 125.649 5.996 125.686 5.996H129.312C129.35 5.996 129.368 5.97733 129.368 5.94C129.35 5.52 129.322 5.22133 129.284 5.044C129.182 4.624 128.972 4.29267 128.654 4.05C128.346 3.798 127.954 3.672 127.478 3.672ZM147.09 3.808C147.21 3.808 147.27 3.868 147.27 3.988V4.744C147.27 4.864 147.21 4.924 147.09 4.924H144.102C144.054 4.924 144.03 4.948 144.03 4.996V7.912C144.03 8.032 143.97 8.092 143.85 8.092H143.094C142.974 8.092 142.914 8.032 142.914 7.912V4.996C142.914 4.948 142.89 4.924 142.842 4.924H139.854C139.734 4.924 139.674 4.864 139.674 4.744V3.988C139.674 3.868 139.734 3.808 139.854 3.808H142.842C142.89 3.808 142.914 3.784 142.914 3.736V0.676C142.914 0.556 142.974 0.496 143.094 0.496H143.85C143.97 0.496 144.03 0.556 144.03 0.676V3.736C144.03 3.784 144.054 3.808 144.102 3.808H147.09Z" fill="#C2BEBE"/>
</svg>
