<svg width="376" height="40" viewBox="0 0 376 40" fill="none" xmlns="http://www.w3.org/2000/svg">
<path d="M0.37571 31V1.90909H11.0291C13.0935 1.90909 14.8028 2.25 16.157 2.93182C17.5111 3.60417 18.5244 4.51799 19.1967 5.6733C19.8691 6.81913 20.2053 8.11174 20.2053 9.55114C20.2053 10.7633 19.9827 11.786 19.5376 12.6193C19.0926 13.4432 18.496 14.1061 17.7479 14.608C17.0092 15.1004 16.1948 15.4602 15.3047 15.6875V15.9716C16.2706 16.0189 17.2128 16.3314 18.1314 16.9091C19.0594 17.4773 19.8265 18.2869 20.4325 19.3381C21.0386 20.3892 21.3416 21.6676 21.3416 23.1733C21.3416 24.66 20.9912 25.9953 20.2905 27.179C19.5992 28.3532 18.5291 29.286 17.0803 29.9773C15.6314 30.6591 13.7801 31 11.5263 31H0.37571ZM4.76491 27.2358H11.1001C13.2024 27.2358 14.7081 26.8286 15.6172 26.0142C16.5263 25.1998 16.9808 24.1818 16.9808 22.9602C16.9808 22.0417 16.7488 21.1989 16.2848 20.4318C15.8208 19.6648 15.1579 19.054 14.2962 18.5994C13.4439 18.1449 12.4306 17.9176 11.2564 17.9176H4.76491V27.2358ZM4.76491 14.4943H10.6456C11.6304 14.4943 12.5159 14.3049 13.3018 13.9261C14.0973 13.5473 14.727 13.017 15.1911 12.3352C15.6645 11.6439 15.9013 10.8295 15.9013 9.89205C15.9013 8.68939 15.4799 7.68087 14.6371 6.86648C13.7943 6.05208 12.5017 5.64489 10.7592 5.64489H4.76491V14.4943ZM40.0277 21.9517V9.18182H44.2891V31H40.1129V27.2216H39.8857C39.3838 28.3864 38.5788 29.357 37.4709 30.1335C36.3724 30.9006 35.004 31.2841 33.3658 31.2841C31.9643 31.2841 30.7237 30.9763 29.6442 30.3608C28.5741 29.7358 27.7313 28.8125 27.1158 27.5909C26.5097 26.3693 26.2067 24.8589 26.2067 23.0597V9.18182H30.4538V22.5483C30.4538 24.035 30.8658 25.2187 31.6896 26.0994C32.5135 26.9801 33.5836 27.4205 34.8999 27.4205C35.6953 27.4205 36.486 27.2216 37.272 26.8239C38.0675 26.4261 38.7256 25.8248 39.2464 25.0199C39.7768 24.215 40.0372 23.1922 40.0277 21.9517ZM49.9957 31V9.18182H54.2429V31H49.9957ZM52.1406 5.81534C51.402 5.81534 50.7675 5.56913 50.2372 5.0767C49.7164 4.57481 49.456 3.97822 49.456 3.28693C49.456 2.58617 49.7164 1.98958 50.2372 1.49716C50.7675 0.995264 51.402 0.744318 52.1406 0.744318C52.8793 0.744318 53.509 0.995264 54.0298 1.49716C54.5601 1.98958 54.8253 2.58617 54.8253 3.28693C54.8253 3.97822 54.5601 4.57481 54.0298 5.0767C53.509 5.56913 52.8793 5.81534 52.1406 5.81534ZM64.2038 1.90909V31H59.9567V1.90909H64.2038ZM80.1023 9.18182V12.5909H68.1847V9.18182H80.1023ZM71.3807 3.95455H75.6278V24.5938C75.6278 25.4176 75.7509 26.0379 75.9972 26.4545C76.2434 26.8617 76.5606 27.1411 76.9489 27.2926C77.3466 27.4347 77.7775 27.5057 78.2415 27.5057C78.5824 27.5057 78.8807 27.482 79.1364 27.4347C79.392 27.3873 79.5909 27.3494 79.733 27.321L80.5 30.8295C80.2538 30.9242 79.9034 31.0189 79.4489 31.1136C78.9943 31.2178 78.4261 31.2746 77.7443 31.2841C76.6269 31.303 75.5852 31.1042 74.6193 30.6875C73.6534 30.2708 72.8722 29.6269 72.2756 28.7557C71.679 27.8845 71.3807 26.7907 71.3807 25.4744V3.95455ZM105.77 9.18182V12.5909H93.4403V9.18182H105.77ZM96.821 31V6.65341C96.821 5.28977 97.1193 4.15814 97.7159 3.25852C98.3125 2.34943 99.1032 1.67235 100.088 1.22727C101.073 0.772726 102.143 0.545453 103.298 0.545453C104.151 0.545453 104.88 0.616476 105.486 0.758523C106.092 0.891098 106.542 1.0142 106.835 1.12784L105.841 4.56534C105.642 4.50852 105.386 4.44223 105.074 4.36648C104.761 4.28125 104.383 4.23864 103.938 4.23864C102.905 4.23864 102.167 4.49432 101.722 5.00568C101.286 5.51705 101.068 6.25568 101.068 7.22159V31H96.821ZM118.483 31.4403C116.438 31.4403 114.652 30.9716 113.128 30.0341C111.603 29.0966 110.42 27.785 109.577 26.0994C108.734 24.4138 108.312 22.4441 108.312 20.1903C108.312 17.9271 108.734 15.9479 109.577 14.2528C110.42 12.5578 111.603 11.2415 113.128 10.304C114.652 9.36648 116.438 8.89773 118.483 8.89773C120.528 8.89773 122.313 9.36648 123.838 10.304C125.363 11.2415 126.546 12.5578 127.389 14.2528C128.232 15.9479 128.653 17.9271 128.653 20.1903C128.653 22.4441 128.232 24.4138 127.389 26.0994C126.546 27.785 125.363 29.0966 123.838 30.0341C122.313 30.9716 120.528 31.4403 118.483 31.4403ZM118.497 27.875C119.823 27.875 120.921 27.5246 121.793 26.8239C122.664 26.1231 123.308 25.1903 123.724 24.0256C124.151 22.8608 124.364 21.5777 124.364 20.1761C124.364 18.7841 124.151 17.5057 123.724 16.3409C123.308 15.1667 122.664 14.2244 121.793 13.5142C120.921 12.804 119.823 12.4489 118.497 12.4489C117.162 12.4489 116.054 12.804 115.173 13.5142C114.302 14.2244 113.653 15.1667 113.227 16.3409C112.811 17.5057 112.602 18.7841 112.602 20.1761C112.602 21.5777 112.811 22.8608 113.227 24.0256C113.653 25.1903 114.302 26.1231 115.173 26.8239C116.054 27.5246 117.162 27.875 118.497 27.875ZM133.394 31V9.18182H137.499V12.6477H137.727C138.124 11.4735 138.825 10.5502 139.829 9.87784C140.842 9.19602 141.988 8.85511 143.266 8.85511C143.531 8.85511 143.844 8.86458 144.204 8.88352C144.573 8.90246 144.862 8.92614 145.07 8.95455V13.017C144.9 12.9697 144.597 12.9176 144.161 12.8608C143.726 12.7945 143.29 12.7614 142.854 12.7614C141.851 12.7614 140.956 12.9744 140.17 13.4006C139.393 13.8172 138.778 14.3996 138.323 15.1477C137.869 15.8864 137.641 16.7292 137.641 17.6761V31H133.394ZM162.016 39.1818C161.382 39.1818 160.804 39.1297 160.283 39.0256C159.763 38.9309 159.374 38.8267 159.119 38.7131L160.141 35.233C160.918 35.4413 161.609 35.5313 162.215 35.5028C162.821 35.4744 163.356 35.2472 163.82 34.821C164.294 34.3949 164.71 33.6989 165.07 32.733L165.596 31.2841L157.613 9.18182H162.158L167.684 26.1136H167.911L173.437 9.18182H177.996L169.005 33.9119C168.588 35.0483 168.058 36.0095 167.414 36.7955C166.77 37.5909 166.003 38.1875 165.113 38.5852C164.223 38.983 163.191 39.1818 162.016 39.1818ZM190.436 31.4403C188.391 31.4403 186.606 30.9716 185.081 30.0341C183.556 29.0966 182.373 27.785 181.53 26.0994C180.687 24.4138 180.266 22.4441 180.266 20.1903C180.266 17.9271 180.687 15.9479 181.53 14.2528C182.373 12.5578 183.556 11.2415 185.081 10.304C186.606 9.36648 188.391 8.89773 190.436 8.89773C192.482 8.89773 194.267 9.36648 195.791 10.304C197.316 11.2415 198.5 12.5578 199.342 14.2528C200.185 15.9479 200.607 17.9271 200.607 20.1903C200.607 22.4441 200.185 24.4138 199.342 26.0994C198.5 27.785 197.316 29.0966 195.791 30.0341C194.267 30.9716 192.482 31.4403 190.436 31.4403ZM190.45 27.875C191.776 27.875 192.875 27.5246 193.746 26.8239C194.617 26.1231 195.261 25.1903 195.678 24.0256C196.104 22.8608 196.317 21.5777 196.317 20.1761C196.317 18.7841 196.104 17.5057 195.678 16.3409C195.261 15.1667 194.617 14.2244 193.746 13.5142C192.875 12.804 191.776 12.4489 190.45 12.4489C189.115 12.4489 188.007 12.804 187.126 13.5142C186.255 14.2244 185.607 15.1667 185.18 16.3409C184.764 17.5057 184.555 18.7841 184.555 20.1761C184.555 21.5777 184.764 22.8608 185.18 24.0256C185.607 25.1903 186.255 26.1231 187.126 26.8239C188.007 27.5246 189.115 27.875 190.45 27.875ZM219.168 21.9517V9.18182H223.43V31H219.254V27.2216H219.026C218.524 28.3864 217.719 29.357 216.612 30.1335C215.513 30.9006 214.145 31.2841 212.506 31.2841C211.105 31.2841 209.864 30.9763 208.785 30.3608C207.715 29.7358 206.872 28.8125 206.256 27.5909C205.65 26.3693 205.347 24.8589 205.347 23.0597V9.18182H209.594V22.5483C209.594 24.035 210.006 25.2187 210.83 26.0994C211.654 26.9801 212.724 27.4205 214.04 27.4205C214.836 27.4205 215.627 27.2216 216.413 26.8239C217.208 26.4261 217.866 25.8248 218.387 25.0199C218.917 24.215 219.178 23.1922 219.168 21.9517ZM229.136 31V9.18182H233.241V12.6477H233.469C233.866 11.4735 234.567 10.5502 235.571 9.87784C236.584 9.19602 237.73 8.85511 239.009 8.85511C239.274 8.85511 239.586 8.86458 239.946 8.88352C240.315 8.90246 240.604 8.92614 240.812 8.95455V13.017C240.642 12.9697 240.339 12.9176 239.903 12.8608C239.468 12.7945 239.032 12.7614 238.597 12.7614C237.593 12.7614 236.698 12.9744 235.912 13.4006C235.135 13.8172 234.52 14.3996 234.065 15.1477C233.611 15.8864 233.384 16.7292 233.384 17.6761V31H229.136ZM265.457 9.18182V12.5909H253.128V9.18182H265.457ZM256.509 31V6.65341C256.509 5.28977 256.807 4.15814 257.403 3.25852C258 2.34943 258.791 1.67235 259.776 1.22727C260.76 0.772726 261.83 0.545453 262.986 0.545453C263.838 0.545453 264.567 0.616476 265.173 0.758523C265.779 0.891098 266.229 1.0142 266.523 1.12784L265.528 4.56534C265.33 4.50852 265.074 4.44223 264.761 4.36648C264.449 4.28125 264.07 4.23864 263.625 4.23864C262.593 4.23864 261.854 4.49432 261.409 5.00568C260.973 5.51705 260.756 6.25568 260.756 7.22159V31H256.509ZM283.661 21.9517V9.18182H287.922V31H283.746V27.2216H283.518C283.017 28.3864 282.212 29.357 281.104 30.1335C280.005 30.9006 278.637 31.2841 276.999 31.2841C275.597 31.2841 274.357 30.9763 273.277 30.3608C272.207 29.7358 271.364 28.8125 270.749 27.5909C270.143 26.3693 269.839 24.8589 269.839 23.0597V9.18182H274.087V22.5483C274.087 24.035 274.499 25.2187 275.322 26.0994C276.146 26.9801 277.216 27.4205 278.533 27.4205C279.328 27.4205 280.119 27.2216 280.905 26.8239C281.7 26.4261 282.358 25.8248 282.879 25.0199C283.41 24.215 283.67 23.1922 283.661 21.9517ZM303.813 9.18182V12.5909H291.896V9.18182H303.813ZM295.092 3.95455H299.339V24.5938C299.339 25.4176 299.462 26.0379 299.708 26.4545C299.954 26.8617 300.272 27.1411 300.66 27.2926C301.058 27.4347 301.488 27.5057 301.952 27.5057C302.293 27.5057 302.592 27.482 302.847 27.4347C303.103 27.3873 303.302 27.3494 303.444 27.321L304.211 30.8295C303.965 30.9242 303.614 31.0189 303.16 31.1136C302.705 31.2178 302.137 31.2746 301.455 31.2841C300.338 31.303 299.296 31.1042 298.33 30.6875C297.364 30.2708 296.583 29.6269 295.987 28.7557C295.39 27.8845 295.092 26.7907 295.092 25.4744V3.95455ZM322.332 21.9517V9.18182H326.594V31H322.418V27.2216H322.19C321.688 28.3864 320.884 29.357 319.776 30.1335C318.677 30.9006 317.309 31.2841 315.67 31.2841C314.269 31.2841 313.028 30.9763 311.949 30.3608C310.879 29.7358 310.036 28.8125 309.42 27.5909C308.814 26.3693 308.511 24.8589 308.511 23.0597V9.18182H312.759V22.5483C312.759 24.035 313.17 25.2187 313.994 26.0994C314.818 26.9801 315.888 27.4205 317.205 27.4205C318 27.4205 318.791 27.2216 319.577 26.8239C320.372 26.4261 321.03 25.8248 321.551 25.0199C322.081 24.215 322.342 23.1922 322.332 21.9517ZM332.3 31V9.18182H336.406V12.6477H336.633C337.031 11.4735 337.731 10.5502 338.735 9.87784C339.748 9.19602 340.894 8.85511 342.173 8.85511C342.438 8.85511 342.75 8.86458 343.11 8.88352C343.479 8.90246 343.768 8.92614 343.977 8.95455V13.017C343.806 12.9697 343.503 12.9176 343.067 12.8608C342.632 12.7945 342.196 12.7614 341.761 12.7614C340.757 12.7614 339.862 12.9744 339.076 13.4006C338.299 13.8172 337.684 14.3996 337.229 15.1477C336.775 15.8864 336.548 16.7292 336.548 17.6761V31H332.3ZM356.274 31.4403C354.125 31.4403 352.273 30.9811 350.72 30.0625C349.177 29.1345 347.983 27.8324 347.141 26.1562C346.307 24.4706 345.891 22.4962 345.891 20.233C345.891 17.9981 346.307 16.0284 347.141 14.3239C347.983 12.6193 349.158 11.2888 350.663 10.3324C352.179 9.37595 353.949 8.89773 355.976 8.89773C357.207 8.89773 358.4 9.10133 359.555 9.50852C360.711 9.91572 361.748 10.5549 362.666 11.4261C363.585 12.2973 364.309 13.429 364.839 14.821C365.37 16.2036 365.635 17.8845 365.635 19.8636V21.3693H348.291V18.1875H361.473C361.473 17.0701 361.246 16.0805 360.791 15.2188C360.337 14.3475 359.697 13.661 358.874 13.1591C358.059 12.6572 357.103 12.4062 356.004 12.4062C354.811 12.4062 353.769 12.6998 352.879 13.2869C351.999 13.8646 351.317 14.6222 350.834 15.5597C350.36 16.4877 350.124 17.4962 350.124 18.5852V21.071C350.124 22.5294 350.379 23.7699 350.891 24.7926C351.411 25.8153 352.136 26.5966 353.064 27.1364C353.992 27.6667 355.076 27.9318 356.317 27.9318C357.122 27.9318 357.856 27.8182 358.518 27.5909C359.181 27.3542 359.754 27.0038 360.237 26.5398C360.72 26.0758 361.089 25.5028 361.345 24.821L365.365 25.5455C365.043 26.7292 364.465 27.7661 363.632 28.6562C362.808 29.5369 361.771 30.2235 360.521 30.7159C359.281 31.1989 357.865 31.4403 356.274 31.4403ZM373.146 31.2699C372.369 31.2699 371.701 30.9953 371.143 30.446C370.584 29.8873 370.305 29.215 370.305 28.429C370.305 27.6525 370.584 26.9896 371.143 26.4403C371.701 25.8816 372.369 25.6023 373.146 25.6023C373.922 25.6023 374.59 25.8816 375.148 26.4403C375.707 26.9896 375.987 27.6525 375.987 28.429C375.987 28.9498 375.854 29.428 375.589 29.8636C375.333 30.2898 374.992 30.6307 374.566 30.8864C374.14 31.142 373.666 31.2699 373.146 31.2699Z" fill="#F7F8F8"/>
</svg>
