<svg width="112" height="21" viewBox="0 0 112 21" fill="none" xmlns="http://www.w3.org/2000/svg">
<path d="M13.3352 6.18466H11.1193C11.0341 5.71117 10.8755 5.29451 10.6435 4.93466C10.4115 4.57481 10.1274 4.26941 9.79119 4.01847C9.45502 3.76752 9.0786 3.57812 8.66193 3.45028C8.25 3.32244 7.81203 3.25852 7.34801 3.25852C6.50994 3.25852 5.75947 3.46922 5.09659 3.89062C4.43845 4.31203 3.91761 4.92992 3.53409 5.74432C3.1553 6.55871 2.96591 7.55303 2.96591 8.72727C2.96591 9.91098 3.1553 10.91 3.53409 11.7244C3.91761 12.5388 4.44081 13.1544 5.10369 13.571C5.76657 13.9877 6.51231 14.196 7.34091 14.196C7.80019 14.196 8.2358 14.1345 8.64773 14.0114C9.06439 13.8835 9.44081 13.6965 9.77699 13.4503C10.1132 13.2041 10.3973 12.9034 10.6293 12.5483C10.866 12.1884 11.0294 11.7765 11.1193 11.3125L13.3352 11.3196C13.2169 12.0346 12.9872 12.6927 12.6463 13.294C12.3101 13.8906 11.8769 14.4067 11.3466 14.8423C10.821 15.2732 10.2197 15.607 9.54261 15.8438C8.86553 16.0805 8.12689 16.1989 7.3267 16.1989C6.06723 16.1989 4.94508 15.9006 3.96023 15.304C2.97538 14.7027 2.19886 13.8433 1.63068 12.7259C1.06723 11.6084 0.785511 10.2756 0.785511 8.72727C0.785511 7.17424 1.0696 5.84138 1.63778 4.72869C2.20597 3.61127 2.98248 2.75426 3.96733 2.15767C4.95218 1.55634 6.07197 1.25568 7.3267 1.25568C8.09848 1.25568 8.81818 1.36695 9.4858 1.58949C10.1581 1.80729 10.7618 2.12926 11.2969 2.5554C11.8319 2.9768 12.2746 3.4929 12.625 4.10369C12.9754 4.70975 13.2121 5.40341 13.3352 6.18466ZM20.786 16.2202C19.7633 16.2202 18.8708 15.9858 18.1085 15.517C17.3461 15.0483 16.7543 14.3925 16.3329 13.5497C15.9115 12.7069 15.7008 11.7221 15.7008 10.5952C15.7008 9.46354 15.9115 8.47396 16.3329 7.62642C16.7543 6.77888 17.3461 6.12074 18.1085 5.65199C18.8708 5.18324 19.7633 4.94886 20.786 4.94886C21.8087 4.94886 22.7013 5.18324 23.4636 5.65199C24.2259 6.12074 24.8177 6.77888 25.2391 7.62642C25.6605 8.47396 25.8712 9.46354 25.8712 10.5952C25.8712 11.7221 25.6605 12.7069 25.2391 13.5497C24.8177 14.3925 24.2259 15.0483 23.4636 15.517C22.7013 15.9858 21.8087 16.2202 20.786 16.2202ZM20.7931 14.4375C21.456 14.4375 22.0052 14.2623 22.4408 13.9119C22.8764 13.5616 23.1984 13.0952 23.4067 12.5128C23.6198 11.9304 23.7263 11.2888 23.7263 10.5881C23.7263 9.89205 23.6198 9.25284 23.4067 8.67045C23.1984 8.08333 22.8764 7.61222 22.4408 7.2571C22.0052 6.90199 21.456 6.72443 20.7931 6.72443C20.1255 6.72443 19.5715 6.90199 19.1312 7.2571C18.6956 7.61222 18.3712 8.08333 18.1582 8.67045C17.9498 9.25284 17.8457 9.89205 17.8457 10.5881C17.8457 11.2888 17.9498 11.9304 18.1582 12.5128C18.3712 13.0952 18.6956 13.5616 19.1312 13.9119C19.5715 14.2623 20.1255 14.4375 20.7931 14.4375ZM32.7254 16.2131C31.8447 16.2131 31.0588 15.9882 30.3675 15.5384C29.6809 15.0838 29.1411 14.4375 28.7482 13.5994C28.3599 12.7566 28.1658 11.7457 28.1658 10.5668C28.1658 9.38778 28.3623 8.37926 28.7553 7.54119C29.153 6.70312 29.6975 6.06155 30.3888 5.61648C31.0801 5.1714 31.8637 4.94886 32.7396 4.94886C33.4167 4.94886 33.9612 5.0625 34.3732 5.28977C34.7898 5.51231 35.1118 5.77273 35.3391 6.07102C35.5711 6.36932 35.751 6.6321 35.8788 6.85938H36.0067V1.45455H38.1303V16H36.0564V14.3026H35.8788C35.751 14.5346 35.5663 14.7997 35.3249 15.098C35.0881 15.3963 34.7614 15.6567 34.3447 15.8793C33.9281 16.1018 33.3883 16.2131 32.7254 16.2131ZM33.1942 14.402C33.805 14.402 34.3211 14.241 34.7425 13.919C35.1686 13.5923 35.4906 13.1402 35.7084 12.5625C35.9309 11.9848 36.0422 11.3125 36.0422 10.5455C36.0422 9.78788 35.9333 9.125 35.7155 8.55682C35.4977 7.98864 35.1781 7.54593 34.7567 7.22869C34.3353 6.91146 33.8144 6.75284 33.1942 6.75284C32.555 6.75284 32.0223 6.91856 31.5962 7.25C31.17 7.58144 30.8481 8.03362 30.6303 8.60653C30.4172 9.17945 30.3107 9.82576 30.3107 10.5455C30.3107 11.2746 30.4196 11.9304 30.6374 12.5128C30.8552 13.0952 31.1771 13.5568 31.6033 13.8977C32.0341 14.2339 32.5644 14.402 33.1942 14.402ZM41.5612 16V5.09091H43.6847V16H41.5612ZM42.6336 3.40767C42.2643 3.40767 41.947 3.28456 41.6819 3.03835C41.4215 2.7874 41.2913 2.48911 41.2913 2.14347C41.2913 1.79309 41.4215 1.49479 41.6819 1.24858C41.947 0.997632 42.2643 0.872159 42.6336 0.872159C43.0029 0.872159 43.3178 0.997632 43.5782 1.24858C43.8433 1.49479 43.9759 1.79309 43.9759 2.14347C43.9759 2.48911 43.8433 2.7874 43.5782 3.03835C43.3178 3.28456 43.0029 3.40767 42.6336 3.40767ZM49.0652 9.52273V16H46.9416V5.09091H48.98V6.86648H49.1149C49.3659 6.28883 49.7589 5.82481 50.2939 5.47443C50.8337 5.12405 51.5131 4.94886 52.3322 4.94886C53.0756 4.94886 53.7267 5.10511 54.2854 5.41761C54.8441 5.72538 55.2773 6.18466 55.5851 6.79545C55.8928 7.40625 56.0467 8.16146 56.0467 9.06108V16H53.9232V9.31676C53.9232 8.52604 53.7172 7.90814 53.3053 7.46307C52.8933 7.01326 52.3275 6.78835 51.6078 6.78835C51.1154 6.78835 50.6774 6.89489 50.2939 7.10795C49.9151 7.32102 49.6144 7.63352 49.3919 8.04545C49.1741 8.45265 49.0652 8.94508 49.0652 9.52273ZM63.8686 20.3182C63.0021 20.3182 62.2564 20.2045 61.6314 19.9773C61.0111 19.75 60.5045 19.4493 60.1115 19.0753C59.7185 18.7012 59.425 18.2917 59.2308 17.8466L61.0561 17.0938C61.1839 17.3021 61.3544 17.5223 61.5675 17.7543C61.7853 17.991 62.0788 18.1922 62.4482 18.358C62.8222 18.5237 63.3028 18.6065 63.8899 18.6065C64.6948 18.6065 65.3601 18.41 65.8857 18.017C66.4112 17.6288 66.674 17.0085 66.674 16.1562V14.0114H66.5391C66.4112 14.2434 66.2266 14.5014 65.9851 14.7855C65.7483 15.0696 65.4216 15.3158 65.005 15.5241C64.5883 15.7325 64.0462 15.8366 63.3786 15.8366C62.5168 15.8366 61.7403 15.6354 61.049 15.233C60.3625 14.8258 59.8179 14.2268 59.4155 13.4361C59.0178 12.6406 58.8189 11.6629 58.8189 10.5028C58.8189 9.3428 59.0154 8.34848 59.4084 7.51989C59.8061 6.69129 60.3506 6.05682 61.0419 5.61648C61.7332 5.1714 62.5168 4.94886 63.3928 4.94886C64.0698 4.94886 64.6167 5.0625 65.0334 5.28977C65.45 5.51231 65.7744 5.77273 66.0064 6.07102C66.2431 6.36932 66.4254 6.6321 66.5533 6.85938H66.7095V5.09091H68.7905V16.2415C68.7905 17.179 68.5727 17.9484 68.1371 18.5497C67.7015 19.151 67.112 19.5961 66.3686 19.8849C65.63 20.1738 64.7966 20.3182 63.8686 20.3182ZM63.8473 14.0753C64.4581 14.0753 64.9742 13.9332 65.3956 13.6491C65.8217 13.3603 66.1437 12.9484 66.3615 12.4134C66.584 11.8736 66.6953 11.2273 66.6953 10.4744C66.6953 9.74053 66.5864 9.09422 66.3686 8.53551C66.1508 7.9768 65.8312 7.54119 65.4098 7.22869C64.9884 6.91146 64.4676 6.75284 63.8473 6.75284C63.2081 6.75284 62.6754 6.91856 62.2493 7.25C61.8232 7.5767 61.5012 8.02178 61.2834 8.58523C61.0703 9.14867 60.9638 9.77841 60.9638 10.4744C60.9638 11.1894 61.0727 11.8168 61.2905 12.3565C61.5083 12.8963 61.8303 13.3177 62.2564 13.6207C62.6873 13.9238 63.2176 14.0753 63.8473 14.0753ZM77.9019 16V1.45455H87.0212V3.34375H80.0965V7.77557H86.5454V9.65767H80.0965V14.1108H87.1065V16H77.9019ZM92.3058 9.52273V16H90.1822V5.09091H92.2206V6.86648H92.3555C92.6065 6.28883 92.9995 5.82481 93.5345 5.47443C94.0743 5.12405 94.7537 4.94886 95.5729 4.94886C96.3162 4.94886 96.9673 5.10511 97.526 5.41761C98.0847 5.72538 98.5179 6.18466 98.8257 6.79545C99.1335 7.40625 99.2874 8.16146 99.2874 9.06108V16H97.1638V9.31676C97.1638 8.52604 96.9578 7.90814 96.5459 7.46307C96.1339 7.01326 95.5681 6.78835 94.8484 6.78835C94.356 6.78835 93.918 6.89489 93.5345 7.10795C93.1557 7.32102 92.8551 7.63352 92.6325 8.04545C92.4147 8.45265 92.3058 8.94508 92.3058 9.52273ZM111.477 5.09091L107.521 16H105.248L101.285 5.09091H103.565L106.328 13.4858H106.442L109.197 5.09091H111.477Z" fill="#5C67C7"/>
</svg>
