<svg width="64" height="14" viewBox="0 0 64 14" fill="none" xmlns="http://www.w3.org/2000/svg">
<path d="M9.4011 4.32826H7.54173C7.4887 4.02333 7.39092 3.75321 7.2484 3.51789C7.10588 3.27925 6.92856 3.07707 6.71644 2.91135C6.50432 2.74563 6.26237 2.62134 5.99059 2.53849C5.72212 2.45231 5.43211 2.40922 5.12056 2.40922C4.56706 2.40922 4.07653 2.54843 3.64897 2.82684C3.22141 3.10193 2.88666 3.50629 2.64471 4.03991C2.40276 4.57021 2.28178 5.21817 2.28178 5.9838C2.28178 6.76268 2.40276 7.41893 2.64471 7.95255C2.88997 8.48285 3.22473 8.88389 3.64897 9.15567C4.07653 9.42414 4.5654 9.55837 5.11559 9.55837C5.42051 9.55837 5.70555 9.5186 5.9707 9.43905C6.23917 9.35619 6.47946 9.23522 6.69158 9.07613C6.90702 8.91704 7.08765 8.72149 7.23349 8.48948C7.38264 8.25747 7.48538 7.99232 7.54173 7.69403L9.4011 7.70397C9.3315 8.18787 9.18069 8.64194 8.94869 9.06618C8.71999 9.49043 8.42004 9.86495 8.04883 10.1898C7.67762 10.5113 7.24343 10.7632 6.74627 10.9454C6.24911 11.1244 5.69727 11.2139 5.09073 11.2139C4.19585 11.2139 3.39708 11.0068 2.69442 10.5925C1.99177 10.1782 1.43827 9.57992 1.03391 8.79772C0.629557 8.01552 0.427379 7.07755 0.427379 5.9838C0.427379 4.88673 0.631215 3.94876 1.03888 3.16988C1.44656 2.38768 2.00172 1.78943 2.70437 1.37513C3.40702 0.960833 4.20247 0.753684 5.09073 0.753684C5.65749 0.753684 6.18448 0.833229 6.6717 0.99232C7.15891 1.15141 7.5931 1.38508 7.97425 1.69331C8.35541 1.99824 8.66862 2.37277 8.91389 2.81689C9.16246 3.25771 9.32487 3.7615 9.4011 4.32826ZM14.3416 11.2239C13.5959 11.2239 12.9496 11.0598 12.4027 10.7317C11.8558 10.4035 11.4316 9.9445 11.13 9.35454C10.8317 8.76457 10.6825 8.07518 10.6825 7.28635C10.6825 6.49753 10.8317 5.80648 11.13 5.2132C11.4316 4.61992 11.8558 4.15922 12.4027 3.8311C12.9496 3.50297 13.5959 3.33891 14.3416 3.33891C15.0874 3.33891 15.7337 3.50297 16.2805 3.8311C16.8274 4.15922 17.25 4.61992 17.5483 5.2132C17.8499 5.80648 18.0007 6.49753 18.0007 7.28635C18.0007 8.07518 17.8499 8.76457 17.5483 9.35454C17.25 9.9445 16.8274 10.4035 16.2805 10.7317C15.7337 11.0598 15.0874 11.2239 14.3416 11.2239ZM14.3516 9.78209C14.7559 9.78209 15.094 9.67106 15.3658 9.449C15.6375 9.22362 15.8397 8.92201 15.9723 8.54417C16.1082 8.16633 16.1761 7.7454 16.1761 7.28138C16.1761 6.81405 16.1082 6.39147 15.9723 6.01363C15.8397 5.63247 15.6375 5.32921 15.3658 5.10383C15.094 4.87845 14.7559 4.76576 14.3516 4.76576C13.9373 4.76576 13.5926 4.87845 13.3175 5.10383C13.0457 5.32921 12.8419 5.63247 12.706 6.01363C12.5734 6.39147 12.5071 6.81405 12.5071 7.28138C12.5071 7.7454 12.5734 8.16633 12.706 8.54417C12.8419 8.92201 13.0457 9.22362 13.3175 9.449C13.5926 9.67106 13.9373 9.78209 14.3516 9.78209ZM19.5282 11.0747V3.43834H21.2484V4.73593H21.3379C21.497 4.29843 21.7605 3.95705 22.1284 3.71178C22.4963 3.4632 22.9354 3.33891 23.4458 3.33891C23.9629 3.33891 24.3987 3.46486 24.7534 3.71675C25.1113 3.96533 25.3632 4.30506 25.5091 4.73593H25.5886C25.7576 4.31169 26.0427 3.97362 26.4437 3.72172C26.8481 3.46652 27.327 3.33891 27.8805 3.33891C28.5832 3.33891 29.1565 3.56098 29.6007 4.0051C30.0448 4.44923 30.2669 5.0972 30.2669 5.949V11.0747H28.4622V6.22741C28.4622 5.75345 28.3362 5.40709 28.0843 5.18834C27.8324 4.96628 27.5242 4.85525 27.1596 4.85525C26.7254 4.85525 26.3857 4.99114 26.1404 5.26292C25.8985 5.53138 25.7775 5.88105 25.7775 6.31192V11.0747H24.0126V6.15283C24.0126 5.75842 23.8933 5.44355 23.6547 5.20823C23.4193 4.97291 23.1111 4.85525 22.7299 4.85525C22.4714 4.85525 22.2361 4.92153 22.024 5.05411C21.8118 5.18337 21.6428 5.36732 21.5169 5.60596C21.3909 5.84128 21.3279 6.11637 21.3279 6.43124V11.0747H19.5282ZM32.0927 13.9383V3.43834H33.8626V4.70113H33.967C34.0598 4.51552 34.1907 4.31831 34.3597 4.10951C34.5288 3.89739 34.7575 3.71675 35.0458 3.5676C35.3342 3.41514 35.7021 3.33891 36.1495 3.33891C36.7395 3.33891 37.2714 3.48972 37.7454 3.79133C38.2227 4.08962 38.6005 4.53209 38.8789 5.11874C39.1606 5.70207 39.3015 6.41798 39.3015 7.26647C39.3015 8.10501 39.1639 8.8176 38.8888 9.40425C38.6138 9.9909 38.2392 10.4383 37.7653 10.7466C37.2913 11.0548 36.7544 11.2089 36.1545 11.2089C35.717 11.2089 35.354 11.136 35.0657 10.9902C34.7773 10.8444 34.5453 10.6687 34.3697 10.4632C34.1973 10.2544 34.0631 10.0572 33.967 9.87158H33.8924V13.9383H32.0927ZM33.8576 7.25653C33.8576 7.75037 33.9272 8.1829 34.0664 8.55411C34.2089 8.92532 34.4128 9.21533 34.6779 9.42414C34.9464 9.62963 35.2712 9.73238 35.6523 9.73238C36.0501 9.73238 36.3832 9.62632 36.6516 9.4142C36.9201 9.19876 37.1223 8.90544 37.2582 8.53422C37.3974 8.1597 37.467 7.7338 37.467 7.25653C37.467 6.78257 37.399 6.36164 37.2631 5.99374C37.1272 5.62584 36.9251 5.33749 36.6566 5.12868C36.3881 4.91988 36.0534 4.81547 35.6523 4.81547C35.2679 4.81547 34.9414 4.91656 34.6729 5.11874C34.4045 5.32092 34.2006 5.6043 34.0614 5.96888C33.9255 6.33347 33.8576 6.76268 33.8576 7.25653ZM43.0401 11.2288C42.5562 11.2288 42.1204 11.1427 41.7326 10.9703C41.3481 10.7946 41.0432 10.5361 40.8178 10.1947C40.5958 9.85335 40.4847 9.43242 40.4847 8.93195C40.4847 8.50108 40.5643 8.14478 40.7234 7.86306C40.8825 7.58134 41.0996 7.35596 41.3746 7.18692C41.6497 7.01789 41.9596 6.89028 42.3043 6.80411C42.6523 6.71462 43.012 6.64999 43.3832 6.61022C43.8306 6.56382 44.1935 6.52239 44.4719 6.48593C44.7504 6.44616 44.9525 6.3865 45.0785 6.30695C45.2077 6.22409 45.2724 6.09649 45.2724 5.92414V5.89431C45.2724 5.51978 45.1613 5.22977 44.9393 5.02428C44.7172 4.81879 44.3974 4.71604 43.9798 4.71604C43.5389 4.71604 43.1893 4.81216 42.9308 5.00439C42.6755 5.19663 42.5032 5.42367 42.4137 5.6855L40.7333 5.44687C40.8659 4.98285 41.0846 4.59507 41.3896 4.28351C41.6945 3.96865 42.0674 3.73332 42.5082 3.57755C42.949 3.41846 43.4362 3.33891 43.9698 3.33891C44.3377 3.33891 44.704 3.382 45.0685 3.46817C45.4331 3.55435 45.7662 3.69687 46.0678 3.89573C46.3694 4.09128 46.6114 4.35809 46.7937 4.69616C46.9793 5.03422 47.0721 5.45681 47.0721 5.96391V11.0747H45.342V10.0257H45.2823C45.1729 10.2378 45.0188 10.4367 44.82 10.6223C44.6244 10.8046 44.3775 10.9521 44.0792 11.0648C43.7842 11.1741 43.4379 11.2288 43.0401 11.2288ZM43.5075 9.90638C43.8687 9.90638 44.1819 9.83512 44.4471 9.6926C44.7122 9.54677 44.9161 9.35454 45.0586 9.1159C45.2044 8.87726 45.2773 8.61708 45.2773 8.33536V7.4355C45.221 7.4819 45.1249 7.52499 44.989 7.56476C44.8564 7.60454 44.7073 7.63934 44.5415 7.66917C44.3758 7.699 44.2118 7.72551 44.0494 7.74871C43.887 7.77191 43.7461 7.7918 43.6268 7.80837C43.3583 7.84483 43.118 7.90449 42.9059 7.98735C42.6938 8.07021 42.5264 8.18621 42.4038 8.33536C42.2811 8.48119 42.2198 8.67011 42.2198 8.90212C42.2198 9.23356 42.3408 9.4838 42.5827 9.65283C42.8247 9.82187 43.1329 9.90638 43.5075 9.90638ZM50.6815 6.60028V11.0747H48.8817V3.43834H50.6019V4.73593H50.6914C50.8671 4.30837 51.1471 3.96865 51.5316 3.71675C51.9194 3.46486 52.3983 3.33891 52.9684 3.33891C53.4954 3.33891 53.9544 3.4516 54.3455 3.67698C54.7399 3.90236 55.0449 4.22883 55.2603 4.65638C55.479 5.08394 55.5868 5.60264 55.5835 6.21249V11.0747H53.7837V6.4909C53.7837 5.98048 53.6512 5.5811 53.386 5.29275C53.1242 5.00439 52.7612 4.86022 52.2972 4.86022C51.9824 4.86022 51.7023 4.92982 51.457 5.06903C51.2151 5.20492 51.0245 5.40212 50.8853 5.66064C50.7494 5.91917 50.6815 6.23238 50.6815 6.60028ZM58.2582 13.9383C58.0129 13.9383 57.7859 13.9185 57.5771 13.8787C57.3716 13.8422 57.2075 13.7991 57.0849 13.7494L57.5025 12.3474C57.7643 12.4237 57.998 12.4601 58.2035 12.4568C58.409 12.4535 58.5896 12.3889 58.7454 12.2629C58.9045 12.1403 59.0387 11.9348 59.1481 11.6464L59.3022 11.2338L56.533 3.43834H58.4421L60.2021 9.20539H60.2816L62.0465 3.43834H63.9606L60.9031 11.9994C60.7605 12.4038 60.5716 12.7501 60.3363 13.0385C60.101 13.3302 59.8126 13.5522 59.4712 13.7047C59.1332 13.8605 58.7288 13.9383 58.2582 13.9383Z" fill="white"/>
</svg>
