<svg width="214" height="17" viewBox="0 0 214 17" fill="none" xmlns="http://www.w3.org/2000/svg">
<path d="M10.1782 5.14773H8.40549C8.3373 4.76894 8.21041 4.43561 8.0248 4.14773C7.8392 3.85985 7.61193 3.61553 7.34299 3.41477C7.07405 3.21401 6.77291 3.0625 6.43958 2.96023C6.11003 2.85795 5.75965 2.80682 5.38844 2.80682C4.71799 2.80682 4.11761 2.97538 3.5873 3.3125C3.06079 3.64962 2.64412 4.14394 2.3373 4.79545C2.03427 5.44697 1.88276 6.24242 1.88276 7.18182C1.88276 8.12879 2.03427 8.92803 2.3373 9.57955C2.64412 10.2311 3.06268 10.7235 3.59299 11.0568C4.12329 11.3902 4.71988 11.5568 5.38276 11.5568C5.75018 11.5568 6.09867 11.5076 6.42821 11.4091C6.76155 11.3068 7.06268 11.1572 7.33162 10.9602C7.60056 10.7633 7.82783 10.5227 8.01344 10.2386C8.20283 9.95076 8.33352 9.62121 8.40549 9.25L10.1782 9.25568C10.0835 9.82765 9.8998 10.3542 9.62708 10.8352C9.35814 11.3125 9.01155 11.7254 8.5873 12.0739C8.16685 12.4186 7.68579 12.6856 7.14412 12.875C6.60246 13.0644 6.01155 13.1591 5.3714 13.1591C4.36382 13.1591 3.46609 12.9205 2.67821 12.4432C1.89033 11.9621 1.26912 11.2746 0.814577 10.3807C0.363819 9.48674 0.13844 8.42045 0.13844 7.18182C0.13844 5.93939 0.365713 4.87311 0.820258 3.98295C1.2748 3.08901 1.89602 2.40341 2.68389 1.92614C3.47177 1.44508 4.36761 1.20455 5.3714 1.20455C5.98882 1.20455 6.56458 1.29356 7.09867 1.47159C7.63655 1.64583 8.1195 1.90341 8.54753 2.24432C8.97556 2.58144 9.32973 2.99432 9.61003 3.48295C9.89033 3.9678 10.0797 4.52273 10.1782 5.14773ZM16.6188 13.1761C15.8007 13.1761 15.0866 12.9886 14.4768 12.6136C13.8669 12.2386 13.3935 11.714 13.0563 11.0398C12.7192 10.3655 12.5507 9.57765 12.5507 8.67614C12.5507 7.77083 12.7192 6.97917 13.0563 6.30114C13.3935 5.62311 13.8669 5.09659 14.4768 4.72159C15.0866 4.34659 15.8007 4.15909 16.6188 4.15909C17.437 4.15909 18.151 4.34659 18.7609 4.72159C19.3707 5.09659 19.8442 5.62311 20.1813 6.30114C20.5185 6.97917 20.687 7.77083 20.687 8.67614C20.687 9.57765 20.5185 10.3655 20.1813 11.0398C19.8442 11.714 19.3707 12.2386 18.7609 12.6136C18.151 12.9886 17.437 13.1761 16.6188 13.1761ZM16.6245 11.75C17.1548 11.75 17.5942 11.6098 17.9427 11.3295C18.2912 11.0492 18.5488 10.6761 18.7154 10.2102C18.8859 9.74432 18.9711 9.23106 18.9711 8.67045C18.9711 8.11364 18.8859 7.60227 18.7154 7.13636C18.5488 6.66667 18.2912 6.28977 17.9427 6.00568C17.5942 5.72159 17.1548 5.57955 16.6245 5.57955C16.0904 5.57955 15.6473 5.72159 15.295 6.00568C14.9465 6.28977 14.687 6.66667 14.5166 7.13636C14.3499 7.60227 14.2666 8.11364 14.2666 8.67045C14.2666 9.23106 14.3499 9.74432 14.5166 10.2102C14.687 10.6761 14.9465 11.0492 15.295 11.3295C15.6473 11.6098 16.0904 11.75 16.6245 11.75ZM23.3833 16.2727V4.27273H25.0424V5.6875H25.1845C25.2829 5.50568 25.425 5.29545 25.6106 5.05682C25.7962 4.81818 26.0538 4.60985 26.3833 4.43182C26.7129 4.25 27.1485 4.15909 27.6901 4.15909C28.3947 4.15909 29.0235 4.33712 29.5765 4.69318C30.1295 5.04924 30.5632 5.5625 30.8776 6.23295C31.1958 6.90341 31.3549 7.71023 31.3549 8.65341C31.3549 9.59659 31.1977 10.4053 30.8833 11.0795C30.5689 11.75 30.1371 12.267 29.5879 12.6307C29.0386 12.9905 28.4117 13.1705 27.7072 13.1705C27.1769 13.1705 26.7432 13.0814 26.4061 12.9034C26.0727 12.7254 25.8114 12.517 25.622 12.2784C25.4326 12.0398 25.2867 11.8277 25.1845 11.642H25.0822V16.2727H23.3833ZM25.0481 8.63636C25.0481 9.25 25.1371 9.78788 25.3151 10.25C25.4932 10.7121 25.7507 11.0739 26.0879 11.3352C26.425 11.5928 26.8379 11.7216 27.3265 11.7216C27.8341 11.7216 28.2583 11.5871 28.5992 11.3182C28.9401 11.0455 29.1977 10.6761 29.372 10.2102C29.55 9.74432 29.639 9.2197 29.639 8.63636C29.639 8.06061 29.5519 7.54356 29.3776 7.08523C29.2072 6.62689 28.9496 6.26515 28.6049 6C28.264 5.73485 27.8379 5.60227 27.3265 5.60227C26.8341 5.60227 26.4174 5.72917 26.0765 5.98295C25.7394 6.23674 25.4837 6.59091 25.3095 7.04545C25.1352 7.5 25.0481 8.0303 25.0481 8.63636ZM34.8353 16.2727C34.5815 16.2727 34.3505 16.2519 34.1421 16.2102C33.9338 16.1723 33.7785 16.1307 33.6762 16.0852L34.0853 14.6932C34.3959 14.7765 34.6724 14.8125 34.9149 14.8011C35.1573 14.7898 35.3713 14.6989 35.5569 14.5284C35.7463 14.358 35.913 14.0795 36.0569 13.6932L36.2671 13.1136L33.074 4.27273H34.8921L37.1024 11.0455H37.1933L39.4035 4.27273H41.2274L37.6308 14.1648C37.4641 14.6193 37.252 15.0038 36.9944 15.3182C36.7368 15.6364 36.43 15.875 36.074 16.0341C35.7179 16.1932 35.305 16.2727 34.8353 16.2727ZM43.6239 13V4.27273H45.266V5.65909H45.3569C45.516 5.18939 45.7963 4.82008 46.1978 4.55114C46.6031 4.27841 47.0614 4.14205 47.5728 4.14205C47.6789 4.14205 47.8039 4.14583 47.9478 4.15341C48.0955 4.16098 48.2111 4.17045 48.2944 4.18182V5.80682C48.2262 5.78788 48.105 5.76705 47.9308 5.74432C47.7565 5.7178 47.5823 5.70455 47.408 5.70455C47.0065 5.70455 46.6486 5.78977 46.3342 5.96023C46.0236 6.12689 45.7774 6.35985 45.5955 6.65909C45.4137 6.95455 45.3228 7.29167 45.3228 7.67045V13H43.6239ZM50.5646 13V4.27273H52.2634V13H50.5646ZM51.4225 2.92614C51.1271 2.92614 50.8733 2.82765 50.6612 2.63068C50.4528 2.42992 50.3487 2.19129 50.3487 1.91477C50.3487 1.63447 50.4528 1.39583 50.6612 1.19886C50.8733 0.998106 51.1271 0.897727 51.4225 0.897727C51.718 0.897727 51.9699 0.998106 52.1782 1.19886C52.3903 1.39583 52.4964 1.63447 52.4964 1.91477C52.4964 2.19129 52.3903 2.42992 52.1782 2.63068C51.9699 2.82765 51.718 2.92614 51.4225 2.92614ZM59.008 16.4545C58.3149 16.4545 57.7183 16.3636 57.2183 16.1818C56.7221 16 56.3168 15.7595 56.0024 15.4602C55.688 15.161 55.4531 14.8333 55.2978 14.4773L56.758 13.875C56.8603 14.0417 56.9967 14.2178 57.1671 14.4034C57.3414 14.5928 57.5762 14.7538 57.8717 14.8864C58.1709 15.0189 58.5554 15.0852 59.0251 15.0852C59.669 15.0852 60.2012 14.928 60.6217 14.6136C61.0421 14.303 61.2524 13.8068 61.2524 13.125V11.4091H61.1444C61.0421 11.5947 60.8944 11.8011 60.7012 12.0284C60.5118 12.2557 60.2505 12.4527 59.9171 12.6193C59.5838 12.786 59.1501 12.8693 58.616 12.8693C57.9266 12.8693 57.3054 12.7083 56.7524 12.3864C56.2031 12.0606 55.7675 11.5814 55.4455 10.9489C55.1274 10.3125 54.9683 9.5303 54.9683 8.60227C54.9683 7.67424 55.1255 6.87879 55.4399 6.21591C55.758 5.55303 56.1937 5.04545 56.7467 4.69318C57.2997 4.33712 57.9266 4.15909 58.6274 4.15909C59.169 4.15909 59.6065 4.25 59.9399 4.43182C60.2732 4.60985 60.5327 4.81818 60.7183 5.05682C60.9077 5.29545 61.0535 5.50568 61.1558 5.6875H61.2808V4.27273H62.9455V13.1932C62.9455 13.9432 62.7713 14.5587 62.4228 15.0398C62.0743 15.5208 61.6027 15.8769 61.008 16.108C60.4171 16.339 59.7505 16.4545 59.008 16.4545ZM58.991 11.4602C59.4796 11.4602 59.8925 11.3466 60.2296 11.1193C60.5705 10.8883 60.8281 10.5587 61.0024 10.1307C61.1804 9.69886 61.2694 9.18182 61.2694 8.57955C61.2694 7.99242 61.1823 7.47538 61.008 7.02841C60.8338 6.58144 60.5781 6.23295 60.241 5.98295C59.9039 5.72917 59.4872 5.60227 58.991 5.60227C58.4796 5.60227 58.0535 5.73485 57.7126 6C57.3717 6.26136 57.1141 6.61742 56.9399 7.06818C56.7694 7.51894 56.6842 8.02273 56.6842 8.57955C56.6842 9.15152 56.7713 9.65341 56.9455 10.0852C57.1198 10.517 57.3774 10.8542 57.7183 11.0966C58.063 11.339 58.4872 11.4602 58.991 11.4602ZM67.7228 7.81818V13H66.024V1.36364H67.7001V5.69318H67.808C68.0126 5.22348 68.3251 4.85038 68.7455 4.57386C69.166 4.29735 69.7152 4.15909 70.3933 4.15909C70.9918 4.15909 71.5145 4.2822 71.9615 4.52841C72.4122 4.77462 72.7607 5.14205 73.0069 5.63068C73.2569 6.11553 73.3819 6.72159 73.3819 7.44886V13H71.683V7.65341C71.683 7.01326 71.5183 6.51705 71.1887 6.16477C70.8592 5.80871 70.4008 5.63068 69.8137 5.63068C69.4122 5.63068 69.0524 5.71591 68.7342 5.88636C68.4198 6.05682 68.1717 6.30682 67.9899 6.63636C67.8118 6.96212 67.7228 7.35606 67.7228 7.81818ZM80.5228 4.27273V5.63636H75.7558V4.27273H80.5228ZM77.0342 2.18182H78.7331V10.4375C78.7331 10.767 78.7823 11.0152 78.8808 11.1818C78.9793 11.3447 79.1062 11.4564 79.2615 11.517C79.4206 11.5739 79.5929 11.6023 79.7785 11.6023C79.9149 11.6023 80.0342 11.5928 80.1365 11.5739C80.2387 11.5549 80.3183 11.5398 80.3751 11.5284L80.6819 12.9318C80.5834 12.9697 80.4433 13.0076 80.2615 13.0455C80.0796 13.0871 79.8524 13.1098 79.5796 13.1136C79.1327 13.1212 78.716 13.0417 78.3296 12.875C77.9433 12.7083 77.6308 12.4508 77.3921 12.1023C77.1535 11.7538 77.0342 11.3163 77.0342 10.7898V2.18182ZM90.2078 16.1648C89.0335 16.1648 87.9918 16.0038 87.0828 15.6818C86.1775 15.3636 85.4142 14.8939 84.793 14.2727C84.1718 13.6553 83.7002 12.8977 83.3782 12C83.0562 11.1023 82.8953 10.0777 82.8953 8.92614C82.8953 7.80492 83.0581 6.79735 83.3839 5.90341C83.7096 5.00947 84.1831 4.24811 84.8043 3.61932C85.4293 2.98674 86.1888 2.50379 87.0828 2.17045C87.9767 1.83712 88.9918 1.67045 90.1282 1.67045C91.2153 1.67045 92.1737 1.84091 93.0032 2.18182C93.8328 2.52273 94.5297 2.99053 95.0941 3.58523C95.6623 4.17992 96.0903 4.86174 96.3782 5.63068C96.6661 6.39962 96.81 7.21212 96.81 8.06818C96.81 8.66667 96.7721 9.25189 96.6964 9.82386C96.6206 10.392 96.4805 10.9072 96.2759 11.3693C96.0752 11.8277 95.7835 12.1951 95.4009 12.4716C95.0222 12.7443 94.5297 12.8864 93.9237 12.8977C93.6017 12.9091 93.2892 12.8712 92.9862 12.7841C92.6831 12.697 92.4256 12.5568 92.2134 12.3636C92.0013 12.1667 91.8725 11.9167 91.8271 11.6136H91.7589C91.668 11.8371 91.5165 12.0455 91.3043 12.2386C91.0922 12.428 90.8214 12.5795 90.4918 12.6932C90.1661 12.803 89.7873 12.8485 89.3555 12.8295C88.8782 12.8106 88.4483 12.7027 88.0657 12.5057C87.6831 12.3087 87.3555 12.036 87.0828 11.6875C86.8138 11.339 86.6074 10.9261 86.4634 10.4489C86.3195 9.97159 86.2475 9.44129 86.2475 8.85795C86.2475 8.29735 86.329 7.79545 86.4918 7.35227C86.6547 6.9053 86.8763 6.52083 87.1566 6.19886C87.4407 5.87311 87.7665 5.61553 88.1339 5.42614C88.5013 5.23674 88.8896 5.11742 89.2987 5.06818C89.6964 5.02273 90.0619 5.03409 90.3953 5.10227C90.7286 5.17045 91.0051 5.27462 91.2248 5.41477C91.4483 5.55492 91.5884 5.70833 91.6453 5.875H91.7191V5.23864H93.1168V10.5114C93.1168 10.8106 93.1945 11.0644 93.3498 11.2727C93.5089 11.4811 93.7343 11.5852 94.0259 11.5852C94.3706 11.5852 94.6396 11.4583 94.8328 11.2045C95.0297 10.9508 95.168 10.5606 95.2475 10.0341C95.3309 9.50758 95.3725 8.83333 95.3725 8.01136C95.3725 7.43561 95.2949 6.89394 95.1396 6.38636C94.9881 5.875 94.7627 5.41288 94.4634 5C94.168 4.58333 93.8043 4.22538 93.3725 3.92614C92.9407 3.62689 92.4483 3.39583 91.8953 3.23295C91.346 3.07008 90.7381 2.98864 90.0714 2.98864C89.1661 2.98864 88.3612 3.12879 87.6566 3.40909C86.9521 3.68561 86.3574 4.08523 85.8725 4.60795C85.3915 5.13068 85.0259 5.75758 84.7759 6.48864C84.5297 7.21591 84.4066 8.0322 84.4066 8.9375C84.4066 9.88068 84.5335 10.7178 84.7873 11.4489C85.0411 12.1761 85.4161 12.7898 85.9123 13.2898C86.4085 13.7898 87.0221 14.1686 87.7532 14.4261C88.4843 14.6875 89.3271 14.8182 90.2816 14.8182C90.7059 14.8182 91.1225 14.7803 91.5316 14.7045C91.9407 14.6326 92.3043 14.5492 92.6225 14.4545C92.9445 14.3636 93.185 14.2898 93.3441 14.233L93.7418 15.4773C93.507 15.5871 93.1945 15.6951 92.8043 15.8011C92.418 15.9072 91.9975 15.9943 91.543 16.0625C91.0922 16.1307 90.6471 16.1648 90.2078 16.1648ZM89.685 11.4375C90.1775 11.4375 90.5733 11.339 90.8725 11.142C91.1756 10.9451 91.3934 10.6515 91.5259 10.2614C91.6623 9.86742 91.7305 9.375 91.7305 8.78409C91.7267 8.20833 91.6528 7.75 91.5089 7.40909C91.3687 7.06439 91.149 6.81818 90.8498 6.67045C90.5543 6.51894 90.1737 6.44318 89.7078 6.44318C89.2797 6.44318 88.9142 6.54735 88.6112 6.75568C88.3119 6.96401 88.0828 7.24621 87.9237 7.60227C87.7684 7.95833 87.6888 8.35417 87.685 8.78977C87.6888 9.24811 87.7532 9.67992 87.8782 10.0852C88.007 10.4867 88.2153 10.8125 88.5032 11.0625C88.7949 11.3125 89.1888 11.4375 89.685 11.4375ZM99.4637 13V11.7273L103.401 7.64773C103.822 7.20455 104.168 6.81629 104.441 6.48295C104.718 6.14583 104.924 5.82576 105.06 5.52273C105.197 5.2197 105.265 4.89773 105.265 4.55682C105.265 4.17045 105.174 3.83712 104.992 3.55682C104.81 3.27273 104.562 3.05492 104.248 2.90341C103.933 2.74811 103.579 2.67045 103.185 2.67045C102.769 2.67045 102.405 2.75568 102.094 2.92614C101.784 3.09659 101.545 3.33712 101.378 3.64773C101.212 3.95833 101.128 4.32197 101.128 4.73864H99.4524C99.4524 4.0303 99.6152 3.41098 99.941 2.88068C100.267 2.35038 100.714 1.93939 101.282 1.64773C101.85 1.35227 102.496 1.20455 103.219 1.20455C103.95 1.20455 104.594 1.35038 105.151 1.64205C105.712 1.92992 106.149 2.32386 106.464 2.82386C106.778 3.32008 106.935 3.88068 106.935 4.50568C106.935 4.9375 106.854 5.35985 106.691 5.77273C106.532 6.18561 106.253 6.64583 105.856 7.15341C105.458 7.6572 104.905 8.26894 104.197 8.98864L101.884 11.4091V11.4943H107.123V13H99.4637ZM114.127 13.1932C113.23 13.1894 112.463 12.9527 111.826 12.483C111.19 12.0133 110.703 11.3295 110.366 10.4318C110.029 9.53409 109.86 8.45265 109.86 7.1875C109.86 5.92614 110.029 4.84848 110.366 3.95455C110.707 3.06061 111.196 2.37879 111.832 1.90909C112.472 1.43939 113.237 1.20455 114.127 1.20455C115.018 1.20455 115.781 1.44129 116.417 1.91477C117.054 2.38447 117.54 3.06629 117.877 3.96023C118.218 4.85038 118.389 5.92614 118.389 7.1875C118.389 8.45644 118.22 9.53977 117.883 10.4375C117.546 11.3314 117.059 12.0152 116.423 12.4886C115.786 12.9583 115.021 13.1932 114.127 13.1932ZM114.127 11.6761C114.915 11.6761 115.531 11.2917 115.974 10.5227C116.421 9.75379 116.644 8.64205 116.644 7.1875C116.644 6.22159 116.542 5.4053 116.338 4.73864C116.137 4.06818 115.847 3.56061 115.468 3.21591C115.093 2.86742 114.646 2.69318 114.127 2.69318C113.343 2.69318 112.728 3.07954 112.281 3.85227C111.834 4.625 111.608 5.73674 111.605 7.1875C111.605 8.1572 111.705 8.97727 111.906 9.64773C112.11 10.3144 112.4 10.8201 112.775 11.1648C113.15 11.5057 113.601 11.6761 114.127 11.6761ZM121.204 13V11.7273L125.142 7.64773C125.562 7.20455 125.909 6.81629 126.182 6.48295C126.458 6.14583 126.665 5.82576 126.801 5.52273C126.937 5.2197 127.005 4.89773 127.005 4.55682C127.005 4.17045 126.915 3.83712 126.733 3.55682C126.551 3.27273 126.303 3.05492 125.988 2.90341C125.674 2.74811 125.32 2.67045 124.926 2.67045C124.509 2.67045 124.146 2.75568 123.835 2.92614C123.524 3.09659 123.286 3.33712 123.119 3.64773C122.952 3.95833 122.869 4.32197 122.869 4.73864H121.193C121.193 4.0303 121.356 3.41098 121.682 2.88068C122.007 2.35038 122.454 1.93939 123.023 1.64773C123.591 1.35227 124.237 1.20455 124.96 1.20455C125.691 1.20455 126.335 1.35038 126.892 1.64205C127.452 1.92992 127.89 2.32386 128.204 2.82386C128.519 3.32008 128.676 3.88068 128.676 4.50568C128.676 4.9375 128.594 5.35985 128.432 5.77273C128.273 6.18561 127.994 6.64583 127.596 7.15341C127.199 7.6572 126.646 8.26894 125.937 8.98864L123.625 11.4091V11.4943H128.863V13H121.204ZM135.868 13.1591C135.088 13.1591 134.391 13.0246 133.777 12.7557C133.167 12.4867 132.684 12.1136 132.328 11.6364C131.976 11.1553 131.787 10.5985 131.76 9.96591H133.544C133.567 10.3106 133.682 10.6098 133.891 10.8636C134.103 11.1136 134.379 11.3068 134.72 11.4432C135.061 11.5795 135.44 11.6477 135.857 11.6477C136.315 11.6477 136.72 11.5682 137.073 11.4091C137.429 11.25 137.707 11.0284 137.908 10.7443C138.109 10.4564 138.209 10.125 138.209 9.75C138.209 9.35985 138.109 9.01705 137.908 8.72159C137.711 8.42235 137.421 8.1875 137.038 8.01705C136.66 7.84659 136.201 7.76136 135.663 7.76136H134.68V6.32955H135.663C136.095 6.32955 136.474 6.25189 136.8 6.09659C137.129 5.94129 137.387 5.72538 137.573 5.44886C137.758 5.16856 137.851 4.84091 137.851 4.46591C137.851 4.10606 137.769 3.79356 137.607 3.52841C137.448 3.25947 137.22 3.04924 136.925 2.89773C136.633 2.74621 136.288 2.67045 135.891 2.67045C135.512 2.67045 135.158 2.74053 134.828 2.88068C134.502 3.01705 134.237 3.21402 134.033 3.47159C133.828 3.72538 133.718 4.0303 133.703 4.38636H132.004C132.023 3.75758 132.209 3.20455 132.561 2.72727C132.917 2.25 133.387 1.87689 133.97 1.60795C134.554 1.33901 135.201 1.20455 135.913 1.20455C136.66 1.20455 137.304 1.35038 137.845 1.64205C138.391 1.92992 138.811 2.31439 139.107 2.79545C139.406 3.27651 139.554 3.80303 139.55 4.375C139.554 5.02652 139.372 5.57955 139.004 6.03409C138.641 6.48864 138.156 6.79356 137.55 6.94886V7.03977C138.323 7.1572 138.921 7.46402 139.345 7.96023C139.773 8.45644 139.985 9.07197 139.982 9.80682C139.985 10.447 139.807 11.0208 139.448 11.5284C139.091 12.036 138.605 12.4356 137.987 12.7273C137.37 13.0152 136.663 13.1591 135.868 13.1591ZM144.819 11.4091L144.733 12.0284C144.677 12.483 144.58 12.9564 144.444 13.4489C144.311 13.9451 144.173 14.4053 144.029 14.8295C143.889 15.2538 143.773 15.5909 143.682 15.8409H142.478C142.527 15.6061 142.595 15.2879 142.682 14.8864C142.769 14.4886 142.855 14.0436 142.938 13.5511C143.021 13.0587 143.084 12.5568 143.125 12.0455L143.182 11.4091H144.819ZM159.404 6.40341L157.865 6.67614C157.8 6.47917 157.698 6.29167 157.558 6.11364C157.421 5.93561 157.236 5.78977 157.001 5.67614C156.766 5.5625 156.473 5.50568 156.12 5.50568C155.639 5.50568 155.238 5.61364 154.916 5.82955C154.594 6.04167 154.433 6.31629 154.433 6.65341C154.433 6.94508 154.541 7.17992 154.757 7.35795C154.973 7.53598 155.321 7.68182 155.802 7.79545L157.188 8.11364C157.991 8.29924 158.59 8.58523 158.984 8.97159C159.378 9.35795 159.575 9.85985 159.575 10.4773C159.575 11 159.423 11.4659 159.12 11.875C158.821 12.2803 158.402 12.5985 157.865 12.8295C157.33 13.0606 156.711 13.1761 156.007 13.1761C155.029 13.1761 154.232 12.9678 153.615 12.5511C152.997 12.1307 152.618 11.5341 152.478 10.7614L154.12 10.5114C154.223 10.9394 154.433 11.2633 154.751 11.483C155.069 11.6989 155.484 11.8068 155.995 11.8068C156.552 11.8068 156.997 11.6913 157.33 11.4602C157.664 11.2254 157.83 10.9394 157.83 10.6023C157.83 10.3295 157.728 10.1004 157.524 9.91477C157.323 9.72917 157.014 9.58902 156.598 9.49432L155.12 9.17045C154.306 8.98485 153.704 8.68939 153.313 8.28409C152.927 7.87879 152.734 7.36553 152.734 6.74432C152.734 6.22917 152.878 5.77841 153.166 5.39205C153.454 5.00568 153.851 4.70455 154.359 4.48864C154.866 4.26894 155.448 4.15909 156.103 4.15909C157.046 4.15909 157.789 4.36364 158.33 4.77273C158.872 5.17803 159.23 5.72159 159.404 6.40341ZM165.919 13.1761C165.074 13.1761 164.347 12.9848 163.737 12.6023C163.131 12.2159 162.665 11.6837 162.339 11.0057C162.014 10.3277 161.851 9.55114 161.851 8.67614C161.851 7.78977 162.017 7.00758 162.351 6.32955C162.684 5.64773 163.154 5.11553 163.76 4.73295C164.366 4.35038 165.08 4.15909 165.902 4.15909C166.565 4.15909 167.156 4.2822 167.675 4.52841C168.193 4.77083 168.612 5.11174 168.93 5.55114C169.252 5.99053 169.443 6.50379 169.504 7.09091H167.851C167.76 6.68182 167.551 6.32955 167.226 6.03409C166.904 5.73864 166.472 5.59091 165.93 5.59091C165.457 5.59091 165.042 5.71591 164.686 5.96591C164.334 6.21212 164.059 6.56439 163.862 7.02273C163.665 7.47727 163.567 8.01515 163.567 8.63636C163.567 9.27273 163.663 9.82197 163.856 10.2841C164.05 10.7462 164.322 11.1042 164.675 11.358C165.031 11.6117 165.449 11.7386 165.93 11.7386C166.252 11.7386 166.544 11.6799 166.805 11.5625C167.07 11.4413 167.292 11.2689 167.47 11.0455C167.652 10.822 167.779 10.553 167.851 10.2386H169.504C169.443 10.803 169.26 11.3068 168.953 11.75C168.646 12.1932 168.235 12.5417 167.72 12.7955C167.209 13.0492 166.608 13.1761 165.919 13.1761ZM172.121 13V4.27273H173.82V13H172.121ZM172.979 2.92614C172.683 2.92614 172.43 2.82765 172.217 2.63068C172.009 2.42992 171.905 2.19129 171.905 1.91477C171.905 1.63447 172.009 1.39583 172.217 1.19886C172.43 0.998106 172.683 0.897727 172.979 0.897727C173.274 0.897727 173.526 0.998106 173.734 1.19886C173.947 1.39583 174.053 1.63447 174.053 1.91477C174.053 2.19129 173.947 2.42992 173.734 2.63068C173.526 2.82765 173.274 2.92614 172.979 2.92614ZM176.905 13V4.27273H178.536V5.69318H178.644C178.826 5.21212 179.123 4.83712 179.536 4.56818C179.949 4.29545 180.443 4.15909 181.019 4.15909C181.602 4.15909 182.091 4.29545 182.485 4.56818C182.882 4.84091 183.176 5.21591 183.365 5.69318H183.456C183.665 5.22727 183.996 4.85606 184.451 4.57955C184.905 4.29924 185.447 4.15909 186.076 4.15909C186.867 4.15909 187.513 4.4072 188.013 4.90341C188.517 5.39962 188.769 6.14773 188.769 7.14773V13H187.07V7.30682C187.07 6.71591 186.909 6.28788 186.587 6.02273C186.265 5.75758 185.881 5.625 185.434 5.625C184.881 5.625 184.451 5.79545 184.144 6.13636C183.837 6.47348 183.684 6.9072 183.684 7.4375V13H181.99V7.19886C181.99 6.72538 181.843 6.3447 181.547 6.05682C181.252 5.76894 180.867 5.625 180.394 5.625C180.072 5.625 179.775 5.71023 179.502 5.88068C179.233 6.04735 179.015 6.2803 178.848 6.57955C178.686 6.87879 178.604 7.22538 178.604 7.61932V13H176.905ZM191.846 13V4.27273H193.545V13H191.846ZM192.704 2.92614C192.408 2.92614 192.155 2.82765 191.942 2.63068C191.734 2.42992 191.63 2.19129 191.63 1.91477C191.63 1.63447 191.734 1.39583 191.942 1.19886C192.155 0.998106 192.408 0.897727 192.704 0.897727C192.999 0.897727 193.251 0.998106 193.459 1.19886C193.672 1.39583 193.778 1.63447 193.778 1.91477C193.778 2.19129 193.672 2.42992 193.459 2.63068C193.251 2.82765 192.999 2.92614 192.704 2.92614ZM200.306 13.1761C199.462 13.1761 198.734 12.9848 198.125 12.6023C197.518 12.2159 197.053 11.6837 196.727 11.0057C196.401 10.3277 196.238 9.55114 196.238 8.67614C196.238 7.78977 196.405 7.00758 196.738 6.32955C197.071 5.64773 197.541 5.11553 198.147 4.73295C198.753 4.35038 199.467 4.15909 200.289 4.15909C200.952 4.15909 201.543 4.2822 202.062 4.52841C202.581 4.77083 203 5.11174 203.318 5.55114C203.64 5.99053 203.831 6.50379 203.892 7.09091H202.238C202.147 6.68182 201.939 6.32955 201.613 6.03409C201.291 5.73864 200.859 5.59091 200.318 5.59091C199.844 5.59091 199.429 5.71591 199.073 5.96591C198.721 6.21212 198.446 6.56439 198.25 7.02273C198.053 7.47727 197.954 8.01515 197.954 8.63636C197.954 9.27273 198.051 9.82197 198.244 10.2841C198.437 10.7462 198.71 11.1042 199.062 11.358C199.418 11.6117 199.837 11.7386 200.318 11.7386C200.64 11.7386 200.931 11.6799 201.193 11.5625C201.458 11.4413 201.679 11.2689 201.857 11.0455C202.039 10.822 202.166 10.553 202.238 10.2386H203.892C203.831 10.803 203.647 11.3068 203.34 11.75C203.034 12.1932 202.623 12.5417 202.107 12.7955C201.596 13.0492 200.996 13.1761 200.306 13.1761ZM213.048 6.40341L211.508 6.67614C211.444 6.47917 211.342 6.29167 211.201 6.11364C211.065 5.93561 210.88 5.78977 210.645 5.67614C210.41 5.5625 210.116 5.50568 209.764 5.50568C209.283 5.50568 208.881 5.61364 208.559 5.82955C208.237 6.04167 208.076 6.31629 208.076 6.65341C208.076 6.94508 208.184 7.17992 208.4 7.35795C208.616 7.53598 208.965 7.68182 209.446 7.79545L210.832 8.11364C211.635 8.29924 212.234 8.58523 212.628 8.97159C213.022 9.35795 213.219 9.85985 213.219 10.4773C213.219 11 213.067 11.4659 212.764 11.875C212.465 12.2803 212.046 12.5985 211.508 12.8295C210.974 13.0606 210.355 13.1761 209.65 13.1761C208.673 13.1761 207.876 12.9678 207.258 12.5511C206.641 12.1307 206.262 11.5341 206.122 10.7614L207.764 10.5114C207.866 10.9394 208.076 11.2633 208.395 11.483C208.713 11.6989 209.128 11.8068 209.639 11.8068C210.196 11.8068 210.641 11.6913 210.974 11.4602C211.308 11.2254 211.474 10.9394 211.474 10.6023C211.474 10.3295 211.372 10.1004 211.167 9.91477C210.967 9.72917 210.658 9.58902 210.241 9.49432L208.764 9.17045C207.95 8.98485 207.347 8.68939 206.957 8.28409C206.571 7.87879 206.378 7.36553 206.378 6.74432C206.378 6.22917 206.522 5.77841 206.809 5.39205C207.097 5.00568 207.495 4.70455 208.003 4.48864C208.51 4.26894 209.092 4.15909 209.747 4.15909C210.69 4.15909 211.433 4.36364 211.974 4.77273C212.516 5.17803 212.874 5.72159 213.048 6.40341Z" fill="white"/>
</svg>
