<svg width="97" height="17" viewBox="0 0 97 17" fill="none" xmlns="http://www.w3.org/2000/svg">
<path d="M0.264205 16V1.45455H10.0653V3.99006H3.33949V7.45597H9.56108V9.99148H3.33949V13.4645H10.0938V16H0.264205ZM16.4734 16.1776C15.6448 16.1776 14.8943 15.9645 14.2219 15.5384C13.5543 15.1075 13.024 14.4754 12.631 13.642C12.2428 12.804 12.0487 11.7765 12.0487 10.5597C12.0487 9.30966 12.2499 8.27036 12.6523 7.44176C13.0548 6.60843 13.5898 5.9858 14.2575 5.57386C14.9298 5.1572 15.6661 4.94886 16.4663 4.94886C17.0771 4.94886 17.5861 5.05303 17.9933 5.26136C18.4052 5.46496 18.7366 5.72064 18.9876 6.02841C19.2433 6.33144 19.4374 6.62973 19.57 6.9233H19.6623V1.45455H22.6808V16H19.6978V14.2528H19.57C19.4279 14.5559 19.2267 14.8565 18.9663 15.1548C18.7106 15.4484 18.3768 15.6922 17.9648 15.8864C17.5576 16.0805 17.0605 16.1776 16.4734 16.1776ZM17.4322 13.7699C17.9199 13.7699 18.3318 13.6373 18.668 13.3722C19.0089 13.1023 19.2693 12.7259 19.4492 12.2429C19.6339 11.7599 19.7262 11.1941 19.7262 10.5455C19.7262 9.89678 19.6362 9.33333 19.4563 8.85511C19.2764 8.37689 19.016 8.00758 18.6751 7.74716C18.3342 7.48674 17.9199 7.35653 17.4322 7.35653C16.935 7.35653 16.516 7.49148 16.1751 7.76136C15.8342 8.03125 15.5761 8.4053 15.4009 8.88352C15.2257 9.36174 15.1381 9.91572 15.1381 10.5455C15.1381 11.1799 15.2257 11.741 15.4009 12.2287C15.5808 12.7116 15.8389 13.0904 16.1751 13.3651C16.516 13.6349 16.935 13.7699 17.4322 13.7699ZM32.1641 11.3551V5.09091H35.1896V16H32.2848V14.0185H32.1712C31.925 14.6577 31.5154 15.1714 30.9425 15.5597C30.3743 15.9479 29.6806 16.142 28.8615 16.142C28.1323 16.142 27.4908 15.9763 26.9368 15.6449C26.3828 15.3134 25.9496 14.8423 25.6371 14.2315C25.3293 13.6207 25.1731 12.8892 25.1683 12.0369V5.09091H28.1939V11.4972C28.1986 12.1411 28.3714 12.6501 28.7124 13.0241C29.0533 13.3982 29.5102 13.5852 30.0831 13.5852C30.4477 13.5852 30.7886 13.5024 31.1058 13.3366C31.4231 13.1662 31.6787 12.9152 31.8729 12.5838C32.0717 12.2524 32.1688 11.8428 32.1641 11.3551ZM42.5387 16.2131C41.4213 16.2131 40.4601 15.9763 39.6552 15.5028C38.855 15.0246 38.2395 14.3617 37.8086 13.5142C37.3825 12.6667 37.1694 11.6913 37.1694 10.5881C37.1694 9.47064 37.3848 8.49053 37.8157 7.64773C38.2513 6.80019 38.8692 6.13968 39.6694 5.66619C40.4696 5.18797 41.4213 4.94886 42.5245 4.94886C43.4762 4.94886 44.3095 5.12169 45.0245 5.46733C45.7395 5.81297 46.3053 6.2983 46.7219 6.9233C47.1386 7.5483 47.3683 8.2822 47.4109 9.125H44.5558C44.4753 8.58049 44.2622 8.14252 43.9165 7.81108C43.5756 7.47491 43.1282 7.30682 42.5742 7.30682C42.1055 7.30682 41.6959 7.43466 41.3455 7.69034C40.9999 7.94129 40.73 8.30824 40.5359 8.79119C40.3417 9.27415 40.2447 9.8589 40.2447 10.5455C40.2447 11.2415 40.3394 11.8333 40.5288 12.321C40.7229 12.8087 40.9951 13.1804 41.3455 13.4361C41.6959 13.6918 42.1055 13.8196 42.5742 13.8196C42.9199 13.8196 43.23 13.7486 43.5046 13.6065C43.784 13.4645 44.0136 13.2585 44.1935 12.9886C44.3782 12.714 44.4989 12.3849 44.5558 12.0014H47.4109C47.3635 12.8348 47.1362 13.5687 46.729 14.2031C46.3266 14.8329 45.7702 15.3253 45.06 15.6804C44.3498 16.0355 43.5094 16.2131 42.5387 16.2131ZM52.4588 16.206C51.7628 16.206 51.1425 16.0852 50.598 15.8438C50.0535 15.5975 49.6226 15.2353 49.3054 14.7571C48.9929 14.2741 48.8366 13.6728 48.8366 12.9531C48.8366 12.3471 48.9479 11.8381 49.1705 11.4261C49.393 11.0142 49.696 10.6828 50.0795 10.4318C50.4631 10.1809 50.8987 9.99148 51.3864 9.86364C51.8788 9.7358 52.3949 9.64583 52.9347 9.59375C53.5691 9.52746 54.0805 9.46591 54.4688 9.40909C54.857 9.34754 55.1387 9.25758 55.3139 9.1392C55.4891 9.02083 55.5767 8.84564 55.5767 8.61364V8.57102C55.5767 8.12121 55.4347 7.7732 55.1506 7.52699C54.8712 7.28078 54.4735 7.15767 53.9574 7.15767C53.4129 7.15767 52.9796 7.27841 52.6577 7.51989C52.3357 7.75663 52.1226 8.05492 52.0185 8.41477L49.2202 8.1875C49.3622 7.52462 49.6416 6.9517 50.0582 6.46875C50.4749 5.98106 51.0123 5.60701 51.6705 5.34659C52.3333 5.08144 53.1004 4.94886 53.9716 4.94886C54.5777 4.94886 55.1577 5.01989 55.7116 5.16193C56.2704 5.30398 56.7652 5.52415 57.196 5.82244C57.6316 6.12074 57.9749 6.50426 58.2259 6.97301C58.4768 7.43703 58.6023 7.99337 58.6023 8.64205V16H55.733V14.4872H55.6477C55.4725 14.8281 55.2382 15.1288 54.9446 15.3892C54.651 15.6449 54.2983 15.8461 53.8864 15.9929C53.4744 16.1349 52.9986 16.206 52.4588 16.206ZM53.3253 14.1179C53.7704 14.1179 54.1634 14.0303 54.5043 13.8551C54.8452 13.6752 55.1127 13.4337 55.3068 13.1307C55.5009 12.8277 55.598 12.4844 55.598 12.1009V10.9432C55.5033 11.0047 55.3731 11.0616 55.2074 11.1136C55.0464 11.161 54.8641 11.206 54.6605 11.2486C54.4569 11.2865 54.2533 11.322 54.0497 11.3551C53.8461 11.3835 53.6615 11.4096 53.4957 11.4332C53.1406 11.4853 52.8305 11.5682 52.5653 11.6818C52.3002 11.7955 52.0942 11.9493 51.9474 12.1435C51.8007 12.3329 51.7273 12.5696 51.7273 12.8537C51.7273 13.2656 51.8764 13.5805 52.1747 13.7983C52.4777 14.0114 52.8613 14.1179 53.3253 14.1179ZM66.7521 5.09091V7.36364H60.1825V5.09091H66.7521ZM61.674 2.47727H64.6996V12.6477C64.6996 12.9271 64.7422 13.1449 64.8274 13.3011C64.9126 13.4527 65.031 13.5592 65.1825 13.6207C65.3388 13.6823 65.5187 13.7131 65.7223 13.7131C65.8643 13.7131 66.0064 13.7012 66.1484 13.6776C66.2905 13.6491 66.3994 13.6278 66.4751 13.6136L66.951 15.8651C66.7995 15.9124 66.5864 15.9669 66.3118 16.0284C66.0372 16.0947 65.7034 16.1349 65.3104 16.1491C64.5812 16.1776 63.942 16.0805 63.3928 15.858C62.8482 15.6354 62.4245 15.2898 62.1214 14.821C61.8184 14.3523 61.6693 13.7604 61.674 13.0455V2.47727ZM68.723 16V5.09091H71.7486V16H68.723ZM70.2429 3.68466C69.7931 3.68466 69.4072 3.53551 69.0852 3.23722C68.768 2.93419 68.6094 2.57197 68.6094 2.15057C68.6094 1.7339 68.768 1.37642 69.0852 1.07812C69.4072 0.775094 69.7931 0.623579 70.2429 0.623579C70.6927 0.623579 71.0762 0.775094 71.3935 1.07812C71.7154 1.37642 71.8764 1.7339 71.8764 2.15057C71.8764 2.57197 71.7154 2.93419 71.3935 3.23722C71.0762 3.53551 70.6927 3.68466 70.2429 3.68466ZM79.1012 16.2131C77.998 16.2131 77.0439 15.9787 76.239 15.5099C75.4388 15.0365 74.8209 14.3783 74.3853 13.5355C73.9497 12.688 73.7319 11.7055 73.7319 10.5881C73.7319 9.46117 73.9497 8.47633 74.3853 7.63352C74.8209 6.78598 75.4388 6.12784 76.239 5.65909C77.0439 5.18561 77.998 4.94886 79.1012 4.94886C80.2044 4.94886 81.1561 5.18561 81.9563 5.65909C82.7612 6.12784 83.3815 6.78598 83.8171 7.63352C84.2527 8.47633 84.4705 9.46117 84.4705 10.5881C84.4705 11.7055 84.2527 12.688 83.8171 13.5355C83.3815 14.3783 82.7612 15.0365 81.9563 15.5099C81.1561 15.9787 80.2044 16.2131 79.1012 16.2131ZM79.1154 13.8693C79.6173 13.8693 80.0363 13.7273 80.3725 13.4432C80.7087 13.1544 80.962 12.7614 81.1325 12.2642C81.3076 11.767 81.3952 11.2012 81.3952 10.5668C81.3952 9.93229 81.3076 9.36648 81.1325 8.86932C80.962 8.37216 80.7087 7.97917 80.3725 7.69034C80.0363 7.40151 79.6173 7.2571 79.1154 7.2571C78.6088 7.2571 78.1826 7.40151 77.837 7.69034C77.4961 7.97917 77.238 8.37216 77.0629 8.86932C76.8924 9.36648 76.8072 9.93229 76.8072 10.5668C76.8072 11.2012 76.8924 11.767 77.0629 12.2642C77.238 12.7614 77.4961 13.1544 77.837 13.4432C78.1826 13.7273 78.6088 13.8693 79.1154 13.8693ZM89.4634 9.69318V16H86.4379V5.09091H89.3214V7.01562H89.4492C89.6907 6.38116 90.0955 5.87926 90.6637 5.50994C91.2319 5.13589 91.9208 4.94886 92.7305 4.94886C93.488 4.94886 94.1486 5.11458 94.712 5.44602C95.2755 5.77746 95.7134 6.25095 96.0259 6.86648C96.3384 7.47727 96.4947 8.20644 96.4947 9.05398V16H93.4691V9.59375C93.4738 8.92614 93.3034 8.4053 92.9577 8.03125C92.6121 7.65246 92.1362 7.46307 91.5302 7.46307C91.123 7.46307 90.7631 7.55066 90.4506 7.72585C90.1429 7.90104 89.9014 8.15672 89.7262 8.4929C89.5558 8.82434 89.4682 9.22443 89.4634 9.69318Z" fill="#AFAFAF"/>
</svg>
