<svg width="484" height="47" viewBox="0 0 484 47" fill="none" xmlns="http://www.w3.org/2000/svg">
<path d="M0.920591 13V1.36364H8.21605V2.875H2.67627V6.42045H7.83536V7.92614H2.67627V11.4886H8.28423V13H0.920591ZM12.0858 4.27273L14.0119 7.67045L15.9551 4.27273H17.813L15.0914 8.63636L17.8358 13H15.9778L14.0119 9.73864L12.0517 13H10.188L12.9039 8.63636L10.2221 4.27273H12.0858ZM19.8774 16.2727V4.27273H21.5364V5.6875H21.6785C21.777 5.50568 21.919 5.29545 22.1046 5.05682C22.2902 4.81818 22.5478 4.60985 22.8774 4.43182C23.2069 4.25 23.6425 4.15909 24.1842 4.15909C24.8887 4.15909 25.5175 4.33712 26.0705 4.69318C26.6236 5.04924 27.0573 5.5625 27.3717 6.23295C27.6899 6.90341 27.8489 7.71023 27.8489 8.65341C27.8489 9.59659 27.6917 10.4053 27.3774 11.0795C27.063 11.75 26.6311 12.267 26.0819 12.6307C25.5327 12.9905 24.9058 13.1705 24.2012 13.1705C23.6709 13.1705 23.2372 13.0814 22.9001 12.9034C22.5667 12.7254 22.3054 12.517 22.116 12.2784C21.9266 12.0398 21.7808 11.8277 21.6785 11.642H21.5762V16.2727H19.8774ZM21.5421 8.63636C21.5421 9.25 21.6311 9.78788 21.8092 10.25C21.9872 10.7121 22.2448 11.0739 22.5819 11.3352C22.919 11.5928 23.3319 11.7216 23.8205 11.7216C24.3281 11.7216 24.7524 11.5871 25.0933 11.3182C25.4342 11.0455 25.6917 10.6761 25.866 10.2102C26.044 9.74432 26.133 9.2197 26.133 8.63636C26.133 8.06061 26.0459 7.54356 25.8717 7.08523C25.7012 6.62689 25.4436 6.26515 25.0989 6C24.758 5.73485 24.3319 5.60227 23.8205 5.60227C23.3281 5.60227 22.9114 5.72917 22.5705 5.98295C22.2334 6.23674 21.9777 6.59091 21.8035 7.04545C21.6292 7.5 21.5421 8.0303 21.5421 8.63636ZM33.8337 13.1761C32.9739 13.1761 32.2333 12.9924 31.6121 12.625C30.9947 12.2538 30.5174 11.733 30.1803 11.0625C29.847 10.3883 29.6803 9.59848 29.6803 8.69318C29.6803 7.79924 29.847 7.01136 30.1803 6.32955C30.5174 5.64773 30.9871 5.11553 31.5894 4.73295C32.1955 4.35038 32.9038 4.15909 33.7144 4.15909C34.2068 4.15909 34.6841 4.24053 35.1462 4.40341C35.6083 4.56629 36.0231 4.82197 36.3905 5.17045C36.758 5.51894 37.0477 5.97159 37.2599 6.52841C37.472 7.08144 37.578 7.75379 37.578 8.54545V9.14773H30.6405V7.875H35.9133C35.9133 7.42803 35.8224 7.0322 35.6405 6.6875C35.4587 6.33902 35.203 6.06439 34.8735 5.86364C34.5477 5.66288 34.1652 5.5625 33.7258 5.5625C33.2485 5.5625 32.8318 5.67992 32.4758 5.91477C32.1235 6.14583 31.8508 6.44886 31.6576 6.82386C31.4682 7.19508 31.3735 7.59848 31.3735 8.03409V9.02841C31.3735 9.61174 31.4758 10.108 31.6803 10.517C31.8886 10.9261 32.1784 11.2386 32.5496 11.4545C32.9208 11.6667 33.3545 11.7727 33.8508 11.7727C34.1727 11.7727 34.4663 11.7273 34.7314 11.6364C34.9966 11.5417 35.2258 11.4015 35.4189 11.2159C35.6121 11.0303 35.7599 10.8011 35.8621 10.5284L37.4701 10.8182C37.3413 11.2917 37.1102 11.7064 36.7769 12.0625C36.4474 12.4148 36.0326 12.6894 35.5326 12.8864C35.0364 13.0795 34.4701 13.1761 33.8337 13.1761ZM39.783 13V4.27273H41.425V5.65909H41.5159C41.675 5.18939 41.9553 4.82008 42.3568 4.55114C42.7621 4.27841 43.2205 4.14205 43.7318 4.14205C43.8379 4.14205 43.9629 4.14583 44.1068 4.15341C44.2546 4.16098 44.3701 4.17045 44.4534 4.18182V5.80682C44.3852 5.78788 44.264 5.76705 44.0898 5.74432C43.9156 5.7178 43.7413 5.70455 43.5671 5.70455C43.1656 5.70455 42.8076 5.78977 42.4932 5.96023C42.1826 6.12689 41.9364 6.35985 41.7546 6.65909C41.5727 6.95455 41.4818 7.29167 41.4818 7.67045V13H39.783ZM46.2436 13V4.27273H47.9425V13H46.2436ZM47.1016 2.92614C46.8061 2.92614 46.5523 2.82765 46.3402 2.63068C46.1319 2.42992 46.0277 2.19129 46.0277 1.91477C46.0277 1.63447 46.1319 1.39583 46.3402 1.19886C46.5523 0.998106 46.8061 0.897727 47.1016 0.897727C47.397 0.897727 47.6489 0.998106 47.8572 1.19886C48.0694 1.39583 48.1754 1.63447 48.1754 1.91477C48.1754 2.19129 48.0694 2.42992 47.8572 2.63068C47.6489 2.82765 47.397 2.92614 47.1016 2.92614ZM54.3093 13.1761C53.4495 13.1761 52.709 12.9924 52.0877 12.625C51.4703 12.2538 50.9931 11.733 50.6559 11.0625C50.3226 10.3883 50.1559 9.59848 50.1559 8.69318C50.1559 7.79924 50.3226 7.01136 50.6559 6.32955C50.9931 5.64773 51.4627 5.11553 52.065 4.73295C52.6711 4.35038 53.3794 4.15909 54.19 4.15909C54.6824 4.15909 55.1597 4.24053 55.6218 4.40341C56.084 4.56629 56.4987 4.82197 56.8662 5.17045C57.2336 5.51894 57.5234 5.97159 57.7355 6.52841C57.9476 7.08144 58.0537 7.75379 58.0537 8.54545V9.14773H51.1162V7.875H56.3889C56.3889 7.42803 56.298 7.0322 56.1162 6.6875C55.9343 6.33902 55.6787 6.06439 55.3491 5.86364C55.0234 5.66288 54.6408 5.5625 54.2014 5.5625C53.7241 5.5625 53.3074 5.67992 52.9514 5.91477C52.5991 6.14583 52.3264 6.44886 52.1332 6.82386C51.9438 7.19508 51.8491 7.59848 51.8491 8.03409V9.02841C51.8491 9.61174 51.9514 10.108 52.1559 10.517C52.3643 10.9261 52.654 11.2386 53.0252 11.4545C53.3965 11.6667 53.8302 11.7727 54.3264 11.7727C54.6484 11.7727 54.9419 11.7273 55.2071 11.6364C55.4722 11.5417 55.7014 11.4015 55.8946 11.2159C56.0877 11.0303 56.2355 10.8011 56.3377 10.5284L57.9457 10.8182C57.8169 11.2917 57.5859 11.7064 57.2525 12.0625C56.923 12.4148 56.5082 12.6894 56.0082 12.8864C55.512 13.0795 54.9457 13.1761 54.3093 13.1761ZM61.9575 7.81818V13H60.2586V4.27273H61.8893V5.69318H61.9972C62.198 5.23106 62.5124 4.85985 62.9404 4.57955C63.3722 4.29924 63.9158 4.15909 64.5711 4.15909C65.1658 4.15909 65.6866 4.28409 66.1336 4.53409C66.5806 4.7803 66.9272 5.14773 67.1734 5.63636C67.4196 6.125 67.5427 6.72917 67.5427 7.44886V13H65.8438V7.65341C65.8438 7.02083 65.6791 6.52652 65.3495 6.17045C65.02 5.81061 64.5673 5.63068 63.9916 5.63068C63.5976 5.63068 63.2472 5.71591 62.9404 5.88636C62.6374 6.05682 62.3969 6.30682 62.2188 6.63636C62.0446 6.96212 61.9575 7.35606 61.9575 7.81818ZM73.8172 13.1761C72.9725 13.1761 72.2453 12.9848 71.6354 12.6023C71.0294 12.2159 70.5634 11.6837 70.2377 11.0057C69.9119 10.3277 69.7491 9.55114 69.7491 8.67614C69.7491 7.78977 69.9157 7.00758 70.2491 6.32955C70.5824 5.64773 71.0521 5.11553 71.6581 4.73295C72.2642 4.35038 72.9782 4.15909 73.8002 4.15909C74.4631 4.15909 75.054 4.2822 75.5729 4.52841C76.0919 4.77083 76.5104 5.11174 76.8286 5.55114C77.1506 5.99053 77.3419 6.50379 77.4025 7.09091H75.7491C75.6581 6.68182 75.4498 6.32955 75.1241 6.03409C74.8021 5.73864 74.3703 5.59091 73.8286 5.59091C73.3551 5.59091 72.9403 5.71591 72.5843 5.96591C72.232 6.21212 71.9574 6.56439 71.7604 7.02273C71.5634 7.47727 71.465 8.01515 71.465 8.63636C71.465 9.27273 71.5616 9.82197 71.7547 10.2841C71.9479 10.7462 72.2206 11.1042 72.5729 11.358C72.929 11.6117 73.3475 11.7386 73.8286 11.7386C74.1506 11.7386 74.4422 11.6799 74.7036 11.5625C74.9688 11.4413 75.1903 11.2689 75.3684 11.0455C75.5502 10.822 75.6771 10.553 75.7491 10.2386H77.4025C77.3419 10.803 77.1581 11.3068 76.8513 11.75C76.5445 12.1932 76.1335 12.5417 75.6184 12.7955C75.107 13.0492 74.5066 13.1761 73.8172 13.1761ZM83.3006 13.1761C82.4407 13.1761 81.7002 12.9924 81.079 12.625C80.4616 12.2538 79.9843 11.733 79.6472 11.0625C79.3138 10.3883 79.1472 9.59848 79.1472 8.69318C79.1472 7.79924 79.3138 7.01136 79.6472 6.32955C79.9843 5.64773 80.454 5.11553 81.0563 4.73295C81.6623 4.35038 82.3707 4.15909 83.1813 4.15909C83.6737 4.15909 84.151 4.24053 84.6131 4.40341C85.0752 4.56629 85.49 4.82197 85.8574 5.17045C86.2248 5.51894 86.5146 5.97159 86.7267 6.52841C86.9388 7.08144 87.0449 7.75379 87.0449 8.54545V9.14773H80.1074V7.875H85.3801C85.3801 7.42803 85.2892 7.0322 85.1074 6.6875C84.9256 6.33902 84.6699 6.06439 84.3404 5.86364C84.0146 5.66288 83.632 5.5625 83.1926 5.5625C82.7154 5.5625 82.2987 5.67992 81.9426 5.91477C81.5904 6.14583 81.3176 6.44886 81.1245 6.82386C80.9351 7.19508 80.8404 7.59848 80.8404 8.03409V9.02841C80.8404 9.61174 80.9426 10.108 81.1472 10.517C81.3555 10.9261 81.6453 11.2386 82.0165 11.4545C82.3877 11.6667 82.8214 11.7727 83.3176 11.7727C83.6396 11.7727 83.9332 11.7273 84.1983 11.6364C84.4635 11.5417 84.6926 11.4015 84.8858 11.2159C85.079 11.0303 85.2267 10.8011 85.329 10.5284L86.937 10.8182C86.8082 11.2917 86.5771 11.7064 86.2438 12.0625C85.9142 12.4148 85.4995 12.6894 84.9995 12.8864C84.5032 13.0795 83.937 13.1761 83.3006 13.1761ZM97.8781 4.27273V5.63636H93.111V4.27273H97.8781ZM94.3895 2.18182H96.0883V10.4375C96.0883 10.767 96.1376 11.0152 96.236 11.1818C96.3345 11.3447 96.4614 11.4564 96.6167 11.517C96.7758 11.5739 96.9482 11.6023 97.1338 11.6023C97.2701 11.6023 97.3895 11.5928 97.4917 11.5739C97.594 11.5549 97.6735 11.5398 97.7304 11.5284L98.0372 12.9318C97.9387 12.9697 97.7985 13.0076 97.6167 13.0455C97.4349 13.0871 97.2076 13.1098 96.9349 13.1136C96.4879 13.1212 96.0713 13.0417 95.6849 12.875C95.2985 12.7083 94.986 12.4508 94.7474 12.1023C94.5088 11.7538 94.3895 11.3163 94.3895 10.7898V2.18182ZM101.964 7.81818V13H100.265V1.36364H101.941V5.69318H102.049C102.253 5.22348 102.566 4.85038 102.986 4.57386C103.407 4.29735 103.956 4.15909 104.634 4.15909C105.233 4.15909 105.755 4.2822 106.202 4.52841C106.653 4.77462 107.002 5.14205 107.248 5.63068C107.498 6.11553 107.623 6.72159 107.623 7.44886V13H105.924V7.65341C105.924 7.01326 105.759 6.51705 105.43 6.16477C105.1 5.80871 104.642 5.63068 104.055 5.63068C103.653 5.63068 103.293 5.71591 102.975 5.88636C102.661 6.05682 102.413 6.30682 102.231 6.63636C102.053 6.96212 101.964 7.35606 101.964 7.81818ZM113.971 13.1761C113.111 13.1761 112.371 12.9924 111.75 12.625C111.132 12.2538 110.655 11.733 110.318 11.0625C109.984 10.3883 109.818 9.59848 109.818 8.69318C109.818 7.79924 109.984 7.01136 110.318 6.32955C110.655 5.64773 111.125 5.11553 111.727 4.73295C112.333 4.35038 113.041 4.15909 113.852 4.15909C114.344 4.15909 114.822 4.24053 115.284 4.40341C115.746 4.56629 116.161 4.82197 116.528 5.17045C116.895 5.51894 117.185 5.97159 117.397 6.52841C117.609 7.08144 117.716 7.75379 117.716 8.54545V9.14773H110.778V7.875H116.051C116.051 7.42803 115.96 7.0322 115.778 6.6875C115.596 6.33902 115.341 6.06439 115.011 5.86364C114.685 5.66288 114.303 5.5625 113.863 5.5625C113.386 5.5625 112.969 5.67992 112.613 5.91477C112.261 6.14583 111.988 6.44886 111.795 6.82386C111.606 7.19508 111.511 7.59848 111.511 8.03409V9.02841C111.511 9.61174 111.613 10.108 111.818 10.517C112.026 10.9261 112.316 11.2386 112.687 11.4545C113.058 11.6667 113.492 11.7727 113.988 11.7727C114.31 11.7727 114.604 11.7273 114.869 11.6364C115.134 11.5417 115.363 11.4015 115.556 11.2159C115.75 11.0303 115.897 10.8011 116 10.5284L117.608 10.8182C117.479 11.2917 117.248 11.7064 116.914 12.0625C116.585 12.4148 116.17 12.6894 115.67 12.8864C115.174 13.0795 114.608 13.1761 113.971 13.1761ZM124.475 13V4.27273H126.106V5.69318H126.213C126.395 5.21212 126.693 4.83712 127.106 4.56818C127.518 4.29545 128.013 4.15909 128.588 4.15909C129.172 4.15909 129.66 4.29545 130.054 4.56818C130.452 4.84091 130.746 5.21591 130.935 5.69318H131.026C131.234 5.22727 131.566 4.85606 132.02 4.57955C132.475 4.29924 133.017 4.15909 133.645 4.15909C134.437 4.15909 135.083 4.4072 135.583 4.90341C136.087 5.39962 136.338 6.14773 136.338 7.14773V13H134.64V7.30682C134.64 6.71591 134.479 6.28788 134.157 6.02273C133.835 5.75758 133.45 5.625 133.003 5.625C132.45 5.625 132.02 5.79545 131.713 6.13636C131.407 6.47348 131.253 6.9072 131.253 7.4375V13H129.56V7.19886C129.56 6.72538 129.412 6.3447 129.117 6.05682C128.821 5.76894 128.437 5.625 127.963 5.625C127.642 5.625 127.344 5.71023 127.071 5.88068C126.803 6.04735 126.585 6.2803 126.418 6.57955C126.255 6.87879 126.174 7.22538 126.174 7.61932V13H124.475ZM142.612 13.1761C141.793 13.1761 141.079 12.9886 140.47 12.6136C139.86 12.2386 139.386 11.714 139.049 11.0398C138.712 10.3655 138.543 9.57765 138.543 8.67614C138.543 7.77083 138.712 6.97917 139.049 6.30114C139.386 5.62311 139.86 5.09659 140.47 4.72159C141.079 4.34659 141.793 4.15909 142.612 4.15909C143.43 4.15909 144.144 4.34659 144.754 4.72159C145.364 5.09659 145.837 5.62311 146.174 6.30114C146.511 6.97917 146.68 7.77083 146.68 8.67614C146.68 9.57765 146.511 10.3655 146.174 11.0398C145.837 11.714 145.364 12.2386 144.754 12.6136C144.144 12.9886 143.43 13.1761 142.612 13.1761ZM142.617 11.75C143.148 11.75 143.587 11.6098 143.935 11.3295C144.284 11.0492 144.542 10.6761 144.708 10.2102C144.879 9.74432 144.964 9.23106 144.964 8.67045C144.964 8.11364 144.879 7.60227 144.708 7.13636C144.542 6.66667 144.284 6.28977 143.935 6.00568C143.587 5.72159 143.148 5.57955 142.617 5.57955C142.083 5.57955 141.64 5.72159 141.288 6.00568C140.939 6.28977 140.68 6.66667 140.509 7.13636C140.343 7.60227 140.259 8.11364 140.259 8.67045C140.259 9.23106 140.343 9.74432 140.509 10.2102C140.68 10.6761 140.939 11.0492 141.288 11.3295C141.64 11.6098 142.083 11.75 142.617 11.75ZM155.436 6.40341L153.896 6.67614C153.832 6.47917 153.729 6.29167 153.589 6.11364C153.453 5.93561 153.267 5.78977 153.032 5.67614C152.798 5.5625 152.504 5.50568 152.152 5.50568C151.671 5.50568 151.269 5.61364 150.947 5.82955C150.625 6.04167 150.464 6.31629 150.464 6.65341C150.464 6.94508 150.572 7.17992 150.788 7.35795C151.004 7.53598 151.353 7.68182 151.834 7.79545L153.22 8.11364C154.023 8.29924 154.621 8.58523 155.015 8.97159C155.409 9.35795 155.606 9.85985 155.606 10.4773C155.606 11 155.455 11.4659 155.152 11.875C154.853 12.2803 154.434 12.5985 153.896 12.8295C153.362 13.0606 152.743 13.1761 152.038 13.1761C151.061 13.1761 150.264 12.9678 149.646 12.5511C149.029 12.1307 148.65 11.5341 148.51 10.7614L150.152 10.5114C150.254 10.9394 150.464 11.2633 150.782 11.483C151.101 11.6989 151.515 11.8068 152.027 11.8068C152.584 11.8068 153.029 11.6913 153.362 11.4602C153.695 11.2254 153.862 10.9394 153.862 10.6023C153.862 10.3295 153.76 10.1004 153.555 9.91477C153.354 9.72917 153.046 9.58902 152.629 9.49432L151.152 9.17045C150.337 8.98485 149.735 8.68939 149.345 8.28409C148.959 7.87879 148.765 7.36553 148.765 6.74432C148.765 6.22917 148.909 5.77841 149.197 5.39205C149.485 5.00568 149.883 4.70455 150.39 4.48864C150.898 4.26894 151.479 4.15909 152.135 4.15909C153.078 4.15909 153.82 4.36364 154.362 4.77273C154.904 5.17803 155.262 5.72159 155.436 6.40341ZM161.868 4.27273V5.63636H157.101V4.27273H161.868ZM158.379 2.18182H160.078V10.4375C160.078 10.767 160.128 11.0152 160.226 11.1818C160.325 11.3447 160.451 11.4564 160.607 11.517C160.766 11.5739 160.938 11.6023 161.124 11.6023C161.26 11.6023 161.379 11.5928 161.482 11.5739C161.584 11.5549 161.664 11.5398 161.72 11.5284L162.027 12.9318C161.929 12.9697 161.789 13.0076 161.607 13.0455C161.425 13.0871 161.198 13.1098 160.925 13.1136C160.478 13.1212 160.061 13.0417 159.675 12.875C159.289 12.7083 158.976 12.4508 158.737 12.1023C158.499 11.7538 158.379 11.3163 158.379 10.7898V2.18182ZM172.383 13.1761C171.523 13.1761 170.783 12.9924 170.161 12.625C169.544 12.2538 169.067 11.733 168.73 11.0625C168.396 10.3883 168.23 9.59848 168.23 8.69318C168.23 7.79924 168.396 7.01136 168.73 6.32955C169.067 5.64773 169.536 5.11553 170.139 4.73295C170.745 4.35038 171.453 4.15909 172.264 4.15909C172.756 4.15909 173.233 4.24053 173.696 4.40341C174.158 4.56629 174.572 4.82197 174.94 5.17045C175.307 5.51894 175.597 5.97159 175.809 6.52841C176.021 7.08144 176.127 7.75379 176.127 8.54545V9.14773H169.19V7.875H174.463C174.463 7.42803 174.372 7.0322 174.19 6.6875C174.008 6.33902 173.752 6.06439 173.423 5.86364C173.097 5.66288 172.715 5.5625 172.275 5.5625C171.798 5.5625 171.381 5.67992 171.025 5.91477C170.673 6.14583 170.4 6.44886 170.207 6.82386C170.018 7.19508 169.923 7.59848 169.923 8.03409V9.02841C169.923 9.61174 170.025 10.108 170.23 10.517C170.438 10.9261 170.728 11.2386 171.099 11.4545C171.47 11.6667 171.904 11.7727 172.4 11.7727C172.722 11.7727 173.016 11.7273 173.281 11.6364C173.546 11.5417 173.775 11.4015 173.968 11.2159C174.161 11.0303 174.309 10.8011 174.411 10.5284L176.019 10.8182C175.891 11.2917 175.66 11.7064 175.326 12.0625C174.997 12.4148 174.582 12.6894 174.082 12.8864C173.586 13.0795 173.019 13.1761 172.383 13.1761ZM180.031 7.81818V13H178.332V4.27273H179.963V5.69318H180.071C180.272 5.23106 180.586 4.85985 181.014 4.57955C181.446 4.29924 181.99 4.15909 182.645 4.15909C183.24 4.15909 183.76 4.28409 184.207 4.53409C184.654 4.7803 185.001 5.14773 185.247 5.63636C185.493 6.125 185.616 6.72917 185.616 7.44886V13H183.918V7.65341C183.918 7.02083 183.753 6.52652 183.423 6.17045C183.094 5.81061 182.641 5.63068 182.065 5.63068C181.671 5.63068 181.321 5.71591 181.014 5.88636C180.711 6.05682 180.471 6.30682 180.293 6.63636C180.118 6.96212 180.031 7.35606 180.031 7.81818ZM188.215 4.27273H189.914V13.5682C189.914 14.1515 189.808 14.6439 189.596 15.0455C189.387 15.447 189.077 15.7519 188.664 15.9602C188.255 16.1686 187.749 16.2727 187.147 16.2727C187.086 16.2727 187.029 16.2727 186.976 16.2727C186.919 16.2727 186.861 16.2708 186.8 16.267V14.8068C186.853 14.8068 186.9 14.8068 186.942 14.8068C186.98 14.8068 187.024 14.8068 187.073 14.8068C187.474 14.8068 187.764 14.6989 187.942 14.483C188.124 14.2708 188.215 13.9621 188.215 13.5568V4.27273ZM189.056 2.92614C188.76 2.92614 188.507 2.82765 188.294 2.63068C188.086 2.42992 187.982 2.19129 187.982 1.91477C187.982 1.63447 188.086 1.39583 188.294 1.19886C188.507 0.998106 188.76 0.897727 189.056 0.897727C189.351 0.897727 189.603 0.998106 189.811 1.19886C190.024 1.39583 190.13 1.63447 190.13 1.91477C190.13 2.19129 190.024 2.42992 189.811 2.63068C189.603 2.82765 189.351 2.92614 189.056 2.92614ZM196.195 13.1761C195.377 13.1761 194.663 12.9886 194.053 12.6136C193.443 12.2386 192.97 11.714 192.633 11.0398C192.296 10.3655 192.127 9.57765 192.127 8.67614C192.127 7.77083 192.296 6.97917 192.633 6.30114C192.97 5.62311 193.443 5.09659 194.053 4.72159C194.663 4.34659 195.377 4.15909 196.195 4.15909C197.014 4.15909 197.728 4.34659 198.337 4.72159C198.947 5.09659 199.421 5.62311 199.758 6.30114C200.095 6.97917 200.264 7.77083 200.264 8.67614C200.264 9.57765 200.095 10.3655 199.758 11.0398C199.421 11.714 198.947 12.2386 198.337 12.6136C197.728 12.9886 197.014 13.1761 196.195 13.1761ZM196.201 11.75C196.731 11.75 197.171 11.6098 197.519 11.3295C197.868 11.0492 198.125 10.6761 198.292 10.2102C198.462 9.74432 198.548 9.23106 198.548 8.67045C198.548 8.11364 198.462 7.60227 198.292 7.13636C198.125 6.66667 197.868 6.28977 197.519 6.00568C197.171 5.72159 196.731 5.57955 196.201 5.57955C195.667 5.57955 195.224 5.72159 194.872 6.00568C194.523 6.28977 194.264 6.66667 194.093 7.13636C193.926 7.60227 193.843 8.11364 193.843 8.67045C193.843 9.23106 193.926 9.74432 194.093 10.2102C194.264 10.6761 194.523 11.0492 194.872 11.3295C195.224 11.6098 195.667 11.75 196.201 11.75ZM203.257 16.2727C203.003 16.2727 202.772 16.2519 202.564 16.2102C202.355 16.1723 202.2 16.1307 202.098 16.0852L202.507 14.6932C202.817 14.7765 203.094 14.8125 203.336 14.8011C203.579 14.7898 203.793 14.6989 203.978 14.5284C204.168 14.358 204.334 14.0795 204.478 13.6932L204.689 13.1136L201.495 4.27273H203.314L205.524 11.0455H205.615L207.825 4.27273H209.649L206.052 14.1648C205.886 14.6193 205.674 15.0038 205.416 15.3182C205.158 15.6364 204.852 15.875 204.495 16.0341C204.139 16.1932 203.727 16.2727 203.257 16.2727ZM213.855 13.1932C213.302 13.1932 212.802 13.0909 212.355 12.8864C211.908 12.678 211.554 12.3769 211.293 11.983C211.035 11.589 210.906 11.1061 210.906 10.5341C210.906 10.0417 211.001 9.63636 211.19 9.31818C211.38 9 211.636 8.74811 211.958 8.5625C212.279 8.37689 212.639 8.23674 213.037 8.14205C213.435 8.04735 213.84 7.97538 214.253 7.92614C214.776 7.86553 215.2 7.81629 215.526 7.77841C215.851 7.73674 216.088 7.67045 216.236 7.57955C216.384 7.48864 216.458 7.34091 216.458 7.13636V7.09659C216.458 6.60038 216.317 6.21591 216.037 5.94318C215.761 5.67045 215.348 5.53409 214.798 5.53409C214.226 5.53409 213.776 5.66098 213.446 5.91477C213.12 6.16477 212.895 6.44318 212.77 6.75L211.173 6.38636C211.363 5.85606 211.639 5.42803 212.003 5.10227C212.37 4.77273 212.793 4.53409 213.27 4.38636C213.747 4.23485 214.249 4.15909 214.776 4.15909C215.124 4.15909 215.494 4.20076 215.884 4.28409C216.278 4.36364 216.645 4.51136 216.986 4.72727C217.331 4.94318 217.613 5.25189 217.833 5.65341C218.052 6.05114 218.162 6.56818 218.162 7.20455V13H216.503V11.8068H216.435C216.325 12.0265 216.16 12.2424 215.94 12.4545C215.721 12.6667 215.439 12.8428 215.094 12.983C214.749 13.1231 214.336 13.1932 213.855 13.1932ZM214.225 11.8295C214.694 11.8295 215.096 11.7367 215.429 11.5511C215.766 11.3655 216.022 11.1231 216.196 10.8239C216.374 10.5208 216.463 10.197 216.463 9.85227V8.72727C216.403 8.78788 216.285 8.8447 216.111 8.89773C215.94 8.94697 215.745 8.99053 215.526 9.02841C215.306 9.0625 215.092 9.0947 214.884 9.125C214.675 9.15152 214.501 9.17424 214.361 9.19318C214.031 9.23485 213.73 9.30492 213.458 9.40341C213.189 9.50189 212.973 9.64394 212.81 9.82955C212.651 10.0114 212.571 10.2538 212.571 10.5568C212.571 10.9773 212.726 11.2955 213.037 11.5114C213.348 11.7235 213.744 11.8295 214.225 11.8295ZM220.881 13V1.36364H222.58V5.6875H222.682C222.781 5.50568 222.923 5.29545 223.108 5.05682C223.294 4.81818 223.552 4.60985 223.881 4.43182C224.211 4.25 224.646 4.15909 225.188 4.15909C225.893 4.15909 226.521 4.33712 227.074 4.69318C227.627 5.04924 228.061 5.5625 228.376 6.23295C228.694 6.90341 228.853 7.71023 228.853 8.65341C228.853 9.59659 228.696 10.4053 228.381 11.0795C228.067 11.75 227.635 12.267 227.086 12.6307C226.537 12.9905 225.91 13.1705 225.205 13.1705C224.675 13.1705 224.241 13.0814 223.904 12.9034C223.571 12.7254 223.309 12.517 223.12 12.2784C222.93 12.0398 222.785 11.8277 222.682 11.642H222.54V13H220.881ZM222.546 8.63636C222.546 9.25 222.635 9.78788 222.813 10.25C222.991 10.7121 223.249 11.0739 223.586 11.3352C223.923 11.5928 224.336 11.7216 224.824 11.7216C225.332 11.7216 225.756 11.5871 226.097 11.3182C226.438 11.0455 226.696 10.6761 226.87 10.2102C227.048 9.74432 227.137 9.2197 227.137 8.63636C227.137 8.06061 227.05 7.54356 226.876 7.08523C226.705 6.62689 226.448 6.26515 226.103 6C225.762 5.73485 225.336 5.60227 224.824 5.60227C224.332 5.60227 223.915 5.72917 223.574 5.98295C223.237 6.23674 222.982 6.59091 222.807 7.04545C222.633 7.5 222.546 8.0303 222.546 8.63636ZM232.779 1.36364V13H231.08V1.36364H232.779ZM239.146 13.1761C238.286 13.1761 237.546 12.9924 236.925 12.625C236.307 12.2538 235.83 11.733 235.493 11.0625C235.159 10.3883 234.993 9.59848 234.993 8.69318C234.993 7.79924 235.159 7.01136 235.493 6.32955C235.83 5.64773 236.3 5.11553 236.902 4.73295C237.508 4.35038 238.216 4.15909 239.027 4.15909C239.519 4.15909 239.997 4.24053 240.459 4.40341C240.921 4.56629 241.336 4.82197 241.703 5.17045C242.07 5.51894 242.36 5.97159 242.572 6.52841C242.784 7.08144 242.891 7.75379 242.891 8.54545V9.14773H235.953V7.875H241.226C241.226 7.42803 241.135 7.0322 240.953 6.6875C240.771 6.33902 240.516 6.06439 240.186 5.86364C239.86 5.66288 239.478 5.5625 239.038 5.5625C238.561 5.5625 238.144 5.67992 237.788 5.91477C237.436 6.14583 237.163 6.44886 236.97 6.82386C236.781 7.19508 236.686 7.59848 236.686 8.03409V9.02841C236.686 9.61174 236.788 10.108 236.993 10.517C237.201 10.9261 237.491 11.2386 237.862 11.4545C238.233 11.6667 238.667 11.7727 239.163 11.7727C239.485 11.7727 239.779 11.7273 240.044 11.6364C240.309 11.5417 240.538 11.4015 240.731 11.2159C240.925 11.0303 241.072 10.8011 241.175 10.5284L242.783 10.8182C242.654 11.2917 242.423 11.7064 242.089 12.0625C241.76 12.4148 241.345 12.6894 240.845 12.8864C240.349 13.0795 239.783 13.1761 239.146 13.1761ZM247.306 11.4091L247.22 12.0284C247.164 12.483 247.067 12.9564 246.931 13.4489C246.798 13.9451 246.66 14.4053 246.516 14.8295C246.376 15.2538 246.26 15.5909 246.169 15.8409H244.965C245.014 15.6061 245.082 15.2879 245.169 14.8864C245.256 14.4886 245.342 14.0436 245.425 13.5511C245.508 13.0587 245.571 12.5568 245.613 12.0455L245.669 11.4091H247.306ZM254.392 16.2727V4.27273H256.051V5.6875H256.193C256.291 5.50568 256.433 5.29545 256.619 5.05682C256.805 4.81818 257.062 4.60985 257.392 4.43182C257.721 4.25 258.157 4.15909 258.699 4.15909C259.403 4.15909 260.032 4.33712 260.585 4.69318C261.138 5.04924 261.572 5.5625 261.886 6.23295C262.204 6.90341 262.363 7.71023 262.363 8.65341C262.363 9.59659 262.206 10.4053 261.892 11.0795C261.577 11.75 261.146 12.267 260.596 12.6307C260.047 12.9905 259.42 13.1705 258.716 13.1705C258.185 13.1705 257.752 13.0814 257.414 12.9034C257.081 12.7254 256.82 12.517 256.63 12.2784C256.441 12.0398 256.295 11.8277 256.193 11.642H256.091V16.2727H254.392ZM256.057 8.63636C256.057 9.25 256.146 9.78788 256.324 10.25C256.502 10.7121 256.759 11.0739 257.096 11.3352C257.433 11.5928 257.846 11.7216 258.335 11.7216C258.842 11.7216 259.267 11.5871 259.608 11.3182C259.949 11.0455 260.206 10.6761 260.38 10.2102C260.558 9.74432 260.647 9.2197 260.647 8.63636C260.647 8.06061 260.56 7.54356 260.386 7.08523C260.216 6.62689 259.958 6.26515 259.613 6C259.272 5.73485 258.846 5.60227 258.335 5.60227C257.842 5.60227 257.426 5.72917 257.085 5.98295C256.748 6.23674 256.492 6.59091 256.318 7.04545C256.144 7.5 256.057 8.0303 256.057 8.63636ZM268.263 13.1761C267.445 13.1761 266.731 12.9886 266.121 12.6136C265.511 12.2386 265.037 11.714 264.7 11.0398C264.363 10.3655 264.195 9.57765 264.195 8.67614C264.195 7.77083 264.363 6.97917 264.7 6.30114C265.037 5.62311 265.511 5.09659 266.121 4.72159C266.731 4.34659 267.445 4.15909 268.263 4.15909C269.081 4.15909 269.795 4.34659 270.405 4.72159C271.015 5.09659 271.488 5.62311 271.825 6.30114C272.162 6.97917 272.331 7.77083 272.331 8.67614C272.331 9.57765 272.162 10.3655 271.825 11.0398C271.488 11.714 271.015 12.2386 270.405 12.6136C269.795 12.9886 269.081 13.1761 268.263 13.1761ZM268.269 11.75C268.799 11.75 269.238 11.6098 269.587 11.3295C269.935 11.0492 270.193 10.6761 270.359 10.2102C270.53 9.74432 270.615 9.23106 270.615 8.67045C270.615 8.11364 270.53 7.60227 270.359 7.13636C270.193 6.66667 269.935 6.28977 269.587 6.00568C269.238 5.72159 268.799 5.57955 268.269 5.57955C267.734 5.57955 267.291 5.72159 266.939 6.00568C266.591 6.28977 266.331 6.66667 266.161 7.13636C265.994 7.60227 265.911 8.11364 265.911 8.67045C265.911 9.23106 265.994 9.74432 266.161 10.2102C266.331 10.6761 266.591 11.0492 266.939 11.3295C267.291 11.6098 267.734 11.75 268.269 11.75ZM276.174 13L273.606 4.27273H275.361L277.071 10.6818H277.157L278.873 4.27273H280.628L282.333 10.6534H282.418L284.117 4.27273H285.873L283.31 13H281.577L279.804 6.69886H279.674L277.901 13H276.174ZM291.301 13.1761C290.441 13.1761 289.7 12.9924 289.079 12.625C288.462 12.2538 287.984 11.733 287.647 11.0625C287.314 10.3883 287.147 9.59848 287.147 8.69318C287.147 7.79924 287.314 7.01136 287.647 6.32955C287.984 5.64773 288.454 5.11553 289.056 4.73295C289.662 4.35038 290.371 4.15909 291.181 4.15909C291.674 4.15909 292.151 4.24053 292.613 4.40341C293.075 4.56629 293.49 4.82197 293.857 5.17045C294.225 5.51894 294.515 5.97159 294.727 6.52841C294.939 7.08144 295.045 7.75379 295.045 8.54545V9.14773H288.107V7.875H293.38C293.38 7.42803 293.289 7.0322 293.107 6.6875C292.926 6.33902 292.67 6.06439 292.34 5.86364C292.015 5.66288 291.632 5.5625 291.193 5.5625C290.715 5.5625 290.299 5.67992 289.943 5.91477C289.59 6.14583 289.318 6.44886 289.124 6.82386C288.935 7.19508 288.84 7.59848 288.84 8.03409V9.02841C288.84 9.61174 288.943 10.108 289.147 10.517C289.356 10.9261 289.645 11.2386 290.017 11.4545C290.388 11.6667 290.821 11.7727 291.318 11.7727C291.64 11.7727 291.933 11.7273 292.198 11.6364C292.463 11.5417 292.693 11.4015 292.886 11.2159C293.079 11.0303 293.227 10.8011 293.329 10.5284L294.937 10.8182C294.808 11.2917 294.577 11.7064 294.244 12.0625C293.914 12.4148 293.499 12.6894 292.999 12.8864C292.503 13.0795 291.937 13.1761 291.301 13.1761ZM297.25 13V4.27273H298.892V5.65909H298.983C299.142 5.18939 299.422 4.82008 299.824 4.55114C300.229 4.27841 300.687 4.14205 301.199 4.14205C301.305 4.14205 301.43 4.14583 301.574 4.15341C301.721 4.16098 301.837 4.17045 301.92 4.18182V5.80682C301.852 5.78788 301.731 5.76705 301.557 5.74432C301.382 5.7178 301.208 5.70455 301.034 5.70455C300.632 5.70455 300.274 5.78977 299.96 5.96023C299.649 6.12689 299.403 6.35985 299.221 6.65909C299.04 6.95455 298.949 7.29167 298.949 7.67045V13H297.25ZM308.379 4.27273V5.63636H303.448V4.27273H308.379ZM304.8 13V3.26136C304.8 2.71591 304.919 2.26326 305.158 1.90341C305.397 1.53977 305.713 1.26894 306.107 1.09091C306.501 0.90909 306.929 0.818181 307.391 0.818181C307.732 0.818181 308.023 0.84659 308.266 0.903409C308.508 0.956439 308.688 1.00568 308.806 1.05114L308.408 2.42614C308.328 2.40341 308.226 2.37689 308.101 2.34659C307.976 2.3125 307.825 2.29545 307.647 2.29545C307.234 2.29545 306.938 2.39773 306.76 2.60227C306.586 2.80682 306.499 3.10227 306.499 3.48864V13H304.8ZM315.981 9.38068V4.27273H317.685V13H316.015V11.4886H315.924C315.723 11.9545 315.401 12.3428 314.958 12.6534C314.519 12.9602 313.971 13.1136 313.316 13.1136C312.755 13.1136 312.259 12.9905 311.827 12.7443C311.399 12.4943 311.062 12.125 310.816 11.6364C310.574 11.1477 310.452 10.5436 310.452 9.82386V4.27273H312.151V9.61932C312.151 10.214 312.316 10.6875 312.646 11.0398C312.975 11.392 313.403 11.5682 313.93 11.5682C314.248 11.5682 314.564 11.4886 314.878 11.3295C315.197 11.1705 315.46 10.9299 315.668 10.608C315.88 10.286 315.985 9.87689 315.981 9.38068ZM321.987 1.36364V13H320.288V1.36364H321.987ZM331.039 13L328.471 4.27273H330.226L331.936 10.6818H332.022L333.738 4.27273H335.493L337.198 10.6534H337.283L338.982 4.27273H340.738L338.175 13H336.442L334.669 6.69886H334.539L332.766 13H331.039ZM345.21 13.1932C344.657 13.1932 344.157 13.0909 343.71 12.8864C343.263 12.678 342.908 12.3769 342.647 11.983C342.39 11.589 342.261 11.1061 342.261 10.5341C342.261 10.0417 342.355 9.63636 342.545 9.31818C342.734 9 342.99 8.74811 343.312 8.5625C343.634 8.37689 343.994 8.23674 344.391 8.14205C344.789 8.04735 345.194 7.97538 345.607 7.92614C346.13 7.86553 346.554 7.81629 346.88 7.77841C347.206 7.73674 347.443 7.67045 347.59 7.57955C347.738 7.48864 347.812 7.34091 347.812 7.13636V7.09659C347.812 6.60038 347.672 6.21591 347.391 5.94318C347.115 5.67045 346.702 5.53409 346.153 5.53409C345.581 5.53409 345.13 5.66098 344.801 5.91477C344.475 6.16477 344.249 6.44318 344.124 6.75L342.528 6.38636C342.717 5.85606 342.994 5.42803 343.357 5.10227C343.725 4.77273 344.147 4.53409 344.624 4.38636C345.102 4.23485 345.604 4.15909 346.13 4.15909C346.479 4.15909 346.848 4.20076 347.238 4.28409C347.632 4.36364 347.999 4.51136 348.34 4.72727C348.685 4.94318 348.967 5.25189 349.187 5.65341C349.407 6.05114 349.516 6.56818 349.516 7.20455V13H347.857V11.8068H347.789C347.679 12.0265 347.515 12.2424 347.295 12.4545C347.075 12.6667 346.793 12.8428 346.448 12.983C346.104 13.1231 345.691 13.1932 345.21 13.1932ZM345.579 11.8295C346.049 11.8295 346.45 11.7367 346.783 11.5511C347.121 11.3655 347.376 11.1231 347.551 10.8239C347.729 10.5208 347.818 10.197 347.818 9.85227V8.72727C347.757 8.78788 347.64 8.8447 347.465 8.89773C347.295 8.94697 347.1 8.99053 346.88 9.02841C346.66 9.0625 346.446 9.0947 346.238 9.125C346.03 9.15152 345.855 9.17424 345.715 9.19318C345.386 9.23485 345.085 9.30492 344.812 9.40341C344.543 9.50189 344.327 9.64394 344.164 9.82955C344.005 10.0114 343.926 10.2538 343.926 10.5568C343.926 10.9773 344.081 11.2955 344.391 11.5114C344.702 11.7235 345.098 11.8295 345.579 11.8295ZM352.861 16.2727C352.607 16.2727 352.376 16.2519 352.167 16.2102C351.959 16.1723 351.804 16.1307 351.702 16.0852L352.111 14.6932C352.421 14.7765 352.698 14.8125 352.94 14.8011C353.183 14.7898 353.397 14.6989 353.582 14.5284C353.772 14.358 353.938 14.0795 354.082 13.6932L354.292 13.1136L351.099 4.27273H352.917L355.128 11.0455H355.219L357.429 4.27273H359.253L355.656 14.1648C355.489 14.6193 355.277 15.0038 355.02 15.3182C354.762 15.6364 354.455 15.875 354.099 16.0341C353.743 16.1932 353.33 16.2727 352.861 16.2727ZM369.877 4.27273V5.63636H364.945V4.27273H369.877ZM366.297 13V3.26136C366.297 2.71591 366.417 2.26326 366.655 1.90341C366.894 1.53977 367.21 1.26894 367.604 1.09091C367.998 0.90909 368.426 0.818181 368.888 0.818181C369.229 0.818181 369.521 0.84659 369.763 0.903409C370.006 0.956439 370.186 1.00568 370.303 1.05114L369.905 2.42614C369.826 2.40341 369.724 2.37689 369.599 2.34659C369.474 2.3125 369.322 2.29545 369.144 2.29545C368.731 2.29545 368.436 2.39773 368.258 2.60227C368.083 2.80682 367.996 3.10227 367.996 3.48864V13H366.297ZM375.282 13.1761C374.464 13.1761 373.75 12.9886 373.14 12.6136C372.53 12.2386 372.057 11.714 371.72 11.0398C371.383 10.3655 371.214 9.57765 371.214 8.67614C371.214 7.77083 371.383 6.97917 371.72 6.30114C372.057 5.62311 372.53 5.09659 373.14 4.72159C373.75 4.34659 374.464 4.15909 375.282 4.15909C376.1 4.15909 376.814 4.34659 377.424 4.72159C378.034 5.09659 378.508 5.62311 378.845 6.30114C379.182 6.97917 379.35 7.77083 379.35 8.67614C379.35 9.57765 379.182 10.3655 378.845 11.0398C378.508 11.714 378.034 12.2386 377.424 12.6136C376.814 12.9886 376.1 13.1761 375.282 13.1761ZM375.288 11.75C375.818 11.75 376.258 11.6098 376.606 11.3295C376.955 11.0492 377.212 10.6761 377.379 10.2102C377.549 9.74432 377.635 9.23106 377.635 8.67045C377.635 8.11364 377.549 7.60227 377.379 7.13636C377.212 6.66667 376.955 6.28977 376.606 6.00568C376.258 5.72159 375.818 5.57955 375.288 5.57955C374.754 5.57955 374.311 5.72159 373.958 6.00568C373.61 6.28977 373.35 6.66667 373.18 7.13636C373.013 7.60227 372.93 8.11364 372.93 8.67045C372.93 9.23106 373.013 9.74432 373.18 10.2102C373.35 10.6761 373.61 11.0492 373.958 11.3295C374.311 11.6098 374.754 11.75 375.288 11.75ZM381.567 13V4.27273H383.209V5.65909H383.3C383.459 5.18939 383.739 4.82008 384.141 4.55114C384.546 4.27841 385.004 4.14205 385.516 4.14205C385.622 4.14205 385.747 4.14583 385.891 4.15341C386.038 4.16098 386.154 4.17045 386.237 4.18182V5.80682C386.169 5.78788 386.048 5.76705 385.874 5.74432C385.699 5.7178 385.525 5.70455 385.351 5.70455C384.949 5.70455 384.591 5.78977 384.277 5.96023C383.966 6.12689 383.72 6.35985 383.538 6.65909C383.357 6.95455 383.266 7.29167 383.266 7.67045V13H381.567ZM393.656 16.2727C393.402 16.2727 393.171 16.2519 392.962 16.2102C392.754 16.1723 392.599 16.1307 392.496 16.0852L392.906 14.6932C393.216 14.7765 393.493 14.8125 393.735 14.8011C393.978 14.7898 394.192 14.6989 394.377 14.5284C394.567 14.358 394.733 14.0795 394.877 13.6932L395.087 13.1136L391.894 4.27273H393.712L395.923 11.0455H396.014L398.224 4.27273H400.048L396.451 14.1648C396.284 14.6193 396.072 15.0038 395.815 15.3182C395.557 15.6364 395.25 15.875 394.894 16.0341C394.538 16.1932 394.125 16.2727 393.656 16.2727ZM405.343 13.1761C404.525 13.1761 403.811 12.9886 403.201 12.6136C402.592 12.2386 402.118 11.714 401.781 11.0398C401.444 10.3655 401.275 9.57765 401.275 8.67614C401.275 7.77083 401.444 6.97917 401.781 6.30114C402.118 5.62311 402.592 5.09659 403.201 4.72159C403.811 4.34659 404.525 4.15909 405.343 4.15909C406.162 4.15909 406.876 4.34659 407.486 4.72159C408.095 5.09659 408.569 5.62311 408.906 6.30114C409.243 6.97917 409.412 7.77083 409.412 8.67614C409.412 9.57765 409.243 10.3655 408.906 11.0398C408.569 11.714 408.095 12.2386 407.486 12.6136C406.876 12.9886 406.162 13.1761 405.343 13.1761ZM405.349 11.75C405.879 11.75 406.319 11.6098 406.667 11.3295C407.016 11.0492 407.273 10.6761 407.44 10.2102C407.611 9.74432 407.696 9.23106 407.696 8.67045C407.696 8.11364 407.611 7.60227 407.44 7.13636C407.273 6.66667 407.016 6.28977 406.667 6.00568C406.319 5.72159 405.879 5.57955 405.349 5.57955C404.815 5.57955 404.372 5.72159 404.02 6.00568C403.671 6.28977 403.412 6.66667 403.241 7.13636C403.075 7.60227 402.991 8.11364 402.991 8.67045C402.991 9.23106 403.075 9.74432 403.241 10.2102C403.412 10.6761 403.671 11.0492 404.02 11.3295C404.372 11.6098 404.815 11.75 405.349 11.75ZM417.156 9.38068V4.27273H418.861V13H417.19V11.4886H417.1C416.899 11.9545 416.577 12.3428 416.134 12.6534C415.694 12.9602 415.147 13.1136 414.492 13.1136C413.931 13.1136 413.435 12.9905 413.003 12.7443C412.575 12.4943 412.238 12.125 411.992 11.6364C411.749 11.1477 411.628 10.5436 411.628 9.82386V4.27273H413.327V9.61932C413.327 10.214 413.492 10.6875 413.821 11.0398C414.151 11.392 414.579 11.5682 415.105 11.5682C415.423 11.5682 415.74 11.4886 416.054 11.3295C416.372 11.1705 416.636 10.9299 416.844 10.608C417.056 10.286 417.16 9.87689 417.156 9.38068ZM430.092 4.27273V5.63636H425.325V4.27273H430.092ZM426.603 2.18182H428.302V10.4375C428.302 10.767 428.351 11.0152 428.45 11.1818C428.548 11.3447 428.675 11.4564 428.83 11.517C428.99 11.5739 429.162 11.6023 429.348 11.6023C429.484 11.6023 429.603 11.5928 429.705 11.5739C429.808 11.5549 429.887 11.5398 429.944 11.5284L430.251 12.9318C430.152 12.9697 430.012 13.0076 429.83 13.0455C429.649 13.0871 429.421 13.1098 429.149 13.1136C428.702 13.1212 428.285 13.0417 427.899 12.875C427.512 12.7083 427.2 12.4508 426.961 12.1023C426.723 11.7538 426.603 11.3163 426.603 10.7898V2.18182ZM435.873 13.1761C435.055 13.1761 434.341 12.9886 433.731 12.6136C433.122 12.2386 432.648 11.714 432.311 11.0398C431.974 10.3655 431.805 9.57765 431.805 8.67614C431.805 7.77083 431.974 6.97917 432.311 6.30114C432.648 5.62311 433.122 5.09659 433.731 4.72159C434.341 4.34659 435.055 4.15909 435.873 4.15909C436.692 4.15909 437.406 4.34659 438.016 4.72159C438.625 5.09659 439.099 5.62311 439.436 6.30114C439.773 6.97917 439.942 7.77083 439.942 8.67614C439.942 9.57765 439.773 10.3655 439.436 11.0398C439.099 11.714 438.625 12.2386 438.016 12.6136C437.406 12.9886 436.692 13.1761 435.873 13.1761ZM435.879 11.75C436.409 11.75 436.849 11.6098 437.197 11.3295C437.546 11.0492 437.803 10.6761 437.97 10.2102C438.141 9.74432 438.226 9.23106 438.226 8.67045C438.226 8.11364 438.141 7.60227 437.97 7.13636C437.803 6.66667 437.546 6.28977 437.197 6.00568C436.849 5.72159 436.409 5.57955 435.879 5.57955C435.345 5.57955 434.902 5.72159 434.55 6.00568C434.201 6.28977 433.942 6.66667 433.771 7.13636C433.605 7.60227 433.521 8.11364 433.521 8.67045C433.521 9.23106 433.605 9.74432 433.771 10.2102C433.942 10.6761 434.201 11.0492 434.55 11.3295C434.902 11.6098 435.345 11.75 435.879 11.75ZM448.411 1.36364V13H446.712V1.36364H448.411ZM454.778 13.1761C453.918 13.1761 453.178 12.9924 452.557 12.625C451.939 12.2538 451.462 11.733 451.125 11.0625C450.791 10.3883 450.625 9.59848 450.625 8.69318C450.625 7.79924 450.791 7.01136 451.125 6.32955C451.462 5.64773 451.932 5.11553 452.534 4.73295C453.14 4.35038 453.848 4.15909 454.659 4.15909C455.151 4.15909 455.628 4.24053 456.091 4.40341C456.553 4.56629 456.967 4.82197 457.335 5.17045C457.702 5.51894 457.992 5.97159 458.204 6.52841C458.416 7.08144 458.522 7.75379 458.522 8.54545V9.14773H451.585V7.875H456.858C456.858 7.42803 456.767 7.0322 456.585 6.6875C456.403 6.33902 456.147 6.06439 455.818 5.86364C455.492 5.66288 455.11 5.5625 454.67 5.5625C454.193 5.5625 453.776 5.67992 453.42 5.91477C453.068 6.14583 452.795 6.44886 452.602 6.82386C452.413 7.19508 452.318 7.59848 452.318 8.03409V9.02841C452.318 9.61174 452.42 10.108 452.625 10.517C452.833 10.9261 453.123 11.2386 453.494 11.4545C453.865 11.6667 454.299 11.7727 454.795 11.7727C455.117 11.7727 455.411 11.7273 455.676 11.6364C455.941 11.5417 456.17 11.4015 456.363 11.2159C456.557 11.0303 456.704 10.8011 456.807 10.5284L458.414 10.8182C458.286 11.2917 458.055 11.7064 457.721 12.0625C457.392 12.4148 456.977 12.6894 456.477 12.8864C455.981 13.0795 455.414 13.1761 454.778 13.1761ZM463.267 13.1932C462.714 13.1932 462.214 13.0909 461.767 12.8864C461.32 12.678 460.966 12.3769 460.705 11.983C460.447 11.589 460.318 11.1061 460.318 10.5341C460.318 10.0417 460.413 9.63636 460.602 9.31818C460.792 9 461.047 8.74811 461.369 8.5625C461.691 8.37689 462.051 8.23674 462.449 8.14205C462.847 8.04735 463.252 7.97538 463.665 7.92614C464.188 7.86553 464.612 7.81629 464.938 7.77841C465.263 7.73674 465.5 7.67045 465.648 7.57955C465.796 7.48864 465.869 7.34091 465.869 7.13636V7.09659C465.869 6.60038 465.729 6.21591 465.449 5.94318C465.172 5.67045 464.76 5.53409 464.21 5.53409C463.638 5.53409 463.188 5.66098 462.858 5.91477C462.532 6.16477 462.307 6.44318 462.182 6.75L460.585 6.38636C460.775 5.85606 461.051 5.42803 461.415 5.10227C461.782 4.77273 462.205 4.53409 462.682 4.38636C463.159 4.23485 463.661 4.15909 464.188 4.15909C464.536 4.15909 464.905 4.20076 465.296 4.28409C465.689 4.36364 466.057 4.51136 466.398 4.72727C466.742 4.94318 467.025 5.25189 467.244 5.65341C467.464 6.05114 467.574 6.56818 467.574 7.20455V13H465.915V11.8068H465.847C465.737 12.0265 465.572 12.2424 465.352 12.4545C465.133 12.6667 464.85 12.8428 464.506 12.983C464.161 13.1231 463.748 13.1932 463.267 13.1932ZM463.636 11.8295C464.106 11.8295 464.508 11.7367 464.841 11.5511C465.178 11.3655 465.434 11.1231 465.608 10.8239C465.786 10.5208 465.875 10.197 465.875 9.85227V8.72727C465.814 8.78788 465.697 8.8447 465.523 8.89773C465.352 8.94697 465.157 8.99053 464.938 9.02841C464.718 9.0625 464.504 9.0947 464.296 9.125C464.087 9.15152 463.913 9.17424 463.773 9.19318C463.443 9.23485 463.142 9.30492 462.869 9.40341C462.6 9.50189 462.385 9.64394 462.222 9.82955C462.063 10.0114 461.983 10.2538 461.983 10.5568C461.983 10.9773 462.138 11.2955 462.449 11.5114C462.76 11.7235 463.155 11.8295 463.636 11.8295ZM470.157 13V4.27273H471.799V5.65909H471.89C472.049 5.18939 472.329 4.82008 472.731 4.55114C473.136 4.27841 473.594 4.14205 474.106 4.14205C474.212 4.14205 474.337 4.14583 474.481 4.15341C474.628 4.16098 474.744 4.17045 474.827 4.18182V5.80682C474.759 5.78788 474.638 5.76705 474.464 5.74432C474.289 5.7178 474.115 5.70455 473.941 5.70455C473.539 5.70455 473.181 5.78977 472.867 5.96023C472.556 6.12689 472.31 6.35985 472.128 6.65909C471.946 6.95455 471.856 7.29167 471.856 7.67045V13H470.157ZM478.316 7.81818V13H476.617V4.27273H478.248V5.69318H478.356C478.557 5.23106 478.871 4.85985 479.299 4.57955C479.731 4.29924 480.275 4.15909 480.93 4.15909C481.525 4.15909 482.045 4.28409 482.492 4.53409C482.939 4.7803 483.286 5.14773 483.532 5.63636C483.778 6.125 483.901 6.72917 483.901 7.44886V13H482.203V7.65341C482.203 7.02083 482.038 6.52652 481.708 6.17045C481.379 5.81061 480.926 5.63068 480.35 5.63068C479.956 5.63068 479.606 5.71591 479.299 5.88636C478.996 6.05682 478.756 6.30682 478.578 6.63636C478.403 6.96212 478.316 7.35606 478.316 7.81818ZM140.846 43.1932C140.293 43.1932 139.793 43.0909 139.346 42.8864C138.899 42.678 138.545 42.3769 138.283 41.983C138.026 41.589 137.897 41.1061 137.897 40.5341C137.897 40.0417 137.992 39.6364 138.181 39.3182C138.371 39 138.626 38.7481 138.948 38.5625C139.27 38.3769 139.63 38.2367 140.028 38.142C140.425 38.0473 140.831 37.9754 141.244 37.9261C141.766 37.8655 142.191 37.8163 142.516 37.7784C142.842 37.7367 143.079 37.6705 143.227 37.5795C143.374 37.4886 143.448 37.3409 143.448 37.1364V37.0966C143.448 36.6004 143.308 36.2159 143.028 35.9432C142.751 35.6705 142.338 35.5341 141.789 35.5341C141.217 35.5341 140.766 35.661 140.437 35.9148C140.111 36.1648 139.886 36.4432 139.761 36.75L138.164 36.3864C138.353 35.8561 138.63 35.428 138.994 35.1023C139.361 34.7727 139.783 34.5341 140.261 34.3864C140.738 34.2348 141.24 34.1591 141.766 34.1591C142.115 34.1591 142.484 34.2008 142.874 34.2841C143.268 34.3636 143.636 34.5114 143.977 34.7273C144.321 34.9432 144.603 35.2519 144.823 35.6534C145.043 36.0511 145.153 36.5682 145.153 37.2045V43H143.494V41.8068H143.425C143.316 42.0265 143.151 42.2424 142.931 42.4545C142.711 42.6667 142.429 42.8428 142.085 42.983C141.74 43.1231 141.327 43.1932 140.846 43.1932ZM141.215 41.8295C141.685 41.8295 142.086 41.7367 142.42 41.5511C142.757 41.3655 143.013 41.1231 143.187 40.8239C143.365 40.5208 143.454 40.197 143.454 39.8523V38.7273C143.393 38.7879 143.276 38.8447 143.102 38.8977C142.931 38.947 142.736 38.9905 142.516 39.0284C142.297 39.0625 142.083 39.0947 141.874 39.125C141.666 39.1515 141.492 39.1742 141.352 39.1932C141.022 39.2348 140.721 39.3049 140.448 39.4034C140.179 39.5019 139.963 39.6439 139.8 39.8295C139.641 40.0114 139.562 40.2538 139.562 40.5568C139.562 40.9773 139.717 41.2955 140.028 41.5114C140.338 41.7235 140.734 41.8295 141.215 41.8295ZM149.434 37.8182V43H147.735V34.2727H149.366V35.6932H149.474C149.675 35.2311 149.989 34.8598 150.417 34.5795C150.849 34.2992 151.393 34.1591 152.048 34.1591C152.643 34.1591 153.164 34.2841 153.61 34.5341C154.057 34.7803 154.404 35.1477 154.65 35.6364C154.896 36.125 155.02 36.7292 155.02 37.4489V43H153.321V37.6534C153.321 37.0208 153.156 36.5265 152.826 36.1705C152.497 35.8106 152.044 35.6307 151.468 35.6307C151.075 35.6307 150.724 35.7159 150.417 35.8864C150.114 36.0568 149.874 36.3068 149.696 36.6364C149.521 36.9621 149.434 37.3561 149.434 37.8182ZM160.885 43.1705C160.18 43.1705 159.552 42.9905 158.999 42.6307C158.449 42.267 158.018 41.75 157.703 41.0795C157.393 40.4053 157.237 39.5966 157.237 38.6534C157.237 37.7102 157.394 36.9034 157.709 36.233C158.027 35.5625 158.463 35.0492 159.016 34.6932C159.569 34.3371 160.196 34.1591 160.896 34.1591C161.438 34.1591 161.874 34.25 162.203 34.4318C162.537 34.6098 162.794 34.8182 162.976 35.0568C163.162 35.2955 163.305 35.5057 163.408 35.6875H163.51V31.3636H165.209V43H163.55V41.642H163.408C163.305 41.8277 163.158 42.0398 162.965 42.2784C162.775 42.517 162.514 42.7254 162.18 42.9034C161.847 43.0814 161.415 43.1705 160.885 43.1705ZM161.26 41.7216C161.749 41.7216 162.162 41.5928 162.499 41.3352C162.84 41.0739 163.097 40.7121 163.271 40.25C163.449 39.7879 163.538 39.25 163.538 38.6364C163.538 38.0303 163.451 37.5 163.277 37.0455C163.103 36.5909 162.847 36.2367 162.51 35.983C162.173 35.7292 161.756 35.6023 161.26 35.6023C160.749 35.6023 160.323 35.7348 159.982 36C159.641 36.2652 159.383 36.6269 159.209 37.0852C159.038 37.5436 158.953 38.0606 158.953 38.6364C158.953 39.2197 159.04 39.7443 159.215 40.2102C159.389 40.6761 159.646 41.0455 159.987 41.3182C160.332 41.5871 160.756 41.7216 161.26 41.7216ZM176.582 34.2727V35.6364H171.815V34.2727H176.582ZM173.093 32.1818H174.792V40.4375C174.792 40.767 174.841 41.0152 174.94 41.1818C175.038 41.3447 175.165 41.4564 175.32 41.517C175.48 41.5739 175.652 41.6023 175.838 41.6023C175.974 41.6023 176.093 41.5928 176.195 41.5739C176.298 41.5549 176.377 41.5398 176.434 41.5284L176.741 42.9318C176.642 42.9697 176.502 43.0076 176.32 43.0455C176.139 43.0871 175.911 43.1098 175.639 43.1136C175.192 43.1212 174.775 43.0417 174.389 42.875C174.002 42.7083 173.69 42.4508 173.451 42.1023C173.213 41.7538 173.093 41.3163 173.093 40.7898V32.1818ZM178.781 43V34.2727H180.423V35.6591H180.514C180.673 35.1894 180.953 34.8201 181.355 34.5511C181.76 34.2784 182.219 34.142 182.73 34.142C182.836 34.142 182.961 34.1458 183.105 34.1534C183.253 34.161 183.368 34.1705 183.452 34.1818V35.8068C183.383 35.7879 183.262 35.767 183.088 35.7443C182.914 35.7178 182.739 35.7045 182.565 35.7045C182.164 35.7045 181.806 35.7898 181.491 35.9602C181.181 36.1269 180.935 36.3598 180.753 36.6591C180.571 36.9545 180.48 37.2917 180.48 37.6705V43H178.781ZM187.703 43.1932C187.15 43.1932 186.65 43.0909 186.203 42.8864C185.756 42.678 185.402 42.3769 185.141 41.983C184.883 41.589 184.755 41.1061 184.755 40.5341C184.755 40.0417 184.849 39.6364 185.039 39.3182C185.228 39 185.484 38.7481 185.806 38.5625C186.128 38.3769 186.487 38.2367 186.885 38.142C187.283 38.0473 187.688 37.9754 188.101 37.9261C188.624 37.8655 189.048 37.8163 189.374 37.7784C189.7 37.7367 189.936 37.6705 190.084 37.5795C190.232 37.4886 190.306 37.3409 190.306 37.1364V37.0966C190.306 36.6004 190.166 36.2159 189.885 35.9432C189.609 35.6705 189.196 35.5341 188.647 35.5341C188.075 35.5341 187.624 35.661 187.294 35.9148C186.969 36.1648 186.743 36.4432 186.618 36.75L185.022 36.3864C185.211 35.8561 185.487 35.428 185.851 35.1023C186.219 34.7727 186.641 34.5341 187.118 34.3864C187.595 34.2348 188.097 34.1591 188.624 34.1591C188.972 34.1591 189.342 34.2008 189.732 34.2841C190.126 34.3636 190.493 34.5114 190.834 34.7273C191.179 34.9432 191.461 35.2519 191.681 35.6534C191.9 36.0511 192.01 36.5682 192.01 37.2045V43H190.351V41.8068H190.283C190.173 42.0265 190.008 42.2424 189.789 42.4545C189.569 42.6667 189.287 42.8428 188.942 42.983C188.597 43.1231 188.184 43.1932 187.703 43.1932ZM188.073 41.8295C188.542 41.8295 188.944 41.7367 189.277 41.5511C189.614 41.3655 189.87 41.1231 190.044 40.8239C190.222 40.5208 190.311 40.197 190.311 39.8523V38.7273C190.251 38.7879 190.133 38.8447 189.959 38.8977C189.789 38.947 189.594 38.9905 189.374 39.0284C189.154 39.0625 188.94 39.0947 188.732 39.125C188.523 39.1515 188.349 39.1742 188.209 39.1932C187.88 39.2348 187.578 39.3049 187.306 39.4034C187.037 39.5019 186.821 39.6439 186.658 39.8295C186.499 40.0114 186.419 40.2538 186.419 40.5568C186.419 40.9773 186.575 41.2955 186.885 41.5114C187.196 41.7235 187.592 41.8295 188.073 41.8295ZM196.292 37.8182V43H194.593V34.2727H196.224V35.6932H196.332C196.532 35.2311 196.847 34.8598 197.275 34.5795C197.707 34.2992 198.25 34.1591 198.905 34.1591C199.5 34.1591 200.021 34.2841 200.468 34.5341C200.915 34.7803 201.262 35.1477 201.508 35.6364C201.754 36.125 201.877 36.7292 201.877 37.4489V43H200.178V37.6534C200.178 37.0208 200.013 36.5265 199.684 36.1705C199.354 35.8106 198.902 35.6307 198.326 35.6307C197.932 35.6307 197.582 35.7159 197.275 35.8864C196.972 36.0568 196.731 36.3068 196.553 36.6364C196.379 36.9621 196.292 37.3561 196.292 37.8182ZM211.015 36.4034L209.475 36.6761C209.411 36.4792 209.309 36.2917 209.169 36.1136C209.032 35.9356 208.847 35.7898 208.612 35.6761C208.377 35.5625 208.083 35.5057 207.731 35.5057C207.25 35.5057 206.849 35.6136 206.527 35.8295C206.205 36.0417 206.044 36.3163 206.044 36.6534C206.044 36.9451 206.152 37.1799 206.368 37.358C206.583 37.536 206.932 37.6818 207.413 37.7955L208.799 38.1136C209.602 38.2992 210.201 38.5852 210.595 38.9716C210.989 39.358 211.186 39.8598 211.186 40.4773C211.186 41 211.034 41.4659 210.731 41.875C210.432 42.2803 210.013 42.5985 209.475 42.8295C208.941 43.0606 208.322 43.1761 207.618 43.1761C206.64 43.1761 205.843 42.9678 205.225 42.5511C204.608 42.1307 204.229 41.5341 204.089 40.7614L205.731 40.5114C205.833 40.9394 206.044 41.2633 206.362 41.483C206.68 41.6989 207.095 41.8068 207.606 41.8068C208.163 41.8068 208.608 41.6913 208.941 41.4602C209.275 41.2254 209.441 40.9394 209.441 40.6023C209.441 40.3295 209.339 40.1004 209.135 39.9148C208.934 39.7292 208.625 39.589 208.208 39.4943L206.731 39.1705C205.917 38.9848 205.314 38.6894 204.924 38.2841C204.538 37.8788 204.345 37.3655 204.345 36.7443C204.345 36.2292 204.489 35.7784 204.777 35.392C205.064 35.0057 205.462 34.7045 205.97 34.4886C206.477 34.2689 207.059 34.1591 207.714 34.1591C208.657 34.1591 209.4 34.3636 209.941 34.7727C210.483 35.178 210.841 35.7216 211.015 36.4034ZM217.527 34.2727V35.6364H212.595V34.2727H217.527ZM213.947 43V33.2614C213.947 32.7159 214.067 32.2633 214.305 31.9034C214.544 31.5398 214.86 31.2689 215.254 31.0909C215.648 30.9091 216.076 30.8182 216.538 30.8182C216.879 30.8182 217.171 30.8466 217.413 30.9034C217.656 30.9564 217.836 31.0057 217.953 31.0511L217.555 32.4261C217.476 32.4034 217.374 32.3769 217.249 32.3466C217.124 32.3125 216.972 32.2955 216.794 32.2955C216.381 32.2955 216.086 32.3977 215.908 32.6023C215.733 32.8068 215.646 33.1023 215.646 33.4886V43H213.947ZM222.932 43.1761C222.114 43.1761 221.4 42.9886 220.79 42.6136C220.18 42.2386 219.707 41.714 219.37 41.0398C219.033 40.3655 218.864 39.5777 218.864 38.6761C218.864 37.7708 219.033 36.9792 219.37 36.3011C219.707 35.6231 220.18 35.0966 220.79 34.7216C221.4 34.3466 222.114 34.1591 222.932 34.1591C223.75 34.1591 224.464 34.3466 225.074 34.7216C225.684 35.0966 226.158 35.6231 226.495 36.3011C226.832 36.9792 227 37.7708 227 38.6761C227 39.5777 226.832 40.3655 226.495 41.0398C226.158 41.714 225.684 42.2386 225.074 42.6136C224.464 42.9886 223.75 43.1761 222.932 43.1761ZM222.938 41.75C223.468 41.75 223.908 41.6098 224.256 41.3295C224.605 41.0492 224.862 40.6761 225.029 40.2102C225.199 39.7443 225.285 39.2311 225.285 38.6705C225.285 38.1136 225.199 37.6023 225.029 37.1364C224.862 36.6667 224.605 36.2898 224.256 36.0057C223.908 35.7216 223.468 35.5795 222.938 35.5795C222.404 35.5795 221.961 35.7216 221.608 36.0057C221.26 36.2898 221 36.6667 220.83 37.1364C220.663 37.6023 220.58 38.1136 220.58 38.6705C220.58 39.2311 220.663 39.7443 220.83 40.2102C221 40.6761 221.26 41.0492 221.608 41.3295C221.961 41.6098 222.404 41.75 222.938 41.75ZM229.217 43V34.2727H230.859V35.6591H230.95C231.109 35.1894 231.389 34.8201 231.791 34.5511C232.196 34.2784 232.654 34.142 233.166 34.142C233.272 34.142 233.397 34.1458 233.541 34.1534C233.688 34.161 233.804 34.1705 233.887 34.1818V35.8068C233.819 35.7879 233.698 35.767 233.524 35.7443C233.349 35.7178 233.175 35.7045 233.001 35.7045C232.599 35.7045 232.241 35.7898 231.927 35.9602C231.616 36.1269 231.37 36.3598 231.188 36.6591C231.006 36.9545 230.916 37.2917 230.916 37.6705V43H229.217ZM235.677 43V34.2727H237.308V35.6932H237.416C237.598 35.2121 237.895 34.8371 238.308 34.5682C238.721 34.2955 239.215 34.1591 239.791 34.1591C240.374 34.1591 240.863 34.2955 241.257 34.5682C241.655 34.8409 241.948 35.2159 242.138 35.6932H242.228C242.437 35.2273 242.768 34.8561 243.223 34.5795C243.677 34.2992 244.219 34.1591 244.848 34.1591C245.639 34.1591 246.285 34.4072 246.785 34.9034C247.289 35.3996 247.541 36.1477 247.541 37.1477V43H245.842V37.3068C245.842 36.7159 245.681 36.2879 245.359 36.0227C245.037 35.7576 244.653 35.625 244.206 35.625C243.653 35.625 243.223 35.7955 242.916 36.1364C242.609 36.4735 242.456 36.9072 242.456 37.4375V43H240.763V37.1989C240.763 36.7254 240.615 36.3447 240.319 36.0568C240.024 35.7689 239.639 35.625 239.166 35.625C238.844 35.625 238.547 35.7102 238.274 35.8807C238.005 36.0473 237.787 36.2803 237.621 36.5795C237.458 36.8788 237.376 37.2254 237.376 37.6193V43H235.677ZM255.766 46.2727C255.512 46.2727 255.281 46.2519 255.073 46.2102C254.865 46.1723 254.709 46.1307 254.607 46.0852L255.016 44.6932C255.327 44.7765 255.603 44.8125 255.846 44.8011C256.088 44.7898 256.302 44.6989 256.488 44.5284C256.677 44.358 256.844 44.0795 256.988 43.6932L257.198 43.1136L254.005 34.2727H255.823L258.033 41.0455H258.124L260.334 34.2727H262.158L258.562 44.1648C258.395 44.6193 258.183 45.0038 257.925 45.3182C257.668 45.6364 257.361 45.875 257.005 46.0341C256.649 46.1932 256.236 46.2727 255.766 46.2727ZM267.454 43.1761C266.636 43.1761 265.922 42.9886 265.312 42.6136C264.702 42.2386 264.229 41.714 263.892 41.0398C263.554 40.3655 263.386 39.5777 263.386 38.6761C263.386 37.7708 263.554 36.9792 263.892 36.3011C264.229 35.6231 264.702 35.0966 265.312 34.7216C265.922 34.3466 266.636 34.1591 267.454 34.1591C268.272 34.1591 268.986 34.3466 269.596 34.7216C270.206 35.0966 270.679 35.6231 271.017 36.3011C271.354 36.9792 271.522 37.7708 271.522 38.6761C271.522 39.5777 271.354 40.3655 271.017 41.0398C270.679 41.714 270.206 42.2386 269.596 42.6136C268.986 42.9886 268.272 43.1761 267.454 43.1761ZM267.46 41.75C267.99 41.75 268.429 41.6098 268.778 41.3295C269.126 41.0492 269.384 40.6761 269.551 40.2102C269.721 39.7443 269.806 39.2311 269.806 38.6705C269.806 38.1136 269.721 37.6023 269.551 37.1364C269.384 36.6667 269.126 36.2898 268.778 36.0057C268.429 35.7216 267.99 35.5795 267.46 35.5795C266.926 35.5795 266.483 35.7216 266.13 36.0057C265.782 36.2898 265.522 36.6667 265.352 37.1364C265.185 37.6023 265.102 38.1136 265.102 38.6705C265.102 39.2311 265.185 39.7443 265.352 40.2102C265.522 40.6761 265.782 41.0492 266.13 41.3295C266.483 41.6098 266.926 41.75 267.46 41.75ZM279.267 39.3807V34.2727H280.972V43H279.301V41.4886H279.21C279.009 41.9545 278.687 42.3428 278.244 42.6534C277.805 42.9602 277.258 43.1136 276.602 43.1136C276.042 43.1136 275.545 42.9905 275.114 42.7443C274.686 42.4943 274.348 42.125 274.102 41.6364C273.86 41.1477 273.739 40.5436 273.739 39.8239V34.2727H275.437V39.6193C275.437 40.214 275.602 40.6875 275.932 41.0398C276.261 41.392 276.689 41.5682 277.216 41.5682C277.534 41.5682 277.85 41.4886 278.165 41.3295C278.483 41.1705 278.746 40.9299 278.955 40.608C279.167 40.286 279.271 39.8769 279.267 39.3807ZM283.574 43V34.2727H285.216V35.6591H285.307C285.466 35.1894 285.747 34.8201 286.148 34.5511C286.553 34.2784 287.012 34.142 287.523 34.142C287.629 34.142 287.754 34.1458 287.898 34.1534C288.046 34.161 288.161 34.1705 288.245 34.1818V35.8068C288.177 35.7879 288.055 35.767 287.881 35.7443C287.707 35.7178 287.533 35.7045 287.358 35.7045C286.957 35.7045 286.599 35.7898 286.284 35.9602C285.974 36.1269 285.728 36.3598 285.546 36.6591C285.364 36.9545 285.273 37.2917 285.273 37.6705V43H283.574ZM298.265 43.1761C297.421 43.1761 296.693 42.9848 296.084 42.6023C295.478 42.2159 295.012 41.6837 294.686 41.0057C294.36 40.3277 294.197 39.5511 294.197 38.6761C294.197 37.7898 294.364 37.0076 294.697 36.3295C295.031 35.6477 295.5 35.1155 296.106 34.733C296.712 34.3504 297.426 34.1591 298.248 34.1591C298.911 34.1591 299.502 34.2822 300.021 34.5284C300.54 34.7708 300.959 35.1117 301.277 35.5511C301.599 35.9905 301.79 36.5038 301.851 37.0909H300.197C300.106 36.6818 299.898 36.3295 299.572 36.0341C299.25 35.7386 298.818 35.5909 298.277 35.5909C297.803 35.5909 297.388 35.7159 297.032 35.9659C296.68 36.2121 296.406 36.5644 296.209 37.0227C296.012 37.4773 295.913 38.0152 295.913 38.6364C295.913 39.2727 296.01 39.822 296.203 40.2841C296.396 40.7462 296.669 41.1042 297.021 41.358C297.377 41.6117 297.796 41.7386 298.277 41.7386C298.599 41.7386 298.89 41.6799 299.152 41.5625C299.417 41.4413 299.638 41.2689 299.817 41.0455C299.998 40.822 300.125 40.553 300.197 40.2386H301.851C301.79 40.803 301.606 41.3068 301.299 41.75C300.993 42.1932 300.582 42.5417 300.067 42.7955C299.555 43.0492 298.955 43.1761 298.265 43.1761ZM306.527 43.1932C305.974 43.1932 305.474 43.0909 305.027 42.8864C304.58 42.678 304.226 42.3769 303.965 41.983C303.707 41.589 303.578 41.1061 303.578 40.5341C303.578 40.0417 303.673 39.6364 303.862 39.3182C304.052 39 304.307 38.7481 304.629 38.5625C304.951 38.3769 305.311 38.2367 305.709 38.142C306.107 38.0473 306.512 37.9754 306.925 37.9261C307.448 37.8655 307.872 37.8163 308.198 37.7784C308.523 37.7367 308.76 37.6705 308.908 37.5795C309.056 37.4886 309.129 37.3409 309.129 37.1364V37.0966C309.129 36.6004 308.989 36.2159 308.709 35.9432C308.432 35.6705 308.02 35.5341 307.47 35.5341C306.898 35.5341 306.448 35.661 306.118 35.9148C305.792 36.1648 305.567 36.4432 305.442 36.75L303.845 36.3864C304.035 35.8561 304.311 35.428 304.675 35.1023C305.042 34.7727 305.465 34.5341 305.942 34.3864C306.419 34.2348 306.921 34.1591 307.448 34.1591C307.796 34.1591 308.165 34.2008 308.556 34.2841C308.949 34.3636 309.317 34.5114 309.658 34.7273C310.003 34.9432 310.285 35.2519 310.504 35.6534C310.724 36.0511 310.834 36.5682 310.834 37.2045V43H309.175V41.8068H309.107C308.997 42.0265 308.832 42.2424 308.612 42.4545C308.393 42.6667 308.11 42.8428 307.766 42.983C307.421 43.1231 307.008 43.1932 306.527 43.1932ZM306.896 41.8295C307.366 41.8295 307.768 41.7367 308.101 41.5511C308.438 41.3655 308.694 41.1231 308.868 40.8239C309.046 40.5208 309.135 40.197 309.135 39.8523V38.7273C309.074 38.7879 308.957 38.8447 308.783 38.8977C308.612 38.947 308.417 38.9905 308.198 39.0284C307.978 39.0625 307.764 39.0947 307.556 39.125C307.347 39.1515 307.173 39.1742 307.033 39.1932C306.703 39.2348 306.402 39.3049 306.129 39.4034C305.86 39.5019 305.645 39.6439 305.482 39.8295C305.323 40.0114 305.243 40.2538 305.243 40.5568C305.243 40.9773 305.398 41.2955 305.709 41.5114C306.02 41.7235 306.415 41.8295 306.896 41.8295ZM313.417 43V34.2727H315.059V35.6591H315.15C315.309 35.1894 315.589 34.8201 315.991 34.5511C316.396 34.2784 316.854 34.142 317.366 34.142C317.472 34.142 317.597 34.1458 317.741 34.1534C317.888 34.161 318.004 34.1705 318.087 34.1818V35.8068C318.019 35.7879 317.898 35.767 317.724 35.7443C317.549 35.7178 317.375 35.7045 317.201 35.7045C316.799 35.7045 316.441 35.7898 316.127 35.9602C315.816 36.1269 315.57 36.3598 315.388 36.6591C315.207 36.9545 315.116 37.2917 315.116 37.6705V43H313.417ZM323.326 43.1761C322.466 43.1761 321.726 42.9924 321.105 42.625C320.487 42.2538 320.01 41.733 319.673 41.0625C319.339 40.3883 319.173 39.5985 319.173 38.6932C319.173 37.7992 319.339 37.0114 319.673 36.3295C320.01 35.6477 320.48 35.1155 321.082 34.733C321.688 34.3504 322.396 34.1591 323.207 34.1591C323.699 34.1591 324.177 34.2405 324.639 34.4034C325.101 34.5663 325.516 34.822 325.883 35.1705C326.25 35.5189 326.54 35.9716 326.752 36.5284C326.964 37.0814 327.071 37.7538 327.071 38.5455V39.1477H320.133V37.875H325.406C325.406 37.428 325.315 37.0322 325.133 36.6875C324.951 36.339 324.696 36.0644 324.366 35.8636C324.04 35.6629 323.658 35.5625 323.218 35.5625C322.741 35.5625 322.324 35.6799 321.968 35.9148C321.616 36.1458 321.343 36.4489 321.15 36.8239C320.961 37.1951 320.866 37.5985 320.866 38.0341V39.0284C320.866 39.6117 320.968 40.108 321.173 40.517C321.381 40.9261 321.671 41.2386 322.042 41.4545C322.413 41.6667 322.847 41.7727 323.343 41.7727C323.665 41.7727 323.959 41.7273 324.224 41.6364C324.489 41.5417 324.718 41.4015 324.911 41.2159C325.105 41.0303 325.252 40.8011 325.355 40.5284L326.963 40.8182C326.834 41.2917 326.603 41.7064 326.269 42.0625C325.94 42.4148 325.525 42.6894 325.025 42.8864C324.529 43.0795 323.963 43.1761 323.326 43.1761ZM333.037 43.1761C332.177 43.1761 331.436 42.9924 330.815 42.625C330.198 42.2538 329.721 41.733 329.383 41.0625C329.05 40.3883 328.883 39.5985 328.883 38.6932C328.883 37.7992 329.05 37.0114 329.383 36.3295C329.721 35.6477 330.19 35.1155 330.793 34.733C331.399 34.3504 332.107 34.1591 332.918 34.1591C333.41 34.1591 333.887 34.2405 334.349 34.4034C334.811 34.5663 335.226 34.822 335.594 35.1705C335.961 35.5189 336.251 35.9716 336.463 36.5284C336.675 37.0814 336.781 37.7538 336.781 38.5455V39.1477H329.844V37.875H335.116C335.116 37.428 335.025 37.0322 334.844 36.6875C334.662 36.339 334.406 36.0644 334.077 35.8636C333.751 35.6629 333.368 35.5625 332.929 35.5625C332.452 35.5625 332.035 35.6799 331.679 35.9148C331.327 36.1458 331.054 36.4489 330.861 36.8239C330.671 37.1951 330.577 37.5985 330.577 38.0341V39.0284C330.577 39.6117 330.679 40.108 330.883 40.517C331.092 40.9261 331.382 41.2386 331.753 41.4545C332.124 41.6667 332.558 41.7727 333.054 41.7727C333.376 41.7727 333.669 41.7273 333.935 41.6364C334.2 41.5417 334.429 41.4015 334.622 41.2159C334.815 41.0303 334.963 40.8011 335.065 40.5284L336.673 40.8182C336.544 41.2917 336.313 41.7064 335.98 42.0625C335.65 42.4148 335.236 42.6894 334.736 42.8864C334.239 43.0795 333.673 43.1761 333.037 43.1761ZM338.986 43V34.2727H340.628V35.6591H340.719C340.878 35.1894 341.158 34.8201 341.56 34.5511C341.965 34.2784 342.424 34.142 342.935 34.142C343.041 34.142 343.166 34.1458 343.31 34.1534C343.458 34.161 343.573 34.1705 343.657 34.1818V35.8068C343.588 35.7879 343.467 35.767 343.293 35.7443C343.119 35.7178 342.944 35.7045 342.77 35.7045C342.369 35.7045 342.011 35.7898 341.696 35.9602C341.386 36.1269 341.14 36.3598 340.958 36.6591C340.776 36.9545 340.685 37.2917 340.685 37.6705V43H338.986ZM345.566 43.108C345.255 43.108 344.988 42.9981 344.765 42.7784C344.541 42.5549 344.43 42.286 344.43 41.9716C344.43 41.661 344.541 41.3958 344.765 41.1761C344.988 40.9527 345.255 40.8409 345.566 40.8409C345.877 40.8409 346.144 40.9527 346.367 41.1761C346.591 41.3958 346.702 41.661 346.702 41.9716C346.702 42.1799 346.649 42.3712 346.543 42.5455C346.441 42.7159 346.305 42.8523 346.134 42.9545C345.964 43.0568 345.774 43.108 345.566 43.108Z" fill="#C6C3C3"/>
</svg>
