<svg width="74" height="12" viewBox="0 0 74 12" fill="none" xmlns="http://www.w3.org/2000/svg">
<path d="M6.564 1.656C6.564 1.696 6.548 1.732 6.516 1.764C6.492 1.788 6.46 1.8 6.42 1.8H2.328C2.288 1.8 2.268 1.82 2.268 1.86V4.104C2.268 4.144 2.288 4.164 2.328 4.164H5.076C5.116 4.164 5.148 4.18 5.172 4.212C5.204 4.236 5.22 4.268 5.22 4.308V5.22C5.22 5.26 5.204 5.296 5.172 5.328C5.148 5.352 5.116 5.364 5.076 5.364H2.328C2.288 5.364 2.268 5.384 2.268 5.424V7.74C2.268 7.78 2.288 7.8 2.328 7.8H6.42C6.46 7.8 6.492 7.816 6.516 7.848C6.548 7.872 6.564 7.904 6.564 7.944V8.856C6.564 8.896 6.548 8.932 6.516 8.964C6.492 8.988 6.46 9 6.42 9H1.02C0.98 9 0.944 8.988 0.912 8.964C0.888 8.932 0.876 8.896 0.876 8.856V0.744C0.876 0.704 0.888 0.672 0.912 0.648C0.944 0.615999 0.98 0.599999 1.02 0.599999H6.42C6.46 0.599999 6.492 0.615999 6.516 0.648C6.548 0.672 6.564 0.704 6.564 0.744V1.656ZM7.76156 9C7.70556 9 7.66556 8.984 7.64156 8.952C7.62556 8.912 7.63356 8.868 7.66556 8.82L9.60956 5.964C9.62556 5.94 9.62556 5.916 9.60956 5.892L7.66556 3.048C7.64956 3.016 7.64156 2.988 7.64156 2.964C7.64156 2.9 7.68156 2.868 7.76156 2.868H8.93756C9.00956 2.868 9.06556 2.9 9.10556 2.964L10.3536 4.812C10.3696 4.828 10.3856 4.836 10.4016 4.836C10.4176 4.836 10.4296 4.828 10.4376 4.812L11.6856 2.964C11.7256 2.9 11.7816 2.868 11.8536 2.868H13.1136C13.1696 2.868 13.2056 2.888 13.2216 2.928C13.2456 2.96 13.2416 3 13.2096 3.048L11.2656 5.892C11.2576 5.916 11.2576 5.94 11.2656 5.964L13.2096 8.82C13.2256 8.852 13.2336 8.88 13.2336 8.904C13.2336 8.968 13.1936 9 13.1136 9H11.9376C11.8656 9 11.8096 8.968 11.7696 8.904L10.5216 7.056C10.5136 7.04 10.5016 7.032 10.4856 7.032C10.4696 7.032 10.4536 7.04 10.4376 7.056L9.18956 8.904C9.14956 8.968 9.09356 9 9.02156 9H7.76156ZM19.7091 4.452C19.8531 4.86 19.9251 5.36 19.9251 5.952C19.9251 6.52 19.8571 7.008 19.7211 7.416C19.5451 7.944 19.2611 8.356 18.8691 8.652C18.4851 8.948 17.9971 9.096 17.4051 9.096C16.8371 9.096 16.3811 8.892 16.0371 8.484C16.0211 8.468 16.0051 8.464 15.9891 8.472C15.9731 8.48 15.9651 8.496 15.9651 8.52V11.124C15.9651 11.164 15.9491 11.196 15.9171 11.22C15.8931 11.252 15.8611 11.268 15.8211 11.268H14.7171C14.6771 11.268 14.6411 11.252 14.6091 11.22C14.5851 11.196 14.5731 11.164 14.5731 11.124V3.012C14.5731 2.972 14.5851 2.94 14.6091 2.916C14.6411 2.884 14.6771 2.868 14.7171 2.868H15.8211C15.8611 2.868 15.8931 2.884 15.9171 2.916C15.9491 2.94 15.9651 2.972 15.9651 3.012V3.372C15.9651 3.396 15.9731 3.412 15.9891 3.42C16.0051 3.428 16.0211 3.42 16.0371 3.396C16.3891 2.98 16.8491 2.772 17.4171 2.772C17.9851 2.772 18.4651 2.92 18.8571 3.216C19.2491 3.512 19.5331 3.924 19.7091 4.452ZM18.1491 7.392C18.3891 7.024 18.5091 6.536 18.5091 5.928C18.5091 5.344 18.4131 4.884 18.2211 4.548C17.9971 4.156 17.6571 3.96 17.2011 3.96C16.7851 3.96 16.4731 4.152 16.2651 4.536C16.0811 4.848 15.9891 5.312 15.9891 5.928C15.9891 6.56 16.0891 7.04 16.2891 7.368C16.4971 7.72 16.7971 7.896 17.1891 7.896C17.6131 7.896 17.9331 7.728 18.1491 7.392ZM26.6399 5.244C26.6719 5.444 26.6879 5.668 26.6879 5.916L26.6759 6.288C26.6759 6.384 26.6279 6.432 26.5319 6.432H22.7759C22.7359 6.432 22.7159 6.452 22.7159 6.492C22.7399 6.756 22.7759 6.936 22.8239 7.032C23.0159 7.608 23.4839 7.9 24.2279 7.908C24.7719 7.908 25.2039 7.684 25.5239 7.236C25.5559 7.188 25.5959 7.164 25.6439 7.164C25.6759 7.164 25.7039 7.176 25.7279 7.2L26.4719 7.812C26.5439 7.868 26.5559 7.932 26.5079 8.004C26.2599 8.356 25.9279 8.628 25.5119 8.82C25.1039 9.012 24.6479 9.108 24.1439 9.108C23.5199 9.108 22.9879 8.968 22.5479 8.688C22.1159 8.408 21.7999 8.016 21.5999 7.512C21.4159 7.08 21.3239 6.48 21.3239 5.712C21.3239 5.248 21.3719 4.872 21.4679 4.584C21.6279 4.024 21.9279 3.584 22.3679 3.264C22.8159 2.936 23.3519 2.772 23.9759 2.772C25.5519 2.772 26.4399 3.596 26.6399 5.244ZM23.9759 3.972C23.6799 3.972 23.4319 4.048 23.2319 4.2C23.0399 4.344 22.9039 4.548 22.8239 4.812C22.7759 4.948 22.7439 5.124 22.7279 5.34C22.7119 5.38 22.7279 5.4 22.7759 5.4H25.2119C25.2519 5.4 25.2719 5.38 25.2719 5.34C25.2559 5.14 25.2319 4.988 25.1999 4.884C25.1279 4.596 24.9839 4.372 24.7679 4.212C24.5599 4.052 24.2959 3.972 23.9759 3.972ZM31.0561 2.796C31.3121 2.796 31.5361 2.848 31.7281 2.952C31.7921 2.984 31.8161 3.044 31.8001 3.132L31.5961 4.212C31.5881 4.308 31.5321 4.336 31.4281 4.296C31.3081 4.256 31.1681 4.236 31.0081 4.236C30.9041 4.236 30.8241 4.24 30.7681 4.248C30.4321 4.264 30.1521 4.384 29.9281 4.608C29.7041 4.824 29.5921 5.108 29.5921 5.46V8.856C29.5921 8.896 29.5761 8.932 29.5441 8.964C29.5201 8.988 29.4881 9 29.4481 9H28.3441C28.3041 9 28.2681 8.988 28.2361 8.964C28.2121 8.932 28.2001 8.896 28.2001 8.856V3.012C28.2001 2.972 28.2121 2.94 28.2361 2.916C28.2681 2.884 28.3041 2.868 28.3441 2.868H29.4481C29.4881 2.868 29.5201 2.884 29.5441 2.916C29.5761 2.94 29.5921 2.972 29.5921 3.012V3.552C29.5921 3.584 29.5961 3.604 29.6041 3.612C29.6201 3.612 29.6361 3.6 29.6521 3.576C29.9881 3.056 30.4561 2.796 31.0561 2.796ZM36.3093 3.852C36.3093 3.892 36.2933 3.928 36.2613 3.96C36.2373 3.984 36.2053 3.996 36.1653 3.996H34.9413C34.9013 3.996 34.8813 4.016 34.8813 4.056V6.948C34.8813 7.252 34.9453 7.472 35.0733 7.608C35.2093 7.744 35.4213 7.812 35.7093 7.812H36.0693C36.1093 7.812 36.1413 7.828 36.1653 7.86C36.1973 7.884 36.2133 7.916 36.2133 7.956V8.856C36.2133 8.944 36.1653 8.996 36.0693 9.012L35.4453 9.024C34.8133 9.024 34.3413 8.916 34.0293 8.7C33.7173 8.484 33.5573 8.076 33.5493 7.476V4.056C33.5493 4.016 33.5293 3.996 33.4893 3.996H32.8053C32.7653 3.996 32.7293 3.984 32.6973 3.96C32.6733 3.928 32.6613 3.892 32.6613 3.852V3.012C32.6613 2.972 32.6733 2.94 32.6973 2.916C32.7293 2.884 32.7653 2.868 32.8053 2.868H33.4893C33.5293 2.868 33.5493 2.848 33.5493 2.808V1.404C33.5493 1.364 33.5613 1.332 33.5853 1.308C33.6173 1.276 33.6533 1.26 33.6933 1.26H34.7373C34.7773 1.26 34.8093 1.276 34.8333 1.308C34.8653 1.332 34.8813 1.364 34.8813 1.404V2.808C34.8813 2.848 34.9013 2.868 34.9413 2.868H36.1653C36.2053 2.868 36.2373 2.884 36.2613 2.916C36.2933 2.94 36.3093 2.972 36.3093 3.012V3.852ZM38.5776 2.028C38.3296 2.028 38.1256 1.948 37.9656 1.788C37.8056 1.628 37.7256 1.424 37.7256 1.176C37.7256 0.928 37.8056 0.724 37.9656 0.564C38.1256 0.404 38.3296 0.323999 38.5776 0.323999C38.8256 0.323999 39.0296 0.404 39.1896 0.564C39.3496 0.724 39.4296 0.928 39.4296 1.176C39.4296 1.424 39.3496 1.628 39.1896 1.788C39.0296 1.948 38.8256 2.028 38.5776 2.028ZM38.0016 9C37.9616 9 37.9256 8.988 37.8936 8.964C37.8696 8.932 37.8576 8.896 37.8576 8.856V3C37.8576 2.96 37.8696 2.928 37.8936 2.904C37.9256 2.872 37.9616 2.856 38.0016 2.856H39.1056C39.1456 2.856 39.1776 2.872 39.2016 2.904C39.2336 2.928 39.2496 2.96 39.2496 3V8.856C39.2496 8.896 39.2336 8.932 39.2016 8.964C39.1776 8.988 39.1456 9 39.1056 9H38.0016ZM46.2562 5.244C46.2882 5.444 46.3042 5.668 46.3042 5.916L46.2922 6.288C46.2922 6.384 46.2442 6.432 46.1482 6.432H42.3922C42.3522 6.432 42.3322 6.452 42.3322 6.492C42.3562 6.756 42.3922 6.936 42.4402 7.032C42.6322 7.608 43.1002 7.9 43.8442 7.908C44.3882 7.908 44.8202 7.684 45.1402 7.236C45.1722 7.188 45.2122 7.164 45.2602 7.164C45.2922 7.164 45.3202 7.176 45.3442 7.2L46.0882 7.812C46.1602 7.868 46.1722 7.932 46.1242 8.004C45.8762 8.356 45.5442 8.628 45.1282 8.82C44.7202 9.012 44.2642 9.108 43.7602 9.108C43.1362 9.108 42.6042 8.968 42.1642 8.688C41.7322 8.408 41.4162 8.016 41.2162 7.512C41.0322 7.08 40.9402 6.48 40.9402 5.712C40.9402 5.248 40.9882 4.872 41.0842 4.584C41.2442 4.024 41.5442 3.584 41.9842 3.264C42.4322 2.936 42.9682 2.772 43.5922 2.772C45.1682 2.772 46.0562 3.596 46.2562 5.244ZM43.5922 3.972C43.2962 3.972 43.0482 4.048 42.8482 4.2C42.6562 4.344 42.5202 4.548 42.4402 4.812C42.3922 4.948 42.3602 5.124 42.3442 5.34C42.3282 5.38 42.3442 5.4 42.3922 5.4H44.8282C44.8682 5.4 44.8882 5.38 44.8882 5.34C44.8722 5.14 44.8482 4.988 44.8162 4.884C44.7442 4.596 44.6002 4.372 44.3842 4.212C44.1762 4.052 43.9122 3.972 43.5922 3.972ZM50.7563 2.772C51.4043 2.772 51.9203 2.964 52.3043 3.348C52.6963 3.732 52.8923 4.256 52.8923 4.92V8.856C52.8923 8.896 52.8763 8.932 52.8443 8.964C52.8203 8.988 52.7883 9 52.7483 9H51.6443C51.6043 9 51.5683 8.988 51.5363 8.964C51.5123 8.932 51.5003 8.896 51.5003 8.856V5.208C51.5003 4.84 51.3963 4.544 51.1883 4.32C50.9803 4.088 50.7043 3.972 50.3603 3.972C50.0163 3.972 49.7363 4.084 49.5203 4.308C49.3123 4.532 49.2083 4.828 49.2083 5.196V8.856C49.2083 8.896 49.1923 8.932 49.1603 8.964C49.1363 8.988 49.1043 9 49.0643 9H47.9603C47.9203 9 47.8843 8.988 47.8523 8.964C47.8283 8.932 47.8163 8.896 47.8163 8.856V3.012C47.8163 2.972 47.8283 2.94 47.8523 2.916C47.8843 2.884 47.9203 2.868 47.9603 2.868H49.0643C49.1043 2.868 49.1363 2.884 49.1603 2.916C49.1923 2.94 49.2083 2.972 49.2083 3.012V3.396C49.2083 3.42 49.2163 3.436 49.2323 3.444C49.2483 3.452 49.2603 3.444 49.2683 3.42C49.5963 2.988 50.0923 2.772 50.7563 2.772ZM57.0928 9.096C56.4768 9.096 55.9448 8.94 55.4968 8.628C55.0488 8.308 54.7368 7.88 54.5608 7.344C54.4328 6.984 54.3688 6.504 54.3688 5.904C54.3688 5.328 54.4328 4.856 54.5608 4.488C54.7288 3.96 55.0368 3.544 55.4848 3.24C55.9408 2.928 56.4768 2.772 57.0928 2.772C57.7168 2.772 58.2608 2.928 58.7248 3.24C59.1888 3.552 59.4968 3.944 59.6488 4.416C59.6888 4.544 59.7168 4.672 59.7328 4.8V4.824C59.7328 4.904 59.6888 4.952 59.6008 4.968L58.5208 5.124H58.4968C58.4248 5.124 58.3768 5.084 58.3528 5.004C58.3528 4.964 58.3488 4.932 58.3408 4.908C58.3248 4.844 58.3088 4.788 58.2928 4.74C58.2208 4.516 58.0768 4.332 57.8608 4.188C57.6448 4.044 57.3888 3.972 57.0928 3.972C56.7888 3.972 56.5288 4.052 56.3128 4.212C56.1048 4.364 55.9648 4.576 55.8928 4.848C55.8128 5.104 55.7728 5.46 55.7728 5.916C55.7728 6.356 55.8088 6.712 55.8808 6.984C55.9608 7.264 56.1048 7.488 56.3128 7.656C56.5208 7.816 56.7808 7.896 57.0928 7.896C57.3968 7.896 57.6568 7.82 57.8728 7.668C58.0968 7.508 58.2408 7.296 58.3048 7.032C58.3128 7.016 58.3168 6.996 58.3168 6.972C58.3248 6.964 58.3288 6.952 58.3288 6.936C58.3528 6.84 58.4088 6.8 58.4968 6.816L59.5768 6.984C59.6168 6.992 59.6488 7.012 59.6728 7.044C59.7048 7.068 59.7168 7.104 59.7088 7.152C59.6848 7.28 59.6648 7.372 59.6488 7.428C59.4968 7.94 59.1888 8.348 58.7248 8.652C58.2608 8.948 57.7168 9.096 57.0928 9.096ZM66.2652 5.244C66.2972 5.444 66.3132 5.668 66.3132 5.916L66.3012 6.288C66.3012 6.384 66.2532 6.432 66.1572 6.432H62.4012C62.3612 6.432 62.3412 6.452 62.3412 6.492C62.3652 6.756 62.4012 6.936 62.4492 7.032C62.6412 7.608 63.1092 7.9 63.8532 7.908C64.3972 7.908 64.8292 7.684 65.1492 7.236C65.1812 7.188 65.2212 7.164 65.2692 7.164C65.3012 7.164 65.3292 7.176 65.3532 7.2L66.0972 7.812C66.1692 7.868 66.1812 7.932 66.1332 8.004C65.8852 8.356 65.5532 8.628 65.1372 8.82C64.7292 9.012 64.2732 9.108 63.7692 9.108C63.1452 9.108 62.6132 8.968 62.1732 8.688C61.7412 8.408 61.4252 8.016 61.2252 7.512C61.0412 7.08 60.9492 6.48 60.9492 5.712C60.9492 5.248 60.9972 4.872 61.0932 4.584C61.2532 4.024 61.5532 3.584 61.9932 3.264C62.4412 2.936 62.9772 2.772 63.6012 2.772C65.1772 2.772 66.0652 3.596 66.2652 5.244ZM63.6012 3.972C63.3052 3.972 63.0572 4.048 62.8572 4.2C62.6652 4.344 62.5292 4.548 62.4492 4.812C62.4012 4.948 62.3692 5.124 62.3532 5.34C62.3372 5.38 62.3532 5.4 62.4012 5.4H64.8372C64.8772 5.4 64.8972 5.38 64.8972 5.34C64.8812 5.14 64.8572 4.988 64.8252 4.884C64.7532 4.596 64.6092 4.372 64.3932 4.212C64.1852 4.052 63.9212 3.972 63.6012 3.972ZM71.6294 0.744C71.6294 0.704 71.6414 0.672 71.6654 0.648C71.6974 0.615999 71.7334 0.599999 71.7734 0.599999H72.8774C72.9174 0.599999 72.9494 0.615999 72.9734 0.648C73.0054 0.672 73.0214 0.704 73.0214 0.744V8.856C73.0214 8.896 73.0054 8.932 72.9734 8.964C72.9494 8.988 72.9174 9 72.8774 9H71.7734C71.7334 9 71.6974 8.988 71.6654 8.964C71.6414 8.932 71.6294 8.896 71.6294 8.856V8.496C71.6294 8.472 71.6214 8.456 71.6054 8.448C71.5894 8.44 71.5734 8.448 71.5574 8.472C71.2054 8.888 70.7454 9.096 70.1774 9.096C69.6094 9.096 69.1294 8.948 68.7374 8.652C68.3454 8.356 68.0614 7.944 67.8854 7.416C67.7414 6.968 67.6694 6.468 67.6694 5.916C67.6694 5.348 67.7374 4.86 67.8734 4.452C68.0494 3.924 68.3334 3.512 68.7254 3.216C69.1174 2.92 69.6094 2.772 70.2014 2.772C70.7534 2.772 71.2054 2.972 71.5574 3.372C71.5734 3.388 71.5894 3.396 71.6054 3.396C71.6214 3.388 71.6294 3.372 71.6294 3.348V0.744ZM71.3414 7.32C71.5254 6.992 71.6174 6.528 71.6174 5.928C71.6174 5.304 71.5174 4.828 71.3174 4.5C71.1014 4.148 70.7974 3.972 70.4054 3.972C69.9974 3.972 69.6774 4.14 69.4454 4.476C69.2054 4.828 69.0854 5.316 69.0854 5.94C69.0854 6.5 69.1814 6.96 69.3734 7.32C69.5974 7.704 69.9374 7.896 70.3934 7.896C70.8014 7.896 71.1174 7.704 71.3414 7.32Z" fill="#838383"/>
</svg>
