<svg width="235" height="245" viewBox="0 0 235 245" fill="none" xmlns="http://www.w3.org/2000/svg">
<path d="M2.31889 94V83.8182H8.42401V84.9119H3.55185V88.3523H7.96662V89.446H3.55185V94H2.31889ZM10.2946 94V86.3636H11.4281V87.517H11.5076C11.6468 87.1392 11.8987 86.8326 12.2633 86.5973C12.6279 86.362 13.0389 86.2443 13.4963 86.2443C13.5824 86.2443 13.6902 86.246 13.8194 86.2493C13.9487 86.2526 14.0465 86.2576 14.1127 86.2642V87.4574C14.073 87.4474 13.9818 87.4325 13.8393 87.4126C13.7001 87.3894 13.5526 87.3778 13.3968 87.3778C13.0256 87.3778 12.6942 87.4557 12.4025 87.6115C12.1142 87.764 11.8855 87.9761 11.7164 88.2479C11.5507 88.5163 11.4679 88.8229 11.4679 89.1676V94H10.2946ZM18.3734 94.1591C17.684 94.1591 17.0791 93.995 16.5588 93.6669C16.0417 93.3388 15.6374 92.8797 15.3457 92.2898C15.0574 91.6998 14.9132 91.0104 14.9132 90.2216C14.9132 89.4261 15.0574 88.7318 15.3457 88.1385C15.6374 87.5452 16.0417 87.0845 16.5588 86.7564C17.0791 86.4283 17.684 86.2642 18.3734 86.2642C19.0628 86.2642 19.666 86.4283 20.1831 86.7564C20.7034 87.0845 21.1078 87.5452 21.3961 88.1385C21.6878 88.7318 21.8336 89.4261 21.8336 90.2216C21.8336 91.0104 21.6878 91.6998 21.3961 92.2898C21.1078 92.8797 20.7034 93.3388 20.1831 93.6669C19.666 93.995 19.0628 94.1591 18.3734 94.1591ZM18.3734 93.1051C18.8971 93.1051 19.3279 92.9709 19.666 92.7024C20.0041 92.4339 20.2543 92.081 20.4167 91.6435C20.5791 91.206 20.6603 90.732 20.6603 90.2216C20.6603 89.7112 20.5791 89.2356 20.4167 88.7947C20.2543 88.3539 20.0041 87.9976 19.666 87.7259C19.3279 87.4541 18.8971 87.3182 18.3734 87.3182C17.8497 87.3182 17.4189 87.4541 17.0808 87.7259C16.7427 87.9976 16.4925 88.3539 16.3301 88.7947C16.1677 89.2356 16.0865 89.7112 16.0865 90.2216C16.0865 90.732 16.1677 91.206 16.3301 91.6435C16.4925 92.081 16.7427 92.4339 17.0808 92.7024C17.4189 92.9709 17.8497 93.1051 18.3734 93.1051ZM24.7979 89.4062V94H23.6246V86.3636H24.7582V87.5568H24.8576C25.0366 87.169 25.3084 86.8575 25.6729 86.6222C26.0375 86.3835 26.5082 86.2642 27.0849 86.2642C27.6019 86.2642 28.0543 86.3703 28.4421 86.5824C28.8299 86.7912 29.1315 87.1094 29.3469 87.5369C29.5624 87.9612 29.6701 88.4981 29.6701 89.1477V94H28.4968V89.2273C28.4968 88.6274 28.341 88.16 28.0295 87.8253C27.7179 87.4872 27.2904 87.3182 26.7468 87.3182C26.3723 87.3182 26.0375 87.3994 25.7425 87.5618C25.4509 87.7242 25.2205 87.9612 25.0515 88.2727C24.8825 88.5843 24.7979 88.9621 24.7979 89.4062ZM35.1351 86.3636V87.358H31.1777V86.3636H35.1351ZM32.3311 84.5341H33.5044V91.8125C33.5044 92.1439 33.5525 92.3925 33.6486 92.5582C33.748 92.7206 33.874 92.83 34.0265 92.8864C34.1822 92.9394 34.3463 92.9659 34.5186 92.9659C34.6479 92.9659 34.754 92.9593 34.8368 92.946C34.9197 92.9295 34.986 92.9162 35.0357 92.9062L35.2743 93.9602C35.1948 93.9901 35.0837 94.0199 34.9412 94.0497C34.7987 94.0829 34.6181 94.0994 34.3993 94.0994C34.0679 94.0994 33.7431 94.0282 33.4249 93.8857C33.11 93.7431 32.8482 93.526 32.6394 93.2344C32.4339 92.9427 32.3311 92.5748 32.3311 92.1307V84.5341ZM44.0392 94.1591C43.3034 94.1591 42.6687 93.9967 42.1351 93.6719C41.6048 93.3438 41.1955 92.8864 40.9071 92.2997C40.6221 91.7098 40.4796 91.0237 40.4796 90.2415C40.4796 89.4593 40.6221 88.7699 40.9071 88.1733C41.1955 87.5734 41.5965 87.1061 42.1103 86.7713C42.6273 86.4332 43.2305 86.2642 43.9199 86.2642C44.3176 86.2642 44.7104 86.3305 45.0982 86.4631C45.486 86.5956 45.839 86.8111 46.1571 87.1094C46.4753 87.4044 46.7289 87.7955 46.9178 88.2827C47.1067 88.7699 47.2012 89.3698 47.2012 90.0824V90.5795H41.3148V89.5653H46.008C46.008 89.1345 45.9218 88.75 45.7495 88.4119C45.5804 88.0739 45.3385 87.8071 45.0236 87.6115C44.7121 87.416 44.3442 87.3182 43.9199 87.3182C43.4526 87.3182 43.0482 87.4342 42.7069 87.6662C42.3688 87.8949 42.1086 88.1932 41.9263 88.5611C41.744 88.929 41.6529 89.3234 41.6529 89.7443V90.4205C41.6529 90.9972 41.7523 91.486 41.9512 91.8871C42.1533 92.2848 42.4334 92.5881 42.7914 92.7969C43.1493 93.0024 43.5653 93.1051 44.0392 93.1051C44.3475 93.1051 44.6259 93.062 44.8745 92.9759C45.1264 92.8864 45.3435 92.7538 45.5257 92.5781C45.708 92.3991 45.8489 92.1771 45.9483 91.9119L47.0819 92.2301C46.9625 92.6146 46.762 92.9527 46.4803 93.2443C46.1986 93.5327 45.8506 93.758 45.4363 93.9205C45.022 94.0795 44.5563 94.1591 44.0392 94.1591ZM50.1593 89.4062V94H48.986V86.3636H50.1195V87.5568H50.2189C50.3979 87.169 50.6697 86.8575 51.0343 86.6222C51.3989 86.3835 51.8695 86.2642 52.4462 86.2642C52.9632 86.2642 53.4157 86.3703 53.8034 86.5824C54.1912 86.7912 54.4928 87.1094 54.7083 87.5369C54.9237 87.9612 55.0314 88.4981 55.0314 89.1477V94H53.8581V89.2273C53.8581 88.6274 53.7024 88.16 53.3908 87.8253C53.0792 87.4872 52.6517 87.3182 52.1081 87.3182C51.7336 87.3182 51.3989 87.3994 51.1039 87.5618C50.8122 87.7242 50.5819 87.9612 50.4128 88.2727C50.2438 88.5843 50.1593 88.9621 50.1593 89.4062ZM60.0589 94.1591C59.4226 94.1591 58.8608 93.9983 58.3736 93.6768C57.8864 93.352 57.5052 92.8946 57.2301 92.3047C56.955 91.7114 56.8175 91.0104 56.8175 90.2017C56.8175 89.3996 56.955 88.7036 57.2301 88.1136C57.5052 87.5237 57.888 87.0679 58.3786 86.7464C58.8691 86.425 59.4358 86.2642 60.0788 86.2642C60.576 86.2642 60.9688 86.3471 61.2571 86.5128C61.5488 86.6752 61.7708 86.8608 61.9233 87.0696C62.0791 87.2751 62.2 87.4441 62.2862 87.5767H62.3857V83.8182H63.5589V94H62.4254V92.8267H62.2862C62.2 92.9659 62.0774 93.1416 61.9183 93.3537C61.7592 93.5625 61.5322 93.7498 61.2372 93.9155C60.9422 94.0779 60.5495 94.1591 60.0589 94.1591ZM60.218 93.1051C60.6887 93.1051 61.0864 92.9825 61.4112 92.7372C61.736 92.4886 61.983 92.1456 62.152 91.7081C62.321 91.2673 62.4055 90.7585 62.4055 90.1818C62.4055 89.6117 62.3227 89.1129 62.157 88.6854C61.9912 88.2545 61.746 87.9197 61.4212 87.6811C61.0964 87.4392 60.6953 87.3182 60.218 87.3182C59.7209 87.3182 59.3066 87.4458 58.9751 87.701C58.647 87.9529 58.4001 88.2959 58.2344 88.7301C58.072 89.161 57.9908 89.6449 57.9908 90.1818C57.9908 90.7254 58.0736 91.2192 58.2393 91.6634C58.4084 92.1042 58.657 92.4555 58.9851 92.7173C59.3165 92.9759 59.7275 93.1051 60.218 93.1051ZM72.6918 94.1591C72.0554 94.1591 71.4936 93.9983 71.0064 93.6768C70.5192 93.352 70.138 92.8946 69.8629 92.3047C69.5878 91.7114 69.4503 91.0104 69.4503 90.2017C69.4503 89.3996 69.5878 88.7036 69.8629 88.1136C70.138 87.5237 70.5208 87.0679 71.0114 86.7464C71.5019 86.425 72.0687 86.2642 72.7116 86.2642C73.2088 86.2642 73.6016 86.3471 73.8899 86.5128C74.1816 86.6752 74.4036 86.8608 74.5561 87.0696C74.7119 87.2751 74.8329 87.4441 74.919 87.5767H75.0185V83.8182H76.1918V94H75.0582V92.8267H74.919C74.8329 92.9659 74.7102 93.1416 74.5511 93.3537C74.392 93.5625 74.165 93.7498 73.87 93.9155C73.575 94.0779 73.1823 94.1591 72.6918 94.1591ZM72.8509 93.1051C73.3215 93.1051 73.7192 92.9825 74.044 92.7372C74.3688 92.4886 74.6158 92.1456 74.7848 91.7081C74.9538 91.2673 75.0384 90.7585 75.0384 90.1818C75.0384 89.6117 74.9555 89.1129 74.7898 88.6854C74.6241 88.2545 74.3788 87.9197 74.054 87.6811C73.7292 87.4392 73.3281 87.3182 72.8509 87.3182C72.3537 87.3182 71.9394 87.4458 71.608 87.701C71.2798 87.9529 71.0329 88.2959 70.8672 88.7301C70.7048 89.161 70.6236 89.6449 70.6236 90.1818C70.6236 90.7254 70.7064 91.2192 70.8722 91.6634C71.0412 92.1042 71.2898 92.4555 71.6179 92.7173C71.9493 92.9759 72.3603 93.1051 72.8509 93.1051ZM81.7053 94.1591C80.9695 94.1591 80.3348 93.9967 79.8011 93.6719C79.2708 93.3438 78.8615 92.8864 78.5732 92.2997C78.2881 91.7098 78.1456 91.0237 78.1456 90.2415C78.1456 89.4593 78.2881 88.7699 78.5732 88.1733C78.8615 87.5734 79.2625 87.1061 79.7763 86.7713C80.2933 86.4332 80.8965 86.2642 81.5859 86.2642C81.9837 86.2642 82.3764 86.3305 82.7642 86.4631C83.152 86.5956 83.505 86.8111 83.8232 87.1094C84.1413 87.4044 84.3949 87.7955 84.5838 88.2827C84.7727 88.7699 84.8672 89.3698 84.8672 90.0824V90.5795H78.9808V89.5653H83.674C83.674 89.1345 83.5878 88.75 83.4155 88.4119C83.2464 88.0739 83.0045 87.8071 82.6896 87.6115C82.3781 87.416 82.0102 87.3182 81.5859 87.3182C81.1186 87.3182 80.7143 87.4342 80.3729 87.6662C80.0348 87.8949 79.7746 88.1932 79.5923 88.5611C79.41 88.929 79.3189 89.3234 79.3189 89.7443V90.4205C79.3189 90.9972 79.4183 91.486 79.6172 91.8871C79.8194 92.2848 80.0994 92.5881 80.4574 92.7969C80.8153 93.0024 81.2313 93.1051 81.7053 93.1051C82.0135 93.1051 82.2919 93.062 82.5405 92.9759C82.7924 92.8864 83.0095 92.7538 83.1918 92.5781C83.3741 92.3991 83.5149 92.1771 83.6143 91.9119L84.7479 92.2301C84.6286 92.6146 84.428 92.9527 84.1463 93.2443C83.8646 93.5327 83.5166 93.758 83.1023 93.9205C82.688 94.0795 82.2223 94.1591 81.7053 94.1591ZM92.6639 86.3636L89.84 94H88.6468L85.823 86.3636H87.0957L89.2037 92.4489H89.2832L91.3912 86.3636H92.6639ZM97.1408 94.1591C96.405 94.1591 95.7703 93.9967 95.2367 93.6719C94.7064 93.3438 94.2971 92.8864 94.0087 92.2997C93.7237 91.7098 93.5811 91.0237 93.5811 90.2415C93.5811 89.4593 93.7237 88.7699 94.0087 88.1733C94.2971 87.5734 94.6981 87.1061 95.2118 86.7713C95.7289 86.4332 96.3321 86.2642 97.0215 86.2642C97.4192 86.2642 97.812 86.3305 98.1998 86.4631C98.5875 86.5956 98.9405 86.8111 99.2587 87.1094C99.5769 87.4044 99.8304 87.7955 100.019 88.2827C100.208 88.7699 100.303 89.3698 100.303 90.0824V90.5795H94.4164V89.5653H99.1096C99.1096 89.1345 99.0234 88.75 98.851 88.4119C98.682 88.0739 98.44 87.8071 98.1252 87.6115C97.8136 87.416 97.4457 87.3182 97.0215 87.3182C96.5542 87.3182 96.1498 87.4342 95.8084 87.6662C95.4703 87.8949 95.2102 88.1932 95.0279 88.5611C94.8456 88.929 94.7544 89.3234 94.7544 89.7443V90.4205C94.7544 90.9972 94.8539 91.486 95.0527 91.8871C95.2549 92.2848 95.535 92.5881 95.8929 92.7969C96.2509 93.0024 96.6668 93.1051 97.1408 93.1051C97.449 93.1051 97.7275 93.062 97.976 92.9759C98.2279 92.8864 98.445 92.7538 98.6273 92.5781C98.8096 92.3991 98.9505 92.1771 99.0499 91.9119L100.183 92.2301C100.064 92.6146 99.8636 92.9527 99.5819 93.2443C99.3001 93.5327 98.9521 93.758 98.5378 93.9205C98.1235 94.0795 97.6578 94.1591 97.1408 94.1591ZM103.261 83.8182V94H102.088V83.8182H103.261ZM108.512 94.1591C107.823 94.1591 107.218 93.995 106.697 93.6669C106.18 93.3388 105.776 92.8797 105.484 92.2898C105.196 91.6998 105.052 91.0104 105.052 90.2216C105.052 89.4261 105.196 88.7318 105.484 88.1385C105.776 87.5452 106.18 87.0845 106.697 86.7564C107.218 86.4283 107.823 86.2642 108.512 86.2642C109.201 86.2642 109.805 86.4283 110.322 86.7564C110.842 87.0845 111.246 87.5452 111.535 88.1385C111.826 88.7318 111.972 89.4261 111.972 90.2216C111.972 91.0104 111.826 91.6998 111.535 92.2898C111.246 92.8797 110.842 93.3388 110.322 93.6669C109.805 93.995 109.201 94.1591 108.512 94.1591ZM108.512 93.1051C109.036 93.1051 109.467 92.9709 109.805 92.7024C110.143 92.4339 110.393 92.081 110.555 91.6435C110.718 91.206 110.799 90.732 110.799 90.2216C110.799 89.7112 110.718 89.2356 110.555 88.7947C110.393 88.3539 110.143 87.9976 109.805 87.7259C109.467 87.4541 109.036 87.3182 108.512 87.3182C107.988 87.3182 107.558 87.4541 107.219 87.7259C106.881 87.9976 106.631 88.3539 106.469 88.7947C106.306 89.2356 106.225 89.7112 106.225 90.2216C106.225 90.732 106.306 91.206 106.469 91.6435C106.631 92.081 106.881 92.4339 107.219 92.7024C107.558 92.9709 107.988 93.1051 108.512 93.1051ZM113.763 96.8636V86.3636H114.897V87.5767H115.036C115.122 87.4441 115.242 87.2751 115.394 87.0696C115.55 86.8608 115.772 86.6752 116.06 86.5128C116.352 86.3471 116.746 86.2642 117.243 86.2642C117.886 86.2642 118.453 86.425 118.944 86.7464C119.434 87.0679 119.817 87.5237 120.092 88.1136C120.367 88.7036 120.505 89.3996 120.505 90.2017C120.505 91.0104 120.367 91.7114 120.092 92.3047C119.817 92.8946 119.436 93.352 118.949 93.6768C118.461 93.9983 117.9 94.1591 117.263 94.1591C116.773 94.1591 116.38 94.0779 116.085 93.9155C115.79 93.7498 115.563 93.5625 115.404 93.3537C115.245 93.1416 115.122 92.9659 115.036 92.8267H114.937V96.8636H113.763ZM114.917 90.1818C114.917 90.7585 115.001 91.2673 115.17 91.7081C115.339 92.1456 115.586 92.4886 115.911 92.7372C116.236 92.9825 116.634 93.1051 117.104 93.1051C117.595 93.1051 118.004 92.9759 118.332 92.7173C118.664 92.4555 118.912 92.1042 119.078 91.6634C119.247 91.2192 119.331 90.7254 119.331 90.1818C119.331 89.6449 119.249 89.161 119.083 88.7301C118.921 88.2959 118.674 87.9529 118.342 87.701C118.014 87.4458 117.601 87.3182 117.104 87.3182C116.627 87.3182 116.226 87.4392 115.901 87.6811C115.576 87.9197 115.331 88.2545 115.165 88.6854C115 89.1129 114.917 89.6117 114.917 90.1818ZM122.295 94V86.3636H123.428V87.5568H123.528C123.687 87.1491 123.943 86.8326 124.298 86.6072C124.653 86.3786 125.079 86.2642 125.576 86.2642C126.08 86.2642 126.499 86.3786 126.834 86.6072C127.172 86.8326 127.435 87.1491 127.624 87.5568H127.704C127.899 87.1624 128.193 86.8492 128.584 86.6172C128.975 86.3819 129.444 86.2642 129.991 86.2642C130.673 86.2642 131.232 86.478 131.666 86.9055C132.1 87.3298 132.317 87.991 132.317 88.8892V94H131.144V88.8892C131.144 88.3258 130.99 87.9231 130.682 87.6811C130.373 87.4392 130.01 87.3182 129.593 87.3182C129.056 87.3182 128.64 87.4806 128.345 87.8054C128.05 88.1269 127.903 88.5346 127.903 89.0284V94H126.709V88.7699C126.709 88.3357 126.568 87.986 126.287 87.7209C126.005 87.4524 125.642 87.3182 125.198 87.3182C124.893 87.3182 124.608 87.3994 124.343 87.5618C124.081 87.7242 123.869 87.9496 123.706 88.2379C123.547 88.523 123.468 88.8527 123.468 89.2273V94H122.295ZM137.664 94.1591C136.928 94.1591 136.294 93.9967 135.76 93.6719C135.23 93.3438 134.82 92.8864 134.532 92.2997C134.247 91.7098 134.105 91.0237 134.105 90.2415C134.105 89.4593 134.247 88.7699 134.532 88.1733C134.82 87.5734 135.222 87.1061 135.735 86.7713C136.252 86.4332 136.856 86.2642 137.545 86.2642C137.943 86.2642 138.335 86.3305 138.723 86.4631C139.111 86.5956 139.464 86.8111 139.782 87.1094C140.1 87.4044 140.354 87.7955 140.543 88.2827C140.732 88.7699 140.826 89.3698 140.826 90.0824V90.5795H134.94V89.5653H139.633C139.633 89.1345 139.547 88.75 139.374 88.4119C139.205 88.0739 138.963 87.8071 138.649 87.6115C138.337 87.416 137.969 87.3182 137.545 87.3182C137.078 87.3182 136.673 87.4342 136.332 87.6662C135.994 87.8949 135.734 88.1932 135.551 88.5611C135.369 88.929 135.278 89.3234 135.278 89.7443V90.4205C135.278 90.9972 135.377 91.486 135.576 91.8871C135.778 92.2848 136.058 92.5881 136.416 92.7969C136.774 93.0024 137.19 93.1051 137.664 93.1051C137.972 93.1051 138.251 93.062 138.499 92.9759C138.751 92.8864 138.968 92.7538 139.151 92.5781C139.333 92.3991 139.474 92.1771 139.573 91.9119L140.707 92.2301C140.588 92.6146 140.387 92.9527 140.105 93.2443C139.824 93.5327 139.476 93.758 139.061 93.9205C138.647 94.0795 138.181 94.1591 137.664 94.1591ZM143.784 89.4062V94H142.611V86.3636H143.744V87.5568H143.844C144.023 87.169 144.295 86.8575 144.659 86.6222C145.024 86.3835 145.494 86.2642 146.071 86.2642C146.588 86.2642 147.041 86.3703 147.428 86.5824C147.816 86.7912 148.118 87.1094 148.333 87.5369C148.549 87.9612 148.656 88.4981 148.656 89.1477V94H147.483V89.2273C147.483 88.6274 147.327 88.16 147.016 87.8253C146.704 87.4872 146.277 87.3182 145.733 87.3182C145.359 87.3182 145.024 87.3994 144.729 87.5618C144.437 87.7242 144.207 87.9612 144.038 88.2727C143.869 88.5843 143.784 88.9621 143.784 89.4062ZM154.121 86.3636V87.358H150.164V86.3636H154.121ZM151.317 84.5341H152.491V91.8125C152.491 92.1439 152.539 92.3925 152.635 92.5582C152.734 92.7206 152.86 92.83 153.013 92.8864C153.169 92.9394 153.333 92.9659 153.505 92.9659C153.634 92.9659 153.74 92.9593 153.823 92.946C153.906 92.9295 153.972 92.9162 154.022 92.9062L154.261 93.9602C154.181 93.9901 154.07 94.0199 153.928 94.0497C153.785 94.0829 153.604 94.0994 153.386 94.0994C153.054 94.0994 152.729 94.0282 152.411 93.8857C152.096 93.7431 151.835 93.526 151.626 93.2344C151.42 92.9427 151.317 92.5748 151.317 92.1307V84.5341ZM2.31889 129V118.818H5.87855C6.58783 118.818 7.17282 118.941 7.63352 119.186C8.09422 119.428 8.43726 119.754 8.66264 120.165C8.88802 120.573 9.00071 121.026 9.00071 121.523C9.00071 121.96 8.92282 122.321 8.76705 122.607C8.61458 122.892 8.41241 123.117 8.16051 123.283C7.91193 123.448 7.64181 123.571 7.35014 123.651V123.75C7.6617 123.77 7.97491 123.879 8.28977 124.078C8.60464 124.277 8.86813 124.562 9.08026 124.933C9.29238 125.304 9.39844 125.759 9.39844 126.295C9.39844 126.806 9.28243 127.265 9.05043 127.673C8.81842 128.08 8.45218 128.403 7.9517 128.642C7.45123 128.881 6.79995 129 5.99787 129H2.31889ZM3.55185 127.906H5.99787C6.80327 127.906 7.375 127.75 7.71307 127.439C8.05445 127.124 8.22514 126.743 8.22514 126.295C8.22514 125.951 8.13731 125.633 7.96165 125.341C7.78599 125.046 7.53575 124.811 7.21094 124.635C6.88613 124.456 6.50166 124.366 6.05753 124.366H3.55185V127.906ZM3.55185 123.293H5.83878C6.20999 123.293 6.54474 123.22 6.84304 123.074C7.14465 122.928 7.38329 122.723 7.55895 122.457C7.73793 122.192 7.82741 121.881 7.82741 121.523C7.82741 121.075 7.67164 120.696 7.36009 120.384C7.04853 120.069 6.55469 119.912 5.87855 119.912H3.55185V123.293ZM13.5124 129.179C13.0285 129.179 12.5894 129.088 12.195 128.906C11.8005 128.72 11.4873 128.453 11.2553 128.105C11.0233 127.754 10.9073 127.33 10.9073 126.832C10.9073 126.395 10.9935 126.04 11.1658 125.768C11.3382 125.493 11.5685 125.278 11.8569 125.122C12.1452 124.966 12.4634 124.85 12.8114 124.774C13.1628 124.695 13.5157 124.632 13.8704 124.585C14.3344 124.526 14.7106 124.481 14.9989 124.451C15.2906 124.418 15.5027 124.363 15.6353 124.287C15.7712 124.211 15.8391 124.078 15.8391 123.889V123.849C15.8391 123.359 15.7049 122.978 15.4364 122.706C15.1713 122.434 14.7686 122.298 14.2283 122.298C13.6682 122.298 13.229 122.421 12.9109 122.666C12.5927 122.911 12.369 123.173 12.2397 123.452L11.1261 123.054C11.3249 122.59 11.5901 122.229 11.9215 121.97C12.2563 121.708 12.6209 121.526 13.0153 121.423C13.413 121.317 13.8041 121.264 14.1886 121.264C14.4338 121.264 14.7156 121.294 15.0337 121.354C15.3552 121.41 15.6651 121.528 15.9634 121.707C16.265 121.886 16.5153 122.156 16.7141 122.517C16.913 122.878 17.0124 123.362 17.0124 123.969V129H15.8391V127.966H15.7795C15.6999 128.132 15.5674 128.309 15.3817 128.498C15.1961 128.687 14.9492 128.848 14.641 128.98C14.3327 129.113 13.9566 129.179 13.5124 129.179ZM13.6914 128.125C14.1554 128.125 14.5465 128.034 14.8647 127.852C15.1862 127.669 15.4281 127.434 15.5906 127.146C15.7563 126.857 15.8391 126.554 15.8391 126.236V125.162C15.7894 125.222 15.68 125.276 15.511 125.326C15.3453 125.372 15.1531 125.414 14.9343 125.45C14.7189 125.483 14.5084 125.513 14.3029 125.54C14.1007 125.563 13.9367 125.583 13.8107 125.599C13.5058 125.639 13.2208 125.704 12.9556 125.793C12.6938 125.879 12.4817 126.01 12.3192 126.186C12.1602 126.358 12.0806 126.594 12.0806 126.892C12.0806 127.3 12.2314 127.608 12.533 127.817C12.8379 128.022 13.2241 128.125 13.6914 128.125ZM22.2562 129.159C21.5403 129.159 20.9238 128.99 20.4068 128.652C19.8897 128.314 19.492 127.848 19.2136 127.255C18.9352 126.662 18.796 125.984 18.796 125.222C18.796 124.446 18.9385 123.762 19.2235 123.168C19.5119 122.572 19.9129 122.106 20.4267 121.771C20.9437 121.433 21.5469 121.264 22.2363 121.264C22.7733 121.264 23.2572 121.364 23.688 121.562C24.1189 121.761 24.4719 122.04 24.747 122.398C25.0221 122.756 25.1928 123.173 25.2591 123.651H24.0858C23.9963 123.303 23.7974 122.994 23.4892 122.726C23.1842 122.454 22.7733 122.318 22.2562 122.318C21.7988 122.318 21.3978 122.437 21.0531 122.676C20.7117 122.911 20.4449 123.245 20.2527 123.675C20.0637 124.103 19.9693 124.605 19.9693 125.182C19.9693 125.772 20.0621 126.286 20.2477 126.723C20.4366 127.161 20.7018 127.5 21.0431 127.742C21.3878 127.984 21.7922 128.105 22.2562 128.105C22.5611 128.105 22.8379 128.052 23.0865 127.946C23.335 127.84 23.5455 127.688 23.7179 127.489C23.8902 127.29 24.0128 127.051 24.0858 126.773H25.2591C25.1928 127.223 25.0287 127.629 24.7669 127.991C24.5083 128.349 24.1653 128.634 23.7377 128.846C23.3135 129.055 22.8197 129.159 22.2562 129.159ZM28.068 126.216L28.0481 124.764H28.2868L31.6277 121.364H33.0794L29.5197 124.963H29.4203L28.068 126.216ZM26.9743 129V118.818H28.1475V129H26.9743ZM31.8265 129L28.8436 125.222L29.6788 124.406L33.318 129H31.8265ZM37.4767 129.159C36.7409 129.159 36.1062 128.997 35.5726 128.672C35.0423 128.344 34.633 127.886 34.3446 127.3C34.0596 126.71 33.9171 126.024 33.9171 125.241C33.9171 124.459 34.0596 123.77 34.3446 123.173C34.633 122.573 35.034 122.106 35.5478 121.771C36.0648 121.433 36.668 121.264 37.3574 121.264C37.7551 121.264 38.1479 121.33 38.5357 121.463C38.9235 121.596 39.2765 121.811 39.5946 122.109C39.9128 122.404 40.1664 122.795 40.3553 123.283C40.5442 123.77 40.6387 124.37 40.6387 125.082V125.58H34.7523V124.565H39.4455C39.4455 124.134 39.3593 123.75 39.187 123.412C39.0179 123.074 38.776 122.807 38.4611 122.612C38.1496 122.416 37.7817 122.318 37.3574 122.318C36.8901 122.318 36.4857 122.434 36.1444 122.666C35.8063 122.895 35.5461 123.193 35.3638 123.561C35.1815 123.929 35.0904 124.323 35.0904 124.744V125.42C35.0904 125.997 35.1898 126.486 35.3887 126.887C35.5908 127.285 35.8709 127.588 36.2289 127.797C36.5868 128.002 37.0028 128.105 37.4767 128.105C37.785 128.105 38.0634 128.062 38.312 127.976C38.5639 127.886 38.781 127.754 38.9632 127.578C39.1455 127.399 39.2864 127.177 39.3858 126.912L40.5194 127.23C40.4 127.615 40.1995 127.953 39.9178 128.244C39.6361 128.533 39.2881 128.758 38.8738 128.92C38.4595 129.08 37.9938 129.159 37.4767 129.159ZM43.5968 124.406V129H42.4235V121.364H43.557V122.557H43.6564C43.8354 122.169 44.1072 121.857 44.4718 121.622C44.8364 121.384 45.307 121.264 45.8837 121.264C46.4007 121.264 46.8532 121.37 47.2409 121.582C47.6287 121.791 47.9303 122.109 48.1458 122.537C48.3612 122.961 48.4689 123.498 48.4689 124.148V129H47.2956V124.227C47.2956 123.627 47.1399 123.16 46.8283 122.825C46.5167 122.487 46.0892 122.318 45.5456 122.318C45.1711 122.318 44.8364 122.399 44.5414 122.562C44.2497 122.724 44.0194 122.961 43.8503 123.273C43.6813 123.584 43.5968 123.962 43.5968 124.406ZM53.4964 129.159C52.8601 129.159 52.2983 128.998 51.8111 128.677C51.3239 128.352 50.9427 127.895 50.6676 127.305C50.3925 126.711 50.255 126.01 50.255 125.202C50.255 124.4 50.3925 123.704 50.6676 123.114C50.9427 122.524 51.3255 122.068 51.8161 121.746C52.3066 121.425 52.8733 121.264 53.5163 121.264C54.0135 121.264 54.4063 121.347 54.6946 121.513C54.9863 121.675 55.2083 121.861 55.3608 122.07C55.5166 122.275 55.6375 122.444 55.7237 122.577H55.8232V118.818H56.9964V129H55.8629V127.827H55.7237C55.6375 127.966 55.5149 128.142 55.3558 128.354C55.1967 128.562 54.9697 128.75 54.6747 128.915C54.3797 129.078 53.987 129.159 53.4964 129.159ZM53.6555 128.105C54.1262 128.105 54.5239 127.982 54.8487 127.737C55.1735 127.489 55.4205 127.146 55.5895 126.708C55.7585 126.267 55.843 125.759 55.843 125.182C55.843 124.612 55.7602 124.113 55.5945 123.685C55.4287 123.254 55.1835 122.92 54.8587 122.681C54.5339 122.439 54.1328 122.318 53.6555 122.318C53.1584 122.318 52.7441 122.446 52.4126 122.701C52.0845 122.953 51.8376 123.296 51.6719 123.73C51.5095 124.161 51.4283 124.645 51.4283 125.182C51.4283 125.725 51.5111 126.219 51.6768 126.663C51.8459 127.104 52.0945 127.455 52.4226 127.717C52.754 127.976 53.165 128.105 53.6555 128.105ZM66.1293 129.159C65.4929 129.159 64.9311 128.998 64.4439 128.677C63.9567 128.352 63.5755 127.895 63.3004 127.305C63.0253 126.711 62.8878 126.01 62.8878 125.202C62.8878 124.4 63.0253 123.704 63.3004 123.114C63.5755 122.524 63.9583 122.068 64.4489 121.746C64.9394 121.425 65.5062 121.264 66.1491 121.264C66.6463 121.264 67.0391 121.347 67.3274 121.513C67.6191 121.675 67.8411 121.861 67.9936 122.07C68.1494 122.275 68.2704 122.444 68.3565 122.577H68.456V118.818H69.6293V129H68.4957V127.827H68.3565C68.2704 127.966 68.1477 128.142 67.9886 128.354C67.8295 128.562 67.6025 128.75 67.3075 128.915C67.0125 129.078 66.6198 129.159 66.1293 129.159ZM66.2884 128.105C66.759 128.105 67.1567 127.982 67.4815 127.737C67.8063 127.489 68.0533 127.146 68.2223 126.708C68.3913 126.267 68.4759 125.759 68.4759 125.182C68.4759 124.612 68.393 124.113 68.2273 123.685C68.0616 123.254 67.8163 122.92 67.4915 122.681C67.1667 122.439 66.7656 122.318 66.2884 122.318C65.7912 122.318 65.3769 122.446 65.0455 122.701C64.7173 122.953 64.4704 123.296 64.3047 123.73C64.1423 124.161 64.0611 124.645 64.0611 125.182C64.0611 125.725 64.1439 126.219 64.3097 126.663C64.4787 127.104 64.7273 127.455 65.0554 127.717C65.3868 127.976 65.7978 128.105 66.2884 128.105ZM75.1428 129.159C74.407 129.159 73.7723 128.997 73.2386 128.672C72.7083 128.344 72.299 127.886 72.0107 127.3C71.7256 126.71 71.5831 126.024 71.5831 125.241C71.5831 124.459 71.7256 123.77 72.0107 123.173C72.299 122.573 72.7 122.106 73.2138 121.771C73.7308 121.433 74.334 121.264 75.0234 121.264C75.4212 121.264 75.8139 121.33 76.2017 121.463C76.5895 121.596 76.9425 121.811 77.2607 122.109C77.5788 122.404 77.8324 122.795 78.0213 123.283C78.2102 123.77 78.3047 124.37 78.3047 125.082V125.58H72.4183V124.565H77.1115C77.1115 124.134 77.0253 123.75 76.853 123.412C76.6839 123.074 76.442 122.807 76.1271 122.612C75.8156 122.416 75.4477 122.318 75.0234 122.318C74.5561 122.318 74.1518 122.434 73.8104 122.666C73.4723 122.895 73.2121 123.193 73.0298 123.561C72.8475 123.929 72.7564 124.323 72.7564 124.744V125.42C72.7564 125.997 72.8558 126.486 73.0547 126.887C73.2569 127.285 73.5369 127.588 73.8949 127.797C74.2528 128.002 74.6688 128.105 75.1428 128.105C75.451 128.105 75.7294 128.062 75.978 127.976C76.2299 127.886 76.447 127.754 76.6293 127.578C76.8116 127.399 76.9524 127.177 77.0518 126.912L78.1854 127.23C78.0661 127.615 77.8655 127.953 77.5838 128.244C77.3021 128.533 76.9541 128.758 76.5398 128.92C76.1255 129.08 75.6598 129.159 75.1428 129.159ZM86.1014 121.364L83.2775 129H82.0843L79.2605 121.364H80.5332L82.6412 127.449H82.7207L84.8287 121.364H86.1014ZM90.5783 129.159C89.8425 129.159 89.2078 128.997 88.6742 128.672C88.1439 128.344 87.7346 127.886 87.4462 127.3C87.1612 126.71 87.0186 126.024 87.0186 125.241C87.0186 124.459 87.1612 123.77 87.4462 123.173C87.7346 122.573 88.1356 122.106 88.6493 121.771C89.1664 121.433 89.7696 121.264 90.459 121.264C90.8567 121.264 91.2495 121.33 91.6373 121.463C92.025 121.596 92.378 121.811 92.6962 122.109C93.0144 122.404 93.2679 122.795 93.4569 123.283C93.6458 123.77 93.7402 124.37 93.7402 125.082V125.58H87.8539V124.565H92.5471C92.5471 124.134 92.4609 123.75 92.2885 123.412C92.1195 123.074 91.8775 122.807 91.5627 122.612C91.2511 122.416 90.8832 122.318 90.459 122.318C89.9917 122.318 89.5873 122.434 89.2459 122.666C88.9078 122.895 88.6477 123.193 88.4654 123.561C88.2831 123.929 88.1919 124.323 88.1919 124.744V125.42C88.1919 125.997 88.2914 126.486 88.4902 126.887C88.6924 127.285 88.9725 127.588 89.3304 127.797C89.6884 128.002 90.1043 128.105 90.5783 128.105C90.8865 128.105 91.165 128.062 91.4135 127.976C91.6654 127.886 91.8825 127.754 92.0648 127.578C92.2471 127.399 92.388 127.177 92.4874 126.912L93.6209 127.23C93.5016 127.615 93.3011 127.953 93.0194 128.244C92.7376 128.533 92.3896 128.758 91.9753 128.92C91.561 129.08 91.0953 129.159 90.5783 129.159ZM96.6983 118.818V129H95.525V118.818H96.6983ZM101.95 129.159C101.26 129.159 100.655 128.995 100.135 128.667C99.6179 128.339 99.2135 127.88 98.9219 127.29C98.6335 126.7 98.4893 126.01 98.4893 125.222C98.4893 124.426 98.6335 123.732 98.9219 123.138C99.2135 122.545 99.6179 122.085 100.135 121.756C100.655 121.428 101.26 121.264 101.95 121.264C102.639 121.264 103.242 121.428 103.759 121.756C104.28 122.085 104.684 122.545 104.972 123.138C105.264 123.732 105.41 124.426 105.41 125.222C105.41 126.01 105.264 126.7 104.972 127.29C104.684 127.88 104.28 128.339 103.759 128.667C103.242 128.995 102.639 129.159 101.95 129.159ZM101.95 128.105C102.473 128.105 102.904 127.971 103.242 127.702C103.58 127.434 103.83 127.081 103.993 126.643C104.155 126.206 104.237 125.732 104.237 125.222C104.237 124.711 104.155 124.236 103.993 123.795C103.83 123.354 103.58 122.998 103.242 122.726C102.904 122.454 102.473 122.318 101.95 122.318C101.426 122.318 100.995 122.454 100.657 122.726C100.319 122.998 100.069 123.354 99.9062 123.795C99.7438 124.236 99.6626 124.711 99.6626 125.222C99.6626 125.732 99.7438 126.206 99.9062 126.643C100.069 127.081 100.319 127.434 100.657 127.702C100.995 127.971 101.426 128.105 101.95 128.105ZM107.201 131.864V121.364H108.334V122.577H108.474C108.56 122.444 108.679 122.275 108.831 122.07C108.987 121.861 109.209 121.675 109.498 121.513C109.789 121.347 110.184 121.264 110.681 121.264C111.324 121.264 111.891 121.425 112.381 121.746C112.872 122.068 113.255 122.524 113.53 123.114C113.805 123.704 113.942 124.4 113.942 125.202C113.942 126.01 113.805 126.711 113.53 127.305C113.255 127.895 112.873 128.352 112.386 128.677C111.899 128.998 111.337 129.159 110.701 129.159C110.21 129.159 109.818 129.078 109.523 128.915C109.228 128.75 109.001 128.562 108.841 128.354C108.682 128.142 108.56 127.966 108.474 127.827H108.374V131.864H107.201ZM108.354 125.182C108.354 125.759 108.439 126.267 108.608 126.708C108.777 127.146 109.024 127.489 109.349 127.737C109.673 127.982 110.071 128.105 110.542 128.105C111.032 128.105 111.442 127.976 111.77 127.717C112.101 127.455 112.35 127.104 112.515 126.663C112.684 126.219 112.769 125.725 112.769 125.182C112.769 124.645 112.686 124.161 112.52 123.73C112.358 123.296 112.111 122.953 111.78 122.701C111.452 122.446 111.039 122.318 110.542 122.318C110.064 122.318 109.663 122.439 109.339 122.681C109.014 122.92 108.769 123.254 108.603 123.685C108.437 124.113 108.354 124.612 108.354 125.182ZM115.732 129V121.364H116.866V122.557H116.965C117.124 122.149 117.381 121.833 117.736 121.607C118.09 121.379 118.516 121.264 119.013 121.264C119.517 121.264 119.936 121.379 120.271 121.607C120.609 121.833 120.873 122.149 121.062 122.557H121.141C121.337 122.162 121.63 121.849 122.021 121.617C122.412 121.382 122.881 121.264 123.428 121.264C124.111 121.264 124.669 121.478 125.104 121.906C125.538 122.33 125.755 122.991 125.755 123.889V129H124.581V123.889C124.581 123.326 124.427 122.923 124.119 122.681C123.811 122.439 123.448 122.318 123.03 122.318C122.493 122.318 122.077 122.481 121.782 122.805C121.488 123.127 121.34 123.535 121.34 124.028V129H120.147V123.77C120.147 123.336 120.006 122.986 119.724 122.721C119.443 122.452 119.08 122.318 118.635 122.318C118.331 122.318 118.046 122.399 117.78 122.562C117.519 122.724 117.306 122.95 117.144 123.238C116.985 123.523 116.905 123.853 116.905 124.227V129H115.732ZM131.102 129.159C130.366 129.159 129.731 128.997 129.198 128.672C128.667 128.344 128.258 127.886 127.97 127.3C127.685 126.71 127.542 126.024 127.542 125.241C127.542 124.459 127.685 123.77 127.97 123.173C128.258 122.573 128.659 122.106 129.173 121.771C129.69 121.433 130.293 121.264 130.982 121.264C131.38 121.264 131.773 121.33 132.161 121.463C132.548 121.596 132.901 121.811 133.22 122.109C133.538 122.404 133.791 122.795 133.98 123.283C134.169 123.77 134.264 124.37 134.264 125.082V125.58H128.377V124.565H133.07C133.07 124.134 132.984 123.75 132.812 123.412C132.643 123.074 132.401 122.807 132.086 122.612C131.775 122.416 131.407 122.318 130.982 122.318C130.515 122.318 130.111 122.434 129.769 122.666C129.431 122.895 129.171 123.193 128.989 123.561C128.807 123.929 128.715 124.323 128.715 124.744V125.42C128.715 125.997 128.815 126.486 129.014 126.887C129.216 127.285 129.496 127.588 129.854 127.797C130.212 128.002 130.628 128.105 131.102 128.105C131.41 128.105 131.688 128.062 131.937 127.976C132.189 127.886 132.406 127.754 132.588 127.578C132.771 127.399 132.911 127.177 133.011 126.912L134.144 127.23C134.025 127.615 133.825 127.953 133.543 128.244C133.261 128.533 132.913 128.758 132.499 128.92C132.084 129.08 131.619 129.159 131.102 129.159ZM137.222 124.406V129H136.048V121.364H137.182V122.557H137.281C137.46 122.169 137.732 121.857 138.097 121.622C138.461 121.384 138.932 121.264 139.509 121.264C140.026 121.264 140.478 121.37 140.866 121.582C141.254 121.791 141.555 122.109 141.771 122.537C141.986 122.961 142.094 123.498 142.094 124.148V129H140.921V124.227C140.921 123.627 140.765 123.16 140.453 122.825C140.142 122.487 139.714 122.318 139.171 122.318C138.796 122.318 138.461 122.399 138.166 122.562C137.875 122.724 137.644 122.961 137.475 123.273C137.306 123.584 137.222 123.962 137.222 124.406ZM147.559 121.364V122.358H143.602V121.364H147.559ZM144.755 119.534H145.928V126.812C145.928 127.144 145.976 127.393 146.072 127.558C146.172 127.721 146.298 127.83 146.45 127.886C146.606 127.939 146.77 127.966 146.942 127.966C147.072 127.966 147.178 127.959 147.261 127.946C147.344 127.929 147.41 127.916 147.46 127.906L147.698 128.96C147.619 128.99 147.508 129.02 147.365 129.05C147.223 129.083 147.042 129.099 146.823 129.099C146.492 129.099 146.167 129.028 145.849 128.886C145.534 128.743 145.272 128.526 145.063 128.234C144.858 127.943 144.755 127.575 144.755 127.131V119.534ZM2.31889 164V153.818H8.42401V154.912H3.55185V158.352H7.96662V159.446H3.55185V164H2.31889ZM14.7106 160.878V156.364H15.8839V164H14.7106V162.707H14.631C14.4521 163.095 14.1737 163.425 13.7958 163.697C13.418 163.965 12.9407 164.099 12.364 164.099C11.8867 164.099 11.4625 163.995 11.0913 163.786C10.7201 163.574 10.4284 163.256 10.2163 162.832C10.0041 162.404 9.89808 161.866 9.89808 161.216V156.364H11.0714V161.136C11.0714 161.693 11.2272 162.137 11.5387 162.469C11.8536 162.8 12.2546 162.966 12.7418 162.966C13.0335 162.966 13.3301 162.891 13.6317 162.742C13.9367 162.593 14.1919 162.364 14.3974 162.056C14.6062 161.748 14.7106 161.355 14.7106 160.878ZM19.2061 153.818V164H18.0328V153.818H19.2061ZM22.5284 153.818V164H21.3551V153.818H22.5284ZM34.024 158.074L32.97 158.372C32.9037 158.196 32.8059 158.026 32.6767 157.86C32.5507 157.691 32.3784 157.552 32.1596 157.442C31.9409 157.333 31.6608 157.278 31.3194 157.278C30.8521 157.278 30.4627 157.386 30.1511 157.602C29.8429 157.814 29.6887 158.084 29.6887 158.412C29.6887 158.704 29.7948 158.934 30.0069 159.103C30.219 159.272 30.5505 159.413 31.0012 159.526L32.1348 159.804C32.8175 159.97 33.3263 160.223 33.661 160.565C33.9958 160.903 34.1632 161.339 34.1632 161.872C34.1632 162.31 34.0372 162.701 33.7853 163.045C33.5368 163.39 33.1887 163.662 32.7413 163.861C32.2939 164.06 31.7735 164.159 31.1802 164.159C30.4013 164.159 29.7567 163.99 29.2463 163.652C28.7359 163.314 28.4127 162.82 28.2768 162.17L29.3904 161.892C29.4965 162.303 29.697 162.611 29.992 162.817C30.2903 163.022 30.6797 163.125 31.1603 163.125C31.7072 163.125 32.1414 163.009 32.4629 162.777C32.7877 162.542 32.9501 162.26 32.9501 161.932C32.9501 161.667 32.8573 161.445 32.6717 161.266C32.4861 161.083 32.2011 160.947 31.8166 160.858L30.5439 160.56C29.8445 160.394 29.3308 160.137 29.0027 159.789C28.6779 159.438 28.5154 158.999 28.5154 158.472C28.5154 158.041 28.6364 157.66 28.8784 157.328C29.1236 156.997 29.4567 156.737 29.8777 156.548C30.3019 156.359 30.7825 156.264 31.3194 156.264C32.0751 156.264 32.6684 156.43 33.0993 156.761C33.5334 157.093 33.8417 157.53 34.024 158.074ZM39.2504 156.364V157.358H35.293V156.364H39.2504ZM36.4464 154.534H37.6197V161.812C37.6197 162.144 37.6677 162.393 37.7638 162.558C37.8633 162.721 37.9892 162.83 38.1417 162.886C38.2975 162.939 38.4615 162.966 38.6339 162.966C38.7631 162.966 38.8692 162.959 38.9521 162.946C39.0349 162.929 39.1012 162.916 39.1509 162.906L39.3896 163.96C39.31 163.99 39.199 164.02 39.0565 164.05C38.9139 164.083 38.7333 164.099 38.5146 164.099C38.1831 164.099 37.8583 164.028 37.5401 163.886C37.2253 163.743 36.9634 163.526 36.7546 163.234C36.5491 162.943 36.4464 162.575 36.4464 162.131V154.534ZM43.2624 164.179C42.7785 164.179 42.3394 164.088 41.945 163.906C41.5505 163.72 41.2373 163.453 41.0053 163.105C40.7733 162.754 40.6573 162.33 40.6573 161.832C40.6573 161.395 40.7435 161.04 40.9158 160.768C41.0882 160.493 41.3185 160.278 41.6069 160.122C41.8952 159.966 42.2134 159.85 42.5614 159.774C42.9128 159.695 43.2657 159.632 43.6204 159.585C44.0844 159.526 44.4606 159.481 44.7489 159.451C45.0406 159.418 45.2527 159.363 45.3853 159.287C45.5212 159.211 45.5891 159.078 45.5891 158.889V158.849C45.5891 158.359 45.4549 157.978 45.1864 157.706C44.9213 157.434 44.5186 157.298 43.9783 157.298C43.4182 157.298 42.979 157.421 42.6609 157.666C42.3427 157.911 42.119 158.173 41.9897 158.452L40.8761 158.054C41.0749 157.59 41.3401 157.229 41.6715 156.97C42.0063 156.708 42.3709 156.526 42.7653 156.423C43.163 156.317 43.5541 156.264 43.9386 156.264C44.1838 156.264 44.4656 156.294 44.7837 156.354C45.1052 156.41 45.4151 156.528 45.7134 156.707C46.015 156.886 46.2653 157.156 46.4641 157.517C46.663 157.878 46.7624 158.362 46.7624 158.969V164H45.5891V162.966H45.5295C45.4499 163.132 45.3174 163.309 45.1317 163.498C44.9461 163.687 44.6992 163.848 44.391 163.98C44.0827 164.113 43.7066 164.179 43.2624 164.179ZM43.4414 163.125C43.9054 163.125 44.2965 163.034 44.6147 162.852C44.9362 162.669 45.1781 162.434 45.3406 162.146C45.5063 161.857 45.5891 161.554 45.5891 161.236V160.162C45.5394 160.222 45.43 160.276 45.261 160.326C45.0953 160.372 44.9031 160.414 44.6843 160.45C44.4689 160.483 44.2584 160.513 44.0529 160.54C43.8507 160.563 43.6867 160.583 43.5607 160.599C43.2558 160.639 42.9708 160.704 42.7056 160.793C42.4438 160.879 42.2317 161.01 42.0692 161.186C41.9102 161.358 41.8306 161.594 41.8306 161.892C41.8306 162.3 41.9814 162.608 42.283 162.817C42.5879 163.022 42.9741 163.125 43.4414 163.125ZM52.0062 164.159C51.2903 164.159 50.6738 163.99 50.1568 163.652C49.6397 163.314 49.242 162.848 48.9636 162.255C48.6852 161.662 48.546 160.984 48.546 160.222C48.546 159.446 48.6885 158.762 48.9735 158.168C49.2619 157.572 49.6629 157.106 50.1767 156.771C50.6937 156.433 51.2969 156.264 51.9863 156.264C52.5233 156.264 53.0072 156.364 53.438 156.562C53.8689 156.761 54.2219 157.04 54.497 157.398C54.7721 157.756 54.9428 158.173 55.0091 158.651H53.8358C53.7463 158.303 53.5474 157.994 53.2392 157.726C52.9342 157.454 52.5233 157.318 52.0062 157.318C51.5488 157.318 51.1478 157.437 50.8031 157.676C50.4617 157.911 50.1949 158.245 50.0027 158.675C49.8137 159.103 49.7193 159.605 49.7193 160.182C49.7193 160.772 49.8121 161.286 49.9977 161.723C50.1866 162.161 50.4518 162.5 50.7931 162.742C51.1378 162.984 51.5422 163.105 52.0062 163.105C52.3111 163.105 52.5879 163.052 52.8365 162.946C53.085 162.84 53.2955 162.688 53.4679 162.489C53.6402 162.29 53.7628 162.051 53.8358 161.773H55.0091C54.9428 162.223 54.7787 162.629 54.5169 162.991C54.2583 163.349 53.9153 163.634 53.4877 163.846C53.0635 164.055 52.5697 164.159 52.0062 164.159ZM57.818 161.216L57.7981 159.764H58.0368L61.3777 156.364H62.8294L59.2697 159.963H59.1703L57.818 161.216ZM56.7243 164V153.818H57.8975V164H56.7243ZM61.5765 164L58.5936 160.222L59.4288 159.406L63.068 164H61.5765ZM5.46094 199H2.31889V188.818H5.60014C6.58783 188.818 7.433 189.022 8.13565 189.43C8.83831 189.834 9.37689 190.416 9.75142 191.175C10.1259 191.93 10.3132 192.835 10.3132 193.889C10.3132 194.95 10.1243 195.863 9.74645 196.629C9.36861 197.391 8.81842 197.978 8.09588 198.388C7.37334 198.796 6.49503 199 5.46094 199ZM3.55185 197.906H5.38139C6.22325 197.906 6.92093 197.744 7.47443 197.419C8.02794 197.094 8.44058 196.632 8.71236 196.032C8.98414 195.432 9.12003 194.718 9.12003 193.889C9.12003 193.067 8.9858 192.36 8.71733 191.766C8.44886 191.17 8.04782 190.712 7.5142 190.394C6.98059 190.073 6.31605 189.912 5.5206 189.912H3.55185V197.906ZM17.9496 191.364C17.8899 190.86 17.648 190.469 17.2237 190.19C16.7995 189.912 16.2791 189.773 15.6626 189.773C15.2119 189.773 14.8175 189.846 14.4794 189.991C14.1446 190.137 13.8828 190.338 13.6939 190.593C13.5083 190.848 13.4155 191.138 13.4155 191.463C13.4155 191.735 13.4801 191.969 13.6094 192.164C13.742 192.356 13.911 192.517 14.1165 192.646C14.322 192.772 14.5374 192.877 14.7628 192.96C14.9882 193.039 15.1953 193.104 15.3842 193.153L16.4183 193.432C16.6835 193.501 16.9785 193.598 17.3033 193.72C17.6314 193.843 17.9446 194.01 18.2429 194.222C18.5445 194.431 18.7931 194.7 18.9886 195.028C19.1842 195.356 19.282 195.759 19.282 196.236C19.282 196.786 19.1378 197.283 18.8494 197.727C18.5644 198.171 18.1468 198.524 17.5966 198.786C17.0497 199.048 16.3852 199.179 15.603 199.179C14.8738 199.179 14.2424 199.061 13.7088 198.826C13.1785 198.591 12.7609 198.263 12.456 197.842C12.1544 197.421 11.9837 196.932 11.9439 196.375H13.2166C13.2498 196.759 13.379 197.078 13.6044 197.33C13.8331 197.578 14.1214 197.764 14.4695 197.886C14.8208 198.006 15.1986 198.065 15.603 198.065C16.0736 198.065 16.4962 197.989 16.8707 197.837C17.2453 197.681 17.5419 197.465 17.7607 197.19C17.9794 196.912 18.0888 196.587 18.0888 196.216C18.0888 195.878 17.9943 195.603 17.8054 195.391C17.6165 195.179 17.3679 195.006 17.0597 194.874C16.7514 194.741 16.4183 194.625 16.0604 194.526L14.8075 194.168C14.0121 193.939 13.3823 193.612 12.9183 193.188C12.4543 192.764 12.2223 192.209 12.2223 191.523C12.2223 190.953 12.3764 190.455 12.6847 190.031C12.9962 189.604 13.4138 189.272 13.9375 189.037C14.4645 188.798 15.0528 188.679 15.7024 188.679C16.3587 188.679 16.942 188.797 17.4524 189.032C17.9628 189.264 18.3672 189.582 18.6655 189.987C18.9671 190.391 19.1262 190.85 19.1428 191.364H17.9496ZM21.7267 199H20.4341L24.1728 188.818H25.4455L29.1841 199H27.8915L24.8489 190.429H24.7694L21.7267 199ZM22.204 195.023H27.4142V196.116H22.204V195.023ZM2.73651 234H1.44389L5.18253 223.818H6.45526L10.1939 234H8.90128L5.85866 225.429H5.77912L2.73651 234ZM3.21378 230.023H8.42401V231.116H3.21378V230.023ZM13.0128 223.818V234H11.7798V223.818H13.0128ZM22.1468 234.139C21.4773 234.139 20.9006 234.017 20.4167 233.771C19.9328 233.526 19.56 233.19 19.2981 232.762C19.0363 232.335 18.9054 231.846 18.9054 231.295C18.9054 230.871 18.9949 230.495 19.1738 230.167C19.3561 229.835 19.6064 229.529 19.9245 229.247C20.246 228.962 20.6156 228.677 21.0332 228.392L22.5048 227.298C22.7931 227.109 23.0235 226.907 23.1958 226.692C23.3715 226.476 23.4593 226.195 23.4593 225.847C23.4593 225.588 23.345 225.338 23.1163 225.096C22.8909 224.854 22.5943 224.733 22.2264 224.733C21.9679 224.733 21.7392 224.799 21.5403 224.932C21.3448 225.061 21.1906 225.227 21.0779 225.429C20.9686 225.628 20.9139 225.833 20.9139 226.045C20.9139 226.284 20.9785 226.526 21.1078 226.771C21.2404 227.013 21.4077 227.262 21.6099 227.517C21.8154 227.769 22.0275 228.027 22.2463 228.293L26.9196 234H25.5076L21.6497 229.347C21.2917 228.916 20.9669 228.525 20.6752 228.173C20.3836 227.822 20.1516 227.476 19.9792 227.134C19.8069 226.793 19.7207 226.423 19.7207 226.026C19.7207 225.568 19.8218 225.167 20.024 224.822C20.2295 224.474 20.5162 224.204 20.8841 224.012C21.2553 223.817 21.6895 223.719 22.1866 223.719C22.697 223.719 23.1362 223.818 23.5041 224.017C23.872 224.213 24.1554 224.473 24.3542 224.798C24.5531 225.119 24.6525 225.469 24.6525 225.847C24.6525 226.334 24.5315 226.756 24.2896 227.114C24.0476 227.472 23.7179 227.805 23.3002 228.114L21.2718 229.625C20.8145 229.963 20.5046 230.291 20.3422 230.609C20.1797 230.928 20.0985 231.156 20.0985 231.295C20.0985 231.614 20.1814 231.91 20.3471 232.185C20.5128 232.46 20.7465 232.683 21.0481 232.852C21.3497 233.021 21.7027 233.105 22.1071 233.105C22.4915 233.105 22.8661 233.024 23.2306 232.862C23.5952 232.696 23.925 232.457 24.22 232.146C24.5183 231.834 24.7536 231.46 24.926 231.022C25.1016 230.585 25.1895 230.092 25.1895 229.545H26.323C26.323 230.222 26.2451 230.773 26.0893 231.201C25.9335 231.629 25.7579 231.963 25.5623 232.205C25.3668 232.447 25.2093 232.628 25.09 232.747C25.0502 232.797 25.0138 232.847 24.9806 232.896C24.9475 232.946 24.911 232.996 24.8713 233.045C24.5431 233.413 24.1288 233.688 23.6284 233.871C23.1279 234.05 22.6341 234.139 22.1468 234.139ZM32.315 223.818H33.7866L37.2468 232.27H37.3661L40.8263 223.818H42.2979V234H41.1445V226.264H41.0451L37.8633 234H36.7496L33.5678 226.264H33.4684V234H32.315V223.818ZM44.7701 234V223.818H46.003V232.906H50.736V234H44.7701Z" fill="white"/>
<path d="M1.0902 41V30.8182H7.71236V32.3643H2.93466V35.1286H7.36932V36.6747H2.93466V39.4538H7.75213V41H1.0902ZM10.9862 33.3636L12.5273 36.1825L14.0934 33.3636H15.9975L13.6957 37.1818L16.0373 41H14.1431L12.5273 38.2507L10.9265 41H9.0174L11.3441 37.1818L9.07706 33.3636H10.9862ZM17.3896 43.8636V33.3636H19.1594V34.6264H19.2638C19.3567 34.4408 19.4876 34.2436 19.6566 34.0348C19.8256 33.8227 20.0543 33.642 20.3427 33.4929C20.631 33.3404 20.9989 33.2642 21.4464 33.2642C22.0363 33.2642 22.5683 33.415 23.0423 33.7166C23.5195 34.0149 23.8974 34.4574 24.1758 35.044C24.4575 35.6274 24.5984 36.3433 24.5984 37.1918C24.5984 38.0303 24.4608 38.7429 24.1857 39.3295C23.9106 39.9162 23.5361 40.3636 23.0621 40.6719C22.5882 40.9801 22.0513 41.1342 21.4513 41.1342C21.0138 41.1342 20.6509 41.0613 20.3626 40.9155C20.0742 40.7696 19.8422 40.594 19.6665 40.3885C19.4942 40.1797 19.36 39.9825 19.2638 39.7969H19.1893V43.8636H17.3896ZM19.1545 37.1818C19.1545 37.6757 19.2241 38.1082 19.3633 38.4794C19.5058 38.8506 19.7096 39.1406 19.9748 39.3494C20.2433 39.5549 20.5681 39.6577 20.9492 39.6577C21.3469 39.6577 21.68 39.5516 21.9485 39.3395C22.217 39.1241 22.4192 38.8307 22.555 38.4595C22.6942 38.085 22.7638 37.6591 22.7638 37.1818C22.7638 36.7079 22.6959 36.2869 22.56 35.919C22.4241 35.5511 22.2219 35.2628 21.9535 35.054C21.685 34.8452 21.3503 34.7408 20.9492 34.7408C20.5647 34.7408 20.2383 34.8419 19.9698 35.044C19.7013 35.2462 19.4975 35.5296 19.3583 35.8942C19.2224 36.2588 19.1545 36.688 19.1545 37.1818ZM27.9393 30.8182V41H26.1396V30.8182H27.9393ZM33.1209 41.1491C32.3752 41.1491 31.7289 40.9851 31.182 40.657C30.6351 40.3288 30.2109 39.8698 29.9093 39.2798C29.611 38.6899 29.4618 38.0005 29.4618 37.2116C29.4618 36.4228 29.611 35.7318 29.9093 35.1385C30.2109 34.5452 30.6351 34.0845 31.182 33.7564C31.7289 33.4283 32.3752 33.2642 33.1209 33.2642C33.8667 33.2642 34.513 33.4283 35.0598 33.7564C35.6067 34.0845 36.0293 34.5452 36.3276 35.1385C36.6292 35.7318 36.78 36.4228 36.78 37.2116C36.78 38.0005 36.6292 38.6899 36.3276 39.2798C36.0293 39.8698 35.6067 40.3288 35.0598 40.657C34.513 40.9851 33.8667 41.1491 33.1209 41.1491ZM33.1309 39.7074C33.5352 39.7074 33.8733 39.5964 34.1451 39.3743C34.4168 39.1489 34.619 38.8473 34.7516 38.4695C34.8875 38.0916 34.9554 37.6707 34.9554 37.2067C34.9554 36.7393 34.8875 36.3168 34.7516 35.9389C34.619 35.5578 34.4168 35.2545 34.1451 35.0291C33.8733 34.8037 33.5352 34.6911 33.1309 34.6911C32.7166 34.6911 32.3719 34.8037 32.0968 35.0291C31.825 35.2545 31.6212 35.5578 31.4853 35.9389C31.3527 36.3168 31.2864 36.7393 31.2864 37.2067C31.2864 37.6707 31.3527 38.0916 31.4853 38.4695C31.6212 38.8473 31.825 39.1489 32.0968 39.3743C32.3719 39.5964 32.7166 39.7074 33.1309 39.7074ZM38.3075 41V33.3636H40.0526V34.6364H40.1321C40.2713 34.1955 40.5099 33.8558 40.848 33.6172C41.1894 33.3752 41.5788 33.2543 42.0163 33.2543C42.1158 33.2543 42.2268 33.2592 42.3494 33.2692C42.4754 33.2758 42.5798 33.2874 42.6626 33.304V34.9595C42.5864 34.933 42.4654 34.9098 42.2997 34.8899C42.1373 34.8667 41.9799 34.8551 41.8274 34.8551C41.4993 34.8551 41.2043 34.9264 40.9425 35.0689C40.6839 35.2081 40.4801 35.402 40.331 35.6506C40.1818 35.8991 40.1072 36.1858 40.1072 36.5107V41H38.3075ZM46.9245 41.1491C46.1589 41.1491 45.4977 40.9901 44.9409 40.6719C44.3874 40.3504 43.9615 39.8963 43.6632 39.3097C43.3649 38.7197 43.2157 38.0253 43.2157 37.2266C43.2157 36.4411 43.3649 35.7517 43.6632 35.1584C43.9648 34.5618 44.3857 34.0978 44.926 33.7663C45.4662 33.4316 46.1009 33.2642 46.8301 33.2642C47.3007 33.2642 47.7449 33.3404 48.1625 33.4929C48.5834 33.642 48.9546 33.8741 49.2761 34.1889C49.6009 34.5038 49.8561 34.9048 50.0417 35.392C50.2273 35.8759 50.3201 36.4527 50.3201 37.1222V37.674H44.0609V36.4609H48.595C48.5917 36.1162 48.5171 35.8097 48.3713 35.5412C48.2254 35.2694 48.0216 35.0556 47.7598 34.8999C47.5012 34.7441 47.1996 34.6662 46.8549 34.6662C46.487 34.6662 46.1639 34.7557 45.8855 34.9347C45.6071 35.1103 45.39 35.3423 45.2342 35.6307C45.0817 35.9157 45.0038 36.2289 45.0005 36.5703V37.6293C45.0005 38.0734 45.0817 38.4545 45.2441 38.7727C45.4065 39.0876 45.6336 39.3295 45.9252 39.4986C46.2169 39.6643 46.5583 39.7472 46.9494 39.7472C47.2112 39.7472 47.4482 39.7107 47.6603 39.6378C47.8725 39.5616 48.0564 39.4505 48.2122 39.3047C48.368 39.1589 48.4856 38.9782 48.5652 38.7628L50.2456 38.9517C50.1395 39.3958 49.9373 39.7836 49.639 40.1151C49.344 40.4432 48.9662 40.6984 48.5055 40.8807C48.0448 41.0597 47.5178 41.1491 46.9245 41.1491Z" fill="white"/>
</svg>
