<svg width="233" height="42" viewBox="0 0 233 42" fill="none" xmlns="http://www.w3.org/2000/svg">
<rect x="0.5" y="1.45508" width="232" height="39.139" rx="6.5" fill="url(#paint0_linear_239_5886)" fill-opacity="0.35" stroke="#5C67C7"/>
<path d="M34.3158 27.3191V15.6827H38.4635C39.3651 15.6827 40.1132 15.838 40.7079 16.1486C41.3063 16.4592 41.7533 16.8892 42.0488 17.4384C42.3442 17.9839 42.492 18.6145 42.492 19.3305C42.492 20.0426 42.3423 20.6695 42.0431 21.2111C41.7476 21.749 41.3007 22.1676 40.7022 22.4668C40.1075 22.7661 39.3594 22.9157 38.4579 22.9157H35.3158V21.4043H38.2988C38.867 21.4043 39.3291 21.3229 39.6851 21.16C40.045 20.9971 40.3082 20.7604 40.4749 20.4498C40.6416 20.1392 40.7249 19.7661 40.7249 19.3305C40.7249 18.8911 40.6397 18.5104 40.4692 18.1884C40.3026 17.8664 40.0393 17.6202 39.6795 17.4498C39.3234 17.2755 38.8556 17.1884 38.276 17.1884H36.0715V27.3191H34.3158ZM40.0601 22.0691L42.9351 27.3191H40.9351L38.117 22.0691H40.0601ZM48.1439 27.4952C47.2841 27.4952 46.5436 27.3115 45.9224 26.9441C45.3049 26.5729 44.8277 26.052 44.4905 25.3816C44.1572 24.7073 43.9905 23.9176 43.9905 23.0123C43.9905 22.1183 44.1572 21.3305 44.4905 20.6486C44.8277 19.9668 45.2974 19.4346 45.8996 19.052C46.5057 18.6695 47.214 18.4782 48.0246 18.4782C48.517 18.4782 48.9943 18.5596 49.4564 18.7225C49.9186 18.8854 50.3333 19.1411 50.7008 19.4895C51.0682 19.838 51.358 20.2907 51.5701 20.8475C51.7822 21.4005 51.8883 22.0729 51.8883 22.8645V23.4668H44.9508V22.1941H50.2235C50.2235 21.7471 50.1326 21.3513 49.9508 21.0066C49.7689 20.6581 49.5133 20.3835 49.1837 20.1827C48.858 19.982 48.4754 19.8816 48.036 19.8816C47.5587 19.8816 47.142 19.999 46.786 20.2339C46.4337 20.4649 46.161 20.768 45.9678 21.143C45.7784 21.5142 45.6837 21.9176 45.6837 22.3532V23.3475C45.6837 23.9308 45.786 24.427 45.9905 24.8361C46.1989 25.2452 46.4886 25.5577 46.8599 25.7736C47.2311 25.9858 47.6648 26.0918 48.161 26.0918C48.483 26.0918 48.7765 26.0464 49.0417 25.9555C49.3068 25.8608 49.536 25.7206 49.7292 25.535C49.9224 25.3494 50.0701 25.1202 50.1724 24.8475L51.7803 25.1373C51.6515 25.6108 51.4205 26.0255 51.0871 26.3816C50.7576 26.7339 50.3428 27.0085 49.8428 27.2055C49.3466 27.3986 48.7803 27.4952 48.1439 27.4952ZM59.6652 30.5918V25.9611H59.563C59.4607 26.1467 59.313 26.3589 59.1198 26.5975C58.9304 26.8361 58.669 27.0445 58.3357 27.2225C58.0024 27.4005 57.5706 27.4895 57.0402 27.4895C56.3357 27.4895 55.7069 27.3096 55.1539 26.9498C54.6046 26.5861 54.1728 26.0691 53.8584 25.3986C53.5478 24.7244 53.3925 23.9157 53.3925 22.9725C53.3925 22.0293 53.5497 21.2225 53.8641 20.552C54.1823 19.8816 54.6179 19.3683 55.1709 19.0123C55.724 18.6562 56.3509 18.4782 57.0516 18.4782C57.5933 18.4782 58.0289 18.5691 58.3584 18.7509C58.6918 18.9289 58.9493 19.1373 59.1312 19.3759C59.3168 19.6145 59.4607 19.8248 59.563 20.0066H59.705V18.5918H61.3641V30.5918H59.6652ZM57.4152 26.0407C57.9039 26.0407 58.3168 25.9119 58.6539 25.6543C58.9948 25.393 59.2524 25.0312 59.4266 24.5691C59.6046 24.107 59.6937 23.5691 59.6937 22.9555C59.6937 22.3494 59.6065 21.8191 59.4323 21.3645C59.2581 20.91 59.0024 20.5558 58.6652 20.302C58.3281 20.0483 57.9115 19.9214 57.4152 19.9214C56.9039 19.9214 56.4777 20.0539 56.1368 20.3191C55.7959 20.5842 55.5384 20.946 55.3641 21.4043C55.1937 21.8627 55.1084 22.3797 55.1084 22.9555C55.1084 23.5388 55.1956 24.0634 55.3698 24.5293C55.544 24.9952 55.8016 25.3645 56.1425 25.6373C56.4872 25.9062 56.9115 26.0407 57.4152 26.0407ZM69.1766 23.6998V18.5918H70.8812V27.3191H69.2107V25.8077H69.1198C68.919 26.2736 68.5971 26.6619 68.1539 26.9725C67.7145 27.2793 67.1671 27.4327 66.5118 27.4327C65.9512 27.4327 65.455 27.3096 65.0232 27.0634C64.5952 26.8134 64.2581 26.4441 64.0118 25.9555C63.7694 25.4668 63.6482 24.8627 63.6482 24.143V18.5918H65.3471V23.9384C65.3471 24.5331 65.5118 25.0066 65.8414 25.3589C66.1709 25.7111 66.599 25.8873 67.1255 25.8873C67.4437 25.8873 67.7599 25.8077 68.0743 25.6486C68.3925 25.4895 68.6558 25.249 68.8641 24.927C69.0762 24.6051 69.1804 24.196 69.1766 23.6998ZM76.9252 27.4952C76.0653 27.4952 75.3248 27.3115 74.7036 26.9441C74.0862 26.5729 73.6089 26.052 73.2718 25.3816C72.9384 24.7073 72.7718 23.9176 72.7718 23.0123C72.7718 22.1183 72.9384 21.3305 73.2718 20.6486C73.6089 19.9668 74.0786 19.4346 74.6809 19.052C75.2869 18.6695 75.9953 18.4782 76.8059 18.4782C77.2983 18.4782 77.7756 18.5596 78.2377 18.7225C78.6998 18.8854 79.1146 19.1411 79.482 19.4895C79.8494 19.838 80.1392 20.2907 80.3513 20.8475C80.5634 21.4005 80.6695 22.0729 80.6695 22.8645V23.4668H73.732V22.1941H79.0047C79.0047 21.7471 78.9138 21.3513 78.732 21.0066C78.5502 20.6581 78.2945 20.3835 77.965 20.1827C77.6392 19.982 77.2566 19.8816 76.8172 19.8816C76.34 19.8816 75.9233 19.999 75.5672 20.2339C75.215 20.4649 74.9422 20.768 74.7491 21.143C74.5597 21.5142 74.465 21.9176 74.465 22.3532V23.3475C74.465 23.9308 74.5672 24.427 74.7718 24.8361C74.9801 25.2452 75.2699 25.5577 75.6411 25.7736C76.0123 25.9858 76.446 26.0918 76.9422 26.0918C77.2642 26.0918 77.5578 26.0464 77.8229 25.9555C78.0881 25.8608 78.3172 25.7206 78.5104 25.535C78.7036 25.3494 78.8513 25.1202 78.9536 24.8475L80.5616 25.1373C80.4328 25.6108 80.2017 26.0255 79.8684 26.3816C79.5388 26.7339 79.1241 27.0085 78.6241 27.2055C78.1278 27.3986 77.5616 27.4952 76.9252 27.4952ZM89.0942 20.7225L87.5545 20.9952C87.4901 20.7983 87.3878 20.6108 87.2476 20.4327C87.1113 20.2547 86.9257 20.1089 86.6908 19.9952C86.456 19.8816 86.1624 19.8248 85.8101 19.8248C85.3291 19.8248 84.9276 19.9327 84.6056 20.1486C84.2836 20.3608 84.1226 20.6354 84.1226 20.9725C84.1226 21.2642 84.2306 21.499 84.4465 21.677C84.6624 21.8551 85.0109 22.0009 85.492 22.1145L86.8783 22.4327C87.6813 22.6183 88.2798 22.9043 88.6738 23.2907C89.0677 23.677 89.2647 24.1789 89.2647 24.7964C89.2647 25.3191 89.1132 25.785 88.8101 26.1941C88.5109 26.5994 88.0923 26.9176 87.5545 27.1486C87.0204 27.3797 86.401 27.4952 85.6965 27.4952C84.7192 27.4952 83.9219 27.2869 83.3045 26.8702C82.687 26.4498 82.3082 25.8532 82.1681 25.0805L83.8101 24.8305C83.9124 25.2585 84.1226 25.5823 84.4408 25.802C84.759 26.018 85.1738 26.1259 85.6851 26.1259C86.242 26.1259 86.687 26.0104 87.0204 25.7793C87.3537 25.5445 87.5204 25.2585 87.5204 24.9214C87.5204 24.6486 87.4181 24.4195 87.2135 24.2339C87.0128 24.0483 86.7041 23.9081 86.2874 23.8134L84.8101 23.4895C83.9957 23.3039 83.3935 23.0085 83.0033 22.6032C82.617 22.1979 82.4238 21.6846 82.4238 21.0634C82.4238 20.5483 82.5677 20.0975 82.8556 19.7111C83.1435 19.3248 83.5412 19.0236 84.0488 18.8077C84.5563 18.588 85.1378 18.4782 85.7931 18.4782C86.7363 18.4782 87.4787 18.6827 88.0204 19.0918C88.562 19.4971 88.92 20.0407 89.0942 20.7225ZM95.2064 18.5918V19.9555H90.4394V18.5918H95.2064ZM91.7178 16.5009H93.4167V24.7566C93.4167 25.0861 93.4659 25.3342 93.5644 25.5009C93.6629 25.6638 93.7898 25.7755 93.9451 25.8361C94.1042 25.893 94.2765 25.9214 94.4621 25.9214C94.5985 25.9214 94.7178 25.9119 94.8201 25.893C94.9224 25.874 95.0019 25.8589 95.0587 25.8475L95.3655 27.2509C95.267 27.2888 95.1269 27.3267 94.9451 27.3645C94.7633 27.4062 94.536 27.4289 94.2633 27.4327C93.8163 27.4403 93.3996 27.3608 93.0133 27.1941C92.6269 27.0274 92.3144 26.7698 92.0758 26.4214C91.8371 26.0729 91.7178 25.6354 91.7178 25.1089V16.5009ZM101.456 27.3191V15.6827H108.752V17.1941H103.212V20.7395H108.371V22.2452H103.212V25.8077H108.82V27.3191H101.456ZM113.5 27.5123C112.947 27.5123 112.447 27.41 112 27.2055C111.554 26.9971 111.199 26.696 110.938 26.302C110.68 25.9081 110.552 25.4252 110.552 24.8532C110.552 24.3608 110.646 23.9555 110.836 23.6373C111.025 23.3191 111.281 23.0672 111.603 22.8816C111.925 22.696 112.285 22.5558 112.682 22.4611C113.08 22.3664 113.485 22.2945 113.898 22.2452C114.421 22.1846 114.845 22.1354 115.171 22.0975C115.497 22.0558 115.733 21.9895 115.881 21.8986C116.029 21.8077 116.103 21.66 116.103 21.4555V21.4157C116.103 20.9195 115.963 20.535 115.682 20.2623C115.406 19.9895 114.993 19.8532 114.444 19.8532C113.872 19.8532 113.421 19.9801 113.091 20.2339C112.766 20.4839 112.54 20.7623 112.415 21.0691L110.819 20.7055C111.008 20.1752 111.285 19.7471 111.648 19.4214C112.016 19.0918 112.438 18.8532 112.915 18.7055C113.393 18.5539 113.894 18.4782 114.421 18.4782C114.769 18.4782 115.139 18.5198 115.529 18.6032C115.923 18.6827 116.29 18.8305 116.631 19.0464C116.976 19.2623 117.258 19.571 117.478 19.9725C117.697 20.3702 117.807 20.8873 117.807 21.5236V27.3191H116.148V26.1259H116.08C115.97 26.3456 115.805 26.5615 115.586 26.7736C115.366 26.9858 115.084 27.1619 114.739 27.302C114.394 27.4422 113.982 27.5123 113.5 27.5123ZM113.87 26.1486C114.339 26.1486 114.741 26.0558 115.074 25.8702C115.411 25.6846 115.667 25.4422 115.841 25.143C116.019 24.8399 116.108 24.5161 116.108 24.1714V23.0464C116.048 23.107 115.93 23.1638 115.756 23.2168C115.586 23.2661 115.391 23.3096 115.171 23.3475C114.951 23.3816 114.737 23.4138 114.529 23.4441C114.321 23.4706 114.146 23.4933 114.006 23.5123C113.677 23.5539 113.375 23.624 113.103 23.7225C112.834 23.821 112.618 23.963 112.455 24.1486C112.296 24.3305 112.216 24.5729 112.216 24.8759C112.216 25.2964 112.372 25.6145 112.682 25.8305C112.993 26.0426 113.389 26.1486 113.87 26.1486ZM120.07 27.3191V18.5918H121.712V19.9782H121.803C121.962 19.5085 122.242 19.1392 122.644 18.8702C123.049 18.5975 123.508 18.4611 124.019 18.4611C124.125 18.4611 124.25 18.4649 124.394 18.4725C124.542 18.4801 124.657 18.4895 124.741 18.5009V20.1259C124.672 20.107 124.551 20.0861 124.377 20.0634C124.203 20.0369 124.028 20.0236 123.854 20.0236C123.453 20.0236 123.095 20.1089 122.78 20.2793C122.47 20.446 122.223 20.6789 122.042 20.9782C121.86 21.2736 121.769 21.6108 121.769 21.9895V27.3191H120.07ZM127.91 15.6827V27.3191H126.211V15.6827H127.91ZM131.269 30.5918C131.015 30.5918 130.784 30.571 130.576 30.5293C130.367 30.4914 130.212 30.4498 130.11 30.4043L130.519 29.0123C130.83 29.0956 131.106 29.1316 131.348 29.1202C131.591 29.1089 131.805 29.018 131.991 28.8475C132.18 28.677 132.347 28.3986 132.491 28.0123L132.701 27.4327L129.508 18.5918H131.326L133.536 25.3645H133.627L135.837 18.5918H137.661L134.064 28.4839C133.898 28.9384 133.686 29.3229 133.428 29.6373C133.17 29.9555 132.864 30.1941 132.508 30.3532C132.152 30.5123 131.739 30.5918 131.269 30.5918ZM144.611 27.3191H142.748L146.935 15.6827H148.964L153.151 27.3191H151.287L147.998 17.7964H147.907L144.611 27.3191ZM144.924 22.7623H150.969V24.2395H144.924V22.7623ZM158.231 27.4952C157.386 27.4952 156.659 27.3039 156.049 26.9214C155.443 26.535 154.977 26.0028 154.651 25.3248C154.325 24.6467 154.162 23.8702 154.162 22.9952C154.162 22.1089 154.329 21.3267 154.662 20.6486C154.996 19.9668 155.465 19.4346 156.072 19.052C156.678 18.6695 157.392 18.4782 158.214 18.4782C158.876 18.4782 159.467 18.6013 159.986 18.8475C160.505 19.0899 160.924 19.4308 161.242 19.8702C161.564 20.3096 161.755 20.8229 161.816 21.41H160.162C160.072 21.0009 159.863 20.6486 159.537 20.3532C159.215 20.0577 158.784 19.91 158.242 19.91C157.768 19.91 157.354 20.035 156.998 20.285C156.645 20.5312 156.371 20.8835 156.174 21.3418C155.977 21.7964 155.878 22.3342 155.878 22.9555C155.878 23.5918 155.975 24.1411 156.168 24.6032C156.361 25.0653 156.634 25.4233 156.986 25.677C157.342 25.9308 157.761 26.0577 158.242 26.0577C158.564 26.0577 158.856 25.999 159.117 25.8816C159.382 25.7604 159.604 25.588 159.782 25.3645C159.964 25.1411 160.09 24.8721 160.162 24.5577H161.816C161.755 25.1221 161.572 25.6259 161.265 26.0691C160.958 26.5123 160.547 26.8608 160.032 27.1145C159.52 27.3683 158.92 27.4952 158.231 27.4952ZM167.309 27.4952C166.464 27.4952 165.737 27.3039 165.127 26.9214C164.521 26.535 164.055 26.0028 163.729 25.3248C163.403 24.6467 163.241 23.8702 163.241 22.9952C163.241 22.1089 163.407 21.3267 163.741 20.6486C164.074 19.9668 164.544 19.4346 165.15 19.052C165.756 18.6695 166.47 18.4782 167.292 18.4782C167.955 18.4782 168.545 18.6013 169.064 18.8475C169.583 19.0899 170.002 19.4308 170.32 19.8702C170.642 20.3096 170.833 20.8229 170.894 21.41H169.241C169.15 21.0009 168.941 20.6486 168.616 20.3532C168.294 20.0577 167.862 19.91 167.32 19.91C166.847 19.91 166.432 20.035 166.076 20.285C165.723 20.5312 165.449 20.8835 165.252 21.3418C165.055 21.7964 164.956 22.3342 164.956 22.9555C164.956 23.5918 165.053 24.1411 165.246 24.6032C165.439 25.0653 165.712 25.4233 166.064 25.677C166.42 25.9308 166.839 26.0577 167.32 26.0577C167.642 26.0577 167.934 25.999 168.195 25.8816C168.46 25.7604 168.682 25.588 168.86 25.3645C169.042 25.1411 169.169 24.8721 169.241 24.5577H170.894C170.833 25.1221 170.65 25.6259 170.343 26.0691C170.036 26.5123 169.625 26.8608 169.11 27.1145C168.598 27.3683 167.998 27.4952 167.309 27.4952ZM176.472 27.4952C175.612 27.4952 174.872 27.3115 174.25 26.9441C173.633 26.5729 173.156 26.052 172.819 25.3816C172.485 24.7073 172.319 23.9176 172.319 23.0123C172.319 22.1183 172.485 21.3305 172.819 20.6486C173.156 19.9668 173.625 19.4346 174.228 19.052C174.834 18.6695 175.542 18.4782 176.353 18.4782C176.845 18.4782 177.322 18.5596 177.785 18.7225C178.247 18.8854 178.661 19.1411 179.029 19.4895C179.396 19.838 179.686 20.2907 179.898 20.8475C180.11 21.4005 180.216 22.0729 180.216 22.8645V23.4668H173.279V22.1941H178.552C178.552 21.7471 178.461 21.3513 178.279 21.0066C178.097 20.6581 177.841 20.3835 177.512 20.1827C177.186 19.982 176.804 19.8816 176.364 19.8816C175.887 19.8816 175.47 19.999 175.114 20.2339C174.762 20.4649 174.489 20.768 174.296 21.143C174.107 21.5142 174.012 21.9176 174.012 22.3532V23.3475C174.012 23.9308 174.114 24.427 174.319 24.8361C174.527 25.2452 174.817 25.5577 175.188 25.7736C175.559 25.9858 175.993 26.0918 176.489 26.0918C176.811 26.0918 177.105 26.0464 177.37 25.9555C177.635 25.8608 177.864 25.7206 178.057 25.535C178.25 25.3494 178.398 25.1202 178.5 24.8475L180.108 25.1373C179.98 25.6108 179.749 26.0255 179.415 26.3816C179.086 26.7339 178.671 27.0085 178.171 27.2055C177.675 27.3986 177.108 27.4952 176.472 27.4952ZM188.641 20.7225L187.101 20.9952C187.037 20.7983 186.935 20.6108 186.795 20.4327C186.658 20.2547 186.473 20.1089 186.238 19.9952C186.003 19.8816 185.709 19.8248 185.357 19.8248C184.876 19.8248 184.474 19.9327 184.152 20.1486C183.831 20.3608 183.67 20.6354 183.67 20.9725C183.67 21.2642 183.777 21.499 183.993 21.677C184.209 21.8551 184.558 22.0009 185.039 22.1145L186.425 22.4327C187.228 22.6183 187.827 22.9043 188.221 23.2907C188.615 23.677 188.812 24.1789 188.812 24.7964C188.812 25.3191 188.66 25.785 188.357 26.1941C188.058 26.5994 187.639 26.9176 187.101 27.1486C186.567 27.3797 185.948 27.4952 185.243 27.4952C184.266 27.4952 183.469 27.2869 182.851 26.8702C182.234 26.4498 181.855 25.8532 181.715 25.0805L183.357 24.8305C183.459 25.2585 183.67 25.5823 183.988 25.802C184.306 26.018 184.721 26.1259 185.232 26.1259C185.789 26.1259 186.234 26.0104 186.567 25.7793C186.901 25.5445 187.067 25.2585 187.067 24.9214C187.067 24.6486 186.965 24.4195 186.76 24.2339C186.56 24.0483 186.251 23.9081 185.834 23.8134L184.357 23.4895C183.543 23.3039 182.94 23.0085 182.55 22.6032C182.164 22.1979 181.971 21.6846 181.971 21.0634C181.971 20.5483 182.115 20.0975 182.402 19.7111C182.69 19.3248 183.088 19.0236 183.596 18.8077C184.103 18.588 184.685 18.4782 185.34 18.4782C186.283 18.4782 187.026 18.6827 187.567 19.0918C188.109 19.4971 188.467 20.0407 188.641 20.7225ZM197.219 20.7225L195.679 20.9952C195.615 20.7983 195.513 20.6108 195.373 20.4327C195.236 20.2547 195.051 20.1089 194.816 19.9952C194.581 19.8816 194.287 19.8248 193.935 19.8248C193.454 19.8248 193.053 19.9327 192.731 20.1486C192.409 20.3608 192.248 20.6354 192.248 20.9725C192.248 21.2642 192.356 21.499 192.572 21.677C192.787 21.8551 193.136 22.0009 193.617 22.1145L195.003 22.4327C195.806 22.6183 196.405 22.9043 196.799 23.2907C197.193 23.677 197.39 24.1789 197.39 24.7964C197.39 25.3191 197.238 25.785 196.935 26.1941C196.636 26.5994 196.217 26.9176 195.679 27.1486C195.145 27.3797 194.526 27.4952 193.822 27.4952C192.844 27.4952 192.047 27.2869 191.429 26.8702C190.812 26.4498 190.433 25.8532 190.293 25.0805L191.935 24.8305C192.037 25.2585 192.248 25.5823 192.566 25.802C192.884 26.018 193.299 26.1259 193.81 26.1259C194.367 26.1259 194.812 26.0104 195.145 25.7793C195.479 25.5445 195.645 25.2585 195.645 24.9214C195.645 24.6486 195.543 24.4195 195.339 24.2339C195.138 24.0483 194.829 23.9081 194.412 23.8134L192.935 23.4895C192.121 23.3039 191.518 23.0085 191.128 22.6032C190.742 22.1979 190.549 21.6846 190.549 21.0634C190.549 20.5483 190.693 20.0975 190.981 19.7111C191.268 19.3248 191.666 19.0236 192.174 18.8077C192.681 18.588 193.263 18.4782 193.918 18.4782C194.861 18.4782 195.604 18.6827 196.145 19.0918C196.687 19.4971 197.045 20.0407 197.219 20.7225Z" fill="#5C67C7"/>
<defs>
<linearGradient id="paint0_linear_239_5886" x1="279.376" y1="-42.4024" x2="-75.1133" y2="33.1402" gradientUnits="userSpaceOnUse">
<stop stop-color="#5C67C7"/>
<stop offset="0.809798" stop-color="#5C67C7" stop-opacity="0"/>
</linearGradient>
</defs>
</svg>
