<svg width="264" height="43" viewBox="0 0 264 43" fill="none" xmlns="http://www.w3.org/2000/svg">
<path d="M137.676 27V15.3636H144.892V16.875H139.432V20.4205H144.375V21.9261H139.432V27H137.676ZM149.951 27.1761C149.132 27.1761 148.418 26.9886 147.809 26.6136C147.199 26.2386 146.725 25.714 146.388 25.0398C146.051 24.3655 145.882 23.5777 145.882 22.6761C145.882 21.7708 146.051 20.9792 146.388 20.3011C146.725 19.6231 147.199 19.0966 147.809 18.7216C148.418 18.3466 149.132 18.1591 149.951 18.1591C150.769 18.1591 151.483 18.3466 152.093 18.7216C152.703 19.0966 153.176 19.6231 153.513 20.3011C153.85 20.9792 154.019 21.7708 154.019 22.6761C154.019 23.5777 153.85 24.3655 153.513 25.0398C153.176 25.714 152.703 26.2386 152.093 26.6136C151.483 26.9886 150.769 27.1761 149.951 27.1761ZM149.956 25.75C150.487 25.75 150.926 25.6098 151.274 25.3295C151.623 25.0492 151.881 24.6761 152.047 24.2102C152.218 23.7443 152.303 23.2311 152.303 22.6705C152.303 22.1136 152.218 21.6023 152.047 21.1364C151.881 20.6667 151.623 20.2898 151.274 20.0057C150.926 19.7216 150.487 19.5795 149.956 19.5795C149.422 19.5795 148.979 19.7216 148.627 20.0057C148.278 20.2898 148.019 20.6667 147.848 21.1364C147.682 21.6023 147.598 22.1136 147.598 22.6705C147.598 23.2311 147.682 23.7443 147.848 24.2102C148.019 24.6761 148.278 25.0492 148.627 25.3295C148.979 25.6098 149.422 25.75 149.956 25.75ZM155.915 27V18.2727H157.557V19.6591H157.648C157.807 19.1894 158.087 18.8201 158.489 18.5511C158.894 18.2784 159.353 18.142 159.864 18.142C159.97 18.142 160.095 18.1458 160.239 18.1534C160.387 18.161 160.502 18.1705 160.586 18.1818V19.8068C160.517 19.7879 160.396 19.767 160.222 19.7443C160.048 19.7178 159.873 19.7045 159.699 19.7045C159.298 19.7045 158.94 19.7898 158.625 19.9602C158.315 20.1269 158.069 20.3598 157.887 20.6591C157.705 20.9545 157.614 21.2917 157.614 21.6705V27H155.915ZM168.182 15.3636V27H166.426V15.3636H168.182ZM172.301 21.8182V27H170.603V18.2727H172.233V19.6932H172.341C172.542 19.2311 172.856 18.8598 173.284 18.5795C173.716 18.2992 174.26 18.1591 174.915 18.1591C175.51 18.1591 176.031 18.2841 176.478 18.5341C176.925 18.7803 177.271 19.1477 177.517 19.6364C177.764 20.125 177.887 20.7292 177.887 21.4489V27H176.188V21.6534C176.188 21.0208 176.023 20.5265 175.694 20.1705C175.364 19.8106 174.911 19.6307 174.336 19.6307C173.942 19.6307 173.591 19.7159 173.284 19.8864C172.981 20.0568 172.741 20.3068 172.563 20.6364C172.389 20.9621 172.301 21.3561 172.301 21.8182ZM186.705 20.4034L185.165 20.6761C185.101 20.4792 184.998 20.2917 184.858 20.1136C184.722 19.9356 184.536 19.7898 184.301 19.6761C184.067 19.5625 183.773 19.5057 183.421 19.5057C182.94 19.5057 182.538 19.6136 182.216 19.8295C181.894 20.0417 181.733 20.3163 181.733 20.6534C181.733 20.9451 181.841 21.1799 182.057 21.358C182.273 21.536 182.622 21.6818 183.103 21.7955L184.489 22.1136C185.292 22.2992 185.89 22.5852 186.284 22.9716C186.678 23.358 186.875 23.8598 186.875 24.4773C186.875 25 186.724 25.4659 186.421 25.875C186.122 26.2803 185.703 26.5985 185.165 26.8295C184.631 27.0606 184.012 27.1761 183.307 27.1761C182.33 27.1761 181.533 26.9678 180.915 26.5511C180.298 26.1307 179.919 25.5341 179.779 24.7614L181.421 24.5114C181.523 24.9394 181.733 25.2633 182.051 25.483C182.37 25.6989 182.784 25.8068 183.296 25.8068C183.853 25.8068 184.298 25.6913 184.631 25.4602C184.964 25.2254 185.131 24.9394 185.131 24.6023C185.131 24.3295 185.029 24.1004 184.824 23.9148C184.623 23.7292 184.315 23.589 183.898 23.4943L182.421 23.1705C181.606 22.9848 181.004 22.6894 180.614 22.2841C180.228 21.8788 180.034 21.3655 180.034 20.7443C180.034 20.2292 180.178 19.7784 180.466 19.392C180.754 19.0057 181.152 18.7045 181.659 18.4886C182.167 18.2689 182.748 18.1591 183.404 18.1591C184.347 18.1591 185.089 18.3636 185.631 18.7727C186.173 19.178 186.531 19.7216 186.705 20.4034ZM192.817 18.2727V19.6364H188.05V18.2727H192.817ZM189.328 16.1818H191.027V24.4375C191.027 24.767 191.077 25.0152 191.175 25.1818C191.274 25.3447 191.4 25.4564 191.556 25.517C191.715 25.5739 191.887 25.6023 192.073 25.6023C192.209 25.6023 192.328 25.5928 192.431 25.5739C192.533 25.5549 192.613 25.5398 192.669 25.5284L192.976 26.9318C192.878 26.9697 192.738 27.0076 192.556 27.0455C192.374 27.0871 192.147 27.1098 191.874 27.1136C191.427 27.1212 191.01 27.0417 190.624 26.875C190.238 26.7083 189.925 26.4508 189.686 26.1023C189.448 25.7538 189.328 25.3163 189.328 24.7898V16.1818ZM194.696 27V18.2727H196.395V27H194.696ZM195.554 16.9261C195.259 16.9261 195.005 16.8277 194.793 16.6307C194.585 16.4299 194.48 16.1913 194.48 15.9148C194.48 15.6345 194.585 15.3958 194.793 15.1989C195.005 14.9981 195.259 14.8977 195.554 14.8977C195.85 14.8977 196.102 14.9981 196.31 15.1989C196.522 15.3958 196.628 15.6345 196.628 15.9148C196.628 16.1913 196.522 16.4299 196.31 16.6307C196.102 16.8277 195.85 16.9261 195.554 16.9261ZM202.755 18.2727V19.6364H197.988V18.2727H202.755ZM199.266 16.1818H200.965V24.4375C200.965 24.767 201.014 25.0152 201.113 25.1818C201.211 25.3447 201.338 25.4564 201.493 25.517C201.652 25.5739 201.825 25.6023 202.01 25.6023C202.147 25.6023 202.266 25.5928 202.368 25.5739C202.47 25.5549 202.55 25.5398 202.607 25.5284L202.914 26.9318C202.815 26.9697 202.675 27.0076 202.493 27.0455C202.311 27.0871 202.084 27.1098 201.811 27.1136C201.364 27.1212 200.948 27.0417 200.561 26.875C200.175 26.7083 199.863 26.4508 199.624 26.1023C199.385 25.7538 199.266 25.3163 199.266 24.7898V16.1818ZM210.162 23.3807V18.2727H211.867V27H210.196V25.4886H210.105C209.905 25.9545 209.583 26.3428 209.14 26.6534C208.7 26.9602 208.153 27.1136 207.497 27.1136C206.937 27.1136 206.441 26.9905 206.009 26.7443C205.581 26.4943 205.244 26.125 204.997 25.6364C204.755 25.1477 204.634 24.5436 204.634 23.8239V18.2727H206.333V23.6193C206.333 24.214 206.497 24.6875 206.827 25.0398C207.157 25.392 207.585 25.5682 208.111 25.5682C208.429 25.5682 208.746 25.4886 209.06 25.3295C209.378 25.1705 209.641 24.9299 209.85 24.608C210.062 24.286 210.166 23.8769 210.162 23.3807ZM218.223 18.2727V19.6364H213.456V18.2727H218.223ZM214.735 16.1818H216.434V24.4375C216.434 24.767 216.483 25.0152 216.581 25.1818C216.68 25.3447 216.807 25.4564 216.962 25.517C217.121 25.5739 217.293 25.6023 217.479 25.6023C217.615 25.6023 217.735 25.5928 217.837 25.5739C217.939 25.5549 218.019 25.5398 218.076 25.5284L218.382 26.9318C218.284 26.9697 218.144 27.0076 217.962 27.0455C217.78 27.0871 217.553 27.1098 217.28 27.1136C216.833 27.1212 216.417 27.0417 216.03 26.875C215.644 26.7083 215.331 26.4508 215.093 26.1023C214.854 25.7538 214.735 25.3163 214.735 24.7898V16.1818ZM220.103 27V18.2727H221.801V27H220.103ZM220.961 16.9261C220.665 16.9261 220.411 16.8277 220.199 16.6307C219.991 16.4299 219.887 16.1913 219.887 15.9148C219.887 15.6345 219.991 15.3958 220.199 15.1989C220.411 14.9981 220.665 14.8977 220.961 14.8977C221.256 14.8977 221.508 14.9981 221.716 15.1989C221.928 15.3958 222.034 15.6345 222.034 15.9148C222.034 16.1913 221.928 16.4299 221.716 16.6307C221.508 16.8277 221.256 16.9261 220.961 16.9261ZM227.763 27.1761C226.945 27.1761 226.231 26.9886 225.621 26.6136C225.011 26.2386 224.538 25.714 224.201 25.0398C223.863 24.3655 223.695 23.5777 223.695 22.6761C223.695 21.7708 223.863 20.9792 224.201 20.3011C224.538 19.6231 225.011 19.0966 225.621 18.7216C226.231 18.3466 226.945 18.1591 227.763 18.1591C228.581 18.1591 229.295 18.3466 229.905 18.7216C230.515 19.0966 230.988 19.6231 231.326 20.3011C231.663 20.9792 231.831 21.7708 231.831 22.6761C231.831 23.5777 231.663 24.3655 231.326 25.0398C230.988 25.714 230.515 26.2386 229.905 26.6136C229.295 26.9886 228.581 27.1761 227.763 27.1761ZM227.769 25.75C228.299 25.75 228.738 25.6098 229.087 25.3295C229.435 25.0492 229.693 24.6761 229.86 24.2102C230.03 23.7443 230.115 23.2311 230.115 22.6705C230.115 22.1136 230.03 21.6023 229.86 21.1364C229.693 20.6667 229.435 20.2898 229.087 20.0057C228.738 19.7216 228.299 19.5795 227.769 19.5795C227.235 19.5795 226.792 19.7216 226.439 20.0057C226.091 20.2898 225.831 20.6667 225.661 21.1364C225.494 21.6023 225.411 22.1136 225.411 22.6705C225.411 23.2311 225.494 23.7443 225.661 24.2102C225.831 24.6761 226.091 25.0492 226.439 25.3295C226.792 25.6098 227.235 25.75 227.769 25.75ZM235.426 21.8182V27H233.728V18.2727H235.358V19.6932H235.466C235.667 19.2311 235.981 18.8598 236.409 18.5795C236.841 18.2992 237.385 18.1591 238.04 18.1591C238.635 18.1591 239.156 18.2841 239.603 18.5341C240.05 18.7803 240.396 19.1477 240.642 19.6364C240.889 20.125 241.012 20.7292 241.012 21.4489V27H239.313V21.6534C239.313 21.0208 239.148 20.5265 238.819 20.1705C238.489 19.8106 238.036 19.6307 237.461 19.6307C237.067 19.6307 236.716 19.7159 236.409 19.8864C236.106 20.0568 235.866 20.3068 235.688 20.6364C235.514 20.9621 235.426 21.3561 235.426 21.8182ZM249.83 20.4034L248.29 20.6761C248.226 20.4792 248.123 20.2917 247.983 20.1136C247.847 19.9356 247.661 19.7898 247.426 19.6761C247.192 19.5625 246.898 19.5057 246.546 19.5057C246.065 19.5057 245.663 19.6136 245.341 19.8295C245.019 20.0417 244.858 20.3163 244.858 20.6534C244.858 20.9451 244.966 21.1799 245.182 21.358C245.398 21.536 245.747 21.6818 246.228 21.7955L247.614 22.1136C248.417 22.2992 249.015 22.5852 249.409 22.9716C249.803 23.358 250 23.8598 250 24.4773C250 25 249.849 25.4659 249.546 25.875C249.247 26.2803 248.828 26.5985 248.29 26.8295C247.756 27.0606 247.137 27.1761 246.432 27.1761C245.455 27.1761 244.658 26.9678 244.04 26.5511C243.423 26.1307 243.044 25.5341 242.904 24.7614L244.546 24.5114C244.648 24.9394 244.858 25.2633 245.176 25.483C245.495 25.6989 245.909 25.8068 246.421 25.8068C246.978 25.8068 247.423 25.6913 247.756 25.4602C248.089 25.2254 248.256 24.9394 248.256 24.6023C248.256 24.3295 248.154 24.1004 247.949 23.9148C247.748 23.7292 247.44 23.589 247.023 23.4943L245.546 23.1705C244.731 22.9848 244.129 22.6894 243.739 22.2841C243.353 21.8788 243.159 21.3655 243.159 20.7443C243.159 20.2292 243.303 19.7784 243.591 19.392C243.879 19.0057 244.277 18.7045 244.784 18.4886C245.292 18.2689 245.873 18.1591 246.529 18.1591C247.472 18.1591 248.214 18.3636 248.756 18.7727C249.298 19.178 249.656 19.7216 249.83 20.4034Z" fill="#F7F8F8"/>
<path d="M1.58091 27V15.3636H8.79682V16.875H3.33659V20.4205H8.27977V21.9261H3.33659V27H1.58091ZM14.1751 27.1761C13.3569 27.1761 12.6429 26.9886 12.033 26.6136C11.4232 26.2386 10.9497 25.714 10.6126 25.0398C10.2754 24.3655 10.1069 23.5777 10.1069 22.6761C10.1069 21.7708 10.2754 20.9792 10.6126 20.3011C10.9497 19.6231 11.4232 19.0966 12.033 18.7216C12.6429 18.3466 13.3569 18.1591 14.1751 18.1591C14.9932 18.1591 15.7073 18.3466 16.3171 18.7216C16.927 19.0966 17.4004 19.6231 17.7376 20.3011C18.0747 20.9792 18.2432 21.7708 18.2432 22.6761C18.2432 23.5777 18.0747 24.3655 17.7376 25.0398C17.4004 25.714 16.927 26.2386 16.3171 26.6136C15.7073 26.9886 14.9932 27.1761 14.1751 27.1761ZM14.1807 25.75C14.711 25.75 15.1504 25.6098 15.4989 25.3295C15.8474 25.0492 16.105 24.6761 16.2716 24.2102C16.4421 23.7443 16.5273 23.2311 16.5273 22.6705C16.5273 22.1136 16.4421 21.6023 16.2716 21.1364C16.105 20.6667 15.8474 20.2898 15.4989 20.0057C15.1504 19.7216 14.711 19.5795 14.1807 19.5795C13.6466 19.5795 13.2035 19.7216 12.8512 20.0057C12.5027 20.2898 12.2432 20.6667 12.0728 21.1364C11.9061 21.6023 11.8228 22.1136 11.8228 22.6705C11.8228 23.2311 11.9061 23.7443 12.0728 24.2102C12.2432 24.6761 12.5027 25.0492 12.8512 25.3295C13.2035 25.6098 13.6466 25.75 14.1807 25.75ZM20.4595 27V18.2727H22.1016V19.6591H22.1925C22.3516 19.1894 22.6319 18.8201 23.0334 18.5511C23.4387 18.2784 23.897 18.142 24.4084 18.142C24.5145 18.142 24.6395 18.1458 24.7834 18.1534C24.9311 18.161 25.0467 18.1705 25.13 18.1818V19.8068C25.0618 19.7879 24.9406 19.767 24.7664 19.7443C24.5921 19.7178 24.4179 19.7045 24.2436 19.7045C23.8421 19.7045 23.4842 19.7898 23.1698 19.9602C22.8592 20.1269 22.613 20.3598 22.4311 20.6591C22.2493 20.9545 22.1584 21.2917 22.1584 21.6705V27H20.4595ZM37.9575 18.4205C37.8969 17.8826 37.6469 17.4659 37.2075 17.1705C36.7681 16.8712 36.2151 16.7216 35.5484 16.7216C35.0711 16.7216 34.6583 16.7973 34.3098 16.9489C33.9613 17.0966 33.6905 17.3011 33.4973 17.5625C33.3079 17.8201 33.2132 18.1136 33.2132 18.4432C33.2132 18.7197 33.2776 18.9583 33.4064 19.1591C33.5389 19.3598 33.7113 19.5284 33.9234 19.6648C34.1393 19.7973 34.3704 19.9091 34.6166 20C34.8628 20.0871 35.0995 20.1591 35.3268 20.2159L36.4632 20.5114C36.8344 20.6023 37.2151 20.7254 37.6052 20.8807C37.9954 21.036 38.3571 21.2405 38.6905 21.4943C39.0238 21.7481 39.2927 22.0625 39.4973 22.4375C39.7056 22.8125 39.8098 23.2614 39.8098 23.7841C39.8098 24.4432 39.6393 25.0284 39.2984 25.5398C38.9613 26.0511 38.4708 26.4545 37.8268 26.75C37.1867 27.0455 36.412 27.1932 35.503 27.1932C34.6317 27.1932 33.878 27.0549 33.2416 26.7784C32.6052 26.5019 32.1071 26.1098 31.7473 25.6023C31.3874 25.0909 31.1886 24.4848 31.1507 23.7841H32.912C32.9461 24.2045 33.0825 24.5549 33.3211 24.8352C33.5636 25.1117 33.8723 25.3182 34.2473 25.4545C34.6261 25.5871 35.0408 25.6534 35.4916 25.6534C35.9878 25.6534 36.4291 25.5758 36.8155 25.4205C37.2056 25.2614 37.5124 25.0417 37.7359 24.7614C37.9594 24.4773 38.0711 24.1458 38.0711 23.767C38.0711 23.4223 37.9727 23.1402 37.7757 22.9205C37.5825 22.7008 37.3192 22.5189 36.9859 22.375C36.6564 22.2311 36.2833 22.1042 35.8666 21.9943L34.4916 21.6193C33.5598 21.3655 32.8211 20.9924 32.2757 20.5C31.734 20.0076 31.4632 19.3561 31.4632 18.5455C31.4632 17.875 31.645 17.2898 32.0086 16.7898C32.3723 16.2898 32.8647 15.9015 33.4859 15.625C34.1071 15.3447 34.8079 15.2045 35.5882 15.2045C36.3761 15.2045 37.0711 15.3428 37.6734 15.6193C38.2795 15.8958 38.7567 16.2765 39.1052 16.7614C39.4537 17.2424 39.6355 17.7955 39.6507 18.4205H37.9575ZM46.1653 18.2727V19.6364H41.3982V18.2727H46.1653ZM42.6766 16.1818H44.3755V24.4375C44.3755 24.767 44.4248 25.0152 44.5232 25.1818C44.6217 25.3447 44.7486 25.4564 44.9039 25.517C45.063 25.5739 45.2354 25.6023 45.421 25.6023C45.5573 25.6023 45.6766 25.5928 45.7789 25.5739C45.8812 25.5549 45.9607 25.5398 46.0176 25.5284L46.3244 26.9318C46.2259 26.9697 46.0857 27.0076 45.9039 27.0455C45.7221 27.0871 45.4948 27.1098 45.2221 27.1136C44.7751 27.1212 44.3585 27.0417 43.9721 26.875C43.5857 26.7083 43.2732 26.4508 43.0346 26.1023C42.796 25.7538 42.6766 25.3163 42.6766 24.7898V16.1818ZM53.893 23.3807V18.2727H55.5975V27H53.927V25.4886H53.8361C53.6354 25.9545 53.3134 26.3428 52.8702 26.6534C52.4308 26.9602 51.8835 27.1136 51.2282 27.1136C50.6676 27.1136 50.1714 26.9905 49.7395 26.7443C49.3115 26.4943 48.9744 26.125 48.7282 25.6364C48.4858 25.1477 48.3645 24.5436 48.3645 23.8239V18.2727H50.0634V23.6193C50.0634 24.214 50.2282 24.6875 50.5577 25.0398C50.8873 25.392 51.3153 25.5682 51.8418 25.5682C52.16 25.5682 52.4763 25.4886 52.7907 25.3295C53.1089 25.1705 53.3721 24.9299 53.5805 24.608C53.7926 24.286 53.8967 23.8769 53.893 23.3807ZM61.4672 27.1705C60.7627 27.1705 60.1339 26.9905 59.5809 26.6307C59.0316 26.267 58.5998 25.75 58.2854 25.0795C57.9748 24.4053 57.8195 23.5966 57.8195 22.6534C57.8195 21.7102 57.9767 20.9034 58.2911 20.233C58.6093 19.5625 59.0449 19.0492 59.5979 18.6932C60.1509 18.3371 60.7778 18.1591 61.4786 18.1591C62.0202 18.1591 62.4559 18.25 62.7854 18.4318C63.1187 18.6098 63.3763 18.8182 63.5581 19.0568C63.7437 19.2955 63.8877 19.5057 63.9899 19.6875H64.0922V15.3636H65.7911V27H64.132V25.642H63.9899C63.8877 25.8277 63.7399 26.0398 63.5468 26.2784C63.3574 26.517 63.096 26.7254 62.7627 26.9034C62.4293 27.0814 61.9975 27.1705 61.4672 27.1705ZM61.8422 25.7216C62.3309 25.7216 62.7437 25.5928 63.0809 25.3352C63.4218 25.0739 63.6793 24.7121 63.8536 24.25C64.0316 23.7879 64.1206 23.25 64.1206 22.6364C64.1206 22.0303 64.0335 21.5 63.8593 21.0455C63.685 20.5909 63.4293 20.2367 63.0922 19.983C62.7551 19.7292 62.3384 19.6023 61.8422 19.6023C61.3309 19.6023 60.9047 19.7348 60.5638 20C60.2229 20.2652 59.9653 20.6269 59.7911 21.0852C59.6206 21.5436 59.5354 22.0606 59.5354 22.6364C59.5354 23.2197 59.6225 23.7443 59.7968 24.2102C59.971 24.6761 60.2286 25.0455 60.5695 25.3182C60.9142 25.5871 61.3384 25.7216 61.8422 25.7216ZM72.2972 27.1761C71.4373 27.1761 70.6968 26.9924 70.0756 26.625C69.4581 26.2538 68.9809 25.733 68.6438 25.0625C68.3104 24.3883 68.1438 23.5985 68.1438 22.6932C68.1438 21.7992 68.3104 21.0114 68.6438 20.3295C68.9809 19.6477 69.4506 19.1155 70.0528 18.733C70.6589 18.3504 71.3672 18.1591 72.1778 18.1591C72.6703 18.1591 73.1475 18.2405 73.6097 18.4034C74.0718 18.5663 74.4866 18.822 74.854 19.1705C75.2214 19.5189 75.5112 19.9716 75.7233 20.5284C75.9354 21.0814 76.0415 21.7538 76.0415 22.5455V23.1477H69.104V21.875H74.3767C74.3767 21.428 74.2858 21.0322 74.104 20.6875C73.9222 20.339 73.6665 20.0644 73.3369 19.8636C73.0112 19.6629 72.6286 19.5625 72.1892 19.5625C71.7119 19.5625 71.2953 19.6799 70.9392 19.9148C70.5869 20.1458 70.3142 20.4489 70.121 20.8239C69.9316 21.1951 69.8369 21.5985 69.8369 22.0341V23.0284C69.8369 23.6117 69.9392 24.108 70.1438 24.517C70.3521 24.9261 70.6419 25.2386 71.0131 25.4545C71.3843 25.6667 71.818 25.7727 72.3142 25.7727C72.6362 25.7727 72.9297 25.7273 73.1949 25.6364C73.46 25.5417 73.6892 25.4015 73.8824 25.2159C74.0756 25.0303 74.2233 24.8011 74.3256 24.5284L75.9335 24.8182C75.8047 25.2917 75.5737 25.7064 75.2403 26.0625C74.9108 26.4148 74.496 26.6894 73.996 26.8864C73.4998 27.0795 72.9335 27.1761 72.2972 27.1761ZM79.9453 21.8182V27H78.2464V18.2727H79.8771V19.6932H79.9851C80.1858 19.2311 80.5002 18.8598 80.9282 18.5795C81.3601 18.2992 81.9036 18.1591 82.5589 18.1591C83.1536 18.1591 83.6744 18.2841 84.1214 18.5341C84.5684 18.7803 84.915 19.1477 85.1612 19.6364C85.4074 20.125 85.5305 20.7292 85.5305 21.4489V27H83.8316V21.6534C83.8316 21.0208 83.6669 20.5265 83.3373 20.1705C83.0078 19.8106 82.5551 19.6307 81.9794 19.6307C81.5854 19.6307 81.2351 19.7159 80.9282 19.8864C80.6252 20.0568 80.3847 20.3068 80.2066 20.6364C80.0324 20.9621 79.9453 21.3561 79.9453 21.8182ZM92.2028 18.2727V19.6364H87.4357V18.2727H92.2028ZM88.7142 16.1818H90.413V24.4375C90.413 24.767 90.4623 25.0152 90.5607 25.1818C90.6592 25.3447 90.7861 25.4564 90.9414 25.517C91.1005 25.5739 91.2729 25.6023 91.4585 25.6023C91.5948 25.6023 91.7142 25.5928 91.8164 25.5739C91.9187 25.5549 91.9982 25.5398 92.0551 25.5284L92.3619 26.9318C92.2634 26.9697 92.1232 27.0076 91.9414 27.0455C91.7596 27.0871 91.5323 27.1098 91.2596 27.1136C90.8126 27.1212 90.396 27.0417 90.0096 26.875C89.6232 26.7083 89.3107 26.4508 89.0721 26.1023C88.8335 25.7538 88.7142 25.3163 88.7142 24.7898V16.1818ZM100.801 20.4034L99.2614 20.6761C99.197 20.4792 99.0947 20.2917 98.9546 20.1136C98.8182 19.9356 98.6326 19.7898 98.3978 19.6761C98.1629 19.5625 97.8694 19.5057 97.5171 19.5057C97.036 19.5057 96.6345 19.6136 96.3126 19.8295C95.9906 20.0417 95.8296 20.3163 95.8296 20.6534C95.8296 20.9451 95.9376 21.1799 96.1535 21.358C96.3694 21.536 96.7179 21.6818 97.1989 21.7955L98.5853 22.1136C99.3883 22.2992 99.9868 22.5852 100.381 22.9716C100.775 23.358 100.972 23.8598 100.972 24.4773C100.972 25 100.82 25.4659 100.517 25.875C100.218 26.2803 99.7993 26.5985 99.2614 26.8295C98.7273 27.0606 98.108 27.1761 97.4035 27.1761C96.4262 27.1761 95.6288 26.9678 95.0114 26.5511C94.394 26.1307 94.0152 25.5341 93.8751 24.7614L95.5171 24.5114C95.6194 24.9394 95.8296 25.2633 96.1478 25.483C96.466 25.6989 96.8807 25.8068 97.3921 25.8068C97.9489 25.8068 98.394 25.6913 98.7273 25.4602C99.0607 25.2254 99.2273 24.9394 99.2273 24.6023C99.2273 24.3295 99.1251 24.1004 98.9205 23.9148C98.7197 23.7292 98.411 23.589 97.9944 23.4943L96.5171 23.1705C95.7027 22.9848 95.1004 22.6894 94.7103 22.2841C94.3239 21.8788 94.1307 21.3655 94.1307 20.7443C94.1307 20.2292 94.2747 19.7784 94.5626 19.392C94.8504 19.0057 95.2482 18.7045 95.7557 18.4886C96.2633 18.2689 96.8447 18.1591 97.5001 18.1591C98.4432 18.1591 99.1857 18.3636 99.7273 18.7727C100.269 19.178 100.627 19.7216 100.801 20.4034Z" fill="#F7F8F8"/>
<rect x="118.064" y="10" width="2.53067" height="22" fill="#D9D9D9"/>
</svg>
