<svg width="29" height="19" viewBox="0 0 29 19" fill="none" xmlns="http://www.w3.org/2000/svg">
<path fill-rule="evenodd" clip-rule="evenodd" d="M4.41403 13.6352C3.16274 13.6122 2.16792 12.6263 2.19183 11.4333V7.02939C2.16792 5.83634 3.16274 4.8506 4.41403 4.82749H12.5025C13.0152 4.8263 13.5109 4.65203 13.9016 4.3356L16.5182 2.23313C17.1916 1.70463 18.1275 1.60207 18.9091 1.97112C19.6906 2.34019 20.1724 3.11219 20.1395 3.94317V14.5195C20.1724 15.3505 19.6906 16.1224 18.9091 16.4916C18.1275 16.8607 17.1916 16.7581 16.5182 16.2295L13.9016 14.1271C13.5109 13.8107 13.0152 13.6364 12.5025 13.6352H4.41403Z" stroke="#838383" stroke-width="3" stroke-linecap="round" stroke-linejoin="round"/>
<path d="M13.4366 9.23139C13.4366 8.66688 12.9567 8.20946 12.3648 8.20946C11.7729 8.20946 11.293 8.66688 11.293 9.23139H13.4366ZM11.293 13.6353C11.293 14.1996 11.7729 14.6572 12.3648 14.6572C12.9567 14.6572 13.4366 14.1996 13.4366 13.6353H11.293ZM27.4097 3.46492C27.8959 3.14299 28.0164 2.50621 27.6787 2.04263C27.341 1.57904 26.6732 1.46423 26.187 1.78615L27.4097 3.46492ZM22.8616 3.98809C22.3754 4.31002 22.2549 4.94681 22.5926 5.41039C22.9302 5.87399 23.5981 5.98872 24.0843 5.66685L22.8616 3.98809ZM27.9159 10.2533C28.5078 10.2533 28.9877 9.79578 28.9877 9.23139C28.9877 8.66688 28.5078 8.20946 27.9159 8.20946V10.2533ZM24.5833 8.20946C23.9914 8.20946 23.5115 8.66688 23.5115 9.23139C23.5115 9.79578 23.9914 10.2533 24.5833 10.2533V8.20946ZM26.195 16.6771C26.6816 16.9985 27.3493 16.8831 27.6864 16.4191C28.0236 15.9553 27.9025 15.3186 27.416 14.9972L26.195 16.6771ZM24.0834 12.7952C23.5968 12.4738 22.9292 12.5892 22.5919 13.0532C22.2548 13.517 22.3758 14.1537 22.8624 14.4752L24.0834 12.7952ZM11.293 9.23139V13.6353H13.4366V9.23139H11.293ZM26.187 1.78615L22.8616 3.98809L24.0843 5.66685L27.4097 3.46492L26.187 1.78615ZM27.9159 8.20946H24.5833V10.2533H27.9159V8.20946ZM27.416 14.9972L24.0834 12.7952L22.8624 14.4752L26.195 16.6771L27.416 14.9972Z" fill="#838383"/>
</svg>
