<svg width="397" height="85" viewBox="0 0 397 85" fill="none" xmlns="http://www.w3.org/2000/svg">
<path d="M4.66455 9.63974H13.7668L23.3805 33.0943H23.7896L33.4032 9.63974H42.5055V44.5488H35.3464V21.8272H35.0566L26.0225 44.3784H21.1475L12.1134 21.742H11.8236V44.5488H4.66455V9.63974ZM62.6796 45.0602C60.0319 45.0602 57.7421 44.4977 55.8103 43.3727C53.8898 42.2363 52.4069 40.6568 51.3614 38.6341C50.316 36.6 49.7932 34.242 49.7932 31.5602C49.7932 28.8556 50.316 26.492 51.3614 24.4693C52.4069 22.4352 53.8898 20.8556 55.8103 19.7306C57.7421 18.5943 60.0319 18.0261 62.6796 18.0261C65.3273 18.0261 67.6114 18.5943 69.5319 19.7306C71.4637 20.8556 72.9523 22.4352 73.9978 24.4693C75.0432 26.492 75.566 28.8556 75.566 31.5602C75.566 34.242 75.0432 36.6 73.9978 38.6341C72.9523 40.6568 71.4637 42.2363 69.5319 43.3727C67.6114 44.4977 65.3273 45.0602 62.6796 45.0602ZM62.7137 39.4352C63.9182 39.4352 64.9239 39.0943 65.7307 38.4125C66.5376 37.7193 67.1455 36.7761 67.5546 35.5829C67.9751 34.3897 68.1853 33.0318 68.1853 31.5091C68.1853 29.9863 67.9751 28.6284 67.5546 27.4352C67.1455 26.242 66.5376 25.2988 65.7307 24.6056C64.9239 23.9125 63.9182 23.5659 62.7137 23.5659C61.4978 23.5659 60.4751 23.9125 59.6455 24.6056C58.8273 25.2988 58.208 26.242 57.7876 27.4352C57.3785 28.6284 57.1739 29.9863 57.1739 31.5091C57.1739 33.0318 57.3785 34.3897 57.7876 35.5829C58.208 36.7761 58.8273 37.7193 59.6455 38.4125C60.4751 39.0943 61.4978 39.4352 62.7137 39.4352ZM94.5171 45.0602C91.8353 45.0602 89.5285 44.492 87.5967 43.3556C85.6762 42.2079 84.1989 40.617 83.1648 38.5829C82.1421 36.5488 81.6307 34.2079 81.6307 31.5602C81.6307 28.8784 82.1478 26.5261 83.1819 24.5034C84.2273 22.4693 85.7103 20.8841 87.6308 19.7477C89.5512 18.6 91.8353 18.0261 94.483 18.0261C96.7671 18.0261 98.7671 18.4409 100.483 19.2704C102.199 20.1 103.557 21.2647 104.557 22.7647C105.557 24.2647 106.108 26.0261 106.21 28.0488H99.358C99.1648 26.742 98.6535 25.6909 97.8239 24.8954C97.0058 24.0886 95.9319 23.6852 94.6023 23.6852C93.4773 23.6852 92.4944 23.992 91.6535 24.6056C90.8239 25.2079 90.1762 26.0886 89.7103 27.2477C89.2444 28.4068 89.0114 29.8102 89.0114 31.4579C89.0114 33.1284 89.2387 34.5488 89.6933 35.7193C90.1592 36.8897 90.8126 37.7818 91.6535 38.3954C92.4944 39.0091 93.4773 39.3159 94.6023 39.3159C95.4319 39.3159 96.1762 39.1454 96.8353 38.8045C97.5058 38.4636 98.0569 37.9693 98.4887 37.3216C98.9319 36.6625 99.2217 35.8727 99.358 34.9522H106.21C106.097 36.9522 105.551 38.7136 104.574 40.2363C103.608 41.7477 102.273 42.9295 100.568 43.7818C98.8637 44.6341 96.8467 45.0602 94.5171 45.0602ZM119.839 37.0147L119.856 28.3045H120.913L129.299 18.367H137.634L126.367 31.5261H124.646L119.839 37.0147ZM113.259 44.5488V9.63974H120.521V44.5488H113.259ZM129.623 44.5488L121.919 33.1454L126.759 28.0147L138.129 44.5488H129.623ZM164.623 9.63974V44.5488H157.243V9.63974H164.623ZM180.221 29.4125V44.5488H172.959V18.367H179.88V22.9863H180.187C180.766 21.4636 181.738 20.2591 183.101 19.3727C184.465 18.475 186.119 18.0261 188.062 18.0261C189.88 18.0261 191.465 18.4238 192.817 19.2193C194.17 20.0147 195.221 21.1511 195.971 22.6284C196.721 24.0943 197.096 25.8443 197.096 27.8784V44.5488H189.834V29.1738C189.846 27.5716 189.437 26.3216 188.607 25.4238C187.778 24.5147 186.636 24.0602 185.181 24.0602C184.204 24.0602 183.34 24.2704 182.59 24.6909C181.851 25.1113 181.272 25.725 180.851 26.5318C180.442 27.3272 180.232 28.2875 180.221 29.4125ZM219.145 18.367V23.8216H203.378V18.367H219.145ZM206.957 12.0943H214.219V36.5034C214.219 37.1738 214.321 37.6966 214.526 38.0716C214.73 38.4352 215.014 38.6909 215.378 38.8386C215.753 38.9863 216.185 39.0602 216.673 39.0602C217.014 39.0602 217.355 39.0318 217.696 38.975C218.037 38.9068 218.298 38.8556 218.48 38.8216L219.622 44.225C219.259 44.3386 218.747 44.4693 218.088 44.617C217.429 44.7761 216.628 44.8727 215.685 44.9068C213.935 44.975 212.401 44.742 211.082 44.2079C209.776 43.6738 208.759 42.8443 208.031 41.7193C207.304 40.5943 206.946 39.1738 206.957 37.4579V12.0943ZM237.926 45.0602C235.232 45.0602 232.914 44.5147 230.971 43.4238C229.039 42.3216 227.551 40.7647 226.505 38.7534C225.46 36.7306 224.937 34.3386 224.937 31.5772C224.937 28.8841 225.46 26.5204 226.505 24.4863C227.551 22.4522 229.022 20.867 230.92 19.7306C232.829 18.5943 235.068 18.0261 237.636 18.0261C239.363 18.0261 240.971 18.3045 242.46 18.8613C243.96 19.4068 245.267 20.2306 246.38 21.3329C247.505 22.4352 248.38 23.8216 249.005 25.492C249.63 27.1511 249.943 29.0943 249.943 31.3216V33.3159H227.835V28.8159H243.107C243.107 27.7704 242.88 26.8443 242.426 26.0375C241.971 25.2306 241.34 24.6 240.534 24.1454C239.738 23.6795 238.812 23.4466 237.755 23.4466C236.653 23.4466 235.676 23.7022 234.823 24.2136C233.982 24.7136 233.323 25.3897 232.846 26.242C232.369 27.0829 232.124 28.0204 232.113 29.0545V33.3329C232.113 34.6284 232.352 35.7477 232.829 36.6909C233.318 37.6341 234.005 38.3613 234.892 38.8727C235.778 39.3841 236.829 39.6397 238.045 39.6397C238.852 39.6397 239.59 39.5261 240.261 39.2988C240.931 39.0716 241.505 38.7306 241.982 38.2761C242.46 37.8216 242.823 37.2647 243.073 36.6056L249.789 37.0488C249.448 38.6625 248.749 40.0716 247.693 41.2761C246.647 42.4693 245.295 43.4011 243.636 44.0716C241.988 44.7306 240.085 45.0602 237.926 45.0602ZM257.081 44.5488V18.367H264.121V22.9352H264.394C264.871 21.3102 265.672 20.0829 266.797 19.2534C267.922 18.4125 269.218 17.992 270.684 17.992C271.047 17.992 271.439 18.0147 271.86 18.0602C272.28 18.1056 272.65 18.1681 272.968 18.2477V24.6909C272.627 24.5886 272.155 24.4977 271.553 24.4181C270.951 24.3386 270.4 24.2988 269.9 24.2988C268.831 24.2988 267.877 24.5318 267.036 24.9977C266.206 25.4522 265.547 26.0886 265.059 26.9068C264.581 27.725 264.343 28.6681 264.343 29.7363V44.5488H257.081ZM304.328 18.367L295.174 44.5488H286.993L277.839 18.367H285.51L290.947 37.1H291.22L296.64 18.367H304.328ZM310.444 44.5488V18.367H317.705V44.5488H310.444ZM314.092 14.992C313.012 14.992 312.086 14.6341 311.313 13.9181C310.552 13.1909 310.171 12.3216 310.171 11.3102C310.171 10.3102 310.552 9.45224 311.313 8.73633C312.086 8.00905 313.012 7.64542 314.092 7.64542C315.171 7.64542 316.092 8.00905 316.853 8.73633C317.626 9.45224 318.012 10.3102 318.012 11.3102C318.012 12.3216 317.626 13.1909 316.853 13.9181C316.092 14.6341 315.171 14.992 314.092 14.992ZM337.854 45.0602C335.161 45.0602 332.842 44.5147 330.899 43.4238C328.967 42.3216 327.479 40.7647 326.433 38.7534C325.388 36.7306 324.865 34.3386 324.865 31.5772C324.865 28.8841 325.388 26.5204 326.433 24.4863C327.479 22.4522 328.95 20.867 330.848 19.7306C332.757 18.5943 334.996 18.0261 337.564 18.0261C339.291 18.0261 340.899 18.3045 342.388 18.8613C343.888 19.4068 345.195 20.2306 346.308 21.3329C347.433 22.4352 348.308 23.8216 348.933 25.492C349.558 27.1511 349.871 29.0943 349.871 31.3216V33.3159H327.763V28.8159H343.036C343.036 27.7704 342.808 26.8443 342.354 26.0375C341.899 25.2306 341.269 24.6 340.462 24.1454C339.666 23.6795 338.74 23.4466 337.683 23.4466C336.581 23.4466 335.604 23.7022 334.751 24.2136C333.911 24.7136 333.251 25.3897 332.774 26.242C332.297 27.0829 332.053 28.0204 332.041 29.0545V33.3329C332.041 34.6284 332.28 35.7477 332.757 36.6909C333.246 37.6341 333.933 38.3613 334.82 38.8727C335.706 39.3841 336.757 39.6397 337.973 39.6397C338.78 39.6397 339.519 39.5261 340.189 39.2988C340.859 39.0716 341.433 38.7306 341.911 38.2761C342.388 37.8216 342.751 37.2647 343.001 36.6056L349.717 37.0488C349.376 38.6625 348.678 40.0716 347.621 41.2761C346.575 42.4693 345.223 43.4011 343.564 44.0716C341.916 44.7306 340.013 45.0602 337.854 45.0602ZM361.987 44.5488L354.862 18.367H362.208L366.265 35.9579H366.504L370.731 18.367H377.941L382.237 35.8556H382.458L386.447 18.367H393.776L386.669 44.5488H378.981L374.481 28.0829H374.157L369.657 44.5488H361.987Z" fill="#D9D9D9"/>
<path d="M3.85924 67.2651V65.8482H12.3021V67.2651H8.8983V76.7573H7.25768V67.2651H3.85924ZM15.9326 71.8994V76.7573H14.3399V65.8482H15.9113V69.9072H16.0125C16.2043 69.4668 16.4972 69.1171 16.8914 68.8578C17.2856 68.5986 17.8005 68.469 18.4361 68.469C18.9972 68.469 19.4873 68.5844 19.9063 68.8152C20.3289 69.046 20.6556 69.3905 20.8864 69.8486C21.1208 70.3031 21.238 70.8713 21.238 71.5531V76.7573H19.6453V71.7449C19.6453 71.1448 19.4908 70.6796 19.1819 70.3493C18.8729 70.0155 18.4432 69.8486 17.8928 69.8486C17.5164 69.8486 17.179 69.9285 16.8807 70.0883C16.586 70.2481 16.3534 70.4825 16.1829 70.7914C16.016 71.0968 15.9326 71.4661 15.9326 71.8994ZM27.1896 76.9225C26.3835 76.9225 25.6893 76.7502 25.1069 76.4058C24.528 76.0578 24.0806 75.5695 23.7646 74.9409C23.4521 74.3088 23.2958 73.5684 23.2958 72.7197C23.2958 71.8816 23.4521 71.143 23.7646 70.5038C24.0806 69.8646 24.5209 69.3656 25.0856 69.007C25.6538 68.6483 26.3178 68.469 27.0778 68.469C27.5394 68.469 27.9869 68.5453 28.4201 68.698C28.8533 68.8507 29.2422 69.0904 29.5866 69.4171C29.9311 69.7438 30.2028 70.1682 30.4016 70.6902C30.6005 71.2087 30.6999 71.839 30.6999 72.5812V73.1458H24.196V71.9526H29.1392C29.1392 71.5336 29.054 71.1625 28.8835 70.8394C28.7131 70.5127 28.4734 70.2552 28.1644 70.067C27.859 69.8788 27.5003 69.7847 27.0884 69.7847C26.641 69.7847 26.2503 69.8948 25.9165 70.1149C25.5863 70.3315 25.3306 70.6156 25.1495 70.9672C24.9719 71.3152 24.8832 71.6934 24.8832 72.1018V73.034C24.8832 73.5808 24.979 74.046 25.1708 74.4296C25.3661 74.8131 25.6378 75.106 25.9858 75.3085C26.3338 75.5073 26.7404 75.6068 27.2056 75.6068C27.5074 75.6068 27.7827 75.5641 28.0312 75.4789C28.2798 75.3901 28.4947 75.2587 28.6758 75.0847C28.8569 74.9107 28.9954 74.6959 29.0913 74.4402L30.5987 74.7119C30.478 75.1558 30.2614 75.5446 29.9489 75.8784C29.6399 76.2087 29.2511 76.4661 28.7823 76.6508C28.3171 76.8319 27.7862 76.9225 27.1896 76.9225ZM37.0368 76.7573V68.5755H38.5655V69.9072H38.6668C38.8372 69.4562 39.116 69.1046 39.503 68.8525C39.8901 68.5968 40.3535 68.469 40.8933 68.469C41.4402 68.469 41.8983 68.5968 42.2676 68.8525C42.6405 69.1082 42.9157 69.4597 43.0932 69.9072H43.1785C43.3738 69.4704 43.6845 69.1224 44.1106 68.8631C44.5368 68.6004 45.0446 68.469 45.6341 68.469C46.3763 68.469 46.9817 68.7016 47.4505 69.1668C47.9228 69.632 48.1589 70.3333 48.1589 71.2708V76.7573H46.5663V71.42C46.5663 70.866 46.4153 70.4647 46.1135 70.2161C45.8116 69.9676 45.4512 69.8433 45.0322 69.8433C44.5137 69.8433 44.1106 70.0031 43.823 70.3227C43.5354 70.6387 43.3915 71.0453 43.3915 71.5425V76.7573H41.8042V71.3188C41.8042 70.8749 41.6657 70.518 41.3887 70.2481C41.1117 69.9782 40.7513 69.8433 40.3074 69.8433C40.0055 69.8433 39.7268 69.9232 39.4711 70.083C39.219 70.2392 39.0148 70.4576 38.8585 70.7381C38.7058 71.0187 38.6295 71.3436 38.6295 71.7129V76.7573H37.0368ZM54.1199 76.9225C53.3138 76.9225 52.6195 76.7502 52.0372 76.4058C51.4583 76.0578 51.0109 75.5695 50.6948 74.9409C50.3823 74.3088 50.2261 73.5684 50.2261 72.7197C50.2261 71.8816 50.3823 71.143 50.6948 70.5038C51.0109 69.8646 51.4512 69.3656 52.0158 69.007C52.584 68.6483 53.2481 68.469 54.008 68.469C54.4697 68.469 54.9171 68.5453 55.3504 68.698C55.7836 68.8507 56.1725 69.0904 56.5169 69.4171C56.8614 69.7438 57.133 70.1682 57.3319 70.6902C57.5308 71.2087 57.6302 71.839 57.6302 72.5812V73.1458H51.1263V71.9526H56.0695C56.0695 71.5336 55.9842 71.1625 55.8138 70.8394C55.6433 70.5127 55.4036 70.2552 55.0947 70.067C54.7893 69.8788 54.4306 69.7847 54.0187 69.7847C53.5712 69.7847 53.1806 69.8948 52.8468 70.1149C52.5166 70.3315 52.2609 70.6156 52.0798 70.9672C51.9022 71.3152 51.8134 71.6934 51.8134 72.1018V73.034C51.8134 73.5808 51.9093 74.046 52.1011 74.4296C52.2964 74.8131 52.568 75.106 52.9161 75.3085C53.2641 75.5073 53.6707 75.6068 54.1359 75.6068C54.4377 75.6068 54.7129 75.5641 54.9615 75.4789C55.2101 75.3901 55.4249 75.2587 55.606 75.0847C55.7872 74.9107 55.9256 74.6959 56.0215 74.4402L57.529 74.7119C57.4082 75.1558 57.1916 75.5446 56.8791 75.8784C56.5702 76.2087 56.1813 76.4661 55.7126 76.6508C55.2474 76.8319 54.7165 76.9225 54.1199 76.9225ZM62.0784 76.9384C61.5599 76.9384 61.0911 76.8426 60.6721 76.6508C60.2531 76.4555 59.921 76.1732 59.676 75.8038C59.4345 75.4345 59.3138 74.9818 59.3138 74.4455C59.3138 73.9839 59.4026 73.6039 59.5801 73.3056C59.7577 73.0073 59.9974 72.7712 60.2992 72.5972C60.6011 72.4232 60.9384 72.2918 61.3113 72.203C61.6842 72.1142 62.0642 72.0467 62.4512 72.0006C62.9413 71.9438 63.339 71.8976 63.6444 71.8621C63.9498 71.823 64.1718 71.7609 64.3103 71.6756C64.4487 71.5904 64.518 71.4519 64.518 71.2602V71.2229C64.518 70.7577 64.3866 70.3972 64.1238 70.1416C63.8646 69.8859 63.4775 69.758 62.9626 69.758C62.4264 69.758 62.0038 69.877 61.6948 70.1149C61.3894 70.3493 61.1782 70.6103 61.061 70.8979L59.5642 70.557C59.7417 70.0599 60.0009 69.6586 60.3419 69.3532C60.6863 69.0443 61.0823 68.8205 61.5297 68.682C61.9772 68.54 62.4477 68.469 62.9413 68.469C63.268 68.469 63.6142 68.508 63.98 68.5862C64.3493 68.6607 64.6938 68.7992 65.0134 69.0016C65.3365 69.2041 65.6011 69.4935 65.8071 69.8699C66.013 70.2428 66.116 70.7275 66.116 71.3241V76.7573H64.5606V75.6387H64.4967C64.3937 75.8447 64.2392 76.0471 64.0333 76.246C63.8273 76.4448 63.5627 76.61 63.2396 76.7413C62.9164 76.8727 62.5294 76.9384 62.0784 76.9384ZM62.4246 75.66C62.8649 75.66 63.2414 75.573 63.5539 75.399C63.8699 75.225 64.1096 74.9977 64.273 74.7172C64.4399 74.4331 64.5233 74.1295 64.5233 73.8063V72.7516C64.4665 72.8085 64.3564 72.8617 64.1931 72.9114C64.0333 72.9576 63.8504 72.9984 63.6444 73.034C63.4384 73.0659 63.2378 73.0961 63.0425 73.1245C62.8472 73.1494 62.6838 73.1707 62.5524 73.1884C62.2435 73.2275 61.9612 73.2932 61.7055 73.3855C61.4534 73.4778 61.2509 73.611 61.0983 73.785C60.9491 73.9555 60.8745 74.1828 60.8745 74.4668C60.8745 74.861 61.0201 75.1593 61.3113 75.3617C61.6025 75.5606 61.9736 75.66 62.4246 75.66ZM70.1301 71.8994V76.7573H68.5374V68.5755H70.0661V69.9072H70.1673C70.3555 69.4739 70.6503 69.1259 71.0516 68.8631C71.4564 68.6004 71.966 68.469 72.5803 68.469C73.1379 68.469 73.6261 68.5862 74.0452 68.8205C74.4642 69.0514 74.7891 69.3958 75.02 69.8539C75.2508 70.312 75.3662 70.8784 75.3662 71.5531V76.7573H73.7735V71.7449C73.7735 71.1519 73.619 70.6884 73.3101 70.3546C73.0011 70.0173 72.5768 69.8486 72.037 69.8486C71.6677 69.8486 71.3392 69.9285 71.0516 70.0883C70.7675 70.2481 70.542 70.4825 70.3751 70.7914C70.2117 71.0968 70.1301 71.4661 70.1301 71.8994ZM77.8022 76.7573V68.5755H79.3949V76.7573H77.8022ZM78.6065 67.3131C78.3296 67.3131 78.0916 67.2207 77.8928 67.0361C77.6975 66.8479 77.5998 66.6242 77.5998 66.3649C77.5998 66.1021 77.6975 65.8784 77.8928 65.6938C78.0916 65.5055 78.3296 65.4114 78.6065 65.4114C78.8835 65.4114 79.1197 65.5055 79.315 65.6938C79.5139 65.8784 79.6133 66.1021 79.6133 66.3649C79.6133 66.6242 79.5139 66.8479 79.315 67.0361C79.1197 67.2207 78.8835 67.3131 78.6065 67.3131ZM83.4302 71.8994V76.7573H81.8376V68.5755H83.3663V69.9072H83.4675C83.6557 69.4739 83.9505 69.1259 84.3518 68.8631C84.7566 68.6004 85.2662 68.469 85.8805 68.469C86.4381 68.469 86.9263 68.5862 87.3454 68.8205C87.7644 69.0514 88.0893 69.3958 88.3202 69.8539C88.551 70.312 88.6664 70.8784 88.6664 71.5531V76.7573H87.0737V71.7449C87.0737 71.1519 86.9192 70.6884 86.6103 70.3546C86.3013 70.0173 85.877 69.8486 85.3372 69.8486C84.9679 69.8486 84.6394 69.9285 84.3518 70.0883C84.0677 70.2481 83.8422 70.4825 83.6753 70.7914C83.5119 71.0968 83.4302 71.4661 83.4302 71.8994ZM94.5328 79.996C93.8829 79.996 93.3236 79.9107 92.8549 79.7403C92.3897 79.5698 92.0097 79.3443 91.715 79.0638C91.4202 78.7832 91.2001 78.4761 91.0545 78.1423L92.4234 77.5776C92.5193 77.7339 92.6472 77.899 92.807 78.073C92.9703 78.2506 93.1905 78.4015 93.4675 78.5258C93.748 78.6501 94.1084 78.7122 94.5488 78.7122C95.1525 78.7122 95.6514 78.5649 96.0456 78.2701C96.4398 77.9789 96.6369 77.5137 96.6369 76.8745V75.2658H96.5356C96.4398 75.4399 96.3013 75.6334 96.1202 75.8465C95.9426 76.0595 95.6976 76.2442 95.3851 76.4004C95.0726 76.5567 94.666 76.6348 94.1653 76.6348C93.519 76.6348 92.9366 76.4839 92.4181 76.182C91.9032 75.8766 91.4948 75.4274 91.193 74.8344C90.8947 74.2378 90.7455 73.5045 90.7455 72.6345C90.7455 71.7644 90.8929 71.0187 91.1876 70.3972C91.4859 69.7758 91.8943 69.2999 92.4128 68.9697C92.9312 68.6359 93.519 68.469 94.1759 68.469C94.6837 68.469 95.0939 68.5542 95.4064 68.7247C95.7189 68.8916 95.9621 69.0869 96.1361 69.3106C96.3137 69.5343 96.4504 69.7314 96.5463 69.9019H96.6635V68.5755H98.2242V76.9384C98.2242 77.6416 98.0609 78.2186 97.7342 78.6696C97.4074 79.1206 96.9653 79.4544 96.4078 79.671C95.8538 79.8877 95.2288 79.996 94.5328 79.996ZM94.5168 75.3138C94.9749 75.3138 95.362 75.2073 95.678 74.9942C95.9976 74.7776 96.2391 74.4686 96.4025 74.0673C96.5694 73.6625 96.6528 73.1778 96.6528 72.6131C96.6528 72.0627 96.5712 71.578 96.4078 71.159C96.2445 70.7399 96.0047 70.4132 95.6887 70.1788C95.3726 69.9409 94.982 69.822 94.5168 69.822C94.0374 69.822 93.6379 69.9462 93.3183 70.1948C92.9987 70.4399 92.7572 70.7737 92.5939 71.1962C92.4341 71.6188 92.3542 72.0911 92.3542 72.6131C92.3542 73.1494 92.4359 73.6199 92.5992 74.0247C92.7626 74.4296 93.004 74.7456 93.3236 74.9729C93.6468 75.2002 94.0445 75.3138 94.5168 75.3138ZM108.376 76.9225C107.609 76.9225 106.94 76.7467 106.368 76.3951C105.796 76.0435 105.353 75.5517 105.036 74.9196C104.72 74.2875 104.562 73.5489 104.562 72.7037C104.562 71.855 104.72 71.1128 105.036 70.4771C105.353 69.8415 105.796 69.3479 106.368 68.9963C106.94 68.6448 107.609 68.469 108.376 68.469C109.143 68.469 109.813 68.6448 110.384 68.9963C110.956 69.3479 111.4 69.8415 111.716 70.4771C112.032 71.1128 112.19 71.855 112.19 72.7037C112.19 73.5489 112.032 74.2875 111.716 74.9196C111.4 75.5517 110.956 76.0435 110.384 76.3951C109.813 76.7467 109.143 76.9225 108.376 76.9225ZM108.382 75.5854C108.879 75.5854 109.291 75.4541 109.617 75.1913C109.944 74.9285 110.186 74.5787 110.342 74.1419C110.502 73.7051 110.582 73.2239 110.582 72.6984C110.582 72.1764 110.502 71.697 110.342 71.2602C110.186 70.8198 109.944 70.4665 109.617 70.2002C109.291 69.9338 108.879 69.8006 108.382 69.8006C107.881 69.8006 107.465 69.9338 107.135 70.2002C106.808 70.4665 106.565 70.8198 106.405 71.2602C106.249 71.697 106.171 72.1764 106.171 72.6984C106.171 73.2239 106.249 73.7051 106.405 74.1419C106.565 74.5787 106.808 74.9285 107.135 75.1913C107.465 75.4541 107.881 75.5854 108.382 75.5854ZM118.162 68.5755V69.8539H113.538V68.5755H118.162ZM114.806 76.7573V67.6274C114.806 67.116 114.918 66.6916 115.142 66.3543C115.365 66.0134 115.662 65.7595 116.031 65.5926C116.4 65.4221 116.802 65.3369 117.235 65.3369C117.555 65.3369 117.828 65.3635 118.055 65.4168C118.283 65.4665 118.451 65.5127 118.561 65.5553L118.188 66.8443C118.114 66.823 118.018 66.7982 117.901 66.7698C117.784 66.7378 117.642 66.7218 117.475 66.7218C117.088 66.7218 116.811 66.8177 116.644 67.0095C116.48 67.2012 116.399 67.4782 116.399 67.8404V76.7573H114.806ZM126.756 76.9384C126.237 76.9384 125.769 76.8426 125.35 76.6508C124.931 76.4555 124.599 76.1732 124.354 75.8038C124.112 75.4345 123.991 74.9818 123.991 74.4455C123.991 73.9839 124.08 73.6039 124.258 73.3056C124.435 73.0073 124.675 72.7712 124.977 72.5972C125.279 72.4232 125.616 72.2918 125.989 72.203C126.362 72.1142 126.742 72.0467 127.129 72.0006C127.619 71.9438 128.017 71.8976 128.322 71.8621C128.627 71.823 128.849 71.7609 128.988 71.6756C129.126 71.5904 129.196 71.4519 129.196 71.2602V71.2229C129.196 70.7577 129.064 70.3972 128.801 70.1416C128.542 69.8859 128.155 69.758 127.64 69.758C127.104 69.758 126.681 69.877 126.372 70.1149C126.067 70.3493 125.856 70.6103 125.739 70.8979L124.242 70.557C124.419 70.0599 124.678 69.6586 125.019 69.3532C125.364 69.0443 125.76 68.8205 126.207 68.682C126.655 68.54 127.125 68.469 127.619 68.469C127.946 68.469 128.292 68.508 128.658 68.5862C129.027 68.6607 129.371 68.7992 129.691 69.0016C130.014 69.2041 130.279 69.4935 130.485 69.8699C130.691 70.2428 130.794 70.7275 130.794 71.3241V76.7573H129.238V75.6387H129.174C129.071 75.8447 128.917 76.0471 128.711 76.246C128.505 76.4448 128.24 76.61 127.917 76.7413C127.594 76.8727 127.207 76.9384 126.756 76.9384ZM127.102 75.66C127.542 75.66 127.919 75.573 128.231 75.399C128.547 75.225 128.787 74.9977 128.951 74.7172C129.117 74.4331 129.201 74.1295 129.201 73.8063V72.7516C129.144 72.8085 129.034 72.8617 128.871 72.9114C128.711 72.9576 128.528 72.9984 128.322 73.034C128.116 73.0659 127.915 73.0961 127.72 73.1245C127.525 73.1494 127.361 73.1707 127.23 73.1884C126.921 73.2275 126.639 73.2932 126.383 73.3855C126.131 73.4778 125.928 73.611 125.776 73.785C125.627 73.9555 125.552 74.1828 125.552 74.4668C125.552 74.861 125.698 75.1593 125.989 75.3617C126.28 75.5606 126.651 75.66 127.102 75.66ZM137.485 76.7573V68.5755H139.013V69.9072H139.115C139.285 69.4562 139.564 69.1046 139.951 68.8525C140.338 68.5968 140.801 68.469 141.341 68.469C141.888 68.469 142.346 68.5968 142.715 68.8525C143.088 69.1082 143.364 69.4597 143.541 69.9072H143.626C143.822 69.4704 144.132 69.1224 144.559 68.8631C144.985 68.6004 145.492 68.469 146.082 68.469C146.824 68.469 147.43 68.7016 147.898 69.1668C148.371 69.632 148.607 70.3333 148.607 71.2708V76.7573H147.014V71.42C147.014 70.866 146.863 70.4647 146.561 70.2161C146.259 69.9676 145.899 69.8433 145.48 69.8433C144.962 69.8433 144.559 70.0031 144.271 70.3227C143.983 70.6387 143.839 71.0453 143.839 71.5425V76.7573H142.252V71.3188C142.252 70.8749 142.114 70.518 141.837 70.2481C141.56 69.9782 141.199 69.8433 140.755 69.8433C140.453 69.8433 140.175 69.9232 139.919 70.083C139.667 70.2392 139.463 70.4576 139.306 70.7381C139.154 71.0187 139.077 71.3436 139.077 71.7129V76.7573H137.485ZM154.488 76.9225C153.721 76.9225 153.051 76.7467 152.48 76.3951C151.908 76.0435 151.464 75.5517 151.148 74.9196C150.832 74.2875 150.674 73.5489 150.674 72.7037C150.674 71.855 150.832 71.1128 151.148 70.4771C151.464 69.8415 151.908 69.3479 152.48 68.9963C153.051 68.6448 153.721 68.469 154.488 68.469C155.255 68.469 155.924 68.6448 156.496 68.9963C157.068 69.3479 157.512 69.8415 157.828 70.4771C158.144 71.1128 158.302 71.855 158.302 72.7037C158.302 73.5489 158.144 74.2875 157.828 74.9196C157.512 75.5517 157.068 76.0435 156.496 76.3951C155.924 76.7467 155.255 76.9225 154.488 76.9225ZM154.493 75.5854C154.99 75.5854 155.402 75.4541 155.729 75.1913C156.056 74.9285 156.297 74.5787 156.453 74.1419C156.613 73.7051 156.693 73.2239 156.693 72.6984C156.693 72.1764 156.613 71.697 156.453 71.2602C156.297 70.8198 156.056 70.4665 155.729 70.2002C155.402 69.9338 154.99 69.8006 154.493 69.8006C153.992 69.8006 153.577 69.9338 153.247 70.2002C152.92 70.4665 152.677 70.8198 152.517 71.2602C152.361 71.697 152.283 72.1764 152.283 72.6984C152.283 73.2239 152.361 73.7051 152.517 74.1419C152.677 74.5787 152.92 74.9285 153.247 75.1913C153.577 75.4541 153.992 75.5854 154.493 75.5854ZM163.826 76.9225C163.034 76.9225 162.352 76.7431 161.78 76.3845C161.212 76.0222 160.776 75.5233 160.47 74.8877C160.165 74.252 160.012 73.524 160.012 72.7037C160.012 71.8727 160.168 71.1394 160.481 70.5038C160.793 69.8646 161.234 69.3656 161.802 69.007C162.37 68.6483 163.039 68.469 163.81 68.469C164.431 68.469 164.985 68.5844 165.472 68.8152C165.958 69.0425 166.351 69.3621 166.649 69.774C166.951 70.1859 167.13 70.6671 167.187 71.2176H165.637C165.552 70.834 165.356 70.5038 165.051 70.2268C164.749 69.9498 164.344 69.8113 163.837 69.8113C163.393 69.8113 163.004 69.9285 162.67 70.1629C162.34 70.3937 162.082 70.7239 161.898 71.1536C161.713 71.5798 161.621 72.084 161.621 72.6664C161.621 73.263 161.711 73.7779 161.892 74.2112C162.073 74.6444 162.329 74.98 162.659 75.2179C162.993 75.4558 163.386 75.5748 163.837 75.5748C164.138 75.5748 164.412 75.5198 164.657 75.4097C164.905 75.296 165.113 75.1345 165.28 74.9249C165.451 74.7154 165.57 74.4633 165.637 74.1685H167.187C167.13 74.6977 166.958 75.17 166.67 75.5854C166.383 76.0009 165.997 76.3276 165.514 76.5656C165.035 76.8035 164.472 76.9225 163.826 76.9225ZM170.655 73.9821L170.644 72.0379H170.921L174.181 68.5755H176.088L172.37 72.5173H172.12L170.655 73.9821ZM169.19 76.7573V65.8482H170.783V76.7573H169.19ZM174.357 76.7573L171.428 72.8688L172.525 71.7555L176.312 76.7573H174.357ZM182.11 76.7573V68.5755H183.702V76.7573H182.11ZM182.914 67.3131C182.637 67.3131 182.399 67.2207 182.2 67.0361C182.005 66.8479 181.907 66.6242 181.907 66.3649C181.907 66.1021 182.005 65.8784 182.2 65.6938C182.399 65.5055 182.637 65.4114 182.914 65.4114C183.191 65.4114 183.427 65.5055 183.622 65.6938C183.821 65.8784 183.921 66.1021 183.921 66.3649C183.921 66.6242 183.821 66.8479 183.622 67.0361C183.427 67.2207 183.191 67.3131 182.914 67.3131ZM187.738 71.8994V76.7573H186.145V68.5755H187.674V69.9072H187.775C187.963 69.4739 188.258 69.1259 188.659 68.8631C189.064 68.6004 189.574 68.469 190.188 68.469C190.745 68.469 191.234 68.5862 191.653 68.8205C192.072 69.0514 192.397 69.3958 192.628 69.8539C192.858 70.312 192.974 70.8784 192.974 71.5531V76.7573H191.381V71.7449C191.381 71.1519 191.227 70.6884 190.918 70.3546C190.609 70.0173 190.184 69.8486 189.645 69.8486C189.275 69.8486 188.947 69.9285 188.659 70.0883C188.375 70.2481 188.15 70.4825 187.983 70.7914C187.819 71.0968 187.738 71.4661 187.738 71.8994ZM199.229 68.5755V69.8539H194.76V68.5755H199.229ZM195.958 66.6153H197.551V74.355C197.551 74.6639 197.597 74.8965 197.69 75.0528C197.782 75.2055 197.901 75.3102 198.047 75.3671C198.196 75.4203 198.357 75.447 198.531 75.447C198.659 75.447 198.771 75.4381 198.867 75.4203C198.963 75.4026 199.037 75.3884 199.091 75.3777L199.378 76.6934C199.286 76.7289 199.154 76.7644 198.984 76.7999C198.814 76.839 198.601 76.8603 198.345 76.8639C197.926 76.871 197.535 76.7964 197.173 76.6401C196.811 76.4839 196.518 76.2424 196.294 75.9157C196.07 75.589 195.958 75.1788 195.958 74.6852V66.6153ZM204.729 76.9225C203.923 76.9225 203.229 76.7502 202.647 76.4058C202.068 76.0578 201.62 75.5695 201.304 74.9409C200.992 74.3088 200.835 73.5684 200.835 72.7197C200.835 71.8816 200.992 71.143 201.304 70.5038C201.62 69.8646 202.061 69.3656 202.625 69.007C203.193 68.6483 203.857 68.469 204.617 68.469C205.079 68.469 205.527 68.5453 205.96 68.698C206.393 68.8507 206.782 69.0904 207.126 69.4171C207.471 69.7438 207.742 70.1682 207.941 70.6902C208.14 71.2087 208.24 71.839 208.24 72.5812V73.1458H201.736V71.9526H206.679C206.679 71.5336 206.594 71.1625 206.423 70.8394C206.253 70.5127 206.013 70.2552 205.704 70.067C205.399 69.8788 205.04 69.7847 204.628 69.7847C204.181 69.7847 203.79 69.8948 203.456 70.1149C203.126 70.3315 202.87 70.6156 202.689 70.9672C202.512 71.3152 202.423 71.6934 202.423 72.1018V73.034C202.423 73.5808 202.519 74.046 202.71 74.4296C202.906 74.8131 203.177 75.106 203.525 75.3085C203.873 75.5073 204.28 75.6068 204.745 75.6068C205.047 75.6068 205.322 75.5641 205.571 75.4789C205.819 75.3901 206.034 75.2587 206.215 75.0847C206.397 74.9107 206.535 74.6959 206.631 74.4402L208.138 74.7119C208.018 75.1558 207.801 75.5446 207.489 75.8784C207.18 76.2087 206.791 76.4661 206.322 76.6508C205.857 76.8319 205.326 76.9225 204.729 76.9225ZM210.307 76.7573V68.5755H211.846V69.8752H211.931C212.08 69.4349 212.343 69.0886 212.72 68.8365C213.1 68.5808 213.529 68.453 214.009 68.453C214.108 68.453 214.225 68.4565 214.36 68.4636C214.499 68.4707 214.607 68.4796 214.685 68.4903V70.0137C214.621 69.996 214.508 69.9764 214.344 69.9551C214.181 69.9303 214.018 69.9178 213.854 69.9178C213.478 69.9178 213.142 69.9977 212.848 70.1575C212.556 70.3138 212.326 70.5322 212.155 70.8127C211.985 71.0897 211.899 71.4058 211.899 71.7609V76.7573H210.307ZM223.612 68.5755L220.645 76.7573H218.94L215.968 68.5755H217.678L219.75 74.8717H219.835L221.902 68.5755H223.612ZM225.409 76.7573V68.5755H227.001V76.7573H225.409ZM226.213 67.3131C225.936 67.3131 225.698 67.2207 225.499 67.0361C225.304 66.8479 225.206 66.6242 225.206 66.3649C225.206 66.1021 225.304 65.8784 225.499 65.6938C225.698 65.5055 225.936 65.4114 226.213 65.4114C226.49 65.4114 226.726 65.5055 226.921 65.6938C227.12 65.8784 227.22 66.1021 227.22 66.3649C227.22 66.6242 227.12 66.8479 226.921 67.0361C226.726 67.2207 226.49 67.3131 226.213 67.3131ZM232.97 76.9225C232.164 76.9225 231.47 76.7502 230.888 76.4058C230.309 76.0578 229.861 75.5695 229.545 74.9409C229.233 74.3088 229.076 73.5684 229.076 72.7197C229.076 71.8816 229.233 71.143 229.545 70.5038C229.861 69.8646 230.302 69.3656 230.866 69.007C231.434 68.6483 232.098 68.469 232.858 68.469C233.32 68.469 233.768 68.5453 234.201 68.698C234.634 68.8507 235.023 69.0904 235.367 69.4171C235.712 69.7438 235.983 70.1682 236.182 70.6902C236.381 71.2087 236.481 71.839 236.481 72.5812V73.1458H229.977V71.9526H234.92C234.92 71.5336 234.835 71.1625 234.664 70.8394C234.494 70.5127 234.254 70.2552 233.945 70.067C233.64 69.8788 233.281 69.7847 232.869 69.7847C232.422 69.7847 232.031 69.8948 231.697 70.1149C231.367 70.3315 231.111 70.6156 230.93 70.9672C230.753 71.3152 230.664 71.6934 230.664 72.1018V73.034C230.664 73.5808 230.76 74.046 230.951 74.4296C231.147 74.8131 231.418 75.106 231.766 75.3085C232.114 75.5073 232.521 75.6068 232.986 75.6068C233.288 75.6068 233.563 75.5641 233.812 75.4789C234.06 75.3901 234.275 75.2587 234.456 75.0847C234.638 74.9107 234.776 74.6959 234.872 74.4402L236.379 74.7119C236.259 75.1558 236.042 75.5446 235.73 75.8784C235.421 76.2087 235.032 76.4661 234.563 76.6508C234.098 76.8319 233.567 76.9225 232.97 76.9225ZM240.307 76.7573L237.899 68.5755H239.545L241.148 74.584H241.228L242.837 68.5755H244.483L246.081 74.5574H246.161L247.754 68.5755H249.4L246.997 76.7573H245.373L243.711 70.85H243.588L241.926 76.7573H240.307ZM255.481 76.7573V68.5755H257.073V76.7573H255.481ZM256.285 67.3131C256.008 67.3131 255.77 67.2207 255.571 67.0361C255.376 66.8479 255.278 66.6242 255.278 66.3649C255.278 66.1021 255.376 65.8784 255.571 65.6938C255.77 65.5055 256.008 65.4114 256.285 65.4114C256.562 65.4114 256.798 65.5055 256.994 65.6938C257.192 65.8784 257.292 66.1021 257.292 66.3649C257.292 66.6242 257.192 66.8479 256.994 67.0361C256.798 67.2207 256.562 67.3131 256.285 67.3131ZM265.647 70.573L264.204 70.8287C264.143 70.644 264.047 70.4683 263.916 70.3014C263.788 70.1345 263.614 69.9977 263.394 69.8912C263.174 69.7847 262.899 69.7314 262.568 69.7314C262.117 69.7314 261.741 69.8326 261.439 70.035C261.137 70.2339 260.986 70.4913 260.986 70.8074C260.986 71.0808 261.087 71.301 261.29 71.4679C261.492 71.6348 261.819 71.7715 262.27 71.8781L263.57 72.1764C264.323 72.3504 264.884 72.6185 265.253 72.9807C265.622 73.3429 265.807 73.8134 265.807 74.3923C265.807 74.8823 265.665 75.3191 265.381 75.7026C265.1 76.0826 264.708 76.3809 264.204 76.5975C263.703 76.8141 263.122 76.9225 262.462 76.9225C261.546 76.9225 260.798 76.7271 260.219 76.3365C259.64 75.9423 259.285 75.383 259.154 74.6586L260.693 74.4242C260.789 74.8255 260.986 75.1291 261.285 75.3351C261.583 75.5375 261.972 75.6387 262.451 75.6387C262.973 75.6387 263.39 75.5304 263.703 75.3138C264.015 75.0936 264.172 74.8255 264.172 74.5095C264.172 74.2538 264.076 74.0389 263.884 73.8649C263.696 73.6909 263.406 73.5595 263.016 73.4707L261.631 73.1671C260.867 72.9931 260.303 72.7161 259.937 72.3362C259.575 71.9562 259.394 71.475 259.394 70.8926C259.394 70.4097 259.529 69.9871 259.798 69.6249C260.068 69.2627 260.441 68.9803 260.917 68.7779C261.393 68.572 261.938 68.469 262.552 68.469C263.437 68.469 264.133 68.6607 264.64 69.0443C265.148 69.4242 265.484 69.9338 265.647 70.573ZM278.259 70.573L276.815 70.8287C276.755 70.644 276.659 70.4683 276.528 70.3014C276.4 70.1345 276.226 69.9977 276.006 69.8912C275.785 69.7847 275.51 69.7314 275.18 69.7314C274.729 69.7314 274.353 69.8326 274.051 70.035C273.749 70.2339 273.598 70.4913 273.598 70.8074C273.598 71.0808 273.699 71.301 273.902 71.4679C274.104 71.6348 274.431 71.7715 274.882 71.8781L276.181 72.1764C276.934 72.3504 277.495 72.6185 277.865 72.9807C278.234 73.3429 278.419 73.8134 278.419 74.3923C278.419 74.8823 278.277 75.3191 277.992 75.7026C277.712 76.0826 277.32 76.3809 276.815 76.5975C276.315 76.8141 275.734 76.9225 275.073 76.9225C274.157 76.9225 273.41 76.7271 272.831 76.3365C272.252 75.9423 271.897 75.383 271.766 74.6586L273.305 74.4242C273.401 74.8255 273.598 75.1291 273.896 75.3351C274.195 75.5375 274.583 75.6387 275.063 75.6387C275.585 75.6387 276.002 75.5304 276.315 75.3138C276.627 75.0936 276.783 74.8255 276.783 74.5095C276.783 74.2538 276.687 74.0389 276.496 73.8649C276.307 73.6909 276.018 73.5595 275.627 73.4707L274.242 73.1671C273.479 72.9931 272.914 72.7161 272.549 72.3362C272.186 71.9562 272.005 71.475 272.005 70.8926C272.005 70.4097 272.14 69.9871 272.41 69.6249C272.68 69.2627 273.053 68.9803 273.529 68.7779C274.005 68.572 274.55 68.469 275.164 68.469C276.048 68.469 276.744 68.6607 277.252 69.0443C277.76 69.4242 278.095 69.9338 278.259 70.573ZM283.996 76.9225C283.19 76.9225 282.496 76.7502 281.913 76.4058C281.334 76.0578 280.887 75.5695 280.571 74.9409C280.258 74.3088 280.102 73.5684 280.102 72.7197C280.102 71.8816 280.258 71.143 280.571 70.5038C280.887 69.8646 281.327 69.3656 281.892 69.007C282.46 68.6483 283.124 68.469 283.884 68.469C284.346 68.469 284.793 68.5453 285.227 68.698C285.66 68.8507 286.049 69.0904 286.393 69.4171C286.738 69.7438 287.009 70.1682 287.208 70.6902C287.407 71.2087 287.506 71.839 287.506 72.5812V73.1458H281.002V71.9526H285.946C285.946 71.5336 285.86 71.1625 285.69 70.8394C285.519 70.5127 285.28 70.2552 284.971 70.067C284.665 69.8788 284.307 69.7847 283.895 69.7847C283.447 69.7847 283.057 69.8948 282.723 70.1149C282.393 70.3315 282.137 70.6156 281.956 70.9672C281.778 71.3152 281.69 71.6934 281.69 72.1018V73.034C281.69 73.5808 281.785 74.046 281.977 74.4296C282.173 74.8131 282.444 75.106 282.792 75.3085C283.14 75.5073 283.547 75.6068 284.012 75.6068C284.314 75.6068 284.589 75.5641 284.838 75.4789C285.086 75.3901 285.301 75.2587 285.482 75.0847C285.663 74.9107 285.802 74.6959 285.898 74.4402L287.405 74.7119C287.284 75.1558 287.068 75.5446 286.755 75.8784C286.446 76.2087 286.057 76.4661 285.589 76.6508C285.124 76.8319 284.593 76.9225 283.996 76.9225ZM291.166 65.8482V76.7573H289.574V65.8482H291.166ZM297.503 68.5755V69.8539H292.879V68.5755H297.503ZM294.147 76.7573V67.6274C294.147 67.116 294.259 66.6916 294.482 66.3543C294.706 66.0134 295.003 65.7595 295.372 65.5926C295.741 65.4221 296.143 65.3369 296.576 65.3369C296.895 65.3369 297.169 65.3635 297.396 65.4168C297.623 65.4665 297.792 65.5127 297.902 65.5553L297.529 66.8443C297.455 66.823 297.359 66.7982 297.242 66.7698C297.124 66.7378 296.982 66.7218 296.816 66.7218C296.428 66.7218 296.151 66.8177 295.985 67.0095C295.821 67.2012 295.74 67.4782 295.74 67.8404V76.7573H294.147ZM303.886 71.4573V72.8369H299.049V71.4573H303.886ZM309.835 76.9225C309.029 76.9225 308.334 76.7502 307.752 76.4058C307.173 76.0578 306.726 75.5695 306.41 74.9409C306.097 74.3088 305.941 73.5684 305.941 72.7197C305.941 71.8816 306.097 71.143 306.41 70.5038C306.726 69.8646 307.166 69.3656 307.731 69.007C308.299 68.6483 308.963 68.469 309.723 68.469C310.185 68.469 310.632 68.5453 311.065 68.698C311.498 68.8507 311.887 69.0904 312.232 69.4171C312.576 69.7438 312.848 70.1682 313.047 70.6902C313.246 71.2087 313.345 71.839 313.345 72.5812V73.1458H306.841V71.9526H311.784C311.784 71.5336 311.699 71.1625 311.529 70.8394C311.358 70.5127 311.118 70.2552 310.81 70.067C310.504 69.8788 310.145 69.7847 309.734 69.7847C309.286 69.7847 308.895 69.8948 308.562 70.1149C308.231 70.3315 307.976 70.6156 307.795 70.9672C307.617 71.3152 307.528 71.6934 307.528 72.1018V73.034C307.528 73.5808 307.624 74.046 307.816 74.4296C308.011 74.8131 308.283 75.106 308.631 75.3085C308.979 75.5073 309.386 75.6068 309.851 75.6068C310.153 75.6068 310.428 75.5641 310.676 75.4789C310.925 75.3901 311.14 75.2587 311.321 75.0847C311.502 74.9107 311.64 74.6959 311.736 74.4402L313.244 74.7119C313.123 75.1558 312.906 75.5446 312.594 75.8784C312.285 76.2087 311.896 76.4661 311.427 76.6508C310.962 76.8319 310.431 76.9225 309.835 76.9225ZM316.479 68.5755L318.285 71.7609L320.106 68.5755H321.848L319.297 72.6664L321.869 76.7573H320.128L318.285 73.6998L316.447 76.7573H314.7L317.246 72.6664L314.732 68.5755H316.479ZM323.783 79.8255V68.5755H325.339V69.9019H325.472C325.564 69.7314 325.698 69.5343 325.872 69.3106C326.046 69.0869 326.287 68.8916 326.596 68.7247C326.905 68.5542 327.313 68.469 327.821 68.469C328.482 68.469 329.071 68.6359 329.59 68.9697C330.108 69.3035 330.515 69.7847 330.809 70.4132C331.108 71.0418 331.257 71.7982 331.257 72.6824C331.257 73.5666 331.109 74.3248 330.815 74.9569C330.52 75.5854 330.115 76.0702 329.6 76.4111C329.085 76.7484 328.498 76.9171 327.837 76.9171C327.34 76.9171 326.933 76.8337 326.617 76.6668C326.305 76.4999 326.06 76.3046 325.882 76.0808C325.705 75.8571 325.568 75.6582 325.472 75.4842H325.376V79.8255H323.783ZM325.344 72.6664C325.344 73.2417 325.428 73.746 325.595 74.1792C325.761 74.6124 326.003 74.9516 326.319 75.1966C326.635 75.4381 327.022 75.5588 327.48 75.5588C327.956 75.5588 328.354 75.4328 328.673 75.1806C328.993 74.9249 329.234 74.5787 329.398 74.1419C329.565 73.7051 329.648 73.2133 329.648 72.6664C329.648 72.1266 329.566 71.6419 329.403 71.2122C329.243 70.7825 329.002 70.4434 328.679 70.1948C328.359 69.9462 327.96 69.822 327.48 69.822C327.019 69.822 326.628 69.9409 326.308 70.1788C325.992 70.4168 325.753 70.7488 325.589 71.1749C325.426 71.6011 325.344 72.0982 325.344 72.6664ZM334.934 65.8482V76.7573H333.341V65.8482H334.934ZM339.758 76.9384C339.239 76.9384 338.77 76.8426 338.351 76.6508C337.932 76.4555 337.6 76.1732 337.355 75.8038C337.114 75.4345 336.993 74.9818 336.993 74.4455C336.993 73.9839 337.082 73.6039 337.259 73.3056C337.437 73.0073 337.677 72.7712 337.979 72.5972C338.28 72.4232 338.618 72.2918 338.991 72.203C339.363 72.1142 339.743 72.0467 340.131 72.0006C340.621 71.9438 341.018 71.8976 341.324 71.8621C341.629 71.823 341.851 71.7609 341.99 71.6756C342.128 71.5904 342.197 71.4519 342.197 71.2602V71.2229C342.197 70.7577 342.066 70.3972 341.803 70.1416C341.544 69.8859 341.157 69.758 340.642 69.758C340.106 69.758 339.683 69.877 339.374 70.1149C339.069 70.3493 338.857 70.6103 338.74 70.8979L337.243 70.557C337.421 70.0599 337.68 69.6586 338.021 69.3532C338.366 69.0443 338.762 68.8205 339.209 68.682C339.656 68.54 340.127 68.469 340.621 68.469C340.947 68.469 341.294 68.508 341.659 68.5862C342.029 68.6607 342.373 68.7992 342.693 69.0016C343.016 69.2041 343.28 69.4935 343.486 69.8699C343.692 70.2428 343.795 70.7275 343.795 71.3241V76.7573H342.24V75.6387H342.176C342.073 75.8447 341.919 76.0471 341.713 76.246C341.507 76.4448 341.242 76.61 340.919 76.7413C340.596 76.8727 340.209 76.9384 339.758 76.9384ZM340.104 75.66C340.544 75.66 340.921 75.573 341.233 75.399C341.549 75.225 341.789 74.9977 341.952 74.7172C342.119 74.4331 342.203 74.1295 342.203 73.8063V72.7516C342.146 72.8085 342.036 72.8617 341.872 72.9114C341.713 72.9576 341.53 72.9984 341.324 73.034C341.118 73.0659 340.917 73.0961 340.722 73.1245C340.526 73.1494 340.363 73.1707 340.232 73.1884C339.923 73.2275 339.64 73.2932 339.385 73.3855C339.133 73.4778 338.93 73.611 338.778 73.785C338.628 73.9555 338.554 74.1828 338.554 74.4668C338.554 74.861 338.699 75.1593 338.991 75.3617C339.282 75.5606 339.653 75.66 340.104 75.66ZM347.809 71.8994V76.7573H346.217V68.5755H347.745V69.9072H347.847C348.035 69.4739 348.33 69.1259 348.731 68.8631C349.136 68.6004 349.645 68.469 350.26 68.469C350.817 68.469 351.305 68.5862 351.724 68.8205C352.144 69.0514 352.468 69.3958 352.699 69.8539C352.93 70.312 353.045 70.8784 353.045 71.5531V76.7573H351.453V71.7449C351.453 71.1519 351.298 70.6884 350.989 70.3546C350.68 70.0173 350.256 69.8486 349.716 69.8486C349.347 69.8486 349.019 69.9285 348.731 70.0883C348.447 70.2481 348.221 70.4825 348.054 70.7914C347.891 71.0968 347.809 71.4661 347.809 71.8994ZM357.863 76.9384C357.344 76.9384 356.875 76.8426 356.456 76.6508C356.037 76.4555 355.705 76.1732 355.46 75.8038C355.219 75.4345 355.098 74.9818 355.098 74.4455C355.098 73.9839 355.187 73.6039 355.364 73.3056C355.542 73.0073 355.782 72.7712 356.083 72.5972C356.385 72.4232 356.723 72.2918 357.095 72.203C357.468 72.1142 357.848 72.0467 358.235 72.0006C358.725 71.9438 359.123 71.8976 359.429 71.8621C359.734 71.823 359.956 71.7609 360.094 71.6756C360.233 71.5904 360.302 71.4519 360.302 71.2602V71.2229C360.302 70.7577 360.171 70.3972 359.908 70.1416C359.649 69.8859 359.262 69.758 358.747 69.758C358.211 69.758 357.788 69.877 357.479 70.1149C357.174 70.3493 356.962 70.6103 356.845 70.8979L355.348 70.557C355.526 70.0599 355.785 69.6586 356.126 69.3532C356.47 69.0443 356.866 68.8205 357.314 68.682C357.761 68.54 358.232 68.469 358.725 68.469C359.052 68.469 359.398 68.508 359.764 68.5862C360.133 68.6607 360.478 68.7992 360.798 69.0016C361.121 69.2041 361.385 69.4935 361.591 69.8699C361.797 70.2428 361.9 70.7275 361.9 71.3241V76.7573H360.345V75.6387H360.281C360.178 75.8447 360.023 76.0471 359.817 76.246C359.611 76.4448 359.347 76.61 359.024 76.7413C358.701 76.8727 358.314 76.9384 357.863 76.9384ZM358.209 75.66C358.649 75.66 359.026 75.573 359.338 75.399C359.654 75.225 359.894 74.9977 360.057 74.7172C360.224 74.4331 360.307 74.1295 360.307 73.8063V72.7516C360.251 72.8085 360.141 72.8617 359.977 72.9114C359.817 72.9576 359.635 72.9984 359.429 73.034C359.223 73.0659 359.022 73.0961 358.827 73.1245C358.631 73.1494 358.468 73.1707 358.337 73.1884C358.028 73.2275 357.745 73.2932 357.49 73.3855C357.238 73.4778 357.035 73.611 356.882 73.785C356.733 73.9555 356.659 74.1828 356.659 74.4668C356.659 74.861 356.804 75.1593 357.095 75.3617C357.387 75.5606 357.758 75.66 358.209 75.66ZM368.141 68.5755V69.8539H363.672V68.5755H368.141ZM364.87 66.6153H366.463V74.355C366.463 74.6639 366.509 74.8965 366.601 75.0528C366.694 75.2055 366.813 75.3102 366.958 75.3671C367.107 75.4203 367.269 75.447 367.443 75.447C367.571 75.447 367.683 75.4381 367.779 75.4203C367.874 75.4026 367.949 75.3884 368.002 75.3777L368.29 76.6934C368.198 76.7289 368.066 76.7644 367.896 76.7999C367.725 76.839 367.512 76.8603 367.257 76.8639C366.838 76.871 366.447 76.7964 366.085 76.6401C365.722 76.4839 365.43 76.2424 365.206 75.9157C364.982 75.589 364.87 75.1788 364.87 74.6852V66.6153ZM373.561 76.9225C372.794 76.9225 372.125 76.7467 371.553 76.3951C370.981 76.0435 370.537 75.5517 370.221 74.9196C369.905 74.2875 369.747 73.5489 369.747 72.7037C369.747 71.855 369.905 71.1128 370.221 70.4771C370.537 69.8415 370.981 69.3479 371.553 68.9963C372.125 68.6448 372.794 68.469 373.561 68.469C374.328 68.469 374.998 68.6448 375.569 68.9963C376.141 69.3479 376.585 69.8415 376.901 70.4771C377.217 71.1128 377.375 71.855 377.375 72.7037C377.375 73.5489 377.217 74.2875 376.901 74.9196C376.585 75.5517 376.141 76.0435 375.569 76.3951C374.998 76.7467 374.328 76.9225 373.561 76.9225ZM373.566 75.5854C374.064 75.5854 374.476 75.4541 374.802 75.1913C375.129 74.9285 375.37 74.5787 375.527 74.1419C375.686 73.7051 375.766 73.2239 375.766 72.6984C375.766 72.1764 375.686 71.697 375.527 71.2602C375.37 70.8198 375.129 70.4665 374.802 70.2002C374.476 69.9338 374.064 69.8006 373.566 69.8006C373.066 69.8006 372.65 69.9338 372.32 70.2002C371.993 70.4665 371.75 70.8198 371.59 71.2602C371.434 71.697 371.356 72.1764 371.356 72.6984C371.356 73.2239 371.434 73.7051 371.59 74.1419C371.75 74.5787 371.993 74.9285 372.32 75.1913C372.65 75.4541 373.066 75.5854 373.566 75.5854ZM379.453 76.7573V68.5755H380.992V69.8752H381.077C381.227 69.4349 381.489 69.0886 381.866 68.8365C382.246 68.5808 382.675 68.453 383.155 68.453C383.254 68.453 383.371 68.4565 383.506 68.4636C383.645 68.4707 383.753 68.4796 383.831 68.4903V70.0137C383.767 69.996 383.654 69.9764 383.49 69.9551C383.327 69.9303 383.164 69.9178 383 69.9178C382.624 69.9178 382.288 69.9977 381.994 70.1575C381.702 70.3138 381.472 70.5322 381.301 70.8127C381.131 71.0897 381.045 71.4058 381.045 71.7609V76.7573H379.453ZM386.765 79.8255C386.527 79.8255 386.311 79.806 386.116 79.7669C385.92 79.7314 385.775 79.6923 385.679 79.6497L386.062 78.3447C386.353 78.4228 386.613 78.4565 386.84 78.4459C387.067 78.4352 387.268 78.35 387.442 78.1902C387.619 78.0304 387.776 77.7694 387.911 77.4072L388.108 76.8639L385.114 68.5755H386.819L388.891 74.9249H388.976L391.048 68.5755H392.758L389.386 77.8493C389.23 78.2754 389.031 78.6359 388.79 78.9306C388.548 79.2289 388.26 79.4526 387.927 79.6018C387.593 79.7509 387.206 79.8255 386.765 79.8255Z" fill="#C2BEBE"/>
</svg>
