<svg width="199" height="35" viewBox="0 0 199 35" fill="none" xmlns="http://www.w3.org/2000/svg">
<path d="M54.8294 31.2613C60.7298 31.2613 64.8862 28.0944 64.8862 22.908C64.8862 17.2463 60.2152 15.7808 55.8193 14.3939C51.6236 13.1286 50.555 12.2172 50.555 10.5158C50.555 8.93233 51.9024 7.74565 54.1968 7.74565C57.0058 7.74565 58.5104 9.20756 59.5004 11.3093L64.0928 8.65353C62.2344 4.77537 58.7499 2.43774 54.1968 2.43774C49.4471 2.43774 45.0906 5.44734 45.0906 10.673C45.0906 15.938 49.2077 17.7216 53.4463 18.9476C57.5634 20.1379 59.4218 20.9278 59.4218 22.9867C59.4218 24.5308 58.2746 25.9176 54.9902 25.9176C51.545 25.9176 49.6044 24.2556 48.6144 21.682L43.9434 24.4128C45.448 28.5305 49.1684 31.2613 54.8294 31.2613Z" fill="white"/>
<path d="M81.586 31.2613C86.693 31.2613 91.1675 28.6877 93.5012 24.7274L88.7909 21.9966C87.4864 24.4128 84.7524 25.9176 81.586 25.9176C76.1644 25.9176 72.6012 22.1538 72.6012 16.8495C72.6012 11.5059 76.1644 7.74565 81.586 7.74565C84.7524 7.74565 87.4471 9.25045 88.7909 11.7024L93.5012 8.97165C91.1282 5.01127 86.6537 2.43774 81.586 2.43774C73.1945 2.43774 67.1797 8.73574 67.1797 16.8495C67.1797 24.9275 73.1945 31.2613 81.586 31.2613Z" fill="white"/>
<path d="M97.1816 2.99146V30.7069H102.646V2.99146H97.1816Z" fill="white"/>
<path d="M134.91 2.9917H129.288L121.372 16.0988L113.417 2.9917H107.795V30.7072H113.259V12.7711L121.058 25.5994H121.69L129.488 12.7318V30.7072H134.91V2.9917Z" fill="white"/>
<path d="M140.055 2.9917V30.7072H145.519V2.9917H140.055Z" fill="white"/>
<path d="M163.805 31.2613C168.912 31.2613 173.386 28.6877 175.72 24.7274L171.01 21.9966C169.705 24.4128 166.971 25.9176 163.805 25.9176C158.383 25.9176 154.82 22.1538 154.82 16.8495C154.82 11.5059 158.383 7.74565 163.805 7.74565C166.971 7.74565 169.666 9.25045 171.01 11.7024L175.72 8.97165C173.347 5.01127 168.872 2.43774 163.805 2.43774C155.413 2.43774 149.398 8.73574 149.398 16.8495C149.398 24.9275 155.413 31.2613 163.805 31.2613Z" fill="white"/>
<path d="M188.861 31.2613C194.761 31.2613 198.917 28.0944 198.917 22.908C198.917 17.2463 194.246 15.7808 189.851 14.3939C185.655 13.1286 184.586 12.2172 184.586 10.5158C184.586 8.93233 185.934 7.74565 188.228 7.74565C191.037 7.74565 192.542 9.20756 193.532 11.3093L198.124 8.65353C196.266 4.77537 192.781 2.43774 188.228 2.43774C183.478 2.43774 179.122 5.44734 179.122 10.673C179.122 15.938 183.239 17.7216 187.478 18.9476C191.595 20.1379 193.453 20.9278 193.453 22.9867C193.453 24.5308 192.306 25.9176 189.021 25.9176C185.576 25.9176 183.636 24.2556 182.646 21.682L177.975 24.4128C179.479 28.5305 183.2 31.2613 188.861 31.2613Z" fill="white"/>
<mask id="mask0_239_6031" style="mask-type:luminance" maskUnits="userSpaceOnUse" x="0" y="0" width="32" height="35">
<path d="M0.179688 0H31.7544V35H0.179688V0Z" fill="white"/>
</mask>
<g mask="url(#mask0_239_6031)">
<mask id="mask1_239_6031" style="mask-type:luminance" maskUnits="userSpaceOnUse" x="0" y="0" width="32" height="35">
<path fill-rule="evenodd" clip-rule="evenodd" d="M9.95967 0.00683594C8.52208 0.00683594 7.35859 1.16912 7.35859 2.60141V5.82235C7.35859 7.25601 8.52208 8.41829 9.95967 8.41829H26.6433C28.0809 8.41829 29.2457 7.25601 29.2457 5.82235V2.60141C29.2457 1.16912 28.0809 0.00683594 26.6433 0.00683594H9.95967ZM2.78272 8.86511C1.34651 8.86511 0.181641 10.0274 0.181641 11.4597V14.682C0.181641 16.1143 1.34651 17.2766 2.78272 17.2766H18.0329C19.4691 17.2766 20.634 16.1143 20.634 14.682V11.4597C20.634 10.0274 19.4691 8.86511 18.0329 8.86511H2.78272ZM11.3054 20.3193C11.3054 18.8857 12.4703 17.7234 13.9065 17.7234H29.1553C30.5915 17.7234 31.7564 18.8857 31.7564 20.3193V23.5403C31.7564 24.9726 30.5915 26.1349 29.1553 26.1349H13.9065C12.4703 26.1349 11.3054 24.9726 11.3054 23.5403V20.3193ZM4.30801 26.583C2.8718 26.583 1.70693 27.744 1.70693 29.1776V32.3986C1.70693 33.8322 2.8718 34.9931 4.30801 34.9931H19.5568C20.9944 34.9931 22.1592 33.8322 22.1592 32.3986V29.1776C22.1592 27.744 20.9944 26.583 19.5568 26.583H4.30801Z" fill="white"/>
</mask>
<g mask="url(#mask1_239_6031)">
<path d="M0.181641 0.00683594V34.9931H31.7564V0.00683594H0.181641Z" fill="white"/>
</g>
</g>
<mask id="mask2_239_6031" style="mask-type:luminance" maskUnits="userSpaceOnUse" x="5" y="20" width="5" height="4">
<path d="M5.82031 20.019H9.49444V23.6937H5.82031V20.019Z" fill="white"/>
</mask>
<g mask="url(#mask2_239_6031)">
<mask id="mask3_239_6031" style="mask-type:luminance" maskUnits="userSpaceOnUse" x="5" y="20" width="5" height="4">
<path d="M7.65611 20.019C6.64199 20.019 5.81836 20.8414 5.81836 21.8557C5.81836 22.8713 6.64199 23.6937 7.65611 23.6937C8.67023 23.6937 9.49248 22.8713 9.49248 21.8557C9.49248 20.8414 8.67023 20.019 7.65611 20.019Z" fill="white"/>
</mask>
<g mask="url(#mask3_239_6031)">
<path d="M5.81836 20.019H9.49248V23.6937H5.81836V20.019Z" fill="white"/>
</g>
</g>
<mask id="mask4_239_6031" style="mask-type:luminance" maskUnits="userSpaceOnUse" x="23" y="11" width="5" height="4">
<path d="M23.3359 11.2759H27.0101V14.9505H23.3359V11.2759Z" fill="white"/>
</mask>
<g mask="url(#mask4_239_6031)">
<mask id="mask5_239_6031" style="mask-type:luminance" maskUnits="userSpaceOnUse" x="23" y="11" width="5" height="4">
<path d="M25.1723 11.2756C24.1582 11.2756 23.3359 12.098 23.3359 13.1136C23.3359 14.1279 24.1582 14.9503 25.1723 14.9503C26.1878 14.9503 27.0101 14.1279 27.0101 13.1136C27.0101 12.098 26.1878 11.2756 25.1723 11.2756Z" fill="white"/>
</mask>
<g mask="url(#mask5_239_6031)">
<path d="M23.3359 11.2756H27.0101V14.9503H23.3359V11.2756Z" fill="white"/>
</g>
</g>
</svg>
