<svg width="20" height="20" viewBox="0 0 20 20" fill="none" xmlns="http://www.w3.org/2000/svg">
<path d="M5.79212 4.08486H13.0588C13.4254 4.08486 13.7254 3.79881 13.7254 3.4492V2.1779C13.7254 1.12908 12.8255 0.302734 11.7588 0.302734H7.12545C6.02545 0.302734 5.15878 1.16086 5.15878 2.1779V3.4492C5.12545 3.79881 5.42545 4.08486 5.79212 4.08486Z" fill="#838383"/>
<path d="M16.6914 1.86011H16.0247C15.8247 1.86011 15.6914 1.98724 15.6914 2.17793V3.44923C15.6914 4.84767 14.4914 5.96005 13.0581 5.96005H5.79141C4.32474 5.96005 3.15807 4.81588 3.15807 3.44923V2.17793C3.15807 1.98724 3.02474 1.86011 2.82474 1.86011H2.15807C1.05807 1.86011 0.191406 2.71824 0.191406 3.73528V16.639C0.191406 17.6878 1.09141 18.5142 2.15807 18.5142H8.82474C9.75807 18.5142 9.85807 17.7832 9.85807 17.5289V10.7274C9.85807 9.99644 10.2914 9.83752 10.5247 9.83752H17.7247C18.5247 9.83752 18.6581 9.17009 18.6581 8.94761V3.79884C18.6914 2.71824 17.7914 1.86011 16.6914 1.86011Z" fill="#838383"/>
<path d="M19.4908 13.1429H12.2241C12.0241 13.1429 11.8574 12.984 11.8574 12.7933V12.0941C11.8574 11.9034 12.0241 11.7445 12.2241 11.7445H19.4908C19.6908 11.7445 19.8574 11.9034 19.8574 12.0941V12.7933C19.8574 12.984 19.6908 13.1429 19.4908 13.1429ZM19.4908 16.2576H12.2241C12.0241 16.2576 11.8574 16.0987 11.8574 15.908V15.2088C11.8574 15.0181 12.0241 14.8592 12.2241 14.8592H19.4908C19.6908 14.8592 19.8574 15.0181 19.8574 15.2088V15.908C19.8574 16.0987 19.6908 16.2576 19.4908 16.2576ZM19.4908 19.3723H12.2241C12.0241 19.3723 11.8574 19.2134 11.8574 19.0227V18.3235C11.8574 18.1328 12.0241 17.9739 12.2241 17.9739H19.4908C19.6908 17.9739 19.8574 18.1328 19.8574 18.3235V19.0227C19.8574 19.2134 19.6908 19.3723 19.4908 19.3723Z" fill="#838383"/>
</svg>
