<svg width="26" height="22" viewBox="0 0 26 22" fill="none" xmlns="http://www.w3.org/2000/svg">
<path d="M0.191406 15.1185H19.6741C20.3719 15.1185 21.0413 15.3821 21.5357 15.8516C22.0301 16.321 22.3094 16.9581 22.3123 17.6234C22.3123 18.2906 22.0344 18.9304 21.5396 19.4021C21.0448 19.8739 20.3738 20.1389 19.6741 20.1389H0.191406" stroke="#838383" stroke-width="2" stroke-miterlimit="10"/>
<path d="M2.28906 15.1185C2.98119 15.7871 3.37652 16.6842 3.3929 17.6234C3.37595 18.5657 2.98092 19.4659 2.28906 20.1389" stroke="#838383" stroke-width="2" stroke-miterlimit="10"/>
<path d="M25.4686 15.1185H5.98583C5.28614 15.1185 4.61511 14.8535 4.12036 14.3817C3.62561 13.91 3.34766 13.2702 3.34766 12.6031C3.3621 11.9451 3.64641 11.3187 4.1396 10.8583C4.6328 10.3979 5.2956 10.1401 5.98583 10.1403H25.4686" stroke="#838383" stroke-width="2" stroke-miterlimit="10"/>
<path d="M23.372 15.1185C22.6932 14.441 22.3145 13.5401 22.3145 12.6031C22.3145 11.6661 22.6932 10.7652 23.372 10.0876" stroke="#838383" stroke-width="2" stroke-miterlimit="10"/>
<path d="M18.0951 4.23585C18.0951 7.16175 15.9867 11.6664 12.8298 9.49826C9.67278 11.6032 7.56445 7.11965 7.56445 4.23585C7.56445 1.35205 10.7214 0.0259232 12.8298 2.13089C14.9381 -0.016176 18.0951 1.29943 18.0951 4.23585Z" stroke="#838383" stroke-width="2" stroke-miterlimit="10"/>
</svg>
