<svg width="80" height="80" viewBox="0 0 80 80" fill="none" xmlns="http://www.w3.org/2000/svg">
<rect width="80" height="80" rx="5" fill="#0E0F11" fill-opacity="0.85"/>
<path d="M61.0111 54.8488C61.005 56.5886 59.5896 57.9941 57.8498 57.988L22.977 57.8655C21.2372 57.8594 19.8318 56.444 19.8379 54.7042V54.7042C19.844 52.9644 21.2593 51.5589 22.9992 51.565L57.8719 51.6875C59.6117 51.6936 61.0172 53.109 61.0111 54.8488V54.8488Z" fill="white"/>
<path d="M39.1949 33.6022C39.2156 28.1325 34.4528 23.6827 28.5572 23.6635L24.4591 23.6501C22.8179 23.6448 21.4824 24.9709 21.4762 26.6121V26.6121C21.4699 28.2533 22.7954 29.5881 24.4366 29.5934L28.5347 29.6068C30.8919 29.6144 32.7971 31.3944 32.7888 33.5813C32.7805 35.7683 30.862 37.5358 28.5047 37.5281L24.4066 37.5147C22.7654 37.5094 21.4299 38.8355 21.4237 40.4767V40.4767C21.4175 42.1179 22.7429 43.4527 24.3841 43.458L28.4822 43.4714C34.3778 43.4952 39.1742 39.0719 39.1949 33.6022Z" fill="#FCFCFC"/>
<path d="M43.2152 33.6022C43.1945 28.1325 47.9577 23.6827 53.8537 23.6635L57.9524 23.6501C59.5936 23.6448 60.9291 24.9709 60.9353 26.6121V26.6121C60.9415 28.2533 59.6161 29.5881 57.9749 29.5934L53.8762 29.6068C51.5188 29.6144 49.6136 31.3944 49.6218 33.5813C49.6301 35.7683 51.5488 37.5358 53.9062 37.5281L58.0049 37.5147C59.6461 37.5094 60.9816 38.8355 60.9878 40.4767V40.4767C60.994 42.1179 59.6686 43.4527 58.0274 43.458L53.9287 43.4714C48.0327 43.4952 43.2359 39.0719 43.2152 33.6022Z" fill="#FCFCFC"/>
</svg>
