<svg width="101" height="20" viewBox="0 0 101 20" fill="none" xmlns="http://www.w3.org/2000/svg">
<path d="M1.27841 15V3.36364H5.42614C6.32765 3.36364 7.07576 3.51894 7.67045 3.82955C8.26894 4.14015 8.71591 4.57008 9.01136 5.11932C9.30682 5.66477 9.45455 6.29545 9.45455 7.01136C9.45455 7.72348 9.30492 8.35038 9.00568 8.89205C8.71023 9.42992 8.26326 9.84848 7.66477 10.1477C7.07008 10.447 6.32197 10.5966 5.42045 10.5966H2.27841V9.08523H5.26136C5.82955 9.08523 6.29167 9.00379 6.64773 8.84091C7.00758 8.67803 7.27083 8.44129 7.4375 8.13068C7.60417 7.82008 7.6875 7.44697 7.6875 7.01136C7.6875 6.57197 7.60227 6.19129 7.43182 5.86932C7.26515 5.54735 7.00189 5.30114 6.64205 5.13068C6.28598 4.95644 5.81818 4.86932 5.23864 4.86932H3.03409V15H1.27841ZM7.02273 9.75L9.89773 15H7.89773L5.07955 9.75H7.02273ZM15.1065 15.1761C14.2467 15.1761 13.5062 14.9924 12.8849 14.625C12.2675 14.2538 11.7902 13.733 11.4531 13.0625C11.1198 12.3883 10.9531 11.5985 10.9531 10.6932C10.9531 9.79924 11.1198 9.01136 11.4531 8.32955C11.7902 7.64773 12.2599 7.11553 12.8622 6.73295C13.4683 6.35038 14.1766 6.15909 14.9872 6.15909C15.4796 6.15909 15.9569 6.24053 16.419 6.40341C16.8812 6.56629 17.2959 6.82197 17.6634 7.17045C18.0308 7.51894 18.3205 7.97159 18.5327 8.52841C18.7448 9.08144 18.8509 9.75379 18.8509 10.5455V11.1477H11.9134V9.875H17.1861C17.1861 9.42803 17.0952 9.0322 16.9134 8.6875C16.7315 8.33902 16.4759 8.06439 16.1463 7.86364C15.8205 7.66288 15.438 7.5625 14.9986 7.5625C14.5213 7.5625 14.1046 7.67992 13.7486 7.91477C13.3963 8.14583 13.1236 8.44886 12.9304 8.82386C12.741 9.19508 12.6463 9.59848 12.6463 10.0341V11.0284C12.6463 11.6117 12.7486 12.108 12.9531 12.517C13.1615 12.9261 13.4512 13.2386 13.8224 13.4545C14.1937 13.6667 14.6274 13.7727 15.1236 13.7727C15.4455 13.7727 15.7391 13.7273 16.0043 13.6364C16.2694 13.5417 16.4986 13.4015 16.6918 13.2159C16.8849 13.0303 17.0327 12.8011 17.1349 12.5284L18.7429 12.8182C18.6141 13.2917 18.383 13.7064 18.0497 14.0625C17.7202 14.4148 17.3054 14.6894 16.8054 14.8864C16.3092 15.0795 15.7429 15.1761 15.1065 15.1761ZM27.2756 8.40341L25.7358 8.67614C25.6714 8.47917 25.5691 8.29167 25.429 8.11364C25.2926 7.93561 25.107 7.78977 24.8722 7.67614C24.6373 7.5625 24.3438 7.50568 23.9915 7.50568C23.5104 7.50568 23.1089 7.61364 22.7869 7.82955C22.465 8.04167 22.304 8.31629 22.304 8.65341C22.304 8.94508 22.4119 9.17992 22.6278 9.35795C22.8438 9.53598 23.1922 9.68182 23.6733 9.79545L25.0597 10.1136C25.8627 10.2992 26.4612 10.5852 26.8551 10.9716C27.2491 11.358 27.446 11.8598 27.446 12.4773C27.446 13 27.2945 13.4659 26.9915 13.875C26.6922 14.2803 26.2737 14.5985 25.7358 14.8295C25.2017 15.0606 24.5824 15.1761 23.8778 15.1761C22.9006 15.1761 22.1032 14.9678 21.4858 14.5511C20.8684 14.1307 20.4896 13.5341 20.3494 12.7614L21.9915 12.5114C22.0938 12.9394 22.304 13.2633 22.6222 13.483C22.9403 13.6989 23.3551 13.8068 23.8665 13.8068C24.4233 13.8068 24.8684 13.6913 25.2017 13.4602C25.535 13.2254 25.7017 12.9394 25.7017 12.6023C25.7017 12.3295 25.5994 12.1004 25.3949 11.9148C25.1941 11.7292 24.8854 11.589 24.4688 11.4943L22.9915 11.1705C22.1771 10.9848 21.5748 10.6894 21.1847 10.2841C20.7983 9.87879 20.6051 9.36553 20.6051 8.74432C20.6051 8.22917 20.7491 7.77841 21.0369 7.39205C21.3248 7.00568 21.7225 6.70455 22.2301 6.48864C22.7377 6.26894 23.3191 6.15909 23.9744 6.15909C24.9176 6.15909 25.66 6.36364 26.2017 6.77273C26.7434 7.17803 27.1013 7.72159 27.2756 8.40341ZM32.9901 15.1761C32.1719 15.1761 31.4579 14.9886 30.848 14.6136C30.2382 14.2386 29.7647 13.714 29.4276 13.0398C29.0904 12.3655 28.9219 11.5777 28.9219 10.6761C28.9219 9.77083 29.0904 8.97917 29.4276 8.30114C29.7647 7.62311 30.2382 7.09659 30.848 6.72159C31.4579 6.34659 32.1719 6.15909 32.9901 6.15909C33.8082 6.15909 34.5223 6.34659 35.1321 6.72159C35.742 7.09659 36.2154 7.62311 36.5526 8.30114C36.8897 8.97917 37.0582 9.77083 37.0582 10.6761C37.0582 11.5777 36.8897 12.3655 36.5526 13.0398C36.2154 13.714 35.742 14.2386 35.1321 14.6136C34.5223 14.9886 33.8082 15.1761 32.9901 15.1761ZM32.9957 13.75C33.526 13.75 33.9654 13.6098 34.3139 13.3295C34.6624 13.0492 34.92 12.6761 35.0866 12.2102C35.2571 11.7443 35.3423 11.2311 35.3423 10.6705C35.3423 10.1136 35.2571 9.60227 35.0866 9.13636C34.92 8.66667 34.6624 8.28977 34.3139 8.00568C33.9654 7.72159 33.526 7.57955 32.9957 7.57955C32.4616 7.57955 32.0185 7.72159 31.6662 8.00568C31.3177 8.28977 31.0582 8.66667 30.8878 9.13636C30.7211 9.60227 30.6378 10.1136 30.6378 10.6705C30.6378 11.2311 30.7211 11.7443 30.8878 12.2102C31.0582 12.6761 31.3177 13.0492 31.6662 13.3295C32.0185 13.6098 32.4616 13.75 32.9957 13.75ZM44.483 11.3807V6.27273H46.1875V15H44.517V13.4886H44.4261C44.2254 13.9545 43.9034 14.3428 43.4602 14.6534C43.0208 14.9602 42.4735 15.1136 41.8182 15.1136C41.2576 15.1136 40.7614 14.9905 40.3295 14.7443C39.9015 14.4943 39.5644 14.125 39.3182 13.6364C39.0758 13.1477 38.9545 12.5436 38.9545 11.8239V6.27273H40.6534V11.6193C40.6534 12.214 40.8182 12.6875 41.1477 13.0398C41.4773 13.392 41.9053 13.5682 42.4318 13.5682C42.75 13.5682 43.0663 13.4886 43.3807 13.3295C43.6989 13.1705 43.9621 12.9299 44.1705 12.608C44.3826 12.286 44.4867 11.8769 44.483 11.3807ZM48.4702 15V6.27273H50.1122V7.65909H50.2031C50.3622 7.18939 50.6425 6.82008 51.044 6.55114C51.4493 6.27841 51.9077 6.14205 52.419 6.14205C52.5251 6.14205 52.6501 6.14583 52.794 6.15341C52.9418 6.16098 53.0573 6.17045 53.1406 6.18182V7.80682C53.0724 7.78788 52.9512 7.76705 52.777 7.74432C52.6027 7.7178 52.4285 7.70455 52.2543 7.70455C51.8527 7.70455 51.4948 7.78977 51.1804 7.96023C50.8698 8.12689 50.6236 8.35985 50.4418 8.65909C50.2599 8.95455 50.169 9.29167 50.169 9.67045V15H48.4702ZM57.9744 15.1761C57.1297 15.1761 56.4025 14.9848 55.7926 14.6023C55.1866 14.2159 54.7206 13.6837 54.3949 13.0057C54.0691 12.3277 53.9062 11.5511 53.9062 10.6761C53.9062 9.78977 54.0729 9.00758 54.4062 8.32955C54.7396 7.64773 55.2093 7.11553 55.8153 6.73295C56.4214 6.35038 57.1354 6.15909 57.9574 6.15909C58.6203 6.15909 59.2112 6.2822 59.7301 6.52841C60.2491 6.77083 60.6676 7.11174 60.9858 7.55114C61.3078 7.99053 61.4991 8.50379 61.5597 9.09091H59.9062C59.8153 8.68182 59.607 8.32955 59.2812 8.03409C58.9593 7.73864 58.5275 7.59091 57.9858 7.59091C57.5123 7.59091 57.0975 7.71591 56.7415 7.96591C56.3892 8.21212 56.1146 8.56439 55.9176 9.02273C55.7206 9.47727 55.6222 10.0152 55.6222 10.6364C55.6222 11.2727 55.7188 11.822 55.9119 12.2841C56.1051 12.7462 56.3778 13.1042 56.7301 13.358C57.0862 13.6117 57.5047 13.7386 57.9858 13.7386C58.3078 13.7386 58.5994 13.6799 58.8608 13.5625C59.1259 13.4413 59.3475 13.2689 59.5256 13.0455C59.7074 12.822 59.8343 12.553 59.9062 12.2386H61.5597C61.4991 12.803 61.3153 13.3068 61.0085 13.75C60.7017 14.1932 60.2907 14.5417 59.7756 14.7955C59.2642 15.0492 58.6638 15.1761 57.9744 15.1761ZM67.1378 15.1761C66.2779 15.1761 65.5374 14.9924 64.9162 14.625C64.2988 14.2538 63.8215 13.733 63.4844 13.0625C63.151 12.3883 62.9844 11.5985 62.9844 10.6932C62.9844 9.79924 63.151 9.01136 63.4844 8.32955C63.8215 7.64773 64.2912 7.11553 64.8935 6.73295C65.4995 6.35038 66.2079 6.15909 67.0185 6.15909C67.5109 6.15909 67.9882 6.24053 68.4503 6.40341C68.9124 6.56629 69.3272 6.82197 69.6946 7.17045C70.062 7.51894 70.3518 7.97159 70.5639 8.52841C70.776 9.08144 70.8821 9.75379 70.8821 10.5455V11.1477H63.9446V9.875H69.2173C69.2173 9.42803 69.1264 9.0322 68.9446 8.6875C68.7628 8.33902 68.5071 8.06439 68.1776 7.86364C67.8518 7.66288 67.4692 7.5625 67.0298 7.5625C66.5526 7.5625 66.1359 7.67992 65.7798 7.91477C65.4276 8.14583 65.1548 8.44886 64.9616 8.82386C64.7723 9.19508 64.6776 9.59848 64.6776 10.0341V11.0284C64.6776 11.6117 64.7798 12.108 64.9844 12.517C65.1927 12.9261 65.4825 13.2386 65.8537 13.4545C66.2249 13.6667 66.6586 13.7727 67.1548 13.7727C67.4768 13.7727 67.7704 13.7273 68.0355 13.6364C68.3007 13.5417 68.5298 13.4015 68.723 13.2159C68.9162 13.0303 69.0639 12.8011 69.1662 12.5284L70.7741 12.8182C70.6454 13.2917 70.4143 13.7064 70.081 14.0625C69.7514 14.4148 69.3366 14.6894 68.8366 14.8864C68.3404 15.0795 67.7741 15.1761 67.1378 15.1761ZM79.3068 8.40341L77.767 8.67614C77.7027 8.47917 77.6004 8.29167 77.4602 8.11364C77.3239 7.93561 77.1383 7.78977 76.9034 7.67614C76.6686 7.5625 76.375 7.50568 76.0227 7.50568C75.5417 7.50568 75.1402 7.61364 74.8182 7.82955C74.4962 8.04167 74.3352 8.31629 74.3352 8.65341C74.3352 8.94508 74.4432 9.17992 74.6591 9.35795C74.875 9.53598 75.2235 9.68182 75.7045 9.79545L77.0909 10.1136C77.8939 10.2992 78.4924 10.5852 78.8864 10.9716C79.2803 11.358 79.4773 11.8598 79.4773 12.4773C79.4773 13 79.3258 13.4659 79.0227 13.875C78.7235 14.2803 78.3049 14.5985 77.767 14.8295C77.233 15.0606 76.6136 15.1761 75.9091 15.1761C74.9318 15.1761 74.1345 14.9678 73.517 14.5511C72.8996 14.1307 72.5208 13.5341 72.3807 12.7614L74.0227 12.5114C74.125 12.9394 74.3352 13.2633 74.6534 13.483C74.9716 13.6989 75.3864 13.8068 75.8977 13.8068C76.4545 13.8068 76.8996 13.6913 77.233 13.4602C77.5663 13.2254 77.733 12.9394 77.733 12.6023C77.733 12.3295 77.6307 12.1004 77.4261 11.9148C77.2254 11.7292 76.9167 11.589 76.5 11.4943L75.0227 11.1705C74.2083 10.9848 73.6061 10.6894 73.2159 10.2841C72.8295 9.87879 72.6364 9.36553 72.6364 8.74432C72.6364 8.22917 72.7803 7.77841 73.0682 7.39205C73.3561 7.00568 73.7538 6.70455 74.2614 6.48864C74.7689 6.26894 75.3504 6.15909 76.0057 6.15909C76.9489 6.15909 77.6913 6.36364 78.233 6.77273C78.7746 7.17803 79.1326 7.72159 79.3068 8.40341Z" fill="#F7F8F8"/>
<path d="M90.4474 7.78624C90.323 7.67032 90.1584 7.60721 89.9884 7.61021C89.8184 7.61321 89.6562 7.68208 89.536 7.80232C89.4157 7.92255 89.3469 8.08477 89.3439 8.25478C89.3409 8.42479 89.404 8.58933 89.5199 8.71374L93.0199 12.2137C93.1419 12.3359 93.3071 12.405 93.4797 12.4061C93.6524 12.4073 93.8185 12.3403 93.9421 12.2199L97.4421 8.80474C97.5641 8.68257 97.6329 8.51729 97.6339 8.3447C97.6348 8.17211 97.5677 8.00609 97.4471 7.88262C97.3265 7.75914 97.1621 7.68815 96.9896 7.68501C96.817 7.68188 96.6501 7.74685 96.5251 7.86586L93.4889 10.8277L90.4474 7.78624Z" fill="#F7F8F8"/>
</svg>
