<svg width="27" height="19" viewBox="0 0 27 19" fill="none" xmlns="http://www.w3.org/2000/svg">
<path d="M13.8848 12.9515C16.0939 12.9515 17.8848 11.244 17.8848 9.13763C17.8848 7.03127 16.0939 5.32373 13.8848 5.32373C11.6756 5.32373 9.88477 7.03127 9.88477 9.13763C9.88477 11.244 11.6756 12.9515 13.8848 12.9515Z" stroke="#838383" stroke-width="2.5"/>
<path d="M24.8024 7.78275C25.32 8.38191 25.5788 8.68143 25.5788 9.13757C25.5788 9.59372 25.32 9.89323 24.8024 10.4924C22.909 12.6844 18.7327 16.7654 13.8851 16.7654C9.03746 16.7654 4.86118 12.6844 2.96773 10.4924C2.45018 9.89323 2.19141 9.59372 2.19141 9.13757C2.19141 8.68143 2.45018 8.38191 2.96773 7.78275C4.86118 5.59082 9.03746 1.50977 13.8851 1.50977C18.7327 1.50977 22.909 5.59082 24.8024 7.78275Z" stroke="#838383" stroke-width="2.5"/>
</svg>
