<svg width="132" height="41" viewBox="0 0 132 41" fill="none" xmlns="http://www.w3.org/2000/svg">
<rect x="0.5" y="0.658203" width="131" height="39.139" rx="6.5" fill="url(#paint0_linear_239_5818)" fill-opacity="0.35" stroke="#5C67C7"/>
<path d="M34.5817 24.7395H32.718L36.9055 13.1031H38.9339L43.1214 24.7395H41.2578L37.968 15.2168H37.8771L34.5817 24.7395ZM34.8942 20.1827H40.9396V21.66H34.8942V20.1827ZM46.5575 13.1031V24.7395H44.8018V13.1031H46.5575ZM55.6271 24.7395L52.3999 13.1031H54.2464L56.5135 22.1145H56.6214L58.9794 13.1031H60.8089L63.1669 22.1202H63.2749L65.5362 13.1031H67.3885L64.1555 24.7395H62.3885L59.9396 16.0236H59.8487L57.3999 24.7395H55.6271ZM68.3061 24.7395V16.0122H69.9482V17.3986H70.0391C70.1982 16.9289 70.4785 16.5596 70.88 16.2906C71.2853 16.0179 71.7436 15.8815 72.255 15.8815C72.361 15.8815 72.486 15.8853 72.63 15.8929C72.7777 15.9005 72.8932 15.91 72.9766 15.9213V17.5463C72.9084 17.5274 72.7872 17.5065 72.6129 17.4838C72.4387 17.4573 72.2644 17.444 72.0902 17.444C71.6887 17.444 71.3307 17.5293 71.0163 17.6997C70.7057 17.8664 70.4595 18.0994 70.2777 18.3986C70.0959 18.694 70.005 19.0312 70.005 19.41V24.7395H68.3061ZM74.4467 24.7395V16.0122H76.1456V24.7395H74.4467ZM75.3047 14.6656C75.0092 14.6656 74.7554 14.5672 74.5433 14.3702C74.335 14.1694 74.2308 13.9308 74.2308 13.6543C74.2308 13.374 74.335 13.1353 74.5433 12.9384C74.7554 12.7376 75.0092 12.6372 75.3047 12.6372C75.6001 12.6372 75.852 12.7376 76.0604 12.9384C76.2725 13.1353 76.3786 13.374 76.3786 13.6543C76.3786 13.9308 76.2725 14.1694 76.0604 14.3702C75.852 14.5672 75.6001 14.6656 75.3047 14.6656ZM82.505 16.0122V17.3759H77.7379V16.0122H82.505ZM79.0163 13.9213H80.7152V22.177C80.7152 22.5065 80.7644 22.7547 80.8629 22.9213C80.9614 23.0842 81.0883 23.1959 81.2436 23.2565C81.4027 23.3134 81.575 23.3418 81.7607 23.3418C81.897 23.3418 82.0163 23.3323 82.1186 23.3134C82.2209 23.2944 82.3004 23.2793 82.3572 23.2679L82.6641 24.6713C82.5656 24.7092 82.4254 24.7471 82.2436 24.785C82.0618 24.8266 81.8345 24.8494 81.5618 24.8531C81.1148 24.8607 80.6982 24.7812 80.3118 24.6145C79.9254 24.4478 79.6129 24.1903 79.3743 23.8418C79.1357 23.4933 79.0163 23.0558 79.0163 22.5293V13.9213ZM88.0518 24.9156C87.192 24.9156 86.4515 24.7319 85.8303 24.3645C85.2128 23.9933 84.7356 23.4725 84.3984 22.802C84.0651 22.1278 83.8984 21.338 83.8984 20.4327C83.8984 19.5387 84.0651 18.7509 84.3984 18.069C84.7356 17.3872 85.2053 16.855 85.8075 16.4725C86.4136 16.0899 87.1219 15.8986 87.9325 15.8986C88.425 15.8986 88.9022 15.98 89.3643 16.1429C89.8265 16.3058 90.2412 16.5615 90.6087 16.91C90.9761 17.2584 91.2659 17.7111 91.478 18.2679C91.6901 18.8209 91.7962 19.4933 91.7962 20.285V20.8872H84.8587V19.6145H90.1314C90.1314 19.1675 90.0405 18.7717 89.8587 18.427C89.6768 18.0785 89.4212 17.8039 89.0916 17.6031C88.7659 17.4024 88.3833 17.302 87.9439 17.302C87.4666 17.302 87.05 17.4194 86.6939 17.6543C86.3416 17.8853 86.0689 18.1884 85.8757 18.5634C85.6863 18.9346 85.5916 19.338 85.5916 19.7736V20.7679C85.5916 21.3512 85.6939 21.8475 85.8984 22.2565C86.1068 22.6656 86.3965 22.9781 86.7678 23.194C87.139 23.4062 87.5727 23.5122 88.0689 23.5122C88.3909 23.5122 88.6844 23.4668 88.9496 23.3759C89.2147 23.2812 89.4439 23.141 89.6371 22.9554C89.8303 22.7698 89.978 22.5406 90.0803 22.2679L91.6882 22.5577C91.5594 23.0312 91.3284 23.4459 90.995 23.802C90.6655 24.1543 90.2507 24.4289 89.7507 24.6259C89.2545 24.819 88.6882 24.9156 88.0518 24.9156ZM93.6811 24.7395V16.0122H95.3232V17.3986H95.4141C95.5732 16.9289 95.8535 16.5596 96.255 16.2906C96.6603 16.0179 97.1186 15.8815 97.63 15.8815C97.736 15.8815 97.861 15.8853 98.005 15.8929C98.1527 15.9005 98.2682 15.91 98.3516 15.9213V17.5463C98.2834 17.5274 98.1622 17.5065 97.9879 17.4838C97.8137 17.4573 97.6394 17.444 97.4652 17.444C97.0637 17.444 96.7057 17.5293 96.3913 17.6997C96.0807 17.8664 95.8345 18.0994 95.6527 18.3986C95.4709 18.694 95.38 19.0312 95.38 19.41V24.7395H93.6811Z" fill="#6E79DF"/>
<defs>
<linearGradient id="paint0_linear_239_5818" x1="157.662" y1="-43.1992" x2="-47.9369" y2="-18.5422" gradientUnits="userSpaceOnUse">
<stop stop-color="#5C67C7"/>
<stop offset="0.809798" stop-color="#5C67C7" stop-opacity="0"/>
</linearGradient>
</defs>
</svg>
