<svg width="610" height="72" viewBox="0 0 610 72" fill="none" xmlns="http://www.w3.org/2000/svg">
<path d="M385.128 41H383.264L387.452 29.3636H389.48L393.667 41H391.804L388.514 31.4773H388.423L385.128 41ZM385.44 36.4432H391.486V37.9205H385.44V36.4432ZM395.211 41V32.2727H396.854V33.6591H396.944C397.104 33.1894 397.384 32.8201 397.785 32.5511C398.191 32.2784 398.649 32.142 399.16 32.142C399.266 32.142 399.391 32.1458 399.535 32.1534C399.683 32.161 399.799 32.1705 399.882 32.1818V33.8068C399.814 33.7879 399.693 33.767 399.518 33.7443C399.344 33.7178 399.17 33.7045 398.996 33.7045C398.594 33.7045 398.236 33.7898 397.922 33.9602C397.611 34.1269 397.365 34.3598 397.183 34.6591C397.001 34.9545 396.91 35.2917 396.91 35.6705V41H395.211ZM405.942 32.2727V33.6364H401.175V32.2727H405.942ZM402.453 30.1818H404.152V38.4375C404.152 38.767 404.201 39.0152 404.3 39.1818C404.398 39.3447 404.525 39.4564 404.68 39.517C404.839 39.5739 405.012 39.6023 405.197 39.6023C405.334 39.6023 405.453 39.5928 405.555 39.5739C405.658 39.5549 405.737 39.5398 405.794 39.5284L406.101 40.9318C406.002 40.9697 405.862 41.0076 405.68 41.0455C405.498 41.0871 405.271 41.1098 404.998 41.1136C404.551 41.1212 404.135 41.0417 403.748 40.875C403.362 40.7083 403.05 40.4508 402.811 40.1023C402.572 39.7538 402.453 39.3163 402.453 38.7898V30.1818ZM407.821 41V32.2727H409.52V41H407.821ZM408.679 30.9261C408.383 30.9261 408.13 30.8277 407.917 30.6307C407.709 30.4299 407.605 30.1913 407.605 29.9148C407.605 29.6345 407.709 29.3958 407.917 29.1989C408.13 28.9981 408.383 28.8977 408.679 28.8977C408.974 28.8977 409.226 28.9981 409.435 29.1989C409.647 29.3958 409.753 29.6345 409.753 29.9148C409.753 30.1913 409.647 30.4299 409.435 30.6307C409.226 30.8277 408.974 30.9261 408.679 30.9261ZM415.481 41.1761C414.637 41.1761 413.909 40.9848 413.3 40.6023C412.694 40.2159 412.228 39.6837 411.902 39.0057C411.576 38.3277 411.413 37.5511 411.413 36.6761C411.413 35.7898 411.58 35.0076 411.913 34.3295C412.247 33.6477 412.716 33.1155 413.322 32.733C413.928 32.3504 414.642 32.1591 415.464 32.1591C416.127 32.1591 416.718 32.2822 417.237 32.5284C417.756 32.7708 418.175 33.1117 418.493 33.5511C418.815 33.9905 419.006 34.5038 419.067 35.0909H417.413C417.322 34.6818 417.114 34.3295 416.788 34.0341C416.466 33.7386 416.034 33.5909 415.493 33.5909C415.019 33.5909 414.604 33.7159 414.248 33.9659C413.896 34.2121 413.622 34.5644 413.425 35.0227C413.228 35.4773 413.129 36.0152 413.129 36.6364C413.129 37.2727 413.226 37.822 413.419 38.2841C413.612 38.7462 413.885 39.1042 414.237 39.358C414.593 39.6117 415.012 39.7386 415.493 39.7386C415.815 39.7386 416.106 39.6799 416.368 39.5625C416.633 39.4413 416.854 39.2689 417.033 39.0455C417.214 38.822 417.341 38.553 417.413 38.2386H419.067C419.006 38.803 418.822 39.3068 418.515 39.75C418.209 40.1932 417.798 40.5417 417.283 40.7955C416.771 41.0492 416.171 41.1761 415.481 41.1761ZM422.582 29.3636V41H420.883V29.3636H422.582ZM428.629 41.1761C427.769 41.1761 427.029 40.9924 426.408 40.625C425.79 40.2538 425.313 39.733 424.976 39.0625C424.642 38.3883 424.476 37.5985 424.476 36.6932C424.476 35.7992 424.642 35.0114 424.976 34.3295C425.313 33.6477 425.783 33.1155 426.385 32.733C426.991 32.3504 427.699 32.1591 428.51 32.1591C429.002 32.1591 429.479 32.2405 429.942 32.4034C430.404 32.5663 430.819 32.822 431.186 33.1705C431.553 33.5189 431.843 33.9716 432.055 34.5284C432.267 35.0814 432.373 35.7538 432.373 36.5455V37.1477H425.436V35.875H430.709C430.709 35.428 430.618 35.0322 430.436 34.6875C430.254 34.339 429.998 34.0644 429.669 33.8636C429.343 33.6629 428.961 33.5625 428.521 33.5625C428.044 33.5625 427.627 33.6799 427.271 33.9148C426.919 34.1458 426.646 34.4489 426.453 34.8239C426.264 35.1951 426.169 35.5985 426.169 36.0341V37.0284C426.169 37.6117 426.271 38.108 426.476 38.517C426.684 38.9261 426.974 39.2386 427.345 39.4545C427.716 39.6667 428.15 39.7727 428.646 39.7727C428.968 39.7727 429.262 39.7273 429.527 39.6364C429.792 39.5417 430.021 39.4015 430.214 39.2159C430.408 39.0303 430.555 38.8011 430.658 38.5284L432.265 38.8182C432.137 39.2917 431.906 39.7064 431.572 40.0625C431.243 40.4148 430.828 40.6894 430.328 40.8864C429.832 41.0795 429.265 41.1761 428.629 41.1761ZM440.798 34.4034L439.258 34.6761C439.194 34.4792 439.092 34.2917 438.952 34.1136C438.815 33.9356 438.63 33.7898 438.395 33.6761C438.16 33.5625 437.866 33.5057 437.514 33.5057C437.033 33.5057 436.631 33.6136 436.31 33.8295C435.988 34.0417 435.827 34.3163 435.827 34.6534C435.827 34.9451 435.935 35.1799 436.15 35.358C436.366 35.536 436.715 35.6818 437.196 35.7955L438.582 36.1136C439.385 36.2992 439.984 36.5852 440.378 36.9716C440.772 37.358 440.969 37.8598 440.969 38.4773C440.969 39 440.817 39.4659 440.514 39.875C440.215 40.2803 439.796 40.5985 439.258 40.8295C438.724 41.0606 438.105 41.1761 437.4 41.1761C436.423 41.1761 435.626 40.9678 435.008 40.5511C434.391 40.1307 434.012 39.5341 433.872 38.7614L435.514 38.5114C435.616 38.9394 435.827 39.2633 436.145 39.483C436.463 39.6989 436.878 39.8068 437.389 39.8068C437.946 39.8068 438.391 39.6913 438.724 39.4602C439.058 39.2254 439.224 38.9394 439.224 38.6023C439.224 38.3295 439.122 38.1004 438.917 37.9148C438.717 37.7292 438.408 37.589 437.991 37.4943L436.514 37.1705C435.7 36.9848 435.097 36.6894 434.707 36.2841C434.321 35.8788 434.128 35.3655 434.128 34.7443C434.128 34.2292 434.272 33.7784 434.56 33.392C434.847 33.0057 435.245 32.7045 435.753 32.4886C436.26 32.2689 436.842 32.1591 437.497 32.1591C438.44 32.1591 439.183 32.3636 439.724 32.7727C440.266 33.178 440.624 33.7216 440.798 34.4034Z" fill="white"/>
<path d="M537.206 29.3636L540.445 38.8409H540.576L543.814 29.3636H545.712L541.525 41H539.496L535.309 29.3636H537.206ZM547.256 41V32.2727H548.955V41H547.256ZM548.114 30.9261C547.819 30.9261 547.565 30.8277 547.353 30.6307C547.144 30.4299 547.04 30.1913 547.04 29.9148C547.04 29.6345 547.144 29.3958 547.353 29.1989C547.565 28.9981 547.819 28.8977 548.114 28.8977C548.409 28.8977 548.661 28.9981 548.87 29.1989C549.082 29.3958 549.188 29.6345 549.188 29.9148C549.188 30.1913 549.082 30.4299 548.87 30.6307C548.661 30.8277 548.409 30.9261 548.114 30.9261ZM554.507 41.1705C553.803 41.1705 553.174 40.9905 552.621 40.6307C552.072 40.267 551.64 39.75 551.326 39.0795C551.015 38.4053 550.86 37.5966 550.86 36.6534C550.86 35.7102 551.017 34.9034 551.331 34.233C551.65 33.5625 552.085 33.0492 552.638 32.6932C553.191 32.3371 553.818 32.1591 554.519 32.1591C555.061 32.1591 555.496 32.25 555.826 32.4318C556.159 32.6098 556.417 32.8182 556.598 33.0568C556.784 33.2955 556.928 33.5057 557.03 33.6875H557.132V29.3636H558.831V41H557.172V39.642H557.03C556.928 39.8277 556.78 40.0398 556.587 40.2784C556.398 40.517 556.136 40.7254 555.803 40.9034C555.47 41.0814 555.038 41.1705 554.507 41.1705ZM554.882 39.7216C555.371 39.7216 555.784 39.5928 556.121 39.3352C556.462 39.0739 556.72 38.7121 556.894 38.25C557.072 37.7879 557.161 37.25 557.161 36.6364C557.161 36.0303 557.074 35.5 556.9 35.0455C556.725 34.5909 556.47 34.2367 556.132 33.983C555.795 33.7292 555.379 33.6023 554.882 33.6023C554.371 33.6023 553.945 33.7348 553.604 34C553.263 34.2652 553.006 34.6269 552.831 35.0852C552.661 35.5436 552.576 36.0606 552.576 36.6364C552.576 37.2197 552.663 37.7443 552.837 38.2102C553.011 38.6761 553.269 39.0455 553.61 39.3182C553.954 39.5871 554.379 39.7216 554.882 39.7216ZM565.017 41.1761C564.158 41.1761 563.417 40.9924 562.796 40.625C562.178 40.2538 561.701 39.733 561.364 39.0625C561.031 38.3883 560.864 37.5985 560.864 36.6932C560.864 35.7992 561.031 35.0114 561.364 34.3295C561.701 33.6477 562.171 33.1155 562.773 32.733C563.379 32.3504 564.087 32.1591 564.898 32.1591C565.391 32.1591 565.868 32.2405 566.33 32.4034C566.792 32.5663 567.207 32.822 567.574 33.1705C567.942 33.5189 568.231 33.9716 568.444 34.5284C568.656 35.0814 568.762 35.7538 568.762 36.5455V37.1477H561.824V35.875H567.097C567.097 35.428 567.006 35.0322 566.824 34.6875C566.642 34.339 566.387 34.0644 566.057 33.8636C565.731 33.6629 565.349 33.5625 564.909 33.5625C564.432 33.5625 564.016 33.6799 563.659 33.9148C563.307 34.1458 563.034 34.4489 562.841 34.8239C562.652 35.1951 562.557 35.5985 562.557 36.0341V37.0284C562.557 37.6117 562.659 38.108 562.864 38.517C563.072 38.9261 563.362 39.2386 563.733 39.4545C564.105 39.6667 564.538 39.7727 565.034 39.7727C565.356 39.7727 565.65 39.7273 565.915 39.6364C566.18 39.5417 566.409 39.4015 566.603 39.2159C566.796 39.0303 566.944 38.8011 567.046 38.5284L568.654 38.8182C568.525 39.2917 568.294 39.7064 567.961 40.0625C567.631 40.4148 567.216 40.6894 566.716 40.8864C566.22 41.0795 565.654 41.1761 565.017 41.1761ZM574.323 41.1761C573.505 41.1761 572.791 40.9886 572.181 40.6136C571.571 40.2386 571.097 39.714 570.76 39.0398C570.423 38.3655 570.255 37.5777 570.255 36.6761C570.255 35.7708 570.423 34.9792 570.76 34.3011C571.097 33.6231 571.571 33.0966 572.181 32.7216C572.791 32.3466 573.505 32.1591 574.323 32.1591C575.141 32.1591 575.855 32.3466 576.465 32.7216C577.075 33.0966 577.548 33.6231 577.885 34.3011C578.222 34.9792 578.391 35.7708 578.391 36.6761C578.391 37.5777 578.222 38.3655 577.885 39.0398C577.548 39.714 577.075 40.2386 576.465 40.6136C575.855 40.9886 575.141 41.1761 574.323 41.1761ZM574.328 39.75C574.859 39.75 575.298 39.6098 575.647 39.3295C575.995 39.0492 576.253 38.6761 576.419 38.2102C576.59 37.7443 576.675 37.2311 576.675 36.6705C576.675 36.1136 576.59 35.6023 576.419 35.1364C576.253 34.6667 575.995 34.2898 575.647 34.0057C575.298 33.7216 574.859 33.5795 574.328 33.5795C573.794 33.5795 573.351 33.7216 572.999 34.0057C572.65 34.2898 572.391 34.6667 572.221 35.1364C572.054 35.6023 571.971 36.1136 571.971 36.6705C571.971 37.2311 572.054 37.7443 572.221 38.2102C572.391 38.6761 572.65 39.0492 572.999 39.3295C573.351 39.6098 573.794 39.75 574.328 39.75ZM586.827 34.4034L585.287 34.6761C585.223 34.4792 585.121 34.2917 584.98 34.1136C584.844 33.9356 584.659 33.7898 584.424 33.6761C584.189 33.5625 583.895 33.5057 583.543 33.5057C583.062 33.5057 582.66 33.6136 582.338 33.8295C582.016 34.0417 581.855 34.3163 581.855 34.6534C581.855 34.9451 581.963 35.1799 582.179 35.358C582.395 35.536 582.744 35.6818 583.225 35.7955L584.611 36.1136C585.414 36.2992 586.013 36.5852 586.407 36.9716C586.801 37.358 586.998 37.8598 586.998 38.4773C586.998 39 586.846 39.4659 586.543 39.875C586.244 40.2803 585.825 40.5985 585.287 40.8295C584.753 41.0606 584.134 41.1761 583.429 41.1761C582.452 41.1761 581.655 40.9678 581.037 40.5511C580.42 40.1307 580.041 39.5341 579.901 38.7614L581.543 38.5114C581.645 38.9394 581.855 39.2633 582.174 39.483C582.492 39.6989 582.907 39.8068 583.418 39.8068C583.975 39.8068 584.42 39.6913 584.753 39.4602C585.087 39.2254 585.253 38.9394 585.253 38.6023C585.253 38.3295 585.151 38.1004 584.946 37.9148C584.746 37.7292 584.437 37.589 584.02 37.4943L582.543 37.1705C581.729 36.9848 581.126 36.6894 580.736 36.2841C580.35 35.8788 580.157 35.3655 580.157 34.7443C580.157 34.2292 580.301 33.7784 580.588 33.392C580.876 33.0057 581.274 32.7045 581.782 32.4886C582.289 32.2689 582.871 32.1591 583.526 32.1591C584.469 32.1591 585.212 32.3636 585.753 32.7727C586.295 33.178 586.653 33.7216 586.827 34.4034Z" fill="white"/>
<path d="M236.167 41V29.3636H240.429C241.255 29.3636 241.938 29.5 242.48 29.7727C243.022 30.0417 243.427 30.4072 243.696 30.8693C243.965 31.3277 244.099 31.8447 244.099 32.4205C244.099 32.9053 244.01 33.3144 243.832 33.6477C243.654 33.9773 243.416 34.2424 243.116 34.4432C242.821 34.6402 242.495 34.7841 242.139 34.875V34.9886C242.525 35.0076 242.902 35.1326 243.27 35.3636C243.641 35.5909 243.948 35.9148 244.19 36.3352C244.433 36.7557 244.554 37.267 244.554 37.8693C244.554 38.464 244.414 38.9981 244.133 39.4716C243.857 39.9413 243.429 40.3144 242.849 40.5909C242.27 40.8636 241.529 41 240.628 41H236.167ZM237.923 39.4943H240.457C241.298 39.4943 241.9 39.3314 242.264 39.0057C242.628 38.6799 242.81 38.2727 242.81 37.7841C242.81 37.4167 242.717 37.0795 242.531 36.7727C242.345 36.4659 242.08 36.2216 241.736 36.0398C241.395 35.858 240.989 35.767 240.52 35.767H237.923V39.4943ZM237.923 34.3977H240.275C240.669 34.3977 241.024 34.322 241.338 34.1705C241.656 34.0189 241.908 33.8068 242.094 33.5341C242.283 33.2576 242.378 32.9318 242.378 32.5568C242.378 32.0758 242.209 31.6723 241.872 31.3466C241.535 31.0208 241.018 30.858 240.321 30.858H237.923V34.3977ZM248.199 29.3636V41H246.5V29.3636H248.199ZM254.16 41.1761C253.342 41.1761 252.628 40.9886 252.018 40.6136C251.408 40.2386 250.935 39.714 250.598 39.0398C250.261 38.3655 250.092 37.5777 250.092 36.6761C250.092 35.7708 250.261 34.9792 250.598 34.3011C250.935 33.6231 251.408 33.0966 252.018 32.7216C252.628 32.3466 253.342 32.1591 254.16 32.1591C254.979 32.1591 255.693 32.3466 256.302 32.7216C256.912 33.0966 257.386 33.6231 257.723 34.3011C258.06 34.9792 258.229 35.7708 258.229 36.6761C258.229 37.5777 258.06 38.3655 257.723 39.0398C257.386 39.714 256.912 40.2386 256.302 40.6136C255.693 40.9886 254.979 41.1761 254.16 41.1761ZM254.166 39.75C254.696 39.75 255.136 39.6098 255.484 39.3295C255.833 39.0492 256.09 38.6761 256.257 38.2102C256.427 37.7443 256.513 37.2311 256.513 36.6705C256.513 36.1136 256.427 35.6023 256.257 35.1364C256.09 34.6667 255.833 34.2898 255.484 34.0057C255.136 33.7216 254.696 33.5795 254.166 33.5795C253.632 33.5795 253.189 33.7216 252.836 34.0057C252.488 34.2898 252.229 34.6667 252.058 35.1364C251.891 35.6023 251.808 36.1136 251.808 36.6705C251.808 37.2311 251.891 37.7443 252.058 38.2102C252.229 38.6761 252.488 39.0492 252.836 39.3295C253.189 39.6098 253.632 39.75 254.166 39.75ZM263.784 44.4545C263.091 44.4545 262.494 44.3636 261.994 44.1818C261.498 44 261.093 43.7595 260.778 43.4602C260.464 43.161 260.229 42.8333 260.074 42.4773L261.534 41.875C261.636 42.0417 261.773 42.2178 261.943 42.4034C262.117 42.5928 262.352 42.7538 262.648 42.8864C262.947 43.0189 263.331 43.0852 263.801 43.0852C264.445 43.0852 264.977 42.928 265.398 42.6136C265.818 42.303 266.028 41.8068 266.028 41.125V39.4091H265.92C265.818 39.5947 265.67 39.8011 265.477 40.0284C265.288 40.2557 265.026 40.4527 264.693 40.6193C264.36 40.786 263.926 40.8693 263.392 40.8693C262.703 40.8693 262.081 40.7083 261.528 40.3864C260.979 40.0606 260.543 39.5814 260.221 38.9489C259.903 38.3125 259.744 37.5303 259.744 36.6023C259.744 35.6742 259.901 34.8788 260.216 34.2159C260.534 33.553 260.97 33.0455 261.523 32.6932C262.076 32.3371 262.703 32.1591 263.403 32.1591C263.945 32.1591 264.382 32.25 264.716 32.4318C265.049 32.6098 265.309 32.8182 265.494 33.0568C265.684 33.2955 265.829 33.5057 265.932 33.6875H266.057V32.2727H267.721V41.1932C267.721 41.9432 267.547 42.5587 267.199 43.0398C266.85 43.5208 266.379 43.8769 265.784 44.108C265.193 44.339 264.526 44.4545 263.784 44.4545ZM263.767 39.4602C264.256 39.4602 264.668 39.3466 265.006 39.1193C265.346 38.8883 265.604 38.5587 265.778 38.1307C265.956 37.6989 266.045 37.1818 266.045 36.5795C266.045 35.9924 265.958 35.4754 265.784 35.0284C265.61 34.5814 265.354 34.233 265.017 33.983C264.68 33.7292 264.263 33.6023 263.767 33.6023C263.256 33.6023 262.829 33.7348 262.488 34C262.148 34.2614 261.89 34.6174 261.716 35.0682C261.545 35.5189 261.46 36.0227 261.46 36.5795C261.46 37.1515 261.547 37.6534 261.721 38.0852C261.896 38.517 262.153 38.8542 262.494 39.0966C262.839 39.339 263.263 39.4602 263.767 39.4602ZM271.46 29.3636V30.4545C271.46 30.7765 271.399 31.1155 271.278 31.4716C271.161 31.8239 270.994 32.1629 270.778 32.4886C270.562 32.8144 270.309 33.0947 270.017 33.3295L269.176 32.7273C269.399 32.4015 269.593 32.0549 269.756 31.6875C269.922 31.3201 270.006 30.9148 270.006 30.4716V29.3636H271.46ZM278.54 34.4034L277 34.6761C276.935 34.4792 276.833 34.2917 276.693 34.1136C276.557 33.9356 276.371 33.7898 276.136 33.6761C275.901 33.5625 275.608 33.5057 275.256 33.5057C274.774 33.5057 274.373 33.6136 274.051 33.8295C273.729 34.0417 273.568 34.3163 273.568 34.6534C273.568 34.9451 273.676 35.1799 273.892 35.358C274.108 35.536 274.456 35.6818 274.937 35.7955L276.324 36.1136C277.127 36.2992 277.725 36.5852 278.119 36.9716C278.513 37.358 278.71 37.8598 278.71 38.4773C278.71 39 278.559 39.4659 278.256 39.875C277.956 40.2803 277.538 40.5985 277 40.8295C276.466 41.0606 275.846 41.1761 275.142 41.1761C274.165 41.1761 273.367 40.9678 272.75 40.5511C272.132 40.1307 271.754 39.5341 271.613 38.7614L273.256 38.5114C273.358 38.9394 273.568 39.2633 273.886 39.483C274.204 39.6989 274.619 39.8068 275.131 39.8068C275.687 39.8068 276.132 39.6913 276.466 39.4602C276.799 39.2254 276.966 38.9394 276.966 38.6023C276.966 38.3295 276.863 38.1004 276.659 37.9148C276.458 37.7292 276.149 37.589 275.733 37.4943L274.256 37.1705C273.441 36.9848 272.839 36.6894 272.449 36.2841C272.062 35.8788 271.869 35.3655 271.869 34.7443C271.869 34.2292 272.013 33.7784 272.301 33.392C272.589 33.0057 272.987 32.7045 273.494 32.4886C274.002 32.2689 274.583 32.1591 275.238 32.1591C276.182 32.1591 276.924 32.3636 277.466 32.7727C278.007 33.178 278.365 33.7216 278.54 34.4034Z" fill="white"/>
<path d="M57.5577 30.875V29.3636H66.5634V30.875H62.9327V41H61.1827V30.875H57.5577ZM72.758 37.3807V32.2727H74.4626V41H72.7921V39.4886H72.7012C72.5005 39.9545 72.1785 40.3428 71.7353 40.6534C71.2959 40.9602 70.7486 41.1136 70.0933 41.1136C69.5327 41.1136 69.0364 40.9905 68.6046 40.7443C68.1766 40.4943 67.8395 40.125 67.5933 39.6364C67.3508 39.1477 67.2296 38.5436 67.2296 37.8239V32.2727H68.9285V37.6193C68.9285 38.214 69.0933 38.6875 69.4228 39.0398C69.7524 39.392 70.1804 39.5682 70.7069 39.5682C71.0251 39.5682 71.3414 39.4886 71.6558 39.3295C71.9739 39.1705 72.2372 38.9299 72.4455 38.608C72.6577 38.286 72.7618 37.8769 72.758 37.3807ZM80.8191 32.2727V33.6364H76.0521V32.2727H80.8191ZM77.3305 30.1818H79.0293V38.4375C79.0293 38.767 79.0786 39.0152 79.1771 39.1818C79.2756 39.3447 79.4024 39.4564 79.5577 39.517C79.7168 39.5739 79.8892 39.6023 80.0748 39.6023C80.2112 39.6023 80.3305 39.5928 80.4327 39.5739C80.535 39.5549 80.6146 39.5398 80.6714 39.5284L80.9782 40.9318C80.8797 40.9697 80.7396 41.0076 80.5577 41.0455C80.3759 41.0871 80.1487 41.1098 79.8759 41.1136C79.429 41.1212 79.0123 41.0417 78.6259 40.875C78.2396 40.7083 77.9271 40.4508 77.6884 40.1023C77.4498 39.7538 77.3305 39.3163 77.3305 38.7898V30.1818ZM86.2808 41.1761C85.4626 41.1761 84.7486 40.9886 84.1387 40.6136C83.5289 40.2386 83.0554 39.714 82.7183 39.0398C82.3811 38.3655 82.2126 37.5777 82.2126 36.6761C82.2126 35.7708 82.3811 34.9792 82.7183 34.3011C83.0554 33.6231 83.5289 33.0966 84.1387 32.7216C84.7486 32.3466 85.4626 32.1591 86.2808 32.1591C87.0989 32.1591 87.813 32.3466 88.4228 32.7216C89.0327 33.0966 89.5061 33.6231 89.8433 34.3011C90.1804 34.9792 90.3489 35.7708 90.3489 36.6761C90.3489 37.5777 90.1804 38.3655 89.8433 39.0398C89.5061 39.714 89.0327 40.2386 88.4228 40.6136C87.813 40.9886 87.0989 41.1761 86.2808 41.1761ZM86.2864 39.75C86.8167 39.75 87.2561 39.6098 87.6046 39.3295C87.9531 39.0492 88.2107 38.6761 88.3774 38.2102C88.5478 37.7443 88.633 37.2311 88.633 36.6705C88.633 36.1136 88.5478 35.6023 88.3774 35.1364C88.2107 34.6667 87.9531 34.2898 87.6046 34.0057C87.2561 33.7216 86.8167 33.5795 86.2864 33.5795C85.7524 33.5795 85.3092 33.7216 84.9569 34.0057C84.6084 34.2898 84.3489 34.6667 84.1785 35.1364C84.0118 35.6023 83.9285 36.1136 83.9285 36.6705C83.9285 37.2311 84.0118 37.7443 84.1785 38.2102C84.3489 38.6761 84.6084 39.0492 84.9569 39.3295C85.3092 39.6098 85.7524 39.75 86.2864 39.75ZM92.2452 41V32.2727H93.8873V33.6591H93.9782C94.1373 33.1894 94.4176 32.8201 94.8191 32.5511C95.2244 32.2784 95.6827 32.142 96.1941 32.142C96.3002 32.142 96.4252 32.1458 96.5691 32.1534C96.7168 32.161 96.8324 32.1705 96.9157 32.1818V33.8068C96.8475 33.7879 96.7263 33.767 96.5521 33.7443C96.3778 33.7178 96.2036 33.7045 96.0293 33.7045C95.6278 33.7045 95.2699 33.7898 94.9555 33.9602C94.6449 34.1269 94.3987 34.3598 94.2168 34.6591C94.035 34.9545 93.9441 35.2917 93.9441 35.6705V41H92.2452ZM98.3859 41V32.2727H100.085V41H98.3859ZM99.2438 30.9261C98.9484 30.9261 98.6946 30.8277 98.4825 30.6307C98.2741 30.4299 98.17 30.1913 98.17 29.9148C98.17 29.6345 98.2741 29.3958 98.4825 29.1989C98.6946 28.9981 98.9484 28.8977 99.2438 28.8977C99.5393 28.8977 99.7912 28.9981 99.9995 29.1989C100.212 29.3958 100.318 29.6345 100.318 29.9148C100.318 30.1913 100.212 30.4299 99.9995 30.6307C99.7912 30.8277 99.5393 30.9261 99.2438 30.9261ZM104.91 41.1932C104.357 41.1932 103.857 41.0909 103.41 40.8864C102.963 40.678 102.609 40.3769 102.348 39.983C102.09 39.589 101.961 39.1061 101.961 38.5341C101.961 38.0417 102.056 37.6364 102.245 37.3182C102.435 37 102.69 36.7481 103.012 36.5625C103.334 36.3769 103.694 36.2367 104.092 36.142C104.49 36.0473 104.895 35.9754 105.308 35.9261C105.83 35.8655 106.255 35.8163 106.58 35.7784C106.906 35.7367 107.143 35.6705 107.291 35.5795C107.438 35.4886 107.512 35.3409 107.512 35.1364V35.0966C107.512 34.6004 107.372 34.2159 107.092 33.9432C106.815 33.6705 106.402 33.5341 105.853 33.5341C105.281 33.5341 104.83 33.661 104.501 33.9148C104.175 34.1648 103.95 34.4432 103.825 34.75L102.228 34.3864C102.418 33.8561 102.694 33.428 103.058 33.1023C103.425 32.7727 103.848 32.5341 104.325 32.3864C104.802 32.2348 105.304 32.1591 105.83 32.1591C106.179 32.1591 106.548 32.2008 106.938 32.2841C107.332 32.3636 107.7 32.5114 108.041 32.7273C108.385 32.9432 108.668 33.2519 108.887 33.6534C109.107 34.0511 109.217 34.5682 109.217 35.2045V41H107.558V39.8068H107.49C107.38 40.0265 107.215 40.2424 106.995 40.4545C106.776 40.6667 106.493 40.8428 106.149 40.983C105.804 41.1231 105.391 41.1932 104.91 41.1932ZM105.279 39.8295C105.749 39.8295 106.151 39.7367 106.484 39.5511C106.821 39.3655 107.077 39.1231 107.251 38.8239C107.429 38.5208 107.518 38.197 107.518 37.8523V36.7273C107.457 36.7879 107.34 36.8447 107.166 36.8977C106.995 36.947 106.8 36.9905 106.58 37.0284C106.361 37.0625 106.147 37.0947 105.938 37.125C105.73 37.1515 105.556 37.1742 105.416 37.1932C105.086 37.2348 104.785 37.3049 104.512 37.4034C104.243 37.5019 104.027 37.6439 103.865 37.8295C103.705 38.0114 103.626 38.2538 103.626 38.5568C103.626 38.9773 103.781 39.2955 104.092 39.5114C104.402 39.7235 104.798 39.8295 105.279 39.8295ZM113.178 29.3636V41H111.48V29.3636H113.178ZM122.004 34.4034L120.464 34.6761C120.4 34.4792 120.297 34.2917 120.157 34.1136C120.021 33.9356 119.835 33.7898 119.6 33.6761C119.366 33.5625 119.072 33.5057 118.72 33.5057C118.239 33.5057 117.837 33.6136 117.515 33.8295C117.193 34.0417 117.032 34.3163 117.032 34.6534C117.032 34.9451 117.14 35.1799 117.356 35.358C117.572 35.536 117.92 35.6818 118.401 35.7955L119.788 36.1136C120.591 36.2992 121.189 36.5852 121.583 36.9716C121.977 37.358 122.174 37.8598 122.174 38.4773C122.174 39 122.023 39.4659 121.72 39.875C121.42 40.2803 121.002 40.5985 120.464 40.8295C119.93 41.0606 119.311 41.1761 118.606 41.1761C117.629 41.1761 116.831 40.9678 116.214 40.5511C115.597 40.1307 115.218 39.5341 115.078 38.7614L116.72 38.5114C116.822 38.9394 117.032 39.2633 117.35 39.483C117.669 39.6989 118.083 39.8068 118.595 39.8068C119.151 39.8068 119.597 39.6913 119.93 39.4602C120.263 39.2254 120.43 38.9394 120.43 38.6023C120.43 38.3295 120.328 38.1004 120.123 37.9148C119.922 37.7292 119.614 37.589 119.197 37.4943L117.72 37.1705C116.905 36.9848 116.303 36.6894 115.913 36.2841C115.526 35.8788 115.333 35.3655 115.333 34.7443C115.333 34.2292 115.477 33.7784 115.765 33.392C116.053 33.0057 116.451 32.7045 116.958 32.4886C117.466 32.2689 118.047 32.1591 118.703 32.1591C119.646 32.1591 120.388 32.3636 120.93 32.7727C121.472 33.178 121.83 33.7216 122.004 34.4034Z" fill="white"/>
<rect x="182.949" y="18" width="2.9996" height="36.0997" fill="#D9D9D9" fill-opacity="0.5"/>
<rect x="327.727" y="18" width="2.9996" height="36.0997" fill="#D9D9D9" fill-opacity="0.5"/>
<rect x="495.537" y="18" width="2.9996" height="36.0997" fill="#D9D9D9" fill-opacity="0.5"/>
</svg>
