<svg width="336" height="48" viewBox="0 0 336 48" fill="none" xmlns="http://www.w3.org/2000/svg">
<rect x="0.5" y="0.5" width="335" height="47" rx="6.5" fill="url(#paint0_linear_257_6231)" fill-opacity="0.35" stroke="#5C67C7"/>
<path d="M85.404 28.5V16.8636H89.5518C90.4533 16.8636 91.2014 17.0189 91.7961 17.3295C92.3946 17.6402 92.8416 18.0701 93.137 18.6193C93.4325 19.1648 93.5802 19.7955 93.5802 20.5114C93.5802 21.2235 93.4306 21.8504 93.1313 22.392C92.8359 22.9299 92.3889 23.3485 91.7904 23.6477C91.1957 23.947 90.4476 24.0966 89.5461 24.0966H86.4041V22.5852H89.387C89.9552 22.5852 90.4173 22.5038 90.7734 22.3409C91.1332 22.178 91.3965 21.9413 91.5631 21.6307C91.7298 21.3201 91.8131 20.947 91.8131 20.5114C91.8131 20.072 91.7279 19.6913 91.5575 19.3693C91.3908 19.0473 91.1275 18.8011 90.7677 18.6307C90.4116 18.4564 89.9438 18.3693 89.3643 18.3693H87.1597V28.5H85.404ZM91.1484 23.25L94.0234 28.5H92.0234L89.2052 23.25H91.1484ZM99.2322 28.6761C98.3723 28.6761 97.6318 28.4924 97.0106 28.125C96.3932 27.7538 95.9159 27.233 95.5788 26.5625C95.2454 25.8883 95.0788 25.0985 95.0788 24.1932C95.0788 23.2992 95.2454 22.5114 95.5788 21.8295C95.9159 21.1477 96.3856 20.6155 96.9879 20.233C97.5939 19.8504 98.3023 19.6591 99.1129 19.6591C99.6053 19.6591 100.083 19.7405 100.545 19.9034C101.007 20.0663 101.422 20.322 101.789 20.6705C102.156 21.0189 102.446 21.4716 102.658 22.0284C102.87 22.5814 102.976 23.2538 102.976 24.0455V24.6477H96.039V23.375H101.312C101.312 22.928 101.221 22.5322 101.039 22.1875C100.857 21.839 100.601 21.5644 100.272 21.3636C99.9462 21.1629 99.5636 21.0625 99.1242 21.0625C98.6469 21.0625 98.2303 21.1799 97.8742 21.4148C97.5219 21.6458 97.2492 21.9489 97.056 22.3239C96.8666 22.6951 96.7719 23.0985 96.7719 23.5341V24.5284C96.7719 25.1117 96.8742 25.608 97.0788 26.017C97.2871 26.4261 97.5769 26.7386 97.9481 26.9545C98.3193 27.1667 98.753 27.2727 99.2492 27.2727C99.5712 27.2727 99.8648 27.2273 100.13 27.1364C100.395 27.0417 100.624 26.9015 100.817 26.7159C101.011 26.5303 101.158 26.3011 101.261 26.0284L102.869 26.3182C102.74 26.7917 102.509 27.2064 102.175 27.5625C101.846 27.9148 101.431 28.1894 100.931 28.3864C100.435 28.5795 99.8685 28.6761 99.2322 28.6761ZM110.753 31.7727V27.142H110.651C110.549 27.3277 110.401 27.5398 110.208 27.7784C110.019 28.017 109.757 28.2254 109.424 28.4034C109.091 28.5814 108.659 28.6705 108.128 28.6705C107.424 28.6705 106.795 28.4905 106.242 28.1307C105.693 27.767 105.261 27.25 104.947 26.5795C104.636 25.9053 104.481 25.0966 104.481 24.1534C104.481 23.2102 104.638 22.4034 104.952 21.733C105.271 21.0625 105.706 20.5492 106.259 20.1932C106.812 19.8371 107.439 19.6591 108.14 19.6591C108.682 19.6591 109.117 19.75 109.447 19.9318C109.78 20.1098 110.038 20.3182 110.219 20.5568C110.405 20.7955 110.549 21.0057 110.651 21.1875H110.793V19.7727H112.452V31.7727H110.753ZM108.503 27.2216C108.992 27.2216 109.405 27.0928 109.742 26.8352C110.083 26.5739 110.341 26.2121 110.515 25.75C110.693 25.2879 110.782 24.75 110.782 24.1364C110.782 23.5303 110.695 23 110.521 22.5455C110.346 22.0909 110.091 21.7367 109.753 21.483C109.416 21.2292 109 21.1023 108.503 21.1023C107.992 21.1023 107.566 21.2348 107.225 21.5C106.884 21.7652 106.627 22.1269 106.452 22.5852C106.282 23.0436 106.197 23.5606 106.197 24.1364C106.197 24.7197 106.284 25.2443 106.458 25.7102C106.632 26.1761 106.89 26.5455 107.231 26.8182C107.575 27.0871 108 27.2216 108.503 27.2216ZM120.265 24.8807V19.7727H121.969V28.5H120.299V26.9886H120.208C120.007 27.4545 119.685 27.8428 119.242 28.1534C118.803 28.4602 118.255 28.6136 117.6 28.6136C117.039 28.6136 116.543 28.4905 116.111 28.2443C115.683 27.9943 115.346 27.625 115.1 27.1364C114.858 26.6477 114.736 26.0436 114.736 25.3239V19.7727H116.435V25.1193C116.435 25.714 116.6 26.1875 116.93 26.5398C117.259 26.892 117.687 27.0682 118.214 27.0682C118.532 27.0682 118.848 26.9886 119.163 26.8295C119.481 26.6705 119.744 26.4299 119.952 26.108C120.164 25.786 120.269 25.3769 120.265 24.8807ZM128.013 28.6761C127.154 28.6761 126.413 28.4924 125.792 28.125C125.174 27.7538 124.697 27.233 124.36 26.5625C124.027 25.8883 123.86 25.0985 123.86 24.1932C123.86 23.2992 124.027 22.5114 124.36 21.8295C124.697 21.1477 125.167 20.6155 125.769 20.233C126.375 19.8504 127.084 19.6591 127.894 19.6591C128.387 19.6591 128.864 19.7405 129.326 19.9034C129.788 20.0663 130.203 20.322 130.57 20.6705C130.938 21.0189 131.227 21.4716 131.44 22.0284C131.652 22.5814 131.758 23.2538 131.758 24.0455V24.6477H124.82V23.375H130.093C130.093 22.928 130.002 22.5322 129.82 22.1875C129.638 21.839 129.383 21.5644 129.053 21.3636C128.727 21.1629 128.345 21.0625 127.905 21.0625C127.428 21.0625 127.012 21.1799 126.655 21.4148C126.303 21.6458 126.03 21.9489 125.837 22.3239C125.648 22.6951 125.553 23.0985 125.553 23.5341V24.5284C125.553 25.1117 125.655 25.608 125.86 26.017C126.068 26.4261 126.358 26.7386 126.729 26.9545C127.101 27.1667 127.534 27.2727 128.03 27.2727C128.352 27.2727 128.646 27.2273 128.911 27.1364C129.176 27.0417 129.405 26.9015 129.599 26.7159C129.792 26.5303 129.94 26.3011 130.042 26.0284L131.65 26.3182C131.521 26.7917 131.29 27.2064 130.957 27.5625C130.627 27.9148 130.212 28.1894 129.712 28.3864C129.216 28.5795 128.65 28.6761 128.013 28.6761ZM140.182 21.9034L138.643 22.1761C138.578 21.9792 138.476 21.7917 138.336 21.6136C138.2 21.4356 138.014 21.2898 137.779 21.1761C137.544 21.0625 137.251 21.0057 136.898 21.0057C136.417 21.0057 136.016 21.1136 135.694 21.3295C135.372 21.5417 135.211 21.8163 135.211 22.1534C135.211 22.4451 135.319 22.6799 135.535 22.858C135.751 23.036 136.099 23.1818 136.58 23.2955L137.967 23.6136C138.77 23.7992 139.368 24.0852 139.762 24.4716C140.156 24.858 140.353 25.3598 140.353 25.9773C140.353 26.5 140.201 26.9659 139.898 27.375C139.599 27.7803 139.181 28.0985 138.643 28.3295C138.109 28.5606 137.489 28.6761 136.785 28.6761C135.807 28.6761 135.01 28.4678 134.393 28.0511C133.775 27.6307 133.396 27.0341 133.256 26.2614L134.898 26.0114C135.001 26.4394 135.211 26.7633 135.529 26.983C135.847 27.1989 136.262 27.3068 136.773 27.3068C137.33 27.3068 137.775 27.1913 138.109 26.9602C138.442 26.7254 138.609 26.4394 138.609 26.1023C138.609 25.8295 138.506 25.6004 138.302 25.4148C138.101 25.2292 137.792 25.089 137.376 24.9943L135.898 24.6705C135.084 24.4848 134.482 24.1894 134.092 23.7841C133.705 23.3788 133.512 22.8655 133.512 22.2443C133.512 21.7292 133.656 21.2784 133.944 20.892C134.232 20.5057 134.629 20.2045 135.137 19.9886C135.645 19.7689 136.226 19.6591 136.881 19.6591C137.825 19.6591 138.567 19.8636 139.109 20.2727C139.65 20.678 140.008 21.2216 140.182 21.9034ZM146.295 19.7727V21.1364H141.528V19.7727H146.295ZM142.806 17.6818H144.505V25.9375C144.505 26.267 144.554 26.5152 144.653 26.6818C144.751 26.8447 144.878 26.9564 145.033 27.017C145.192 27.0739 145.365 27.1023 145.55 27.1023C145.687 27.1023 145.806 27.0928 145.908 27.0739C146.011 27.0549 146.09 27.0398 146.147 27.0284L146.454 28.4318C146.355 28.4697 146.215 28.5076 146.033 28.5455C145.851 28.5871 145.624 28.6098 145.351 28.6136C144.905 28.6212 144.488 28.5417 144.101 28.375C143.715 28.2083 143.403 27.9508 143.164 27.6023C142.925 27.2538 142.806 26.8163 142.806 26.2898V17.6818ZM152.545 28.5V16.8636H159.84V18.375H154.3V21.9205H159.459V23.4261H154.3V26.9886H159.908V28.5H152.545ZM164.589 28.6932C164.036 28.6932 163.536 28.5909 163.089 28.3864C162.642 28.178 162.288 27.8769 162.026 27.483C161.769 27.089 161.64 26.6061 161.64 26.0341C161.64 25.5417 161.735 25.1364 161.924 24.8182C162.113 24.5 162.369 24.2481 162.691 24.0625C163.013 23.8769 163.373 23.7367 163.771 23.642C164.168 23.5473 164.574 23.4754 164.986 23.4261C165.509 23.3655 165.933 23.3163 166.259 23.2784C166.585 23.2367 166.822 23.1705 166.969 23.0795C167.117 22.9886 167.191 22.8409 167.191 22.6364V22.5966C167.191 22.1004 167.051 21.7159 166.771 21.4432C166.494 21.1705 166.081 21.0341 165.532 21.0341C164.96 21.0341 164.509 21.161 164.18 21.4148C163.854 21.6648 163.628 21.9432 163.503 22.25L161.907 21.8864C162.096 21.3561 162.373 20.928 162.736 20.6023C163.104 20.2727 163.526 20.0341 164.003 19.8864C164.481 19.7348 164.983 19.6591 165.509 19.6591C165.858 19.6591 166.227 19.7008 166.617 19.7841C167.011 19.8636 167.378 20.0114 167.719 20.2273C168.064 20.4432 168.346 20.7519 168.566 21.1534C168.786 21.5511 168.896 22.0682 168.896 22.7045V28.5H167.236V27.3068H167.168C167.058 27.5265 166.894 27.7424 166.674 27.9545C166.454 28.1667 166.172 28.3428 165.827 28.483C165.483 28.6231 165.07 28.6932 164.589 28.6932ZM164.958 27.3295C165.428 27.3295 165.829 27.2367 166.163 27.0511C166.5 26.8655 166.755 26.6231 166.93 26.3239C167.108 26.0208 167.197 25.697 167.197 25.3523V24.2273C167.136 24.2879 167.019 24.3447 166.844 24.3977C166.674 24.447 166.479 24.4905 166.259 24.5284C166.039 24.5625 165.825 24.5947 165.617 24.625C165.409 24.6515 165.235 24.6742 165.094 24.6932C164.765 24.7348 164.464 24.8049 164.191 24.9034C163.922 25.0019 163.706 25.1439 163.543 25.3295C163.384 25.5114 163.305 25.7538 163.305 26.0568C163.305 26.4773 163.46 26.7955 163.771 27.0114C164.081 27.2235 164.477 27.3295 164.958 27.3295ZM171.158 28.5V19.7727H172.8V21.1591H172.891C173.05 20.6894 173.331 20.3201 173.732 20.0511C174.137 19.7784 174.596 19.642 175.107 19.642C175.213 19.642 175.338 19.6458 175.482 19.6534C175.63 19.661 175.745 19.6705 175.829 19.6818V21.3068C175.761 21.2879 175.639 21.267 175.465 21.2443C175.291 21.2178 175.117 21.2045 174.942 21.2045C174.541 21.2045 174.183 21.2898 173.869 21.4602C173.558 21.6269 173.312 21.8598 173.13 22.1591C172.948 22.4545 172.857 22.7917 172.857 23.1705V28.5H171.158ZM178.998 16.8636V28.5H177.299V16.8636H178.998ZM182.357 31.7727C182.103 31.7727 181.872 31.7519 181.664 31.7102C181.456 31.6723 181.3 31.6307 181.198 31.5852L181.607 30.1932C181.918 30.2765 182.194 30.3125 182.437 30.3011C182.679 30.2898 182.893 30.1989 183.079 30.0284C183.268 29.858 183.435 29.5795 183.579 29.1932L183.789 28.6136L180.596 19.7727H182.414L184.624 26.5455H184.715L186.925 19.7727H188.749L185.153 29.6648C184.986 30.1193 184.774 30.5038 184.516 30.8182C184.259 31.1364 183.952 31.375 183.596 31.5341C183.24 31.6932 182.827 31.7727 182.357 31.7727ZM195.7 28.5H193.836L198.023 16.8636H200.052L204.239 28.5H202.376L199.086 18.9773H198.995L195.7 28.5ZM196.012 23.9432H202.057V25.4205H196.012V23.9432ZM209.319 28.6761C208.474 28.6761 207.747 28.4848 207.137 28.1023C206.531 27.7159 206.065 27.1837 205.739 26.5057C205.414 25.8277 205.251 25.0511 205.251 24.1761C205.251 23.2898 205.417 22.5076 205.751 21.8295C206.084 21.1477 206.554 20.6155 207.16 20.233C207.766 19.8504 208.48 19.6591 209.302 19.6591C209.965 19.6591 210.556 19.7822 211.075 20.0284C211.593 20.2708 212.012 20.6117 212.33 21.0511C212.652 21.4905 212.843 22.0038 212.904 22.5909H211.251C211.16 22.1818 210.951 21.8295 210.626 21.5341C210.304 21.2386 209.872 21.0909 209.33 21.0909C208.857 21.0909 208.442 21.2159 208.086 21.4659C207.734 21.7121 207.459 22.0644 207.262 22.5227C207.065 22.9773 206.967 23.5152 206.967 24.1364C206.967 24.7727 207.063 25.322 207.256 25.7841C207.45 26.2462 207.722 26.6042 208.075 26.858C208.431 27.1117 208.849 27.2386 209.33 27.2386C209.652 27.2386 209.944 27.1799 210.205 27.0625C210.47 26.9413 210.692 26.7689 210.87 26.5455C211.052 26.322 211.179 26.053 211.251 25.7386H212.904C212.843 26.303 212.66 26.8068 212.353 27.25C212.046 27.6932 211.635 28.0417 211.12 28.2955C210.609 28.5492 210.008 28.6761 209.319 28.6761ZM218.397 28.6761C217.552 28.6761 216.825 28.4848 216.215 28.1023C215.609 27.7159 215.143 27.1837 214.817 26.5057C214.492 25.8277 214.329 25.0511 214.329 24.1761C214.329 23.2898 214.495 22.5076 214.829 21.8295C215.162 21.1477 215.632 20.6155 216.238 20.233C216.844 19.8504 217.558 19.6591 218.38 19.6591C219.043 19.6591 219.634 19.7822 220.153 20.0284C220.672 20.2708 221.09 20.6117 221.408 21.0511C221.73 21.4905 221.922 22.0038 221.982 22.5909H220.329C220.238 22.1818 220.03 21.8295 219.704 21.5341C219.382 21.2386 218.95 21.0909 218.408 21.0909C217.935 21.0909 217.52 21.2159 217.164 21.4659C216.812 21.7121 216.537 22.0644 216.34 22.5227C216.143 22.9773 216.045 23.5152 216.045 24.1364C216.045 24.7727 216.141 25.322 216.334 25.7841C216.528 26.2462 216.8 26.6042 217.153 26.858C217.509 27.1117 217.927 27.2386 218.408 27.2386C218.73 27.2386 219.022 27.1799 219.283 27.0625C219.548 26.9413 219.77 26.7689 219.948 26.5455C220.13 26.322 220.257 26.053 220.329 25.7386H221.982C221.922 26.303 221.738 26.8068 221.431 27.25C221.124 27.6932 220.713 28.0417 220.198 28.2955C219.687 28.5492 219.086 28.6761 218.397 28.6761ZM227.56 28.6761C226.7 28.6761 225.96 28.4924 225.339 28.125C224.721 27.7538 224.244 27.233 223.907 26.5625C223.574 25.8883 223.407 25.0985 223.407 24.1932C223.407 23.2992 223.574 22.5114 223.907 21.8295C224.244 21.1477 224.714 20.6155 225.316 20.233C225.922 19.8504 226.63 19.6591 227.441 19.6591C227.933 19.6591 228.411 19.7405 228.873 19.9034C229.335 20.0663 229.75 20.322 230.117 20.6705C230.485 21.0189 230.774 21.4716 230.986 22.0284C231.199 22.5814 231.305 23.2538 231.305 24.0455V24.6477H224.367V23.375H229.64C229.64 22.928 229.549 22.5322 229.367 22.1875C229.185 21.839 228.93 21.5644 228.6 21.3636C228.274 21.1629 227.892 21.0625 227.452 21.0625C226.975 21.0625 226.558 21.1799 226.202 21.4148C225.85 21.6458 225.577 21.9489 225.384 22.3239C225.195 22.6951 225.1 23.0985 225.1 23.5341V24.5284C225.1 25.1117 225.202 25.608 225.407 26.017C225.615 26.4261 225.905 26.7386 226.276 26.9545C226.647 27.1667 227.081 27.2727 227.577 27.2727C227.899 27.2727 228.193 27.2273 228.458 27.1364C228.723 27.0417 228.952 26.9015 229.146 26.7159C229.339 26.5303 229.486 26.3011 229.589 26.0284L231.197 26.3182C231.068 26.7917 230.837 27.2064 230.503 27.5625C230.174 27.9148 229.759 28.1894 229.259 28.3864C228.763 28.5795 228.197 28.6761 227.56 28.6761ZM239.729 21.9034L238.19 22.1761C238.125 21.9792 238.023 21.7917 237.883 21.6136C237.746 21.4356 237.561 21.2898 237.326 21.1761C237.091 21.0625 236.798 21.0057 236.445 21.0057C235.964 21.0057 235.563 21.1136 235.241 21.3295C234.919 21.5417 234.758 21.8163 234.758 22.1534C234.758 22.4451 234.866 22.6799 235.082 22.858C235.298 23.036 235.646 23.1818 236.127 23.2955L237.513 23.6136C238.316 23.7992 238.915 24.0852 239.309 24.4716C239.703 24.858 239.9 25.3598 239.9 25.9773C239.9 26.5 239.748 26.9659 239.445 27.375C239.146 27.7803 238.727 28.0985 238.19 28.3295C237.655 28.5606 237.036 28.6761 236.332 28.6761C235.354 28.6761 234.557 28.4678 233.94 28.0511C233.322 27.6307 232.943 27.0341 232.803 26.2614L234.445 26.0114C234.548 26.4394 234.758 26.7633 235.076 26.983C235.394 27.1989 235.809 27.3068 236.32 27.3068C236.877 27.3068 237.322 27.1913 237.655 26.9602C237.989 26.7254 238.155 26.4394 238.155 26.1023C238.155 25.8295 238.053 25.6004 237.849 25.4148C237.648 25.2292 237.339 25.089 236.923 24.9943L235.445 24.6705C234.631 24.4848 234.029 24.1894 233.638 23.7841C233.252 23.3788 233.059 22.8655 233.059 22.2443C233.059 21.7292 233.203 21.2784 233.491 20.892C233.779 20.5057 234.176 20.2045 234.684 19.9886C235.191 19.7689 235.773 19.6591 236.428 19.6591C237.371 19.6591 238.114 19.8636 238.655 20.2727C239.197 20.678 239.555 21.2216 239.729 21.9034ZM248.307 21.9034L246.768 22.1761C246.703 21.9792 246.601 21.7917 246.461 21.6136C246.325 21.4356 246.139 21.2898 245.904 21.1761C245.669 21.0625 245.376 21.0057 245.023 21.0057C244.542 21.0057 244.141 21.1136 243.819 21.3295C243.497 21.5417 243.336 21.8163 243.336 22.1534C243.336 22.4451 243.444 22.6799 243.66 22.858C243.876 23.036 244.224 23.1818 244.705 23.2955L246.092 23.6136C246.895 23.7992 247.493 24.0852 247.887 24.4716C248.281 24.858 248.478 25.3598 248.478 25.9773C248.478 26.5 248.326 26.9659 248.023 27.375C247.724 27.7803 247.306 28.0985 246.768 28.3295C246.234 28.5606 245.614 28.6761 244.91 28.6761C243.932 28.6761 243.135 28.4678 242.518 28.0511C241.9 27.6307 241.521 27.0341 241.381 26.2614L243.023 26.0114C243.126 26.4394 243.336 26.7633 243.654 26.983C243.972 27.1989 244.387 27.3068 244.898 27.3068C245.455 27.3068 245.9 27.1913 246.234 26.9602C246.567 26.7254 246.734 26.4394 246.734 26.1023C246.734 25.8295 246.631 25.6004 246.427 25.4148C246.226 25.2292 245.917 25.089 245.501 24.9943L244.023 24.6705C243.209 24.4848 242.607 24.1894 242.217 23.7841C241.83 23.3788 241.637 22.8655 241.637 22.2443C241.637 21.7292 241.781 21.2784 242.069 20.892C242.357 20.5057 242.754 20.2045 243.262 19.9886C243.77 19.7689 244.351 19.6591 245.006 19.6591C245.95 19.6591 246.692 19.8636 247.234 20.2727C247.775 20.678 248.133 21.2216 248.307 21.9034Z" fill="#5C67C7"/>
<defs>
<linearGradient id="paint0_linear_257_6231" x1="403.5" y1="-52.5001" x2="-99.5" y2="76" gradientUnits="userSpaceOnUse">
<stop stop-color="#5C67C7"/>
<stop offset="0.809798" stop-color="#5C67C7" stop-opacity="0"/>
</linearGradient>
</defs>
</svg>
