<svg width="565" height="100" viewBox="0 0 565 100" fill="none" xmlns="http://www.w3.org/2000/svg">
<path d="M3.2255 45V10.0909H26.7482V16.1761H10.6062V24.4943H25.538V30.5795H10.6062V38.9148H26.8164V45H3.2255ZM49.7523 24.6648V30.4261H33.8318V24.6648H49.7523ZM57.0361 45V10.0909H64.4168V38.9148H79.3827V45H57.0361ZM97.0259 45.5114C94.3328 45.5114 92.0146 44.9659 90.0714 43.875C88.1396 42.7727 86.6509 41.2159 85.6055 39.2045C84.56 37.1818 84.0373 34.7898 84.0373 32.0284C84.0373 29.3352 84.56 26.9716 85.6055 24.9375C86.6509 22.9034 88.1225 21.3182 90.0203 20.1818C91.9294 19.0455 94.168 18.4773 96.7362 18.4773C98.4634 18.4773 100.071 18.7557 101.56 19.3125C103.06 19.858 104.367 20.6818 105.48 21.7841C106.605 22.8864 107.48 24.2727 108.105 25.9432C108.73 27.6023 109.043 29.5455 109.043 31.7727V33.767H86.935V29.267H102.208C102.208 28.2216 101.98 27.2955 101.526 26.4886C101.071 25.6818 100.441 25.0511 99.6339 24.5966C98.8384 24.1307 97.9123 23.8977 96.8555 23.8977C95.7532 23.8977 94.7759 24.1534 93.9237 24.6648C93.0828 25.1648 92.4237 25.8409 91.9464 26.6932C91.4691 27.5341 91.2248 28.4716 91.2134 29.5057V33.7841C91.2134 35.0795 91.4521 36.1989 91.9294 37.142C92.418 38.0852 93.1055 38.8125 93.9919 39.3239C94.8782 39.8352 95.9294 40.0909 97.1453 40.0909C97.9521 40.0909 98.6907 39.9773 99.3612 39.75C100.032 39.5227 100.605 39.1818 101.083 38.7273C101.56 38.2727 101.924 37.7159 102.174 37.0568L108.89 37.5C108.549 39.1136 107.85 40.5227 106.793 41.7273C105.748 42.9205 104.395 43.8523 102.736 44.5227C101.088 45.1818 99.185 45.5114 97.0259 45.5114ZM122.208 45.4943C120.537 45.4943 119.048 45.2045 117.742 44.625C116.435 44.0341 115.401 43.1648 114.639 42.017C113.889 40.858 113.514 39.4148 113.514 37.6875C113.514 36.233 113.781 35.0114 114.315 34.0227C114.85 33.0341 115.577 32.2386 116.497 31.6364C117.418 31.0341 118.463 30.5795 119.634 30.2727C120.815 29.9659 122.054 29.75 123.35 29.625C124.872 29.4659 126.1 29.3182 127.031 29.1818C127.963 29.0341 128.639 28.8182 129.06 28.5341C129.48 28.25 129.69 27.8295 129.69 27.2727V27.1705C129.69 26.0909 129.35 25.2557 128.668 24.6648C127.997 24.0739 127.043 23.7784 125.804 23.7784C124.497 23.7784 123.458 24.0682 122.685 24.6477C121.912 25.2159 121.401 25.9318 121.151 26.7955L114.435 26.25C114.776 24.6591 115.446 23.2841 116.446 22.125C117.446 20.9545 118.736 20.0568 120.315 19.4318C121.906 18.7955 123.747 18.4773 125.838 18.4773C127.293 18.4773 128.685 18.6477 130.014 18.9886C131.355 19.3295 132.543 19.858 133.577 20.5739C134.622 21.2898 135.446 22.2102 136.048 23.3352C136.651 24.4489 136.952 25.7841 136.952 27.3409V45H130.065V41.3693H129.861C129.44 42.1875 128.878 42.9091 128.173 43.5341C127.469 44.1477 126.622 44.6307 125.634 44.983C124.645 45.3239 123.503 45.4943 122.208 45.4943ZM124.287 40.483C125.355 40.483 126.298 40.2727 127.117 39.8523C127.935 39.4205 128.577 38.8409 129.043 38.1136C129.509 37.3864 129.742 36.5625 129.742 35.642V32.8636C129.514 33.0114 129.202 33.1477 128.804 33.2727C128.418 33.3864 127.98 33.4943 127.492 33.5966C127.003 33.6875 126.514 33.7727 126.026 33.8523C125.537 33.9205 125.094 33.983 124.696 34.0398C123.844 34.1648 123.1 34.3636 122.463 34.6364C121.827 34.9091 121.333 35.2784 120.98 35.7443C120.628 36.1989 120.452 36.767 120.452 37.4489C120.452 38.4375 120.81 39.1932 121.526 39.7159C122.253 40.2273 123.173 40.483 124.287 40.483ZM143.545 45V18.8182H150.585V23.3864H150.858C151.335 21.7614 152.136 20.5341 153.261 19.7045C154.386 18.8636 155.682 18.4432 157.148 18.4432C157.511 18.4432 157.903 18.4659 158.324 18.5114C158.744 18.5568 159.114 18.6193 159.432 18.6989V25.142C159.091 25.0398 158.619 24.9489 158.017 24.8693C157.415 24.7898 156.864 24.75 156.364 24.75C155.295 24.75 154.341 24.983 153.5 25.4489C152.67 25.9034 152.011 26.5398 151.523 27.358C151.045 28.1761 150.807 29.1193 150.807 30.1875V45H143.545ZM171.407 29.8636V45H164.146V18.8182H171.066V23.4375H171.373C171.953 21.9148 172.924 20.7102 174.288 19.8239C175.652 18.9261 177.305 18.4773 179.248 18.4773C181.066 18.4773 182.652 18.875 184.004 19.6705C185.356 20.4659 186.407 21.6023 187.157 23.0795C187.907 24.5455 188.282 26.2955 188.282 28.3295V45H181.021V29.625C181.032 28.0227 180.623 26.7727 179.794 25.875C178.964 24.9659 177.822 24.5114 176.368 24.5114C175.39 24.5114 174.527 24.7216 173.777 25.142C173.038 25.5625 172.459 26.1761 172.038 26.983C171.629 27.7784 171.419 28.7386 171.407 29.8636ZM194.965 45V18.8182H202.227V45H194.965ZM198.613 15.4432C197.534 15.4432 196.607 15.0852 195.835 14.3693C195.073 13.642 194.693 12.7727 194.693 11.7614C194.693 10.7614 195.073 9.90341 195.835 9.1875C196.607 8.46023 197.534 8.09659 198.613 8.09659C199.693 8.09659 200.613 8.46023 201.374 9.1875C202.147 9.90341 202.534 10.7614 202.534 11.7614C202.534 12.7727 202.147 13.642 201.374 14.3693C200.613 15.0852 199.693 15.4432 198.613 15.4432ZM216.265 29.8636V45H209.004V18.8182H215.924V23.4375H216.231C216.81 21.9148 217.782 20.7102 219.146 19.8239C220.509 18.9261 222.163 18.4773 224.106 18.4773C225.924 18.4773 227.509 18.875 228.861 19.6705C230.214 20.4659 231.265 21.6023 232.015 23.0795C232.765 24.5455 233.14 26.2955 233.14 28.3295V45H225.879V29.625C225.89 28.0227 225.481 26.7727 224.651 25.875C223.822 24.9659 222.68 24.5114 221.225 24.5114C220.248 24.5114 219.384 24.7216 218.634 25.142C217.896 25.5625 217.316 26.1761 216.896 26.983C216.486 27.7784 216.276 28.7386 216.265 29.8636ZM251.618 55.3636C249.266 55.3636 247.249 55.0398 245.567 54.392C243.897 53.7557 242.567 52.8864 241.579 51.7841C240.59 50.6818 239.948 49.4432 239.652 48.0682L246.368 47.1648C246.573 47.6875 246.897 48.1761 247.34 48.6307C247.783 49.0852 248.368 49.4489 249.096 49.7216C249.834 50.0057 250.732 50.1477 251.789 50.1477C253.368 50.1477 254.669 49.7614 255.692 48.9886C256.726 48.2273 257.243 46.9489 257.243 45.1534V40.3636H256.937C256.618 41.0909 256.141 41.7784 255.505 42.4261C254.868 43.0739 254.05 43.6023 253.05 44.0114C252.05 44.4205 250.857 44.625 249.471 44.625C247.505 44.625 245.715 44.1705 244.101 43.2614C242.499 42.3409 241.221 40.9375 240.266 39.0511C239.323 37.1534 238.851 34.7557 238.851 31.858C238.851 28.892 239.334 26.4148 240.3 24.4261C241.266 22.4375 242.55 20.9489 244.152 19.9602C245.766 18.9716 247.533 18.4773 249.454 18.4773C250.919 18.4773 252.147 18.7273 253.135 19.2273C254.124 19.7159 254.919 20.3295 255.522 21.0682C256.135 21.7955 256.607 22.5114 256.937 23.2159H257.209V18.8182H264.419V45.2557C264.419 47.483 263.874 49.3466 262.783 50.8466C261.692 52.3466 260.181 53.4716 258.249 54.2216C256.329 54.983 254.118 55.3636 251.618 55.3636ZM251.772 39.1705C252.942 39.1705 253.931 38.8807 254.738 38.3011C255.556 37.7102 256.181 36.8693 256.613 35.7784C257.056 34.6761 257.277 33.358 257.277 31.8239C257.277 30.2898 257.062 28.9602 256.63 27.8352C256.198 26.6989 255.573 25.8182 254.755 25.1932C253.937 24.5682 252.942 24.2557 251.772 24.2557C250.579 24.2557 249.573 24.5795 248.755 25.2273C247.937 25.8636 247.317 26.75 246.897 27.8864C246.476 29.0227 246.266 30.3352 246.266 31.8239C246.266 33.3352 246.476 34.642 246.897 35.7443C247.329 36.8352 247.948 37.6818 248.755 38.2841C249.573 38.875 250.579 39.1705 251.772 39.1705Z" fill="#D9D9D9"/>
<path d="M1.788 75.7475V74.0909H10.4918V75.7475H7.12003V85H5.1598V75.7475H1.788ZM14.3128 80.206V85H12.3845V74.0909H14.2702V78.2085H14.3661C14.5578 77.7468 14.8543 77.3828 15.2556 77.1165C15.6604 76.8466 16.1754 76.7116 16.8004 76.7116C17.3685 76.7116 17.8639 76.8306 18.2865 77.0685C18.7091 77.3065 19.0358 77.6545 19.2666 78.1126C19.501 78.5707 19.6182 79.13 19.6182 79.7905V85H17.6899V80.0888C17.6899 79.5384 17.5479 79.1104 17.2638 78.805C16.9832 78.4961 16.5891 78.3416 16.0813 78.3416C15.7403 78.3416 15.4349 78.4162 15.1651 78.5653C14.8987 78.7109 14.6892 78.9222 14.5365 79.1992C14.3874 79.4762 14.3128 79.8118 14.3128 80.206ZM25.5059 85.1598C24.6856 85.1598 23.9771 84.9893 23.3805 84.6484C22.7875 84.304 22.3312 83.8175 22.0116 83.1889C21.692 82.5568 21.5322 81.8129 21.5322 80.957C21.5322 80.1154 21.692 79.3768 22.0116 78.7411C22.3347 78.1019 22.7857 77.6048 23.3646 77.2496C23.9434 76.891 24.6234 76.7116 25.4047 76.7116C25.9089 76.7116 26.3848 76.7933 26.8322 76.9567C27.2832 77.1165 27.681 77.3651 28.0254 77.7024C28.3734 78.0398 28.6469 78.4695 28.8457 78.9915C29.0446 79.5099 29.144 80.1278 29.144 80.8452V81.4364H22.4377V80.1367H27.2957C27.2921 79.7674 27.2122 79.4389 27.056 79.1513C26.8997 78.8601 26.6813 78.631 26.4008 78.4641C26.1238 78.2972 25.8006 78.2138 25.4313 78.2138C25.0371 78.2138 24.6909 78.3097 24.3926 78.5014C24.0943 78.6896 23.8617 78.9382 23.6948 79.2472C23.5315 79.5526 23.448 79.8881 23.4445 80.2539V81.3885C23.4445 81.8643 23.5315 82.2727 23.7055 82.6136C23.8795 82.951 24.1227 83.2102 24.4352 83.3913C24.7477 83.5689 25.1135 83.6577 25.5325 83.6577C25.8131 83.6577 26.067 83.6186 26.2942 83.5405C26.5215 83.4588 26.7186 83.3398 26.8855 83.1836C27.0524 83.0273 27.1785 82.8338 27.2637 82.603L29.0641 82.8054C28.9505 83.2812 28.7339 83.6967 28.4143 84.0518C28.0982 84.4034 27.6934 84.6768 27.1998 84.8722C26.7062 85.0639 26.1415 85.1598 25.5059 85.1598ZM35.1813 74.0909H37.5996L40.8382 81.9957H40.9661L44.2047 74.0909H46.623V85H44.7267V77.5053H44.6255L41.6106 84.968H40.1937L37.1788 77.4893H37.0776V85H35.1813V74.0909ZM52.5587 85.1598C51.7597 85.1598 51.0672 84.984 50.4813 84.6325C49.8953 84.2809 49.4408 83.7891 49.1176 83.157C48.798 82.5249 48.6382 81.7862 48.6382 80.9411C48.6382 80.0959 48.798 79.3555 49.1176 78.7198C49.4408 78.0842 49.8953 77.5906 50.4813 77.239C51.0672 76.8874 51.7597 76.7116 52.5587 76.7116C53.3577 76.7116 54.0502 76.8874 54.6361 77.239C55.222 77.5906 55.6748 78.0842 55.9944 78.7198C56.3176 79.3555 56.4791 80.0959 56.4791 80.9411C56.4791 81.7862 56.3176 82.5249 55.9944 83.157C55.6748 83.7891 55.222 84.2809 54.6361 84.6325C54.0502 84.984 53.3577 85.1598 52.5587 85.1598ZM52.5693 83.6151C53.0026 83.6151 53.3648 83.4961 53.656 83.2582C53.9472 83.0167 54.1638 82.6935 54.3058 82.2887C54.4514 81.8839 54.5242 81.4329 54.5242 80.9357C54.5242 80.435 54.4514 79.9822 54.3058 79.5774C54.1638 79.169 53.9472 78.8441 53.656 78.6026C53.3648 78.3612 53.0026 78.2404 52.5693 78.2404C52.1254 78.2404 51.7561 78.3612 51.4614 78.6026C51.1702 78.8441 50.9518 79.169 50.8062 79.5774C50.6642 79.9822 50.5931 80.435 50.5931 80.9357C50.5931 81.4329 50.6642 81.8839 50.8062 82.2887C50.9518 82.6935 51.1702 83.0167 51.4614 83.2582C51.7561 83.4961 52.1254 83.6151 52.5693 83.6151ZM64.8824 78.9808L63.1246 79.1726C63.0749 78.995 62.9879 78.8281 62.8636 78.6719C62.7428 78.5156 62.5795 78.3896 62.3735 78.2937C62.1675 78.1978 61.9154 78.1499 61.6171 78.1499C61.2158 78.1499 60.8785 78.2369 60.605 78.4109C60.3352 78.5849 60.202 78.8104 60.2055 79.0874C60.202 79.3253 60.289 79.5188 60.4665 79.668C60.6477 79.8171 60.946 79.9396 61.3614 80.0355L62.757 80.3338C63.5312 80.5007 64.1065 80.7653 64.4829 81.1275C64.8629 81.4897 65.0546 81.9638 65.0582 82.5497C65.0546 83.0646 64.9037 83.5192 64.6054 83.9134C64.3107 84.304 63.9005 84.6094 63.3749 84.8295C62.8494 85.0497 62.2457 85.1598 61.5638 85.1598C60.5624 85.1598 59.7563 84.9503 59.1455 84.5312C58.5347 84.1087 58.1707 83.521 58.0536 82.7681L59.9339 82.587C60.0191 82.9563 60.2002 83.2351 60.4772 83.4233C60.7542 83.6115 61.1146 83.7056 61.5585 83.7056C62.0166 83.7056 62.3842 83.6115 62.6612 83.4233C62.9417 83.2351 63.082 83.0025 63.082 82.7255C63.082 82.4911 62.9914 82.2976 62.8103 82.1449C62.6327 81.9922 62.3558 81.875 61.9793 81.7933L60.5837 81.5004C59.7989 81.337 59.2183 81.0618 58.8419 80.6747C58.4655 80.2841 58.279 79.7905 58.2826 79.1939C58.279 78.6896 58.4158 78.2528 58.6928 77.8835C58.9733 77.5107 59.3621 77.223 59.8593 77.0206C60.36 76.8146 60.9371 76.7116 61.5905 76.7116C62.5493 76.7116 63.3039 76.9158 63.8543 77.3242C64.4083 77.7326 64.751 78.2848 64.8824 78.9808ZM71.0338 76.8182V78.3097H66.3303V76.8182H71.0338ZM67.4915 74.858H69.4198V82.5391C69.4198 82.7983 69.4588 82.9972 69.537 83.1357C69.6186 83.2706 69.7252 83.3629 69.8566 83.4126C69.988 83.4624 70.1336 83.4872 70.2934 83.4872C70.4141 83.4872 70.5242 83.4783 70.6236 83.4606C70.7266 83.4428 70.8047 83.4268 70.858 83.4126L71.1829 84.9201C71.0799 84.9556 70.9326 84.9947 70.7408 85.0373C70.5526 85.0799 70.3218 85.1048 70.0483 85.1119C69.5654 85.1261 69.1304 85.0533 68.7433 84.8935C68.3562 84.7301 68.049 84.478 67.8218 84.1371C67.598 83.7962 67.488 83.37 67.4915 82.8587V74.858ZM86.3901 77.7717H84.3979C84.3411 77.445 84.2363 77.1555 84.0836 76.9034C83.9309 76.6477 83.7409 76.4311 83.5137 76.2536C83.2864 76.076 83.0271 75.9428 82.736 75.854C82.4483 75.7617 82.1376 75.7156 81.8038 75.7156C81.2107 75.7156 80.6852 75.8647 80.2271 76.163C79.769 76.4577 79.4103 76.891 79.1511 77.4627C78.8918 78.0309 78.7622 78.7251 78.7622 79.5455C78.7622 80.38 78.8918 81.0831 79.1511 81.6548C79.4139 82.223 79.7725 82.6527 80.2271 82.9439C80.6852 83.2315 81.209 83.3754 81.7985 83.3754C82.1252 83.3754 82.4306 83.3327 82.7146 83.2475C83.0023 83.1587 83.2597 83.0291 83.487 82.8587C83.7178 82.6882 83.9114 82.4787 84.0676 82.2301C84.2274 81.9815 84.3375 81.6974 84.3979 81.3778L86.3901 81.3885C86.3155 81.907 86.1539 82.3935 85.9053 82.848C85.6603 83.3026 85.3389 83.7038 84.9412 84.0518C84.5435 84.3963 84.0783 84.6662 83.5456 84.8615C83.0129 85.0533 82.4217 85.1491 81.7718 85.1491C80.813 85.1491 79.9572 84.9272 79.2043 84.4833C78.4515 84.0394 77.8585 83.3984 77.4252 82.5604C76.992 81.7223 76.7754 80.7173 76.7754 79.5455C76.7754 78.37 76.9938 77.3651 77.4306 76.5305C77.8673 75.6925 78.4622 75.0515 79.215 74.6076C79.9678 74.1637 80.8201 73.9418 81.7718 73.9418C82.3791 73.9418 82.9437 74.027 83.4657 74.1974C83.9877 74.3679 84.4529 74.6183 84.8613 74.9485C85.2697 75.2752 85.6053 75.6765 85.8681 76.1523C86.1344 76.6246 86.3084 77.1644 86.3901 77.7717ZM91.9835 85.1598C91.1845 85.1598 90.492 84.984 89.9061 84.6325C89.3201 84.2809 88.8656 83.7891 88.5424 83.157C88.2228 82.5249 88.063 81.7862 88.063 80.9411C88.063 80.0959 88.2228 79.3555 88.5424 78.7198C88.8656 78.0842 89.3201 77.5906 89.9061 77.239C90.492 76.8874 91.1845 76.7116 91.9835 76.7116C92.7825 76.7116 93.475 76.8874 94.0609 77.239C94.6468 77.5906 95.0996 78.0842 95.4192 78.7198C95.7424 79.3555 95.9039 80.0959 95.9039 80.9411C95.9039 81.7862 95.7424 82.5249 95.4192 83.157C95.0996 83.7891 94.6468 84.2809 94.0609 84.6325C93.475 84.984 92.7825 85.1598 91.9835 85.1598ZM91.9941 83.6151C92.4274 83.6151 92.7896 83.4961 93.0808 83.2582C93.372 83.0167 93.5886 82.6935 93.7306 82.2887C93.8762 81.8839 93.949 81.4329 93.949 80.9357C93.949 80.435 93.8762 79.9822 93.7306 79.5774C93.5886 79.169 93.372 78.8441 93.0808 78.6026C92.7896 78.3612 92.4274 78.2404 91.9941 78.2404C91.5502 78.2404 91.1809 78.3612 90.8862 78.6026C90.595 78.8441 90.3766 79.169 90.231 79.5774C90.089 79.9822 90.0179 80.435 90.0179 80.9357C90.0179 81.4329 90.089 81.8839 90.231 82.2887C90.3766 82.6935 90.595 83.0167 90.8862 83.2582C91.1809 83.4961 91.5502 83.6151 91.9941 83.6151ZM97.8406 85V76.8182H99.6836V78.2085H99.7795C99.9499 77.7397 100.232 77.3739 100.626 77.1112C101.021 76.8448 101.491 76.7116 102.038 76.7116C102.592 76.7116 103.059 76.8466 103.439 77.1165C103.822 77.3828 104.092 77.7468 104.249 78.2085H104.334C104.515 77.7539 104.82 77.3917 105.25 77.1218C105.683 76.8484 106.196 76.7116 106.789 76.7116C107.542 76.7116 108.157 76.9496 108.632 77.4254C109.108 77.9013 109.346 78.5955 109.346 79.5082V85H107.413V79.8065C107.413 79.2987 107.278 78.9276 107.008 78.6932C106.738 78.4553 106.408 78.3363 106.017 78.3363C105.552 78.3363 105.188 78.4819 104.925 78.7731C104.666 79.0607 104.536 79.4354 104.536 79.897V85H102.645V79.7266C102.645 79.304 102.517 78.9666 102.262 78.7145C102.01 78.4624 101.679 78.3363 101.271 78.3363C100.994 78.3363 100.742 78.4073 100.515 78.5494C100.287 78.6879 100.106 78.8849 99.9713 79.1406C99.8363 79.3928 99.7688 79.6875 99.7688 80.0249V85H97.8406ZM111.602 88.0682V76.8182H113.499V78.1712H113.611C113.71 77.9723 113.85 77.761 114.031 77.5373C114.213 77.31 114.458 77.1165 114.767 76.9567C115.075 76.7933 115.47 76.7116 115.949 76.7116C116.581 76.7116 117.151 76.8732 117.659 77.1964C118.17 77.516 118.575 77.9901 118.873 78.6186C119.175 79.2436 119.326 80.0107 119.326 80.9197C119.326 81.8182 119.179 82.5817 118.884 83.2102C118.589 83.8388 118.188 84.3182 117.68 84.6484C117.172 84.9787 116.597 85.1438 115.954 85.1438C115.486 85.1438 115.097 85.0657 114.788 84.9094C114.479 84.7532 114.23 84.565 114.042 84.3448C113.857 84.1211 113.714 83.9098 113.611 83.7109H113.531V88.0682H111.602ZM113.493 80.9091C113.493 81.4382 113.568 81.9016 113.717 82.2994C113.87 82.6971 114.088 83.0078 114.372 83.2315C114.66 83.4517 115.008 83.5618 115.416 83.5618C115.843 83.5618 116.199 83.4482 116.487 83.2209C116.775 82.9901 116.991 82.6758 117.137 82.2781C117.286 81.8768 117.361 81.4205 117.361 80.9091C117.361 80.4013 117.288 79.9503 117.142 79.5561C116.997 79.1619 116.78 78.853 116.492 78.6293C116.205 78.4055 115.846 78.2937 115.416 78.2937C115.004 78.2937 114.655 78.402 114.367 78.6186C114.079 78.8352 113.861 79.1388 113.712 79.5295C113.566 79.9201 113.493 80.38 113.493 80.9091ZM123.206 74.0909V85H121.277V74.0909H123.206ZM129.111 85.1598C128.29 85.1598 127.582 84.9893 126.985 84.6484C126.392 84.304 125.936 83.8175 125.616 83.1889C125.297 82.5568 125.137 81.8129 125.137 80.957C125.137 80.1154 125.297 79.3768 125.616 78.7411C125.94 78.1019 126.391 77.6048 126.969 77.2496C127.548 76.891 128.228 76.7116 129.01 76.7116C129.514 76.7116 129.99 76.7933 130.437 76.9567C130.888 77.1165 131.286 77.3651 131.63 77.7024C131.978 78.0398 132.252 78.4695 132.451 78.9915C132.649 79.5099 132.749 80.1278 132.749 80.8452V81.4364H126.043V80.1367H130.901C130.897 79.7674 130.817 79.4389 130.661 79.1513C130.505 78.8601 130.286 78.631 130.006 78.4641C129.729 78.2972 129.406 78.2138 129.036 78.2138C128.642 78.2138 128.296 78.3097 127.997 78.5014C127.699 78.6896 127.467 78.9382 127.3 79.2472C127.136 79.5526 127.053 79.8881 127.049 80.2539V81.3885C127.049 81.8643 127.136 82.2727 127.31 82.6136C127.484 82.951 127.728 83.2102 128.04 83.3913C128.353 83.5689 128.718 83.6577 129.137 83.6577C129.418 83.6577 129.672 83.6186 129.899 83.5405C130.126 83.4588 130.323 83.3398 130.49 83.1836C130.657 83.0273 130.783 82.8338 130.869 82.603L132.669 82.8054C132.555 83.2812 132.339 83.6967 132.019 84.0518C131.703 84.4034 131.298 84.6768 130.805 84.8722C130.311 85.0639 129.746 85.1598 129.111 85.1598ZM138.766 76.8182V78.3097H134.062V76.8182H138.766ZM135.224 74.858H137.152V82.5391C137.152 82.7983 137.191 82.9972 137.269 83.1357C137.351 83.2706 137.457 83.3629 137.589 83.4126C137.72 83.4624 137.866 83.4872 138.025 83.4872C138.146 83.4872 138.256 83.4783 138.356 83.4606C138.459 83.4428 138.537 83.4268 138.59 83.4126L138.915 84.9201C138.812 84.9556 138.665 84.9947 138.473 85.0373C138.285 85.0799 138.054 85.1048 137.78 85.1119C137.297 85.1261 136.862 85.0533 136.475 84.8935C136.088 84.7301 135.781 84.478 135.554 84.1371C135.33 83.7962 135.22 83.37 135.224 82.8587V74.858ZM144.213 85.1598C143.392 85.1598 142.684 84.9893 142.087 84.6484C141.494 84.304 141.038 83.8175 140.718 83.1889C140.399 82.5568 140.239 81.8129 140.239 80.957C140.239 80.1154 140.399 79.3768 140.718 78.7411C141.042 78.1019 141.493 77.6048 142.071 77.2496C142.65 76.891 143.33 76.7116 144.112 76.7116C144.616 76.7116 145.092 76.7933 145.539 76.9567C145.99 77.1165 146.388 77.3651 146.732 77.7024C147.08 78.0398 147.354 78.4695 147.553 78.9915C147.751 79.5099 147.851 80.1278 147.851 80.8452V81.4364H141.145V80.1367H146.003C145.999 79.7674 145.919 79.4389 145.763 79.1513C145.607 78.8601 145.388 78.631 145.108 78.4641C144.831 78.2972 144.507 78.2138 144.138 78.2138C143.744 78.2138 143.398 78.3097 143.099 78.5014C142.801 78.6896 142.569 78.9382 142.402 79.2472C142.238 79.5526 142.155 79.8881 142.151 80.2539V81.3885C142.151 81.8643 142.238 82.2727 142.412 82.6136C142.586 82.951 142.83 83.2102 143.142 83.3913C143.455 83.5689 143.82 83.6577 144.239 83.6577C144.52 83.6577 144.774 83.6186 145.001 83.5405C145.228 83.4588 145.425 83.3398 145.592 83.1836C145.759 83.0273 145.885 82.8338 145.971 82.603L147.771 82.8054C147.657 83.2812 147.441 83.6967 147.121 84.0518C146.805 84.4034 146.4 84.6768 145.907 84.8722C145.413 85.0639 144.848 85.1598 144.213 85.1598ZM153.888 85V74.0909H160.983V75.7475H155.864V78.7092H160.616V80.3658H155.864V83.3434H161.026V85H153.888ZM168.173 79.6626V81.25H163.262V79.6626H168.173ZM172.43 74.0909V85H170.502V74.0909H172.43ZM178.335 85.1598C177.514 85.1598 176.806 84.9893 176.209 84.6484C175.616 84.304 175.16 83.8175 174.84 83.1889C174.521 82.5568 174.361 81.8129 174.361 80.957C174.361 80.1154 174.521 79.3768 174.84 78.7411C175.164 78.1019 175.615 77.6048 176.193 77.2496C176.772 76.891 177.452 76.7116 178.234 76.7116C178.738 76.7116 179.214 76.7933 179.661 76.9567C180.112 77.1165 180.51 77.3651 180.854 77.7024C181.202 78.0398 181.476 78.4695 181.675 78.9915C181.874 79.5099 181.973 80.1278 181.973 80.8452V81.4364H175.267V80.1367H180.125C180.121 79.7674 180.041 79.4389 179.885 79.1513C179.729 78.8601 179.51 78.631 179.23 78.4641C178.953 78.2972 178.63 78.2138 178.26 78.2138C177.866 78.2138 177.52 78.3097 177.222 78.5014C176.923 78.6896 176.691 78.9382 176.524 79.2472C176.36 79.5526 176.277 79.8881 176.273 80.2539V81.3885C176.273 81.8643 176.36 82.2727 176.534 82.6136C176.708 82.951 176.952 83.2102 177.264 83.3913C177.577 83.5689 177.942 83.6577 178.361 83.6577C178.642 83.6577 178.896 83.6186 179.123 83.5405C179.35 83.4588 179.548 83.3398 179.714 83.1836C179.881 83.0273 180.007 82.8338 180.093 82.603L181.893 82.8054C181.779 83.2812 181.563 83.6967 181.243 84.0518C180.927 84.4034 180.522 84.6768 180.029 84.8722C179.535 85.0639 178.97 85.1598 178.335 85.1598ZM186.259 85.1651C185.74 85.1651 185.273 85.0728 184.858 84.8881C184.446 84.6999 184.119 84.4229 183.878 84.0572C183.64 83.6914 183.521 83.2404 183.521 82.7042C183.521 82.2425 183.606 81.8608 183.776 81.5589C183.947 81.2571 184.179 81.0156 184.474 80.8345C184.769 80.6534 185.101 80.5167 185.47 80.4244C185.843 80.3285 186.228 80.2592 186.626 80.2166C187.106 80.1669 187.494 80.1225 187.793 80.0835C188.091 80.0408 188.308 79.9769 188.443 79.8917C188.581 79.8029 188.65 79.6662 188.65 79.4815V79.4496C188.65 79.0483 188.531 78.7376 188.293 78.5174C188.056 78.2972 187.713 78.1871 187.265 78.1871C186.793 78.1871 186.418 78.2901 186.141 78.4961C185.868 78.7021 185.683 78.9453 185.587 79.2259L183.787 78.9702C183.929 78.473 184.163 78.0575 184.49 77.7237C184.817 77.3864 185.216 77.1342 185.689 76.9673C186.161 76.7969 186.683 76.7116 187.255 76.7116C187.649 76.7116 188.041 76.7578 188.432 76.8501C188.823 76.9425 189.179 77.0952 189.503 77.3082C189.826 77.5178 190.085 77.8036 190.28 78.1658C190.479 78.5281 190.579 78.9808 190.579 79.5241V85H188.725V83.8761H188.661C188.544 84.1033 188.379 84.3164 188.166 84.5153C187.956 84.7106 187.692 84.8686 187.372 84.9893C187.056 85.1065 186.685 85.1651 186.259 85.1651ZM186.759 83.7482C187.146 83.7482 187.482 83.6719 187.766 83.5192C188.05 83.3629 188.269 83.157 188.421 82.9013C188.578 82.6456 188.656 82.3668 188.656 82.065V81.1009C188.595 81.1506 188.492 81.1967 188.347 81.2393C188.205 81.282 188.045 81.3192 187.867 81.3512C187.69 81.3832 187.514 81.4116 187.34 81.4364C187.166 81.4613 187.015 81.4826 186.887 81.5004C186.6 81.5394 186.342 81.6033 186.115 81.6921C185.888 81.7809 185.708 81.9052 185.577 82.065C185.445 82.2212 185.38 82.4237 185.38 82.6722C185.38 83.0273 185.509 83.2955 185.769 83.4766C186.028 83.6577 186.358 83.7482 186.759 83.7482ZM192.818 85V76.8182H194.687V78.1818H194.772C194.922 77.7095 195.177 77.3455 195.539 77.0898C195.905 76.8306 196.322 76.701 196.791 76.701C196.898 76.701 197.017 76.7063 197.148 76.717C197.283 76.7241 197.395 76.7365 197.484 76.7543V78.5281C197.402 78.4996 197.272 78.4748 197.095 78.4535C196.921 78.4286 196.752 78.4162 196.589 78.4162C196.237 78.4162 195.921 78.4925 195.641 78.6452C195.364 78.7944 195.145 79.0021 194.985 79.2685C194.826 79.5348 194.746 79.842 194.746 80.19V85H192.818ZM200.993 80.206V85H199.065V76.8182H200.908V78.2085H201.004C201.192 77.7504 201.492 77.3864 201.904 77.1165C202.319 76.8466 202.833 76.7116 203.443 76.7116C204.008 76.7116 204.5 76.8324 204.919 77.0739C205.341 77.3153 205.668 77.6651 205.899 78.1232C206.133 78.5813 206.249 79.1371 206.245 79.7905V85H204.317V80.0888C204.317 79.5419 204.175 79.114 203.891 78.805C203.61 78.4961 203.221 78.3416 202.724 78.3416C202.387 78.3416 202.087 78.4162 201.824 78.5653C201.565 78.7109 201.361 78.9222 201.211 79.1992C201.066 79.4762 200.993 79.8118 200.993 80.206ZM208.505 85V76.8182H210.434V85H208.505ZM209.475 75.657C209.169 75.657 208.907 75.5558 208.687 75.3533C208.466 75.1474 208.356 74.9006 208.356 74.6129C208.356 74.3217 208.466 74.0749 208.687 73.8725C208.907 73.6665 209.169 73.5636 209.475 73.5636C209.784 73.5636 210.047 73.6665 210.263 73.8725C210.483 74.0749 210.593 74.3217 210.593 74.6129C210.593 74.9006 210.483 75.1474 210.263 75.3533C210.047 75.5558 209.784 75.657 209.475 75.657ZM214.645 80.206V85H212.717V76.8182H214.56V78.2085H214.655C214.844 77.7504 215.144 77.3864 215.556 77.1165C215.971 76.8466 216.484 76.7116 217.095 76.7116C217.66 76.7116 218.152 76.8324 218.571 77.0739C218.993 77.3153 219.32 77.6651 219.551 78.1232C219.785 78.5813 219.901 79.1371 219.897 79.7905V85H217.969V80.0888C217.969 79.5419 217.827 79.114 217.543 78.805C217.262 78.4961 216.873 78.3416 216.376 78.3416C216.039 78.3416 215.739 78.4162 215.476 78.5653C215.217 78.7109 215.012 78.9222 214.863 79.1992C214.718 79.4762 214.645 79.8118 214.645 80.206ZM225.715 88.2386C225.023 88.2386 224.428 88.1445 223.931 87.9563C223.434 87.7717 223.034 87.5231 222.732 87.2106C222.431 86.8981 222.221 86.5518 222.104 86.1719L223.84 85.7511C223.919 85.9109 224.032 86.0689 224.181 86.2251C224.33 86.3849 224.531 86.5163 224.783 86.6193C225.039 86.7259 225.36 86.7791 225.747 86.7791C226.294 86.7791 226.747 86.646 227.106 86.3796C227.464 86.1168 227.644 85.6836 227.644 85.0799V83.5298H227.548C227.448 83.7287 227.303 83.9329 227.111 84.1424C226.923 84.3519 226.672 84.5277 226.36 84.6697C226.051 84.8118 225.662 84.8828 225.193 84.8828C224.565 84.8828 223.995 84.7354 223.484 84.4407C222.976 84.1424 222.571 83.6985 222.269 83.109C221.971 82.516 221.822 81.7738 221.822 80.8825C221.822 79.984 221.971 79.2259 222.269 78.608C222.571 77.9865 222.977 77.516 223.489 77.1964C224 76.8732 224.57 76.7116 225.199 76.7116C225.678 76.7116 226.072 76.7933 226.381 76.9567C226.694 77.1165 226.942 77.31 227.127 77.5373C227.312 77.761 227.452 77.9723 227.548 78.1712H227.654V76.8182H229.556V85.1332C229.556 85.8327 229.389 86.4116 229.055 86.8697C228.721 87.3278 228.265 87.6705 227.686 87.8977C227.107 88.125 226.451 88.2386 225.715 88.2386ZM225.731 83.37C226.14 83.37 226.488 83.2706 226.775 83.0717C227.063 82.8729 227.281 82.587 227.431 82.2141C227.58 81.8413 227.654 81.3938 227.654 80.8718C227.654 80.3569 227.58 79.9059 227.431 79.5188C227.285 79.1317 227.068 78.8317 226.781 78.6186C226.497 78.402 226.147 78.2937 225.731 78.2937C225.302 78.2937 224.943 78.4055 224.655 78.6293C224.368 78.853 224.151 79.1602 224.006 79.5508C223.86 79.9379 223.787 80.3782 223.787 80.8718C223.787 81.3725 223.86 81.8111 224.006 82.1875C224.155 82.5604 224.373 82.8516 224.661 83.0611C224.952 83.267 225.309 83.37 225.731 83.37ZM235.938 85V74.0909H240.029C240.867 74.0909 241.57 74.2472 242.138 74.5597C242.71 74.8722 243.142 75.3018 243.433 75.8487C243.728 76.392 243.875 77.0099 243.875 77.7024C243.875 78.402 243.728 79.0234 243.433 79.5668C243.138 80.1101 242.703 80.538 242.128 80.8505C241.552 81.1594 240.844 81.3139 240.002 81.3139H237.291V79.6893H239.736C240.226 79.6893 240.627 79.604 240.94 79.4336C241.252 79.2631 241.483 79.0288 241.632 78.7305C241.785 78.4322 241.861 78.0895 241.861 77.7024C241.861 77.3153 241.785 76.9744 241.632 76.6797C241.483 76.3849 241.251 76.1559 240.935 75.9925C240.622 75.8256 240.219 75.7422 239.725 75.7422H237.914V85H235.938ZM247.734 74.0909V85H245.806V74.0909H247.734ZM252.372 85.1651C251.853 85.1651 251.386 85.0728 250.971 84.8881C250.559 84.6999 250.232 84.4229 249.991 84.0572C249.753 83.6914 249.634 83.2404 249.634 82.7042C249.634 82.2425 249.719 81.8608 249.889 81.5589C250.06 81.2571 250.293 81.0156 250.587 80.8345C250.882 80.6534 251.214 80.5167 251.583 80.4244C251.956 80.3285 252.342 80.2592 252.739 80.2166C253.219 80.1669 253.608 80.1225 253.906 80.0835C254.204 80.0408 254.421 79.9769 254.556 79.8917C254.694 79.8029 254.763 79.6662 254.763 79.4815V79.4496C254.763 79.0483 254.644 78.7376 254.407 78.5174C254.169 78.2972 253.826 78.1871 253.378 78.1871C252.906 78.1871 252.532 78.2901 252.255 78.4961C251.981 78.7021 251.796 78.9453 251.701 79.2259L249.9 78.9702C250.042 78.473 250.277 78.0575 250.603 77.7237C250.93 77.3864 251.329 77.1342 251.802 76.9673C252.274 76.7969 252.796 76.7116 253.368 76.7116C253.762 76.7116 254.154 76.7578 254.545 76.8501C254.936 76.9425 255.293 77.0952 255.616 77.3082C255.939 77.5178 256.198 77.8036 256.393 78.1658C256.592 78.5281 256.692 78.9808 256.692 79.5241V85H254.838V83.8761H254.774C254.657 84.1033 254.492 84.3164 254.279 84.5153C254.069 84.7106 253.805 84.8686 253.485 84.9893C253.169 85.1065 252.798 85.1651 252.372 85.1651ZM252.872 83.7482C253.26 83.7482 253.595 83.6719 253.879 83.5192C254.163 83.3629 254.382 83.157 254.534 82.9013C254.691 82.6456 254.769 82.3668 254.769 82.065V81.1009C254.708 81.1506 254.605 81.1967 254.46 81.2393C254.318 81.282 254.158 81.3192 253.98 81.3512C253.803 81.3832 253.627 81.4116 253.453 81.4364C253.279 81.4613 253.128 81.4826 253 81.5004C252.713 81.5394 252.455 81.6033 252.228 81.6921C252.001 81.7809 251.821 81.9052 251.69 82.065C251.559 82.2212 251.493 82.4237 251.493 82.6722C251.493 83.0273 251.622 83.2955 251.882 83.4766C252.141 83.6577 252.471 83.7482 252.872 83.7482ZM263.016 76.8182V78.3097H258.313V76.8182H263.016ZM259.474 74.858H261.402V82.5391C261.402 82.7983 261.441 82.9972 261.519 83.1357C261.601 83.2706 261.708 83.3629 261.839 83.4126C261.97 83.4624 262.116 83.4872 262.276 83.4872C262.397 83.4872 262.507 83.4783 262.606 83.4606C262.709 83.4428 262.787 83.4268 262.84 83.4126L263.165 84.9201C263.062 84.9556 262.915 84.9947 262.723 85.0373C262.535 85.0799 262.304 85.1048 262.031 85.1119C261.548 85.1261 261.113 85.0533 260.726 84.8935C260.339 84.7301 260.031 84.478 259.804 84.1371C259.58 83.7962 259.47 83.37 259.474 82.8587V74.858ZM269.073 76.8182V78.3097H264.236V76.8182H269.073ZM265.446 85V76.0458C265.446 75.4954 265.559 75.0373 265.786 74.6715C266.017 74.3058 266.326 74.0323 266.713 73.8512C267.1 73.6701 267.53 73.5795 268.002 73.5795C268.336 73.5795 268.633 73.6062 268.892 73.6594C269.151 73.7127 269.343 73.7607 269.467 73.8033L269.084 75.2947C269.002 75.2699 268.899 75.245 268.775 75.2202C268.65 75.1918 268.512 75.1776 268.359 75.1776C268.001 75.1776 267.747 75.2646 267.598 75.4386C267.452 75.609 267.379 75.854 267.379 76.1737V85H265.446ZM274.144 85.1598C273.345 85.1598 272.653 84.984 272.067 84.6325C271.481 84.2809 271.027 83.7891 270.703 83.157C270.384 82.5249 270.224 81.7862 270.224 80.9411C270.224 80.0959 270.384 79.3555 270.703 78.7198C271.027 78.0842 271.481 77.5906 272.067 77.239C272.653 76.8874 273.345 76.7116 274.144 76.7116C274.943 76.7116 275.636 76.8874 276.222 77.239C276.808 77.5906 277.261 78.0842 277.58 78.7198C277.903 79.3555 278.065 80.0959 278.065 80.9411C278.065 81.7862 277.903 82.5249 277.58 83.157C277.261 83.7891 276.808 84.2809 276.222 84.6325C275.636 84.984 274.943 85.1598 274.144 85.1598ZM274.155 83.6151C274.588 83.6151 274.951 83.4961 275.242 83.2582C275.533 83.0167 275.75 82.6935 275.892 82.2887C276.037 81.8839 276.11 81.4329 276.11 80.9357C276.11 80.435 276.037 79.9822 275.892 79.5774C275.75 79.169 275.533 78.8441 275.242 78.6026C274.951 78.3612 274.588 78.2404 274.155 78.2404C273.711 78.2404 273.342 78.3612 273.047 78.6026C272.756 78.8441 272.538 79.169 272.392 79.5774C272.25 79.9822 272.179 80.435 272.179 80.9357C272.179 81.4329 272.25 81.8839 272.392 82.2887C272.538 82.6935 272.756 83.0167 273.047 83.2582C273.342 83.4961 273.711 83.6151 274.155 83.6151ZM280.002 85V76.8182H281.871V78.1818H281.956C282.106 77.7095 282.361 77.3455 282.723 77.0898C283.089 76.8306 283.506 76.701 283.975 76.701C284.082 76.701 284.201 76.7063 284.332 76.717C284.467 76.7241 284.579 76.7365 284.668 76.7543V78.5281C284.586 78.4996 284.456 78.4748 284.279 78.4535C284.105 78.4286 283.936 78.4162 283.773 78.4162C283.421 78.4162 283.105 78.4925 282.825 78.6452C282.548 78.7944 282.329 79.0021 282.169 79.2685C282.01 79.5348 281.93 79.842 281.93 80.19V85H280.002ZM286.249 85V76.8182H288.092V78.2085H288.188C288.358 77.7397 288.64 77.3739 289.035 77.1112C289.429 76.8448 289.899 76.7116 290.446 76.7116C291 76.7116 291.467 76.8466 291.847 77.1165C292.231 77.3828 292.501 77.7468 292.657 78.2085H292.742C292.923 77.7539 293.229 77.3917 293.658 77.1218C294.091 76.8484 294.605 76.7116 295.198 76.7116C295.95 76.7116 296.565 76.9496 297.041 77.4254C297.517 77.9013 297.754 78.5955 297.754 79.5082V85H295.821V79.8065C295.821 79.2987 295.686 78.9276 295.416 78.6932C295.146 78.4553 294.816 78.3363 294.425 78.3363C293.96 78.3363 293.596 78.4819 293.333 78.7731C293.074 79.0607 292.944 79.4354 292.944 79.897V85H291.053V79.7266C291.053 79.304 290.926 78.9666 290.67 78.7145C290.418 78.4624 290.088 78.3363 289.679 78.3363C289.402 78.3363 289.15 78.4073 288.923 78.5494C288.695 78.6879 288.514 78.8849 288.379 79.1406C288.245 79.3928 288.177 79.6875 288.177 80.0249V85H286.249ZM305.518 85H303.408L307.249 74.0909H309.688L313.534 85H311.425L308.511 76.3281H308.426L305.518 85ZM305.587 80.7227H311.34V82.31H305.587V80.7227ZM321.469 76.8182L318.555 85H316.424L313.511 76.8182H315.567L317.447 82.896H317.532L319.418 76.8182H321.469ZM325.223 85.1651C324.705 85.1651 324.238 85.0728 323.822 84.8881C323.41 84.6999 323.084 84.4229 322.842 84.0572C322.604 83.6914 322.485 83.2404 322.485 82.7042C322.485 82.2425 322.57 81.8608 322.741 81.5589C322.911 81.2571 323.144 81.0156 323.439 80.8345C323.733 80.6534 324.065 80.5167 324.435 80.4244C324.808 80.3285 325.193 80.2592 325.591 80.2166C326.07 80.1669 326.459 80.1225 326.757 80.0835C327.055 80.0408 327.272 79.9769 327.407 79.8917C327.546 79.8029 327.615 79.6662 327.615 79.4815V79.4496C327.615 79.0483 327.496 78.7376 327.258 78.5174C327.02 78.2972 326.677 78.1871 326.23 78.1871C325.758 78.1871 325.383 78.2901 325.106 78.4961C324.832 78.7021 324.648 78.9453 324.552 79.2259L322.752 78.9702C322.894 78.473 323.128 78.0575 323.455 77.7237C323.781 77.3864 324.181 77.1342 324.653 76.9673C325.125 76.7969 325.647 76.7116 326.219 76.7116C326.613 76.7116 327.006 76.7578 327.396 76.8501C327.787 76.9425 328.144 77.0952 328.467 77.3082C328.79 77.5178 329.049 77.8036 329.245 78.1658C329.444 78.5281 329.543 78.9808 329.543 79.5241V85H327.689V83.8761H327.625C327.508 84.1033 327.343 84.3164 327.13 84.5153C326.921 84.7106 326.656 84.8686 326.336 84.9893C326.02 85.1065 325.649 85.1651 325.223 85.1651ZM325.724 83.7482C326.111 83.7482 326.446 83.6719 326.731 83.5192C327.015 83.3629 327.233 83.157 327.386 82.9013C327.542 82.6456 327.62 82.3668 327.62 82.065V81.1009C327.56 81.1506 327.457 81.1967 327.311 81.2393C327.169 81.282 327.009 81.3192 326.832 81.3512C326.654 81.3832 326.478 81.4116 326.304 81.4364C326.13 81.4613 325.979 81.4826 325.852 81.5004C325.564 81.5394 325.307 81.6033 325.079 81.6921C324.852 81.7809 324.673 81.9052 324.541 82.065C324.41 82.2212 324.344 82.4237 324.344 82.6722C324.344 83.0273 324.474 83.2955 324.733 83.4766C324.992 83.6577 325.323 83.7482 325.724 83.7482ZM331.782 85V76.8182H333.71V85H331.782ZM332.751 75.657C332.446 75.657 332.183 75.5558 331.963 75.3533C331.743 75.1474 331.633 74.9006 331.633 74.6129C331.633 74.3217 331.743 74.0749 331.963 73.8725C332.183 73.6665 332.446 73.5636 332.751 73.5636C333.06 73.5636 333.323 73.6665 333.54 73.8725C333.76 74.0749 333.87 74.3217 333.87 74.6129C333.87 74.9006 333.76 75.1474 333.54 75.3533C333.323 75.5558 333.06 75.657 332.751 75.657ZM337.921 74.0909V85H335.993V74.0909H337.921ZM342.559 85.1651C342.04 85.1651 341.573 85.0728 341.158 84.8881C340.746 84.6999 340.419 84.4229 340.178 84.0572C339.94 83.6914 339.821 83.2404 339.821 82.7042C339.821 82.2425 339.906 81.8608 340.076 81.5589C340.247 81.2571 340.479 81.0156 340.774 80.8345C341.069 80.6534 341.401 80.5167 341.77 80.4244C342.143 80.3285 342.528 80.2592 342.926 80.2166C343.406 80.1669 343.794 80.1225 344.093 80.0835C344.391 80.0408 344.608 79.9769 344.743 79.8917C344.881 79.8029 344.95 79.6662 344.95 79.4815V79.4496C344.95 79.0483 344.831 78.7376 344.593 78.5174C344.356 78.2972 344.013 78.1871 343.565 78.1871C343.093 78.1871 342.718 78.2901 342.441 78.4961C342.168 78.7021 341.983 78.9453 341.887 79.2259L340.087 78.9702C340.229 78.473 340.463 78.0575 340.79 77.7237C341.117 77.3864 341.516 77.1342 341.989 76.9673C342.461 76.7969 342.983 76.7116 343.555 76.7116C343.949 76.7116 344.341 76.7578 344.732 76.8501C345.123 76.9425 345.479 77.0952 345.803 77.3082C346.126 77.5178 346.385 77.8036 346.58 78.1658C346.779 78.5281 346.879 78.9808 346.879 79.5241V85H345.025V83.8761H344.961C344.844 84.1033 344.679 84.3164 344.466 84.5153C344.256 84.7106 343.992 84.8686 343.672 84.9893C343.356 85.1065 342.985 85.1651 342.559 85.1651ZM343.059 83.7482C343.446 83.7482 343.782 83.6719 344.066 83.5192C344.35 83.3629 344.569 83.157 344.721 82.9013C344.878 82.6456 344.956 82.3668 344.956 82.065V81.1009C344.895 81.1506 344.792 81.1967 344.647 81.2393C344.505 81.282 344.345 81.3192 344.167 81.3512C343.99 81.3832 343.814 81.4116 343.64 81.4364C343.466 81.4613 343.315 81.4826 343.187 81.5004C342.9 81.5394 342.642 81.6033 342.415 81.6921C342.188 81.7809 342.008 81.9052 341.877 82.065C341.745 82.2212 341.68 82.4237 341.68 82.6722C341.68 83.0273 341.809 83.2955 342.069 83.4766C342.328 83.6577 342.658 83.7482 343.059 83.7482ZM349.203 85V74.0909H351.131V78.1712H351.211C351.31 77.9723 351.451 77.761 351.632 77.5373C351.813 77.31 352.058 77.1165 352.367 76.9567C352.676 76.7933 353.07 76.7116 353.549 76.7116C354.181 76.7116 354.751 76.8732 355.259 77.1964C355.771 77.516 356.175 77.9901 356.474 78.6186C356.776 79.2436 356.926 80.0107 356.926 80.9197C356.926 81.8182 356.779 82.5817 356.484 83.2102C356.19 83.8388 355.788 84.3182 355.281 84.6484C354.773 84.9787 354.197 85.1438 353.555 85.1438C353.086 85.1438 352.697 85.0657 352.388 84.9094C352.079 84.7532 351.831 84.565 351.642 84.3448C351.458 84.1211 351.314 83.9098 351.211 83.7109H351.099V85H349.203ZM351.094 80.9091C351.094 81.4382 351.168 81.9016 351.317 82.2994C351.47 82.6971 351.689 83.0078 351.973 83.2315C352.26 83.4517 352.608 83.5618 353.017 83.5618C353.443 83.5618 353.8 83.4482 354.087 83.2209C354.375 82.9901 354.592 82.6758 354.737 82.2781C354.886 81.8768 354.961 81.4205 354.961 80.9091C354.961 80.4013 354.888 79.9503 354.743 79.5561C354.597 79.1619 354.38 78.853 354.093 78.6293C353.805 78.4055 353.446 78.2937 353.017 78.2937C352.605 78.2937 352.255 78.402 351.967 78.6186C351.68 78.8352 351.461 79.1388 351.312 79.5295C351.167 79.9201 351.094 80.38 351.094 80.9091ZM360.794 74.0909V85H358.866V74.0909H360.794ZM366.699 85.1598C365.879 85.1598 365.17 84.9893 364.574 84.6484C363.981 84.304 363.524 83.8175 363.205 83.1889C362.885 82.5568 362.725 81.8129 362.725 80.957C362.725 80.1154 362.885 79.3768 363.205 78.7411C363.528 78.1019 363.979 77.6048 364.558 77.2496C365.137 76.891 365.817 76.7116 366.598 76.7116C367.102 76.7116 367.578 76.7933 368.025 76.9567C368.476 77.1165 368.874 77.3651 369.219 77.7024C369.567 78.0398 369.84 78.4695 370.039 78.9915C370.238 79.5099 370.337 80.1278 370.337 80.8452V81.4364H363.631V80.1367H368.489C368.485 79.7674 368.405 79.4389 368.249 79.1513C368.093 78.8601 367.874 78.631 367.594 78.4641C367.317 78.2972 366.994 78.2138 366.624 78.2138C366.23 78.2138 365.884 78.3097 365.586 78.5014C365.287 78.6896 365.055 78.9382 364.888 79.2472C364.725 79.5526 364.641 79.8881 364.638 80.2539V81.3885C364.638 81.8643 364.725 82.2727 364.899 82.6136C365.073 82.951 365.316 83.2102 365.628 83.3913C365.941 83.5689 366.307 83.6577 366.726 83.6577C367.006 83.6577 367.26 83.6186 367.487 83.5405C367.715 83.4588 367.912 83.3398 368.079 83.1836C368.246 83.0273 368.372 82.8338 368.457 82.603L370.257 82.8054C370.144 83.2812 369.927 83.6967 369.607 84.0518C369.291 84.4034 368.887 84.6768 368.393 84.8722C367.899 85.0639 367.335 85.1598 366.699 85.1598Z" fill="#A6A6A6"/>
</svg>
