<svg width="502" height="84" viewBox="0 0 502 84" fill="none" xmlns="http://www.w3.org/2000/svg">
<path d="M53.0707 44.0518H45.1616L57.2127 9.14267H66.7241L78.7582 44.0518H70.8491L62.1048 17.1199H61.832L53.0707 44.0518ZM52.5763 30.3302H71.2582V36.0915H52.5763V30.3302ZM90.3406 9.14267V44.0518H82.9599V9.14267H90.3406ZM107.386 44.0518V17.8699H114.426V22.4381H114.699C115.176 20.8131 115.977 19.5858 117.102 18.7563C118.227 17.9154 119.522 17.4949 120.988 17.4949C121.352 17.4949 121.744 17.5177 122.164 17.5631C122.585 17.6086 122.954 17.6711 123.272 17.7506V24.1938C122.931 24.0915 122.46 24.0006 121.858 23.9211C121.255 23.8415 120.704 23.8018 120.204 23.8018C119.136 23.8018 118.181 24.0347 117.341 24.5006C116.511 24.9552 115.852 25.5915 115.363 26.4097C114.886 27.2279 114.647 28.1711 114.647 29.2393V44.0518H107.386ZM137.74 44.5631C135.047 44.5631 132.728 44.0177 130.785 42.9268C128.853 41.8245 127.365 40.2677 126.319 38.2563C125.274 36.2336 124.751 33.8415 124.751 31.0802C124.751 28.387 125.274 26.0233 126.319 23.9893C127.365 21.9552 128.836 20.3699 130.734 19.2336C132.643 18.0972 134.882 17.529 137.45 17.529C139.177 17.529 140.785 17.8074 142.274 18.3643C143.774 18.9097 145.081 19.7336 146.194 20.8358C147.319 21.9381 148.194 23.3245 148.819 24.9949C149.444 26.654 149.757 28.5972 149.757 30.8245V32.8188H127.649V28.3188H142.922C142.922 27.2733 142.694 26.3472 142.24 25.5404C141.785 24.7336 141.154 24.1029 140.348 23.6483C139.552 23.1824 138.626 22.9495 137.569 22.9495C136.467 22.9495 135.49 23.2052 134.637 23.7165C133.797 24.2165 133.137 24.8927 132.66 25.7449C132.183 26.5858 131.939 27.5233 131.927 28.5574V32.8358C131.927 34.1313 132.166 35.2506 132.643 36.1938C133.132 37.137 133.819 37.8643 134.706 38.3756C135.592 38.887 136.643 39.1427 137.859 39.1427C138.666 39.1427 139.404 39.029 140.075 38.8018C140.745 38.5745 141.319 38.2336 141.797 37.779C142.274 37.3245 142.637 36.7677 142.887 36.1086L149.603 36.5518C149.262 38.1654 148.564 39.5745 147.507 40.779C146.461 41.9722 145.109 42.904 143.45 43.5745C141.802 44.2336 139.899 44.5631 137.74 44.5631ZM176.279 25.3358L169.632 25.7449C169.518 25.1768 169.274 24.6654 168.899 24.2108C168.524 23.7449 168.029 23.3756 167.416 23.1029C166.814 22.8188 166.092 22.6768 165.251 22.6768C164.126 22.6768 163.177 22.9154 162.404 23.3927C161.632 23.8586 161.245 24.4836 161.245 25.2677C161.245 25.8927 161.495 26.4211 161.995 26.8529C162.495 27.2847 163.353 27.6313 164.569 27.8927L169.308 28.8472C171.853 29.3699 173.751 30.2108 175.001 31.3699C176.251 32.529 176.876 34.0518 176.876 35.9381C176.876 37.654 176.37 39.1597 175.359 40.4552C174.359 41.7506 172.984 42.762 171.234 43.4893C169.495 44.2052 167.49 44.5631 165.217 44.5631C161.751 44.5631 158.99 43.8415 156.933 42.3983C154.887 40.9438 153.689 38.9665 153.336 36.4665L160.478 36.0915C160.694 37.1483 161.217 37.9552 162.047 38.512C162.876 39.0574 163.939 39.3302 165.234 39.3302C166.507 39.3302 167.529 39.0858 168.302 38.5972C169.086 38.0972 169.484 37.4552 169.495 36.6711C169.484 36.012 169.206 35.4722 168.66 35.0518C168.115 34.6199 167.274 34.2904 166.137 34.0631L161.603 33.1597C159.047 32.6483 157.143 31.762 155.893 30.5006C154.654 29.2393 154.035 27.6313 154.035 25.6768C154.035 23.9949 154.49 22.5461 155.399 21.3302C156.319 20.1143 157.609 19.1768 159.268 18.5177C160.939 17.8586 162.893 17.529 165.132 17.529C168.439 17.529 171.041 18.2279 172.939 19.6256C174.848 21.0233 175.961 22.9268 176.279 25.3358ZM198.238 32.904V17.8699H205.5V44.0518H198.528V39.2961H198.255C197.664 40.8302 196.681 42.0631 195.306 42.9949C193.943 43.9268 192.278 44.3927 190.312 44.3927C188.562 44.3927 187.022 43.9949 185.693 43.1995C184.363 42.404 183.324 41.2733 182.574 39.8074C181.835 38.3415 181.46 36.5858 181.449 34.5404V17.8699H188.71V33.2449C188.721 34.7904 189.136 36.012 189.954 36.9097C190.772 37.8074 191.869 38.2563 193.244 38.2563C194.119 38.2563 194.937 38.0574 195.699 37.6597C196.46 37.2506 197.074 36.6483 197.539 35.8529C198.017 35.0574 198.25 34.0745 198.238 32.904ZM211.308 44.0518V17.8699H218.228V22.4893H218.535C219.081 20.9552 219.99 19.7449 221.262 18.8586C222.535 17.9722 224.058 17.529 225.831 17.529C227.626 17.529 229.154 17.9779 230.416 18.8756C231.677 19.762 232.518 20.9665 232.939 22.4893H233.211C233.745 20.9893 234.711 19.7904 236.109 18.8927C237.518 17.9836 239.183 17.529 241.103 17.529C243.547 17.529 245.529 18.3074 247.052 19.8643C248.586 21.4097 249.353 23.6029 249.353 26.4438V44.0518H242.109V27.8756C242.109 26.4211 241.723 25.3302 240.95 24.6029C240.177 23.8756 239.211 23.512 238.052 23.512C236.734 23.512 235.706 23.9324 234.967 24.7733C234.228 25.6029 233.859 26.6995 233.859 28.0631V44.0518H226.819V27.7222C226.819 26.4381 226.45 25.4154 225.711 24.654C224.984 23.8927 224.024 23.512 222.831 23.512C222.024 23.512 221.297 23.7165 220.649 24.1256C220.012 24.5233 219.507 25.0858 219.132 25.8131C218.757 26.529 218.569 27.3699 218.569 28.3358V44.0518H211.308ZM267.021 44.5631C264.328 44.5631 262.01 44.0177 260.066 42.9268C258.135 41.8245 256.646 40.2677 255.6 38.2563C254.555 36.2336 254.032 33.8415 254.032 31.0802C254.032 28.387 254.555 26.0233 255.6 23.9893C256.646 21.9552 258.118 20.3699 260.015 19.2336C261.924 18.0972 264.163 17.529 266.731 17.529C268.458 17.529 270.066 17.8074 271.555 18.3643C273.055 18.9097 274.362 19.7336 275.475 20.8358C276.6 21.9381 277.475 23.3245 278.1 24.9949C278.725 26.654 279.038 28.5972 279.038 30.8245V32.8188H256.93V28.3188H272.203C272.203 27.2733 271.975 26.3472 271.521 25.5404C271.066 24.7336 270.436 24.1029 269.629 23.6483C268.833 23.1824 267.907 22.9495 266.85 22.9495C265.748 22.9495 264.771 23.2052 263.919 23.7165C263.078 24.2165 262.419 24.8927 261.941 25.7449C261.464 26.5858 261.22 27.5233 261.208 28.5574V32.8358C261.208 34.1313 261.447 35.2506 261.924 36.1938C262.413 37.137 263.1 37.8643 263.987 38.3756C264.873 38.887 265.924 39.1427 267.14 39.1427C267.947 39.1427 268.686 39.029 269.356 38.8018C270.027 38.5745 270.6 38.2336 271.078 37.779C271.555 37.3245 271.919 36.7677 272.169 36.1086L278.885 36.5518C278.544 38.1654 277.845 39.5745 276.788 40.779C275.743 41.9722 274.39 42.904 272.731 43.5745C271.083 44.2336 269.18 44.5631 267.021 44.5631ZM295.022 44.0518V9.14267H302.284V22.2677H302.505C302.824 21.5631 303.284 20.8472 303.886 20.1199C304.5 19.3813 305.295 18.7677 306.272 18.279C307.261 17.779 308.488 17.529 309.954 17.529C311.863 17.529 313.625 18.029 315.238 19.029C316.852 20.0177 318.142 21.512 319.108 23.512C320.074 25.5006 320.556 27.9949 320.556 30.9949C320.556 33.9154 320.085 36.3813 319.142 38.3927C318.21 40.3927 316.937 41.9097 315.324 42.9438C313.721 43.9665 311.926 44.4779 309.937 44.4779C308.528 44.4779 307.329 44.2449 306.341 43.779C305.363 43.3131 304.562 42.7279 303.937 42.0233C303.312 41.3074 302.835 40.5858 302.505 39.8586H302.181V44.0518H295.022ZM302.13 30.9608C302.13 32.5177 302.346 33.8756 302.778 35.0347C303.21 36.1938 303.835 37.0972 304.653 37.7449C305.471 38.3813 306.466 38.6995 307.636 38.6995C308.818 38.6995 309.818 38.3756 310.636 37.7279C311.454 37.0688 312.074 36.1597 312.494 35.0006C312.926 33.8302 313.142 32.4836 313.142 30.9608C313.142 29.4495 312.931 28.1199 312.511 26.9722C312.091 25.8245 311.471 24.9268 310.653 24.279C309.835 23.6313 308.829 23.3074 307.636 23.3074C306.454 23.3074 305.454 23.6199 304.636 24.2449C303.829 24.8699 303.21 25.7563 302.778 26.904C302.346 28.0518 302.13 29.404 302.13 30.9608ZM342.191 32.904V17.8699H349.453V44.0518H342.481V39.2961H342.208C341.618 40.8302 340.635 42.0631 339.26 42.9949C337.896 43.9268 336.231 44.3927 334.265 44.3927C332.515 44.3927 330.975 43.9949 329.646 43.1995C328.316 42.404 327.277 41.2733 326.527 39.8074C325.788 38.3415 325.413 36.5858 325.402 34.5404V17.8699H332.663V33.2449C332.674 34.7904 333.089 36.012 333.907 36.9097C334.725 37.8074 335.822 38.2563 337.197 38.2563C338.072 38.2563 338.89 38.0574 339.652 37.6597C340.413 37.2506 341.027 36.6483 341.493 35.8529C341.97 35.0574 342.203 34.0745 342.191 32.904ZM355.261 44.0518V17.8699H362.522V44.0518H355.261ZM358.909 14.4949C357.829 14.4949 356.903 14.137 356.13 13.4211C355.369 12.6938 354.988 11.8245 354.988 10.8131C354.988 9.81312 355.369 8.95517 356.13 8.23926C356.903 7.51198 357.829 7.14835 358.909 7.14835C359.988 7.14835 360.909 7.51198 361.67 8.23926C362.443 8.95517 362.829 9.81312 362.829 10.8131C362.829 11.8245 362.443 12.6938 361.67 13.4211C360.909 14.137 359.988 14.4949 358.909 14.4949ZM375.6 9.14267V44.0518H368.339V9.14267H375.6ZM391.065 44.4779C389.076 44.4779 387.275 43.9665 385.662 42.9438C384.059 41.9097 382.787 40.3927 381.843 38.3927C380.912 36.3813 380.446 33.9154 380.446 30.9949C380.446 27.9949 380.929 25.5006 381.895 23.512C382.86 21.512 384.145 20.0177 385.747 19.029C387.36 18.029 389.127 17.529 391.048 17.529C392.514 17.529 393.735 17.779 394.713 18.279C395.701 18.7677 396.497 19.3813 397.099 20.1199C397.713 20.8472 398.179 21.5631 398.497 22.2677H398.718V9.14267H405.963V44.0518H398.804V39.8586H398.497C398.156 40.5858 397.673 41.3074 397.048 42.0233C396.434 42.7279 395.633 43.3131 394.645 43.779C393.667 44.2449 392.474 44.4779 391.065 44.4779ZM393.366 38.6995C394.537 38.6995 395.525 38.3813 396.332 37.7449C397.15 37.0972 397.775 36.1938 398.207 35.0347C398.65 33.8756 398.872 32.5177 398.872 30.9608C398.872 29.404 398.656 28.0518 398.224 26.904C397.792 25.7563 397.167 24.8699 396.349 24.2449C395.531 23.6199 394.537 23.3074 393.366 23.3074C392.173 23.3074 391.167 23.6313 390.349 24.279C389.531 24.9268 388.912 25.8245 388.491 26.9722C388.071 28.1199 387.86 29.4495 387.86 30.9608C387.86 32.4836 388.071 33.8302 388.491 35.0006C388.923 36.1597 389.542 37.0688 390.349 37.7279C391.167 38.3756 392.173 38.6995 393.366 38.6995ZM423.865 44.5631C421.172 44.5631 418.853 44.0177 416.91 42.9268C414.978 41.8245 413.49 40.2677 412.444 38.2563C411.399 36.2336 410.876 33.8415 410.876 31.0802C410.876 28.387 411.399 26.0233 412.444 23.9893C413.49 21.9552 414.961 20.3699 416.859 19.2336C418.768 18.0972 421.007 17.529 423.575 17.529C425.302 17.529 426.91 17.8074 428.399 18.3643C429.899 18.9097 431.206 19.7336 432.319 20.8358C433.444 21.9381 434.319 23.3245 434.944 24.9949C435.569 26.654 435.882 28.5972 435.882 30.8245V32.8188H413.774V28.3188H429.047C429.047 27.2733 428.819 26.3472 428.365 25.5404C427.91 24.7336 427.279 24.1029 426.473 23.6483C425.677 23.1824 424.751 22.9495 423.694 22.9495C422.592 22.9495 421.615 23.2052 420.762 23.7165C419.922 24.2165 419.262 24.8927 418.785 25.7449C418.308 26.5858 418.064 27.5233 418.052 28.5574V32.8358C418.052 34.1313 418.291 35.2506 418.768 36.1938C419.257 37.137 419.944 37.8643 420.831 38.3756C421.717 38.887 422.768 39.1427 423.984 39.1427C424.791 39.1427 425.529 39.029 426.2 38.8018C426.87 38.5745 427.444 38.2336 427.922 37.779C428.399 37.3245 428.762 36.7677 429.012 36.1086L435.728 36.5518C435.387 38.1654 434.689 39.5745 433.632 40.779C432.586 41.9722 431.234 42.904 429.575 43.5745C427.927 44.2336 426.024 44.5631 423.865 44.5631ZM440.62 44.0518V17.8699H447.66V22.4381H447.933C448.41 20.8131 449.211 19.5858 450.336 18.7563C451.461 17.9154 452.757 17.4949 454.223 17.4949C454.586 17.4949 454.978 17.5177 455.399 17.5631C455.819 17.6086 456.189 17.6711 456.507 17.7506V24.1938C456.166 24.0915 455.694 24.0006 455.092 23.9211C454.49 23.8415 453.939 23.8018 453.439 23.8018C452.37 23.8018 451.416 24.0347 450.575 24.5006C449.745 24.9552 449.086 25.5915 448.598 26.4097C448.12 27.2279 447.882 28.1711 447.882 29.2393V44.0518H440.62Z" fill="#D9D9D9"/>
<path d="M80.1623 66.7682V65.3513H88.6051V66.7682H85.2013V76.2604H83.5607V66.7682H80.1623ZM92.2356 71.4024V76.2604H90.6429V65.3513H92.2143V69.4102H92.3155C92.5073 68.9699 92.8002 68.6201 93.1944 68.3609C93.5886 68.1016 94.1035 67.972 94.7392 67.972C95.3002 67.972 95.7903 68.0874 96.2093 68.3183C96.6319 68.5491 96.9586 68.8935 97.1895 69.3516C97.4238 69.8062 97.541 70.3744 97.541 71.0562V76.2604H95.9483V71.2479C95.9483 70.6478 95.7939 70.1826 95.4849 69.8524C95.176 69.5185 94.7463 69.3516 94.1958 69.3516C93.8194 69.3516 93.4821 69.4315 93.1838 69.5913C92.889 69.7511 92.6564 69.9855 92.486 70.2945C92.3191 70.5999 92.2356 70.9692 92.2356 71.4024ZM103.493 76.4255C102.687 76.4255 101.992 76.2533 101.41 75.9088C100.831 75.5608 100.384 75.0725 100.068 74.444C99.7551 73.8119 99.5988 73.0715 99.5988 72.2227C99.5988 71.3847 99.7551 70.646 100.068 70.0068C100.384 69.3676 100.824 68.8687 101.389 68.51C101.957 68.1514 102.621 67.972 103.381 67.972C103.842 67.972 104.29 68.0484 104.723 68.2011C105.156 68.3538 105.545 68.5935 105.89 68.9202C106.234 69.2469 106.506 69.6712 106.705 70.1933C106.904 70.7117 107.003 71.3421 107.003 72.0842V72.6489H100.499V71.4557H105.442C105.442 71.0367 105.357 70.6656 105.187 70.3424C105.016 70.0157 104.776 69.7582 104.467 69.57C104.162 69.3818 103.803 69.2877 103.391 69.2877C102.944 69.2877 102.553 69.3978 102.22 69.618C101.889 69.8346 101.634 70.1187 101.453 70.4702C101.275 70.8183 101.186 71.1965 101.186 71.6048V72.537C101.186 73.0839 101.282 73.5491 101.474 73.9326C101.669 74.3161 101.941 74.6091 102.289 74.8115C102.637 75.0104 103.043 75.1098 103.509 75.1098C103.81 75.1098 104.086 75.0672 104.334 74.982C104.583 74.8932 104.798 74.7618 104.979 74.5878C105.16 74.4138 105.298 74.1989 105.394 73.9433L106.902 74.2149C106.781 74.6588 106.564 75.0477 106.252 75.3815C105.943 75.7117 105.554 75.9692 105.085 76.1538C104.62 76.3349 104.089 76.4255 103.493 76.4255ZM113.468 65.3513H115.465L118.938 73.8314H119.066L122.539 65.3513H124.537V76.2604H122.97V68.3662H122.869L119.652 76.2444H118.352L115.135 68.3609H115.034V76.2604H113.468V65.3513ZM130.548 76.4255C129.781 76.4255 129.112 76.2497 128.54 75.8982C127.968 75.5466 127.524 75.0548 127.208 74.4227C126.892 73.7906 126.734 73.0519 126.734 72.2068C126.734 71.358 126.892 70.6158 127.208 69.9802C127.524 69.3445 127.968 68.8509 128.54 68.4994C129.112 68.1478 129.781 67.972 130.548 67.972C131.315 67.972 131.985 68.1478 132.556 68.4994C133.128 68.8509 133.572 69.3445 133.888 69.9802C134.204 70.6158 134.362 71.358 134.362 72.2068C134.362 73.0519 134.204 73.7906 133.888 74.4227C133.572 75.0548 133.128 75.5466 132.556 75.8982C131.985 76.2497 131.315 76.4255 130.548 76.4255ZM130.553 75.0885C131.051 75.0885 131.463 74.9571 131.789 74.6943C132.116 74.4315 132.357 74.0818 132.514 73.645C132.673 73.2082 132.753 72.727 132.753 72.2014C132.753 71.6794 132.673 71.2 132.514 70.7632C132.357 70.3229 132.116 69.9695 131.789 69.7032C131.463 69.4369 131.051 69.3037 130.553 69.3037C130.053 69.3037 129.637 69.4369 129.307 69.7032C128.98 69.9695 128.737 70.3229 128.577 70.7632C128.421 71.2 128.343 71.6794 128.343 72.2014C128.343 72.727 128.421 73.2082 128.577 73.645C128.737 74.0818 128.98 74.4315 129.307 74.6943C129.637 74.9571 130.053 75.0885 130.553 75.0885ZM142.571 70.0761L141.127 70.3318C141.067 70.1471 140.971 69.9713 140.84 69.8044C140.712 69.6375 140.538 69.5008 140.318 69.3943C140.097 69.2877 139.822 69.2345 139.492 69.2345C139.041 69.2345 138.665 69.3357 138.363 69.5381C138.061 69.7369 137.91 69.9944 137.91 70.3104C137.91 70.5839 138.011 70.8041 138.214 70.971C138.416 71.1379 138.743 71.2746 139.194 71.3811L140.493 71.6794C141.246 71.8534 141.807 72.1215 142.177 72.4837C142.546 72.846 142.731 73.3165 142.731 73.8953C142.731 74.3854 142.589 74.8222 142.305 75.2057C142.024 75.5857 141.632 75.884 141.127 76.1006C140.627 76.3172 140.046 76.4255 139.385 76.4255C138.469 76.4255 137.722 76.2302 137.143 75.8396C136.564 75.4454 136.209 74.8861 136.078 74.1617L137.617 73.9273C137.713 74.3286 137.91 74.6322 138.208 74.8381C138.507 75.0406 138.895 75.1418 139.375 75.1418C139.897 75.1418 140.314 75.0335 140.627 74.8168C140.939 74.5967 141.095 74.3286 141.095 74.0125C141.095 73.7568 140.999 73.542 140.808 73.368C140.619 73.194 140.33 73.0626 139.939 72.9738L138.555 72.6702C137.791 72.4962 137.226 72.2192 136.861 71.8392C136.498 71.4592 136.317 70.9781 136.317 70.3957C136.317 69.9127 136.452 69.4901 136.722 69.1279C136.992 68.7657 137.365 68.4834 137.841 68.281C138.317 68.075 138.862 67.972 139.476 67.972C140.36 67.972 141.056 68.1638 141.564 68.5473C142.072 68.9273 142.407 69.4369 142.571 70.0761ZM148.601 68.0786V69.357H144.132V68.0786H148.601ZM145.33 66.1183H146.923V73.858C146.923 74.167 146.969 74.3996 147.062 74.5558C147.154 74.7085 147.273 74.8133 147.419 74.8701C147.568 74.9234 147.729 74.95 147.903 74.95C148.031 74.95 148.143 74.9411 148.239 74.9234C148.335 74.9056 148.409 74.8914 148.463 74.8808L148.75 76.1965C148.658 76.232 148.526 76.2675 148.356 76.303C148.186 76.3421 147.972 76.3634 147.717 76.3669C147.298 76.374 146.907 76.2994 146.545 76.1432C146.183 75.9869 145.89 75.7455 145.666 75.4188C145.442 75.0921 145.33 74.6819 145.33 74.1883V66.1183ZM155.06 76.2604V65.3513H161.9V66.7682H156.706V70.0921H161.543V71.5036H156.706V74.8435H161.964V76.2604H155.06ZM168.164 68.0786V69.357H163.541V68.0786H168.164ZM164.809 76.2604V67.1304C164.809 66.619 164.921 66.1947 165.144 65.8573C165.368 65.5164 165.664 65.2625 166.034 65.0956C166.403 64.9251 166.804 64.8399 167.238 64.8399C167.557 64.8399 167.831 64.8666 168.058 64.9198C168.285 64.9695 168.454 65.0157 168.564 65.0583L168.191 66.3474C168.117 66.3261 168.021 66.3012 167.903 66.2728C167.786 66.2408 167.644 66.2249 167.477 66.2249C167.09 66.2249 166.813 66.3207 166.646 66.5125C166.483 66.7043 166.401 66.9813 166.401 67.3435V76.2604H164.809ZM174.002 68.0786V69.357H169.378V68.0786H174.002ZM170.646 76.2604V67.1304C170.646 66.619 170.758 66.1947 170.981 65.8573C171.205 65.5164 171.502 65.2625 171.871 65.0956C172.24 64.9251 172.642 64.8399 173.075 64.8399C173.394 64.8399 173.668 64.8666 173.895 64.9198C174.122 64.9695 174.291 65.0157 174.401 65.0583L174.028 66.3474C173.954 66.3261 173.858 66.3012 173.741 66.2728C173.623 66.2408 173.481 66.2249 173.314 66.2249C172.927 66.2249 172.65 66.3207 172.483 66.5125C172.32 66.7043 172.238 66.9813 172.238 67.3435V76.2604H170.646ZM175.945 76.2604V68.0786H177.538V76.2604H175.945ZM176.749 66.8161C176.472 66.8161 176.234 66.7238 176.035 66.5391C175.84 66.3509 175.742 66.1272 175.742 65.868C175.742 65.6052 175.84 65.3815 176.035 65.1968C176.234 65.0086 176.472 64.9145 176.749 64.9145C177.026 64.9145 177.262 65.0086 177.458 65.1968C177.657 65.3815 177.756 65.6052 177.756 65.868C177.756 66.1272 177.657 66.3509 177.458 66.5391C177.262 66.7238 177.026 66.8161 176.749 66.8161ZM183.427 76.4255C182.635 76.4255 181.953 76.2462 181.381 75.8875C180.813 75.5253 180.376 75.0264 180.071 74.3907C179.765 73.755 179.613 73.0271 179.613 72.2068C179.613 71.3758 179.769 70.6425 180.081 70.0068C180.394 69.3676 180.834 68.8687 181.402 68.51C181.971 68.1514 182.64 67.972 183.411 67.972C184.032 67.972 184.586 68.0874 185.073 68.3183C185.559 68.5455 185.951 68.8651 186.25 69.2771C186.552 69.689 186.731 70.1702 186.788 70.7206H185.238C185.152 70.3371 184.957 70.0068 184.652 69.7298C184.35 69.4528 183.945 69.3144 183.437 69.3144C182.993 69.3144 182.605 69.4315 182.271 69.6659C181.94 69.8967 181.683 70.227 181.498 70.6567C181.314 71.0828 181.221 71.5871 181.221 72.1695C181.221 72.7661 181.312 73.281 181.493 73.7142C181.674 74.1474 181.93 74.483 182.26 74.721C182.594 74.9589 182.986 75.0778 183.437 75.0778C183.739 75.0778 184.013 75.0228 184.258 74.9127C184.506 74.7991 184.714 74.6375 184.881 74.428C185.051 74.2185 185.17 73.9663 185.238 73.6716H186.788C186.731 74.2007 186.559 74.673 186.271 75.0885C185.983 75.504 185.598 75.8307 185.115 76.0686C184.636 76.3065 184.073 76.4255 183.427 76.4255ZM188.791 76.2604V68.0786H190.384V76.2604H188.791ZM189.595 66.8161C189.318 66.8161 189.08 66.7238 188.882 66.5391C188.686 66.3509 188.589 66.1272 188.589 65.868C188.589 65.6052 188.686 65.3815 188.882 65.1968C189.08 65.0086 189.318 64.9145 189.595 64.9145C189.872 64.9145 190.108 65.0086 190.304 65.1968C190.503 65.3815 190.602 65.6052 190.602 65.868C190.602 66.1272 190.503 66.3509 190.304 66.5391C190.108 66.7238 189.872 66.8161 189.595 66.8161ZM196.353 76.4255C195.546 76.4255 194.852 76.2533 194.27 75.9088C193.691 75.5608 193.244 75.0725 192.928 74.444C192.615 73.8119 192.459 73.0715 192.459 72.2227C192.459 71.3847 192.615 70.646 192.928 70.0068C193.244 69.3676 193.684 68.8687 194.249 68.51C194.817 68.1514 195.481 67.972 196.241 67.972C196.702 67.972 197.15 68.0484 197.583 68.2011C198.016 68.3538 198.405 68.5935 198.75 68.9202C199.094 69.2469 199.366 69.6712 199.565 70.1933C199.763 70.7117 199.863 71.3421 199.863 72.0842V72.6489H193.359V71.4557H198.302C198.302 71.0367 198.217 70.6656 198.046 70.3424C197.876 70.0157 197.636 69.7582 197.327 69.57C197.022 69.3818 196.663 69.2877 196.251 69.2877C195.804 69.2877 195.413 69.3978 195.08 69.618C194.749 69.8346 194.494 70.1187 194.312 70.4702C194.135 70.8183 194.046 71.1965 194.046 71.6048V72.537C194.046 73.0839 194.142 73.5491 194.334 73.9326C194.529 74.3161 194.801 74.6091 195.149 74.8115C195.497 75.0104 195.903 75.1098 196.369 75.1098C196.67 75.1098 196.946 75.0672 197.194 74.982C197.443 74.8932 197.658 74.7618 197.839 74.5878C198.02 74.4138 198.158 74.1989 198.254 73.9433L199.762 74.2149C199.641 74.6588 199.424 75.0477 199.112 75.3815C198.803 75.7117 198.414 75.9692 197.945 76.1538C197.48 76.3349 196.949 76.4255 196.353 76.4255ZM203.523 71.4024V76.2604H201.93V68.0786H203.459V69.4102H203.56C203.748 68.977 204.043 68.629 204.444 68.3662C204.849 68.1034 205.359 67.972 205.973 67.972C206.531 67.972 207.019 68.0892 207.438 68.3236C207.857 68.5544 208.182 68.8989 208.413 69.357C208.643 69.8151 208.759 70.3815 208.759 71.0562V76.2604H207.166V71.2479C207.166 70.6549 207.012 70.1915 206.703 69.8577C206.394 69.5203 205.969 69.3516 205.43 69.3516C205.06 69.3516 204.732 69.4315 204.444 69.5913C204.16 69.7511 203.935 69.9855 203.768 70.2945C203.604 70.5999 203.523 70.9692 203.523 71.4024ZM215.014 68.0786V69.357H210.545V68.0786H215.014ZM211.744 66.1183H213.336V73.858C213.336 74.167 213.382 74.3996 213.475 74.5558C213.567 74.7085 213.686 74.8133 213.832 74.8701C213.981 74.9234 214.142 74.95 214.316 74.95C214.444 74.95 214.556 74.9411 214.652 74.9234C214.748 74.9056 214.822 74.8914 214.876 74.8808L215.163 76.1965C215.071 76.232 214.94 76.2675 214.769 76.303C214.599 76.3421 214.386 76.3634 214.13 76.3669C213.711 76.374 213.32 76.2994 212.958 76.1432C212.596 75.9869 212.303 75.7455 212.079 75.4188C211.855 75.0921 211.744 74.6819 211.744 74.1883V66.1183ZM222.395 76.2604H220.648L224.574 65.3513H226.475L230.401 76.2604H228.654L225.57 67.3328H225.485L222.395 76.2604ZM222.688 71.9884H228.356V73.3733H222.688V71.9884ZM233.922 65.3513V76.2604H232.276V65.3513H233.922ZM240.889 76.2604V65.3513H244.778C245.623 65.3513 246.324 65.4969 246.882 65.7881C247.443 66.0793 247.862 66.4823 248.139 66.9972C248.416 67.5086 248.554 68.0999 248.554 68.771C248.554 69.4386 248.414 70.0264 248.133 70.5342C247.856 71.0384 247.437 71.4308 246.876 71.7114C246.319 71.9919 245.617 72.1322 244.772 72.1322H241.827V70.7153H244.623C245.156 70.7153 245.589 70.6389 245.923 70.4862C246.26 70.3335 246.507 70.1116 246.663 69.8204C246.82 69.5292 246.898 69.1794 246.898 68.771C246.898 68.3591 246.818 68.0022 246.658 67.7004C246.502 67.3985 246.255 67.1677 245.918 67.0079C245.584 66.8445 245.145 66.7629 244.602 66.7629H242.535V76.2604H240.889ZM246.274 71.3385L248.97 76.2604H247.095L244.453 71.3385H246.274ZM254.153 76.4255C253.347 76.4255 252.653 76.2533 252.07 75.9088C251.491 75.5608 251.044 75.0725 250.728 74.444C250.415 73.8119 250.259 73.0715 250.259 72.2227C250.259 71.3847 250.415 70.646 250.728 70.0068C251.044 69.3676 251.484 68.8687 252.049 68.51C252.617 68.1514 253.281 67.972 254.041 67.972C254.503 67.972 254.95 68.0484 255.383 68.2011C255.817 68.3538 256.206 68.5935 256.55 68.9202C256.894 69.2469 257.166 69.6712 257.365 70.1933C257.564 70.7117 257.663 71.3421 257.663 72.0842V72.6489H251.159V71.4557H256.103C256.103 71.0367 256.017 70.6656 255.847 70.3424C255.676 70.0157 255.437 69.7582 255.128 69.57C254.822 69.3818 254.464 69.2877 254.052 69.2877C253.604 69.2877 253.214 69.3978 252.88 69.618C252.55 69.8346 252.294 70.1187 252.113 70.4702C251.935 70.8183 251.847 71.1965 251.847 71.6048V72.537C251.847 73.0839 251.942 73.5491 252.134 73.9326C252.329 74.3161 252.601 74.6091 252.949 74.8115C253.297 75.0104 253.704 75.1098 254.169 75.1098C254.471 75.1098 254.746 75.0672 254.995 74.982C255.243 74.8932 255.458 74.7618 255.639 74.5878C255.82 74.4138 255.959 74.1989 256.055 73.9433L257.562 74.2149C257.441 74.6588 257.225 75.0477 256.912 75.3815C256.603 75.7117 256.214 75.9692 255.746 76.1538C255.28 76.3349 254.75 76.4255 254.153 76.4255ZM265.861 70.0761L264.418 70.3318C264.358 70.1471 264.262 69.9713 264.13 69.8044C264.002 69.6375 263.828 69.5008 263.608 69.3943C263.388 69.2877 263.113 69.2345 262.783 69.2345C262.332 69.2345 261.955 69.3357 261.653 69.5381C261.352 69.7369 261.201 69.9944 261.201 70.3104C261.201 70.5839 261.302 70.8041 261.504 70.971C261.707 71.1379 262.033 71.2746 262.484 71.3811L263.784 71.6794C264.537 71.8534 265.098 72.1215 265.467 72.4837C265.837 72.846 266.021 73.3165 266.021 73.8953C266.021 74.3854 265.879 74.8222 265.595 75.2057C265.315 75.5857 264.922 75.884 264.418 76.1006C263.917 76.3172 263.337 76.4255 262.676 76.4255C261.76 76.4255 261.012 76.2302 260.434 75.8396C259.855 75.4454 259.5 74.8861 259.368 74.1617L260.908 73.9273C261.004 74.3286 261.201 74.6322 261.499 74.8381C261.797 75.0406 262.186 75.1418 262.665 75.1418C263.187 75.1418 263.605 75.0335 263.917 74.8168C264.23 74.5967 264.386 74.3286 264.386 74.0125C264.386 73.7568 264.29 73.542 264.098 73.368C263.91 73.194 263.621 73.0626 263.23 72.9738L261.845 72.6702C261.082 72.4962 260.517 72.2192 260.151 71.8392C259.789 71.4592 259.608 70.9781 259.608 70.3957C259.608 69.9127 259.743 69.4901 260.013 69.1279C260.283 68.7657 260.655 68.4834 261.131 68.281C261.607 68.075 262.152 67.972 262.767 67.972C263.651 67.972 264.347 68.1638 264.855 68.5473C265.363 68.9273 265.698 69.4369 265.861 70.0761ZM273.255 72.8673V68.0786H274.853V76.2604H273.287V74.8435H273.202C273.014 75.2803 272.712 75.6443 272.297 75.9354C271.885 76.2231 271.371 76.3669 270.757 76.3669C270.232 76.3669 269.766 76.2515 269.362 76.0207C268.96 75.7863 268.644 75.4401 268.413 74.982C268.186 74.5239 268.072 73.9575 268.072 73.2827V68.0786H269.665V73.091C269.665 73.6485 269.82 74.0924 270.129 74.4227C270.437 74.7529 270.839 74.918 271.332 74.918C271.631 74.918 271.927 74.8435 272.222 74.6943C272.52 74.5452 272.767 74.3197 272.962 74.0178C273.161 73.716 273.259 73.3325 273.255 72.8673ZM277.293 76.2604V68.0786H278.822V69.4102H278.923C279.094 68.9592 279.373 68.6077 279.76 68.3555C280.147 68.0999 280.61 67.972 281.15 67.972C281.697 67.972 282.155 68.0999 282.524 68.3555C282.897 68.6112 283.172 68.9628 283.35 69.4102H283.435C283.63 68.9734 283.941 68.6254 284.367 68.3662C284.793 68.1034 285.301 67.972 285.891 67.972C286.633 67.972 287.238 68.2046 287.707 68.6698C288.179 69.135 288.415 69.8364 288.415 70.7739V76.2604H286.823V70.923C286.823 70.369 286.672 69.9678 286.37 69.7192C286.068 69.4706 285.708 69.3463 285.289 69.3463C284.77 69.3463 284.367 69.5061 284.08 69.8257C283.792 70.1418 283.648 70.5484 283.648 71.0455V76.2604H282.061V70.8218C282.061 70.3779 281.922 70.021 281.645 69.7511C281.368 69.4813 281.008 69.3463 280.564 69.3463C280.262 69.3463 279.983 69.4262 279.728 69.586C279.475 69.7423 279.271 69.9607 279.115 70.2412C278.962 70.5217 278.886 70.8467 278.886 71.216V76.2604H277.293ZM294.376 76.4255C293.57 76.4255 292.876 76.2533 292.294 75.9088C291.715 75.5608 291.267 75.0725 290.951 74.444C290.639 73.8119 290.483 73.0715 290.483 72.2227C290.483 71.3847 290.639 70.646 290.951 70.0068C291.267 69.3676 291.708 68.8687 292.272 68.51C292.841 68.1514 293.505 67.972 294.265 67.972C294.726 67.972 295.174 68.0484 295.607 68.2011C296.04 68.3538 296.429 68.5935 296.773 68.9202C297.118 69.2469 297.39 69.6712 297.588 70.1933C297.787 70.7117 297.887 71.3421 297.887 72.0842V72.6489H291.383V71.4557H296.326C296.326 71.0367 296.241 70.6656 296.07 70.3424C295.9 70.0157 295.66 69.7582 295.351 69.57C295.046 69.3818 294.687 69.2877 294.275 69.2877C293.828 69.2877 293.437 69.3978 293.103 69.618C292.773 69.8346 292.517 70.1187 292.336 70.4702C292.159 70.8183 292.07 71.1965 292.07 71.6048V72.537C292.07 73.0839 292.166 73.5491 292.358 73.9326C292.553 74.3161 292.825 74.6091 293.173 74.8115C293.521 75.0104 293.927 75.1098 294.392 75.1098C294.694 75.1098 294.969 75.0672 295.218 74.982C295.467 74.8932 295.681 74.7618 295.863 74.5878C296.044 74.4138 296.182 74.1989 296.278 73.9433L297.786 74.2149C297.665 74.6588 297.448 75.0477 297.136 75.3815C296.827 75.7117 296.438 75.9692 295.969 76.1538C295.504 76.3349 294.973 76.4255 294.376 76.4255ZM313.412 68.8989H311.75C311.686 68.5438 311.567 68.2313 311.393 67.9614C311.219 67.6915 311.006 67.4624 310.754 67.2742C310.502 67.086 310.22 66.944 309.907 66.8481C309.598 66.7522 309.27 66.7043 308.922 66.7043C308.293 66.7043 307.73 66.8623 307.233 67.1783C306.74 67.4944 306.349 67.9578 306.061 68.5686C305.777 69.1794 305.635 69.9251 305.635 70.8058C305.635 71.6936 305.777 72.4429 306.061 73.0537C306.349 73.6645 306.741 74.1261 307.239 74.4386C307.736 74.7511 308.295 74.9074 308.916 74.9074C309.261 74.9074 309.588 74.8612 309.897 74.7689C310.209 74.673 310.491 74.5327 310.743 74.3481C310.996 74.1634 311.209 73.9379 311.383 73.6716C311.56 73.4017 311.683 73.0928 311.75 72.7448L313.412 72.7501C313.323 73.2863 313.151 73.7799 312.895 74.2309C312.643 74.6783 312.318 75.0654 311.921 75.3921C311.527 75.7153 311.076 75.9656 310.568 76.1432C310.06 76.3207 309.506 76.4095 308.906 76.4095C307.961 76.4095 307.12 76.1858 306.381 75.7384C305.642 75.2874 305.06 74.6428 304.634 73.8048C304.211 72.9667 304 71.9671 304 70.8058C304 69.6411 304.213 68.6414 304.639 67.8069C305.065 66.9688 305.648 66.3261 306.386 65.8786C307.125 65.4276 307.965 65.2021 308.906 65.2021C309.485 65.2021 310.024 65.2856 310.525 65.4525C311.029 65.6158 311.482 65.8573 311.883 66.1769C312.285 66.493 312.617 66.88 312.879 67.3381C313.142 67.7927 313.32 68.3129 313.412 68.8989ZM315.554 76.2604V68.0786H317.093V69.3783H317.179C317.328 68.9379 317.59 68.5917 317.967 68.3396C318.347 68.0839 318.777 67.956 319.256 67.956C319.355 67.956 319.473 67.9596 319.608 67.9667C319.746 67.9738 319.854 67.9827 319.932 67.9933V69.5168C319.869 69.499 319.755 69.4795 319.592 69.4582C319.428 69.4333 319.265 69.4209 319.101 69.4209C318.725 69.4209 318.389 69.5008 318.095 69.6606C317.804 69.8168 317.573 70.0352 317.402 70.3158C317.232 70.5928 317.147 70.9088 317.147 71.2639V76.2604H315.554ZM324.844 76.4255C324.038 76.4255 323.344 76.2533 322.761 75.9088C322.182 75.5608 321.735 75.0725 321.419 74.444C321.106 73.8119 320.95 73.0715 320.95 72.2227C320.95 71.3847 321.106 70.646 321.419 70.0068C321.735 69.3676 322.175 68.8687 322.74 68.51C323.308 68.1514 323.972 67.972 324.732 67.972C325.194 67.972 325.641 68.0484 326.074 68.2011C326.508 68.3538 326.897 68.5935 327.241 68.9202C327.585 69.2469 327.857 69.6712 328.056 70.1933C328.255 70.7117 328.354 71.3421 328.354 72.0842V72.6489H321.85V71.4557H326.794C326.794 71.0367 326.708 70.6656 326.538 70.3424C326.367 70.0157 326.128 69.7582 325.819 69.57C325.513 69.3818 325.155 69.2877 324.743 69.2877C324.295 69.2877 323.905 69.3978 323.571 69.618C323.241 69.8346 322.985 70.1187 322.804 70.4702C322.626 70.8183 322.538 71.1965 322.538 71.6048V72.537C322.538 73.0839 322.633 73.5491 322.825 73.9326C323.021 74.3161 323.292 74.6091 323.64 74.8115C323.988 75.0104 324.395 75.1098 324.86 75.1098C325.162 75.1098 325.437 75.0672 325.686 74.982C325.934 74.8932 326.149 74.7618 326.33 74.5878C326.511 74.4138 326.65 74.1989 326.746 73.9433L328.253 74.2149C328.132 74.6588 327.916 75.0477 327.603 75.3815C327.294 75.7117 326.905 75.9692 326.437 76.1538C325.972 76.3349 325.441 76.4255 324.844 76.4255ZM332.802 76.4415C332.284 76.4415 331.815 76.3456 331.396 76.1538C330.977 75.9585 330.645 75.6762 330.4 75.3069C330.159 74.9376 330.038 74.4848 330.038 73.9486C330.038 73.4869 330.127 73.107 330.304 72.8087C330.482 72.5104 330.722 72.2742 331.023 72.1002C331.325 71.9262 331.663 71.7948 332.035 71.706C332.408 71.6173 332.788 71.5498 333.175 71.5036C333.665 71.4468 334.063 71.4006 334.369 71.3651C334.674 71.3261 334.896 71.2639 335.034 71.1787C335.173 71.0935 335.242 70.955 335.242 70.7632V70.7259C335.242 70.2607 335.111 69.9003 334.848 69.6446C334.589 69.3889 334.202 69.2611 333.687 69.2611C333.15 69.2611 332.728 69.38 332.419 69.618C332.114 69.8524 331.902 70.1134 331.785 70.401L330.288 70.0601C330.466 69.5629 330.725 69.1617 331.066 68.8563C331.41 68.5473 331.806 68.3236 332.254 68.1851C332.701 68.043 333.172 67.972 333.665 67.972C333.992 67.972 334.338 68.0111 334.704 68.0892C335.073 68.1638 335.418 68.3023 335.737 68.5047C336.061 68.7071 336.325 68.9965 336.531 69.3729C336.737 69.7458 336.84 70.2305 336.84 70.8271V76.2604H335.285V75.1418H335.221C335.118 75.3477 334.963 75.5501 334.757 75.749C334.551 75.9479 334.287 76.113 333.964 76.2444C333.641 76.3758 333.253 76.4415 332.802 76.4415ZM333.149 75.1631C333.589 75.1631 333.965 75.0761 334.278 74.9021C334.594 74.7281 334.834 74.5008 334.997 74.2202C335.164 73.9362 335.247 73.6325 335.247 73.3094V72.2547C335.191 72.3115 335.081 72.3648 334.917 72.4145C334.757 72.4607 334.574 72.5015 334.369 72.537C334.163 72.569 333.962 72.5992 333.767 72.6276C333.571 72.6524 333.408 72.6737 333.277 72.6915C332.968 72.7305 332.685 72.7962 332.43 72.8886C332.177 72.9809 331.975 73.1141 331.822 73.2881C331.673 73.4585 331.599 73.6858 331.599 73.9699C331.599 74.3641 331.744 74.6624 332.035 74.8648C332.327 75.0636 332.698 75.1631 333.149 75.1631ZM343.081 68.0786V69.357H338.612V68.0786H343.081ZM339.81 66.1183H341.403V73.858C341.403 74.167 341.449 74.3996 341.541 74.5558C341.634 74.7085 341.753 74.8133 341.898 74.8701C342.047 74.9234 342.209 74.95 342.383 74.95C342.511 74.95 342.623 74.9411 342.718 74.9234C342.814 74.9056 342.889 74.8914 342.942 74.8808L343.23 76.1965C343.138 76.232 343.006 76.2675 342.836 76.303C342.665 76.3421 342.452 76.3634 342.196 76.3669C341.777 76.374 341.387 76.2994 341.025 76.1432C340.662 75.9869 340.369 75.7455 340.146 75.4188C339.922 75.0921 339.81 74.6819 339.81 74.1883V66.1183ZM348.501 76.4255C347.734 76.4255 347.065 76.2497 346.493 75.8982C345.921 75.5466 345.477 75.0548 345.161 74.4227C344.845 73.7906 344.687 73.0519 344.687 72.2068C344.687 71.358 344.845 70.6158 345.161 69.9802C345.477 69.3445 345.921 68.8509 346.493 68.4994C347.065 68.1478 347.734 67.972 348.501 67.972C349.268 67.972 349.937 68.1478 350.509 68.4994C351.081 68.8509 351.525 69.3445 351.841 69.9802C352.157 70.6158 352.315 71.358 352.315 72.2068C352.315 73.0519 352.157 73.7906 351.841 74.4227C351.525 75.0548 351.081 75.5466 350.509 75.8982C349.937 76.2497 349.268 76.4255 348.501 76.4255ZM348.506 75.0885C349.004 75.0885 349.415 74.9571 349.742 74.6943C350.069 74.4315 350.31 74.0818 350.467 73.645C350.626 73.2082 350.706 72.727 350.706 72.2014C350.706 71.6794 350.626 71.2 350.467 70.7632C350.31 70.3229 350.069 69.9695 349.742 69.7032C349.415 69.4369 349.004 69.3037 348.506 69.3037C348.006 69.3037 347.59 69.4369 347.26 69.7032C346.933 69.9695 346.69 70.3229 346.53 70.7632C346.374 71.2 346.296 71.6794 346.296 72.2014C346.296 72.727 346.374 73.2082 346.53 73.645C346.69 74.0818 346.933 74.4315 347.26 74.6943C347.59 74.9571 348.006 75.0885 348.506 75.0885ZM354.393 76.2604V68.0786H355.932V69.3783H356.017C356.167 68.9379 356.429 68.5917 356.806 68.3396C357.186 68.0839 357.615 67.956 358.095 67.956C358.194 67.956 358.311 67.9596 358.446 67.9667C358.585 67.9738 358.693 67.9827 358.771 67.9933V69.5168C358.707 69.499 358.594 69.4795 358.43 69.4582C358.267 69.4333 358.104 69.4209 357.94 69.4209C357.564 69.4209 357.228 69.5008 356.934 69.6606C356.642 69.8168 356.412 70.0352 356.241 70.3158C356.071 70.5928 355.985 70.9088 355.985 71.2639V76.2604H354.393ZM374.323 70.8058C374.323 71.9706 374.11 72.972 373.684 73.8101C373.258 74.6446 372.674 75.2874 371.932 75.7384C371.193 76.1858 370.353 76.4095 369.412 76.4095C368.468 76.4095 367.624 76.1858 366.882 75.7384C366.143 75.2874 365.561 74.6428 365.135 73.8048C364.709 72.9667 364.496 71.9671 364.496 70.8058C364.496 69.6411 364.709 68.6414 365.135 67.8069C365.561 66.9688 366.143 66.3261 366.882 65.8786C367.624 65.4276 368.468 65.2021 369.412 65.2021C370.353 65.2021 371.193 65.4276 371.932 65.8786C372.674 66.3261 373.258 66.9688 373.684 67.8069C374.11 68.6414 374.323 69.6411 374.323 70.8058ZM372.693 70.8058C372.693 69.918 372.55 69.1705 372.262 68.5633C371.978 67.9525 371.587 67.4908 371.09 67.1783C370.596 66.8623 370.037 66.7043 369.412 66.7043C368.784 66.7043 368.222 66.8623 367.729 67.1783C367.235 67.4908 366.845 67.9525 366.557 68.5633C366.273 69.1705 366.131 69.918 366.131 70.8058C366.131 71.6936 366.273 72.4429 366.557 73.0537C366.845 73.6609 367.235 74.1226 367.729 74.4386C368.222 74.7511 368.784 74.9074 369.412 74.9074C370.037 74.9074 370.596 74.7511 371.09 74.4386C371.587 74.1226 371.978 73.6609 372.262 73.0537C372.55 72.4429 372.693 71.6936 372.693 70.8058ZM378.14 71.4024V76.2604H376.548V68.0786H378.076V69.4102H378.178C378.366 68.977 378.661 68.629 379.062 68.3662C379.467 68.1034 379.976 67.972 380.591 67.972C381.148 67.972 381.636 68.0892 382.055 68.3236C382.474 68.5544 382.799 68.8989 383.03 69.357C383.261 69.8151 383.376 70.3815 383.376 71.0562V76.2604H381.784V71.2479C381.784 70.6549 381.629 70.1915 381.32 69.8577C381.011 69.5203 380.587 69.3516 380.047 69.3516C379.678 69.3516 379.349 69.4315 379.062 69.5913C378.778 69.7511 378.552 69.9855 378.385 70.2945C378.222 70.5999 378.14 70.9692 378.14 71.4024ZM387.405 65.3513V76.2604H385.812V65.3513H387.405ZM389.848 76.2604V68.0786H391.441V76.2604H389.848ZM390.652 66.8161C390.375 66.8161 390.137 66.7238 389.938 66.5391C389.743 66.3509 389.645 66.1272 389.645 65.868C389.645 65.6052 389.743 65.3815 389.938 65.1968C390.137 65.0086 390.375 64.9145 390.652 64.9145C390.929 64.9145 391.165 65.0086 391.361 65.1968C391.559 65.3815 391.659 65.6052 391.659 65.868C391.659 66.1272 391.559 66.3509 391.361 66.5391C391.165 66.7238 390.929 66.8161 390.652 66.8161ZM395.476 71.4024V76.2604H393.883V68.0786H395.412V69.4102H395.513C395.701 68.977 395.996 68.629 396.397 68.3662C396.802 68.1034 397.312 67.972 397.926 67.972C398.484 67.972 398.972 68.0892 399.391 68.3236C399.81 68.5544 400.135 68.8989 400.366 69.357C400.597 69.8151 400.712 70.3815 400.712 71.0562V76.2604H399.119V71.2479C399.119 70.6549 398.965 70.1915 398.656 69.8577C398.347 69.5203 397.923 69.3516 397.383 69.3516C397.013 69.3516 396.685 69.4315 396.397 69.5913C396.113 69.7511 395.888 69.9855 395.721 70.2945C395.558 70.5999 395.476 70.9692 395.476 71.4024ZM406.674 76.4255C405.868 76.4255 405.174 76.2533 404.592 75.9088C404.013 75.5608 403.565 75.0725 403.249 74.444C402.937 73.8119 402.78 73.0715 402.78 72.2227C402.78 71.3847 402.937 70.646 403.249 70.0068C403.565 69.3676 404.006 68.8687 404.57 68.51C405.138 68.1514 405.802 67.972 406.562 67.972C407.024 67.972 407.472 68.0484 407.905 68.2011C408.338 68.3538 408.727 68.5935 409.071 68.9202C409.416 69.2469 409.687 69.6712 409.886 70.1933C410.085 70.7117 410.185 71.3421 410.185 72.0842V72.6489H403.681V71.4557H408.624C408.624 71.0367 408.539 70.6656 408.368 70.3424C408.198 70.0157 407.958 69.7582 407.649 69.57C407.344 69.3818 406.985 69.2877 406.573 69.2877C406.126 69.2877 405.735 69.3978 405.401 69.618C405.071 69.8346 404.815 70.1187 404.634 70.4702C404.457 70.8183 404.368 71.1965 404.368 71.6048V72.537C404.368 73.0839 404.464 73.5491 404.655 73.9326C404.851 74.3161 405.122 74.6091 405.47 74.8115C405.818 75.0104 406.225 75.1098 406.69 75.1098C406.992 75.1098 407.267 75.0672 407.516 74.982C407.764 74.8932 407.979 74.7618 408.16 74.5878C408.342 74.4138 408.48 74.1989 408.576 73.9433L410.083 74.2149C409.963 74.6588 409.746 75.0477 409.434 75.3815C409.125 75.7117 408.736 75.9692 408.267 76.1538C407.802 76.3349 407.271 76.4255 406.674 76.4255Z" fill="#C2BEBE"/>
</svg>
