<svg width="80" height="77" viewBox="0 0 80 77" fill="none" xmlns="http://www.w3.org/2000/svg">
<rect width="80" height="76.2781" rx="5" fill="url(#paint0_linear_916_5405)"/>
<path d="M19.8438 46.3359V56.1866C19.8438 56.762 20.2822 57.2283 20.823 57.2283H38.564C38.4104 56.88 38.3242 56.4917 38.3242 56.0822V46.3359H19.8438Z" fill="white"/>
<path d="M18.6603 44.7194H19.8442H38.3246V43.8218V42.55C38.3246 42.538 38.3249 42.5262 38.325 42.5143C38.3302 41.7217 38.5111 40.9726 38.8282 40.3092C38.9651 40.0229 39.1272 39.7525 39.3116 39.5016C39.5308 39.2032 39.7815 38.9321 40.058 38.6939C40.8591 38.0039 41.8785 37.5899 42.9872 37.5899H44.0915V35.3339C44.0915 33.6232 42.7878 32.2363 41.1797 32.2363H38.5451C38.0308 32.2363 37.5841 32.6128 37.4665 33.1455L36.2418 38.694L36.0635 39.5016L35.9373 40.0734C35.9197 40.1535 35.8989 40.2322 35.8751 40.3092H35.0631C35.0541 40.039 35.0283 39.7692 34.9859 39.5016C34.9786 39.4551 34.9709 39.4089 34.9626 39.3627L34.7997 38.6939L33.8415 34.7593L34.6063 32.9638C34.7515 32.6229 34.5172 32.2363 34.1653 32.2363H32.5239C32.1721 32.2363 31.9377 32.6229 32.083 32.9638L32.8477 34.7593L31.8532 38.6939L31.7021 39.2917C31.689 39.3615 31.6773 39.4315 31.6664 39.5016C31.6249 39.7693 31.5998 40.0389 31.5917 40.3092H30.8142C30.7905 40.2321 30.7697 40.1535 30.7519 40.0734L30.6257 39.5016L30.4474 38.6939L29.2228 33.1456C29.1052 32.6129 28.6585 32.2365 28.1442 32.2365H25.5097C23.9015 32.2365 22.5978 33.6233 22.5978 35.3341V38.6942V39.5018V40.3095H18.6603C17.8491 40.3095 17.1914 41.009 17.1914 41.872V43.1571C17.1914 44.0199 17.8491 44.7194 18.6603 44.7194Z" fill="white"/>
<path d="M33.3439 30.5438C36.9532 30.5438 39.8791 27.4313 39.8791 23.5918V16.2025C39.8791 15.2446 39.0683 14.5178 38.1808 14.6799C36.2578 15.0314 31.8727 15.9623 29.1443 16.5479C27.7855 16.8395 26.8086 18.1097 26.8086 19.5842V23.5919C26.8086 27.4313 29.7346 30.5438 33.3439 30.5438Z" fill="white"/>
<path d="M42.9869 39.1533C42.4804 39.1533 42.0018 39.2793 41.5762 39.5024C41.1981 39.7008 40.8626 39.9765 40.5872 40.3101C40.1 40.8999 39.802 41.6704 39.7938 42.5152C39.7937 42.5271 39.793 42.5389 39.793 42.5508V43.8226V44.7203V45.5278V46.3355V56.0816C39.793 56.7146 40.2754 57.2278 40.8704 57.2278H57.2277H62.2901C62.8852 57.2278 63.3676 56.7146 63.3676 56.0816V42.5508C63.3676 40.9068 62.2698 39.5355 60.8114 39.2212C60.6054 39.1768 60.3922 39.1533 60.1738 39.1533H44.0913H42.9869Z" fill="white"/>
<path d="M51.5821 37.3175C55.5408 37.3175 58.75 33.9036 58.75 29.6923V25.2966C58.75 23.6793 57.6785 22.2861 56.1883 21.9663C53.1956 21.324 48.386 20.303 46.2768 19.9175C46.1848 19.9007 46.0935 19.8926 46.0037 19.8926C45.1433 19.8926 44.4141 20.6361 44.4141 21.5875V29.6923C44.4141 33.9036 47.6233 37.3175 51.5821 37.3175Z" fill="white"/>
<defs>
<linearGradient id="paint0_linear_916_5405" x1="14" y1="-9.53476" x2="50.9181" y2="77.5841" gradientUnits="userSpaceOnUse">
<stop stop-color="#5C67C7"/>
<stop offset="1" stop-color="#23329C"/>
</linearGradient>
</defs>
</svg>
