<svg width="237" height="29" viewBox="0 0 237 29" fill="none" xmlns="http://www.w3.org/2000/svg">
<rect width="237" height="29" rx="14.5" fill="white" fill-opacity="0.1"/>
<rect x="0.5" y="0.5" width="236" height="28" rx="14" stroke="white" stroke-opacity="0.1"/>
<path d="M21.3385 19V9.54545H22.765V17.772H27.0491V19H21.3385ZM31.6692 19.157C31.2198 19.157 30.8136 19.0739 30.4504 18.9077C30.0872 18.7384 29.7995 18.4937 29.5871 18.1737C29.3778 17.8536 29.2732 17.4612 29.2732 16.9964C29.2732 16.5964 29.3501 16.267 29.504 16.0085C29.6579 15.75 29.8657 15.5453 30.1273 15.3945C30.3889 15.2437 30.6812 15.1299 31.0044 15.0529C31.3275 14.976 31.6568 14.9175 31.9923 14.8775C32.417 14.8282 32.7617 14.7882 33.0264 14.7575C33.2911 14.7236 33.4834 14.6697 33.6035 14.5959C33.7235 14.522 33.7835 14.402 33.7835 14.2358V14.2035C33.7835 13.8003 33.6696 13.4879 33.4419 13.2663C33.2172 13.0447 32.8818 12.9339 32.4355 12.9339C31.9708 12.9339 31.6045 13.037 31.3368 13.2433C31.0721 13.4464 30.889 13.6726 30.7874 13.9219L29.4902 13.6264C29.6441 13.1955 29.8687 12.8478 30.1642 12.5831C30.4627 12.3153 30.8059 12.1214 31.1937 12.0014C31.5814 11.8783 31.9892 11.8168 32.417 11.8168C32.7002 11.8168 33.0002 11.8506 33.3172 11.9183C33.6373 11.983 33.9358 12.103 34.2128 12.2784C34.4929 12.4538 34.7222 12.7047 34.9007 13.0309C35.0792 13.354 35.1684 13.7741 35.1684 14.2912V19H33.8204V18.0305H33.765C33.6758 18.209 33.5419 18.3845 33.3634 18.5568C33.1849 18.7292 32.9556 18.8723 32.6755 18.9862C32.3955 19.1 32.06 19.157 31.6692 19.157ZM31.9692 18.049C32.3509 18.049 32.6771 17.9736 32.9479 17.8228C33.2218 17.672 33.4296 17.475 33.5711 17.2319C33.7158 16.9857 33.7881 16.7225 33.7881 16.4425V15.5284C33.7389 15.5777 33.6435 15.6238 33.5019 15.6669C33.3634 15.7069 33.2049 15.7423 33.0264 15.7731C32.8479 15.8008 32.674 15.8269 32.5047 15.8516C32.3355 15.8731 32.1939 15.8916 32.08 15.907C31.8123 15.9408 31.5676 15.9978 31.346 16.0778C31.1275 16.1578 30.9521 16.2732 30.8197 16.424C30.6905 16.5717 30.6258 16.7687 30.6258 17.0149C30.6258 17.3565 30.752 17.6151 31.0044 17.7905C31.2568 17.9628 31.5784 18.049 31.9692 18.049ZM42.5388 16.0593V11.9091H43.9237V19H42.5665V17.772H42.4926C42.3295 18.1506 42.0679 18.466 41.7078 18.7184C41.3508 18.9677 40.9061 19.0923 40.3737 19.0923C39.9182 19.0923 39.515 18.9923 39.1641 18.7923C38.8164 18.5891 38.5425 18.2891 38.3424 17.892C38.1454 17.495 38.047 17.0041 38.047 16.4194V11.9091H39.4273V16.2532C39.4273 16.7364 39.5612 17.1211 39.8289 17.4073C40.0967 17.6935 40.4444 17.8366 40.8722 17.8366C41.1308 17.8366 41.3877 17.772 41.6432 17.6428C41.9017 17.5135 42.1156 17.3181 42.2849 17.0565C42.4572 16.7949 42.5419 16.4625 42.5388 16.0593ZM49.8053 19.1431C49.1189 19.1431 48.528 18.9877 48.0325 18.6768C47.5401 18.3629 47.1616 17.9305 46.8969 17.3796C46.6322 16.8287 46.4999 16.1978 46.4999 15.4869C46.4999 14.7667 46.6353 14.1312 46.9061 13.5803C47.1769 13.0263 47.5586 12.5939 48.051 12.283C48.5434 11.9722 49.1236 11.8168 49.7914 11.8168C50.33 11.8168 50.8101 11.9168 51.2318 12.1168C51.6534 12.3138 51.9935 12.5908 52.252 12.9478C52.5136 13.3048 52.669 13.7218 52.7183 14.1989H51.3749C51.301 13.8665 51.1317 13.5803 50.8671 13.3402C50.6055 13.1001 50.2546 12.9801 49.8145 12.9801C49.4298 12.9801 49.0928 13.0817 48.8035 13.2848C48.5173 13.4848 48.2941 13.7711 48.1341 14.1435C47.9741 14.5128 47.894 14.9498 47.894 15.4545C47.894 15.9716 47.9725 16.4179 48.1295 16.7933C48.2864 17.1688 48.508 17.4596 48.7943 17.6658C49.0836 17.872 49.4236 17.9751 49.8145 17.9751C50.0761 17.9751 50.3131 17.9274 50.5254 17.832C50.7409 17.7335 50.9209 17.5935 51.0656 17.4119C51.2133 17.2304 51.3164 17.0118 51.3749 16.7564H52.7183C52.669 17.215 52.5198 17.6243 52.2705 17.9844C52.0212 18.3445 51.6872 18.6276 51.2687 18.8338C50.8532 19.04 50.3654 19.1431 49.8053 19.1431ZM56.6147 14.7898V19H55.2344V9.54545H56.5962V13.0632H56.684C56.8501 12.6816 57.1041 12.3784 57.4457 12.1538C57.7873 11.9291 58.2336 11.8168 58.7845 11.8168C59.2707 11.8168 59.6954 11.9168 60.0586 12.1168C60.4248 12.3169 60.708 12.6154 60.908 13.0124C61.1112 13.4064 61.2127 13.8988 61.2127 14.4897V19H59.8324V14.6559C59.8324 14.1358 59.6985 13.7326 59.4308 13.4464C59.163 13.1571 58.7906 13.0124 58.3136 13.0124C57.9873 13.0124 57.695 13.0817 57.4364 13.2202C57.181 13.3587 56.9794 13.5618 56.8317 13.8295C56.687 14.0942 56.6147 14.4143 56.6147 14.7898ZM64.0947 19V11.9091H65.475V19H64.0947ZM64.7918 10.815C64.5517 10.815 64.3455 10.735 64.1732 10.5749C64.0039 10.4118 63.9193 10.2179 63.9193 9.99325C63.9193 9.76551 64.0039 9.57161 64.1732 9.41158C64.3455 9.24846 64.5517 9.1669 64.7918 9.1669C65.0318 9.1669 65.2365 9.24846 65.4058 9.41158C65.5781 9.57161 65.6643 9.76551 65.6643 9.99325C65.6643 10.2179 65.5781 10.4118 65.4058 10.5749C65.2365 10.735 65.0318 10.815 64.7918 10.815ZM69.7523 14.7898V19H68.372V11.9091H69.6969V13.0632H69.7846C69.9478 12.6877 70.2032 12.3861 70.551 12.1584C70.9018 11.9306 71.3435 11.8168 71.8759 11.8168C72.3591 11.8168 72.7823 11.9183 73.1454 12.1214C73.5086 12.3215 73.7902 12.62 73.9902 13.017C74.1903 13.4141 74.2903 13.9049 74.2903 14.4897V19H72.91V14.6559C72.91 14.1419 72.7761 13.7403 72.5084 13.451C72.2406 13.1586 71.8728 13.0124 71.405 13.0124C71.0849 13.0124 70.8003 13.0817 70.551 13.2202C70.3048 13.3587 70.1093 13.5618 69.9647 13.8295C69.8231 14.0942 69.7523 14.4143 69.7523 14.7898ZM80.1545 21.8068C79.5913 21.8068 79.1066 21.733 78.7003 21.5852C78.2972 21.4375 77.9679 21.2421 77.7124 20.9989C77.457 20.7558 77.2662 20.4896 77.14 20.2003L78.3264 19.7109C78.4095 19.8464 78.5203 19.9895 78.6588 20.1403C78.8004 20.2942 78.9912 20.425 79.2312 20.5327C79.4744 20.6404 79.7868 20.6942 80.1684 20.6942C80.6916 20.6942 81.124 20.5665 81.4656 20.3111C81.8072 20.0587 81.978 19.6555 81.978 19.1016V17.7074H81.8903C81.8072 17.8582 81.6872 18.0259 81.5303 18.2106C81.3764 18.3952 81.164 18.5553 80.8932 18.6907C80.6223 18.8261 80.27 18.8938 79.836 18.8938C79.2759 18.8938 78.7711 18.763 78.3218 18.5014C77.8755 18.2367 77.5216 17.8474 77.26 17.3335C77.0015 16.8164 76.8722 16.1809 76.8722 15.4268C76.8722 14.6728 76.9999 14.0265 77.2554 13.4879C77.5139 12.9493 77.8678 12.5369 78.3172 12.2507C78.7665 11.9614 79.2759 11.8168 79.8452 11.8168C80.2853 11.8168 80.6408 11.8906 80.9116 12.0384C81.1825 12.183 81.3933 12.3523 81.5441 12.5462C81.698 12.7401 81.8165 12.9109 81.8996 13.0586H82.0011V11.9091H83.3538V19.157C83.3538 19.7663 83.2122 20.2665 82.929 20.6573C82.6459 21.0482 82.2627 21.3375 81.7795 21.5252C81.2994 21.7129 80.7578 21.8068 80.1545 21.8068ZM80.1407 17.7489C80.5377 17.7489 80.8732 17.6566 81.1471 17.4719C81.4241 17.2842 81.6334 17.0165 81.7749 16.6687C81.9196 16.3178 81.9919 15.8977 81.9919 15.4084C81.9919 14.9313 81.9211 14.5112 81.7795 14.1481C81.638 13.7849 81.4302 13.5018 81.1563 13.2987C80.8824 13.0924 80.5439 12.9893 80.1407 12.9893C79.7252 12.9893 79.379 13.0971 79.102 13.3125C78.825 13.5249 78.6157 13.8142 78.4741 14.1804C78.3356 14.5466 78.2664 14.956 78.2664 15.4084C78.2664 15.8731 78.3372 16.2809 78.4788 16.6317C78.6203 16.9826 78.8296 17.2565 79.1066 17.4535C79.3867 17.6504 79.7314 17.7489 80.1407 17.7489ZM93.7123 19.1431C93.0475 19.1431 92.4673 18.9908 91.9718 18.6861C91.4763 18.3814 91.0916 17.9551 90.8177 17.4073C90.5438 16.8595 90.4069 16.2193 90.4069 15.4869C90.4069 14.7513 90.5438 14.1081 90.8177 13.5572C91.0916 13.0063 91.4763 12.5785 91.9718 12.2738C92.4673 11.9691 93.0475 11.8168 93.7123 11.8168C94.377 11.8168 94.9572 11.9691 95.4527 12.2738C95.9482 12.5785 96.3329 13.0063 96.6068 13.5572C96.8807 14.1081 97.0177 14.7513 97.0177 15.4869C97.0177 16.2193 96.8807 16.8595 96.6068 17.4073C96.3329 17.9551 95.9482 18.3814 95.4527 18.6861C94.9572 18.9908 94.377 19.1431 93.7123 19.1431ZM93.7169 17.9844C94.1477 17.9844 94.5048 17.8705 94.7879 17.6428C95.071 17.415 95.2803 17.1119 95.4157 16.7333C95.5542 16.3548 95.6235 15.9377 95.6235 15.4822C95.6235 15.0298 95.5542 14.6143 95.4157 14.2358C95.2803 13.8542 95.071 13.5479 94.7879 13.3171C94.5048 13.0863 94.1477 12.9709 93.7169 12.9709C93.2829 12.9709 92.9228 13.0863 92.6366 13.3171C92.3535 13.5479 92.1427 13.8542 92.0042 14.2358C91.8687 14.6143 91.801 15.0298 91.801 15.4822C91.801 15.9377 91.8687 16.3548 92.0042 16.7333C92.1427 17.1119 92.3535 17.415 92.6366 17.6428C92.9228 17.8705 93.2829 17.9844 93.7169 17.9844ZM104.09 16.0593V11.9091H105.475V19H104.118V17.772H104.044C103.881 18.1506 103.619 18.466 103.259 18.7184C102.902 18.9677 102.458 19.0923 101.925 19.0923C101.47 19.0923 101.066 18.9923 100.716 18.7923C100.368 18.5891 100.094 18.2891 99.8939 17.892C99.6969 17.495 99.5984 17.0041 99.5984 16.4194V11.9091H100.979V16.2532C100.979 16.7364 101.113 17.1211 101.38 17.4073C101.648 17.6935 101.996 17.8366 102.424 17.8366C102.682 17.8366 102.939 17.772 103.195 17.6428C103.453 17.5135 103.667 17.3181 103.836 17.0565C104.009 16.7949 104.093 16.4625 104.09 16.0593ZM108.37 19V11.9091H109.704V13.0355H109.778C109.907 12.6539 110.135 12.3538 110.461 12.1353C110.79 11.9137 111.163 11.8029 111.578 11.8029C111.664 11.8029 111.766 11.806 111.883 11.8121C112.003 11.8183 112.097 11.826 112.165 11.8352V13.1555C112.109 13.1402 112.011 13.1232 111.869 13.1048C111.728 13.0832 111.586 13.0724 111.444 13.0724C111.118 13.0724 110.827 13.1417 110.572 13.2802C110.32 13.4156 110.119 13.6049 109.972 13.848C109.824 14.0881 109.75 14.362 109.75 14.6697V19H108.37ZM118.99 19V9.54545H122.36C123.096 9.54545 123.705 9.67933 124.188 9.94709C124.672 10.2148 125.033 10.5811 125.273 11.0458C125.513 11.5075 125.633 12.0276 125.633 12.6062C125.633 13.1879 125.512 13.7111 125.269 14.1758C125.029 14.6374 124.666 15.0037 124.179 15.2745C123.696 15.5423 123.088 15.6761 122.356 15.6761H120.038V14.4666H122.226C122.691 14.4666 123.068 14.3866 123.358 14.2266C123.647 14.0634 123.859 13.8419 123.995 13.5618C124.13 13.2817 124.198 12.9632 124.198 12.6062C124.198 12.2492 124.13 11.9322 123.995 11.6552C123.859 11.3782 123.645 11.1612 123.353 11.0043C123.064 10.8473 122.682 10.7688 122.208 10.7688H120.417V19H118.99ZM128.235 19V11.9091H129.569V13.0355H129.643C129.772 12.6539 130 12.3538 130.326 12.1353C130.656 11.9137 131.028 11.8029 131.443 11.8029C131.53 11.8029 131.631 11.806 131.748 11.8121C131.868 11.8183 131.962 11.826 132.03 11.8352V13.1555C131.974 13.1402 131.876 13.1232 131.734 13.1048C131.593 13.0832 131.451 13.0724 131.31 13.0724C130.983 13.0724 130.692 13.1417 130.437 13.2802C130.185 13.4156 129.985 13.6049 129.837 13.848C129.689 14.0881 129.615 14.362 129.615 14.6697V19H128.235ZM134.264 19V11.9091H135.645V19H134.264ZM134.961 10.815C134.721 10.815 134.515 10.735 134.343 10.5749C134.173 10.4118 134.089 10.2179 134.089 9.99325C134.089 9.76551 134.173 9.57161 134.343 9.41158C134.515 9.24846 134.721 9.1669 134.961 9.1669C135.201 9.1669 135.406 9.24846 135.575 9.41158C135.748 9.57161 135.834 9.76551 135.834 9.99325C135.834 10.2179 135.748 10.4118 135.575 10.5749C135.406 10.735 135.201 10.815 134.961 10.815ZM144.608 11.9091L142.036 19H140.559L137.983 11.9091H139.465L141.261 17.3658H141.334L143.126 11.9091H144.608ZM148.805 19.157C148.356 19.157 147.95 19.0739 147.587 18.9077C147.223 18.7384 146.936 18.4937 146.723 18.1737C146.514 17.8536 146.409 17.4612 146.409 16.9964C146.409 16.5964 146.486 16.267 146.64 16.0085C146.794 15.75 147.002 15.5453 147.263 15.3945C147.525 15.2437 147.817 15.1299 148.14 15.0529C148.464 14.976 148.793 14.9175 149.128 14.8775C149.553 14.8282 149.898 14.7882 150.162 14.7575C150.427 14.7236 150.62 14.6697 150.74 14.5959C150.86 14.522 150.92 14.402 150.92 14.2358V14.2035C150.92 13.8003 150.806 13.4879 150.578 13.2663C150.353 13.0447 150.018 12.9339 149.572 12.9339C149.107 12.9339 148.741 13.037 148.473 13.2433C148.208 13.4464 148.025 13.6726 147.924 13.9219L146.626 13.6264C146.78 13.1955 147.005 12.8478 147.3 12.5831C147.599 12.3153 147.942 12.1214 148.33 12.0014C148.718 11.8783 149.125 11.8168 149.553 11.8168C149.836 11.8168 150.136 11.8506 150.453 11.9183C150.773 11.983 151.072 12.103 151.349 12.2784C151.629 12.4538 151.858 12.7047 152.037 13.0309C152.215 13.354 152.305 13.7741 152.305 14.2912V19H150.957V18.0305H150.901C150.812 18.209 150.678 18.3845 150.499 18.5568C150.321 18.7292 150.092 18.8723 149.812 18.9862C149.532 19.1 149.196 19.157 148.805 19.157ZM149.105 18.049C149.487 18.049 149.813 17.9736 150.084 17.8228C150.358 17.672 150.566 17.475 150.707 17.2319C150.852 16.9857 150.924 16.7225 150.924 16.4425V15.5284C150.875 15.5777 150.78 15.6238 150.638 15.6669C150.499 15.7069 150.341 15.7423 150.162 15.7731C149.984 15.8008 149.81 15.8269 149.641 15.8516C149.472 15.8731 149.33 15.8916 149.216 15.907C148.948 15.9408 148.704 15.9978 148.482 16.0778C148.264 16.1578 148.088 16.2732 147.956 16.424C147.827 16.5717 147.762 16.7687 147.762 17.0149C147.762 17.3565 147.888 17.6151 148.14 17.7905C148.393 17.9628 148.714 18.049 149.105 18.049ZM158.493 11.9091V13.017H154.62V11.9091H158.493ZM155.659 10.2102H157.039V16.918C157.039 17.1857 157.079 17.3873 157.159 17.5227C157.239 17.6551 157.342 17.7459 157.468 17.7951C157.597 17.8413 157.738 17.8643 157.888 17.8643C157.999 17.8643 158.096 17.8567 158.179 17.8413C158.262 17.8259 158.327 17.8136 158.373 17.8043L158.622 18.9446C158.542 18.9754 158.428 19.0062 158.281 19.0369C158.133 19.0708 157.948 19.0893 157.727 19.0923C157.364 19.0985 157.025 19.0339 156.711 18.8984C156.397 18.763 156.143 18.5537 155.949 18.2706C155.755 17.9875 155.659 17.632 155.659 17.2042V10.2102ZM164.04 19.1431C163.341 19.1431 162.74 18.9938 162.235 18.6953C161.733 18.3937 161.345 17.9705 161.072 17.4258C160.801 16.878 160.665 16.2363 160.665 15.5007C160.665 14.7744 160.801 14.1342 161.072 13.5803C161.345 13.0263 161.727 12.5939 162.216 12.283C162.709 11.9722 163.284 11.8168 163.943 11.8168C164.343 11.8168 164.731 11.8829 165.106 12.0153C165.482 12.1476 165.819 12.3554 166.117 12.6385C166.416 12.9216 166.651 13.2894 166.824 13.7418C166.996 14.1912 167.082 14.7375 167.082 15.3807V15.87H161.445V14.8359H165.73C165.73 14.4728 165.656 14.1512 165.508 13.8711C165.36 13.5879 165.152 13.3648 164.885 13.2017C164.62 13.0386 164.309 12.957 163.952 12.957C163.564 12.957 163.226 13.0524 162.937 13.2433C162.65 13.431 162.429 13.6772 162.272 13.9819C162.118 14.2835 162.041 14.6113 162.041 14.9652V15.7731C162.041 16.247 162.124 16.6502 162.29 16.9826C162.46 17.315 162.695 17.5689 162.997 17.7443C163.298 17.9167 163.651 18.0028 164.054 18.0028C164.315 18.0028 164.554 17.9659 164.769 17.892C164.985 17.8151 165.171 17.7012 165.328 17.5504C165.485 17.3996 165.605 17.2134 165.688 16.9918L166.994 17.2273C166.89 17.612 166.702 17.949 166.431 18.2383C166.163 18.5245 165.826 18.7476 165.42 18.9077C165.017 19.0646 164.557 19.1431 164.04 19.1431ZM174.245 19V9.54545H177.707C178.378 9.54545 178.934 9.65625 179.374 9.87784C179.814 10.0964 180.143 10.3933 180.362 10.7688C180.58 11.1412 180.69 11.5613 180.69 12.0291C180.69 12.4231 180.617 12.7554 180.473 13.0263C180.328 13.294 180.134 13.5095 179.891 13.6726C179.651 13.8326 179.386 13.9496 179.097 14.0234V14.1158C179.411 14.1312 179.717 14.2327 180.015 14.4205C180.317 14.6051 180.566 14.8683 180.763 15.2099C180.96 15.5515 181.059 15.967 181.059 16.4563C181.059 16.9395 180.945 17.3735 180.717 17.7582C180.493 18.1398 180.145 18.4429 179.674 18.6676C179.203 18.8892 178.601 19 177.869 19H174.245ZM175.671 17.7766H177.73C178.414 17.7766 178.903 17.6443 179.198 17.3796C179.494 17.1149 179.642 16.7841 179.642 16.3871C179.642 16.0885 179.566 15.8146 179.415 15.5653C179.265 15.3161 179.049 15.1175 178.769 14.9698C178.492 14.8221 178.163 14.7482 177.781 14.7482H175.671V17.7766ZM175.671 13.6357H177.583C177.903 13.6357 178.19 13.5741 178.446 13.451C178.704 13.3279 178.909 13.1555 179.06 12.9339C179.214 12.7093 179.291 12.4446 179.291 12.1399C179.291 11.7491 179.154 11.4213 178.88 11.1566C178.606 10.8919 178.186 10.7596 177.62 10.7596H175.671V13.6357ZM186.736 19.1431C186.037 19.1431 185.436 18.9938 184.931 18.6953C184.429 18.3937 184.042 17.9705 183.768 17.4258C183.497 16.878 183.361 16.2363 183.361 15.5007C183.361 14.7744 183.497 14.1342 183.768 13.5803C184.042 13.0263 184.423 12.5939 184.913 12.283C185.405 11.9722 185.981 11.8168 186.639 11.8168C187.039 11.8168 187.427 11.8829 187.802 12.0153C188.178 12.1476 188.515 12.3554 188.813 12.6385C189.112 12.9216 189.347 13.2894 189.52 13.7418C189.692 14.1912 189.778 14.7375 189.778 15.3807V15.87H184.142V14.8359H188.426C188.426 14.4728 188.352 14.1512 188.204 13.8711C188.056 13.5879 187.849 13.3648 187.581 13.2017C187.316 13.0386 187.005 12.957 186.648 12.957C186.261 12.957 185.922 13.0524 185.633 13.2433C185.347 13.431 185.125 13.6772 184.968 13.9819C184.814 14.2835 184.737 14.6113 184.737 14.9652V15.7731C184.737 16.247 184.82 16.6502 184.986 16.9826C185.156 17.315 185.391 17.5689 185.693 17.7443C185.994 17.9167 186.347 18.0028 186.75 18.0028C187.012 18.0028 187.25 17.9659 187.465 17.892C187.681 17.8151 187.867 17.7012 188.024 17.5504C188.181 17.3996 188.301 17.2134 188.384 16.9918L189.691 17.2273C189.586 17.612 189.398 17.949 189.127 18.2383C188.86 18.5245 188.523 18.7476 188.116 18.9077C187.713 19.0646 187.253 19.1431 186.736 19.1431ZM195.66 11.9091V13.017H191.787V11.9091H195.66ZM192.825 10.2102H194.206V16.918C194.206 17.1857 194.246 17.3873 194.326 17.5227C194.406 17.6551 194.509 17.7459 194.635 17.7951C194.764 17.8413 194.904 17.8643 195.055 17.8643C195.166 17.8643 195.263 17.8567 195.346 17.8413C195.429 17.8259 195.494 17.8136 195.54 17.8043L195.789 18.9446C195.709 18.9754 195.595 19.0062 195.448 19.0369C195.3 19.0708 195.115 19.0893 194.894 19.0923C194.53 19.0985 194.192 19.0339 193.878 18.8984C193.564 18.763 193.31 18.5537 193.116 18.2706C192.922 17.9875 192.825 17.632 192.825 17.2042V10.2102ZM200.29 19.157C199.841 19.157 199.435 19.0739 199.072 18.9077C198.708 18.7384 198.421 18.4937 198.208 18.1737C197.999 17.8536 197.894 17.4612 197.894 16.9964C197.894 16.5964 197.971 16.267 198.125 16.0085C198.279 15.75 198.487 15.5453 198.748 15.3945C199.01 15.2437 199.302 15.1299 199.626 15.0529C199.949 14.976 200.278 14.9175 200.613 14.8775C201.038 14.8282 201.383 14.7882 201.648 14.7575C201.912 14.7236 202.105 14.6697 202.225 14.5959C202.345 14.522 202.405 14.402 202.405 14.2358V14.2035C202.405 13.8003 202.291 13.4879 202.063 13.2663C201.838 13.0447 201.503 12.9339 201.057 12.9339C200.592 12.9339 200.226 13.037 199.958 13.2433C199.693 13.4464 199.51 13.6726 199.409 13.9219L198.111 13.6264C198.265 13.1955 198.49 12.8478 198.785 12.5831C199.084 12.3153 199.427 12.1214 199.815 12.0014C200.203 11.8783 200.61 11.8168 201.038 11.8168C201.321 11.8168 201.621 11.8506 201.938 11.9183C202.258 11.983 202.557 12.103 202.834 12.2784C203.114 12.4538 203.343 12.7047 203.522 13.0309C203.7 13.354 203.79 13.7741 203.79 14.2912V19H202.442V18.0305H202.386C202.297 18.209 202.163 18.3845 201.985 18.5568C201.806 18.7292 201.577 18.8723 201.297 18.9862C201.017 19.1 200.681 19.157 200.29 19.157ZM200.59 18.049C200.972 18.049 201.298 17.9736 201.569 17.8228C201.843 17.672 202.051 17.475 202.192 17.2319C202.337 16.9857 202.409 16.7225 202.409 16.4425V15.5284C202.36 15.5777 202.265 15.6238 202.123 15.6669C201.985 15.7069 201.826 15.7423 201.648 15.7731C201.469 15.8008 201.295 15.8269 201.126 15.8516C200.957 15.8731 200.815 15.8916 200.701 15.907C200.433 15.9408 200.189 15.9978 199.967 16.0778C199.749 16.1578 199.573 16.2732 199.441 16.424C199.312 16.5717 199.247 16.7687 199.247 17.0149C199.247 17.3565 199.373 17.6151 199.626 17.7905C199.878 17.9628 200.2 18.049 200.59 18.049Z" fill="#F7F8F8"/>
<g clip-path="url(#clip0_257_6234)">
<path d="M213.47 18.4697C213.177 18.7626 213.177 19.2374 213.47 19.5303C213.763 19.8232 214.237 19.8232 214.53 19.5303L218.53 15.5303C218.821 15.24 218.824 14.7701 218.537 14.4762L214.634 10.4762C214.345 10.1798 213.87 10.1739 213.574 10.4632C213.277 10.7524 213.271 11.2273 213.561 11.5238L216.946 14.9935L213.47 18.4697Z" fill="#F7F8F8"/>
</g>
<defs>
<clipPath id="clip0_257_6234">
<rect width="16" height="16" fill="white" transform="translate(208 7)"/>
</clipPath>
</defs>
</svg>
