<svg width="20" height="26" viewBox="0 0 20 26" fill="none" xmlns="http://www.w3.org/2000/svg">
<path d="M7.7693 3.17457C6.8861 3.47264 6.0588 3.95172 5.32213 4.59727L4.12709 3.03984L1.86877 5.98252L3.08338 7.56491C2.61902 8.49292 2.27045 9.52392 2.05204 10.6251H0.191406V15.8431H2.05204C2.27564 16.9693 2.63419 18.0242 3.11412 18.9689L1.86917 20.5908L4.12749 23.533L5.37284 21.911C6.09912 22.5379 6.91126 23.0055 7.77769 23.2968V25.7188H9.39956V21.5329C6.04682 21.279 3.38563 17.6663 3.38563 13.2344C3.38563 8.80191 6.04682 5.18976 9.39956 4.93591V0.75H7.7693V3.17457Z" fill="white"/>
<path d="M6.18164 13.2344C6.18164 15.6553 7.59189 17.6466 9.40062 17.8905V15.7859C8.47749 15.5575 7.77875 14.5036 7.77875 13.2344C7.77875 11.9651 8.47749 10.9112 9.40062 10.6829V8.57822C7.59189 8.82218 6.18164 10.8134 6.18164 13.2344Z" fill="white"/>
<path d="M14.7811 1.83511V0.781219H10.4062V4.94268H14.7811V3.90232H17.5677V21.5885H10.4062V22.6289V23.3228V25.75H19.1648V1.83511H14.7811Z" fill="white"/>
<path d="M16.1666 10.4795L14.3371 12.8624L14.3407 12.8656L11.8464 16.1152L10.4062 14.2378V16.0491L11.4655 17.4286L11.4627 17.4328L11.8397 17.9217L11.8425 17.9191L11.8448 17.9217L12.0125 17.7043L12.0137 17.7053L15.0351 13.7707L16.8634 11.3877L16.1666 10.4795Z" fill="white"/>
</svg>
