<svg width="115" height="111" viewBox="0 0 115 111" fill="none" xmlns="http://www.w3.org/2000/svg">
<rect x="17" y="16.6206" width="80" height="76.2781" rx="5" fill="url(#paint0_linear_284_1466)"/>
<rect x="12" y="11.8999" width="90" height="85.7198" rx="9" stroke="url(#paint1_linear_284_1466)" stroke-width="2"/>
<rect x="6" y="6.17896" width="102" height="97.1615" rx="9" stroke="url(#paint2_linear_284_1466)" stroke-width="2"/>
<rect x="1" y="1.41162" width="113" height="107.65" rx="9" stroke="url(#paint3_linear_284_1466)" stroke-width="2"/>
<path d="M34.8438 60.2524V69.0816C34.8438 69.5973 35.2822 70.0153 35.823 70.0153H53.564C53.4104 69.7031 53.3242 69.355 53.3242 68.988V60.2524H34.8438Z" fill="white"/>
<path d="M33.6603 58.8049H34.8442H53.3246V58.0003V56.8604C53.3246 56.8497 53.3249 56.8391 53.325 56.8284C53.3302 56.118 53.5111 55.4466 53.8282 54.852C53.9651 54.5954 54.1272 54.353 54.3116 54.1281C54.5308 53.8607 54.7815 53.6177 55.058 53.4042C55.8591 52.7857 56.8785 52.4146 57.9872 52.4146H59.0915V50.3926C59.0915 48.8593 57.7878 47.6162 56.1797 47.6162H53.5451C53.0308 47.6162 52.5841 47.9537 52.4665 48.4311L51.2418 53.4042L51.0635 54.1282L50.9373 54.6406C50.9197 54.7124 50.8989 54.7829 50.8751 54.852H50.0631C50.0541 54.6098 50.0283 54.368 49.9859 54.1281C49.9786 54.0865 49.9709 54.0451 49.9626 54.0037L49.7997 53.4042L48.8415 49.8776L49.6063 48.2683C49.7515 47.9627 49.5172 47.6162 49.1653 47.6162H47.5239C47.1721 47.6162 46.9377 47.9627 47.083 48.2683L47.8477 49.8776L46.8532 53.4042L46.7021 53.94C46.689 54.0025 46.6773 54.0653 46.6664 54.1281C46.6249 54.3681 46.5998 54.6097 46.5917 54.852H45.8142C45.7905 54.7829 45.7697 54.7124 45.7519 54.6406L45.6257 54.1282L45.4474 53.4042L44.2228 48.4312C44.1052 47.9538 43.6585 47.6164 43.1442 47.6164H40.5097C38.9015 47.6164 37.5978 48.8594 37.5978 50.3928V53.4045V54.1283V54.8522H33.6603C32.8491 54.8522 32.1914 55.4792 32.1914 56.2527V57.4046C32.1914 58.1779 32.8491 58.8049 33.6603 58.8049Z" fill="white"/>
<path d="M48.3439 46.1159C51.9532 46.1159 54.8791 43.3261 54.8791 39.8847V33.2615C54.8791 32.403 54.0683 31.7515 53.1808 31.8968C51.2578 32.2118 46.8727 33.0462 44.1443 33.5711C42.7855 33.8325 41.8086 34.9709 41.8086 36.2926V39.8847C41.8086 43.3261 44.7346 46.1159 48.3439 46.1159Z" fill="white"/>
<path d="M57.9869 53.8152C57.4804 53.8152 57.0018 53.9281 56.5762 54.1281C56.1981 54.3059 55.8626 54.553 55.5872 54.852C55.1 55.3807 54.802 56.0713 54.7938 56.8284C54.7937 56.8391 54.793 56.8497 54.793 56.8604V58.0003V58.8049V59.5287V60.2526V68.9881C54.793 69.5555 55.2754 70.0154 55.8704 70.0154H72.2277H77.2901C77.8852 70.0154 78.3676 69.5555 78.3676 68.9881V56.8604C78.3676 55.3868 77.2698 54.1577 75.8114 53.876C75.6054 53.8362 75.3922 53.8152 75.1738 53.8152H59.0913H57.9869Z" fill="white"/>
<path d="M66.5821 52.1693C70.5408 52.1693 73.75 49.1094 73.75 45.3348V41.3949C73.75 39.9453 72.6785 38.6966 71.1883 38.4099C68.1956 37.8342 63.386 36.9191 61.2768 36.5736C61.1848 36.5585 61.0935 36.5513 61.0037 36.5513C60.1433 36.5513 59.4141 37.2177 59.4141 38.0704V45.3348C59.4141 49.1094 62.6233 52.1693 66.5821 52.1693Z" fill="white"/>
<defs>
<linearGradient id="paint0_linear_284_1466" x1="31" y1="7.08584" x2="67.9181" y2="94.2047" gradientUnits="userSpaceOnUse">
<stop stop-color="#5C67C7"/>
<stop offset="1" stop-color="#23329C"/>
</linearGradient>
<linearGradient id="paint1_linear_284_1466" x1="24" y1="54.7598" x2="78.4095" y2="91.444" gradientUnits="userSpaceOnUse">
<stop stop-color="#5C67C7"/>
<stop offset="1" stop-color="#3E0D81" stop-opacity="0"/>
</linearGradient>
<linearGradient id="paint2_linear_284_1466" x1="76" y1="111.968" x2="34.7145" y2="-17.9316" gradientUnits="userSpaceOnUse">
<stop stop-color="#5C67C7"/>
<stop offset="0.864444" stop-color="#3E0D81" stop-opacity="0"/>
</linearGradient>
<linearGradient id="paint3_linear_284_1466" x1="57.5" y1="0.411621" x2="42.472" y2="110.263" gradientUnits="userSpaceOnUse">
<stop stop-color="#5C67C7"/>
<stop offset="1" stop-color="#3E0D81" stop-opacity="0"/>
</linearGradient>
</defs>
</svg>
