<svg width="17" height="17" viewBox="0 0 17 17" fill="none" xmlns="http://www.w3.org/2000/svg">
<g clip-path="url(#clip0_751_2244)">
<path fill-rule="evenodd" clip-rule="evenodd" d="M13.5057 11.2014L15.606 12.0275C15.7092 12.068 15.791 12.1496 15.8317 12.2528C15.9027 12.4326 15.8344 12.633 15.6786 12.7346L15.6066 12.7718L9.20801 15.2986C9.01091 15.3765 8.79528 15.3893 8.59208 15.3371L8.47191 15.298L2.10415 12.7715C2.00146 12.7308 1.9202 12.6494 1.87962 12.5466C1.80863 12.3669 1.87692 12.1665 2.03276 12.0649L2.10475 12.0277L4.19463 11.2024L7.92073 12.6813C8.51051 12.9153 9.16681 12.9159 9.75696 12.6828L13.5057 11.2014ZM13.5057 7.18313L15.606 8.00914C15.7092 8.04971 15.791 8.13133 15.8317 8.23449C15.9027 8.41428 15.8344 8.61464 15.6786 8.71629L15.6066 8.75345L11.4517 10.3945L10.4706 10.7812L9.20801 11.2803L9.16856 11.2922L9.08722 11.3194C9.05457 11.3277 9.0216 11.3344 8.98844 11.3393C8.97741 11.3408 8.96703 11.3422 8.95663 11.3434C8.87697 11.353 8.79578 11.3526 8.71553 11.3425L8.59208 11.3188L8.47191 11.2797L7.24256 10.7912L6.24063 10.3945L2.10415 8.75322C2.00146 8.71248 1.9202 8.63108 1.87962 8.52833C1.80863 8.34854 1.87692 8.14817 2.03276 8.04654L2.10475 8.00937L4.19463 7.18413L7.92073 8.66302C8.51051 8.89703 9.16681 8.89755 9.75696 8.66449L13.5057 7.18313ZM8.47342 1.47614C8.7089 1.38316 8.97088 1.38295 9.2065 1.47556L15.606 3.99077C15.7092 4.03134 15.791 4.11296 15.8317 4.21612C15.9128 4.42159 15.8121 4.65394 15.6066 4.73509L11.4517 6.37613L9.20721 7.26225L9.12624 7.29021C9.10561 7.29635 9.08482 7.30182 9.06392 7.30661C8.9498 7.33299 8.83169 7.33883 8.71553 7.32413L8.59208 7.30044L8.47191 7.26135L2.10415 4.73485C2.00146 4.69411 1.9202 4.61271 1.87962 4.50996C1.79849 4.30448 1.89928 4.07214 2.10475 3.991L8.47342 1.47614Z" fill="#F7F8F8"/>
</g>
<defs>
<clipPath id="clip0_751_2244">
<rect width="16" height="16" fill="white" transform="translate(0.851562 0.40625)"/>
</clipPath>
</defs>
</svg>
