<svg width="17" height="17" viewBox="0 0 17 17" fill="none" xmlns="http://www.w3.org/2000/svg">
<g clip-path="url(#clip0_751_2237)">
<path d="M13.1144 9.29897C13.1144 11.4029 11.4089 13.1085 9.30495 13.1085L9.30469 5.48944C11.4086 5.48944 13.1144 7.19502 13.1144 9.29897Z" fill="#F7F8F8"/>
<path fill-rule="evenodd" clip-rule="evenodd" d="M9.30651 15.1656C12.5466 15.1656 15.1732 12.539 15.1732 9.29894C15.1732 6.05887 12.5466 3.43228 9.30651 3.43228C6.06644 3.43228 3.43984 6.05887 3.43984 9.29894C3.43984 12.539 6.06644 15.1656 9.30651 15.1656ZM9.30651 16.7656C13.4302 16.7656 16.7732 13.4227 16.7732 9.29894C16.7732 5.17522 13.4302 1.83228 9.30651 1.83228C5.18279 1.83228 1.83984 5.17522 1.83984 9.29894C1.83984 13.4227 5.18279 16.7656 9.30651 16.7656Z" fill="#F7F8F8"/>
</g>
<defs>
<clipPath id="clip0_751_2237">
<rect width="16" height="16" fill="white" transform="translate(0.773438 0.765625)"/>
</clipPath>
</defs>
</svg>
