<svg width="36" height="13" viewBox="0 0 36 13" fill="none" xmlns="http://www.w3.org/2000/svg">
<path d="M4.505 12.136C3.67767 12.136 2.95233 11.983 2.329 11.677C1.70567 11.3597 1.224 10.9177 0.884 10.351C0.544 9.78433 0.374 9.127 0.374 8.379V7.24C0.374 7.18333 0.391 7.138 0.425 7.104C0.470333 7.05867 0.521333 7.036 0.578 7.036H2.142C2.19867 7.036 2.244 7.05867 2.278 7.104C2.32333 7.138 2.346 7.18333 2.346 7.24V8.379C2.346 8.991 2.53867 9.48967 2.924 9.875C3.32067 10.249 3.84767 10.436 4.505 10.436C5.13967 10.436 5.661 10.249 6.069 9.875C6.477 9.48967 6.681 8.991 6.681 8.379V0.304C6.681 0.247333 6.698 0.202 6.732 0.167999C6.77733 0.122666 6.82833 0.0999992 6.885 0.0999992H8.432C8.48867 0.0999992 8.534 0.122666 8.568 0.167999C8.61333 0.202 8.636 0.247333 8.636 0.304V8.379C8.636 9.127 8.46033 9.78433 8.109 10.351C7.769 10.9177 7.28167 11.3597 6.647 11.677C6.02367 11.983 5.30967 12.136 4.505 12.136ZM14.5869 3.177C15.3009 3.177 15.9299 3.30167 16.4739 3.551C17.0179 3.80033 17.4373 4.146 17.7319 4.588C18.0266 5.01867 18.1739 5.51167 18.1739 6.067V11.796C18.1739 11.8527 18.1513 11.9037 18.1059 11.949C18.0719 11.983 18.0266 12 17.9699 12H16.4059C16.3493 12 16.2983 11.983 16.2529 11.949C16.2189 11.9037 16.2019 11.8527 16.2019 11.796V11.252C16.2019 11.218 16.1906 11.201 16.1679 11.201C16.1453 11.1897 16.1226 11.1953 16.0999 11.218C15.5446 11.83 14.7399 12.136 13.6859 12.136C12.8359 12.136 12.1333 11.9207 11.5779 11.49C11.0339 11.0593 10.7619 10.419 10.7619 9.569C10.7619 8.685 11.0679 7.99933 11.6799 7.512C12.3033 7.01333 13.1759 6.764 14.2979 6.764H16.1169C16.1736 6.764 16.2019 6.73567 16.2019 6.679V6.271C16.2019 5.829 16.0716 5.489 15.8109 5.251C15.5503 5.00167 15.1593 4.877 14.6379 4.877C14.2073 4.877 13.8559 4.95633 13.5839 5.115C13.3233 5.26233 13.1589 5.472 13.0909 5.744C13.0569 5.88 12.9776 5.93667 12.8529 5.914L11.2039 5.71C11.1473 5.69867 11.0963 5.68167 11.0509 5.659C11.0169 5.625 11.0056 5.58533 11.0169 5.54C11.1076 4.84867 11.4759 4.282 12.1219 3.84C12.7793 3.398 13.6009 3.177 14.5869 3.177ZM14.1789 10.572C14.7343 10.572 15.2103 10.4247 15.6069 10.13C16.0036 9.83533 16.2019 9.46133 16.2019 9.008V8.209C16.2019 8.15233 16.1736 8.124 16.1169 8.124H14.6889C14.0883 8.124 13.6123 8.23733 13.2609 8.464C12.9209 8.69067 12.7509 9.01367 12.7509 9.433C12.7509 9.79567 12.8813 10.079 13.1419 10.283C13.4139 10.4757 13.7596 10.572 14.1789 10.572ZM22.6571 12C22.5438 12 22.4701 11.9433 22.4361 11.83L19.6991 3.534C19.6878 3.51133 19.6821 3.483 19.6821 3.449C19.6821 3.347 19.7445 3.296 19.8691 3.296H21.6031C21.7278 3.296 21.8071 3.35267 21.8411 3.466L23.4901 9.144C23.5015 9.178 23.5185 9.195 23.5411 9.195C23.5638 9.195 23.5808 9.178 23.5921 9.144L25.2411 3.466C25.2751 3.35267 25.3545 3.296 25.4791 3.296L27.2131 3.33C27.2811 3.33 27.3321 3.35267 27.3661 3.398C27.4001 3.432 27.4058 3.48867 27.3831 3.568L24.6631 11.83C24.6291 11.9433 24.5555 12 24.4421 12H22.6571ZM32.1507 3.177C32.8647 3.177 33.4937 3.30167 34.0377 3.551C34.5817 3.80033 35.0011 4.146 35.2957 4.588C35.5904 5.01867 35.7377 5.51167 35.7377 6.067V11.796C35.7377 11.8527 35.7151 11.9037 35.6697 11.949C35.6357 11.983 35.5904 12 35.5337 12H33.9697C33.9131 12 33.8621 11.983 33.8167 11.949C33.7827 11.9037 33.7657 11.8527 33.7657 11.796V11.252C33.7657 11.218 33.7544 11.201 33.7317 11.201C33.7091 11.1897 33.6864 11.1953 33.6637 11.218C33.1084 11.83 32.3037 12.136 31.2497 12.136C30.3997 12.136 29.6971 11.9207 29.1417 11.49C28.5977 11.0593 28.3257 10.419 28.3257 9.569C28.3257 8.685 28.6317 7.99933 29.2437 7.512C29.8671 7.01333 30.7397 6.764 31.8617 6.764H33.6807C33.7374 6.764 33.7657 6.73567 33.7657 6.679V6.271C33.7657 5.829 33.6354 5.489 33.3747 5.251C33.1141 5.00167 32.7231 4.877 32.2017 4.877C31.7711 4.877 31.4197 4.95633 31.1477 5.115C30.8871 5.26233 30.7227 5.472 30.6547 5.744C30.6207 5.88 30.5414 5.93667 30.4167 5.914L28.7677 5.71C28.7111 5.69867 28.6601 5.68167 28.6147 5.659C28.5807 5.625 28.5694 5.58533 28.5807 5.54C28.6714 4.84867 29.0397 4.282 29.6857 3.84C30.3431 3.398 31.1647 3.177 32.1507 3.177ZM31.7427 10.572C32.2981 10.572 32.7741 10.4247 33.1707 10.13C33.5674 9.83533 33.7657 9.46133 33.7657 9.008V8.209C33.7657 8.15233 33.7374 8.124 33.6807 8.124H32.2527C31.6521 8.124 31.1761 8.23733 30.8247 8.464C30.4847 8.69067 30.3147 9.01367 30.3147 9.433C30.3147 9.79567 30.4451 10.079 30.7057 10.283C30.9777 10.4757 31.3234 10.572 31.7427 10.572Z" fill="#C2BEBE"/>
</svg>
