<svg width="610" height="47" viewBox="0 0 610 47" fill="none" xmlns="http://www.w3.org/2000/svg">
<path d="M1.59801 16V1.45455H3.79261V14.1108H10.3835V16H1.59801ZM18.0183 16.2202C16.9435 16.2202 16.0179 15.9905 15.2413 15.5312C14.4696 15.0672 13.873 14.4162 13.4516 13.5781C13.0349 12.7353 12.8266 11.7481 12.8266 10.6165C12.8266 9.49905 13.0349 8.5142 13.4516 7.66193C13.873 6.80966 14.4601 6.14441 15.2129 5.66619C15.9705 5.18797 16.8559 4.94886 17.8692 4.94886C18.4847 4.94886 19.0813 5.05066 19.6589 5.25426C20.2366 5.45786 20.7551 5.77746 21.2143 6.21307C21.6736 6.64867 22.0358 7.21449 22.301 7.91051C22.5661 8.6018 22.6987 9.44223 22.6987 10.4318V11.1847H14.0268V9.59375H20.6178C20.6178 9.03504 20.5041 8.54025 20.2768 8.10938C20.0496 7.67377 19.73 7.33049 19.318 7.07955C18.9108 6.8286 18.4326 6.70312 17.8834 6.70312C17.2868 6.70312 16.766 6.84991 16.3209 7.14347C15.8805 7.43229 15.5396 7.81108 15.2982 8.27983C15.0614 8.74384 14.943 9.24811 14.943 9.79261V11.0355C14.943 11.7647 15.0709 12.3849 15.3266 12.8963C15.587 13.4077 15.9492 13.7983 16.4132 14.0682C16.8772 14.3333 17.4194 14.4659 18.0396 14.4659C18.4421 14.4659 18.809 14.4091 19.1405 14.2955C19.4719 14.1771 19.7584 14.0019 19.9999 13.7699C20.2413 13.5379 20.426 13.2514 20.5538 12.9105L22.5638 13.2727C22.4028 13.8646 22.114 14.383 21.6973 14.8281C21.2854 15.2685 20.7669 15.6117 20.1419 15.858C19.5216 16.0994 18.8138 16.2202 18.0183 16.2202ZM28.8296 16.2415C28.1383 16.2415 27.5133 16.1136 26.9546 15.858C26.3959 15.5975 25.9532 15.2211 25.6265 14.7287C25.3045 14.2363 25.1435 13.6326 25.1435 12.9176C25.1435 12.3021 25.2619 11.7955 25.4987 11.3977C25.7354 11 26.055 10.6851 26.4575 10.4531C26.8599 10.2211 27.3097 10.0459 27.8069 9.92756C28.304 9.80919 28.8107 9.71922 29.3268 9.65767C29.9802 9.58191 30.5105 9.52036 30.9177 9.47301C31.3249 9.42093 31.6208 9.33807 31.8055 9.22443C31.9901 9.1108 32.0825 8.92614 32.0825 8.67045V8.62074C32.0825 8.00047 31.9073 7.51989 31.5569 7.17898C31.2112 6.83807 30.6951 6.66761 30.0086 6.66761C29.2936 6.66761 28.7302 6.82623 28.3183 7.14347C27.9111 7.45597 27.6293 7.80398 27.4731 8.1875L25.4773 7.73295C25.7141 7.07008 26.0597 6.53504 26.5143 6.12784C26.9736 5.71591 27.5015 5.41761 28.0981 5.23295C28.6947 5.04356 29.322 4.94886 29.9802 4.94886C30.4158 4.94886 30.8774 5.00095 31.3651 5.10511C31.8576 5.20455 32.3168 5.3892 32.743 5.65909C33.1738 5.92898 33.5266 6.31487 33.8012 6.81676C34.0758 7.31392 34.2131 7.96023 34.2131 8.75568V16H32.1393V14.5085H32.054C31.9167 14.7831 31.7108 15.053 31.4362 15.3182C31.1615 15.5833 30.8088 15.8035 30.3779 15.9787C29.947 16.1539 29.4309 16.2415 28.8296 16.2415ZM29.2913 14.5369C29.8784 14.5369 30.3803 14.4209 30.7969 14.1889C31.2183 13.9569 31.538 13.6539 31.7558 13.2798C31.9783 12.901 32.0896 12.4962 32.0896 12.0653V10.6591C32.0138 10.7348 31.867 10.8059 31.6492 10.8722C31.4362 10.9337 31.1923 10.9882 30.9177 11.0355C30.6431 11.0781 30.3755 11.1184 30.1151 11.1562C29.8547 11.1894 29.6369 11.2178 29.4617 11.2415C29.0498 11.2936 28.6734 11.3812 28.3325 11.5043C27.9963 11.6274 27.7264 11.8049 27.5228 12.0369C27.3239 12.2642 27.2245 12.5672 27.2245 12.946C27.2245 13.4716 27.4186 13.8693 27.8069 14.1392C28.1951 14.4044 28.6899 14.5369 29.2913 14.5369ZM37.6416 16V5.09091H39.6942V6.82386H39.8078C40.0067 6.23674 40.3571 5.77509 40.8589 5.43892C41.3656 5.09801 41.9385 4.92756 42.5777 4.92756C42.7103 4.92756 42.8665 4.93229 43.0464 4.94176C43.2311 4.95123 43.3755 4.96307 43.4797 4.97727V7.00852C43.3945 6.98485 43.2429 6.95881 43.0251 6.9304C42.8073 6.89725 42.5895 6.88068 42.3717 6.88068C41.8698 6.88068 41.4224 6.98722 41.0294 7.20028C40.6411 7.40862 40.3334 7.69981 40.1061 8.07386C39.8788 8.44318 39.7652 8.86458 39.7652 9.33807V16H37.6416ZM48.041 9.52273V16H45.9174V5.09091H47.9558V6.86648H48.0907C48.3416 6.28883 48.7346 5.82481 49.2697 5.47443C49.8094 5.12405 50.4889 4.94886 51.308 4.94886C52.0514 4.94886 52.7024 5.10511 53.2612 5.41761C53.8199 5.72538 54.2531 6.18466 54.5609 6.79545C54.8686 7.40625 55.0225 8.16146 55.0225 9.06108V16H52.8989V9.31676C52.8989 8.52604 52.693 7.90814 52.281 7.46307C51.8691 7.01326 51.3033 6.78835 50.5836 6.78835C50.0912 6.78835 49.6532 6.89489 49.2697 7.10795C48.8909 7.32102 48.5902 7.63352 48.3677 8.04545C48.1499 8.45265 48.041 8.94508 48.041 9.52273ZM58.4705 16V5.09091H60.5941V16H58.4705ZM59.543 3.40767C59.1737 3.40767 58.8564 3.28456 58.5913 3.03835C58.3308 2.7874 58.2006 2.48911 58.2006 2.14347C58.2006 1.79309 58.3308 1.49479 58.5913 1.24858C58.8564 0.997632 59.1737 0.872159 59.543 0.872159C59.9123 0.872159 60.2272 0.997632 60.4876 1.24858C60.7527 1.49479 60.8853 1.79309 60.8853 2.14347C60.8853 2.48911 60.7527 2.7874 60.4876 3.03835C60.2272 3.28456 59.9123 3.40767 59.543 3.40767ZM66.1746 9.52273V16H64.051V5.09091H66.0893V6.86648H66.2243C66.4752 6.28883 66.8682 5.82481 67.4033 5.47443C67.943 5.12405 68.6225 4.94886 69.4416 4.94886C70.185 4.94886 70.836 5.10511 71.3947 5.41761C71.9535 5.72538 72.3867 6.18466 72.6945 6.79545C73.0022 7.40625 73.1561 8.16146 73.1561 9.06108V16H71.0325V9.31676C71.0325 8.52604 70.8266 7.90814 70.4146 7.46307C70.0027 7.01326 69.4369 6.78835 68.7172 6.78835C68.2248 6.78835 67.7868 6.89489 67.4033 7.10795C67.0245 7.32102 66.7238 7.63352 66.5013 8.04545C66.2835 8.45265 66.1746 8.94508 66.1746 9.52273ZM81.178 20.3182C80.3115 20.3182 79.5658 20.2045 78.9408 19.9773C78.3205 19.75 77.8139 19.4493 77.4209 19.0753C77.0279 18.7012 76.7343 18.2917 76.5402 17.8466L78.3655 17.0938C78.4933 17.3021 78.6638 17.5223 78.8768 17.7543C79.0946 17.991 79.3882 18.1922 79.7575 18.358C80.1316 18.5237 80.6122 18.6065 81.1993 18.6065C82.0042 18.6065 82.6695 18.41 83.195 18.017C83.7206 17.6288 83.9834 17.0085 83.9834 16.1562V14.0114H83.8484C83.7206 14.2434 83.5359 14.5014 83.2945 14.7855C83.0577 15.0696 82.731 15.3158 82.3143 15.5241C81.8977 15.7325 81.3555 15.8366 80.6879 15.8366C79.8262 15.8366 79.0497 15.6354 78.3584 15.233C77.6718 14.8258 77.1273 14.2268 76.7249 13.4361C76.3271 12.6406 76.1283 11.6629 76.1283 10.5028C76.1283 9.3428 76.3248 8.34848 76.7178 7.51989C77.1155 6.69129 77.66 6.05682 78.3513 5.61648C79.0426 5.1714 79.8262 4.94886 80.7021 4.94886C81.3792 4.94886 81.9261 5.0625 82.3428 5.28977C82.7594 5.51231 83.0838 5.77273 83.3158 6.07102C83.5525 6.36932 83.7348 6.6321 83.8626 6.85938H84.0189V5.09091H86.0999V16.2415C86.0999 17.179 85.8821 17.9484 85.4464 18.5497C85.0108 19.151 84.4214 19.5961 83.678 19.8849C82.9393 20.1738 82.106 20.3182 81.178 20.3182ZM81.1567 14.0753C81.7675 14.0753 82.2836 13.9332 82.705 13.6491C83.1311 13.3603 83.4531 12.9484 83.6709 12.4134C83.8934 11.8736 84.0047 11.2273 84.0047 10.4744C84.0047 9.74053 83.8958 9.09422 83.678 8.53551C83.4602 7.9768 83.1406 7.54119 82.7192 7.22869C82.2978 6.91146 81.7769 6.75284 81.1567 6.75284C80.5175 6.75284 79.9848 6.91856 79.5587 7.25C79.1325 7.5767 78.8106 8.02178 78.5928 8.58523C78.3797 9.14867 78.2732 9.77841 78.2732 10.4744C78.2732 11.1894 78.3821 11.8168 78.5999 12.3565C78.8177 12.8963 79.1396 13.3177 79.5658 13.6207C79.9966 13.9238 80.5269 14.0753 81.1567 14.0753ZM92.3107 14.0114L92.2041 14.7855C92.1331 15.3537 92.0124 15.9455 91.8419 16.5611C91.6762 17.1813 91.5034 17.7566 91.3234 18.2869C91.1483 18.8172 91.0038 19.2386 90.8902 19.5511H89.3845C89.4461 19.2576 89.5313 18.8598 89.6402 18.358C89.7491 17.8608 89.8556 17.3045 89.9598 16.6889C90.064 16.0734 90.1421 15.446 90.1942 14.8068L90.2652 14.0114H92.3107ZM113.82 6.18466H111.604C111.518 5.71117 111.36 5.29451 111.128 4.93466C110.896 4.57481 110.612 4.26941 110.276 4.01847C109.939 3.76752 109.563 3.57812 109.146 3.45028C108.734 3.32244 108.296 3.25852 107.832 3.25852C106.994 3.25852 106.244 3.46922 105.581 3.89062C104.923 4.31203 104.402 4.92992 104.018 5.74432C103.64 6.55871 103.45 7.55303 103.45 8.72727C103.45 9.91098 103.64 10.91 104.018 11.7244C104.402 12.5388 104.925 13.1544 105.588 13.571C106.251 13.9877 106.997 14.196 107.825 14.196C108.285 14.196 108.72 14.1345 109.132 14.0114C109.549 13.8835 109.925 13.6965 110.261 13.4503C110.598 13.2041 110.882 12.9034 111.114 12.5483C111.35 12.1884 111.514 11.7765 111.604 11.3125L113.82 11.3196C113.701 12.0346 113.472 12.6927 113.131 13.294C112.795 13.8906 112.361 14.4067 111.831 14.8423C111.305 15.2732 110.704 15.607 110.027 15.8438C109.35 16.0805 108.611 16.1989 107.811 16.1989C106.552 16.1989 105.429 15.9006 104.445 15.304C103.46 14.7027 102.683 13.8433 102.115 12.7259C101.552 11.6084 101.27 10.2756 101.27 8.72727C101.27 7.17424 101.554 5.84138 102.122 4.72869C102.69 3.61127 103.467 2.75426 104.452 2.15767C105.437 1.55634 106.556 1.25568 107.811 1.25568C108.583 1.25568 109.303 1.36695 109.97 1.58949C110.643 1.80729 111.246 2.12926 111.781 2.5554C112.316 2.9768 112.759 3.4929 113.109 4.10369C113.46 4.70975 113.696 5.40341 113.82 6.18466ZM121.577 16.2202C120.502 16.2202 119.576 15.9905 118.8 15.5312C118.028 15.0672 117.432 14.4162 117.01 13.5781C116.593 12.7353 116.385 11.7481 116.385 10.6165C116.385 9.49905 116.593 8.5142 117.01 7.66193C117.432 6.80966 118.019 6.14441 118.772 5.66619C119.529 5.18797 120.415 4.94886 121.428 4.94886C122.043 4.94886 122.64 5.05066 123.218 5.25426C123.795 5.45786 124.314 5.77746 124.773 6.21307C125.232 6.64867 125.594 7.21449 125.86 7.91051C126.125 8.6018 126.257 9.44223 126.257 10.4318V11.1847H117.585V9.59375H124.176C124.176 9.03504 124.063 8.54025 123.835 8.10938C123.608 7.67377 123.289 7.33049 122.877 7.07955C122.469 6.8286 121.991 6.70312 121.442 6.70312C120.845 6.70312 120.325 6.84991 119.879 7.14347C119.439 7.43229 119.098 7.81108 118.857 8.27983C118.62 8.74384 118.502 9.24811 118.502 9.79261V11.0355C118.502 11.7647 118.629 12.3849 118.885 12.8963C119.146 13.4077 119.508 13.7983 119.972 14.0682C120.436 14.3333 120.978 14.4659 121.598 14.4659C122.001 14.4659 122.368 14.4091 122.699 14.2955C123.031 14.1771 123.317 14.0019 123.558 13.7699C123.8 13.5379 123.985 13.2514 124.112 12.9105L126.122 13.2727C125.961 13.8646 125.673 14.383 125.256 14.8281C124.844 15.2685 124.325 15.6117 123.7 15.858C123.08 16.0994 122.372 16.2202 121.577 16.2202ZM129.213 16V5.09091H131.266V6.82386H131.38C131.579 6.23674 131.929 5.77509 132.431 5.43892C132.937 5.09801 133.51 4.92756 134.15 4.92756C134.282 4.92756 134.438 4.93229 134.618 4.94176C134.803 4.95123 134.947 4.96307 135.052 4.97727V7.00852C134.966 6.98485 134.815 6.95881 134.597 6.9304C134.379 6.89725 134.161 6.88068 133.944 6.88068C133.442 6.88068 132.994 6.98722 132.601 7.20028C132.213 7.40862 131.905 7.69981 131.678 8.07386C131.451 8.44318 131.337 8.86458 131.337 9.33807V16H129.213ZM143.226 5.09091V6.79545H137.267V5.09091H143.226ZM138.865 2.47727H140.989V12.7969C140.989 13.2088 141.05 13.5189 141.174 13.7273C141.297 13.9309 141.455 14.0705 141.649 14.1463C141.848 14.2173 142.064 14.2528 142.296 14.2528C142.466 14.2528 142.615 14.241 142.743 14.2173C142.871 14.1937 142.97 14.1747 143.041 14.1605L143.425 15.9148C143.302 15.9621 143.127 16.0095 142.899 16.0568C142.672 16.1089 142.388 16.1373 142.047 16.142C141.488 16.1515 140.968 16.0521 140.485 15.8438C140.002 15.6354 139.611 15.3134 139.313 14.8778C139.014 14.4422 138.865 13.8954 138.865 13.2372V2.47727ZM146.175 16V5.09091H148.299V16H146.175ZM147.248 3.40767C146.878 3.40767 146.561 3.28456 146.296 3.03835C146.036 2.7874 145.905 2.48911 145.905 2.14347C145.905 1.79309 146.036 1.49479 146.296 1.24858C146.561 0.997632 146.878 0.872159 147.248 0.872159C147.617 0.872159 147.932 0.997632 148.192 1.24858C148.457 1.49479 148.59 1.79309 148.59 2.14347C148.59 2.48911 148.457 2.7874 148.192 3.03835C147.932 3.28456 147.617 3.40767 147.248 3.40767ZM156.947 5.09091V6.79545H150.783V5.09091H156.947ZM152.473 16V3.8267C152.473 3.14489 152.622 2.57907 152.92 2.12926C153.219 1.67472 153.614 1.33617 154.107 1.11364C154.599 0.886363 155.134 0.772726 155.712 0.772726C156.138 0.772726 156.502 0.808238 156.805 0.879261C157.108 0.945549 157.333 1.0071 157.48 1.06392L156.983 2.78267C156.884 2.75426 156.756 2.72112 156.599 2.68324C156.443 2.64062 156.254 2.61932 156.031 2.61932C155.515 2.61932 155.146 2.74716 154.923 3.00284C154.705 3.25852 154.597 3.62784 154.597 4.1108V16H152.473ZM159.739 16V5.09091H161.862V16H159.739ZM160.811 3.40767C160.442 3.40767 160.124 3.28456 159.859 3.03835C159.599 2.7874 159.469 2.48911 159.469 2.14347C159.469 1.79309 159.599 1.49479 159.859 1.24858C160.124 0.997632 160.442 0.872159 160.811 0.872159C161.18 0.872159 161.495 0.997632 161.756 1.24858C162.021 1.49479 162.153 1.79309 162.153 2.14347C162.153 2.48911 162.021 2.7874 161.756 3.03835C161.495 3.28456 161.18 3.40767 160.811 3.40767ZM169.914 16.2202C168.858 16.2202 167.949 15.9811 167.187 15.5028C166.429 15.0199 165.847 14.3546 165.44 13.5071C165.033 12.6596 164.829 11.6889 164.829 10.5952C164.829 9.48722 165.037 8.50947 165.454 7.66193C165.871 6.80966 166.458 6.14441 167.215 5.66619C167.973 5.18797 168.865 4.94886 169.893 4.94886C170.721 4.94886 171.46 5.10275 172.109 5.41051C172.757 5.71354 173.281 6.13968 173.678 6.68892C174.081 7.23816 174.32 7.87973 174.396 8.61364H172.329C172.215 8.10227 171.955 7.66193 171.548 7.29261C171.145 6.9233 170.605 6.73864 169.928 6.73864C169.336 6.73864 168.818 6.89489 168.373 7.20739C167.933 7.51515 167.589 7.95549 167.343 8.52841C167.097 9.09659 166.974 9.76894 166.974 10.5455C166.974 11.3409 167.095 12.0275 167.336 12.6051C167.577 13.1828 167.918 13.6302 168.359 13.9474C168.804 14.2647 169.327 14.4233 169.928 14.4233C170.331 14.4233 170.695 14.3499 171.022 14.2031C171.354 14.0516 171.631 13.8362 171.853 13.5568C172.08 13.2775 172.239 12.9413 172.329 12.5483H174.396C174.32 13.2538 174.09 13.8835 173.707 14.4375C173.323 14.9915 172.809 15.4271 172.166 15.7443C171.526 16.0616 170.776 16.2202 169.914 16.2202ZM180.441 16.2415C179.75 16.2415 179.125 16.1136 178.566 15.858C178.008 15.5975 177.565 15.2211 177.238 14.7287C176.916 14.2363 176.755 13.6326 176.755 12.9176C176.755 12.3021 176.874 11.7955 177.11 11.3977C177.347 11 177.667 10.6851 178.069 10.4531C178.472 10.2211 178.921 10.0459 179.419 9.92756C179.916 9.80919 180.422 9.71922 180.938 9.65767C181.592 9.58191 182.122 9.52036 182.529 9.47301C182.937 9.42093 183.233 9.33807 183.417 9.22443C183.602 9.1108 183.694 8.92614 183.694 8.67045V8.62074C183.694 8.00047 183.519 7.51989 183.169 7.17898C182.823 6.83807 182.307 6.66761 181.62 6.66761C180.905 6.66761 180.342 6.82623 179.93 7.14347C179.523 7.45597 179.241 7.80398 179.085 8.1875L177.089 7.73295C177.326 7.07008 177.671 6.53504 178.126 6.12784C178.585 5.71591 179.113 5.41761 179.71 5.23295C180.306 5.04356 180.934 4.94886 181.592 4.94886C182.028 4.94886 182.489 5.00095 182.977 5.10511C183.469 5.20455 183.929 5.3892 184.355 5.65909C184.786 5.92898 185.138 6.31487 185.413 6.81676C185.688 7.31392 185.825 7.96023 185.825 8.75568V16H183.751V14.5085H183.666C183.528 14.7831 183.322 15.053 183.048 15.3182C182.773 15.5833 182.421 15.8035 181.99 15.9787C181.559 16.1539 181.043 16.2415 180.441 16.2415ZM180.903 14.5369C181.49 14.5369 181.992 14.4209 182.409 14.1889C182.83 13.9569 183.15 13.6539 183.367 13.2798C183.59 12.901 183.701 12.4962 183.701 12.0653V10.6591C183.626 10.7348 183.479 10.8059 183.261 10.8722C183.048 10.9337 182.804 10.9882 182.529 11.0355C182.255 11.0781 181.987 11.1184 181.727 11.1562C181.466 11.1894 181.249 11.2178 181.073 11.2415C180.662 11.2936 180.285 11.3812 179.944 11.5043C179.608 11.6274 179.338 11.8049 179.135 12.0369C178.936 12.2642 178.836 12.5672 178.836 12.946C178.836 13.4716 179.03 13.8693 179.419 14.1392C179.807 14.4044 180.302 14.5369 180.903 14.5369ZM194.346 5.09091V6.79545H188.387V5.09091H194.346ZM189.985 2.47727H192.108V12.7969C192.108 13.2088 192.17 13.5189 192.293 13.7273C192.416 13.9309 192.575 14.0705 192.769 14.1463C192.968 14.2173 193.183 14.2528 193.415 14.2528C193.586 14.2528 193.735 14.241 193.863 14.2173C193.991 14.1937 194.09 14.1747 194.161 14.1605L194.545 15.9148C194.421 15.9621 194.246 16.0095 194.019 16.0568C193.792 16.1089 193.508 16.1373 193.167 16.142C192.608 16.1515 192.087 16.0521 191.604 15.8438C191.121 15.6354 190.731 15.3134 190.432 14.8778C190.134 14.4422 189.985 13.8954 189.985 13.2372V2.47727ZM197.295 16V5.09091H199.418V16H197.295ZM198.367 3.40767C197.998 3.40767 197.681 3.28456 197.415 3.03835C197.155 2.7874 197.025 2.48911 197.025 2.14347C197.025 1.79309 197.155 1.49479 197.415 1.24858C197.681 0.997632 197.998 0.872159 198.367 0.872159C198.737 0.872159 199.051 0.997632 199.312 1.24858C199.577 1.49479 199.71 1.79309 199.71 2.14347C199.71 2.48911 199.577 2.7874 199.312 3.03835C199.051 3.28456 198.737 3.40767 198.367 3.40767ZM207.47 16.2202C206.448 16.2202 205.555 15.9858 204.793 15.517C204.031 15.0483 203.439 14.3925 203.017 13.5497C202.596 12.7069 202.385 11.7221 202.385 10.5952C202.385 9.46354 202.596 8.47396 203.017 7.62642C203.439 6.77888 204.031 6.12074 204.793 5.65199C205.555 5.18324 206.448 4.94886 207.47 4.94886C208.493 4.94886 209.386 5.18324 210.148 5.65199C210.91 6.12074 211.502 6.77888 211.924 7.62642C212.345 8.47396 212.556 9.46354 212.556 10.5952C212.556 11.7221 212.345 12.7069 211.924 13.5497C211.502 14.3925 210.91 15.0483 210.148 15.517C209.386 15.9858 208.493 16.2202 207.47 16.2202ZM207.477 14.4375C208.14 14.4375 208.69 14.2623 209.125 13.9119C209.561 13.5616 209.883 13.0952 210.091 12.5128C210.304 11.9304 210.411 11.2888 210.411 10.5881C210.411 9.89205 210.304 9.25284 210.091 8.67045C209.883 8.08333 209.561 7.61222 209.125 7.2571C208.69 6.90199 208.14 6.72443 207.477 6.72443C206.81 6.72443 206.256 6.90199 205.816 7.2571C205.38 7.61222 205.056 8.08333 204.843 8.67045C204.634 9.25284 204.53 9.89205 204.53 10.5881C204.53 11.2888 204.634 11.9304 204.843 12.5128C205.056 13.0952 205.38 13.5616 205.816 13.9119C206.256 14.2623 206.81 14.4375 207.477 14.4375ZM217.65 9.52273V16H215.526V5.09091H217.564V6.86648H217.699C217.95 6.28883 218.343 5.82481 218.878 5.47443C219.418 5.12405 220.097 4.94886 220.917 4.94886C221.66 4.94886 222.311 5.10511 222.87 5.41761C223.428 5.72538 223.862 6.18466 224.169 6.79545C224.477 7.40625 224.631 8.16146 224.631 9.06108V16H222.508V9.31676C222.508 8.52604 222.302 7.90814 221.89 7.46307C221.478 7.01326 220.912 6.78835 220.192 6.78835C219.7 6.78835 219.262 6.89489 218.878 7.10795C218.499 7.32102 218.199 7.63352 217.976 8.04545C217.758 8.45265 217.65 8.94508 217.65 9.52273ZM236.254 7.75426L234.329 8.09517C234.249 7.84896 234.121 7.61458 233.946 7.39205C233.775 7.16951 233.543 6.98722 233.25 6.84517C232.956 6.70312 232.589 6.6321 232.149 6.6321C231.547 6.6321 231.046 6.76705 230.643 7.03693C230.241 7.30208 230.039 7.64536 230.039 8.06676C230.039 8.43134 230.174 8.72491 230.444 8.94744C230.714 9.16998 231.15 9.35227 231.751 9.49432L233.484 9.89205C234.488 10.1241 235.236 10.4815 235.728 10.9645C236.221 11.4474 236.467 12.0748 236.467 12.8466C236.467 13.5 236.278 14.0824 235.899 14.5938C235.525 15.1004 235.001 15.4981 234.329 15.7869C233.662 16.0758 232.887 16.2202 232.007 16.2202C230.785 16.2202 229.788 15.9598 229.017 15.4389C228.245 14.9134 227.771 14.1676 227.596 13.2017L229.649 12.8892C229.777 13.4242 230.039 13.8291 230.437 14.1037C230.835 14.3736 231.353 14.5085 231.992 14.5085C232.688 14.5085 233.245 14.3641 233.662 14.0753C234.078 13.7817 234.287 13.4242 234.287 13.0028C234.287 12.6619 234.159 12.3755 233.903 12.1435C233.652 11.9115 233.266 11.7363 232.745 11.6179L230.899 11.2131C229.881 10.9811 229.128 10.6117 228.64 10.1051C228.157 9.59848 227.916 8.95691 227.916 8.1804C227.916 7.53646 228.096 6.97301 228.456 6.49006C228.815 6.0071 229.313 5.63068 229.947 5.3608C230.581 5.08617 231.308 4.94886 232.127 4.94886C233.306 4.94886 234.234 5.20455 234.912 5.71591C235.589 6.22254 236.036 6.90199 236.254 7.75426ZM242.165 14.0114L242.058 14.7855C241.987 15.3537 241.866 15.9455 241.696 16.5611C241.53 17.1813 241.357 17.7566 241.177 18.2869C241.002 18.8172 240.858 19.2386 240.744 19.5511H239.238C239.3 19.2576 239.385 18.8598 239.494 18.358C239.603 17.8608 239.71 17.3045 239.814 16.6889C239.918 16.0734 239.996 15.446 240.048 14.8068L240.119 14.0114H242.165ZM252.821 16H250.492L255.726 1.45455H258.262L263.496 16H261.166L257.054 4.09659H256.941L252.821 16ZM253.212 10.304H260.769V12.1506H253.212V10.304ZM268.391 1.45455V16H266.196V1.45455H268.391ZM278.08 16V1.45455H283.265C284.392 1.45455 285.327 1.64867 286.07 2.03693C286.818 2.42519 287.377 2.96259 287.746 3.64915C288.116 4.33097 288.3 5.11932 288.3 6.0142C288.3 6.90436 288.113 7.68797 287.739 8.36506C287.37 9.03741 286.811 9.56061 286.063 9.93466C285.32 10.3087 284.384 10.4957 283.258 10.4957H279.33V8.60653H283.059C283.769 8.60653 284.347 8.50473 284.792 8.30114C285.241 8.09754 285.571 7.80161 285.779 7.41335C285.987 7.02509 286.091 6.55871 286.091 6.0142C286.091 5.46496 285.985 4.98911 285.772 4.58665C285.563 4.18419 285.234 3.87642 284.785 3.66335C284.34 3.44555 283.755 3.33665 283.03 3.33665H280.275V16H278.08ZM285.26 9.4375L288.854 16H286.354L282.831 9.4375H285.26ZM295.965 16.2202C294.89 16.2202 293.965 15.9905 293.188 15.5312C292.416 15.0672 291.82 14.4162 291.398 13.5781C290.982 12.7353 290.773 11.7481 290.773 10.6165C290.773 9.49905 290.982 8.5142 291.398 7.66193C291.82 6.80966 292.407 6.14441 293.16 5.66619C293.917 5.18797 294.803 4.94886 295.816 4.94886C296.432 4.94886 297.028 5.05066 297.606 5.25426C298.183 5.45786 298.702 5.77746 299.161 6.21307C299.621 6.64867 299.983 7.21449 300.248 7.91051C300.513 8.6018 300.646 9.44223 300.646 10.4318V11.1847H291.974V9.59375H298.565C298.565 9.03504 298.451 8.54025 298.224 8.10938C297.996 7.67377 297.677 7.33049 297.265 7.07955C296.858 6.8286 296.379 6.70312 295.83 6.70312C295.234 6.70312 294.713 6.84991 294.268 7.14347C293.827 7.43229 293.487 7.81108 293.245 8.27983C293.008 8.74384 292.89 9.24811 292.89 9.79261V11.0355C292.89 11.7647 293.018 12.3849 293.273 12.8963C293.534 13.4077 293.896 13.7983 294.36 14.0682C294.824 14.3333 295.366 14.4659 295.987 14.4659C296.389 14.4659 296.756 14.4091 297.087 14.2955C297.419 14.1771 297.705 14.0019 297.947 13.7699C298.188 13.5379 298.373 13.2514 298.501 12.9105L300.511 13.2727C300.35 13.8646 300.061 14.383 299.644 14.8281C299.232 15.2685 298.714 15.6117 298.089 15.858C297.469 16.0994 296.761 16.2202 295.965 16.2202ZM311.776 7.75426L309.852 8.09517C309.771 7.84896 309.643 7.61458 309.468 7.39205C309.298 7.16951 309.066 6.98722 308.772 6.84517C308.479 6.70312 308.112 6.6321 307.671 6.6321C307.07 6.6321 306.568 6.76705 306.166 7.03693C305.763 7.30208 305.562 7.64536 305.562 8.06676C305.562 8.43134 305.697 8.72491 305.967 8.94744C306.237 9.16998 306.672 9.35227 307.274 9.49432L309.007 9.89205C310.01 10.1241 310.759 10.4815 311.251 10.9645C311.743 11.4474 311.99 12.0748 311.99 12.8466C311.99 13.5 311.8 14.0824 311.421 14.5938C311.047 15.1004 310.524 15.4981 309.852 15.7869C309.184 16.0758 308.41 16.2202 307.529 16.2202C306.308 16.2202 305.311 15.9598 304.539 15.4389C303.768 14.9134 303.294 14.1676 303.119 13.2017L305.171 12.8892C305.299 13.4242 305.562 13.8291 305.96 14.1037C306.357 14.3736 306.876 14.5085 307.515 14.5085C308.211 14.5085 308.768 14.3641 309.184 14.0753C309.601 13.7817 309.809 13.4242 309.809 13.0028C309.809 12.6619 309.681 12.3755 309.426 12.1435C309.175 11.9115 308.789 11.7363 308.268 11.6179L306.421 11.2131C305.403 10.9811 304.651 10.6117 304.163 10.1051C303.68 9.59848 303.438 8.95691 303.438 8.1804C303.438 7.53646 303.618 6.97301 303.978 6.49006C304.338 6.0071 304.835 5.63068 305.47 5.3608C306.104 5.08617 306.831 4.94886 307.65 4.94886C308.829 4.94886 309.757 5.20455 310.434 5.71591C311.111 6.22254 311.559 6.90199 311.776 7.75426ZM321.835 11.4759V5.09091H323.966V16H321.878V14.1108H321.764C321.513 14.6932 321.111 15.1785 320.557 15.5668C320.007 15.9503 319.323 16.142 318.504 16.142C317.803 16.142 317.183 15.9882 316.643 15.6804C316.108 15.3679 315.687 14.9062 315.379 14.2955C315.076 13.6847 314.924 12.9295 314.924 12.0298V5.09091H317.048V11.7741C317.048 12.5175 317.254 13.1094 317.666 13.5497C318.078 13.9901 318.613 14.2102 319.271 14.2102C319.669 14.2102 320.064 14.1108 320.457 13.9119C320.855 13.7131 321.184 13.4124 321.444 13.0099C321.709 12.6075 321.84 12.0961 321.835 11.4759ZM327.419 16V5.09091H329.457V6.86648H329.592C329.82 6.26515 330.191 5.7964 330.707 5.46023C331.223 5.11932 331.841 4.94886 332.561 4.94886C333.29 4.94886 333.901 5.11932 334.393 5.46023C334.891 5.80114 335.257 6.26989 335.494 6.86648H335.608C335.868 6.28409 336.283 5.82008 336.851 5.47443C337.419 5.12405 338.096 4.94886 338.882 4.94886C339.872 4.94886 340.679 5.259 341.304 5.87926C341.934 6.49953 342.248 7.43466 342.248 8.68466V16H340.125V8.88352C340.125 8.14489 339.924 7.60985 339.521 7.27841C339.119 6.94697 338.638 6.78125 338.079 6.78125C337.388 6.78125 336.851 6.99432 336.467 7.42045C336.084 7.84186 335.892 8.384 335.892 9.04688V16H333.775V8.74858C333.775 8.15672 333.591 7.68087 333.222 7.32102C332.852 6.96117 332.372 6.78125 331.78 6.78125C331.377 6.78125 331.006 6.88778 330.665 7.10085C330.329 7.30919 330.056 7.60038 329.848 7.97443C329.644 8.34848 329.543 8.78172 329.543 9.27415V16H327.419ZM350.396 16.2202C349.322 16.2202 348.396 15.9905 347.619 15.5312C346.848 15.0672 346.251 14.4162 345.83 13.5781C345.413 12.7353 345.205 11.7481 345.205 10.6165C345.205 9.49905 345.413 8.5142 345.83 7.66193C346.251 6.80966 346.838 6.14441 347.591 5.66619C348.349 5.18797 349.234 4.94886 350.247 4.94886C350.863 4.94886 351.459 5.05066 352.037 5.25426C352.615 5.45786 353.133 5.77746 353.592 6.21307C354.052 6.64867 354.414 7.21449 354.679 7.91051C354.944 8.6018 355.077 9.44223 355.077 10.4318V11.1847H346.405V9.59375H352.996C352.996 9.03504 352.882 8.54025 352.655 8.10938C352.428 7.67377 352.108 7.33049 351.696 7.07955C351.289 6.8286 350.811 6.70312 350.261 6.70312C349.665 6.70312 349.144 6.84991 348.699 7.14347C348.259 7.43229 347.918 7.81108 347.676 8.27983C347.44 8.74384 347.321 9.24811 347.321 9.79261V11.0355C347.321 11.7647 347.449 12.3849 347.705 12.8963C347.965 13.4077 348.327 13.7983 348.791 14.0682C349.255 14.3333 349.797 14.4659 350.418 14.4659C350.82 14.4659 351.187 14.4091 351.519 14.2955C351.85 14.1771 352.136 14.0019 352.378 13.7699C352.619 13.5379 352.804 13.2514 352.932 12.9105L354.942 13.2727C354.781 13.8646 354.492 14.383 354.075 14.8281C353.663 15.2685 353.145 15.6117 352.52 15.858C351.9 16.0994 351.192 16.2202 350.396 16.2202ZM364.096 16V1.45455H369.423C370.455 1.45455 371.31 1.625 371.987 1.96591C372.664 2.30208 373.171 2.759 373.507 3.33665C373.843 3.90956 374.011 4.55587 374.011 5.27557C374.011 5.88163 373.9 6.39299 373.677 6.80966C373.455 7.22159 373.157 7.55303 372.783 7.80398C372.413 8.05019 372.006 8.23011 371.561 8.34375V8.4858C372.044 8.50947 372.515 8.66572 372.974 8.95455C373.438 9.23864 373.822 9.64347 374.125 10.169C374.428 10.6946 374.579 11.3338 374.579 12.0866C374.579 12.83 374.404 13.4976 374.054 14.0895C373.708 14.6766 373.173 15.143 372.449 15.4886C371.724 15.8295 370.799 16 369.672 16H364.096ZM366.291 14.1179H369.459C370.51 14.1179 371.263 13.9143 371.717 13.5071C372.172 13.0999 372.399 12.5909 372.399 11.9801C372.399 11.5208 372.283 11.0994 372.051 10.7159C371.819 10.3324 371.488 10.027 371.057 9.79972C370.631 9.57244 370.124 9.45881 369.537 9.45881H366.291V14.1179ZM366.291 7.74716H369.231C369.724 7.74716 370.167 7.65246 370.56 7.46307C370.957 7.27367 371.272 7.00852 371.504 6.66761C371.741 6.32197 371.859 5.91477 371.859 5.44602C371.859 4.8447 371.649 4.34044 371.227 3.93324C370.806 3.52604 370.159 3.32244 369.288 3.32244H366.291V7.74716ZM384.522 11.4759V5.09091H386.653V16H384.565V14.1108H384.451C384.2 14.6932 383.798 15.1785 383.244 15.5668C382.695 15.9503 382.011 16.142 381.191 16.142C380.491 16.142 379.87 15.9882 379.331 15.6804C378.796 15.3679 378.374 14.9062 378.066 14.2955C377.763 13.6847 377.612 12.9295 377.612 12.0298V5.09091H379.736V11.7741C379.736 12.5175 379.941 13.1094 380.353 13.5497C380.765 13.9901 381.3 14.2102 381.959 14.2102C382.356 14.2102 382.752 14.1108 383.145 13.9119C383.542 13.7131 383.871 13.4124 384.132 13.0099C384.397 12.6075 384.527 12.0961 384.522 11.4759ZM390.106 16V5.09091H392.23V16H390.106ZM391.179 3.40767C390.81 3.40767 390.492 3.28456 390.227 3.03835C389.967 2.7874 389.837 2.48911 389.837 2.14347C389.837 1.79309 389.967 1.49479 390.227 1.24858C390.492 0.997632 390.81 0.872159 391.179 0.872159C391.548 0.872159 391.863 0.997632 392.123 1.24858C392.389 1.49479 392.521 1.79309 392.521 2.14347C392.521 2.48911 392.389 2.7874 392.123 3.03835C391.863 3.28456 391.548 3.40767 391.179 3.40767ZM397.811 1.45455V16H395.687V1.45455H397.811ZM405.351 16.2131C404.471 16.2131 403.685 15.9882 402.993 15.5384C402.307 15.0838 401.767 14.4375 401.374 13.5994C400.986 12.7566 400.792 11.7457 400.792 10.5668C400.792 9.38778 400.988 8.37926 401.381 7.54119C401.779 6.70312 402.323 6.06155 403.015 5.61648C403.706 5.1714 404.489 4.94886 405.365 4.94886C406.042 4.94886 406.587 5.0625 406.999 5.28977C407.416 5.51231 407.738 5.77273 407.965 6.07102C408.197 6.36932 408.377 6.6321 408.505 6.85938H408.632V1.45455H410.756V16H408.682V14.3026H408.505C408.377 14.5346 408.192 14.7997 407.951 15.098C407.714 15.3963 407.387 15.6567 406.971 15.8793C406.554 16.1018 406.014 16.2131 405.351 16.2131ZM405.82 14.402C406.431 14.402 406.947 14.241 407.368 13.919C407.794 13.5923 408.116 13.1402 408.334 12.5625C408.557 11.9848 408.668 11.3125 408.668 10.5455C408.668 9.78788 408.559 9.125 408.341 8.55682C408.123 7.98864 407.804 7.54593 407.382 7.22869C406.961 6.91146 406.44 6.75284 405.82 6.75284C405.181 6.75284 404.648 6.91856 404.222 7.25C403.796 7.58144 403.474 8.03362 403.256 8.60653C403.043 9.17945 402.936 9.82576 402.936 10.5455C402.936 11.2746 403.045 11.9304 403.263 12.5128C403.481 13.0952 403.803 13.5568 404.229 13.8977C404.66 14.2339 405.19 14.402 405.82 14.402ZM419.089 16.2202C418.014 16.2202 417.088 15.9905 416.312 15.5312C415.54 15.0672 414.943 14.4162 414.522 13.5781C414.105 12.7353 413.897 11.7481 413.897 10.6165C413.897 9.49905 414.105 8.5142 414.522 7.66193C414.943 6.80966 415.53 6.14441 416.283 5.66619C417.041 5.18797 417.926 4.94886 418.939 4.94886C419.555 4.94886 420.152 5.05066 420.729 5.25426C421.307 5.45786 421.825 5.77746 422.285 6.21307C422.744 6.64867 423.106 7.21449 423.371 7.91051C423.636 8.6018 423.769 9.44223 423.769 10.4318V11.1847H415.097V9.59375H421.688C421.688 9.03504 421.574 8.54025 421.347 8.10938C421.12 7.67377 420.8 7.33049 420.388 7.07955C419.981 6.8286 419.503 6.70312 418.954 6.70312C418.357 6.70312 417.836 6.84991 417.391 7.14347C416.951 7.43229 416.61 7.81108 416.368 8.27983C416.132 8.74384 416.013 9.24811 416.013 9.79261V11.0355C416.013 11.7647 416.141 12.3849 416.397 12.8963C416.657 13.4077 417.02 13.7983 417.484 14.0682C417.948 14.3333 418.49 14.4659 419.11 14.4659C419.512 14.4659 419.879 14.4091 420.211 14.2955C420.542 14.1771 420.829 14.0019 421.07 13.7699C421.312 13.5379 421.496 13.2514 421.624 12.9105L423.634 13.2727C423.473 13.8646 423.184 14.383 422.768 14.8281C422.356 15.2685 421.837 15.6117 421.212 15.858C420.592 16.0994 419.884 16.2202 419.089 16.2202ZM426.725 16V5.09091H428.778V6.82386H428.891C429.09 6.23674 429.441 5.77509 429.943 5.43892C430.449 5.09801 431.022 4.92756 431.661 4.92756C431.794 4.92756 431.95 4.93229 432.13 4.94176C432.315 4.95123 432.459 4.96307 432.563 4.97727V7.00852C432.478 6.98485 432.327 6.95881 432.109 6.9304C431.891 6.89725 431.673 6.88068 431.455 6.88068C430.953 6.88068 430.506 6.98722 430.113 7.20028C429.725 7.40862 429.417 7.69981 429.19 8.07386C428.962 8.44318 428.849 8.86458 428.849 9.33807V16H426.725ZM436.514 14.0114L436.407 14.7855C436.336 15.3537 436.215 15.9455 436.045 16.5611C435.879 17.1813 435.706 17.7566 435.527 18.2869C435.351 18.8172 435.207 19.2386 435.093 19.5511H433.588C433.649 19.2576 433.734 18.8598 433.843 18.358C433.952 17.8608 434.059 17.3045 434.163 16.6889C434.267 16.0734 434.345 15.446 434.397 14.8068L434.468 14.0114H436.514ZM445.942 1.45455H448.605L453.236 12.7614H453.406L458.037 1.45455H460.7V16H458.612V5.47443H458.477L454.188 15.9787H452.455L448.165 5.46733H448.03V16H445.942V1.45455ZM468.916 16.2202C467.893 16.2202 467 15.9858 466.238 15.517C465.476 15.0483 464.884 14.3925 464.463 13.5497C464.041 12.7069 463.83 11.7221 463.83 10.5952C463.83 9.46354 464.041 8.47396 464.463 7.62642C464.884 6.77888 465.476 6.12074 466.238 5.65199C467 5.18324 467.893 4.94886 468.916 4.94886C469.938 4.94886 470.831 5.18324 471.593 5.65199C472.356 6.12074 472.947 6.77888 473.369 7.62642C473.79 8.47396 474.001 9.46354 474.001 10.5952C474.001 11.7221 473.79 12.7069 473.369 13.5497C472.947 14.3925 472.356 15.0483 471.593 15.517C470.831 15.9858 469.938 16.2202 468.916 16.2202ZM468.923 14.4375C469.586 14.4375 470.135 14.2623 470.571 13.9119C471.006 13.5616 471.328 13.0952 471.536 12.5128C471.75 11.9304 471.856 11.2888 471.856 10.5881C471.856 9.89205 471.75 9.25284 471.536 8.67045C471.328 8.08333 471.006 7.61222 470.571 7.2571C470.135 6.90199 469.586 6.72443 468.923 6.72443C468.255 6.72443 467.701 6.90199 467.261 7.2571C466.825 7.61222 466.501 8.08333 466.288 8.67045C466.08 9.25284 465.975 9.89205 465.975 10.5881C465.975 11.2888 466.08 11.9304 466.288 12.5128C466.501 13.0952 466.825 13.5616 467.261 13.9119C467.701 14.2623 468.255 14.4375 468.923 14.4375ZM481.566 16.2202C480.511 16.2202 479.602 15.9811 478.839 15.5028C478.082 15.0199 477.499 14.3546 477.092 13.5071C476.685 12.6596 476.481 11.6889 476.481 10.5952C476.481 9.48722 476.69 8.50947 477.106 7.66193C477.523 6.80966 478.11 6.14441 478.868 5.66619C479.625 5.18797 480.518 4.94886 481.545 4.94886C482.374 4.94886 483.112 5.10275 483.761 5.41051C484.41 5.71354 484.933 6.13968 485.331 6.68892C485.733 7.23816 485.972 7.87973 486.048 8.61364H483.981C483.868 8.10227 483.607 7.66193 483.2 7.29261C482.798 6.9233 482.258 6.73864 481.581 6.73864C480.989 6.73864 480.47 6.89489 480.025 7.20739C479.585 7.51515 479.242 7.95549 478.995 8.52841C478.749 9.09659 478.626 9.76894 478.626 10.5455C478.626 11.3409 478.747 12.0275 478.988 12.6051C479.23 13.1828 479.571 13.6302 480.011 13.9474C480.456 14.2647 480.979 14.4233 481.581 14.4233C481.983 14.4233 482.348 14.3499 482.674 14.2031C483.006 14.0516 483.283 13.8362 483.505 13.5568C483.733 13.2775 483.891 12.9413 483.981 12.5483H486.048C485.972 13.2538 485.743 13.8835 485.359 14.4375C484.976 14.9915 484.462 15.4271 483.818 15.7443C483.179 16.0616 482.428 16.2202 481.566 16.2202ZM490.872 12.2997L490.858 9.70739H491.227L495.574 5.09091H498.116L493.159 10.3466H492.825L490.872 12.2997ZM488.919 16V1.45455H491.043V16H488.919ZM495.808 16L491.902 10.8153L493.365 9.33097L498.415 16H495.808ZM508.91 1.45455V16H506.715V1.45455H508.91ZM514.659 9.52273V16H512.535V5.09091H514.574V6.86648H514.709C514.96 6.28883 515.353 5.82481 515.888 5.47443C516.427 5.12405 517.107 4.94886 517.926 4.94886C518.669 4.94886 519.32 5.10511 519.879 5.41761C520.438 5.72538 520.871 6.18466 521.179 6.79545C521.487 7.40625 521.64 8.16146 521.64 9.06108V16H519.517V9.31676C519.517 8.52604 519.311 7.90814 518.899 7.46307C518.487 7.01326 517.921 6.78835 517.202 6.78835C516.709 6.78835 516.271 6.89489 515.888 7.10795C515.509 7.32102 515.208 7.63352 514.986 8.04545C514.768 8.45265 514.659 8.94508 514.659 9.52273ZM530.181 5.09091V6.79545H524.222V5.09091H530.181ZM525.82 2.47727H527.944V12.7969C527.944 13.2088 528.005 13.5189 528.128 13.7273C528.251 13.9309 528.41 14.0705 528.604 14.1463C528.803 14.2173 529.018 14.2528 529.25 14.2528C529.421 14.2528 529.57 14.241 529.698 14.2173C529.826 14.1937 529.925 14.1747 529.996 14.1605L530.38 15.9148C530.257 15.9621 530.081 16.0095 529.854 16.0568C529.627 16.1089 529.343 16.1373 529.002 16.142C528.443 16.1515 527.922 16.0521 527.439 15.8438C526.956 15.6354 526.566 15.3134 526.267 14.8778C525.969 14.4422 525.82 13.8954 525.82 13.2372V2.47727ZM537.714 16.2202C536.64 16.2202 535.714 15.9905 534.937 15.5312C534.166 15.0672 533.569 14.4162 533.148 13.5781C532.731 12.7353 532.523 11.7481 532.523 10.6165C532.523 9.49905 532.731 8.5142 533.148 7.66193C533.569 6.80966 534.156 6.14441 534.909 5.66619C535.667 5.18797 536.552 4.94886 537.565 4.94886C538.181 4.94886 538.777 5.05066 539.355 5.25426C539.933 5.45786 540.451 5.77746 540.91 6.21307C541.37 6.64867 541.732 7.21449 541.997 7.91051C542.262 8.6018 542.395 9.44223 542.395 10.4318V11.1847H533.723V9.59375H540.314C540.314 9.03504 540.2 8.54025 539.973 8.10938C539.746 7.67377 539.426 7.33049 539.014 7.07955C538.607 6.8286 538.129 6.70312 537.579 6.70312C536.983 6.70312 536.462 6.84991 536.017 7.14347C535.577 7.43229 535.236 7.81108 534.994 8.27983C534.757 8.74384 534.639 9.24811 534.639 9.79261V11.0355C534.639 11.7647 534.767 12.3849 535.023 12.8963C535.283 13.4077 535.645 13.7983 536.109 14.0682C536.573 14.3333 537.115 14.4659 537.736 14.4659C538.138 14.4659 538.505 14.4091 538.837 14.2955C539.168 14.1771 539.454 14.0019 539.696 13.7699C539.937 13.5379 540.122 13.2514 540.25 12.9105L542.26 13.2727C542.099 13.8646 541.81 14.383 541.393 14.8281C540.981 15.2685 540.463 15.6117 539.838 15.858C539.218 16.0994 538.51 16.2202 537.714 16.2202ZM545.351 16V5.09091H547.404V6.82386H547.517C547.716 6.23674 548.066 5.77509 548.568 5.43892C549.075 5.09801 549.648 4.92756 550.287 4.92756C550.42 4.92756 550.576 4.93229 550.756 4.94176C550.941 4.95123 551.085 4.96307 551.189 4.97727V7.00852C551.104 6.98485 550.952 6.95881 550.735 6.9304C550.517 6.89725 550.299 6.88068 550.081 6.88068C549.579 6.88068 549.132 6.98722 548.739 7.20028C548.351 7.40862 548.043 7.69981 547.816 8.07386C547.588 8.44318 547.475 8.86458 547.475 9.33807V16H545.351ZM563.291 5.09091L559.335 16H557.062L553.099 5.09091H555.379L558.142 13.4858H558.256L561.011 5.09091H563.291ZM565.887 16V5.09091H568.01V16H565.887ZM566.959 3.40767C566.59 3.40767 566.273 3.28456 566.008 3.03835C565.747 2.7874 565.617 2.48911 565.617 2.14347C565.617 1.79309 565.747 1.49479 566.008 1.24858C566.273 0.997632 566.59 0.872159 566.959 0.872159C567.329 0.872159 567.644 0.997632 567.904 1.24858C568.169 1.49479 568.302 1.79309 568.302 2.14347C568.302 2.48911 568.169 2.7874 567.904 3.03835C567.644 3.28456 567.329 3.40767 566.959 3.40767ZM576.169 16.2202C575.094 16.2202 574.169 15.9905 573.392 15.5312C572.62 15.0672 572.024 14.4162 571.602 13.5781C571.186 12.7353 570.977 11.7481 570.977 10.6165C570.977 9.49905 571.186 8.5142 571.602 7.66193C572.024 6.80966 572.611 6.14441 573.364 5.66619C574.121 5.18797 575.007 4.94886 576.02 4.94886C576.636 4.94886 577.232 5.05066 577.81 5.25426C578.387 5.45786 578.906 5.77746 579.365 6.21307C579.824 6.64867 580.187 7.21449 580.452 7.91051C580.717 8.6018 580.85 9.44223 580.85 10.4318V11.1847H572.178V9.59375H578.769C578.769 9.03504 578.655 8.54025 578.428 8.10938C578.2 7.67377 577.881 7.33049 577.469 7.07955C577.062 6.8286 576.583 6.70312 576.034 6.70312C575.438 6.70312 574.917 6.84991 574.472 7.14347C574.031 7.43229 573.69 7.81108 573.449 8.27983C573.212 8.74384 573.094 9.24811 573.094 9.79261V11.0355C573.094 11.7647 573.222 12.3849 573.477 12.8963C573.738 13.4077 574.1 13.7983 574.564 14.0682C575.028 14.3333 575.57 14.4659 576.19 14.4659C576.593 14.4659 576.96 14.4091 577.291 14.2955C577.623 14.1771 577.909 14.0019 578.151 13.7699C578.392 13.5379 578.577 13.2514 578.705 12.9105L580.715 13.2727C580.554 13.8646 580.265 14.383 579.848 14.8281C579.436 15.2685 578.918 15.6117 578.293 15.858C577.672 16.0994 576.965 16.2202 576.169 16.2202ZM586.151 16L582.941 5.09091H585.136L587.273 13.1023H587.38L589.525 5.09091H591.719L593.85 13.0668H593.957L596.08 5.09091H598.275L595.072 16H592.905L590.69 8.12358H590.526L588.31 16H586.151ZM609.065 7.75426L607.14 8.09517C607.06 7.84896 606.932 7.61458 606.757 7.39205C606.586 7.16951 606.354 6.98722 606.061 6.84517C605.767 6.70312 605.4 6.6321 604.96 6.6321C604.358 6.6321 603.856 6.76705 603.454 7.03693C603.052 7.30208 602.85 7.64536 602.85 8.06676C602.85 8.43134 602.985 8.72491 603.255 8.94744C603.525 9.16998 603.961 9.35227 604.562 9.49432L606.295 9.89205C607.299 10.1241 608.047 10.4815 608.539 10.9645C609.032 11.4474 609.278 12.0748 609.278 12.8466C609.278 13.5 609.088 14.0824 608.71 14.5938C608.336 15.1004 607.812 15.4981 607.14 15.7869C606.472 16.0758 605.698 16.2202 604.818 16.2202C603.596 16.2202 602.599 15.9598 601.828 15.4389C601.056 14.9134 600.582 14.1676 600.407 13.2017L602.46 12.8892C602.588 13.4242 602.85 13.8291 603.248 14.1037C603.646 14.3736 604.164 14.5085 604.803 14.5085C605.499 14.5085 606.056 14.3641 606.472 14.0753C606.889 13.7817 607.097 13.4242 607.097 13.0028C607.097 12.6619 606.97 12.3755 606.714 12.1435C606.463 11.9115 606.077 11.7363 605.556 11.6179L603.71 11.2131C602.692 10.9811 601.939 10.6117 601.451 10.1051C600.968 9.59848 600.727 8.95691 600.727 8.1804C600.727 7.53646 600.907 6.97301 601.267 6.49006C601.626 6.0071 602.124 5.63068 602.758 5.3608C603.392 5.08617 604.119 4.94886 604.938 4.94886C606.117 4.94886 607.045 5.20455 607.722 5.71591C608.4 6.22254 608.847 6.90199 609.065 7.75426ZM4.60227 46.2415C3.91098 46.2415 3.28598 46.1136 2.72727 45.858C2.16856 45.5975 1.72585 45.2211 1.39915 44.7287C1.07718 44.2363 0.916193 43.6326 0.916193 42.9176C0.916193 42.3021 1.03456 41.7955 1.27131 41.3977C1.50805 41 1.82765 40.6851 2.23011 40.4531C2.63258 40.2211 3.08239 40.0459 3.57955 39.9276C4.0767 39.8092 4.58333 39.7192 5.09943 39.6577C5.75284 39.5819 6.28314 39.5204 6.69034 39.473C7.09754 39.4209 7.39347 39.3381 7.57812 39.2244C7.76278 39.1108 7.85511 38.9261 7.85511 38.6705V38.6207C7.85511 38.0005 7.67992 37.5199 7.32955 37.179C6.9839 36.8381 6.4678 36.6676 5.78125 36.6676C5.06629 36.6676 4.50284 36.8262 4.09091 37.1435C3.68371 37.456 3.40199 37.804 3.24574 38.1875L1.25 37.733C1.48674 37.0701 1.83239 36.535 2.28693 36.1278C2.74621 35.7159 3.27415 35.4176 3.87074 35.233C4.46733 35.0436 5.0947 34.9489 5.75284 34.9489C6.18845 34.9489 6.65009 35.0009 7.13778 35.1051C7.63021 35.2045 8.08949 35.3892 8.51562 35.6591C8.9465 35.929 9.29924 36.3149 9.57386 36.8168C9.84848 37.3139 9.9858 37.9602 9.9858 38.7557V46H7.91193V44.5085H7.8267C7.68939 44.7831 7.48343 45.053 7.20881 45.3182C6.93419 45.5833 6.58144 45.8035 6.15057 45.9787C5.7197 46.1539 5.2036 46.2415 4.60227 46.2415ZM5.06392 44.5369C5.65104 44.5369 6.15294 44.4209 6.5696 44.1889C6.991 43.9569 7.31061 43.6539 7.52841 43.2798C7.75095 42.901 7.86222 42.4962 7.86222 42.0653V40.6591C7.78646 40.7348 7.63968 40.8059 7.42188 40.8722C7.20881 40.9337 6.96496 40.9882 6.69034 41.0355C6.41572 41.0781 6.1482 41.1184 5.88778 41.1562C5.62737 41.1894 5.40956 41.2178 5.23438 41.2415C4.82244 41.2936 4.44602 41.3812 4.10511 41.5043C3.76894 41.6274 3.49905 41.8049 3.29545 42.0369C3.09659 42.2642 2.99716 42.5672 2.99716 42.946C2.99716 43.4716 3.19129 43.8693 3.57955 44.1392C3.9678 44.4044 4.46259 44.5369 5.06392 44.5369ZM15.5379 39.5227V46H13.4143V35.0909H15.4526V36.8665H15.5876C15.8385 36.2888 16.2315 35.8248 16.7665 35.4744C17.3063 35.1241 17.9858 34.9489 18.8049 34.9489C19.5483 34.9489 20.1993 35.1051 20.758 35.4176C21.3167 35.7254 21.75 36.1847 22.0577 36.7955C22.3655 37.4062 22.5194 38.1615 22.5194 39.0611V46H20.3958V39.3168C20.3958 38.526 20.1898 37.9081 19.7779 37.4631C19.366 37.0133 18.8002 36.7884 18.0805 36.7884C17.588 36.7884 17.1501 36.8949 16.7665 37.108C16.3878 37.321 16.0871 37.6335 15.8646 38.0455C15.6468 38.4527 15.5379 38.9451 15.5379 39.5227ZM30.0512 46.2131C29.1705 46.2131 28.3845 45.9882 27.6933 45.5384C27.0067 45.0838 26.4669 44.4375 26.0739 43.5994C25.6857 42.7566 25.4915 41.7457 25.4915 40.5668C25.4915 39.3878 25.688 38.3793 26.081 37.5412C26.4788 36.7031 27.0233 36.0616 27.7146 35.6165C28.4058 35.1714 29.1895 34.9489 30.0654 34.9489C30.7425 34.9489 31.287 35.0625 31.6989 35.2898C32.1156 35.5123 32.4376 35.7727 32.6648 36.071C32.8969 36.3693 33.0768 36.6321 33.2046 36.8594H33.3325V31.4545H35.456V46H33.3822V44.3026H33.2046C33.0768 44.5346 32.8921 44.7997 32.6506 45.098C32.4139 45.3963 32.0872 45.6567 31.6705 45.8793C31.2539 46.1018 30.7141 46.2131 30.0512 46.2131ZM30.52 44.402C31.1308 44.402 31.6469 44.241 32.0683 43.919C32.4944 43.5923 32.8164 43.1402 33.0342 42.5625C33.2567 41.9848 33.368 41.3125 33.368 40.5455C33.368 39.7879 33.2591 39.125 33.0413 38.5568C32.8235 37.9886 32.5039 37.5459 32.0825 37.2287C31.6611 36.9115 31.1402 36.7528 30.52 36.7528C29.8808 36.7528 29.3481 36.9186 28.9219 37.25C28.4958 37.5814 28.1738 38.0336 27.956 38.6065C27.743 39.1795 27.6364 39.8258 27.6364 40.5455C27.6364 41.2746 27.7453 41.9304 27.9631 42.5128C28.1809 43.0952 28.5029 43.5568 28.929 43.8977C29.3599 44.2339 29.8902 44.402 30.52 44.402ZM45.1504 31.4545H47.8137L52.4444 42.7614H52.6148L57.2455 31.4545H59.9089V46H57.8208V35.4744H57.6859L53.3961 45.9787H51.6631L47.3734 35.4673H47.2384V46H45.1504V31.4545ZM70.4396 41.4759V35.0909H72.5703V46H70.4822V44.1108H70.3686C70.1177 44.6932 69.7152 45.1785 69.1612 45.5668C68.612 45.9503 67.9278 46.142 67.1087 46.142C66.4079 46.142 65.7876 45.9882 65.2479 45.6804C64.7128 45.3679 64.2914 44.9062 63.9837 44.2955C63.6806 43.6847 63.5291 42.9295 63.5291 42.0298V35.0909H65.6527V41.7741C65.6527 42.5175 65.8587 43.1094 66.2706 43.5497C66.6825 43.9901 67.2176 44.2102 67.8757 44.2102C68.2734 44.2102 68.6688 44.1108 69.0618 43.9119C69.4595 43.7131 69.7886 43.4124 70.049 43.0099C70.3142 42.6075 70.4444 42.0961 70.4396 41.4759ZM80.6188 46.2202C79.5629 46.2202 78.6539 45.9811 77.8915 45.5028C77.134 45.0199 76.5516 44.3546 76.1444 43.5071C75.7372 42.6596 75.5336 41.6889 75.5336 40.5952C75.5336 39.4872 75.7419 38.5095 76.1586 37.6619C76.5753 36.8097 77.1624 36.1444 77.92 35.6662C78.6775 35.188 79.5701 34.9489 80.5975 34.9489C81.4261 34.9489 82.1647 35.1027 82.8134 35.4105C83.4621 35.7135 83.9853 36.1397 84.383 36.6889C84.7855 37.2382 85.0246 37.8797 85.1004 38.6136H83.0336C82.92 38.1023 82.6595 37.6619 82.2523 37.2926C81.8499 36.9233 81.3101 36.7386 80.633 36.7386C80.0412 36.7386 79.5227 36.8949 79.0776 37.2074C78.6373 37.5152 78.294 37.9555 78.0478 38.5284C77.8016 39.0966 77.6785 39.7689 77.6785 40.5455C77.6785 41.3409 77.7992 42.0275 78.0407 42.6051C78.2822 43.1828 78.6231 43.6302 79.0634 43.9474C79.5085 44.2647 80.0317 44.4233 80.633 44.4233C81.0355 44.4233 81.4001 44.3499 81.7268 44.2031C82.0582 44.0516 82.3352 43.8362 82.5577 43.5568C82.785 43.2775 82.9436 42.9413 83.0336 42.5483H85.1004C85.0246 43.2538 84.795 43.8835 84.4114 44.4375C84.0279 44.9915 83.5142 45.4271 82.8702 45.7443C82.231 46.0616 81.4806 46.2202 80.6188 46.2202ZM90.0949 39.5227V46H87.9713V31.4545H90.0665V36.8665H90.2014C90.4571 36.2794 90.8477 35.813 91.3733 35.4673C91.8989 35.1217 92.5854 34.9489 93.433 34.9489C94.1811 34.9489 94.8345 35.1027 95.3932 35.4105C95.9566 35.7183 96.3922 36.1776 96.7 36.7884C97.0125 37.3944 97.1687 38.152 97.1687 39.0611V46H95.0452V39.3168C95.0452 38.5166 94.8392 37.8963 94.4273 37.456C94.0153 37.0109 93.4424 36.7884 92.7085 36.7884C92.2066 36.7884 91.7568 36.8949 91.3591 37.108C90.9661 37.321 90.656 37.6335 90.4287 38.0455C90.2062 38.4527 90.0949 38.9451 90.0949 39.5227ZM106.666 31.4545H109.329L113.96 42.7614H114.13L118.761 31.4545H121.425V46H119.336V35.4744H119.201L114.912 45.9787H113.179L108.889 35.4673H108.754V46H106.666V31.4545ZM129.64 46.2202C128.617 46.2202 127.725 45.9858 126.962 45.517C126.2 45.0483 125.608 44.3925 125.187 43.5497C124.765 42.7069 124.555 41.7221 124.555 40.5952C124.555 39.4635 124.765 38.474 125.187 37.6264C125.608 36.7789 126.2 36.1207 126.962 35.652C127.725 35.1832 128.617 34.9489 129.64 34.9489C130.663 34.9489 131.555 35.1832 132.317 35.652C133.08 36.1207 133.672 36.7789 134.093 37.6264C134.514 38.474 134.725 39.4635 134.725 40.5952C134.725 41.7221 134.514 42.7069 134.093 43.5497C133.672 44.3925 133.08 45.0483 132.317 45.517C131.555 45.9858 130.663 46.2202 129.64 46.2202ZM129.647 44.4375C130.31 44.4375 130.859 44.2623 131.295 43.9119C131.73 43.5616 132.052 43.0952 132.261 42.5128C132.474 41.9304 132.58 41.2888 132.58 40.5881C132.58 39.892 132.474 39.2528 132.261 38.6705C132.052 38.0833 131.73 37.6122 131.295 37.2571C130.859 36.902 130.31 36.7244 129.647 36.7244C128.979 36.7244 128.425 36.902 127.985 37.2571C127.549 37.6122 127.225 38.0833 127.012 38.6705C126.804 39.2528 126.7 39.892 126.7 40.5881C126.7 41.2888 126.804 41.9304 127.012 42.5128C127.225 43.0952 127.549 43.5616 127.985 43.9119C128.425 44.2623 128.979 44.4375 129.647 44.4375ZM137.696 46V35.0909H139.748V36.8239H139.862C140.061 36.2367 140.411 35.7751 140.913 35.4389C141.419 35.098 141.992 34.9276 142.632 34.9276C142.764 34.9276 142.92 34.9323 143.1 34.9418C143.285 34.9512 143.429 34.9631 143.534 34.9773V37.0085C143.448 36.9848 143.297 36.9588 143.079 36.9304C142.861 36.8973 142.643 36.8807 142.426 36.8807C141.924 36.8807 141.476 36.9872 141.083 37.2003C140.695 37.4086 140.387 37.6998 140.16 38.0739C139.933 38.4432 139.819 38.8646 139.819 39.3381V46H137.696ZM150.282 46.2202C149.208 46.2202 148.282 45.9905 147.505 45.5312C146.734 45.0672 146.137 44.4162 145.716 43.5781C145.299 42.7353 145.091 41.7481 145.091 40.6165C145.091 39.4991 145.299 38.5142 145.716 37.6619C146.137 36.8097 146.724 36.1444 147.477 35.6662C148.235 35.188 149.12 34.9489 150.133 34.9489C150.749 34.9489 151.345 35.0507 151.923 35.2543C152.501 35.4579 153.019 35.7775 153.478 36.2131C153.938 36.6487 154.3 37.2145 154.565 37.9105C154.83 38.6018 154.963 39.4422 154.963 40.4318V41.1847H146.291V39.5938H152.882C152.882 39.035 152.768 38.5402 152.541 38.1094C152.314 37.6738 151.994 37.3305 151.582 37.0795C151.175 36.8286 150.697 36.7031 150.147 36.7031C149.551 36.7031 149.03 36.8499 148.585 37.1435C148.145 37.4323 147.804 37.8111 147.562 38.2798C147.325 38.7438 147.207 39.2481 147.207 39.7926V41.0355C147.207 41.7647 147.335 42.3849 147.591 42.8963C147.851 43.4077 148.213 43.7983 148.677 44.0682C149.141 44.3333 149.683 44.4659 150.304 44.4659C150.706 44.4659 151.073 44.4091 151.405 44.2955C151.736 44.1771 152.022 44.0019 152.264 43.7699C152.505 43.5379 152.69 43.2514 152.818 42.9105L154.828 43.2727C154.667 43.8646 154.378 44.383 153.961 44.8281C153.549 45.2685 153.031 45.6117 152.406 45.858C151.786 46.0994 151.078 46.2202 150.282 46.2202ZM159.318 46.1349C158.93 46.1349 158.596 45.9976 158.317 45.723C158.037 45.4437 157.898 45.1075 157.898 44.7145C157.898 44.3262 158.037 43.9948 158.317 43.7202C158.596 43.4408 158.93 43.3011 159.318 43.3011C159.706 43.3011 160.04 43.4408 160.32 43.7202C160.599 43.9948 160.739 44.3262 160.739 44.7145C160.739 44.9749 160.672 45.214 160.54 45.4318C160.412 45.6449 160.241 45.8153 160.028 45.9432C159.815 46.071 159.579 46.1349 159.318 46.1349ZM165.582 46.1349C165.194 46.1349 164.86 45.9976 164.581 45.723C164.301 45.4437 164.162 45.1075 164.162 44.7145C164.162 44.3262 164.301 43.9948 164.581 43.7202C164.86 43.4408 165.194 43.3011 165.582 43.3011C165.97 43.3011 166.304 43.4408 166.584 43.7202C166.863 43.9948 167.003 44.3262 167.003 44.7145C167.003 44.9749 166.936 45.214 166.804 45.4318C166.676 45.6449 166.505 45.8153 166.292 45.9432C166.079 46.071 165.843 46.1349 165.582 46.1349Z" fill="#C6C3C3" fill-opacity="0.8"/>
</svg>
