<svg width="122" height="17" viewBox="0 0 122 17" fill="none" xmlns="http://www.w3.org/2000/svg">
<path d="M0.213246 16V1.45455H2.40785V14.1108H8.99876V16H0.213246ZM11.7319 16V5.09091H13.8554V16H11.7319ZM12.8043 3.40767C12.435 3.40767 12.1177 3.28456 11.8526 3.03835C11.5922 2.7874 11.462 2.48911 11.462 2.14347C11.462 1.79309 11.5922 1.49479 11.8526 1.24858C12.1177 0.997632 12.435 0.872159 12.8043 0.872159C13.1736 0.872159 13.4885 0.997632 13.7489 1.24858C14.0141 1.49479 14.1466 1.79309 14.1466 2.14347C14.1466 2.48911 14.0141 2.7874 13.7489 3.03835C13.4885 3.28456 13.1736 3.40767 12.8043 3.40767ZM26.4447 5.09091L22.4887 16H20.216L16.2529 5.09091H18.5328L21.2956 13.4858H21.4092L24.1649 5.09091H26.4447ZM33.1711 16.2202C32.0962 16.2202 31.1706 15.9905 30.3941 15.5312C29.6223 15.0672 29.0257 14.4162 28.6043 13.5781C28.1876 12.7353 27.9793 11.7481 27.9793 10.6165C27.9793 9.49905 28.1876 8.5142 28.6043 7.66193C29.0257 6.80966 29.6128 6.14441 30.3657 5.66619C31.1232 5.18797 32.0087 4.94886 33.0219 4.94886C33.6374 4.94886 34.234 5.05066 34.8117 5.25426C35.3893 5.45786 35.9078 5.77746 36.3671 6.21307C36.8264 6.64867 37.1886 7.21449 37.4537 7.91051C37.7189 8.6018 37.8515 9.44223 37.8515 10.4318V11.1847H29.1796V9.59375H35.7705C35.7705 9.03504 35.6569 8.54025 35.4296 8.10938C35.2023 7.67377 34.8827 7.33049 34.4708 7.07955C34.0636 6.8286 33.5854 6.70312 33.0361 6.70312C32.4395 6.70312 31.9187 6.84991 31.4736 7.14347C31.0333 7.43229 30.6924 7.81108 30.4509 8.27983C30.2141 8.74384 30.0958 9.24811 30.0958 9.79261V11.0355C30.0958 11.7647 30.2236 12.3849 30.4793 12.8963C30.7397 13.4077 31.1019 13.7983 31.5659 14.0682C32.03 14.3333 32.5721 14.4659 33.1924 14.4659C33.5948 14.4659 33.9618 14.4091 34.2932 14.2955C34.6247 14.1771 34.9111 14.0019 35.1526 13.7699C35.3941 13.5379 35.5787 13.2514 35.7066 12.9105L37.7165 13.2727C37.5555 13.8646 37.2667 14.383 36.85 14.8281C36.4381 15.2685 35.9196 15.6117 35.2946 15.858C34.6744 16.0994 33.9665 16.2202 33.1711 16.2202ZM58.552 6.18466H56.3361C56.2509 5.71117 56.0923 5.29451 55.8603 4.93466C55.6283 4.57481 55.3442 4.26941 55.008 4.01847C54.6718 3.76752 54.2954 3.57812 53.8787 3.45028C53.4668 3.32244 53.0288 3.25852 52.5648 3.25852C51.7267 3.25852 50.9763 3.46922 50.3134 3.89062C49.6552 4.31203 49.1344 4.92992 48.7509 5.74432C48.3721 6.55871 48.1827 7.55303 48.1827 8.72727C48.1827 9.91098 48.3721 10.91 48.7509 11.7244C49.1344 12.5388 49.6576 13.1544 50.3205 13.571C50.9834 13.9877 51.7291 14.196 52.5577 14.196C53.017 14.196 53.4526 14.1345 53.8645 14.0114C54.2812 13.8835 54.6576 13.6965 54.9938 13.4503C55.33 13.2041 55.6141 12.9034 55.8461 12.5483C56.0828 12.1884 56.2462 11.7765 56.3361 11.3125L58.552 11.3196C58.4337 12.0346 58.204 12.6927 57.8631 13.294C57.5269 13.8906 57.0937 14.4067 56.5634 14.8423C56.0378 15.2732 55.4365 15.607 54.7594 15.8438C54.0823 16.0805 53.3437 16.1989 52.5435 16.1989C51.284 16.1989 50.1619 15.9006 49.177 15.304C48.1922 14.7027 47.4157 13.8433 46.8475 12.7259C46.284 11.6084 46.0023 10.2756 46.0023 8.72727C46.0023 7.17424 46.2864 5.84138 46.8546 4.72869C47.4228 3.61127 48.1993 2.75426 49.1841 2.15767C50.169 1.55634 51.2888 1.25568 52.5435 1.25568C53.3153 1.25568 54.035 1.36695 54.7026 1.58949C55.3749 1.80729 55.9786 2.12926 56.5137 2.5554C57.0487 2.9768 57.4914 3.4929 57.8418 4.10369C58.1922 4.70975 58.4289 5.40341 58.552 6.18466ZM63.5312 1.45455V16H61.4076V1.45455H63.5312ZM69.9628 16.2415C69.2715 16.2415 68.6465 16.1136 68.0878 15.858C67.5291 15.5975 67.0864 15.2211 66.7597 14.7287C66.4377 14.2363 66.2767 13.6326 66.2767 12.9176C66.2767 12.3021 66.3951 11.7955 66.6319 11.3977C66.8686 11 67.1882 10.6851 67.5907 10.4531C67.9931 10.2211 68.4429 10.0459 68.9401 9.92756C69.4373 9.80919 69.9439 9.71922 70.46 9.65767C71.1134 9.58191 71.6437 9.52036 72.0509 9.47301C72.4581 9.42093 72.754 9.33807 72.9387 9.22443C73.1233 9.1108 73.2157 8.92614 73.2157 8.67045V8.62074C73.2157 8.00047 73.0405 7.51989 72.6901 7.17898C72.3445 6.83807 71.8284 6.66761 71.1418 6.66761C70.4268 6.66761 69.8634 6.82623 69.4515 7.14347C69.0443 7.45597 68.7625 7.80398 68.6063 8.1875L66.6105 7.73295C66.8473 7.07008 67.1929 6.53504 67.6475 6.12784C68.1068 5.71591 68.6347 5.41761 69.2313 5.23295C69.8279 5.04356 70.4552 4.94886 71.1134 4.94886C71.549 4.94886 72.0106 5.00095 72.4983 5.10511C72.9908 5.20455 73.45 5.3892 73.8762 5.65909C74.307 5.92898 74.6598 6.31487 74.9344 6.81676C75.209 7.31392 75.3463 7.96023 75.3463 8.75568V16H73.2725V14.5085H73.1873C73.0499 14.7831 72.844 15.053 72.5694 15.3182C72.2947 15.5833 71.942 15.8035 71.5111 15.9787C71.0802 16.1539 70.5641 16.2415 69.9628 16.2415ZM70.4245 14.5369C71.0116 14.5369 71.5135 14.4209 71.9302 14.1889C72.3516 13.9569 72.6712 13.6539 72.889 13.2798C73.1115 12.901 73.2228 12.4962 73.2228 12.0653V10.6591C73.147 10.7348 73.0002 10.8059 72.7824 10.8722C72.5694 10.9337 72.3255 10.9882 72.0509 11.0355C71.7763 11.0781 71.5088 11.1184 71.2483 11.1562C70.9879 11.1894 70.7701 11.2178 70.5949 11.2415C70.183 11.2936 69.8066 11.3812 69.4657 11.5043C69.1295 11.6274 68.8596 11.8049 68.656 12.0369C68.4571 12.2642 68.3577 12.5672 68.3577 12.946C68.3577 13.4716 68.5518 13.8693 68.9401 14.1392C69.3284 14.4044 69.8231 14.5369 70.4245 14.5369ZM86.7495 7.75426L84.8248 8.09517C84.7443 7.84896 84.6165 7.61458 84.4413 7.39205C84.2708 7.16951 84.0388 6.98722 83.7453 6.84517C83.4517 6.70312 83.0848 6.6321 82.6444 6.6321C82.0431 6.6321 81.5412 6.76705 81.1387 7.03693C80.7363 7.30208 80.535 7.64536 80.535 8.06676C80.535 8.43134 80.67 8.72491 80.9399 8.94744C81.2098 9.16998 81.6454 9.35227 82.2467 9.49432L83.9796 9.89205C84.9834 10.1241 85.7315 10.4815 86.224 10.9645C86.7164 11.4474 86.9626 12.0748 86.9626 12.8466C86.9626 13.5 86.7732 14.0824 86.3944 14.5938C86.0204 15.1004 85.4972 15.4981 84.8248 15.7869C84.1572 16.0758 83.3831 16.2202 82.5024 16.2202C81.2808 16.2202 80.2841 15.9598 79.5123 15.4389C78.7405 14.9134 78.2671 14.1676 78.0919 13.2017L80.1444 12.8892C80.2723 13.4242 80.535 13.8291 80.9328 14.1037C81.3305 14.3736 81.849 14.5085 82.4882 14.5085C83.1842 14.5085 83.7405 14.3641 84.1572 14.0753C84.5739 13.7817 84.7822 13.4242 84.7822 13.0028C84.7822 12.6619 84.6544 12.3755 84.3987 12.1435C84.1477 11.9115 83.7618 11.7363 83.241 11.6179L81.3944 11.2131C80.3764 10.9811 79.6236 10.6117 79.1359 10.1051C78.6529 9.59848 78.4115 8.95691 78.4115 8.1804C78.4115 7.53646 78.5914 6.97301 78.9512 6.49006C79.3111 6.0071 79.8082 5.63068 80.4427 5.3608C81.0772 5.08617 81.804 4.94886 82.6231 4.94886C83.8021 4.94886 84.7301 5.20455 85.4072 5.71591C86.0843 6.22254 86.5317 6.90199 86.7495 7.75426ZM97.8722 7.75426L95.9475 8.09517C95.867 7.84896 95.7391 7.61458 95.564 7.39205C95.3935 7.16951 95.1615 6.98722 94.8679 6.84517C94.5744 6.70312 94.2074 6.6321 93.7671 6.6321C93.1658 6.6321 92.6639 6.76705 92.2614 7.03693C91.8589 7.30208 91.6577 7.64536 91.6577 8.06676C91.6577 8.43134 91.7926 8.72491 92.0625 8.94744C92.3324 9.16998 92.768 9.35227 93.3694 9.49432L95.1023 9.89205C96.1061 10.1241 96.8542 10.4815 97.3466 10.9645C97.839 11.4474 98.0853 12.0748 98.0853 12.8466C98.0853 13.5 97.8959 14.0824 97.5171 14.5938C97.143 15.1004 96.6198 15.4981 95.9475 15.7869C95.2799 16.0758 94.5057 16.2202 93.625 16.2202C92.4034 16.2202 91.4068 15.9598 90.635 15.4389C89.8632 14.9134 89.3897 14.1676 89.2145 13.2017L91.2671 12.8892C91.3949 13.4242 91.6577 13.8291 92.0554 14.1037C92.4532 14.3736 92.9716 14.5085 93.6108 14.5085C94.3069 14.5085 94.8632 14.3641 95.2799 14.0753C95.6965 13.7817 95.9049 13.4242 95.9049 13.0028C95.9049 12.6619 95.777 12.3755 95.5213 12.1435C95.2704 11.9115 94.8845 11.7363 94.3637 11.6179L92.5171 11.2131C91.4991 10.9811 90.7462 10.6117 90.2586 10.1051C89.7756 9.59848 89.5341 8.95691 89.5341 8.1804C89.5341 7.53646 89.714 6.97301 90.0739 6.49006C90.4337 6.0071 90.9309 5.63068 91.5654 5.3608C92.1998 5.08617 92.9266 4.94886 93.7458 4.94886C94.9247 4.94886 95.8528 5.20455 96.5299 5.71591C97.2069 6.22254 97.6544 6.90199 97.8722 7.75426ZM105.522 16.2202C104.447 16.2202 103.521 15.9905 102.745 15.5312C101.973 15.0672 101.376 14.4162 100.955 13.5781C100.538 12.7353 100.33 11.7481 100.33 10.6165C100.33 9.49905 100.538 8.5142 100.955 7.66193C101.376 6.80966 101.964 6.14441 102.716 5.66619C103.474 5.18797 104.359 4.94886 105.373 4.94886C105.988 4.94886 106.585 5.05066 107.162 5.25426C107.74 5.45786 108.259 5.77746 108.718 6.21307C109.177 6.64867 109.539 7.21449 109.805 7.91051C110.07 8.6018 110.202 9.44223 110.202 10.4318V11.1847H101.53V9.59375H108.121C108.121 9.03504 108.008 8.54025 107.78 8.10938C107.553 7.67377 107.233 7.33049 106.822 7.07955C106.414 6.8286 105.936 6.70312 105.387 6.70312C104.79 6.70312 104.269 6.84991 103.824 7.14347C103.384 7.43229 103.043 7.81108 102.802 8.27983C102.565 8.74384 102.447 9.24811 102.447 9.79261V11.0355C102.447 11.7647 102.574 12.3849 102.83 12.8963C103.09 13.4077 103.453 13.7983 103.917 14.0682C104.381 14.3333 104.923 14.4659 105.543 14.4659C105.946 14.4659 106.313 14.4091 106.644 14.2955C106.975 14.1771 107.262 14.0019 107.503 13.7699C107.745 13.5379 107.93 13.2514 108.057 12.9105L110.067 13.2727C109.906 13.8646 109.617 14.383 109.201 14.8281C108.789 15.2685 108.27 15.6117 107.645 15.858C107.025 16.0994 106.317 16.2202 105.522 16.2202ZM121.133 7.75426L119.208 8.09517C119.128 7.84896 119 7.61458 118.825 7.39205C118.654 7.16951 118.422 6.98722 118.129 6.84517C117.835 6.70312 117.468 6.6321 117.028 6.6321C116.427 6.6321 115.925 6.76705 115.522 7.03693C115.12 7.30208 114.919 7.64536 114.919 8.06676C114.919 8.43134 115.054 8.72491 115.323 8.94744C115.593 9.16998 116.029 9.35227 116.63 9.49432L118.363 9.89205C119.367 10.1241 120.115 10.4815 120.608 10.9645C121.1 11.4474 121.346 12.0748 121.346 12.8466C121.346 13.5 121.157 14.0824 120.778 14.5938C120.404 15.1004 119.881 15.4981 119.208 15.7869C118.541 16.0758 117.767 16.2202 116.886 16.2202C115.664 16.2202 114.668 15.9598 113.896 15.4389C113.124 14.9134 112.651 14.1676 112.475 13.2017L114.528 12.8892C114.656 13.4242 114.919 13.8291 115.316 14.1037C115.714 14.3736 116.233 14.5085 116.872 14.5085C117.568 14.5085 118.124 14.3641 118.541 14.0753C118.957 13.7817 119.166 13.4242 119.166 13.0028C119.166 12.6619 119.038 12.3755 118.782 12.1435C118.531 11.9115 118.145 11.7363 117.625 11.6179L115.778 11.2131C114.76 10.9811 114.007 10.6117 113.519 10.1051C113.037 9.59848 112.795 8.95691 112.795 8.1804C112.795 7.53646 112.975 6.97301 113.335 6.49006C113.695 6.0071 114.192 5.63068 114.826 5.3608C115.461 5.08617 116.188 4.94886 117.007 4.94886C118.186 4.94886 119.114 5.20455 119.791 5.71591C120.468 6.22254 120.915 6.90199 121.133 7.75426Z" fill="#F7F8F8"/>
</svg>
