<svg width="62" height="10" viewBox="0 0 62 10" fill="none" xmlns="http://www.w3.org/2000/svg">
<path d="M7.308 2.772C7.924 2.772 8.404 2.96 8.748 3.336C9.1 3.704 9.276 4.22 9.276 4.884V8.856C9.276 8.896 9.26 8.932 9.228 8.964C9.204 8.988 9.172 9 9.132 9H8.04C8 9 7.964 8.988 7.932 8.964C7.908 8.932 7.896 8.896 7.896 8.856V5.172C7.896 4.804 7.796 4.512 7.596 4.296C7.404 4.08 7.144 3.972 6.816 3.972C6.488 3.972 6.22 4.08 6.012 4.296C5.804 4.512 5.7 4.8 5.7 5.16V8.856C5.7 8.896 5.684 8.932 5.652 8.964C5.628 8.988 5.596 9 5.556 9H4.464C4.424 9 4.388 8.988 4.356 8.964C4.332 8.932 4.32 8.896 4.32 8.856V5.172C4.32 4.804 4.22 4.512 4.02 4.296C3.82 4.08 3.556 3.972 3.228 3.972C2.924 3.972 2.672 4.06 2.472 4.236C2.28 4.412 2.168 4.652 2.136 4.956V8.856C2.136 8.896 2.12 8.932 2.088 8.964C2.064 8.988 2.032 9 1.992 9H0.888C0.848 9 0.812 8.988 0.78 8.964C0.756 8.932 0.744 8.896 0.744 8.856V3.012C0.744 2.972 0.756 2.94 0.78 2.916C0.812 2.884 0.848 2.868 0.888 2.868H1.992C2.032 2.868 2.064 2.884 2.088 2.916C2.12 2.94 2.136 2.972 2.136 3.012V3.408C2.136 3.432 2.144 3.448 2.16 3.456C2.176 3.464 2.192 3.456 2.208 3.432C2.384 3.208 2.6 3.044 2.856 2.94C3.12 2.828 3.412 2.772 3.732 2.772C4.124 2.772 4.468 2.852 4.764 3.012C5.06 3.172 5.288 3.404 5.448 3.708C5.472 3.74 5.5 3.74 5.532 3.708C5.708 3.388 5.952 3.152 6.264 3C6.576 2.848 6.924 2.772 7.308 2.772ZM13.2732 2.772C13.7772 2.772 14.2212 2.86 14.6052 3.036C14.9892 3.212 15.2852 3.456 15.4932 3.768C15.7012 4.072 15.8052 4.42 15.8052 4.812V8.856C15.8052 8.896 15.7892 8.932 15.7572 8.964C15.7332 8.988 15.7012 9 15.6612 9H14.5572C14.5172 9 14.4812 8.988 14.4492 8.964C14.4252 8.932 14.4132 8.896 14.4132 8.856V8.472C14.4132 8.448 14.4052 8.436 14.3892 8.436C14.3732 8.428 14.3572 8.432 14.3412 8.448C13.9492 8.88 13.3812 9.096 12.6372 9.096C12.0372 9.096 11.5412 8.944 11.1492 8.64C10.7652 8.336 10.5732 7.884 10.5732 7.284C10.5732 6.66 10.7892 6.176 11.2212 5.832C11.6612 5.48 12.2772 5.304 13.0692 5.304H14.3532C14.3932 5.304 14.4132 5.284 14.4132 5.244V4.956C14.4132 4.644 14.3212 4.404 14.1372 4.236C13.9532 4.06 13.6772 3.972 13.3092 3.972C13.0052 3.972 12.7572 4.028 12.5652 4.14C12.3812 4.244 12.2652 4.392 12.2172 4.584C12.1932 4.68 12.1372 4.72 12.0492 4.704L10.8852 4.56C10.8452 4.552 10.8092 4.54 10.7772 4.524C10.7532 4.5 10.7452 4.472 10.7532 4.44C10.8172 3.952 11.0772 3.552 11.5332 3.24C11.9972 2.928 12.5772 2.772 13.2732 2.772ZM12.9852 7.992C13.3772 7.992 13.7132 7.888 13.9932 7.68C14.2732 7.472 14.4132 7.208 14.4132 6.888V6.324C14.4132 6.284 14.3932 6.264 14.3532 6.264H13.3452C12.9212 6.264 12.5852 6.344 12.3372 6.504C12.0972 6.664 11.9772 6.892 11.9772 7.188C11.9772 7.444 12.0692 7.644 12.2532 7.788C12.4452 7.924 12.6892 7.992 12.9852 7.992ZM19.9987 9.096C19.3827 9.096 18.8507 8.94 18.4027 8.628C17.9547 8.308 17.6427 7.88 17.4667 7.344C17.3387 6.984 17.2747 6.504 17.2747 5.904C17.2747 5.328 17.3387 4.856 17.4667 4.488C17.6347 3.96 17.9427 3.544 18.3907 3.24C18.8467 2.928 19.3827 2.772 19.9987 2.772C20.6227 2.772 21.1667 2.928 21.6307 3.24C22.0947 3.552 22.4027 3.944 22.5547 4.416C22.5947 4.544 22.6227 4.672 22.6387 4.8V4.824C22.6387 4.904 22.5947 4.952 22.5067 4.968L21.4267 5.124H21.4027C21.3307 5.124 21.2827 5.084 21.2587 5.004C21.2587 4.964 21.2547 4.932 21.2467 4.908C21.2307 4.844 21.2147 4.788 21.1987 4.74C21.1267 4.516 20.9827 4.332 20.7667 4.188C20.5507 4.044 20.2947 3.972 19.9987 3.972C19.6947 3.972 19.4347 4.052 19.2187 4.212C19.0107 4.364 18.8707 4.576 18.7987 4.848C18.7187 5.104 18.6787 5.46 18.6787 5.916C18.6787 6.356 18.7147 6.712 18.7867 6.984C18.8667 7.264 19.0107 7.488 19.2187 7.656C19.4267 7.816 19.6867 7.896 19.9987 7.896C20.3027 7.896 20.5627 7.82 20.7787 7.668C21.0027 7.508 21.1467 7.296 21.2107 7.032C21.2187 7.016 21.2227 6.996 21.2227 6.972C21.2307 6.964 21.2347 6.952 21.2347 6.936C21.2587 6.84 21.3147 6.8 21.4027 6.816L22.4827 6.984C22.5227 6.992 22.5547 7.012 22.5787 7.044C22.6107 7.068 22.6227 7.104 22.6147 7.152C22.5907 7.28 22.5707 7.372 22.5547 7.428C22.4027 7.94 22.0947 8.348 21.6307 8.652C21.1667 8.948 20.6227 9.096 19.9987 9.096ZM26.9977 2.772C27.6457 2.772 28.1617 2.964 28.5457 3.348C28.9377 3.732 29.1337 4.256 29.1337 4.92V8.856C29.1337 8.896 29.1177 8.932 29.0857 8.964C29.0617 8.988 29.0297 9 28.9897 9H27.8857C27.8457 9 27.8097 8.988 27.7777 8.964C27.7537 8.932 27.7417 8.896 27.7417 8.856V5.208C27.7417 4.84 27.6377 4.544 27.4297 4.32C27.2217 4.088 26.9457 3.972 26.6017 3.972C26.2577 3.972 25.9777 4.084 25.7617 4.308C25.5537 4.532 25.4497 4.828 25.4497 5.196V8.856C25.4497 8.896 25.4337 8.932 25.4017 8.964C25.3777 8.988 25.3457 9 25.3057 9H24.2017C24.1617 9 24.1257 8.988 24.0937 8.964C24.0697 8.932 24.0577 8.896 24.0577 8.856V0.744C24.0577 0.704 24.0697 0.672 24.0937 0.648C24.1257 0.615999 24.1617 0.599999 24.2017 0.599999H25.3057C25.3457 0.599999 25.3777 0.615999 25.4017 0.648C25.4337 0.672 25.4497 0.704 25.4497 0.744V3.396C25.4497 3.42 25.4577 3.436 25.4737 3.444C25.4897 3.452 25.5017 3.444 25.5097 3.42C25.8377 2.988 26.3337 2.772 26.9977 2.772ZM33.1651 2.772C33.6691 2.772 34.1131 2.86 34.4971 3.036C34.8811 3.212 35.1771 3.456 35.3851 3.768C35.5931 4.072 35.6971 4.42 35.6971 4.812V8.856C35.6971 8.896 35.6811 8.932 35.6491 8.964C35.6251 8.988 35.5931 9 35.5531 9H34.4491C34.4091 9 34.3731 8.988 34.3411 8.964C34.3171 8.932 34.3051 8.896 34.3051 8.856V8.472C34.3051 8.448 34.2971 8.436 34.2811 8.436C34.2651 8.428 34.2491 8.432 34.2331 8.448C33.8411 8.88 33.2731 9.096 32.5291 9.096C31.9291 9.096 31.4331 8.944 31.0411 8.64C30.6571 8.336 30.4651 7.884 30.4651 7.284C30.4651 6.66 30.6811 6.176 31.1131 5.832C31.5531 5.48 32.1691 5.304 32.9611 5.304H34.2451C34.2851 5.304 34.3051 5.284 34.3051 5.244V4.956C34.3051 4.644 34.2131 4.404 34.0291 4.236C33.8451 4.06 33.5691 3.972 33.2011 3.972C32.8971 3.972 32.6491 4.028 32.4571 4.14C32.2731 4.244 32.1571 4.392 32.1091 4.584C32.0851 4.68 32.0291 4.72 31.9411 4.704L30.7771 4.56C30.7371 4.552 30.7011 4.54 30.6691 4.524C30.6451 4.5 30.6371 4.472 30.6451 4.44C30.7091 3.952 30.9691 3.552 31.4251 3.24C31.8891 2.928 32.4691 2.772 33.1651 2.772ZM32.8771 7.992C33.2691 7.992 33.6051 7.888 33.8851 7.68C34.1651 7.472 34.3051 7.208 34.3051 6.888V6.324C34.3051 6.284 34.2851 6.264 34.2451 6.264H33.2371C32.8131 6.264 32.4771 6.344 32.2291 6.504C31.9891 6.664 31.8691 6.892 31.8691 7.188C31.8691 7.444 31.9611 7.644 32.1451 7.788C32.3371 7.924 32.5811 7.992 32.8771 7.992ZM40.2746 2.772C40.9226 2.772 41.4386 2.964 41.8226 3.348C42.2146 3.732 42.4106 4.256 42.4106 4.92V8.856C42.4106 8.896 42.3946 8.932 42.3626 8.964C42.3386 8.988 42.3066 9 42.2666 9H41.1626C41.1226 9 41.0866 8.988 41.0546 8.964C41.0306 8.932 41.0186 8.896 41.0186 8.856V5.208C41.0186 4.84 40.9146 4.544 40.7066 4.32C40.4986 4.088 40.2226 3.972 39.8786 3.972C39.5346 3.972 39.2546 4.084 39.0386 4.308C38.8306 4.532 38.7266 4.828 38.7266 5.196V8.856C38.7266 8.896 38.7106 8.932 38.6786 8.964C38.6546 8.988 38.6226 9 38.5826 9H37.4786C37.4386 9 37.4026 8.988 37.3706 8.964C37.3466 8.932 37.3346 8.896 37.3346 8.856V3.012C37.3346 2.972 37.3466 2.94 37.3706 2.916C37.4026 2.884 37.4386 2.868 37.4786 2.868H38.5826C38.6226 2.868 38.6546 2.884 38.6786 2.916C38.7106 2.94 38.7266 2.972 38.7266 3.012V3.396C38.7266 3.42 38.7346 3.436 38.7506 3.444C38.7666 3.452 38.7786 3.444 38.7866 3.42C39.1146 2.988 39.6106 2.772 40.2746 2.772ZM44.894 2.028C44.646 2.028 44.442 1.948 44.282 1.788C44.122 1.628 44.042 1.424 44.042 1.176C44.042 0.928 44.122 0.724 44.282 0.564C44.442 0.404 44.646 0.323999 44.894 0.323999C45.142 0.323999 45.346 0.404 45.506 0.564C45.666 0.724 45.746 0.928 45.746 1.176C45.746 1.424 45.666 1.628 45.506 1.788C45.346 1.948 45.142 2.028 44.894 2.028ZM44.318 9C44.278 9 44.242 8.988 44.21 8.964C44.186 8.932 44.174 8.896 44.174 8.856V3C44.174 2.96 44.186 2.928 44.21 2.904C44.242 2.872 44.278 2.856 44.318 2.856H45.422C45.462 2.856 45.494 2.872 45.518 2.904C45.55 2.928 45.566 2.96 45.566 3V8.856C45.566 8.896 45.55 8.932 45.518 8.964C45.494 8.988 45.462 9 45.422 9H44.318ZM49.9566 9.096C49.3406 9.096 48.8086 8.94 48.3606 8.628C47.9126 8.308 47.6006 7.88 47.4246 7.344C47.2966 6.984 47.2326 6.504 47.2326 5.904C47.2326 5.328 47.2966 4.856 47.4246 4.488C47.5926 3.96 47.9006 3.544 48.3486 3.24C48.8046 2.928 49.3406 2.772 49.9566 2.772C50.5806 2.772 51.1246 2.928 51.5886 3.24C52.0526 3.552 52.3606 3.944 52.5126 4.416C52.5526 4.544 52.5806 4.672 52.5966 4.8V4.824C52.5966 4.904 52.5526 4.952 52.4646 4.968L51.3846 5.124H51.3606C51.2886 5.124 51.2406 5.084 51.2166 5.004C51.2166 4.964 51.2126 4.932 51.2046 4.908C51.1886 4.844 51.1726 4.788 51.1566 4.74C51.0846 4.516 50.9406 4.332 50.7246 4.188C50.5086 4.044 50.2526 3.972 49.9566 3.972C49.6526 3.972 49.3926 4.052 49.1766 4.212C48.9686 4.364 48.8286 4.576 48.7566 4.848C48.6766 5.104 48.6366 5.46 48.6366 5.916C48.6366 6.356 48.6726 6.712 48.7446 6.984C48.8246 7.264 48.9686 7.488 49.1766 7.656C49.3846 7.816 49.6446 7.896 49.9566 7.896C50.2606 7.896 50.5206 7.82 50.7366 7.668C50.9606 7.508 51.1046 7.296 51.1686 7.032C51.1766 7.016 51.1806 6.996 51.1806 6.972C51.1886 6.964 51.1926 6.952 51.1926 6.936C51.2166 6.84 51.2726 6.8 51.3606 6.816L52.4406 6.984C52.4806 6.992 52.5126 7.012 52.5366 7.044C52.5686 7.068 52.5806 7.104 52.5726 7.152C52.5486 7.28 52.5286 7.372 52.5126 7.428C52.3606 7.94 52.0526 8.348 51.5886 8.652C51.1246 8.948 50.5806 9.096 49.9566 9.096ZM56.3556 2.772C56.8596 2.772 57.3036 2.86 57.6876 3.036C58.0716 3.212 58.3676 3.456 58.5756 3.768C58.7836 4.072 58.8876 4.42 58.8876 4.812V8.856C58.8876 8.896 58.8716 8.932 58.8396 8.964C58.8156 8.988 58.7836 9 58.7436 9H57.6396C57.5996 9 57.5636 8.988 57.5316 8.964C57.5076 8.932 57.4956 8.896 57.4956 8.856V8.472C57.4956 8.448 57.4876 8.436 57.4716 8.436C57.4556 8.428 57.4396 8.432 57.4236 8.448C57.0316 8.88 56.4636 9.096 55.7196 9.096C55.1196 9.096 54.6236 8.944 54.2316 8.64C53.8476 8.336 53.6556 7.884 53.6556 7.284C53.6556 6.66 53.8716 6.176 54.3036 5.832C54.7436 5.48 55.3596 5.304 56.1516 5.304H57.4356C57.4756 5.304 57.4956 5.284 57.4956 5.244V4.956C57.4956 4.644 57.4036 4.404 57.2196 4.236C57.0356 4.06 56.7596 3.972 56.3916 3.972C56.0876 3.972 55.8396 4.028 55.6476 4.14C55.4636 4.244 55.3476 4.392 55.2996 4.584C55.2756 4.68 55.2196 4.72 55.1316 4.704L53.9676 4.56C53.9276 4.552 53.8916 4.54 53.8596 4.524C53.8356 4.5 53.8276 4.472 53.8356 4.44C53.8996 3.952 54.1596 3.552 54.6156 3.24C55.0796 2.928 55.6596 2.772 56.3556 2.772ZM56.0676 7.992C56.4596 7.992 56.7956 7.888 57.0756 7.68C57.3556 7.472 57.4956 7.208 57.4956 6.888V6.324C57.4956 6.284 57.4756 6.264 57.4356 6.264H56.4276C56.0036 6.264 55.6676 6.344 55.4196 6.504C55.1796 6.664 55.0596 6.892 55.0596 7.188C55.0596 7.444 55.1516 7.644 55.3356 7.788C55.5276 7.924 55.7716 7.992 56.0676 7.992ZM60.6691 9C60.6291 9 60.5931 8.988 60.5611 8.964C60.5371 8.932 60.5251 8.896 60.5251 8.856V0.744C60.5251 0.704 60.5371 0.672 60.5611 0.648C60.5931 0.615999 60.6291 0.599999 60.6691 0.599999H61.7731C61.8131 0.599999 61.8451 0.615999 61.8691 0.648C61.9011 0.672 61.9171 0.704 61.9171 0.744V8.856C61.9171 8.896 61.9011 8.932 61.8691 8.964C61.8451 8.988 61.8131 9 61.7731 9H60.6691Z" fill="#838383"/>
</svg>
