<svg width="109" height="12" viewBox="0 0 109 12" fill="none" xmlns="http://www.w3.org/2000/svg">
<path d="M6.288 0.696C6.328 0.631999 6.384 0.599999 6.456 0.599999H7.56C7.6 0.599999 7.632 0.615999 7.656 0.648C7.688 0.672 7.704 0.704 7.704 0.744V8.856C7.704 8.896 7.688 8.932 7.656 8.964C7.632 8.988 7.6 9 7.56 9H6.456C6.416 9 6.38 8.988 6.348 8.964C6.324 8.932 6.312 8.896 6.312 8.856V3.132C6.312 3.108 6.3 3.092 6.276 3.084C6.26 3.076 6.248 3.084 6.24 3.108L4.74 5.412C4.7 5.476 4.644 5.508 4.572 5.508H4.02C3.948 5.508 3.892 5.476 3.852 5.412L2.34 3.12C2.332 3.096 2.316 3.088 2.292 3.096C2.276 3.104 2.268 3.12 2.268 3.144V8.856C2.268 8.896 2.252 8.932 2.22 8.964C2.196 8.988 2.164 9 2.124 9H1.02C0.98 9 0.944 8.988 0.912 8.964C0.888 8.932 0.876 8.896 0.876 8.856V0.744C0.876 0.704 0.888 0.672 0.912 0.648C0.944 0.615999 0.98 0.599999 1.02 0.599999H2.124C2.196 0.599999 2.252 0.631999 2.292 0.696L4.248 3.66C4.264 3.676 4.28 3.684 4.296 3.684C4.312 3.684 4.324 3.676 4.332 3.66L6.288 0.696ZM11.9021 2.772C12.4061 2.772 12.8501 2.86 13.2341 3.036C13.6181 3.212 13.9141 3.456 14.1221 3.768C14.3301 4.072 14.4341 4.42 14.4341 4.812V8.856C14.4341 8.896 14.4181 8.932 14.3861 8.964C14.3621 8.988 14.3301 9 14.2901 9H13.1861C13.1461 9 13.1101 8.988 13.0781 8.964C13.0541 8.932 13.0421 8.896 13.0421 8.856V8.472C13.0421 8.448 13.0341 8.436 13.0181 8.436C13.0021 8.428 12.9861 8.432 12.9701 8.448C12.5781 8.88 12.0101 9.096 11.2661 9.096C10.6661 9.096 10.1701 8.944 9.77812 8.64C9.39412 8.336 9.20212 7.884 9.20212 7.284C9.20212 6.66 9.41812 6.176 9.85012 5.832C10.2901 5.48 10.9061 5.304 11.6981 5.304H12.9821C13.0221 5.304 13.0421 5.284 13.0421 5.244V4.956C13.0421 4.644 12.9501 4.404 12.7661 4.236C12.5821 4.06 12.3061 3.972 11.9381 3.972C11.6341 3.972 11.3861 4.028 11.1941 4.14C11.0101 4.244 10.8941 4.392 10.8461 4.584C10.8221 4.68 10.7661 4.72 10.6781 4.704L9.51412 4.56C9.47412 4.552 9.43812 4.54 9.40612 4.524C9.38212 4.5 9.37412 4.472 9.38212 4.44C9.44612 3.952 9.70612 3.552 10.1621 3.24C10.6261 2.928 11.2061 2.772 11.9021 2.772ZM11.6141 7.992C12.0061 7.992 12.3421 7.888 12.6221 7.68C12.9021 7.472 13.0421 7.208 13.0421 6.888V6.324C13.0421 6.284 13.0221 6.264 12.9821 6.264H11.9741C11.5501 6.264 11.2141 6.344 10.9661 6.504C10.7261 6.664 10.6061 6.892 10.6061 7.188C10.6061 7.444 10.6981 7.644 10.8821 7.788C11.0741 7.924 11.3181 7.992 11.6141 7.992ZM18.9277 2.796C19.1837 2.796 19.4077 2.848 19.5997 2.952C19.6637 2.984 19.6877 3.044 19.6717 3.132L19.4677 4.212C19.4597 4.308 19.4037 4.336 19.2997 4.296C19.1797 4.256 19.0397 4.236 18.8797 4.236C18.7757 4.236 18.6957 4.24 18.6397 4.248C18.3037 4.264 18.0237 4.384 17.7997 4.608C17.5757 4.824 17.4637 5.108 17.4637 5.46V8.856C17.4637 8.896 17.4477 8.932 17.4157 8.964C17.3917 8.988 17.3597 9 17.3197 9H16.2157C16.1757 9 16.1397 8.988 16.1077 8.964C16.0837 8.932 16.0717 8.896 16.0717 8.856V3.012C16.0717 2.972 16.0837 2.94 16.1077 2.916C16.1397 2.884 16.1757 2.868 16.2157 2.868H17.3197C17.3597 2.868 17.3917 2.884 17.4157 2.916C17.4477 2.94 17.4637 2.972 17.4637 3.012V3.552C17.4637 3.584 17.4677 3.604 17.4757 3.612C17.4917 3.612 17.5077 3.6 17.5237 3.576C17.8597 3.056 18.3277 2.796 18.9277 2.796ZM20.9674 9C20.9274 9 20.8914 8.988 20.8594 8.964C20.8354 8.932 20.8234 8.896 20.8234 8.856V0.744C20.8234 0.704 20.8354 0.672 20.8594 0.648C20.8914 0.615999 20.9274 0.599999 20.9674 0.599999H22.0714C22.1114 0.599999 22.1434 0.615999 22.1674 0.648C22.1994 0.672 22.2154 0.704 22.2154 0.744V5.076C22.2154 5.1 22.2234 5.116 22.2394 5.124C22.2554 5.132 22.2714 5.124 22.2874 5.1L24.2314 2.952C24.2874 2.896 24.3474 2.868 24.4114 2.868H25.6834C25.7634 2.868 25.8034 2.896 25.8034 2.952C25.8034 2.976 25.7914 3.008 25.7674 3.048L24.2434 4.872C24.2194 4.896 24.2154 4.924 24.2314 4.956L26.0314 8.832C26.0474 8.864 26.0554 8.888 26.0554 8.904C26.0554 8.968 26.0114 9 25.9234 9H24.7594C24.6794 9 24.6234 8.964 24.5914 8.892L23.2834 5.844C23.2754 5.828 23.2594 5.82 23.2354 5.82C23.2194 5.812 23.2074 5.816 23.1994 5.832L22.2394 6.936C22.2234 6.968 22.2154 6.996 22.2154 7.02V8.856C22.2154 8.896 22.1994 8.932 22.1674 8.964C22.1434 8.988 22.1114 9 22.0714 9H20.9674ZM32.0713 5.244C32.1033 5.444 32.1193 5.668 32.1193 5.916L32.1073 6.288C32.1073 6.384 32.0593 6.432 31.9633 6.432H28.2073C28.1673 6.432 28.1473 6.452 28.1473 6.492C28.1713 6.756 28.2073 6.936 28.2553 7.032C28.4473 7.608 28.9153 7.9 29.6593 7.908C30.2033 7.908 30.6353 7.684 30.9553 7.236C30.9873 7.188 31.0273 7.164 31.0753 7.164C31.1073 7.164 31.1353 7.176 31.1593 7.2L31.9033 7.812C31.9753 7.868 31.9873 7.932 31.9393 8.004C31.6913 8.356 31.3593 8.628 30.9433 8.82C30.5353 9.012 30.0793 9.108 29.5753 9.108C28.9513 9.108 28.4193 8.968 27.9793 8.688C27.5473 8.408 27.2313 8.016 27.0313 7.512C26.8473 7.08 26.7553 6.48 26.7553 5.712C26.7553 5.248 26.8033 4.872 26.8993 4.584C27.0593 4.024 27.3593 3.584 27.7993 3.264C28.2473 2.936 28.7833 2.772 29.4073 2.772C30.9833 2.772 31.8713 3.596 32.0713 5.244ZM29.4073 3.972C29.1113 3.972 28.8633 4.048 28.6633 4.2C28.4713 4.344 28.3353 4.548 28.2553 4.812C28.2073 4.948 28.1753 5.124 28.1593 5.34C28.1433 5.38 28.1593 5.4 28.2073 5.4H30.6433C30.6833 5.4 30.7033 5.38 30.7033 5.34C30.6873 5.14 30.6633 4.988 30.6313 4.884C30.5593 4.596 30.4153 4.372 30.1993 4.212C29.9913 4.052 29.7273 3.972 29.4073 3.972ZM36.7663 3.852C36.7663 3.892 36.7503 3.928 36.7183 3.96C36.6943 3.984 36.6623 3.996 36.6223 3.996H35.3983C35.3583 3.996 35.3383 4.016 35.3383 4.056V6.948C35.3383 7.252 35.4023 7.472 35.5303 7.608C35.6663 7.744 35.8783 7.812 36.1663 7.812H36.5263C36.5663 7.812 36.5983 7.828 36.6223 7.86C36.6543 7.884 36.6703 7.916 36.6703 7.956V8.856C36.6703 8.944 36.6223 8.996 36.5263 9.012L35.9023 9.024C35.2703 9.024 34.7983 8.916 34.4863 8.7C34.1743 8.484 34.0143 8.076 34.0063 7.476V4.056C34.0063 4.016 33.9863 3.996 33.9463 3.996H33.2623C33.2223 3.996 33.1863 3.984 33.1543 3.96C33.1303 3.928 33.1183 3.892 33.1183 3.852V3.012C33.1183 2.972 33.1303 2.94 33.1543 2.916C33.1863 2.884 33.2223 2.868 33.2623 2.868H33.9463C33.9863 2.868 34.0063 2.848 34.0063 2.808V1.404C34.0063 1.364 34.0183 1.332 34.0423 1.308C34.0743 1.276 34.1103 1.26 34.1503 1.26H35.1943C35.2343 1.26 35.2663 1.276 35.2903 1.308C35.3223 1.332 35.3383 1.364 35.3383 1.404V2.808C35.3383 2.848 35.3583 2.868 35.3983 2.868H36.6223C36.6623 2.868 36.6943 2.884 36.7183 2.916C36.7503 2.94 36.7663 2.972 36.7663 3.012V3.852ZM41.4946 3.852C41.4946 3.892 41.4786 3.928 41.4466 3.96C41.4226 3.984 41.3906 3.996 41.3506 3.996H40.1266C40.0866 3.996 40.0666 4.016 40.0666 4.056V6.948C40.0666 7.252 40.1306 7.472 40.2586 7.608C40.3946 7.744 40.6066 7.812 40.8946 7.812H41.2546C41.2946 7.812 41.3266 7.828 41.3506 7.86C41.3826 7.884 41.3986 7.916 41.3986 7.956V8.856C41.3986 8.944 41.3506 8.996 41.2546 9.012L40.6306 9.024C39.9986 9.024 39.5266 8.916 39.2146 8.7C38.9026 8.484 38.7426 8.076 38.7346 7.476V4.056C38.7346 4.016 38.7146 3.996 38.6746 3.996H37.9906C37.9506 3.996 37.9146 3.984 37.8826 3.96C37.8586 3.928 37.8466 3.892 37.8466 3.852V3.012C37.8466 2.972 37.8586 2.94 37.8826 2.916C37.9146 2.884 37.9506 2.868 37.9906 2.868H38.6746C38.7146 2.868 38.7346 2.848 38.7346 2.808V1.404C38.7346 1.364 38.7466 1.332 38.7706 1.308C38.8026 1.276 38.8386 1.26 38.8786 1.26H39.9226C39.9626 1.26 39.9946 1.276 40.0186 1.308C40.0506 1.332 40.0666 1.364 40.0666 1.404V2.808C40.0666 2.848 40.0866 2.868 40.1266 2.868H41.3506C41.3906 2.868 41.4226 2.884 41.4466 2.916C41.4786 2.94 41.4946 2.972 41.4946 3.012V3.852ZM43.7629 2.028C43.5149 2.028 43.3109 1.948 43.1509 1.788C42.9909 1.628 42.9109 1.424 42.9109 1.176C42.9109 0.928 42.9909 0.724 43.1509 0.564C43.3109 0.404 43.5149 0.323999 43.7629 0.323999C44.0109 0.323999 44.2149 0.404 44.3749 0.564C44.5349 0.724 44.6149 0.928 44.6149 1.176C44.6149 1.424 44.5349 1.628 44.3749 1.788C44.2149 1.948 44.0109 2.028 43.7629 2.028ZM43.1869 9C43.1469 9 43.1109 8.988 43.0789 8.964C43.0549 8.932 43.0429 8.896 43.0429 8.856V3C43.0429 2.96 43.0549 2.928 43.0789 2.904C43.1109 2.872 43.1469 2.856 43.1869 2.856H44.2909C44.3309 2.856 44.3629 2.872 44.3869 2.904C44.4189 2.928 44.4349 2.96 44.4349 3V8.856C44.4349 8.896 44.4189 8.932 44.3869 8.964C44.3629 8.988 44.3309 9 44.2909 9H43.1869ZM49.2095 2.772C49.8575 2.772 50.3735 2.964 50.7575 3.348C51.1495 3.732 51.3455 4.256 51.3455 4.92V8.856C51.3455 8.896 51.3295 8.932 51.2975 8.964C51.2735 8.988 51.2415 9 51.2015 9H50.0975C50.0575 9 50.0215 8.988 49.9895 8.964C49.9655 8.932 49.9535 8.896 49.9535 8.856V5.208C49.9535 4.84 49.8495 4.544 49.6415 4.32C49.4335 4.088 49.1575 3.972 48.8135 3.972C48.4695 3.972 48.1895 4.084 47.9735 4.308C47.7655 4.532 47.6615 4.828 47.6615 5.196V8.856C47.6615 8.896 47.6455 8.932 47.6135 8.964C47.5895 8.988 47.5575 9 47.5175 9H46.4135C46.3735 9 46.3375 8.988 46.3055 8.964C46.2815 8.932 46.2695 8.896 46.2695 8.856V3.012C46.2695 2.972 46.2815 2.94 46.3055 2.916C46.3375 2.884 46.3735 2.868 46.4135 2.868H47.5175C47.5575 2.868 47.5895 2.884 47.6135 2.916C47.6455 2.94 47.6615 2.972 47.6615 3.012V3.396C47.6615 3.42 47.6695 3.436 47.6855 3.444C47.7015 3.452 47.7135 3.444 47.7215 3.42C48.0495 2.988 48.5455 2.772 49.2095 2.772ZM56.7928 3.012C56.7928 2.972 56.8048 2.94 56.8288 2.916C56.8608 2.884 56.8968 2.868 56.9368 2.868H58.0408C58.0808 2.868 58.1128 2.884 58.1368 2.916C58.1688 2.94 58.1848 2.972 58.1848 3.012V8.592C58.1848 9.592 57.8968 10.304 57.3208 10.728C56.7528 11.16 56.0048 11.376 55.0768 11.376C54.8288 11.376 54.5848 11.364 54.3448 11.34C54.2568 11.332 54.2128 11.28 54.2128 11.184L54.2488 10.2C54.2488 10.112 54.3048 10.068 54.4168 10.068C54.6488 10.092 54.8568 10.104 55.0408 10.104C55.6408 10.104 56.0808 9.984 56.3608 9.744C56.6488 9.512 56.7928 9.116 56.7928 8.556V8.46C56.7928 8.436 56.7848 8.424 56.7688 8.424C56.7528 8.416 56.7368 8.42 56.7208 8.436C56.3928 8.788 55.9288 8.964 55.3288 8.964C54.8088 8.964 54.3328 8.832 53.9008 8.568C53.4688 8.304 53.1688 7.9 53.0008 7.356C52.8968 6.98 52.8448 6.496 52.8448 5.904C52.8448 5.24 52.9088 4.732 53.0368 4.38C53.1968 3.892 53.4728 3.504 53.8648 3.216C54.2568 2.92 54.7168 2.772 55.2448 2.772C55.8768 2.772 56.3688 2.956 56.7208 3.324C56.7368 3.348 56.7528 3.356 56.7688 3.348C56.7848 3.34 56.7928 3.324 56.7928 3.3V3.012ZM56.7088 6.96C56.7408 6.84 56.7608 6.712 56.7688 6.576C56.7848 6.432 56.7928 6.204 56.7928 5.892C56.7928 5.588 56.7848 5.372 56.7688 5.244C56.7608 5.108 56.7368 4.976 56.6968 4.848C56.6328 4.584 56.5008 4.372 56.3008 4.212C56.1088 4.052 55.8608 3.972 55.5568 3.972C55.2688 3.972 55.0248 4.052 54.8248 4.212C54.6248 4.372 54.4808 4.584 54.3928 4.848C54.2968 5.072 54.2488 5.424 54.2488 5.904C54.2488 6.4 54.2888 6.748 54.3688 6.948C54.4488 7.204 54.5928 7.416 54.8008 7.584C55.0168 7.744 55.2728 7.824 55.5688 7.824C55.8808 7.824 56.1328 7.744 56.3248 7.584C56.5168 7.424 56.6448 7.216 56.7088 6.96ZM68.0491 0.696C68.0891 0.631999 68.1451 0.599999 68.2171 0.599999H69.3211C69.3611 0.599999 69.3931 0.615999 69.4171 0.648C69.4491 0.672 69.4651 0.704 69.4651 0.744V8.856C69.4651 8.896 69.4491 8.932 69.4171 8.964C69.3931 8.988 69.3611 9 69.3211 9H68.2171C68.1771 9 68.1411 8.988 68.1091 8.964C68.0851 8.932 68.0731 8.896 68.0731 8.856V3.132C68.0731 3.108 68.0611 3.092 68.0371 3.084C68.0211 3.076 68.0091 3.084 68.0011 3.108L66.5011 5.412C66.4611 5.476 66.4051 5.508 66.3331 5.508H65.7811C65.7091 5.508 65.6531 5.476 65.6131 5.412L64.1011 3.12C64.0931 3.096 64.0771 3.088 64.0531 3.096C64.0371 3.104 64.0291 3.12 64.0291 3.144V8.856C64.0291 8.896 64.0131 8.932 63.9811 8.964C63.9571 8.988 63.9251 9 63.8851 9H62.7811C62.7411 9 62.7051 8.988 62.6731 8.964C62.6491 8.932 62.6371 8.896 62.6371 8.856V0.744C62.6371 0.704 62.6491 0.672 62.6731 0.648C62.7051 0.615999 62.7411 0.599999 62.7811 0.599999H63.8851C63.9571 0.599999 64.0131 0.631999 64.0531 0.696L66.0091 3.66C66.0251 3.676 66.0411 3.684 66.0571 3.684C66.0731 3.684 66.0851 3.676 66.0931 3.66L68.0491 0.696ZM73.6632 2.772C74.1672 2.772 74.6112 2.86 74.9952 3.036C75.3792 3.212 75.6752 3.456 75.8832 3.768C76.0912 4.072 76.1952 4.42 76.1952 4.812V8.856C76.1952 8.896 76.1792 8.932 76.1472 8.964C76.1232 8.988 76.0912 9 76.0512 9H74.9472C74.9072 9 74.8712 8.988 74.8392 8.964C74.8152 8.932 74.8032 8.896 74.8032 8.856V8.472C74.8032 8.448 74.7952 8.436 74.7792 8.436C74.7632 8.428 74.7472 8.432 74.7312 8.448C74.3392 8.88 73.7712 9.096 73.0272 9.096C72.4272 9.096 71.9312 8.944 71.5392 8.64C71.1552 8.336 70.9632 7.884 70.9632 7.284C70.9632 6.66 71.1792 6.176 71.6112 5.832C72.0512 5.48 72.6672 5.304 73.4592 5.304H74.7432C74.7832 5.304 74.8032 5.284 74.8032 5.244V4.956C74.8032 4.644 74.7112 4.404 74.5272 4.236C74.3432 4.06 74.0672 3.972 73.6992 3.972C73.3952 3.972 73.1472 4.028 72.9552 4.14C72.7712 4.244 72.6552 4.392 72.6072 4.584C72.5832 4.68 72.5272 4.72 72.4392 4.704L71.2752 4.56C71.2352 4.552 71.1992 4.54 71.1672 4.524C71.1432 4.5 71.1352 4.472 71.1432 4.44C71.2072 3.952 71.4672 3.552 71.9232 3.24C72.3872 2.928 72.9672 2.772 73.6632 2.772ZM73.3752 7.992C73.7672 7.992 74.1032 7.888 74.3832 7.68C74.6632 7.472 74.8032 7.208 74.8032 6.888V6.324C74.8032 6.284 74.7832 6.264 74.7432 6.264H73.7352C73.3112 6.264 72.9752 6.344 72.7272 6.504C72.4872 6.664 72.3672 6.892 72.3672 7.188C72.3672 7.444 72.4592 7.644 72.6432 7.788C72.8352 7.924 73.0792 7.992 73.3752 7.992ZM80.7728 2.772C81.4208 2.772 81.9368 2.964 82.3208 3.348C82.7128 3.732 82.9088 4.256 82.9088 4.92V8.856C82.9088 8.896 82.8928 8.932 82.8608 8.964C82.8368 8.988 82.8048 9 82.7648 9H81.6608C81.6208 9 81.5848 8.988 81.5528 8.964C81.5288 8.932 81.5168 8.896 81.5168 8.856V5.208C81.5168 4.84 81.4128 4.544 81.2048 4.32C80.9968 4.088 80.7208 3.972 80.3768 3.972C80.0328 3.972 79.7528 4.084 79.5368 4.308C79.3288 4.532 79.2248 4.828 79.2248 5.196V8.856C79.2248 8.896 79.2088 8.932 79.1768 8.964C79.1528 8.988 79.1208 9 79.0808 9H77.9768C77.9368 9 77.9008 8.988 77.8688 8.964C77.8448 8.932 77.8328 8.896 77.8328 8.856V3.012C77.8328 2.972 77.8448 2.94 77.8688 2.916C77.9008 2.884 77.9368 2.868 77.9768 2.868H79.0808C79.1208 2.868 79.1528 2.884 79.1768 2.916C79.2088 2.94 79.2248 2.972 79.2248 3.012V3.396C79.2248 3.42 79.2328 3.436 79.2488 3.444C79.2648 3.452 79.2768 3.444 79.2848 3.42C79.6128 2.988 80.1088 2.772 80.7728 2.772ZM86.9401 2.772C87.4441 2.772 87.8881 2.86 88.2721 3.036C88.6561 3.212 88.9521 3.456 89.1601 3.768C89.3681 4.072 89.4721 4.42 89.4721 4.812V8.856C89.4721 8.896 89.4561 8.932 89.4241 8.964C89.4001 8.988 89.3681 9 89.3281 9H88.2241C88.1841 9 88.1481 8.988 88.1161 8.964C88.0921 8.932 88.0801 8.896 88.0801 8.856V8.472C88.0801 8.448 88.0721 8.436 88.0561 8.436C88.0401 8.428 88.0241 8.432 88.0081 8.448C87.6161 8.88 87.0481 9.096 86.3041 9.096C85.7041 9.096 85.2081 8.944 84.8161 8.64C84.4321 8.336 84.2401 7.884 84.2401 7.284C84.2401 6.66 84.4561 6.176 84.8881 5.832C85.3281 5.48 85.9441 5.304 86.7361 5.304H88.0201C88.0601 5.304 88.0801 5.284 88.0801 5.244V4.956C88.0801 4.644 87.9881 4.404 87.8041 4.236C87.6201 4.06 87.3441 3.972 86.9761 3.972C86.6721 3.972 86.4241 4.028 86.2321 4.14C86.0481 4.244 85.9321 4.392 85.8841 4.584C85.8601 4.68 85.8041 4.72 85.7161 4.704L84.5521 4.56C84.5121 4.552 84.4761 4.54 84.4441 4.524C84.4201 4.5 84.4121 4.472 84.4201 4.44C84.4841 3.952 84.7441 3.552 85.2001 3.24C85.6641 2.928 86.2441 2.772 86.9401 2.772ZM86.6521 7.992C87.0441 7.992 87.3801 7.888 87.6601 7.68C87.9401 7.472 88.0801 7.208 88.0801 6.888V6.324C88.0801 6.284 88.0601 6.264 88.0201 6.264H87.0121C86.5881 6.264 86.2521 6.344 86.0041 6.504C85.7641 6.664 85.6441 6.892 85.6441 7.188C85.6441 7.444 85.7361 7.644 85.9201 7.788C86.1121 7.924 86.3561 7.992 86.6521 7.992ZM94.8656 3.012C94.8656 2.972 94.8776 2.94 94.9016 2.916C94.9336 2.884 94.9696 2.868 95.0096 2.868H96.1136C96.1536 2.868 96.1856 2.884 96.2096 2.916C96.2416 2.94 96.2576 2.972 96.2576 3.012V8.592C96.2576 9.592 95.9696 10.304 95.3936 10.728C94.8256 11.16 94.0776 11.376 93.1496 11.376C92.9016 11.376 92.6576 11.364 92.4176 11.34C92.3296 11.332 92.2856 11.28 92.2856 11.184L92.3216 10.2C92.3216 10.112 92.3776 10.068 92.4896 10.068C92.7216 10.092 92.9296 10.104 93.1136 10.104C93.7136 10.104 94.1536 9.984 94.4336 9.744C94.7216 9.512 94.8656 9.116 94.8656 8.556V8.46C94.8656 8.436 94.8576 8.424 94.8416 8.424C94.8256 8.416 94.8096 8.42 94.7936 8.436C94.4656 8.788 94.0016 8.964 93.4016 8.964C92.8816 8.964 92.4056 8.832 91.9736 8.568C91.5416 8.304 91.2416 7.9 91.0736 7.356C90.9696 6.98 90.9176 6.496 90.9176 5.904C90.9176 5.24 90.9816 4.732 91.1096 4.38C91.2696 3.892 91.5456 3.504 91.9376 3.216C92.3296 2.92 92.7896 2.772 93.3176 2.772C93.9496 2.772 94.4416 2.956 94.7936 3.324C94.8096 3.348 94.8256 3.356 94.8416 3.348C94.8576 3.34 94.8656 3.324 94.8656 3.3V3.012ZM94.7816 6.96C94.8136 6.84 94.8336 6.712 94.8416 6.576C94.8576 6.432 94.8656 6.204 94.8656 5.892C94.8656 5.588 94.8576 5.372 94.8416 5.244C94.8336 5.108 94.8096 4.976 94.7696 4.848C94.7056 4.584 94.5736 4.372 94.3736 4.212C94.1816 4.052 93.9336 3.972 93.6296 3.972C93.3416 3.972 93.0976 4.052 92.8976 4.212C92.6976 4.372 92.5536 4.584 92.4656 4.848C92.3696 5.072 92.3216 5.424 92.3216 5.904C92.3216 6.4 92.3616 6.748 92.4416 6.948C92.5216 7.204 92.6656 7.416 92.8736 7.584C93.0896 7.744 93.3456 7.824 93.6416 7.824C93.9536 7.824 94.2056 7.744 94.3976 7.584C94.5896 7.424 94.7176 7.216 94.7816 6.96ZM103.108 5.244C103.14 5.444 103.156 5.668 103.156 5.916L103.144 6.288C103.144 6.384 103.096 6.432 103 6.432H99.2436C99.2036 6.432 99.1836 6.452 99.1836 6.492C99.2076 6.756 99.2436 6.936 99.2916 7.032C99.4836 7.608 99.9516 7.9 100.696 7.908C101.24 7.908 101.672 7.684 101.992 7.236C102.024 7.188 102.064 7.164 102.112 7.164C102.144 7.164 102.172 7.176 102.196 7.2L102.94 7.812C103.012 7.868 103.024 7.932 102.976 8.004C102.728 8.356 102.396 8.628 101.98 8.82C101.572 9.012 101.116 9.108 100.612 9.108C99.9876 9.108 99.4556 8.968 99.0156 8.688C98.5836 8.408 98.2676 8.016 98.0676 7.512C97.8836 7.08 97.7916 6.48 97.7916 5.712C97.7916 5.248 97.8396 4.872 97.9356 4.584C98.0956 4.024 98.3956 3.584 98.8356 3.264C99.2836 2.936 99.8196 2.772 100.444 2.772C102.02 2.772 102.908 3.596 103.108 5.244ZM100.444 3.972C100.148 3.972 99.8996 4.048 99.6996 4.2C99.5076 4.344 99.3716 4.548 99.2916 4.812C99.2436 4.948 99.2116 5.124 99.1956 5.34C99.1796 5.38 99.1956 5.4 99.2436 5.4H101.68C101.72 5.4 101.74 5.38 101.74 5.34C101.724 5.14 101.7 4.988 101.668 4.884C101.596 4.596 101.452 4.372 101.236 4.212C101.028 4.052 100.764 3.972 100.444 3.972ZM107.524 2.796C107.78 2.796 108.004 2.848 108.196 2.952C108.26 2.984 108.284 3.044 108.268 3.132L108.064 4.212C108.056 4.308 108 4.336 107.896 4.296C107.776 4.256 107.636 4.236 107.476 4.236C107.372 4.236 107.292 4.24 107.236 4.248C106.9 4.264 106.62 4.384 106.396 4.608C106.172 4.824 106.06 5.108 106.06 5.46V8.856C106.06 8.896 106.044 8.932 106.012 8.964C105.988 8.988 105.956 9 105.916 9H104.812C104.772 9 104.736 8.988 104.704 8.964C104.68 8.932 104.668 8.896 104.668 8.856V3.012C104.668 2.972 104.68 2.94 104.704 2.916C104.736 2.884 104.772 2.868 104.812 2.868H105.916C105.956 2.868 105.988 2.884 106.012 2.916C106.044 2.94 106.06 2.972 106.06 3.012V3.552C106.06 3.584 106.064 3.604 106.072 3.612C106.088 3.612 106.104 3.6 106.12 3.576C106.456 3.056 106.924 2.796 107.524 2.796Z" fill="#838383"/>
</svg>
