<svg width="22" height="22" viewBox="0 0 22 22" fill="none" xmlns="http://www.w3.org/2000/svg">
<path d="M13.066 16.0636H12.9446L12.8695 16.159L11.1911 18.2929L9.51265 16.159L9.43758 16.0636H9.31615H4.31631C3.93566 16.0636 3.52587 15.8713 3.20633 15.5659C2.88576 15.2596 2.69137 14.8739 2.69137 14.5259V4.39553C2.69137 4.04754 2.88576 3.66182 3.20633 3.3555C3.52587 3.05015 3.93566 2.85782 4.31631 2.85782H18.0659C18.4465 2.85782 18.8563 3.05015 19.1759 3.3555C19.4964 3.66182 19.6908 4.04754 19.6908 4.39553V14.5259C19.6908 14.8739 19.4964 15.2596 19.1759 15.5659C18.8563 15.8713 18.4465 16.0636 18.0659 16.0636H13.066ZM11.0066 20.6543L11.1911 20.856L11.3756 20.6543L14.0268 17.7554H18.0659C19.0366 17.7554 19.8813 17.4581 20.4864 16.9101C21.0939 16.3598 21.4408 15.5735 21.4408 14.6373V4.57252C21.4408 2.67816 19.8234 1.16602 17.8578 1.16602H4.52443C2.55881 1.16602 0.941406 2.67816 0.941406 4.57252V14.6373C0.941406 15.5735 1.28832 16.3598 1.89581 16.9101C2.50089 17.4581 3.34561 17.7554 4.31631 17.7554H8.35541L11.0066 20.6543Z" fill="#838383" stroke="#838383" stroke-width="0.5"/>
</svg>
