<svg width="21" height="20" viewBox="0 0 21 20" fill="none" xmlns="http://www.w3.org/2000/svg">
<path fill-rule="evenodd" clip-rule="evenodd" d="M16.754 17.2099H3.62958C2.92319 17.2099 2.40156 16.5453 2.66799 15.9342C3.90417 13.1081 6.80834 11.4891 10.1913 11.4891C13.5752 11.4891 16.4794 13.1081 17.7156 15.9342C17.982 16.5453 17.4604 17.2099 16.754 17.2099ZM6.10808 5.76821C6.10808 3.66484 7.94041 1.9543 10.1913 1.9543C12.4431 1.9543 14.2745 3.66484 14.2745 5.76821C14.2745 7.87158 12.4431 9.58212 10.1913 9.58212C7.94041 9.58212 6.10808 7.87158 6.10808 5.76821ZM20.1471 16.8629C19.405 13.6601 17.0837 11.2964 14.0284 10.2238C15.6474 9.00619 16.5917 7.03724 16.2446 4.88142C15.8424 2.38046 13.615 0.379151 10.9262 0.0873872C7.21462 -0.315933 4.06648 2.38241 4.06648 5.76821C4.06648 7.57028 4.9607 9.17591 6.35511 10.2238C3.29884 11.2964 0.97857 13.6601 0.23543 16.8629C-0.0340601 18.027 0.970405 19.1169 2.24538 19.1169H18.1371C19.4131 19.1169 20.4176 18.027 20.1471 16.8629Z" fill="#838383"/>
</svg>
