<svg width="494" height="17" viewBox="0 0 494 17" fill="none" xmlns="http://www.w3.org/2000/svg">
<path d="M0.418679 16.2727V4.27273H1.71413V5.65909H1.87322C1.97171 5.50758 2.10807 5.31439 2.28232 5.07955C2.46035 4.84091 2.71413 4.62879 3.04368 4.44318C3.37701 4.25379 3.82777 4.15909 4.39595 4.15909C5.1308 4.15909 5.77853 4.3428 6.33913 4.71023C6.89974 5.07765 7.33724 5.59848 7.65163 6.27273C7.96603 6.94697 8.12322 7.74242 8.12322 8.65909C8.12322 9.58333 7.96603 10.3845 7.65163 11.0625C7.33724 11.7367 6.90163 12.2595 6.34482 12.6307C5.788 12.9981 5.14595 13.1818 4.41868 13.1818C3.85807 13.1818 3.40921 13.089 3.07209 12.9034C2.73497 12.714 2.4755 12.5 2.29368 12.2614C2.11186 12.0189 1.97171 11.8182 1.87322 11.6591H1.75959V16.2727H0.418679ZM1.73686 8.63636C1.73686 9.29545 1.83345 9.87689 2.02663 10.3807C2.21982 10.8807 2.50201 11.2727 2.87322 11.5568C3.24444 11.8371 3.69898 11.9773 4.23686 11.9773C4.79747 11.9773 5.26527 11.8295 5.64027 11.5341C6.01906 11.2348 6.30315 10.8333 6.49254 10.3295C6.68572 9.82197 6.78232 9.25758 6.78232 8.63636C6.78232 8.02273 6.68762 7.4697 6.49822 6.97727C6.31262 6.48106 6.03042 6.08902 5.65163 5.80114C5.27663 5.50947 4.80504 5.36364 4.23686 5.36364C3.69141 5.36364 3.23307 5.50189 2.86186 5.77841C2.49065 6.05114 2.21035 6.43371 2.02095 6.92614C1.83156 7.41477 1.73686 7.98485 1.73686 8.63636ZM13.0569 13.2045C12.5038 13.2045 12.0019 13.1004 11.5512 12.892C11.1004 12.6799 10.7425 12.375 10.4773 11.9773C10.2122 11.5758 10.0796 11.0909 10.0796 10.5227C10.0796 10.0227 10.1781 9.61742 10.375 9.30682C10.572 8.99242 10.8353 8.74621 11.1648 8.56818C11.4944 8.39015 11.858 8.25758 12.2557 8.17045C12.6572 8.07955 13.0606 8.00758 13.466 7.95455C13.9963 7.88636 14.4262 7.83523 14.7557 7.80114C15.0891 7.76326 15.3315 7.70076 15.483 7.61364C15.6383 7.52652 15.716 7.375 15.716 7.15909V7.11364C15.716 6.55303 15.5625 6.11742 15.2557 5.80682C14.9527 5.49621 14.4925 5.34091 13.875 5.34091C13.2349 5.34091 12.733 5.48106 12.3694 5.76136C12.0057 6.04167 11.75 6.34091 11.6023 6.65909L10.3296 6.20455C10.5569 5.67424 10.8599 5.26136 11.2387 4.96591C11.6213 4.66667 12.0379 4.45833 12.4887 4.34091C12.9432 4.2197 13.3902 4.15909 13.8296 4.15909C14.1099 4.15909 14.4319 4.19318 14.7955 4.26136C15.1629 4.32576 15.5171 4.46023 15.858 4.66477C16.2027 4.86932 16.4887 5.17803 16.716 5.59091C16.9432 6.00379 17.0569 6.55682 17.0569 7.25V13H15.716V11.8182H15.6478C15.5569 12.0076 15.4053 12.2102 15.1932 12.4261C14.9811 12.642 14.6989 12.8258 14.3466 12.9773C13.9944 13.1288 13.5644 13.2045 13.0569 13.2045ZM13.2614 12C13.7917 12 14.2387 11.8958 14.6023 11.6875C14.9697 11.4792 15.2463 11.2102 15.4319 10.8807C15.6213 10.5511 15.716 10.2045 15.716 9.84091V8.61364C15.6591 8.68182 15.5341 8.74432 15.341 8.80114C15.1516 8.85417 14.9319 8.90151 14.6819 8.94318C14.4356 8.98106 14.1951 9.01515 13.9603 9.04545C13.7292 9.07197 13.5417 9.0947 13.3978 9.11364C13.0493 9.15909 12.7235 9.23295 12.4205 9.33523C12.1213 9.43371 11.8788 9.58333 11.6932 9.78409C11.5114 9.98106 11.4205 10.25 11.4205 10.5909C11.4205 11.0568 11.5928 11.4091 11.9375 11.6477C12.286 11.8826 12.7273 12 13.2614 12ZM19.8243 13V4.27273H21.1198V5.59091H21.2107C21.3698 5.15909 21.6576 4.80871 22.0743 4.53977C22.491 4.27083 22.9607 4.13636 23.4834 4.13636C23.5819 4.13636 23.705 4.13826 23.8527 4.14205C24.0004 4.14583 24.1122 4.15152 24.1879 4.15909V5.52273C24.1425 5.51136 24.0383 5.49432 23.8754 5.47159C23.7163 5.44508 23.5478 5.43182 23.3698 5.43182C22.9455 5.43182 22.5667 5.52083 22.2334 5.69886C21.9038 5.87311 21.6425 6.11553 21.4493 6.42614C21.2599 6.73295 21.1652 7.08333 21.1652 7.47727V13H19.8243ZM28.6656 13.2045C28.1126 13.2045 27.6107 13.1004 27.1599 12.892C26.7092 12.6799 26.3512 12.375 26.0861 11.9773C25.8209 11.5758 25.6883 11.0909 25.6883 10.5227C25.6883 10.0227 25.7868 9.61742 25.9838 9.30682C26.1808 8.99242 26.444 8.74621 26.7736 8.56818C27.1031 8.39015 27.4667 8.25758 27.8645 8.17045C28.266 8.07955 28.6694 8.00758 29.0747 7.95455C29.605 7.88636 30.0349 7.83523 30.3645 7.80114C30.6978 7.76326 30.9402 7.70076 31.0917 7.61364C31.247 7.52652 31.3247 7.375 31.3247 7.15909V7.11364C31.3247 6.55303 31.1713 6.11742 30.8645 5.80682C30.5614 5.49621 30.1012 5.34091 29.4838 5.34091C28.8436 5.34091 28.3417 5.48106 27.9781 5.76136C27.6145 6.04167 27.3588 6.34091 27.2111 6.65909L25.9383 6.20455C26.1656 5.67424 26.4686 5.26136 26.8474 4.96591C27.23 4.66667 27.6467 4.45833 28.0974 4.34091C28.552 4.2197 28.9989 4.15909 29.4383 4.15909C29.7186 4.15909 30.0406 4.19318 30.4042 4.26136C30.7717 4.32576 31.1258 4.46023 31.4667 4.66477C31.8114 4.86932 32.0974 5.17803 32.3247 5.59091C32.552 6.00379 32.6656 6.55682 32.6656 7.25V13H31.3247V11.8182H31.2565C31.1656 12.0076 31.0141 12.2102 30.802 12.4261C30.5899 12.642 30.3077 12.8258 29.9554 12.9773C29.6031 13.1288 29.1732 13.2045 28.6656 13.2045ZM28.8702 12C29.4005 12 29.8474 11.8958 30.2111 11.6875C30.5785 11.4792 30.855 11.2102 31.0406 10.8807C31.23 10.5511 31.3247 10.2045 31.3247 9.84091V8.61364C31.2679 8.68182 31.1429 8.74432 30.9497 8.80114C30.7603 8.85417 30.5406 8.90151 30.2906 8.94318C30.0444 8.98106 29.8039 9.01515 29.569 9.04545C29.338 9.07197 29.1505 9.0947 29.0065 9.11364C28.658 9.15909 28.3323 9.23295 28.0292 9.33523C27.73 9.43371 27.4876 9.58333 27.302 9.78409C27.1202 9.98106 27.0292 10.25 27.0292 10.5909C27.0292 11.0568 27.2016 11.4091 27.5463 11.6477C27.8948 11.8826 28.3361 12 28.8702 12ZM35.4331 13V4.27273H36.7285V5.63636H36.8421C37.024 5.17045 37.3175 4.80871 37.7228 4.55114C38.1281 4.28977 38.6149 4.15909 39.1831 4.15909C39.7588 4.15909 40.238 4.28977 40.6206 4.55114C41.0069 4.80871 41.3081 5.17045 41.524 5.63636H41.6149C41.8384 5.18561 42.1736 4.82765 42.6206 4.5625C43.0675 4.29356 43.6035 4.15909 44.2285 4.15909C45.0088 4.15909 45.6471 4.40341 46.1433 4.89205C46.6395 5.37689 46.8876 6.13258 46.8876 7.15909V13H45.5467V7.15909C45.5467 6.51515 45.3706 6.05492 45.0183 5.77841C44.666 5.50189 44.2512 5.36364 43.774 5.36364C43.1603 5.36364 42.6849 5.54924 42.3478 5.92045C42.0107 6.28788 41.8421 6.75379 41.8421 7.31818V13H40.4785V7.02273C40.4785 6.52652 40.3175 6.12689 39.9956 5.82386C39.6736 5.51705 39.2588 5.36364 38.7512 5.36364C38.4027 5.36364 38.077 5.45644 37.774 5.64205C37.4747 5.82765 37.2323 6.08523 37.0467 6.41477C36.8649 6.74053 36.774 7.11742 36.774 7.54545V13H35.4331ZM53.3184 13.1818C52.4775 13.1818 51.7521 12.9962 51.1423 12.625C50.5362 12.25 50.0684 11.7273 49.7388 11.0568C49.4131 10.3826 49.2502 9.59848 49.2502 8.70455C49.2502 7.81061 49.4131 7.02273 49.7388 6.34091C50.0684 5.6553 50.5267 5.12121 51.1138 4.73864C51.7048 4.35227 52.3942 4.15909 53.182 4.15909C53.6366 4.15909 54.0854 4.23485 54.5286 4.38636C54.9718 4.53788 55.3752 4.78409 55.7388 5.125C56.1025 5.46212 56.3923 5.90909 56.6082 6.46591C56.8241 7.02273 56.932 7.70833 56.932 8.52273V9.09091H50.2048V7.93182H55.5684C55.5684 7.43939 55.4699 7 55.2729 6.61364C55.0798 6.22727 54.8032 5.92235 54.4434 5.69886C54.0873 5.47538 53.6669 5.36364 53.182 5.36364C52.6479 5.36364 52.1858 5.49621 51.7957 5.76136C51.4093 6.02273 51.112 6.36364 50.9036 6.78409C50.6953 7.20455 50.5911 7.6553 50.5911 8.13636V8.90909C50.5911 9.56818 50.7048 10.1269 50.932 10.5852C51.1631 11.0398 51.4832 11.3864 51.8923 11.625C52.3013 11.8598 52.7767 11.9773 53.3184 11.9773C53.6707 11.9773 53.9888 11.928 54.2729 11.8295C54.5608 11.7273 54.8089 11.5758 55.0173 11.375C55.2256 11.1705 55.3866 10.9167 55.5002 10.6136L56.7957 10.9773C56.6593 11.4167 56.4301 11.803 56.1082 12.1364C55.7862 12.4659 55.3885 12.7235 54.915 12.9091C54.4415 13.0909 53.9093 13.1818 53.3184 13.1818ZM63.0873 4.27273V5.40909H58.5645V4.27273H63.0873ZM59.8827 2.18182H61.2236V10.5C61.2236 10.8788 61.2785 11.1629 61.3884 11.3523C61.502 11.5379 61.646 11.6629 61.8202 11.7273C61.9982 11.7879 62.1857 11.8182 62.3827 11.8182C62.5304 11.8182 62.6517 11.8106 62.7463 11.7955C62.841 11.7765 62.9168 11.7614 62.9736 11.75L63.2463 12.9545C63.1554 12.9886 63.0285 13.0227 62.8657 13.0568C62.7028 13.0947 62.4963 13.1136 62.2463 13.1136C61.8676 13.1136 61.4963 13.0322 61.1327 12.8693C60.7729 12.7064 60.4736 12.4583 60.235 12.125C60.0001 11.7917 59.8827 11.3712 59.8827 10.8636V2.18182ZM68.9896 13.1818C68.1487 13.1818 67.4234 12.9962 66.8135 12.625C66.2074 12.25 65.7396 11.7273 65.4101 11.0568C65.0843 10.3826 64.9215 9.59848 64.9215 8.70455C64.9215 7.81061 65.0843 7.02273 65.4101 6.34091C65.7396 5.6553 66.198 5.12121 66.7851 4.73864C67.376 4.35227 68.0654 4.15909 68.8533 4.15909C69.3078 4.15909 69.7567 4.23485 70.1999 4.38636C70.6431 4.53788 71.0465 4.78409 71.4101 5.125C71.7737 5.46212 72.0635 5.90909 72.2794 6.46591C72.4953 7.02273 72.6033 7.70833 72.6033 8.52273V9.09091H65.876V7.93182H71.2396C71.2396 7.43939 71.1412 7 70.9442 6.61364C70.751 6.22727 70.4745 5.92235 70.1146 5.69886C69.7586 5.47538 69.3381 5.36364 68.8533 5.36364C68.3192 5.36364 67.8571 5.49621 67.4669 5.76136C67.0806 6.02273 66.7832 6.36364 66.5749 6.78409C66.3665 7.20455 66.2624 7.6553 66.2624 8.13636V8.90909C66.2624 9.56818 66.376 10.1269 66.6033 10.5852C66.8343 11.0398 67.1544 11.3864 67.5635 11.625C67.9726 11.8598 68.448 11.9773 68.9896 11.9773C69.3419 11.9773 69.6601 11.928 69.9442 11.8295C70.2321 11.7273 70.4802 11.5758 70.6885 11.375C70.8968 11.1705 71.0578 10.9167 71.1715 10.6136L72.4669 10.9773C72.3306 11.4167 72.1014 11.803 71.7794 12.1364C71.4574 12.4659 71.0597 12.7235 70.5862 12.9091C70.1127 13.0909 69.5806 13.1818 68.9896 13.1818ZM74.9631 13V4.27273H76.2585V5.59091H76.3494C76.5085 5.15909 76.7964 4.80871 77.2131 4.53977C77.6297 4.27083 78.0994 4.13636 78.6221 4.13636C78.7206 4.13636 78.8437 4.13826 78.9915 4.14205C79.1392 4.14583 79.2509 4.15152 79.3267 4.15909V5.52273C79.2812 5.51136 79.1771 5.49432 79.0142 5.47159C78.8551 5.44508 78.6865 5.43182 78.5085 5.43182C78.0843 5.43182 77.7055 5.52083 77.3721 5.69886C77.0426 5.87311 76.7812 6.11553 76.5881 6.42614C76.3987 6.73295 76.304 7.08333 76.304 7.47727V13H74.9631ZM89.3516 13.1818C88.6244 13.1818 87.9823 12.9981 87.4255 12.6307C86.8687 12.2595 86.4331 11.7367 86.1187 11.0625C85.8043 10.3845 85.6471 9.58333 85.6471 8.65909C85.6471 7.74242 85.8043 6.94697 86.1187 6.27273C86.4331 5.59848 86.8706 5.07765 87.4312 4.71023C87.9918 4.3428 88.6395 4.15909 89.3744 4.15909C89.9425 4.15909 90.3914 4.25379 90.7209 4.44318C91.0543 4.62879 91.3081 4.84091 91.4823 5.07955C91.6603 5.31439 91.7986 5.50758 91.8971 5.65909H92.0107V1.36364H93.3516V13H92.0562V11.6591H91.8971C91.7986 11.8182 91.6584 12.0189 91.4766 12.2614C91.2948 12.5 91.0353 12.714 90.6982 12.9034C90.3611 13.089 89.9122 13.1818 89.3516 13.1818ZM89.5334 11.9773C90.0713 11.9773 90.5259 11.8371 90.8971 11.5568C91.2683 11.2727 91.5505 10.8807 91.7437 10.3807C91.9369 9.87689 92.0334 9.29545 92.0334 8.63636C92.0334 7.98485 91.9388 7.41477 91.7494 6.92614C91.56 6.43371 91.2797 6.05114 90.9084 5.77841C90.5372 5.50189 90.0789 5.36364 89.5334 5.36364C88.9653 5.36364 88.4918 5.50947 88.113 5.80114C87.738 6.08902 87.4558 6.48106 87.2664 6.97727C87.0808 7.4697 86.988 8.02273 86.988 8.63636C86.988 9.25758 87.0827 9.82197 87.2721 10.3295C87.4653 10.8333 87.7494 11.2348 88.1244 11.5341C88.5031 11.8295 88.9728 11.9773 89.5334 11.9773ZM99.9728 13.1818C99.1319 13.1818 98.4065 12.9962 97.7966 12.625C97.1906 12.25 96.7228 11.7273 96.3932 11.0568C96.0675 10.3826 95.9046 9.59848 95.9046 8.70455C95.9046 7.81061 96.0675 7.02273 96.3932 6.34091C96.7228 5.6553 97.1811 5.12121 97.7682 4.73864C98.3591 4.35227 99.0485 4.15909 99.8364 4.15909C100.291 4.15909 100.74 4.23485 101.183 4.38636C101.626 4.53788 102.03 4.78409 102.393 5.125C102.757 5.46212 103.047 5.90909 103.263 6.46591C103.478 7.02273 103.586 7.70833 103.586 8.52273V9.09091H96.8591V7.93182H102.223C102.223 7.43939 102.124 7 101.927 6.61364C101.734 6.22727 101.458 5.92235 101.098 5.69886C100.742 5.47538 100.321 5.36364 99.8364 5.36364C99.3023 5.36364 98.8402 5.49621 98.45 5.76136C98.0637 6.02273 97.7663 6.36364 97.558 6.78409C97.3497 7.20455 97.2455 7.6553 97.2455 8.13636V8.90909C97.2455 9.56818 97.3591 10.1269 97.5864 10.5852C97.8175 11.0398 98.1375 11.3864 98.5466 11.625C98.9557 11.8598 99.4311 11.9773 99.9728 11.9773C100.325 11.9773 100.643 11.928 100.927 11.8295C101.215 11.7273 101.463 11.5758 101.672 11.375C101.88 11.1705 102.041 10.9167 102.155 10.6136L103.45 10.9773C103.314 11.4167 103.085 11.803 102.763 12.1364C102.441 12.4659 102.043 12.7235 101.569 12.9091C101.096 13.0909 100.564 13.1818 99.9728 13.1818ZM109.742 4.27273V5.40909H105.219V4.27273H109.742ZM106.537 2.18182H107.878V10.5C107.878 10.8788 107.933 11.1629 108.043 11.3523C108.156 11.5379 108.3 11.6629 108.475 11.7273C108.653 11.7879 108.84 11.8182 109.037 11.8182C109.185 11.8182 109.306 11.8106 109.401 11.7955C109.495 11.7765 109.571 11.7614 109.628 11.75L109.901 12.9545C109.81 12.9886 109.683 13.0227 109.52 13.0568C109.357 13.0947 109.151 13.1136 108.901 13.1136C108.522 13.1136 108.151 13.0322 107.787 12.8693C107.427 12.7064 107.128 12.4583 106.889 12.125C106.655 11.7917 106.537 11.3712 106.537 10.8636V2.18182ZM115.644 13.1818C114.803 13.1818 114.078 12.9962 113.468 12.625C112.862 12.25 112.394 11.7273 112.064 11.0568C111.739 10.3826 111.576 9.59848 111.576 8.70455C111.576 7.81061 111.739 7.02273 112.064 6.34091C112.394 5.6553 112.852 5.12121 113.439 4.73864C114.03 4.35227 114.72 4.15909 115.508 4.15909C115.962 4.15909 116.411 4.23485 116.854 4.38636C117.297 4.53788 117.701 4.78409 118.064 5.125C118.428 5.46212 118.718 5.90909 118.934 6.46591C119.15 7.02273 119.258 7.70833 119.258 8.52273V9.09091H112.53V7.93182H117.894C117.894 7.43939 117.796 7 117.599 6.61364C117.405 6.22727 117.129 5.92235 116.769 5.69886C116.413 5.47538 115.993 5.36364 115.508 5.36364C114.974 5.36364 114.511 5.49621 114.121 5.76136C113.735 6.02273 113.438 6.36364 113.229 6.78409C113.021 7.20455 112.917 7.6553 112.917 8.13636V8.90909C112.917 9.56818 113.03 10.1269 113.258 10.5852C113.489 11.0398 113.809 11.3864 114.218 11.625C114.627 11.8598 115.102 11.9773 115.644 11.9773C115.996 11.9773 116.314 11.928 116.599 11.8295C116.886 11.7273 117.135 11.5758 117.343 11.375C117.551 11.1705 117.712 10.9167 117.826 10.6136L119.121 10.9773C118.985 11.4167 118.756 11.803 118.434 12.1364C118.112 12.4659 117.714 12.7235 117.241 12.9091C116.767 13.0909 116.235 13.1818 115.644 13.1818ZM121.617 13V4.27273H122.913V5.59091H123.004C123.163 5.15909 123.451 4.80871 123.867 4.53977C124.284 4.27083 124.754 4.13636 125.277 4.13636C125.375 4.13636 125.498 4.13826 125.646 4.14205C125.794 4.14583 125.905 4.15152 125.981 4.15909V5.52273C125.936 5.51136 125.831 5.49432 125.669 5.47159C125.509 5.44508 125.341 5.43182 125.163 5.43182C124.739 5.43182 124.36 5.52083 124.027 5.69886C123.697 5.87311 123.436 6.11553 123.242 6.42614C123.053 6.73295 122.958 7.08333 122.958 7.47727V13H121.617ZM127.891 13V4.27273H129.186V5.63636H129.3C129.481 5.17045 129.775 4.80871 130.18 4.55114C130.586 4.28977 131.072 4.15909 131.641 4.15909C132.216 4.15909 132.695 4.28977 133.078 4.55114C133.464 4.80871 133.766 5.17045 133.981 5.63636H134.072C134.296 5.18561 134.631 4.82765 135.078 4.5625C135.525 4.29356 136.061 4.15909 136.686 4.15909C137.466 4.15909 138.105 4.40341 138.601 4.89205C139.097 5.37689 139.345 6.13258 139.345 7.15909V13H138.004V7.15909C138.004 6.51515 137.828 6.05492 137.476 5.77841C137.124 5.50189 136.709 5.36364 136.231 5.36364C135.618 5.36364 135.142 5.54924 134.805 5.92045C134.468 6.28788 134.3 6.75379 134.3 7.31818V13H132.936V7.02273C132.936 6.52652 132.775 6.12689 132.453 5.82386C132.131 5.51705 131.716 5.36364 131.209 5.36364C130.86 5.36364 130.534 5.45644 130.231 5.64205C129.932 5.82765 129.69 6.08523 129.504 6.41477C129.322 6.74053 129.231 7.11742 129.231 7.54545V13H127.891ZM142.117 13V4.27273H143.458V13H142.117ZM142.799 2.81818C142.537 2.81818 142.312 2.72917 142.122 2.55114C141.937 2.37311 141.844 2.15909 141.844 1.90909C141.844 1.65909 141.937 1.44508 142.122 1.26705C142.312 1.08902 142.537 1 142.799 1C143.06 1 143.283 1.08902 143.469 1.26705C143.658 1.44508 143.753 1.65909 143.753 1.90909C143.753 2.15909 143.658 2.37311 143.469 2.55114C143.283 2.72917 143.06 2.81818 142.799 2.81818ZM147.575 7.75V13H146.234V4.27273H147.529V5.63636H147.643C147.847 5.19318 148.158 4.83712 148.575 4.56818C148.991 4.29545 149.529 4.15909 150.188 4.15909C150.779 4.15909 151.296 4.2803 151.739 4.52273C152.183 4.76136 152.527 5.125 152.773 5.61364C153.02 6.09848 153.143 6.71212 153.143 7.45455V13H151.802V7.54545C151.802 6.85985 151.624 6.32576 151.268 5.94318C150.912 5.55682 150.423 5.36364 149.802 5.36364C149.374 5.36364 148.991 5.45644 148.654 5.64205C148.321 5.82765 148.058 6.09848 147.864 6.45455C147.671 6.81061 147.575 7.24242 147.575 7.75ZM159.572 13.1818C158.731 13.1818 158.006 12.9962 157.396 12.625C156.79 12.25 156.322 11.7273 155.993 11.0568C155.667 10.3826 155.504 9.59848 155.504 8.70455C155.504 7.81061 155.667 7.02273 155.993 6.34091C156.322 5.6553 156.78 5.12121 157.368 4.73864C157.959 4.35227 158.648 4.15909 159.436 4.15909C159.89 4.15909 160.339 4.23485 160.782 4.38636C161.226 4.53788 161.629 4.78409 161.993 5.125C162.356 5.46212 162.646 5.90909 162.862 6.46591C163.078 7.02273 163.186 7.70833 163.186 8.52273V9.09091H156.459V7.93182H161.822C161.822 7.43939 161.724 7 161.527 6.61364C161.334 6.22727 161.057 5.92235 160.697 5.69886C160.341 5.47538 159.921 5.36364 159.436 5.36364C158.902 5.36364 158.44 5.49621 158.049 5.76136C157.663 6.02273 157.366 6.36364 157.157 6.78409C156.949 7.20455 156.845 7.6553 156.845 8.13636V8.90909C156.845 9.56818 156.959 10.1269 157.186 10.5852C157.417 11.0398 157.737 11.3864 158.146 11.625C158.555 11.8598 159.03 11.9773 159.572 11.9773C159.924 11.9773 160.243 11.928 160.527 11.8295C160.815 11.7273 161.063 11.5758 161.271 11.375C161.479 11.1705 161.64 10.9167 161.754 10.6136L163.049 10.9773C162.913 11.4167 162.684 11.803 162.362 12.1364C162.04 12.4659 161.642 12.7235 161.169 12.9091C160.695 13.0909 160.163 13.1818 159.572 13.1818ZM171.727 6.22727L170.523 6.56818C170.447 6.36742 170.335 6.17235 170.188 5.98295C170.044 5.78977 169.847 5.63068 169.597 5.50568C169.347 5.38068 169.027 5.31818 168.636 5.31818C168.102 5.31818 167.657 5.44129 167.301 5.6875C166.949 5.92992 166.773 6.23864 166.773 6.61364C166.773 6.94697 166.894 7.21023 167.136 7.40341C167.379 7.59659 167.758 7.75758 168.273 7.88636L169.568 8.20455C170.349 8.39394 170.93 8.68371 171.313 9.07386C171.695 9.46023 171.886 9.95833 171.886 10.5682C171.886 11.0682 171.743 11.5152 171.455 11.9091C171.171 12.303 170.773 12.6136 170.261 12.8409C169.75 13.0682 169.155 13.1818 168.477 13.1818C167.587 13.1818 166.85 12.9886 166.267 12.6023C165.684 12.2159 165.314 11.6515 165.159 10.9091L166.432 10.5909C166.553 11.0606 166.782 11.4129 167.119 11.6477C167.46 11.8826 167.905 12 168.455 12C169.08 12 169.576 11.8674 169.943 11.6023C170.314 11.3333 170.5 11.0114 170.5 10.6364C170.5 10.3333 170.394 10.0795 170.182 9.875C169.97 9.66667 169.644 9.51136 169.205 9.40909L167.75 9.06818C166.951 8.87879 166.364 8.58523 165.989 8.1875C165.618 7.78598 165.432 7.28409 165.432 6.68182C165.432 6.18939 165.57 5.75379 165.847 5.375C166.127 4.99621 166.508 4.69886 166.989 4.48295C167.474 4.26705 168.023 4.15909 168.636 4.15909C169.5 4.15909 170.178 4.34848 170.671 4.72727C171.167 5.10606 171.519 5.60606 171.727 6.22727ZM182.84 4.27273V5.40909H178.318V4.27273H182.84ZM179.636 2.18182H180.977V10.5C180.977 10.8788 181.032 11.1629 181.142 11.3523C181.255 11.5379 181.399 11.6629 181.573 11.7273C181.751 11.7879 181.939 11.8182 182.136 11.8182C182.284 11.8182 182.405 11.8106 182.499 11.7955C182.594 11.7765 182.67 11.7614 182.727 11.75L182.999 12.9545C182.909 12.9886 182.782 13.0227 182.619 13.0568C182.456 13.0947 182.249 13.1136 181.999 13.1136C181.621 13.1136 181.249 13.0322 180.886 12.8693C180.526 12.7064 180.227 12.4583 179.988 12.125C179.753 11.7917 179.636 11.3712 179.636 10.8636V2.18182ZM186.706 7.75V13H185.365V1.36364H186.706V5.63636H186.819C187.024 5.18561 187.331 4.82765 187.74 4.5625C188.153 4.29356 188.702 4.15909 189.388 4.15909C189.982 4.15909 190.503 4.27841 190.95 4.51705C191.397 4.75189 191.744 5.11364 191.99 5.60227C192.24 6.08712 192.365 6.70455 192.365 7.45455V13H191.024V7.54545C191.024 6.85227 190.844 6.31629 190.484 5.9375C190.128 5.55492 189.634 5.36364 189.001 5.36364C188.562 5.36364 188.168 5.45644 187.819 5.64205C187.475 5.82765 187.202 6.09848 187.001 6.45455C186.804 6.81061 186.706 7.24242 186.706 7.75ZM198.797 13.1818C197.956 13.1818 197.231 12.9962 196.621 12.625C196.015 12.25 195.547 11.7273 195.218 11.0568C194.892 10.3826 194.729 9.59848 194.729 8.70455C194.729 7.81061 194.892 7.02273 195.218 6.34091C195.547 5.6553 196.005 5.12121 196.593 4.73864C197.184 4.35227 197.873 4.15909 198.661 4.15909C199.115 4.15909 199.564 4.23485 200.007 4.38636C200.451 4.53788 200.854 4.78409 201.218 5.125C201.581 5.46212 201.871 5.90909 202.087 6.46591C202.303 7.02273 202.411 7.70833 202.411 8.52273V9.09091H195.684V7.93182H201.047C201.047 7.43939 200.949 7 200.752 6.61364C200.559 6.22727 200.282 5.92235 199.922 5.69886C199.566 5.47538 199.146 5.36364 198.661 5.36364C198.127 5.36364 197.665 5.49621 197.274 5.76136C196.888 6.02273 196.591 6.36364 196.382 6.78409C196.174 7.20455 196.07 7.6553 196.07 8.13636V8.90909C196.07 9.56818 196.184 10.1269 196.411 10.5852C196.642 11.0398 196.962 11.3864 197.371 11.625C197.78 11.8598 198.255 11.9773 198.797 11.9773C199.149 11.9773 199.468 11.928 199.752 11.8295C200.04 11.7273 200.288 11.5758 200.496 11.375C200.704 11.1705 200.865 10.9167 200.979 10.6136L202.274 10.9773C202.138 11.4167 201.909 11.803 201.587 12.1364C201.265 12.4659 200.867 12.7235 200.394 12.9091C199.92 13.0909 199.388 13.1818 198.797 13.1818ZM212.159 13.2045C211.606 13.2045 211.104 13.1004 210.653 12.892C210.202 12.6799 209.844 12.375 209.579 11.9773C209.314 11.5758 209.181 11.0909 209.181 10.5227C209.181 10.0227 209.28 9.61742 209.477 9.30682C209.674 8.99242 209.937 8.74621 210.267 8.56818C210.596 8.39015 210.96 8.25758 211.358 8.17045C211.759 8.07955 212.163 8.00758 212.568 7.95455C213.098 7.88636 213.528 7.83523 213.858 7.80114C214.191 7.76326 214.433 7.70076 214.585 7.61364C214.74 7.52652 214.818 7.375 214.818 7.15909V7.11364C214.818 6.55303 214.664 6.11742 214.358 5.80682C214.055 5.49621 213.594 5.34091 212.977 5.34091C212.337 5.34091 211.835 5.48106 211.471 5.76136C211.108 6.04167 210.852 6.34091 210.704 6.65909L209.431 6.20455C209.659 5.67424 209.962 5.26136 210.341 4.96591C210.723 4.66667 211.14 4.45833 211.591 4.34091C212.045 4.2197 212.492 4.15909 212.931 4.15909C213.212 4.15909 213.534 4.19318 213.897 4.26136C214.265 4.32576 214.619 4.46023 214.96 4.66477C215.305 4.86932 215.591 5.17803 215.818 5.59091C216.045 6.00379 216.159 6.55682 216.159 7.25V13H214.818V11.8182H214.75C214.659 12.0076 214.507 12.2102 214.295 12.4261C214.083 12.642 213.801 12.8258 213.449 12.9773C213.096 13.1288 212.666 13.2045 212.159 13.2045ZM212.363 12C212.894 12 213.341 11.8958 213.704 11.6875C214.072 11.4792 214.348 11.2102 214.534 10.8807C214.723 10.5511 214.818 10.2045 214.818 9.84091V8.61364C214.761 8.68182 214.636 8.74432 214.443 8.80114C214.253 8.85417 214.034 8.90151 213.784 8.94318C213.538 8.98106 213.297 9.01515 213.062 9.04545C212.831 9.07197 212.644 9.0947 212.5 9.11364C212.151 9.15909 211.825 9.23295 211.522 9.33523C211.223 9.43371 210.981 9.58333 210.795 9.78409C210.613 9.98106 210.522 10.25 210.522 10.5909C210.522 11.0568 210.695 11.4091 211.039 11.6477C211.388 11.8826 211.829 12 212.363 12ZM218.926 13V4.27273H220.222V5.63636H220.335C220.517 5.17045 220.811 4.80871 221.216 4.55114C221.621 4.28977 222.108 4.15909 222.676 4.15909C223.252 4.15909 223.731 4.28977 224.114 4.55114C224.5 4.80871 224.801 5.17045 225.017 5.63636H225.108C225.331 5.18561 225.667 4.82765 226.114 4.5625C226.561 4.29356 227.097 4.15909 227.722 4.15909C228.502 4.15909 229.14 4.40341 229.636 4.89205C230.133 5.37689 230.381 6.13258 230.381 7.15909V13H229.04V7.15909C229.04 6.51515 228.864 6.05492 228.511 5.77841C228.159 5.50189 227.744 5.36364 227.267 5.36364C226.653 5.36364 226.178 5.54924 225.841 5.92045C225.504 6.28788 225.335 6.75379 225.335 7.31818V13H223.972V7.02273C223.972 6.52652 223.811 6.12689 223.489 5.82386C223.167 5.51705 222.752 5.36364 222.244 5.36364C221.896 5.36364 221.57 5.45644 221.267 5.64205C220.968 5.82765 220.725 6.08523 220.54 6.41477C220.358 6.74053 220.267 7.11742 220.267 7.54545V13H218.926ZM236.698 13.1818C235.91 13.1818 235.219 12.9943 234.624 12.6193C234.033 12.2443 233.571 11.7197 233.238 11.0455C232.908 10.3712 232.743 9.58333 232.743 8.68182C232.743 7.77273 232.908 6.97917 233.238 6.30114C233.571 5.62311 234.033 5.09659 234.624 4.72159C235.219 4.34659 235.91 4.15909 236.698 4.15909C237.486 4.15909 238.175 4.34659 238.766 4.72159C239.361 5.09659 239.823 5.62311 240.152 6.30114C240.486 6.97917 240.652 7.77273 240.652 8.68182C240.652 9.58333 240.486 10.3712 240.152 11.0455C239.823 11.7197 239.361 12.2443 238.766 12.6193C238.175 12.9943 237.486 13.1818 236.698 13.1818ZM236.698 11.9773C237.296 11.9773 237.789 11.8239 238.175 11.517C238.562 11.2102 238.848 10.8068 239.033 10.3068C239.219 9.80682 239.312 9.26515 239.312 8.68182C239.312 8.09848 239.219 7.55492 239.033 7.05114C238.848 6.54735 238.562 6.14015 238.175 5.82955C237.789 5.51894 237.296 5.36364 236.698 5.36364C236.099 5.36364 235.607 5.51894 235.221 5.82955C234.834 6.14015 234.548 6.54735 234.363 7.05114C234.177 7.55492 234.084 8.09848 234.084 8.68182C234.084 9.26515 234.177 9.80682 234.363 10.3068C234.548 10.8068 234.834 11.2102 235.221 11.517C235.607 11.8239 236.099 11.9773 236.698 11.9773ZM248.519 9.43182V4.27273H249.86V13H248.519V11.5227H248.428C248.224 11.9659 247.906 12.3428 247.474 12.6534C247.042 12.9602 246.497 13.1136 245.837 13.1136C245.292 13.1136 244.807 12.9943 244.383 12.7557C243.959 12.5133 243.625 12.1496 243.383 11.6648C243.141 11.1761 243.019 10.5606 243.019 9.81818V4.27273H244.36V9.72727C244.36 10.3636 244.538 10.8712 244.894 11.25C245.254 11.6288 245.712 11.8182 246.269 11.8182C246.603 11.8182 246.942 11.733 247.286 11.5625C247.635 11.392 247.927 11.1307 248.161 10.7784C248.4 10.4261 248.519 9.97727 248.519 9.43182ZM253.977 7.75V13H252.636V4.27273H253.932V5.63636H254.045C254.25 5.19318 254.56 4.83712 254.977 4.56818C255.394 4.29545 255.932 4.15909 256.591 4.15909C257.182 4.15909 257.699 4.2803 258.142 4.52273C258.585 4.76136 258.93 5.125 259.176 5.61364C259.422 6.09848 259.545 6.71212 259.545 7.45455V13H258.204V7.54545C258.204 6.85985 258.026 6.32576 257.67 5.94318C257.314 5.55682 256.826 5.36364 256.204 5.36364C255.776 5.36364 255.394 5.45644 255.057 5.64205C254.723 5.82765 254.46 6.09848 254.267 6.45455C254.074 6.81061 253.977 7.24242 253.977 7.75ZM266.111 4.27273V5.40909H261.588V4.27273H266.111ZM262.906 2.18182H264.247V10.5C264.247 10.8788 264.302 11.1629 264.412 11.3523C264.526 11.5379 264.67 11.6629 264.844 11.7273C265.022 11.7879 265.209 11.8182 265.406 11.8182C265.554 11.8182 265.675 11.8106 265.77 11.7955C265.865 11.7765 265.941 11.7614 265.997 11.75L266.27 12.9545C266.179 12.9886 266.052 13.0227 265.889 13.0568C265.727 13.0947 265.52 13.1136 265.27 13.1136C264.891 13.1136 264.52 13.0322 264.156 12.8693C263.797 12.7064 263.497 12.4583 263.259 12.125C263.024 11.7917 262.906 11.3712 262.906 10.8636V2.18182ZM276.813 13.1818C276.026 13.1818 275.334 12.9943 274.74 12.6193C274.149 12.2443 273.687 11.7197 273.353 11.0455C273.024 10.3712 272.859 9.58333 272.859 8.68182C272.859 7.77273 273.024 6.97917 273.353 6.30114C273.687 5.62311 274.149 5.09659 274.74 4.72159C275.334 4.34659 276.026 4.15909 276.813 4.15909C277.601 4.15909 278.291 4.34659 278.882 4.72159C279.476 5.09659 279.938 5.62311 280.268 6.30114C280.601 6.97917 280.768 7.77273 280.768 8.68182C280.768 9.58333 280.601 10.3712 280.268 11.0455C279.938 11.7197 279.476 12.2443 278.882 12.6193C278.291 12.9943 277.601 13.1818 276.813 13.1818ZM276.813 11.9773C277.412 11.9773 277.904 11.8239 278.291 11.517C278.677 11.2102 278.963 10.8068 279.149 10.3068C279.334 9.80682 279.427 9.26515 279.427 8.68182C279.427 8.09848 279.334 7.55492 279.149 7.05114C278.963 6.54735 278.677 6.14015 278.291 5.82955C277.904 5.51894 277.412 5.36364 276.813 5.36364C276.215 5.36364 275.723 5.51894 275.336 5.82955C274.95 6.14015 274.664 6.54735 274.478 7.05114C274.293 7.55492 274.2 8.09848 274.2 8.68182C274.2 9.26515 274.293 9.80682 274.478 10.3068C274.664 10.8068 274.95 11.2102 275.336 11.517C275.723 11.8239 276.215 11.9773 276.813 11.9773ZM287.021 4.27273V5.40909H282.317V4.27273H287.021ZM283.726 13V3.06818C283.726 2.56818 283.843 2.15151 284.078 1.81818C284.313 1.48485 284.618 1.23485 284.993 1.06818C285.368 0.901514 285.764 0.818181 286.18 0.818181C286.51 0.818181 286.779 0.844696 286.987 0.897727C287.196 0.950757 287.351 0.999999 287.453 1.04545L287.067 2.20455C286.999 2.18182 286.904 2.15341 286.783 2.11932C286.665 2.08523 286.51 2.06818 286.317 2.06818C285.874 2.06818 285.553 2.17992 285.357 2.40341C285.163 2.62689 285.067 2.95455 285.067 3.38636V13H283.726ZM297.836 4.27273V5.40909H293.313V4.27273H297.836ZM294.631 2.18182H295.972V10.5C295.972 10.8788 296.027 11.1629 296.137 11.3523C296.251 11.5379 296.395 11.6629 296.569 11.7273C296.747 11.7879 296.935 11.8182 297.131 11.8182C297.279 11.8182 297.4 11.8106 297.495 11.7955C297.59 11.7765 297.666 11.7614 297.722 11.75L297.995 12.9545C297.904 12.9886 297.777 13.0227 297.614 13.0568C297.452 13.0947 297.245 13.1136 296.995 13.1136C296.616 13.1136 296.245 13.0322 295.881 12.8693C295.522 12.7064 295.222 12.4583 294.984 12.125C294.749 11.7917 294.631 11.3712 294.631 10.8636V2.18182ZM303.738 13.1818C302.897 13.1818 302.172 12.9962 301.562 12.625C300.956 12.25 300.488 11.7273 300.159 11.0568C299.833 10.3826 299.67 9.59848 299.67 8.70455C299.67 7.81061 299.833 7.02273 300.159 6.34091C300.488 5.6553 300.947 5.12121 301.534 4.73864C302.125 4.35227 302.814 4.15909 303.602 4.15909C304.057 4.15909 304.505 4.23485 304.949 4.38636C305.392 4.53788 305.795 4.78409 306.159 5.125C306.522 5.46212 306.812 5.90909 307.028 6.46591C307.244 7.02273 307.352 7.70833 307.352 8.52273V9.09091H300.625V7.93182H305.988C305.988 7.43939 305.89 7 305.693 6.61364C305.5 6.22727 305.223 5.92235 304.863 5.69886C304.507 5.47538 304.087 5.36364 303.602 5.36364C303.068 5.36364 302.606 5.49621 302.216 5.76136C301.829 6.02273 301.532 6.36364 301.324 6.78409C301.115 7.20455 301.011 7.6553 301.011 8.13636V8.90909C301.011 9.56818 301.125 10.1269 301.352 10.5852C301.583 11.0398 301.903 11.3864 302.312 11.625C302.721 11.8598 303.197 11.9773 303.738 11.9773C304.091 11.9773 304.409 11.928 304.693 11.8295C304.981 11.7273 305.229 11.5758 305.437 11.375C305.646 11.1705 305.807 10.9167 305.92 10.6136L307.216 10.9773C307.079 11.4167 306.85 11.803 306.528 12.1364C306.206 12.4659 305.808 12.7235 305.335 12.9091C304.861 13.0909 304.329 13.1818 303.738 13.1818ZM310.477 4.27273L312.568 7.84091L314.659 4.27273H316.205L313.387 8.63636L316.205 13H314.659L312.568 9.61364L310.477 13H308.932L311.705 8.63636L308.932 4.27273H310.477ZM322.234 4.27273V5.40909H317.711V4.27273H322.234ZM319.029 2.18182H320.37V10.5C320.37 10.8788 320.425 11.1629 320.535 11.3523C320.648 11.5379 320.792 11.6629 320.966 11.7273C321.144 11.7879 321.332 11.8182 321.529 11.8182C321.677 11.8182 321.798 11.8106 321.893 11.7955C321.987 11.7765 322.063 11.7614 322.12 11.75L322.393 12.9545C322.302 12.9886 322.175 13.0227 322.012 13.0568C321.849 13.0947 321.643 13.1136 321.393 13.1136C321.014 13.1136 320.643 13.0322 320.279 12.8693C319.919 12.7064 319.62 12.4583 319.381 12.125C319.146 11.7917 319.029 11.3712 319.029 10.8636V2.18182ZM333.186 4.27273V5.40909H328.663V4.27273H333.186ZM329.981 2.18182H331.322V10.5C331.322 10.8788 331.377 11.1629 331.487 11.3523C331.601 11.5379 331.745 11.6629 331.919 11.7273C332.097 11.7879 332.284 11.8182 332.481 11.8182C332.629 11.8182 332.75 11.8106 332.845 11.7955C332.94 11.7765 333.016 11.7614 333.072 11.75L333.345 12.9545C333.254 12.9886 333.127 13.0227 332.964 13.0568C332.802 13.0947 332.595 13.1136 332.345 13.1136C331.966 13.1136 331.595 13.0322 331.231 12.8693C330.872 12.7064 330.572 12.4583 330.334 12.125C330.099 11.7917 329.981 11.3712 329.981 10.8636V2.18182ZM337.051 7.75V13H335.711V1.36364H337.051V5.63636H337.165C337.37 5.18561 337.676 4.82765 338.086 4.5625C338.498 4.29356 339.048 4.15909 339.733 4.15909C340.328 4.15909 340.849 4.27841 341.296 4.51705C341.743 4.75189 342.089 5.11364 342.336 5.60227C342.586 6.08712 342.711 6.70455 342.711 7.45455V13H341.37V7.54545C341.37 6.85227 341.19 6.31629 340.83 5.9375C340.474 5.55492 339.979 5.36364 339.347 5.36364C338.908 5.36364 338.514 5.45644 338.165 5.64205C337.82 5.82765 337.548 6.09848 337.347 6.45455C337.15 6.81061 337.051 7.24242 337.051 7.75ZM348.052 13.2045C347.499 13.2045 346.997 13.1004 346.546 12.892C346.095 12.6799 345.737 12.375 345.472 11.9773C345.207 11.5758 345.075 11.0909 345.075 10.5227C345.075 10.0227 345.173 9.61742 345.37 9.30682C345.567 8.99242 345.83 8.74621 346.16 8.56818C346.489 8.39015 346.853 8.25758 347.251 8.17045C347.652 8.07955 348.056 8.00758 348.461 7.95455C348.991 7.88636 349.421 7.83523 349.751 7.80114C350.084 7.76326 350.326 7.70076 350.478 7.61364C350.633 7.52652 350.711 7.375 350.711 7.15909V7.11364C350.711 6.55303 350.558 6.11742 350.251 5.80682C349.948 5.49621 349.487 5.34091 348.87 5.34091C348.23 5.34091 347.728 5.48106 347.364 5.76136C347.001 6.04167 346.745 6.34091 346.597 6.65909L345.325 6.20455C345.552 5.67424 345.855 5.26136 346.234 4.96591C346.616 4.66667 347.033 4.45833 347.484 4.34091C347.938 4.2197 348.385 4.15909 348.825 4.15909C349.105 4.15909 349.427 4.19318 349.79 4.26136C350.158 4.32576 350.512 4.46023 350.853 4.66477C351.198 4.86932 351.484 5.17803 351.711 5.59091C351.938 6.00379 352.052 6.55682 352.052 7.25V13H350.711V11.8182H350.643C350.552 12.0076 350.4 12.2102 350.188 12.4261C349.976 12.642 349.694 12.8258 349.342 12.9773C348.989 13.1288 348.559 13.2045 348.052 13.2045ZM348.256 12C348.787 12 349.234 11.8958 349.597 11.6875C349.965 11.4792 350.241 11.2102 350.427 10.8807C350.616 10.5511 350.711 10.2045 350.711 9.84091V8.61364C350.654 8.68182 350.529 8.74432 350.336 8.80114C350.147 8.85417 349.927 8.90151 349.677 8.94318C349.431 8.98106 349.19 9.01515 348.955 9.04545C348.724 9.07197 348.537 9.0947 348.393 9.11364C348.044 9.15909 347.719 9.23295 347.415 9.33523C347.116 9.43371 346.874 9.58333 346.688 9.78409C346.506 9.98106 346.415 10.25 346.415 10.5909C346.415 11.0568 346.588 11.4091 346.933 11.6477C347.281 11.8826 347.722 12 348.256 12ZM358.615 4.27273V5.40909H354.092V4.27273H358.615ZM355.41 2.18182H356.751V10.5C356.751 10.8788 356.806 11.1629 356.916 11.3523C357.03 11.5379 357.173 11.6629 357.348 11.7273C357.526 11.7879 357.713 11.8182 357.91 11.8182C358.058 11.8182 358.179 11.8106 358.274 11.7955C358.369 11.7765 358.444 11.7614 358.501 11.75L358.774 12.9545C358.683 12.9886 358.556 13.0227 358.393 13.0568C358.23 13.0947 358.024 13.1136 357.774 13.1136C357.395 13.1136 357.024 13.0322 356.66 12.8693C356.3 12.7064 356.001 12.4583 355.762 12.125C355.528 11.7917 355.41 11.3712 355.41 10.8636V2.18182ZM369.567 4.27273V5.40909H365.045V4.27273H369.567ZM366.363 2.18182H367.704V10.5C367.704 10.8788 367.759 11.1629 367.868 11.3523C367.982 11.5379 368.126 11.6629 368.3 11.7273C368.478 11.7879 368.666 11.8182 368.863 11.8182C369.01 11.8182 369.132 11.8106 369.226 11.7955C369.321 11.7765 369.397 11.7614 369.454 11.75L369.726 12.9545C369.635 12.9886 369.509 13.0227 369.346 13.0568C369.183 13.0947 368.976 13.1136 368.726 13.1136C368.348 13.1136 367.976 13.0322 367.613 12.8693C367.253 12.7064 366.954 12.4583 366.715 12.125C366.48 11.7917 366.363 11.3712 366.363 10.8636V2.18182ZM373.433 7.75V13H372.092V1.36364H373.433V5.63636H373.546C373.751 5.18561 374.058 4.82765 374.467 4.5625C374.88 4.29356 375.429 4.15909 376.115 4.15909C376.709 4.15909 377.23 4.27841 377.677 4.51705C378.124 4.75189 378.471 5.11364 378.717 5.60227C378.967 6.08712 379.092 6.70455 379.092 7.45455V13H377.751V7.54545C377.751 6.85227 377.571 6.31629 377.211 5.9375C376.855 5.55492 376.361 5.36364 375.728 5.36364C375.289 5.36364 374.895 5.45644 374.546 5.64205C374.202 5.82765 373.929 6.09848 373.728 6.45455C373.531 6.81061 373.433 7.24242 373.433 7.75ZM385.524 13.1818C384.683 13.1818 383.958 12.9962 383.348 12.625C382.742 12.25 382.274 11.7273 381.944 11.0568C381.619 10.3826 381.456 9.59848 381.456 8.70455C381.456 7.81061 381.619 7.02273 381.944 6.34091C382.274 5.6553 382.732 5.12121 383.319 4.73864C383.91 4.35227 384.6 4.15909 385.388 4.15909C385.842 4.15909 386.291 4.23485 386.734 4.38636C387.177 4.53788 387.581 4.78409 387.944 5.125C388.308 5.46212 388.598 5.90909 388.814 6.46591C389.03 7.02273 389.138 7.70833 389.138 8.52273V9.09091H382.41V7.93182H387.774C387.774 7.43939 387.676 7 387.479 6.61364C387.285 6.22727 387.009 5.92235 386.649 5.69886C386.293 5.47538 385.873 5.36364 385.388 5.36364C384.854 5.36364 384.391 5.49621 384.001 5.76136C383.615 6.02273 383.318 6.36364 383.109 6.78409C382.901 7.20455 382.797 7.6553 382.797 8.13636V8.90909C382.797 9.56818 382.91 10.1269 383.138 10.5852C383.369 11.0398 383.689 11.3864 384.098 11.625C384.507 11.8598 384.982 11.9773 385.524 11.9773C385.876 11.9773 386.194 11.928 386.479 11.8295C386.766 11.7273 387.015 11.5758 387.223 11.375C387.431 11.1705 387.592 10.9167 387.706 10.6136L389.001 10.9773C388.865 11.4167 388.636 11.803 388.314 12.1364C387.992 12.4659 387.594 12.7235 387.121 12.9091C386.647 13.0909 386.115 13.1818 385.524 13.1818ZM396.317 13V4.27273H397.613V5.63636H397.727C397.908 5.17045 398.202 4.80871 398.607 4.55114C399.012 4.28977 399.499 4.15909 400.067 4.15909C400.643 4.15909 401.122 4.28977 401.505 4.55114C401.891 4.80871 402.192 5.17045 402.408 5.63636H402.499C402.723 5.18561 403.058 4.82765 403.505 4.5625C403.952 4.29356 404.488 4.15909 405.113 4.15909C405.893 4.15909 406.531 4.40341 407.028 4.89205C407.524 5.37689 407.772 6.13258 407.772 7.15909V13H406.431V7.15909C406.431 6.51515 406.255 6.05492 405.903 5.77841C405.55 5.50189 405.136 5.36364 404.658 5.36364C404.045 5.36364 403.569 5.54924 403.232 5.92045C402.895 6.28788 402.727 6.75379 402.727 7.31818V13H401.363V7.02273C401.363 6.52652 401.202 6.12689 400.88 5.82386C400.558 5.51705 400.143 5.36364 399.636 5.36364C399.287 5.36364 398.961 5.45644 398.658 5.64205C398.359 5.82765 398.117 6.08523 397.931 6.41477C397.749 6.74053 397.658 7.11742 397.658 7.54545V13H396.317ZM414.089 13.1818C413.301 13.1818 412.61 12.9943 412.015 12.6193C411.424 12.2443 410.962 11.7197 410.629 11.0455C410.299 10.3712 410.135 9.58333 410.135 8.68182C410.135 7.77273 410.299 6.97917 410.629 6.30114C410.962 5.62311 411.424 5.09659 412.015 4.72159C412.61 4.34659 413.301 4.15909 414.089 4.15909C414.877 4.15909 415.566 4.34659 416.157 4.72159C416.752 5.09659 417.214 5.62311 417.544 6.30114C417.877 6.97917 418.044 7.77273 418.044 8.68182C418.044 9.58333 417.877 10.3712 417.544 11.0455C417.214 11.7197 416.752 12.2443 416.157 12.6193C415.566 12.9943 414.877 13.1818 414.089 13.1818ZM414.089 11.9773C414.688 11.9773 415.18 11.8239 415.566 11.517C415.953 11.2102 416.239 10.8068 416.424 10.3068C416.61 9.80682 416.703 9.26515 416.703 8.68182C416.703 8.09848 416.61 7.55492 416.424 7.05114C416.239 6.54735 415.953 6.14015 415.566 5.82955C415.18 5.51894 414.688 5.36364 414.089 5.36364C413.491 5.36364 412.998 5.51894 412.612 5.82955C412.225 6.14015 411.94 6.54735 411.754 7.05114C411.568 7.55492 411.475 8.09848 411.475 8.68182C411.475 9.26515 411.568 9.80682 411.754 10.3068C411.94 10.8068 412.225 11.2102 412.612 11.517C412.998 11.8239 413.491 11.9773 414.089 11.9773ZM423.706 13.1818C422.979 13.1818 422.337 12.9981 421.78 12.6307C421.223 12.2595 420.787 11.7367 420.473 11.0625C420.159 10.3845 420.001 9.58333 420.001 8.65909C420.001 7.74242 420.159 6.94697 420.473 6.27273C420.787 5.59848 421.225 5.07765 421.786 4.71023C422.346 4.3428 422.994 4.15909 423.729 4.15909C424.297 4.15909 424.746 4.25379 425.075 4.44318C425.409 4.62879 425.662 4.84091 425.837 5.07955C426.015 5.31439 426.153 5.50758 426.251 5.65909H426.365V1.36364H427.706V13H426.411V11.6591H426.251C426.153 11.8182 426.013 12.0189 425.831 12.2614C425.649 12.5 425.39 12.714 425.053 12.9034C424.715 13.089 424.267 13.1818 423.706 13.1818ZM423.888 11.9773C424.426 11.9773 424.88 11.8371 425.251 11.5568C425.623 11.2727 425.905 10.8807 426.098 10.3807C426.291 9.87689 426.388 9.29545 426.388 8.63636C426.388 7.98485 426.293 7.41477 426.104 6.92614C425.914 6.43371 425.634 6.05114 425.263 5.77841C424.892 5.50189 424.433 5.36364 423.888 5.36364C423.32 5.36364 422.846 5.50947 422.467 5.80114C422.092 6.08902 421.81 6.48106 421.621 6.97727C421.435 7.4697 421.342 8.02273 421.342 8.63636C421.342 9.25758 421.437 9.82197 421.626 10.3295C421.82 10.8333 422.104 11.2348 422.479 11.5341C422.858 11.8295 423.327 11.9773 423.888 11.9773ZM434.327 13.1818C433.486 13.1818 432.761 12.9962 432.151 12.625C431.545 12.25 431.077 11.7273 430.748 11.0568C430.422 10.3826 430.259 9.59848 430.259 8.70455C430.259 7.81061 430.422 7.02273 430.748 6.34091C431.077 5.6553 431.535 5.12121 432.123 4.73864C432.714 4.35227 433.403 4.15909 434.191 4.15909C434.645 4.15909 435.094 4.23485 435.537 4.38636C435.981 4.53788 436.384 4.78409 436.748 5.125C437.111 5.46212 437.401 5.90909 437.617 6.46591C437.833 7.02273 437.941 7.70833 437.941 8.52273V9.09091H431.214V7.93182H436.577C436.577 7.43939 436.479 7 436.282 6.61364C436.089 6.22727 435.812 5.92235 435.452 5.69886C435.096 5.47538 434.676 5.36364 434.191 5.36364C433.657 5.36364 433.195 5.49621 432.804 5.76136C432.418 6.02273 432.121 6.36364 431.912 6.78409C431.704 7.20455 431.6 7.6553 431.6 8.13636V8.90909C431.6 9.56818 431.714 10.1269 431.941 10.5852C432.172 11.0398 432.492 11.3864 432.901 11.625C433.31 11.8598 433.785 11.9773 434.327 11.9773C434.679 11.9773 434.998 11.928 435.282 11.8295C435.57 11.7273 435.818 11.5758 436.026 11.375C436.234 11.1705 436.395 10.9167 436.509 10.6136L437.804 10.9773C437.668 11.4167 437.439 11.803 437.117 12.1364C436.795 12.4659 436.397 12.7235 435.924 12.9091C435.45 13.0909 434.918 13.1818 434.327 13.1818ZM441.641 1.36364V13H440.301V1.36364H441.641ZM453.033 4.27273V5.40909H448.51V4.27273H453.033ZM449.828 2.18182H451.169V10.5C451.169 10.8788 451.224 11.1629 451.334 11.3523C451.448 11.5379 451.592 11.6629 451.766 11.7273C451.944 11.7879 452.131 11.8182 452.328 11.8182C452.476 11.8182 452.597 11.8106 452.692 11.7955C452.787 11.7765 452.862 11.7614 452.919 11.75L453.192 12.9545C453.101 12.9886 452.974 13.0227 452.811 13.0568C452.648 13.0947 452.442 13.1136 452.192 13.1136C451.813 13.1136 451.442 13.0322 451.078 12.8693C450.718 12.7064 450.419 12.4583 450.181 12.125C449.946 11.7917 449.828 11.3712 449.828 10.8636V2.18182ZM457.938 13.2045C457.385 13.2045 456.883 13.1004 456.432 12.892C455.982 12.6799 455.624 12.375 455.359 11.9773C455.093 11.5758 454.961 11.0909 454.961 10.5227C454.961 10.0227 455.059 9.61742 455.256 9.30682C455.453 8.99242 455.717 8.74621 456.046 8.56818C456.376 8.39015 456.739 8.25758 457.137 8.17045C457.539 8.07955 457.942 8.00758 458.347 7.95455C458.878 7.88636 459.307 7.83523 459.637 7.80114C459.97 7.76326 460.213 7.70076 460.364 7.61364C460.52 7.52652 460.597 7.375 460.597 7.15909V7.11364C460.597 6.55303 460.444 6.11742 460.137 5.80682C459.834 5.49621 459.374 5.34091 458.756 5.34091C458.116 5.34091 457.614 5.48106 457.251 5.76136C456.887 6.04167 456.631 6.34091 456.484 6.65909L455.211 6.20455C455.438 5.67424 455.741 5.26136 456.12 4.96591C456.503 4.66667 456.919 4.45833 457.37 4.34091C457.824 4.2197 458.271 4.15909 458.711 4.15909C458.991 4.15909 459.313 4.19318 459.677 4.26136C460.044 4.32576 460.398 4.46023 460.739 4.66477C461.084 4.86932 461.37 5.17803 461.597 5.59091C461.824 6.00379 461.938 6.55682 461.938 7.25V13H460.597V11.8182H460.529C460.438 12.0076 460.287 12.2102 460.074 12.4261C459.862 12.642 459.58 12.8258 459.228 12.9773C458.876 13.1288 458.446 13.2045 457.938 13.2045ZM458.143 12C458.673 12 459.12 11.8958 459.484 11.6875C459.851 11.4792 460.128 11.2102 460.313 10.8807C460.503 10.5511 460.597 10.2045 460.597 9.84091V8.61364C460.54 8.68182 460.415 8.74432 460.222 8.80114C460.033 8.85417 459.813 8.90151 459.563 8.94318C459.317 8.98106 459.076 9.01515 458.842 9.04545C458.61 9.07197 458.423 9.0947 458.279 9.11364C457.931 9.15909 457.605 9.23295 457.302 9.33523C457.003 9.43371 456.76 9.58333 456.574 9.78409C456.393 9.98106 456.302 10.25 456.302 10.5909C456.302 11.0568 456.474 11.4091 456.819 11.6477C457.167 11.8826 457.609 12 458.143 12ZM465.956 9.81818L465.933 8.15909H466.206L470.024 4.27273H471.683L467.615 8.38636H467.501L465.956 9.81818ZM464.706 13V1.36364H466.046V13H464.706ZM470.251 13L466.842 8.68182L467.796 7.75L471.956 13H470.251ZM477.028 13.1818C476.187 13.1818 475.462 12.9962 474.852 12.625C474.246 12.25 473.778 11.7273 473.449 11.0568C473.123 10.3826 472.96 9.59848 472.96 8.70455C472.96 7.81061 473.123 7.02273 473.449 6.34091C473.778 5.6553 474.237 5.12121 474.824 4.73864C475.415 4.35227 476.104 4.15909 476.892 4.15909C477.347 4.15909 477.795 4.23485 478.239 4.38636C478.682 4.53788 479.085 4.78409 479.449 5.125C479.812 5.46212 480.102 5.90909 480.318 6.46591C480.534 7.02273 480.642 7.70833 480.642 8.52273V9.09091H473.915V7.93182H479.278C479.278 7.43939 479.18 7 478.983 6.61364C478.79 6.22727 478.513 5.92235 478.153 5.69886C477.797 5.47538 477.377 5.36364 476.892 5.36364C476.358 5.36364 475.896 5.49621 475.506 5.76136C475.119 6.02273 474.822 6.36364 474.614 6.78409C474.405 7.20455 474.301 7.6553 474.301 8.13636V8.90909C474.301 9.56818 474.415 10.1269 474.642 10.5852C474.873 11.0398 475.193 11.3864 475.602 11.625C476.011 11.8598 476.487 11.9773 477.028 11.9773C477.381 11.9773 477.699 11.928 477.983 11.8295C478.271 11.7273 478.519 11.5758 478.727 11.375C478.936 11.1705 479.097 10.9167 479.21 10.6136L480.506 10.9773C480.369 11.4167 480.14 11.803 479.818 12.1364C479.496 12.4659 479.098 12.7235 478.625 12.9091C478.151 13.0909 477.619 13.1818 477.028 13.1818ZM489.184 6.22727L487.979 6.56818C487.903 6.36742 487.792 6.17235 487.644 5.98295C487.5 5.78977 487.303 5.63068 487.053 5.50568C486.803 5.38068 486.483 5.31818 486.093 5.31818C485.559 5.31818 485.114 5.44129 484.757 5.6875C484.405 5.92992 484.229 6.23864 484.229 6.61364C484.229 6.94697 484.35 7.21023 484.593 7.40341C484.835 7.59659 485.214 7.75758 485.729 7.88636L487.025 8.20455C487.805 8.39394 488.386 8.68371 488.769 9.07386C489.151 9.46023 489.343 9.95833 489.343 10.5682C489.343 11.0682 489.199 11.5152 488.911 11.9091C488.627 12.303 488.229 12.6136 487.718 12.8409C487.206 13.0682 486.612 13.1818 485.934 13.1818C485.043 13.1818 484.307 12.9886 483.723 12.6023C483.14 12.2159 482.771 11.6515 482.615 10.9091L483.888 10.5909C484.009 11.0606 484.239 11.4129 484.576 11.6477C484.917 11.8826 485.362 12 485.911 12C486.536 12 487.032 11.8674 487.4 11.6023C487.771 11.3333 487.956 11.0114 487.956 10.6364C487.956 10.3333 487.85 10.0795 487.638 9.875C487.426 9.66667 487.1 9.51136 486.661 9.40909L485.206 9.06818C484.407 8.87879 483.82 8.58523 483.445 8.1875C483.074 7.78598 482.888 7.28409 482.888 6.68182C482.888 6.18939 483.026 5.75379 483.303 5.375C483.583 4.99621 483.964 4.69886 484.445 4.48295C484.93 4.26705 485.479 4.15909 486.093 4.15909C486.956 4.15909 487.634 4.34848 488.127 4.72727C488.623 5.10606 488.975 5.60606 489.184 6.22727ZM492.658 13.0909C492.378 13.0909 492.138 12.9905 491.937 12.7898C491.736 12.589 491.636 12.3485 491.636 12.0682C491.636 11.7879 491.736 11.5473 491.937 11.3466C492.138 11.1458 492.378 11.0455 492.658 11.0455C492.939 11.0455 493.179 11.1458 493.38 11.3466C493.581 11.5473 493.681 11.7879 493.681 12.0682C493.681 12.2538 493.634 12.4242 493.539 12.5795C493.448 12.7348 493.325 12.8598 493.17 12.9545C493.018 13.0455 492.848 13.0909 492.658 13.0909Z" fill="white"/>
</svg>
