<svg width="36" height="15" viewBox="0 0 36 15" fill="none" xmlns="http://www.w3.org/2000/svg">
<path d="M0.260121 15V0.454545H5.44478C6.57641 0.454545 7.51391 0.660511 8.25728 1.07244C9.00065 1.48437 9.557 2.04782 9.92631 2.76278C10.2956 3.47301 10.4803 4.2732 10.4803 5.16335C10.4803 6.05824 10.2933 6.86316 9.91921 7.57812C9.54989 8.28835 8.99118 8.8518 8.24308 9.26847C7.4997 9.6804 6.56457 9.88636 5.43768 9.88636H1.87234V8.02557H5.23881C5.95378 8.02557 6.5338 7.90246 6.97887 7.65625C7.42395 7.4053 7.75065 7.06439 7.95898 6.63352C8.16732 6.20265 8.27148 5.71259 8.27148 5.16335C8.27148 4.61411 8.16732 4.12642 7.95898 3.70028C7.75065 3.27415 7.42158 2.94034 6.97177 2.69886C6.52669 2.45739 5.93957 2.33665 5.2104 2.33665H2.45472V15H0.260121ZM13.4531 15V0.454545H18.7798C19.812 0.454545 20.6666 0.625 21.3437 0.965909C22.0208 1.30208 22.5274 1.759 22.8636 2.33665C23.1998 2.90956 23.3679 3.55587 23.3679 4.27557C23.3679 4.88163 23.2566 5.39299 23.0341 5.80966C22.8115 6.22159 22.5132 6.55303 22.1392 6.80398C21.7699 7.05019 21.3627 7.23011 20.9176 7.34375V7.4858C21.4005 7.50947 21.8716 7.66572 22.3309 7.95455C22.7949 8.23864 23.1785 8.64347 23.4815 9.16903C23.7845 9.6946 23.936 10.3338 23.936 11.0866C23.936 11.83 23.7609 12.4976 23.4105 13.0895C23.0648 13.6766 22.5298 14.143 21.8054 14.4886C21.0809 14.8295 20.1553 15 19.0284 15H13.4531ZM15.6477 13.1179H18.8153C19.8664 13.1179 20.6193 12.9143 21.0738 12.5071C21.5284 12.0999 21.7556 11.5909 21.7556 10.9801C21.7556 10.5208 21.6396 10.0994 21.4076 9.71591C21.1756 9.33239 20.8442 9.02699 20.4133 8.79972C19.9872 8.57244 19.4806 8.45881 18.8934 8.45881H15.6477V13.1179ZM15.6477 6.74716H18.588C19.0805 6.74716 19.5232 6.65246 19.9162 6.46307C20.3139 6.27367 20.6288 6.00852 20.8608 5.66761C21.0975 5.32197 21.2159 4.91477 21.2159 4.44602C21.2159 3.8447 21.0052 3.34044 20.5838 2.93324C20.1624 2.52604 19.5161 2.32244 18.6449 2.32244H15.6477V6.74716ZM26.939 15V0.454545H29.1336V13.1108H35.7245V15H26.939Z" fill="#F7F8F8"/>
</svg>
