<svg width="122" height="16" viewBox="0 0 122 16" fill="none" xmlns="http://www.w3.org/2000/svg">
<path d="M0.278409 12V0.363636H4.42614C5.32765 0.363636 6.07576 0.518939 6.67045 0.829545C7.26894 1.14015 7.71591 1.57008 8.01136 2.11932C8.30682 2.66477 8.45455 3.29545 8.45455 4.01136C8.45455 4.72348 8.30492 5.35038 8.00568 5.89205C7.71023 6.42992 7.26326 6.84848 6.66477 7.14773C6.07008 7.44697 5.32197 7.59659 4.42045 7.59659H1.27841V6.08523H4.26136C4.82955 6.08523 5.29167 6.00379 5.64773 5.84091C6.00758 5.67803 6.27083 5.44129 6.4375 5.13068C6.60417 4.82008 6.6875 4.44697 6.6875 4.01136C6.6875 3.57197 6.60227 3.19129 6.43182 2.86932C6.26515 2.54735 6.00189 2.30114 5.64205 2.13068C5.28598 1.95644 4.81818 1.86932 4.23864 1.86932H2.03409V12H0.278409ZM6.02273 6.75L8.89773 12H6.89773L4.07955 6.75H6.02273ZM14.1065 12.1761C13.2467 12.1761 12.5062 11.9924 11.8849 11.625C11.2675 11.2538 10.7902 10.733 10.4531 10.0625C10.1198 9.38826 9.95312 8.59848 9.95312 7.69318C9.95312 6.79924 10.1198 6.01136 10.4531 5.32955C10.7902 4.64773 11.2599 4.11553 11.8622 3.73295C12.4683 3.35038 13.1766 3.15909 13.9872 3.15909C14.4796 3.15909 14.9569 3.24053 15.419 3.40341C15.8812 3.56629 16.2959 3.82197 16.6634 4.17045C17.0308 4.51894 17.3205 4.97159 17.5327 5.52841C17.7448 6.08144 17.8509 6.75379 17.8509 7.54545V8.14773H10.9134V6.875H16.1861C16.1861 6.42803 16.0952 6.0322 15.9134 5.6875C15.7315 5.33902 15.4759 5.06439 15.1463 4.86364C14.8205 4.66288 14.438 4.5625 13.9986 4.5625C13.5213 4.5625 13.1046 4.67992 12.7486 4.91477C12.3963 5.14583 12.1236 5.44886 11.9304 5.82386C11.741 6.19508 11.6463 6.59848 11.6463 7.03409V8.02841C11.6463 8.61174 11.7486 9.10795 11.9531 9.51705C12.1615 9.92614 12.4512 10.2386 12.8224 10.4545C13.1937 10.6667 13.6274 10.7727 14.1236 10.7727C14.4455 10.7727 14.7391 10.7273 15.0043 10.6364C15.2694 10.5417 15.4986 10.4015 15.6918 10.2159C15.8849 10.0303 16.0327 9.80114 16.1349 9.52841L17.7429 9.81818C17.6141 10.2917 17.383 10.7064 17.0497 11.0625C16.7202 11.4148 16.3054 11.6894 15.8054 11.8864C15.3092 12.0795 14.7429 12.1761 14.1065 12.1761ZM25.6278 15.2727V10.642H25.5256C25.4233 10.8277 25.2756 11.0398 25.0824 11.2784C24.893 11.517 24.6316 11.7254 24.2983 11.9034C23.965 12.0814 23.5331 12.1705 23.0028 12.1705C22.2983 12.1705 21.6695 11.9905 21.1165 11.6307C20.5672 11.267 20.1354 10.75 19.821 10.0795C19.5104 9.4053 19.3551 8.59659 19.3551 7.65341C19.3551 6.71023 19.5123 5.90341 19.8267 5.23295C20.1449 4.5625 20.5805 4.04924 21.1335 3.69318C21.6866 3.33712 22.3134 3.15909 23.0142 3.15909C23.5559 3.15909 23.9915 3.25 24.321 3.43182C24.6544 3.60985 24.9119 3.81818 25.0938 4.05682C25.2794 4.29545 25.4233 4.50568 25.5256 4.6875H25.6676V3.27273H27.3267V15.2727H25.6278ZM23.3778 10.7216C23.8665 10.7216 24.2794 10.5928 24.6165 10.3352C24.9574 10.0739 25.215 9.71212 25.3892 9.25C25.5672 8.78788 25.6562 8.25 25.6562 7.63636C25.6562 7.0303 25.5691 6.5 25.3949 6.04545C25.2206 5.59091 24.965 5.23674 24.6278 4.98295C24.2907 4.72917 23.8741 4.60227 23.3778 4.60227C22.8665 4.60227 22.4403 4.73485 22.0994 5C21.7585 5.26515 21.5009 5.62689 21.3267 6.08523C21.1563 6.54356 21.071 7.06061 21.071 7.63636C21.071 8.2197 21.1581 8.74432 21.3324 9.21023C21.5066 9.67614 21.7642 10.0455 22.1051 10.3182C22.4498 10.5871 22.8741 10.7216 23.3778 10.7216ZM35.1392 8.38068V3.27273H36.8438V12H35.1733V10.4886H35.0824C34.8816 10.9545 34.5597 11.3428 34.1165 11.6534C33.6771 11.9602 33.1297 12.1136 32.4744 12.1136C31.9138 12.1136 31.4176 11.9905 30.9858 11.7443C30.5578 11.4943 30.2206 11.125 29.9744 10.6364C29.732 10.1477 29.6108 9.54356 29.6108 8.82386V3.27273H31.3097V8.61932C31.3097 9.21402 31.4744 9.6875 31.804 10.0398C32.1335 10.392 32.5616 10.5682 33.0881 10.5682C33.4063 10.5682 33.7225 10.4886 34.0369 10.3295C34.3551 10.1705 34.6184 9.92992 34.8267 9.60795C35.0388 9.28598 35.143 8.87689 35.1392 8.38068ZM42.8878 12.1761C42.0279 12.1761 41.2874 11.9924 40.6662 11.625C40.0488 11.2538 39.5715 10.733 39.2344 10.0625C38.901 9.38826 38.7344 8.59848 38.7344 7.69318C38.7344 6.79924 38.901 6.01136 39.2344 5.32955C39.5715 4.64773 40.0412 4.11553 40.6435 3.73295C41.2495 3.35038 41.9579 3.15909 42.7685 3.15909C43.2609 3.15909 43.7382 3.24053 44.2003 3.40341C44.6624 3.56629 45.0772 3.82197 45.4446 4.17045C45.812 4.51894 46.1018 4.97159 46.3139 5.52841C46.526 6.08144 46.6321 6.75379 46.6321 7.54545V8.14773H39.6946V6.875H44.9673C44.9673 6.42803 44.8764 6.0322 44.6946 5.6875C44.5128 5.33902 44.2571 5.06439 43.9276 4.86364C43.6018 4.66288 43.2192 4.5625 42.7798 4.5625C42.3026 4.5625 41.8859 4.67992 41.5298 4.91477C41.1776 5.14583 40.9048 5.44886 40.7116 5.82386C40.5223 6.19508 40.4276 6.59848 40.4276 7.03409V8.02841C40.4276 8.61174 40.5298 9.10795 40.7344 9.51705C40.9427 9.92614 41.2325 10.2386 41.6037 10.4545C41.9749 10.6667 42.4086 10.7727 42.9048 10.7727C43.2268 10.7727 43.5204 10.7273 43.7855 10.6364C44.0507 10.5417 44.2798 10.4015 44.473 10.2159C44.6662 10.0303 44.8139 9.80114 44.9162 9.52841L46.5241 9.81818C46.3954 10.2917 46.1643 10.7064 45.831 11.0625C45.5014 11.4148 45.0866 11.6894 44.5866 11.8864C44.0904 12.0795 43.5241 12.1761 42.8878 12.1761ZM55.0568 5.40341L53.517 5.67614C53.4527 5.47917 53.3504 5.29167 53.2102 5.11364C53.0739 4.93561 52.8883 4.78977 52.6534 4.67614C52.4186 4.5625 52.125 4.50568 51.7727 4.50568C51.2917 4.50568 50.8902 4.61364 50.5682 4.82955C50.2462 5.04167 50.0852 5.31629 50.0852 5.65341C50.0852 5.94508 50.1932 6.17992 50.4091 6.35795C50.625 6.53598 50.9735 6.68182 51.4545 6.79545L52.8409 7.11364C53.6439 7.29924 54.2424 7.58523 54.6364 7.97159C55.0303 8.35795 55.2273 8.85985 55.2273 9.47727C55.2273 10 55.0758 10.4659 54.7727 10.875C54.4735 11.2803 54.0549 11.5985 53.517 11.8295C52.983 12.0606 52.3636 12.1761 51.6591 12.1761C50.6818 12.1761 49.8845 11.9678 49.267 11.5511C48.6496 11.1307 48.2708 10.5341 48.1307 9.76136L49.7727 9.51136C49.875 9.93939 50.0852 10.2633 50.4034 10.483C50.7216 10.6989 51.1364 10.8068 51.6477 10.8068C52.2045 10.8068 52.6496 10.6913 52.983 10.4602C53.3163 10.2254 53.483 9.93939 53.483 9.60227C53.483 9.32955 53.3807 9.10038 53.1761 8.91477C52.9754 8.72917 52.6667 8.58902 52.25 8.49432L50.7727 8.17045C49.9583 7.98485 49.3561 7.68939 48.9659 7.28409C48.5795 6.87879 48.3864 6.36553 48.3864 5.74432C48.3864 5.22917 48.5303 4.77841 48.8182 4.39205C49.1061 4.00568 49.5038 3.70455 50.0114 3.48864C50.5189 3.26894 51.1004 3.15909 51.7557 3.15909C52.6989 3.15909 53.4413 3.36364 53.983 3.77273C54.5246 4.17803 54.8826 4.72159 55.0568 5.40341ZM61.169 3.27273V4.63636H56.402V3.27273H61.169ZM57.6804 1.18182H59.3793V9.4375C59.3793 9.76705 59.4285 10.0152 59.527 10.1818C59.6255 10.3447 59.7524 10.4564 59.9077 10.517C60.0668 10.5739 60.2391 10.6023 60.4247 10.6023C60.5611 10.6023 60.6804 10.5928 60.7827 10.5739C60.8849 10.5549 60.9645 10.5398 61.0213 10.5284L61.3281 11.9318C61.2296 11.9697 61.0895 12.0076 60.9077 12.0455C60.7259 12.0871 60.4986 12.1098 60.2259 12.1136C59.7789 12.1212 59.3622 12.0417 58.9759 11.875C58.5895 11.7083 58.277 11.4508 58.0384 11.1023C57.7997 10.7538 57.6804 10.3163 57.6804 9.78977V1.18182ZM68.402 12H66.5384L70.7259 0.363636H72.7543L76.9418 12H75.0781L71.7884 2.47727H71.6974L68.402 12ZM68.7145 7.44318H74.7599V8.92045H68.7145V7.44318ZM82.0213 12.1761C81.1766 12.1761 80.4493 11.9848 79.8395 11.6023C79.2334 11.2159 78.7675 10.6837 78.4418 10.0057C78.116 9.32765 77.9531 8.55114 77.9531 7.67614C77.9531 6.78977 78.1198 6.00758 78.4531 5.32955C78.7865 4.64773 79.2562 4.11553 79.8622 3.73295C80.4683 3.35038 81.1823 3.15909 82.0043 3.15909C82.6671 3.15909 83.258 3.2822 83.777 3.52841C84.2959 3.77083 84.7145 4.11174 85.0327 4.55114C85.3546 4.99053 85.5459 5.50379 85.6065 6.09091H83.9531C83.8622 5.68182 83.6539 5.32955 83.3281 5.03409C83.0062 4.73864 82.5743 4.59091 82.0327 4.59091C81.5592 4.59091 81.1444 4.71591 80.7884 4.96591C80.4361 5.21212 80.1615 5.56439 79.9645 6.02273C79.7675 6.47727 79.669 7.01515 79.669 7.63636C79.669 8.27273 79.7656 8.82197 79.9588 9.28409C80.152 9.74621 80.4247 10.1042 80.777 10.358C81.133 10.6117 81.5516 10.7386 82.0327 10.7386C82.3546 10.7386 82.6463 10.6799 82.9077 10.5625C83.1728 10.4413 83.3944 10.2689 83.5724 10.0455C83.7543 9.82197 83.8812 9.55303 83.9531 9.23864H85.6065C85.5459 9.80303 85.3622 10.3068 85.0554 10.75C84.7486 11.1932 84.3376 11.5417 83.8224 11.7955C83.3111 12.0492 82.7107 12.1761 82.0213 12.1761ZM91.0994 12.1761C90.2547 12.1761 89.5275 11.9848 88.9176 11.6023C88.3116 11.2159 87.8456 10.6837 87.5199 10.0057C87.1941 9.32765 87.0312 8.55114 87.0312 7.67614C87.0312 6.78977 87.1979 6.00758 87.5312 5.32955C87.8646 4.64773 88.3343 4.11553 88.9403 3.73295C89.5464 3.35038 90.2604 3.15909 91.0824 3.15909C91.7453 3.15909 92.3362 3.2822 92.8551 3.52841C93.3741 3.77083 93.7926 4.11174 94.1108 4.55114C94.4328 4.99053 94.6241 5.50379 94.6847 6.09091H93.0312C92.9403 5.68182 92.732 5.32955 92.4062 5.03409C92.0843 4.73864 91.6525 4.59091 91.1108 4.59091C90.6373 4.59091 90.2225 4.71591 89.8665 4.96591C89.5142 5.21212 89.2396 5.56439 89.0426 6.02273C88.8456 6.47727 88.7472 7.01515 88.7472 7.63636C88.7472 8.27273 88.8438 8.82197 89.0369 9.28409C89.2301 9.74621 89.5028 10.1042 89.8551 10.358C90.2112 10.6117 90.6297 10.7386 91.1108 10.7386C91.4328 10.7386 91.7244 10.6799 91.9858 10.5625C92.2509 10.4413 92.4725 10.2689 92.6506 10.0455C92.8324 9.82197 92.9593 9.55303 93.0312 9.23864H94.6847C94.6241 9.80303 94.4403 10.3068 94.1335 10.75C93.8267 11.1932 93.4157 11.5417 92.9006 11.7955C92.3892 12.0492 91.7888 12.1761 91.0994 12.1761ZM100.263 12.1761C99.4029 12.1761 98.6624 11.9924 98.0412 11.625C97.4238 11.2538 96.9465 10.733 96.6094 10.0625C96.276 9.38826 96.1094 8.59848 96.1094 7.69318C96.1094 6.79924 96.276 6.01136 96.6094 5.32955C96.9465 4.64773 97.4162 4.11553 98.0185 3.73295C98.6245 3.35038 99.3329 3.15909 100.143 3.15909C100.636 3.15909 101.113 3.24053 101.575 3.40341C102.037 3.56629 102.452 3.82197 102.82 4.17045C103.187 4.51894 103.477 4.97159 103.689 5.52841C103.901 6.08144 104.007 6.75379 104.007 7.54545V8.14773H97.0696V6.875H102.342C102.342 6.42803 102.251 6.0322 102.07 5.6875C101.888 5.33902 101.632 5.06439 101.303 4.86364C100.977 4.66288 100.594 4.5625 100.155 4.5625C99.6776 4.5625 99.2609 4.67992 98.9048 4.91477C98.5526 5.14583 98.2798 5.44886 98.0866 5.82386C97.8973 6.19508 97.8026 6.59848 97.8026 7.03409V8.02841C97.8026 8.61174 97.9048 9.10795 98.1094 9.51705C98.3177 9.92614 98.6075 10.2386 98.9787 10.4545C99.3499 10.6667 99.7836 10.7727 100.28 10.7727C100.602 10.7727 100.895 10.7273 101.161 10.6364C101.426 10.5417 101.655 10.4015 101.848 10.2159C102.041 10.0303 102.189 9.80114 102.291 9.52841L103.899 9.81818C103.77 10.2917 103.539 10.7064 103.206 11.0625C102.876 11.4148 102.462 11.6894 101.962 11.8864C101.465 12.0795 100.899 12.1761 100.263 12.1761ZM112.432 5.40341L110.892 5.67614C110.828 5.47917 110.725 5.29167 110.585 5.11364C110.449 4.93561 110.263 4.78977 110.028 4.67614C109.794 4.5625 109.5 4.50568 109.148 4.50568C108.667 4.50568 108.265 4.61364 107.943 4.82955C107.621 5.04167 107.46 5.31629 107.46 5.65341C107.46 5.94508 107.568 6.17992 107.784 6.35795C108 6.53598 108.348 6.68182 108.83 6.79545L110.216 7.11364C111.019 7.29924 111.617 7.58523 112.011 7.97159C112.405 8.35795 112.602 8.85985 112.602 9.47727C112.602 10 112.451 10.4659 112.148 10.875C111.848 11.2803 111.43 11.5985 110.892 11.8295C110.358 12.0606 109.739 12.1761 109.034 12.1761C108.057 12.1761 107.259 11.9678 106.642 11.5511C106.025 11.1307 105.646 10.5341 105.506 9.76136L107.148 9.51136C107.25 9.93939 107.46 10.2633 107.778 10.483C108.097 10.6989 108.511 10.8068 109.023 10.8068C109.58 10.8068 110.025 10.6913 110.358 10.4602C110.691 10.2254 110.858 9.93939 110.858 9.60227C110.858 9.32955 110.756 9.10038 110.551 8.91477C110.35 8.72917 110.042 8.58902 109.625 8.49432L108.148 8.17045C107.333 7.98485 106.731 7.68939 106.341 7.28409C105.955 6.87879 105.761 6.36553 105.761 5.74432C105.761 5.22917 105.905 4.77841 106.193 4.39205C106.481 4.00568 106.879 3.70455 107.386 3.48864C107.894 3.26894 108.475 3.15909 109.131 3.15909C110.074 3.15909 110.816 3.36364 111.358 3.77273C111.9 4.17803 112.258 4.72159 112.432 5.40341ZM121.01 5.40341L119.47 5.67614C119.406 5.47917 119.304 5.29167 119.163 5.11364C119.027 4.93561 118.841 4.78977 118.607 4.67614C118.372 4.5625 118.078 4.50568 117.726 4.50568C117.245 4.50568 116.843 4.61364 116.521 4.82955C116.199 5.04167 116.038 5.31629 116.038 5.65341C116.038 5.94508 116.146 6.17992 116.362 6.35795C116.578 6.53598 116.927 6.68182 117.408 6.79545L118.794 7.11364C119.597 7.29924 120.196 7.58523 120.589 7.97159C120.983 8.35795 121.18 8.85985 121.18 9.47727C121.18 10 121.029 10.4659 120.726 10.875C120.427 11.2803 120.008 11.5985 119.47 11.8295C118.936 12.0606 118.317 12.1761 117.612 12.1761C116.635 12.1761 115.838 11.9678 115.22 11.5511C114.603 11.1307 114.224 10.5341 114.084 9.76136L115.726 9.51136C115.828 9.93939 116.038 10.2633 116.357 10.483C116.675 10.6989 117.089 10.8068 117.601 10.8068C118.158 10.8068 118.603 10.6913 118.936 10.4602C119.269 10.2254 119.436 9.93939 119.436 9.60227C119.436 9.32955 119.334 9.10038 119.129 8.91477C118.929 8.72917 118.62 8.58902 118.203 8.49432L116.726 8.17045C115.911 7.98485 115.309 7.68939 114.919 7.28409C114.533 6.87879 114.339 6.36553 114.339 5.74432C114.339 5.22917 114.483 4.77841 114.771 4.39205C115.059 4.00568 115.457 3.70455 115.964 3.48864C116.472 3.26894 117.054 3.15909 117.709 3.15909C118.652 3.15909 119.394 3.36364 119.936 3.77273C120.478 4.17803 120.836 4.72159 121.01 5.40341Z" fill="#5C67C7"/>
</svg>
