<svg width="170" height="18" viewBox="0 0 170 18" fill="none" xmlns="http://www.w3.org/2000/svg">
<path d="M7.9 14C7.76667 14 7.67333 13.94 7.62 13.82L5.12 8.28C5.09333 8.22667 5.05333 8.2 5 8.2H3.14C3.07333 8.2 3.04 8.23333 3.04 8.3V13.76C3.04 13.8267 3.01333 13.8867 2.96 13.94C2.92 13.98 2.86667 14 2.8 14H0.46C0.393333 14 0.333333 13.98 0.28 13.94C0.24 13.8867 0.22 13.8267 0.22 13.76V0.24C0.22 0.173333 0.24 0.119999 0.28 0.0799992C0.333333 0.0266658 0.393333 -9.53674e-07 0.46 -9.53674e-07H6.18C7.03333 -9.53674e-07 7.78 0.173333 8.42 0.52C9.07333 0.866666 9.57333 1.36 9.92 2C10.28 2.64 10.46 3.38 10.46 4.22C10.46 5.12667 10.2333 5.90667 9.78 6.56C9.32667 7.2 8.69333 7.65333 7.88 7.92C7.81333 7.94667 7.79333 7.99333 7.82 8.06L10.54 13.72C10.5667 13.7733 10.58 13.8133 10.58 13.84C10.58 13.9467 10.5067 14 10.36 14H7.9ZM3.14 2.42C3.07333 2.42 3.04 2.45333 3.04 2.52V5.94C3.04 6.00667 3.07333 6.04 3.14 6.04H5.76C6.32 6.04 6.77333 5.87333 7.12 5.54C7.48 5.20667 7.66 4.77333 7.66 4.24C7.66 3.70667 7.48 3.27333 7.12 2.94C6.77333 2.59333 6.32 2.42 5.76 2.42H3.14ZM21.2884 7.8C21.3684 8.30667 21.3951 8.87333 21.3684 9.5C21.3551 9.66 21.2684 9.74 21.1084 9.74H14.9284C14.8484 9.74 14.8218 9.77333 14.8484 9.84C14.8884 10.1067 14.9618 10.3733 15.0684 10.64C15.4151 11.3867 16.1218 11.76 17.1884 11.76C18.0418 11.7467 18.7151 11.4 19.2084 10.72C19.2618 10.64 19.3218 10.6 19.3884 10.6C19.4284 10.6 19.4751 10.6267 19.5284 10.68L20.9684 12.1C21.0351 12.1667 21.0684 12.2267 21.0684 12.28C21.0684 12.3067 21.0418 12.36 20.9884 12.44C20.5484 12.9867 19.9818 13.4133 19.2884 13.72C18.5951 14.0133 17.8351 14.16 17.0084 14.16C15.8618 14.16 14.8884 13.9 14.0884 13.38C13.3018 12.86 12.7351 12.1333 12.3884 11.2C12.1084 10.5333 11.9684 9.66 11.9684 8.58C11.9684 7.84667 12.0684 7.2 12.2684 6.64C12.5751 5.69333 13.1084 4.94 13.8684 4.38C14.6418 3.82 15.5551 3.54 16.6084 3.54C17.9418 3.54 19.0084 3.92667 19.8084 4.7C20.6218 5.47333 21.1151 6.50667 21.2884 7.8ZM16.6284 5.98C15.7884 5.98 15.2351 6.37333 14.9684 7.16C14.9151 7.33333 14.8684 7.54667 14.8284 7.8C14.8284 7.86667 14.8618 7.9 14.9284 7.9H18.3884C18.4684 7.9 18.4951 7.86667 18.4684 7.8C18.4018 7.41333 18.3684 7.22667 18.3684 7.24C18.2484 6.84 18.0351 6.53333 17.7284 6.32C17.4351 6.09333 17.0684 5.98 16.6284 5.98ZM27.0697 14.14C26.1764 14.14 25.3964 14.0133 24.7297 13.76C24.063 13.5067 23.543 13.1533 23.1697 12.7C22.8097 12.2467 22.6297 11.7333 22.6297 11.16V10.96C22.6297 10.8933 22.6497 10.84 22.6897 10.8C22.743 10.7467 22.803 10.72 22.8697 10.72H25.0897C25.1564 10.72 25.2097 10.7467 25.2497 10.8C25.303 10.84 25.3297 10.8933 25.3297 10.96V10.98C25.3297 11.2733 25.4897 11.5267 25.8097 11.74C26.143 11.94 26.5564 12.04 27.0497 12.04C27.503 12.04 27.8697 11.9533 28.1497 11.78C28.4297 11.5933 28.5697 11.3667 28.5697 11.1C28.5697 10.86 28.4497 10.68 28.2097 10.56C27.9697 10.44 27.5764 10.3133 27.0297 10.18C26.403 10.02 25.9097 9.86667 25.5497 9.72C24.6964 9.42667 24.0164 9.06667 23.5097 8.64C23.003 8.21333 22.7497 7.6 22.7497 6.8C22.7497 5.81333 23.1297 5.03333 23.8897 4.46C24.663 3.87333 25.683 3.58 26.9497 3.58C27.803 3.58 28.5497 3.72 29.1897 4C29.8297 4.26667 30.323 4.64667 30.6697 5.14C31.0297 5.63333 31.2097 6.19333 31.2097 6.82C31.2097 6.88667 31.183 6.94667 31.1297 7C31.0897 7.04 31.0364 7.06 30.9697 7.06H28.8297C28.763 7.06 28.703 7.04 28.6497 7C28.6097 6.94667 28.5897 6.88667 28.5897 6.82C28.5897 6.52667 28.4364 6.28 28.1297 6.08C27.8364 5.88 27.443 5.78 26.9497 5.78C26.5097 5.78 26.1497 5.86 25.8697 6.02C25.5897 6.18 25.4497 6.4 25.4497 6.68C25.4497 6.94667 25.583 7.14667 25.8497 7.28C26.1297 7.41333 26.5897 7.55333 27.2297 7.7C27.3764 7.74 27.543 7.78667 27.7297 7.84C27.9164 7.88 28.1164 7.93333 28.3297 8C29.2764 8.28 30.023 8.64 30.5697 9.08C31.1164 9.52 31.3897 10.16 31.3897 11C31.3897 11.9867 30.9964 12.76 30.2097 13.32C29.4364 13.8667 28.3897 14.14 27.0697 14.14ZM39.0088 3.96C39.0088 3.89333 39.0288 3.84 39.0688 3.8C39.1221 3.74667 39.1821 3.72 39.2488 3.72H41.5888C41.6554 3.72 41.7088 3.74667 41.7488 3.8C41.8021 3.84 41.8288 3.89333 41.8288 3.96V13.76C41.8288 13.8267 41.8021 13.8867 41.7488 13.94C41.7088 13.98 41.6554 14 41.5888 14H39.2488C39.1821 14 39.1221 13.98 39.0688 13.94C39.0288 13.8867 39.0088 13.8267 39.0088 13.76V13.08C39.0088 13.04 38.9954 13.02 38.9688 13.02C38.9421 13.0067 38.9154 13.02 38.8888 13.06C38.3554 13.78 37.5288 14.14 36.4088 14.14C35.3954 14.14 34.5621 13.8333 33.9088 13.22C33.2554 12.6067 32.9288 11.7467 32.9288 10.64V3.96C32.9288 3.89333 32.9488 3.84 32.9888 3.8C33.0421 3.74667 33.1021 3.72 33.1688 3.72H35.4888C35.5554 3.72 35.6088 3.74667 35.6488 3.8C35.7021 3.84 35.7288 3.89333 35.7288 3.96V9.94C35.7288 10.4733 35.8688 10.9067 36.1488 11.24C36.4421 11.5733 36.8421 11.74 37.3488 11.74C37.8021 11.74 38.1754 11.6067 38.4688 11.34C38.7621 11.06 38.9421 10.7 39.0088 10.26V3.96ZM55.3072 3.56C56.3472 3.56 57.1605 3.87333 57.7472 4.5C58.3339 5.12667 58.6272 6.00667 58.6272 7.14V13.76C58.6272 13.8267 58.6005 13.8867 58.5472 13.94C58.5072 13.98 58.4539 14 58.3872 14H56.0472C55.9805 14 55.9205 13.98 55.8672 13.94C55.8272 13.8867 55.8072 13.8267 55.8072 13.76V7.76C55.8072 7.21333 55.6672 6.78 55.3872 6.46C55.1072 6.14 54.7339 5.98 54.2672 5.98C53.8005 5.98 53.4205 6.14 53.1272 6.46C52.8339 6.78 52.6872 7.20667 52.6872 7.74V13.76C52.6872 13.8267 52.6605 13.8867 52.6072 13.94C52.5672 13.98 52.5139 14 52.4472 14H50.1272C50.0605 14 50.0005 13.98 49.9472 13.94C49.9072 13.8867 49.8872 13.8267 49.8872 13.76V7.76C49.8872 7.22667 49.7405 6.8 49.4472 6.48C49.1539 6.14667 48.7739 5.98 48.3072 5.98C47.8805 5.98 47.5205 6.10667 47.2272 6.36C46.9472 6.61333 46.7805 6.96667 46.7272 7.42V13.76C46.7272 13.8267 46.7005 13.8867 46.6472 13.94C46.6072 13.98 46.5539 14 46.4872 14H44.1472C44.0805 14 44.0205 13.98 43.9672 13.94C43.9272 13.8867 43.9072 13.8267 43.9072 13.76V3.96C43.9072 3.89333 43.9272 3.84 43.9672 3.8C44.0205 3.74667 44.0805 3.72 44.1472 3.72H46.4872C46.5539 3.72 46.6072 3.74667 46.6472 3.8C46.7005 3.84 46.7272 3.89333 46.7272 3.96V4.74C46.7272 4.78 46.7405 4.80667 46.7672 4.82C46.7939 4.83333 46.8205 4.82 46.8472 4.78C47.3939 3.96667 48.2405 3.56 49.3872 3.56C50.0539 3.56 50.6339 3.7 51.1272 3.98C51.6339 4.26 52.0205 4.66 52.2872 5.18C52.3272 5.26 52.3739 5.26 52.4272 5.18C52.7205 4.63333 53.1139 4.22667 53.6072 3.96C54.1139 3.69333 54.6805 3.56 55.3072 3.56ZM69.6478 7.8C69.7278 8.30667 69.7545 8.87333 69.7278 9.5C69.7145 9.66 69.6278 9.74 69.4678 9.74H63.2878C63.2078 9.74 63.1811 9.77333 63.2078 9.84C63.2478 10.1067 63.3211 10.3733 63.4278 10.64C63.7745 11.3867 64.4811 11.76 65.5478 11.76C66.4011 11.7467 67.0745 11.4 67.5678 10.72C67.6211 10.64 67.6811 10.6 67.7478 10.6C67.7878 10.6 67.8345 10.6267 67.8878 10.68L69.3278 12.1C69.3945 12.1667 69.4278 12.2267 69.4278 12.28C69.4278 12.3067 69.4011 12.36 69.3478 12.44C68.9078 12.9867 68.3411 13.4133 67.6478 13.72C66.9545 14.0133 66.1945 14.16 65.3678 14.16C64.2211 14.16 63.2478 13.9 62.4478 13.38C61.6611 12.86 61.0945 12.1333 60.7478 11.2C60.4678 10.5333 60.3278 9.66 60.3278 8.58C60.3278 7.84667 60.4278 7.2 60.6278 6.64C60.9345 5.69333 61.4678 4.94 62.2278 4.38C63.0011 3.82 63.9145 3.54 64.9678 3.54C66.3011 3.54 67.3678 3.92667 68.1678 4.7C68.9811 5.47333 69.4745 6.50667 69.6478 7.8ZM64.9878 5.98C64.1478 5.98 63.5945 6.37333 63.3278 7.16C63.2745 7.33333 63.2278 7.54667 63.1878 7.8C63.1878 7.86667 63.2211 7.9 63.2878 7.9H66.7478C66.8278 7.9 66.8545 7.86667 66.8278 7.8C66.7611 7.41333 66.7278 7.22667 66.7278 7.24C66.6078 6.84 66.3945 6.53333 66.0878 6.32C65.7945 6.09333 65.4278 5.98 64.9878 5.98ZM81.3697 5.74C81.3697 5.80667 81.343 5.86667 81.2897 5.92C81.2497 5.96 81.1964 5.98 81.1297 5.98H79.2097C79.143 5.98 79.1097 6.01333 79.1097 6.08V10.32C79.1097 10.76 79.1964 11.0867 79.3697 11.3C79.5564 11.5133 79.8497 11.62 80.2497 11.62H80.9097C80.9764 11.62 81.0297 11.6467 81.0697 11.7C81.123 11.74 81.1497 11.7933 81.1497 11.86V13.76C81.1497 13.9067 81.0697 13.9933 80.9097 14.02C80.3497 14.0467 79.9497 14.06 79.7097 14.06C78.603 14.06 77.7764 13.88 77.2297 13.52C76.683 13.1467 76.403 12.4533 76.3897 11.44V6.08C76.3897 6.01333 76.3564 5.98 76.2897 5.98H75.1497C75.083 5.98 75.023 5.96 74.9697 5.92C74.9297 5.86667 74.9097 5.80667 74.9097 5.74V3.96C74.9097 3.89333 74.9297 3.84 74.9697 3.8C75.023 3.74667 75.083 3.72 75.1497 3.72H76.2897C76.3564 3.72 76.3897 3.68667 76.3897 3.62V1.24C76.3897 1.17333 76.4097 1.12 76.4497 1.08C76.503 1.02667 76.563 0.999999 76.6297 0.999999H78.8697C78.9364 0.999999 78.9897 1.02667 79.0297 1.08C79.083 1.12 79.1097 1.17333 79.1097 1.24V3.62C79.1097 3.68667 79.143 3.72 79.2097 3.72H81.1297C81.1964 3.72 81.2497 3.74667 81.2897 3.8C81.343 3.84 81.3697 3.89333 81.3697 3.96V5.74ZM92.0306 7.8C92.1106 8.30667 92.1373 8.87333 92.1106 9.5C92.0973 9.66 92.0106 9.74 91.8506 9.74H85.6706C85.5906 9.74 85.564 9.77333 85.5906 9.84C85.6306 10.1067 85.704 10.3733 85.8106 10.64C86.1573 11.3867 86.864 11.76 87.9306 11.76C88.784 11.7467 89.4573 11.4 89.9506 10.72C90.004 10.64 90.064 10.6 90.1306 10.6C90.1706 10.6 90.2173 10.6267 90.2706 10.68L91.7106 12.1C91.7773 12.1667 91.8106 12.2267 91.8106 12.28C91.8106 12.3067 91.784 12.36 91.7306 12.44C91.2906 12.9867 90.724 13.4133 90.0306 13.72C89.3373 14.0133 88.5773 14.16 87.7506 14.16C86.604 14.16 85.6306 13.9 84.8306 13.38C84.044 12.86 83.4773 12.1333 83.1306 11.2C82.8506 10.5333 82.7106 9.66 82.7106 8.58C82.7106 7.84667 82.8106 7.2 83.0106 6.64C83.3173 5.69333 83.8506 4.94 84.6106 4.38C85.384 3.82 86.2973 3.54 87.3506 3.54C88.684 3.54 89.7506 3.92667 90.5506 4.7C91.364 5.47333 91.8573 6.50667 92.0306 7.8ZM87.3706 5.98C86.5306 5.98 85.9773 6.37333 85.7106 7.16C85.6573 7.33333 85.6106 7.54667 85.5706 7.8C85.5706 7.86667 85.604 7.9 85.6706 7.9H89.1306C89.2106 7.9 89.2373 7.86667 89.2106 7.8C89.144 7.41333 89.1106 7.22667 89.1106 7.24C88.9906 6.84 88.7773 6.53333 88.4706 6.32C88.1773 6.09333 87.8106 5.98 87.3706 5.98ZM105.249 3.56C106.289 3.56 107.102 3.87333 107.689 4.5C108.275 5.12667 108.569 6.00667 108.569 7.14V13.76C108.569 13.8267 108.542 13.8867 108.489 13.94C108.449 13.98 108.395 14 108.329 14H105.989C105.922 14 105.862 13.98 105.809 13.94C105.769 13.8867 105.749 13.8267 105.749 13.76V7.76C105.749 7.21333 105.609 6.78 105.329 6.46C105.049 6.14 104.675 5.98 104.209 5.98C103.742 5.98 103.362 6.14 103.069 6.46C102.775 6.78 102.629 7.20667 102.629 7.74V13.76C102.629 13.8267 102.602 13.8867 102.549 13.94C102.509 13.98 102.455 14 102.389 14H100.069C100.002 14 99.9419 13.98 99.8886 13.94C99.8486 13.8867 99.8286 13.8267 99.8286 13.76V7.76C99.8286 7.22667 99.6819 6.8 99.3886 6.48C99.0953 6.14667 98.7153 5.98 98.2486 5.98C97.8219 5.98 97.4619 6.10667 97.1686 6.36C96.8886 6.61333 96.7219 6.96667 96.6686 7.42V13.76C96.6686 13.8267 96.6419 13.8867 96.5886 13.94C96.5486 13.98 96.4953 14 96.4286 14H94.0886C94.0219 14 93.9619 13.98 93.9086 13.94C93.8686 13.8867 93.8486 13.8267 93.8486 13.76V3.96C93.8486 3.89333 93.8686 3.84 93.9086 3.8C93.9619 3.74667 94.0219 3.72 94.0886 3.72H96.4286C96.4953 3.72 96.5486 3.74667 96.5886 3.8C96.6419 3.84 96.6686 3.89333 96.6686 3.96V4.74C96.6686 4.78 96.6819 4.80667 96.7086 4.82C96.7353 4.83333 96.7619 4.82 96.7886 4.78C97.3353 3.96667 98.1819 3.56 99.3286 3.56C99.9953 3.56 100.575 3.7 101.069 3.98C101.575 4.26 101.962 4.66 102.229 5.18C102.269 5.26 102.315 5.26 102.369 5.18C102.662 4.63333 103.055 4.22667 103.549 3.96C104.055 3.69333 104.622 3.56 105.249 3.56ZM119.728 6.48C119.968 7.16 120.088 7.96 120.088 8.88C120.088 9.8 119.961 10.6333 119.708 11.38C119.401 12.2333 118.914 12.9133 118.248 13.42C117.594 13.9133 116.781 14.16 115.808 14.16C114.848 14.16 114.101 13.8267 113.568 13.16C113.541 13.12 113.514 13.1067 113.488 13.12C113.461 13.1333 113.448 13.16 113.448 13.2V17.48C113.448 17.5467 113.421 17.6 113.368 17.64C113.328 17.6933 113.274 17.72 113.208 17.72H110.868C110.801 17.72 110.741 17.6933 110.688 17.64C110.648 17.6 110.628 17.5467 110.628 17.48V3.96C110.628 3.89333 110.648 3.84 110.688 3.8C110.741 3.74667 110.801 3.72 110.868 3.72H113.208C113.274 3.72 113.328 3.74667 113.368 3.8C113.421 3.84 113.448 3.89333 113.448 3.96V4.62C113.448 4.66 113.461 4.68667 113.488 4.7C113.514 4.7 113.541 4.68667 113.568 4.66C114.128 3.92667 114.901 3.56 115.888 3.56C116.808 3.56 117.601 3.82 118.268 4.34C118.948 4.84667 119.434 5.56 119.728 6.48ZM116.668 10.96C117.001 10.44 117.168 9.73333 117.168 8.84C117.168 8 117.028 7.33333 116.748 6.84C116.441 6.26667 115.948 5.98 115.268 5.98C114.654 5.98 114.194 6.26667 113.888 6.84C113.608 7.32 113.468 7.99333 113.468 8.86C113.468 9.75333 113.614 10.4467 113.908 10.94C114.214 11.4733 114.668 11.74 115.268 11.74C115.868 11.74 116.334 11.48 116.668 10.96ZM122.155 14C122.088 14 122.028 13.98 121.975 13.94C121.935 13.8867 121.915 13.8267 121.915 13.76V0.24C121.915 0.173333 121.935 0.119999 121.975 0.0799992C122.028 0.0266658 122.088 -9.53674e-07 122.155 -9.53674e-07H124.495C124.562 -9.53674e-07 124.615 0.0266658 124.655 0.0799992C124.708 0.119999 124.735 0.173333 124.735 0.24V13.76C124.735 13.8267 124.708 13.8867 124.655 13.94C124.615 13.98 124.562 14 124.495 14H122.155ZM130.898 3.56C131.764 3.56 132.538 3.71333 133.218 4.02C133.898 4.31333 134.424 4.72 134.798 5.24C135.184 5.76 135.378 6.34 135.378 6.98V13.76C135.378 13.8267 135.351 13.8867 135.298 13.94C135.258 13.98 135.204 14 135.138 14H132.798C132.731 14 132.671 13.98 132.618 13.94C132.578 13.8867 132.558 13.8267 132.558 13.76V13.1C132.558 13.06 132.544 13.0333 132.518 13.02C132.491 13.0067 132.464 13.02 132.438 13.06C131.878 13.7933 130.978 14.16 129.738 14.16C128.698 14.16 127.858 13.9067 127.218 13.4C126.578 12.8933 126.258 12.1467 126.258 11.16C126.258 10.1333 126.618 9.34 127.338 8.78C128.058 8.20667 129.084 7.92 130.418 7.92H132.458C132.524 7.92 132.558 7.88667 132.558 7.82V7.38C132.558 6.94 132.424 6.6 132.158 6.36C131.891 6.10667 131.491 5.98 130.958 5.98C130.544 5.98 130.198 6.05333 129.918 6.2C129.651 6.34667 129.478 6.55333 129.398 6.82C129.358 6.96667 129.271 7.03333 129.138 7.02L126.718 6.7C126.558 6.67333 126.484 6.61333 126.498 6.52C126.551 5.96 126.771 5.45333 127.158 5C127.558 4.54667 128.078 4.19333 128.718 3.94C129.371 3.68667 130.098 3.56 130.898 3.56ZM130.498 12.06C131.071 12.06 131.558 11.9067 131.958 11.6C132.358 11.2933 132.558 10.9 132.558 10.42V9.7C132.558 9.63333 132.524 9.6 132.458 9.6H131.018C130.418 9.6 129.944 9.71333 129.598 9.94C129.264 10.1667 129.098 10.4867 129.098 10.9C129.098 11.26 129.224 11.5467 129.478 11.76C129.731 11.96 130.071 12.06 130.498 12.06ZM143.049 5.74C143.049 5.80667 143.023 5.86667 142.969 5.92C142.929 5.96 142.876 5.98 142.809 5.98H140.889C140.823 5.98 140.789 6.01333 140.789 6.08V10.32C140.789 10.76 140.876 11.0867 141.049 11.3C141.236 11.5133 141.529 11.62 141.929 11.62H142.589C142.656 11.62 142.709 11.6467 142.749 11.7C142.803 11.74 142.829 11.7933 142.829 11.86V13.76C142.829 13.9067 142.749 13.9933 142.589 14.02C142.029 14.0467 141.629 14.06 141.389 14.06C140.283 14.06 139.456 13.88 138.909 13.52C138.363 13.1467 138.083 12.4533 138.069 11.44V6.08C138.069 6.01333 138.036 5.98 137.969 5.98H136.829C136.763 5.98 136.703 5.96 136.649 5.92C136.609 5.86667 136.589 5.80667 136.589 5.74V3.96C136.589 3.89333 136.609 3.84 136.649 3.8C136.703 3.74667 136.763 3.72 136.829 3.72H137.969C138.036 3.72 138.069 3.68667 138.069 3.62V1.24C138.069 1.17333 138.089 1.12 138.129 1.08C138.183 1.02667 138.243 0.999999 138.309 0.999999H140.549C140.616 0.999999 140.669 1.02667 140.709 1.08C140.763 1.12 140.789 1.17333 140.789 1.24V3.62C140.789 3.68667 140.823 3.72 140.889 3.72H142.809C142.876 3.72 142.929 3.74667 142.969 3.8C143.023 3.84 143.049 3.89333 143.049 3.96V5.74ZM153.71 7.8C153.79 8.30667 153.817 8.87333 153.79 9.5C153.777 9.66 153.69 9.74 153.53 9.74H147.35C147.27 9.74 147.244 9.77333 147.27 9.84C147.31 10.1067 147.384 10.3733 147.49 10.64C147.837 11.3867 148.544 11.76 149.61 11.76C150.464 11.7467 151.137 11.4 151.63 10.72C151.684 10.64 151.744 10.6 151.81 10.6C151.85 10.6 151.897 10.6267 151.95 10.68L153.39 12.1C153.457 12.1667 153.49 12.2267 153.49 12.28C153.49 12.3067 153.464 12.36 153.41 12.44C152.97 12.9867 152.404 13.4133 151.71 13.72C151.017 14.0133 150.257 14.16 149.43 14.16C148.284 14.16 147.31 13.9 146.51 13.38C145.724 12.86 145.157 12.1333 144.81 11.2C144.53 10.5333 144.39 9.66 144.39 8.58C144.39 7.84667 144.49 7.2 144.69 6.64C144.997 5.69333 145.53 4.94 146.29 4.38C147.064 3.82 147.977 3.54 149.03 3.54C150.364 3.54 151.43 3.92667 152.23 4.7C153.044 5.47333 153.537 6.50667 153.71 7.8ZM149.05 5.98C148.21 5.98 147.657 6.37333 147.39 7.16C147.337 7.33333 147.29 7.54667 147.25 7.8C147.25 7.86667 147.284 7.9 147.35 7.9H150.81C150.89 7.9 150.917 7.86667 150.89 7.8C150.824 7.41333 150.79 7.22667 150.79 7.24C150.67 6.84 150.457 6.53333 150.15 6.32C149.857 6.09333 149.49 5.98 149.05 5.98ZM159.492 14.14C158.598 14.14 157.818 14.0133 157.152 13.76C156.485 13.5067 155.965 13.1533 155.592 12.7C155.232 12.2467 155.052 11.7333 155.052 11.16V10.96C155.052 10.8933 155.072 10.84 155.112 10.8C155.165 10.7467 155.225 10.72 155.292 10.72H157.512C157.578 10.72 157.632 10.7467 157.672 10.8C157.725 10.84 157.752 10.8933 157.752 10.96V10.98C157.752 11.2733 157.912 11.5267 158.232 11.74C158.565 11.94 158.978 12.04 159.472 12.04C159.925 12.04 160.292 11.9533 160.572 11.78C160.852 11.5933 160.992 11.3667 160.992 11.1C160.992 10.86 160.872 10.68 160.632 10.56C160.392 10.44 159.998 10.3133 159.452 10.18C158.825 10.02 158.332 9.86667 157.972 9.72C157.118 9.42667 156.438 9.06667 155.932 8.64C155.425 8.21333 155.172 7.6 155.172 6.8C155.172 5.81333 155.552 5.03333 156.312 4.46C157.085 3.87333 158.105 3.58 159.372 3.58C160.225 3.58 160.972 3.72 161.612 4C162.252 4.26667 162.745 4.64667 163.092 5.14C163.452 5.63333 163.632 6.19333 163.632 6.82C163.632 6.88667 163.605 6.94667 163.552 7C163.512 7.04 163.458 7.06 163.392 7.06H161.252C161.185 7.06 161.125 7.04 161.072 7C161.032 6.94667 161.012 6.88667 161.012 6.82C161.012 6.52667 160.858 6.28 160.552 6.08C160.258 5.88 159.865 5.78 159.372 5.78C158.932 5.78 158.572 5.86 158.292 6.02C158.012 6.18 157.872 6.4 157.872 6.68C157.872 6.94667 158.005 7.14667 158.272 7.28C158.552 7.41333 159.012 7.55333 159.652 7.7C159.798 7.74 159.965 7.78667 160.152 7.84C160.338 7.88 160.538 7.93333 160.752 8C161.698 8.28 162.445 8.64 162.992 9.08C163.538 9.52 163.812 10.16 163.812 11C163.812 11.9867 163.418 12.76 162.632 13.32C161.858 13.8667 160.812 14.14 159.492 14.14ZM167.971 7.36C167.517 7.36 167.137 7.21333 166.831 6.92C166.537 6.61333 166.391 6.23333 166.391 5.78C166.391 5.31333 166.537 4.93333 166.831 4.64C167.124 4.34667 167.504 4.2 167.971 4.2C168.437 4.2 168.817 4.34667 169.111 4.64C169.404 4.93333 169.551 5.31333 169.551 5.78C169.551 6.23333 169.397 6.61333 169.091 6.92C168.797 7.21333 168.424 7.36 167.971 7.36ZM167.971 13.9C167.517 13.9 167.137 13.7533 166.831 13.46C166.537 13.1533 166.391 12.7733 166.391 12.32C166.391 11.8533 166.537 11.4733 166.831 11.18C167.124 10.8867 167.504 10.74 167.971 10.74C168.437 10.74 168.817 10.8867 169.111 11.18C169.404 11.4733 169.551 11.8533 169.551 12.32C169.551 12.7733 169.397 13.1533 169.091 13.46C168.797 13.7533 168.424 13.9 167.971 13.9Z" fill="#AFAFAF"/>
</svg>
