<svg width="102" height="20" viewBox="0 0 102 20" fill="none" xmlns="http://www.w3.org/2000/svg">
<path d="M0.256215 15V0.454545H5.44087C6.56777 0.454545 7.5029 0.648674 8.24627 1.03693C8.99438 1.42519 9.55309 1.96259 9.92241 2.64915C10.2917 3.33097 10.4764 4.11932 10.4764 5.0142C10.4764 5.90436 10.2894 6.68797 9.91531 7.36506C9.54599 8.03741 8.98728 8.56061 8.23917 8.93466C7.4958 9.30871 6.56067 9.49574 5.43377 9.49574H1.50621V7.60653H5.23491C5.94514 7.60653 6.52279 7.50473 6.96786 7.30114C7.41767 7.09754 7.74674 6.80161 7.95508 6.41335C8.16341 6.02509 8.26758 5.55871 8.26758 5.0142C8.26758 4.46496 8.16104 3.98911 7.94798 3.58665C7.73964 3.18419 7.41057 2.87642 6.96076 2.66335C6.51568 2.44555 5.93093 2.33665 5.2065 2.33665H2.45082V15H0.256215ZM7.43661 8.4375L11.0304 15H8.53036L5.00763 8.4375H7.43661ZM17.8348 15.2202C16.8121 15.2202 15.9196 14.9858 15.1573 14.517C14.395 14.0483 13.8031 13.3925 13.3817 12.5497C12.9603 11.7069 12.7496 10.7221 12.7496 9.59517C12.7496 8.46354 12.9603 7.47396 13.3817 6.62642C13.8031 5.77888 14.395 5.12074 15.1573 4.65199C15.9196 4.18324 16.8121 3.94886 17.8348 3.94886C18.8576 3.94886 19.7501 4.18324 20.5124 4.65199C21.2747 5.12074 21.8666 5.77888 22.288 6.62642C22.7094 7.47396 22.9201 8.46354 22.9201 9.59517C22.9201 10.7221 22.7094 11.7069 22.288 12.5497C21.8666 13.3925 21.2747 14.0483 20.5124 14.517C19.7501 14.9858 18.8576 15.2202 17.8348 15.2202ZM17.8419 13.4375C18.5048 13.4375 19.0541 13.2623 19.4897 12.9119C19.9253 12.5616 20.2472 12.0952 20.4556 11.5128C20.6686 10.9304 20.7752 10.2888 20.7752 9.58807C20.7752 8.89205 20.6686 8.25284 20.4556 7.67045C20.2472 7.08333 19.9253 6.61222 19.4897 6.2571C19.0541 5.90199 18.5048 5.72443 17.8419 5.72443C17.1743 5.72443 16.6203 5.90199 16.18 6.2571C15.7444 6.61222 15.4201 7.08333 15.207 7.67045C14.9987 8.25284 14.8945 8.89205 14.8945 9.58807C14.8945 10.2888 14.9987 10.9304 15.207 11.5128C15.4201 12.0952 15.7444 12.5616 16.18 12.9119C16.6203 13.2623 17.1743 13.4375 17.8419 13.4375ZM28.8652 15.2415C28.1739 15.2415 27.5489 15.1136 26.9902 14.858C26.4315 14.5975 25.9887 14.2211 25.662 13.7287C25.3401 13.2363 25.1791 12.6326 25.1791 11.9176C25.1791 11.3021 25.2975 10.7955 25.5342 10.3977C25.7709 10 26.0905 9.68513 26.493 9.45312C26.8955 9.22112 27.3453 9.04593 27.8424 8.92756C28.3396 8.80919 28.8462 8.71922 29.3623 8.65767C30.0157 8.58191 30.546 8.52036 30.9532 8.47301C31.3604 8.42093 31.6564 8.33807 31.841 8.22443C32.0257 8.1108 32.118 7.92614 32.118 7.67045V7.62074C32.118 7.00047 31.9428 6.51989 31.5924 6.17898C31.2468 5.83807 30.7307 5.66761 30.0441 5.66761C29.3292 5.66761 28.7657 5.82623 28.3538 6.14347C27.9466 6.45597 27.6649 6.80398 27.5086 7.1875L25.5129 6.73295C25.7496 6.07008 26.0953 5.53504 26.5498 5.12784C27.0091 4.71591 27.537 4.41761 28.1336 4.23295C28.7302 4.04356 29.3576 3.94886 30.0157 3.94886C30.4513 3.94886 30.913 4.00095 31.4007 4.10511C31.8931 4.20455 32.3524 4.3892 32.7785 4.65909C33.2094 4.92898 33.5621 5.31487 33.8368 5.81676C34.1114 6.31392 34.2487 6.96023 34.2487 7.75568V15H32.1748V13.5085H32.0896C31.9523 13.7831 31.7463 14.053 31.4717 14.3182C31.1971 14.5833 30.8443 14.8035 30.4135 14.9787C29.9826 15.1539 29.4665 15.2415 28.8652 15.2415ZM29.3268 13.5369C29.9139 13.5369 30.4158 13.4209 30.8325 13.1889C31.2539 12.9569 31.5735 12.6539 31.7913 12.2798C32.0138 11.901 32.1251 11.4962 32.1251 11.0653V9.65909C32.0493 9.73485 31.9026 9.80587 31.6848 9.87216C31.4717 9.93371 31.2279 9.98816 30.9532 10.0355C30.6786 10.0781 30.4111 10.1184 30.1507 10.1562C29.8903 10.1894 29.6725 10.2178 29.4973 10.2415C29.0853 10.2936 28.7089 10.3812 28.368 10.5043C28.0318 10.6274 27.7619 10.8049 27.5583 11.0369C27.3595 11.2642 27.26 11.5672 27.26 11.946C27.26 12.4716 27.4542 12.8693 27.8424 13.1392C28.2307 13.4044 28.7255 13.5369 29.3268 13.5369ZM41.561 15.2131C40.6803 15.2131 39.8943 14.9882 39.203 14.5384C38.5165 14.0838 37.9767 13.4375 37.5837 12.5994C37.1954 11.7566 37.0013 10.7457 37.0013 9.56676C37.0013 8.38778 37.1978 7.37926 37.5908 6.54119C37.9885 5.70312 38.533 5.06155 39.2243 4.61648C39.9156 4.1714 40.6992 3.94886 41.5752 3.94886C42.2523 3.94886 42.7968 4.0625 43.2087 4.28977C43.6254 4.51231 43.9473 4.77273 44.1746 5.07102C44.4066 5.36932 44.5865 5.6321 44.7144 5.85938H44.8422V0.454545H46.9658V15H44.8919V13.3026H44.7144C44.5865 13.5346 44.4019 13.7997 44.1604 14.098C43.9237 14.3963 43.597 14.6567 43.1803 14.8793C42.7636 15.1018 42.2239 15.2131 41.561 15.2131ZM42.0297 13.402C42.6405 13.402 43.1566 13.241 43.578 12.919C44.0042 12.5923 44.3261 12.1402 44.5439 11.5625C44.7665 10.9848 44.8777 10.3125 44.8777 9.54545C44.8777 8.78788 44.7688 8.125 44.551 7.55682C44.3332 6.98864 44.0136 6.54593 43.5922 6.22869C43.1708 5.91146 42.65 5.75284 42.0297 5.75284C41.3905 5.75284 40.8578 5.91856 40.4317 6.25C40.0056 6.58144 39.6836 7.03362 39.4658 7.60653C39.2527 8.17945 39.1462 8.82576 39.1462 9.54545C39.1462 10.2746 39.2551 10.9304 39.4729 11.5128C39.6907 12.0952 40.0127 12.5568 40.4388 12.8977C40.8697 13.2339 41.4 13.402 42.0297 13.402ZM50.3967 15V4.09091H52.435V5.86648H52.57C52.7973 5.26515 53.1689 4.7964 53.685 4.46023C54.2011 4.11932 54.819 3.94886 55.5387 3.94886C56.2679 3.94886 56.8787 4.11932 57.3711 4.46023C57.8683 4.80114 58.2352 5.26989 58.472 5.86648H58.5856C58.846 5.28409 59.2603 4.82008 59.8285 4.47443C60.3967 4.12405 61.0738 3.94886 61.8598 3.94886C62.8493 3.94886 63.6566 4.259 64.2816 4.87926C64.9114 5.49953 65.2262 6.43466 65.2262 7.68466V15H63.1027V7.88352C63.1027 7.14489 62.9014 6.60985 62.499 6.27841C62.0965 5.94697 61.6159 5.78125 61.0572 5.78125C60.3659 5.78125 59.8285 5.99432 59.445 6.42045C59.0615 6.84186 58.8697 7.384 58.8697 8.04688V15H56.7532V7.74858C56.7532 7.15672 56.5686 6.68087 56.1993 6.32102C55.8299 5.96117 55.3493 5.78125 54.7575 5.78125C54.355 5.78125 53.9833 5.88778 53.6424 6.10085C53.3063 6.30919 53.034 6.60038 52.8257 6.97443C52.6221 7.34848 52.5203 7.78172 52.5203 8.27415V15H50.3967ZM71.6472 15.2415C70.9559 15.2415 70.3309 15.1136 69.7722 14.858C69.2135 14.5975 68.7708 14.2211 68.4441 13.7287C68.1221 13.2363 67.9611 12.6326 67.9611 11.9176C67.9611 11.3021 68.0795 10.7955 68.3162 10.3977C68.553 10 68.8726 9.68513 69.275 9.45312C69.6775 9.22112 70.1273 9.04593 70.6245 8.92756C71.1216 8.80919 71.6283 8.71922 72.1444 8.65767C72.7978 8.58191 73.3281 8.52036 73.7353 8.47301C74.1425 8.42093 74.4384 8.33807 74.623 8.22443C74.8077 8.1108 74.9 7.92614 74.9 7.67045V7.62074C74.9 7.00047 74.7248 6.51989 74.3745 6.17898C74.0288 5.83807 73.5127 5.66761 72.8262 5.66761C72.1112 5.66761 71.5478 5.82623 71.1358 6.14347C70.7286 6.45597 70.4469 6.80398 70.2907 7.1875L68.2949 6.73295C68.5317 6.07008 68.8773 5.53504 69.3319 5.12784C69.7911 4.71591 70.3191 4.41761 70.9157 4.23295C71.5123 4.04356 72.1396 3.94886 72.7978 3.94886C73.2334 3.94886 73.695 4.00095 74.1827 4.10511C74.6751 4.20455 75.1344 4.3892 75.5605 4.65909C75.9914 4.92898 76.3442 5.31487 76.6188 5.81676C76.8934 6.31392 77.0307 6.96023 77.0307 7.75568V15H74.9569V13.5085H74.8716C74.7343 13.7831 74.5283 14.053 74.2537 14.3182C73.9791 14.5833 73.6264 14.8035 73.1955 14.9787C72.7646 15.1539 72.2485 15.2415 71.6472 15.2415ZM72.1088 13.5369C72.696 13.5369 73.1979 13.4209 73.6145 13.1889C74.0359 12.9569 74.3555 12.6539 74.5733 12.2798C74.7959 11.901 74.9071 11.4962 74.9071 11.0653V9.65909C74.8314 9.73485 74.6846 9.80587 74.4668 9.87216C74.2537 9.93371 74.0099 9.98816 73.7353 10.0355C73.4606 10.0781 73.1931 10.1184 72.9327 10.1562C72.6723 10.1894 72.4545 10.2178 72.2793 10.2415C71.8674 10.2936 71.4909 10.3812 71.15 10.5043C70.8139 10.6274 70.544 10.8049 70.3404 11.0369C70.1415 11.2642 70.0421 11.5672 70.0421 11.946C70.0421 12.4716 70.2362 12.8693 70.6245 13.1392C71.0127 13.4044 71.5075 13.5369 72.1088 13.5369ZM80.2592 19.0909V4.09091H82.3331V5.85938H82.5106C82.6337 5.6321 82.8113 5.36932 83.0433 5.07102C83.2753 4.77273 83.5973 4.51231 84.0092 4.28977C84.4211 4.0625 84.9656 3.94886 85.6427 3.94886C86.5234 3.94886 87.3094 4.1714 88.0007 4.61648C88.692 5.06155 89.2341 5.70312 89.6271 6.54119C90.0248 7.37926 90.2237 8.38778 90.2237 9.56676C90.2237 10.7457 90.0272 11.7566 89.6342 12.5994C89.2412 13.4375 88.7014 14.0838 88.0149 14.5384C87.3283 14.9882 86.5447 15.2131 85.664 15.2131C85.0011 15.2131 84.459 15.1018 84.0376 14.8793C83.6209 14.6567 83.2942 14.3963 83.0575 14.098C82.8208 13.7997 82.6385 13.5346 82.5106 13.3026H82.3828V19.0909H80.2592ZM82.3402 9.54545C82.3402 10.3125 82.4514 10.9848 82.674 11.5625C82.8965 12.1402 83.2185 12.5923 83.6399 12.919C84.0613 13.241 84.5774 13.402 85.1882 13.402C85.8226 13.402 86.3529 13.2339 86.7791 12.8977C87.2052 12.5568 87.5272 12.0952 87.745 11.5128C87.9675 10.9304 88.0788 10.2746 88.0788 9.54545C88.0788 8.82576 87.9699 8.17945 87.7521 7.60653C87.539 7.03362 87.2171 6.58144 86.7862 6.25C86.3601 5.91856 85.8274 5.75284 85.1882 5.75284C84.5726 5.75284 84.0518 5.91146 83.6257 6.22869C83.2043 6.54593 82.8847 6.98864 82.6669 7.55682C82.4491 8.125 82.3402 8.78788 82.3402 9.54545ZM101.178 6.75426L99.253 7.09517C99.1725 6.84896 99.0446 6.61458 98.8694 6.39205C98.699 6.16951 98.467 5.98722 98.1734 5.84517C97.8798 5.70312 97.5129 5.6321 97.0726 5.6321C96.4712 5.6321 95.9693 5.76705 95.5669 6.03693C95.1644 6.30208 94.9632 6.64536 94.9632 7.06676C94.9632 7.43134 95.0981 7.72491 95.368 7.94744C95.6379 8.16998 96.0735 8.35227 96.6748 8.49432L98.4078 8.89205C99.4116 9.12405 100.16 9.48153 100.652 9.96449C101.145 10.4474 101.391 11.0748 101.391 11.8466C101.391 12.5 101.201 13.0824 100.823 13.5938C100.449 14.1004 99.9253 14.4981 99.253 14.7869C98.5853 15.0758 97.8112 15.2202 96.9305 15.2202C95.7089 15.2202 94.7122 14.9598 93.9405 14.4389C93.1687 13.9134 92.6952 13.1676 92.52 12.2017L94.5726 11.8892C94.7004 12.4242 94.9632 12.8291 95.3609 13.1037C95.7586 13.3736 96.2771 13.5085 96.9163 13.5085C97.6123 13.5085 98.1687 13.3641 98.5853 13.0753C99.002 12.7817 99.2103 12.4242 99.2103 12.0028C99.2103 11.6619 99.0825 11.3755 98.8268 11.1435C98.5759 10.9115 98.19 10.7363 97.6691 10.6179L95.8226 10.2131C94.8046 9.98106 94.0517 9.61174 93.564 9.10511C93.0811 8.59848 92.8396 7.95691 92.8396 7.1804C92.8396 6.53646 93.0195 5.97301 93.3794 5.49006C93.7392 5.0071 94.2364 4.63068 94.8708 4.3608C95.5053 4.08617 96.2321 3.94886 97.0512 3.94886C98.2302 3.94886 99.1583 4.20455 99.8353 4.71591C100.512 5.22254 100.96 5.90199 101.178 6.75426Z" fill="#F7F8F8"/>
</svg>
