<svg width="64" height="12" viewBox="0 0 64 12" fill="none" xmlns="http://www.w3.org/2000/svg">
<path d="M6.72905 3.69189C6.68265 3.25771 6.4871 2.91964 6.1424 2.67769C5.80102 2.43574 5.35689 2.31476 4.81001 2.31476C4.42554 2.31476 4.09576 2.37277 3.82067 2.48877C3.54557 2.60477 3.33511 2.76221 3.18928 2.96107C3.04344 3.15993 2.96887 3.38697 2.96555 3.64218C2.96555 3.8543 3.01361 4.03825 3.10973 4.19403C3.20916 4.3498 3.3434 4.48238 3.51243 4.59175C3.68146 4.69781 3.86873 4.7873 4.07422 4.86022C4.27971 4.93313 4.48686 4.99445 4.69567 5.04417L5.65021 5.2828C6.03468 5.37229 6.40424 5.49327 6.75888 5.64573C7.11683 5.79819 7.43667 5.99043 7.7184 6.22243C8.00343 6.45444 8.22881 6.73451 8.39453 7.06263C8.56025 7.39076 8.64311 7.77523 8.64311 8.21604C8.64311 8.81263 8.49065 9.33796 8.18572 9.79204C7.8808 10.2428 7.43999 10.5958 6.86328 10.851C6.28989 11.1029 5.59553 11.2288 4.78018 11.2288C3.98804 11.2288 3.30031 11.1062 2.71697 10.8609C2.13696 10.6157 1.68288 10.2577 1.35476 9.78706C1.02995 9.31642 0.854285 8.74303 0.82777 8.06689H2.6424C2.66892 8.42153 2.77829 8.71652 2.97053 8.95184C3.16276 9.18716 3.413 9.36282 3.72124 9.47883C4.03279 9.59483 4.3808 9.65283 4.76527 9.65283C5.16631 9.65283 5.51764 9.59317 5.81925 9.47385C6.12417 9.35122 6.36281 9.18219 6.53516 8.96675C6.7075 8.748 6.79534 8.49279 6.79865 8.20113C6.79534 7.93598 6.71745 7.71723 6.56499 7.54488C6.41252 7.36921 6.19875 7.22338 5.92365 7.10738C5.65187 6.98806 5.33369 6.882 4.96911 6.7892L3.81072 6.4909C2.97218 6.27546 2.3093 5.949 1.82209 5.5115C1.33819 5.07068 1.09624 4.48569 1.09624 3.75652C1.09624 3.15662 1.25864 2.63129 1.58345 2.18053C1.91158 1.72977 2.35736 1.3801 2.92081 1.13152C3.48426 0.879631 4.12228 0.753684 4.83487 0.753684C5.55741 0.753684 6.19046 0.879631 6.73402 1.13152C7.2809 1.3801 7.71011 1.72646 8.02166 2.17059C8.33322 2.6114 8.49396 3.1185 8.50391 3.69189H6.72905ZM13.5389 11.2239C12.7931 11.2239 12.1468 11.0598 11.6 10.7317C11.0531 10.4035 10.6288 9.9445 10.3272 9.35454C10.0289 8.76457 9.87979 8.07518 9.87979 7.28635C9.87979 6.49753 10.0289 5.80648 10.3272 5.2132C10.6288 4.61992 11.0531 4.15922 11.6 3.8311C12.1468 3.50297 12.7931 3.33891 13.5389 3.33891C14.2846 3.33891 14.9309 3.50297 15.4778 3.8311C16.0247 4.15922 16.4473 4.61992 16.7456 5.2132C17.0472 5.80648 17.198 6.49753 17.198 7.28635C17.198 8.07518 17.0472 8.76457 16.7456 9.35454C16.4473 9.9445 16.0247 10.4035 15.4778 10.7317C14.9309 11.0598 14.2846 11.2239 13.5389 11.2239ZM13.5488 9.78209C13.9532 9.78209 14.2913 9.67106 14.563 9.449C14.8348 9.22362 15.037 8.92201 15.1696 8.54417C15.3055 8.16633 15.3734 7.7454 15.3734 7.28138C15.3734 6.81405 15.3055 6.39147 15.1696 6.01363C15.037 5.63247 14.8348 5.32921 14.563 5.10383C14.2913 4.87845 13.9532 4.76576 13.5488 4.76576C13.1345 4.76576 12.7898 4.87845 12.5147 5.10383C12.243 5.32921 12.0391 5.63247 11.9032 6.01363C11.7707 6.39147 11.7044 6.81405 11.7044 7.28138C11.7044 7.7454 11.7707 8.16633 11.9032 8.54417C12.0391 8.92201 12.243 9.22362 12.5147 9.449C12.7898 9.67106 13.1345 9.78209 13.5488 9.78209ZM20.5252 0.892889V11.0747H18.7255V0.892889H20.5252ZM27.2431 7.86306V3.43834H29.0428V11.0747H27.2978V9.71746H27.2182C27.0459 10.145 26.7625 10.4947 26.3681 10.7665C25.977 11.0382 25.4947 11.1741 24.9213 11.1741C24.4209 11.1741 23.9784 11.0631 23.5939 10.841C23.2128 10.6157 22.9145 10.2892 22.699 9.86164C22.4836 9.43077 22.3759 8.91041 22.3759 8.30056V3.43834H24.1756V8.02215C24.1756 8.50605 24.3082 8.89052 24.5733 9.17556C24.8385 9.4606 25.1865 9.60312 25.6174 9.60312C25.8825 9.60312 26.1394 9.53849 26.388 9.40922C26.6365 9.27996 26.8404 9.08773 26.9995 8.83252C27.1619 8.574 27.2431 8.25084 27.2431 7.86306ZM34.7067 3.43834V4.83039H30.3168V3.43834H34.7067ZM31.4006 1.6088H33.2003V8.77783C33.2003 9.01978 33.2367 9.20539 33.3097 9.33465C33.3859 9.4606 33.4853 9.54677 33.608 9.59317C33.7306 9.63957 33.8665 9.66278 34.0156 9.66278C34.1283 9.66278 34.2311 9.65449 34.3239 9.63792C34.42 9.62135 34.4929 9.60643 34.5426 9.59317L34.8459 11.0001C34.7498 11.0333 34.6122 11.0697 34.4332 11.1095C34.2576 11.1493 34.0421 11.1725 33.7869 11.1791C33.3362 11.1924 32.9302 11.1244 32.5689 10.9753C32.2076 10.8228 31.9209 10.5875 31.7088 10.2693C31.5 9.95113 31.3973 9.5534 31.4006 9.07613V1.6088ZM36.2118 11.0747V3.43834H38.0115V11.0747H36.2118ZM37.1167 2.35454C36.8316 2.35454 36.5864 2.26008 36.3809 2.07116C36.1754 1.87892 36.0726 1.64857 36.0726 1.3801C36.0726 1.10832 36.1754 0.877974 36.3809 0.689053C36.5864 0.496818 36.8316 0.400701 37.1167 0.400701C37.405 0.400701 37.6503 0.496818 37.8525 0.689053C38.0579 0.877974 38.1607 1.10832 38.1607 1.3801C38.1607 1.64857 38.0579 1.87892 37.8525 2.07116C37.6503 2.26008 37.405 2.35454 37.1167 2.35454ZM43.1932 11.2239C42.4474 11.2239 41.8011 11.0598 41.2543 10.7317C40.7074 10.4035 40.2831 9.9445 39.9815 9.35454C39.6832 8.76457 39.5341 8.07518 39.5341 7.28635C39.5341 6.49753 39.6832 5.80648 39.9815 5.2132C40.2831 4.61992 40.7074 4.15922 41.2543 3.8311C41.8011 3.50297 42.4474 3.33891 43.1932 3.33891C43.9389 3.33891 44.5852 3.50297 45.1321 3.8311C45.679 4.15922 46.1016 4.61992 46.3999 5.2132C46.7015 5.80648 46.8523 6.49753 46.8523 7.28635C46.8523 8.07518 46.7015 8.76457 46.3999 9.35454C46.1016 9.9445 45.679 10.4035 45.1321 10.7317C44.5852 11.0598 43.9389 11.2239 43.1932 11.2239ZM43.2031 9.78209C43.6075 9.78209 43.9455 9.67106 44.2173 9.449C44.4891 9.22362 44.6913 8.92201 44.8239 8.54417C44.9598 8.16633 45.0277 7.7454 45.0277 7.28138C45.0277 6.81405 44.9598 6.39147 44.8239 6.01363C44.6913 5.63247 44.4891 5.32921 44.2173 5.10383C43.9455 4.87845 43.6075 4.76576 43.2031 4.76576C42.7888 4.76576 42.4441 4.87845 42.169 5.10383C41.8973 5.32921 41.6934 5.63247 41.5575 6.01363C41.425 6.39147 41.3587 6.81405 41.3587 7.28138C41.3587 7.7454 41.425 8.16633 41.5575 8.54417C41.6934 8.92201 41.8973 9.22362 42.169 9.449C42.4441 9.67106 42.7888 9.78209 43.2031 9.78209ZM50.1795 6.60028V11.0747H48.3798V3.43834H50.1V4.73593H50.1895C50.3651 4.30837 50.6452 3.96865 51.0297 3.71675C51.4174 3.46486 51.8964 3.33891 52.4664 3.33891C52.9934 3.33891 53.4525 3.4516 53.8436 3.67698C54.238 3.90236 54.5429 4.22883 54.7583 4.65638C54.9771 5.08394 55.0848 5.60264 55.0815 6.21249V11.0747H53.2818V6.4909C53.2818 5.98048 53.1492 5.5811 52.8841 5.29275C52.6222 5.00439 52.2593 4.86022 51.7953 4.86022C51.4804 4.86022 51.2003 4.92982 50.9551 5.06903C50.7131 5.20492 50.5225 5.40212 50.3833 5.66064C50.2475 5.91917 50.1795 6.23238 50.1795 6.60028ZM62.9466 5.45681L61.3059 5.63579C61.2595 5.47007 61.1783 5.31429 61.0623 5.16846C60.9496 5.02262 60.7972 4.90496 60.6049 4.81547C60.4127 4.72599 60.1774 4.68124 59.899 4.68124C59.5244 4.68124 59.2096 4.76244 58.9544 4.92485C58.7025 5.08725 58.5782 5.29772 58.5815 5.55624C58.5782 5.77831 58.6594 5.95894 58.8251 6.09814C58.9941 6.23735 59.2725 6.3517 59.6603 6.44118L60.9629 6.71959C61.6854 6.87537 62.2224 7.12229 62.5737 7.46036C62.9283 7.79843 63.1073 8.2409 63.1106 8.78778C63.1073 9.26836 62.9664 9.6926 62.688 10.0605C62.4129 10.4251 62.0301 10.7101 61.5396 10.9156C61.0491 11.1211 60.4856 11.2239 59.8493 11.2239C58.9146 11.2239 58.1622 11.0283 57.5922 10.6372C57.0221 10.2428 56.6824 9.69426 56.573 8.99161L58.3279 8.82258C58.4075 9.16727 58.5765 9.42745 58.835 9.60312C59.0936 9.77878 59.43 9.86661 59.8443 9.86661C60.2718 9.86661 60.6149 9.77878 60.8734 9.60312C61.1352 9.42745 61.2662 9.21036 61.2662 8.95184C61.2662 8.73309 61.1816 8.55245 61.0126 8.40993C60.8469 8.26742 60.5884 8.15804 60.237 8.08181L58.9345 7.80837C58.202 7.65591 57.6601 7.39904 57.3088 7.03778C56.9574 6.67319 56.7834 6.21249 56.7868 5.65567C56.7834 5.18503 56.911 4.77736 57.1696 4.43266C57.4314 4.08465 57.7943 3.81618 58.2583 3.62726C58.7257 3.43503 59.2643 3.33891 59.8741 3.33891C60.769 3.33891 61.4733 3.52949 61.987 3.91064C62.5041 4.2918 62.8239 4.80719 62.9466 5.45681Z" fill="white"/>
</svg>
