<svg width="200" height="17" viewBox="0 0 200 17" fill="none" xmlns="http://www.w3.org/2000/svg">
<path d="M5.083 13.136C4.199 13.136 3.42833 12.9943 2.771 12.711C2.11367 12.4277 1.60367 12.031 1.241 11.521C0.889667 11.011 0.714 10.4103 0.714 9.719V9.294C0.714 9.23733 0.731 9.192 0.765 9.158C0.810333 9.11267 0.861333 9.09 0.918 9.09H2.431C2.48767 9.09 2.533 9.11267 2.567 9.158C2.61233 9.192 2.635 9.23733 2.635 9.294V9.617C2.635 10.1383 2.86733 10.5747 3.332 10.926C3.79667 11.266 4.43133 11.436 5.236 11.436C5.92733 11.436 6.44867 11.2887 6.8 10.994C7.15133 10.6993 7.327 10.3197 7.327 9.855C7.327 9.53767 7.23067 9.27133 7.038 9.056C6.84533 8.82933 6.56767 8.62533 6.205 8.444C5.85367 8.26267 5.321 8.036 4.607 7.764C3.80233 7.46933 3.15067 7.19167 2.652 6.931C2.15333 6.67033 1.734 6.319 1.394 5.877C1.06533 5.42367 0.901 4.86267 0.901 4.194C0.901 3.19667 1.26367 2.409 1.989 1.831C2.71433 1.253 3.68333 0.964 4.896 0.964C5.746 0.964 6.494 1.11133 7.14 1.406C7.79733 1.70067 8.30733 2.11433 8.67 2.647C9.03267 3.16833 9.214 3.77467 9.214 4.466V4.755C9.214 4.81167 9.19133 4.86267 9.146 4.908C9.112 4.942 9.06667 4.959 9.01 4.959H7.48C7.42333 4.959 7.37233 4.942 7.327 4.908C7.293 4.86267 7.276 4.81167 7.276 4.755V4.568C7.276 4.03533 7.055 3.58767 6.613 3.225C6.18233 2.851 5.58167 2.664 4.811 2.664C4.18767 2.664 3.70033 2.79433 3.349 3.055C3.009 3.31567 2.839 3.684 2.839 4.16C2.839 4.5 2.92967 4.77767 3.111 4.993C3.29233 5.20833 3.56433 5.40667 3.927 5.588C4.28967 5.758 4.85067 5.979 5.61 6.251C6.41467 6.557 7.055 6.83467 7.531 7.084C8.01833 7.33333 8.432 7.68467 8.772 8.138C9.12333 8.58 9.299 9.13533 9.299 9.804C9.299 10.824 8.91933 11.6343 8.16 12.235C7.412 12.8357 6.38633 13.136 5.083 13.136ZM15.1269 13.136C14.2316 13.136 13.4609 12.9093 12.8149 12.456C12.1803 12.0027 11.7326 11.3737 11.4719 10.569C11.2793 9.957 11.1829 9.311 11.1829 8.631C11.1829 7.90567 11.2736 7.25967 11.4549 6.693C11.7156 5.89967 12.1689 5.282 12.8149 4.84C13.4609 4.398 14.2373 4.177 15.1439 4.177C16.0053 4.177 16.7476 4.398 17.3709 4.84C18.0056 5.282 18.4533 5.894 18.7139 6.676C18.9179 7.22 19.0199 7.866 19.0199 8.614C19.0199 9.328 18.9236 9.974 18.7309 10.552C18.4703 11.3567 18.0226 11.9913 17.3879 12.456C16.7533 12.9093 15.9996 13.136 15.1269 13.136ZM15.1269 11.436C15.5463 11.436 15.9033 11.317 16.1979 11.079C16.5039 10.841 16.7249 10.5067 16.8609 10.076C16.9743 9.702 17.0309 9.226 17.0309 8.648C17.0309 8.036 16.9743 7.56 16.8609 7.22C16.7363 6.78933 16.5209 6.46067 16.2149 6.234C15.9089 5.996 15.5349 5.877 15.0929 5.877C14.6736 5.877 14.3109 5.996 14.0049 6.234C13.6989 6.46067 13.4779 6.78933 13.3419 7.22C13.2286 7.61667 13.1719 8.09267 13.1719 8.648C13.1719 9.20333 13.2286 9.67933 13.3419 10.076C13.4666 10.5067 13.6819 10.841 13.9879 11.079C14.3053 11.317 14.6849 11.436 15.1269 11.436ZM30.5232 4.177C31.3959 4.177 32.0759 4.44333 32.5632 4.976C33.0619 5.49733 33.3112 6.22833 33.3112 7.169V12.796C33.3112 12.8527 33.2886 12.9037 33.2432 12.949C33.2092 12.983 33.1639 13 33.1072 13H31.5602C31.5036 13 31.4526 12.983 31.4072 12.949C31.3732 12.9037 31.3562 12.8527 31.3562 12.796V7.577C31.3562 7.05567 31.2146 6.642 30.9312 6.336C30.6592 6.03 30.2909 5.877 29.8262 5.877C29.3616 5.877 28.9819 6.03 28.6872 6.336C28.3926 6.642 28.2452 7.05 28.2452 7.56V12.796C28.2452 12.8527 28.2226 12.9037 28.1772 12.949C28.1432 12.983 28.0979 13 28.0412 13H26.4942C26.4376 13 26.3866 12.983 26.3412 12.949C26.3072 12.9037 26.2902 12.8527 26.2902 12.796V7.577C26.2902 7.05567 26.1486 6.642 25.8652 6.336C25.5819 6.03 25.2079 5.877 24.7432 5.877C24.3126 5.877 23.9556 6.00167 23.6722 6.251C23.4002 6.50033 23.2416 6.84033 23.1962 7.271V12.796C23.1962 12.8527 23.1736 12.9037 23.1282 12.949C23.0942 12.983 23.0489 13 22.9922 13H21.4282C21.3716 13 21.3206 12.983 21.2752 12.949C21.2412 12.9037 21.2242 12.8527 21.2242 12.796V4.517C21.2242 4.46033 21.2412 4.415 21.2752 4.381C21.3206 4.33567 21.3716 4.313 21.4282 4.313H22.9922C23.0489 4.313 23.0942 4.33567 23.1282 4.381C23.1736 4.415 23.1962 4.46033 23.1962 4.517V5.078C23.1962 5.112 23.2076 5.13467 23.2302 5.146C23.2529 5.15733 23.2756 5.146 23.2982 5.112C23.5476 4.79467 23.8536 4.56233 24.2162 4.415C24.5902 4.25633 25.0039 4.177 25.4572 4.177C26.0126 4.177 26.4999 4.29033 26.9192 4.517C27.3386 4.74367 27.6616 5.07233 27.8882 5.503C27.9222 5.54833 27.9619 5.54833 28.0072 5.503C28.2566 5.04967 28.6022 4.71533 29.0442 4.5C29.4862 4.28467 29.9792 4.177 30.5232 4.177ZM42.9196 7.679C42.9649 7.96233 42.9876 8.27967 42.9876 8.631L42.9706 9.158C42.9706 9.294 42.9026 9.362 42.7666 9.362H37.4456C37.3889 9.362 37.3606 9.39033 37.3606 9.447C37.3946 9.821 37.4456 10.076 37.5136 10.212C37.7856 11.028 38.4486 11.4417 39.5026 11.453C40.2732 11.453 40.8852 11.1357 41.3386 10.501C41.3839 10.433 41.4406 10.399 41.5086 10.399C41.5539 10.399 41.5936 10.416 41.6276 10.45L42.6816 11.317C42.7836 11.3963 42.8006 11.487 42.7326 11.589C42.3812 12.0877 41.9109 12.473 41.3216 12.745C40.7436 13.017 40.0976 13.153 39.3836 13.153C38.4996 13.153 37.7459 12.9547 37.1226 12.558C36.5106 12.1613 36.0629 11.606 35.7796 10.892C35.5189 10.28 35.3886 9.43 35.3886 8.342C35.3886 7.68467 35.4566 7.152 35.5926 6.744C35.8192 5.95067 36.2442 5.32733 36.8676 4.874C37.5022 4.40933 38.2616 4.177 39.1456 4.177C41.3782 4.177 42.6362 5.34433 42.9196 7.679ZM39.1456 5.877C38.7262 5.877 38.3749 5.98467 38.0916 6.2C37.8196 6.404 37.6269 6.693 37.5136 7.067C37.4456 7.25967 37.4002 7.509 37.3776 7.815C37.3549 7.87167 37.3776 7.9 37.4456 7.9H40.8966C40.9532 7.9 40.9816 7.87167 40.9816 7.815C40.9589 7.53167 40.9249 7.31633 40.8796 7.169C40.7776 6.761 40.5736 6.44367 40.2676 6.217C39.9729 5.99033 39.5989 5.877 39.1456 5.877ZM56.2001 7.679C56.2455 7.96233 56.2681 8.27967 56.2681 8.631L56.2511 9.158C56.2511 9.294 56.1831 9.362 56.0471 9.362H50.7261C50.6695 9.362 50.6411 9.39033 50.6411 9.447C50.6751 9.821 50.7261 10.076 50.7941 10.212C51.0661 11.028 51.7291 11.4417 52.7831 11.453C53.5538 11.453 54.1658 11.1357 54.6191 10.501C54.6645 10.433 54.7211 10.399 54.7891 10.399C54.8345 10.399 54.8741 10.416 54.9081 10.45L55.9621 11.317C56.0641 11.3963 56.0811 11.487 56.0131 11.589C55.6618 12.0877 55.1915 12.473 54.6021 12.745C54.0241 13.017 53.3781 13.153 52.6641 13.153C51.7801 13.153 51.0265 12.9547 50.4031 12.558C49.7911 12.1613 49.3435 11.606 49.0601 10.892C48.7995 10.28 48.6691 9.43 48.6691 8.342C48.6691 7.68467 48.7371 7.152 48.8731 6.744C49.0998 5.95067 49.5248 5.32733 50.1481 4.874C50.7828 4.40933 51.5421 4.177 52.4261 4.177C54.6588 4.177 55.9168 5.34433 56.2001 7.679ZM52.4261 5.877C52.0068 5.877 51.6555 5.98467 51.3721 6.2C51.1001 6.404 50.9075 6.693 50.7941 7.067C50.7261 7.25967 50.6808 7.509 50.6581 7.815C50.6355 7.87167 50.6581 7.9 50.7261 7.9H54.1771C54.2338 7.9 54.2621 7.87167 54.2621 7.815C54.2395 7.53167 54.2055 7.31633 54.1601 7.169C54.0581 6.761 53.8541 6.44367 53.5481 6.217C53.2535 5.99033 52.8795 5.877 52.4261 5.877ZM62.5754 4.177C63.4934 4.177 64.2244 4.449 64.7684 4.993C65.3237 5.537 65.6014 6.27933 65.6014 7.22V12.796C65.6014 12.8527 65.5787 12.9037 65.5334 12.949C65.4994 12.983 65.4541 13 65.3974 13H63.8334C63.7767 13 63.7257 12.983 63.6804 12.949C63.6464 12.9037 63.6294 12.8527 63.6294 12.796V7.628C63.6294 7.10667 63.4821 6.68733 63.1874 6.37C62.8927 6.04133 62.5017 5.877 62.0144 5.877C61.5271 5.877 61.1304 6.03567 60.8244 6.353C60.5297 6.67033 60.3824 7.08967 60.3824 7.611V12.796C60.3824 12.8527 60.3597 12.9037 60.3144 12.949C60.2804 12.983 60.2351 13 60.1784 13H58.6144C58.5577 13 58.5067 12.983 58.4614 12.949C58.4274 12.9037 58.4104 12.8527 58.4104 12.796V4.517C58.4104 4.46033 58.4274 4.415 58.4614 4.381C58.5067 4.33567 58.5577 4.313 58.6144 4.313H60.1784C60.2351 4.313 60.2804 4.33567 60.3144 4.381C60.3597 4.415 60.3824 4.46033 60.3824 4.517V5.061C60.3824 5.095 60.3937 5.11767 60.4164 5.129C60.4391 5.14033 60.4561 5.129 60.4674 5.095C60.9321 4.483 61.6347 4.177 62.5754 4.177ZM73.3185 4.517C73.3185 4.46033 73.3355 4.415 73.3695 4.381C73.4148 4.33567 73.4658 4.313 73.5225 4.313H75.0865C75.1431 4.313 75.1885 4.33567 75.2225 4.381C75.2678 4.415 75.2905 4.46033 75.2905 4.517V12.422C75.2905 13.8387 74.8825 14.8473 74.0665 15.448C73.2618 16.06 72.2021 16.366 70.8875 16.366C70.5361 16.366 70.1905 16.349 69.8505 16.315C69.7258 16.3037 69.6635 16.23 69.6635 16.094L69.7145 14.7C69.7145 14.5753 69.7938 14.513 69.9525 14.513C70.2811 14.547 70.5758 14.564 70.8365 14.564C71.6865 14.564 72.3098 14.394 72.7065 14.054C73.1145 13.7253 73.3185 13.1643 73.3185 12.371V12.235C73.3185 12.201 73.3071 12.184 73.2845 12.184C73.2618 12.1727 73.2391 12.1783 73.2165 12.201C72.7518 12.6997 72.0945 12.949 71.2445 12.949C70.5078 12.949 69.8335 12.762 69.2215 12.388C68.6095 12.014 68.1845 11.4417 67.9465 10.671C67.7991 10.1383 67.7255 9.45267 67.7255 8.614C67.7255 7.67333 67.8161 6.95367 67.9975 6.455C68.2241 5.76367 68.6151 5.214 69.1705 4.806C69.7258 4.38667 70.3775 4.177 71.1255 4.177C72.0208 4.177 72.7178 4.43767 73.2165 4.959C73.2391 4.993 73.2618 5.00433 73.2845 4.993C73.3071 4.98167 73.3185 4.959 73.3185 4.925V4.517ZM73.1995 10.11C73.2448 9.94 73.2731 9.75867 73.2845 9.566C73.3071 9.362 73.3185 9.039 73.3185 8.597C73.3185 8.16633 73.3071 7.86033 73.2845 7.679C73.2731 7.48633 73.2391 7.29933 73.1825 7.118C73.0918 6.744 72.9048 6.44367 72.6215 6.217C72.3495 5.99033 71.9981 5.877 71.5675 5.877C71.1595 5.877 70.8138 5.99033 70.5305 6.217C70.2471 6.44367 70.0431 6.744 69.9185 7.118C69.7825 7.43533 69.7145 7.934 69.7145 8.614C69.7145 9.31667 69.7711 9.80967 69.8845 10.093C69.9978 10.4557 70.2018 10.756 70.4965 10.994C70.8025 11.2207 71.1651 11.334 71.5845 11.334C72.0265 11.334 72.3835 11.2207 72.6555 10.994C72.9275 10.7673 73.1088 10.4727 73.1995 10.11ZM78.7896 3.123C78.4382 3.123 78.1492 3.00967 77.9226 2.783C77.6959 2.55633 77.5826 2.26733 77.5826 1.916C77.5826 1.56467 77.6959 1.27567 77.9226 1.049C78.1492 0.822333 78.4382 0.708999 78.7896 0.708999C79.1409 0.708999 79.4299 0.822333 79.6566 1.049C79.8832 1.27567 79.9966 1.56467 79.9966 1.916C79.9966 2.26733 79.8832 2.55633 79.6566 2.783C79.4299 3.00967 79.1409 3.123 78.7896 3.123ZM77.9736 13C77.9169 13 77.8659 12.983 77.8206 12.949C77.7866 12.9037 77.7696 12.8527 77.7696 12.796V4.5C77.7696 4.44333 77.7866 4.398 77.8206 4.364C77.8659 4.31867 77.9169 4.296 77.9736 4.296H79.5376C79.5942 4.296 79.6396 4.31867 79.6736 4.364C79.7189 4.398 79.7416 4.44333 79.7416 4.5V12.796C79.7416 12.8527 79.7189 12.9037 79.6736 12.949C79.6396 12.983 79.5942 13 79.5376 13H77.9736ZM86.5056 4.177C87.4236 4.177 88.1546 4.449 88.6986 4.993C89.2539 5.537 89.5316 6.27933 89.5316 7.22V12.796C89.5316 12.8527 89.5089 12.9037 89.4636 12.949C89.4296 12.983 89.3842 13 89.3276 13H87.7636C87.7069 13 87.6559 12.983 87.6106 12.949C87.5766 12.9037 87.5596 12.8527 87.5596 12.796V7.628C87.5596 7.10667 87.4122 6.68733 87.1176 6.37C86.8229 6.04133 86.4319 5.877 85.9446 5.877C85.4572 5.877 85.0606 6.03567 84.7546 6.353C84.4599 6.67033 84.3126 7.08967 84.3126 7.611V12.796C84.3126 12.8527 84.2899 12.9037 84.2446 12.949C84.2106 12.983 84.1652 13 84.1086 13H82.5446C82.4879 13 82.4369 12.983 82.3916 12.949C82.3576 12.9037 82.3406 12.8527 82.3406 12.796V4.517C82.3406 4.46033 82.3576 4.415 82.3916 4.381C82.4369 4.33567 82.4879 4.313 82.5446 4.313H84.1086C84.1652 4.313 84.2106 4.33567 84.2446 4.381C84.2899 4.415 84.3126 4.46033 84.3126 4.517V5.061C84.3126 5.095 84.3239 5.11767 84.3466 5.129C84.3692 5.14033 84.3862 5.129 84.3976 5.095C84.8622 4.483 85.5649 4.177 86.5056 4.177ZM99.1882 7.679C99.2336 7.96233 99.2562 8.27967 99.2562 8.631L99.2392 9.158C99.2392 9.294 99.1712 9.362 99.0352 9.362H93.7142C93.6576 9.362 93.6292 9.39033 93.6292 9.447C93.6632 9.821 93.7142 10.076 93.7822 10.212C94.0542 11.028 94.7172 11.4417 95.7712 11.453C96.5419 11.453 97.1539 11.1357 97.6072 10.501C97.6526 10.433 97.7092 10.399 97.7772 10.399C97.8226 10.399 97.8622 10.416 97.8962 10.45L98.9502 11.317C99.0522 11.3963 99.0692 11.487 99.0012 11.589C98.6499 12.0877 98.1796 12.473 97.5902 12.745C97.0122 13.017 96.3662 13.153 95.6522 13.153C94.7682 13.153 94.0146 12.9547 93.3912 12.558C92.7792 12.1613 92.3316 11.606 92.0482 10.892C91.7876 10.28 91.6572 9.43 91.6572 8.342C91.6572 7.68467 91.7252 7.152 91.8612 6.744C92.0879 5.95067 92.5129 5.32733 93.1362 4.874C93.7709 4.40933 94.5302 4.177 95.4142 4.177C97.6469 4.177 98.9049 5.34433 99.1882 7.679ZM95.4142 5.877C94.9949 5.877 94.6436 5.98467 94.3602 6.2C94.0882 6.404 93.8956 6.693 93.7822 7.067C93.7142 7.25967 93.6689 7.509 93.6462 7.815C93.6236 7.87167 93.6462 7.9 93.7142 7.9H97.1652C97.2219 7.9 97.2502 7.87167 97.2502 7.815C97.2276 7.53167 97.1936 7.31633 97.1482 7.169C97.0462 6.761 96.8422 6.44367 96.5362 6.217C96.2416 5.99033 95.8676 5.877 95.4142 5.877ZM108.725 7.679C108.771 7.96233 108.793 8.27967 108.793 8.631L108.776 9.158C108.776 9.294 108.708 9.362 108.572 9.362H103.251C103.195 9.362 103.166 9.39033 103.166 9.447C103.2 9.821 103.251 10.076 103.319 10.212C103.591 11.028 104.254 11.4417 105.308 11.453C106.079 11.453 106.691 11.1357 107.144 10.501C107.19 10.433 107.246 10.399 107.314 10.399C107.36 10.399 107.399 10.416 107.433 10.45L108.487 11.317C108.589 11.3963 108.606 11.487 108.538 11.589C108.187 12.0877 107.717 12.473 107.127 12.745C106.549 13.017 105.903 13.153 105.189 13.153C104.305 13.153 103.552 12.9547 102.928 12.558C102.316 12.1613 101.869 11.606 101.585 10.892C101.325 10.28 101.194 9.43 101.194 8.342C101.194 7.68467 101.262 7.152 101.398 6.744C101.625 5.95067 102.05 5.32733 102.673 4.874C103.308 4.40933 104.067 4.177 104.951 4.177C107.184 4.177 108.442 5.34433 108.725 7.679ZM104.951 5.877C104.532 5.877 104.181 5.98467 103.897 6.2C103.625 6.404 103.433 6.693 103.319 7.067C103.251 7.25967 103.206 7.509 103.183 7.815C103.161 7.87167 103.183 7.9 103.251 7.9H106.702C106.759 7.9 106.787 7.87167 106.787 7.815C106.765 7.53167 106.731 7.31633 106.685 7.169C106.583 6.761 106.379 6.44367 106.073 6.217C105.779 5.99033 105.405 5.877 104.951 5.877ZM114.982 4.211C115.344 4.211 115.662 4.28467 115.934 4.432C116.024 4.47733 116.058 4.56233 116.036 4.687L115.747 6.217C115.735 6.353 115.656 6.39267 115.509 6.336C115.339 6.27933 115.14 6.251 114.914 6.251C114.766 6.251 114.653 6.25667 114.574 6.268C114.098 6.29067 113.701 6.46067 113.384 6.778C113.066 7.084 112.908 7.48633 112.908 7.985V12.796C112.908 12.8527 112.885 12.9037 112.84 12.949C112.806 12.983 112.76 13 112.704 13H111.14C111.083 13 111.032 12.983 110.987 12.949C110.953 12.9037 110.936 12.8527 110.936 12.796V4.517C110.936 4.46033 110.953 4.415 110.987 4.381C111.032 4.33567 111.083 4.313 111.14 4.313H112.704C112.76 4.313 112.806 4.33567 112.84 4.381C112.885 4.415 112.908 4.46033 112.908 4.517V5.282C112.908 5.32733 112.913 5.35567 112.925 5.367C112.947 5.367 112.97 5.35 112.993 5.316C113.469 4.57933 114.132 4.211 114.982 4.211ZM118.789 3.123C118.438 3.123 118.149 3.00967 117.922 2.783C117.696 2.55633 117.582 2.26733 117.582 1.916C117.582 1.56467 117.696 1.27567 117.922 1.049C118.149 0.822333 118.438 0.708999 118.789 0.708999C119.141 0.708999 119.43 0.822333 119.656 1.049C119.883 1.27567 119.996 1.56467 119.996 1.916C119.996 2.26733 119.883 2.55633 119.656 2.783C119.43 3.00967 119.141 3.123 118.789 3.123ZM117.973 13C117.917 13 117.866 12.983 117.82 12.949C117.786 12.9037 117.769 12.8527 117.769 12.796V4.5C117.769 4.44333 117.786 4.398 117.82 4.364C117.866 4.31867 117.917 4.296 117.973 4.296H119.537C119.594 4.296 119.639 4.31867 119.673 4.364C119.719 4.398 119.741 4.44333 119.741 4.5V12.796C119.741 12.8527 119.719 12.9037 119.673 12.949C119.639 12.983 119.594 13 119.537 13H117.973ZM126.505 4.177C127.423 4.177 128.154 4.449 128.698 4.993C129.254 5.537 129.531 6.27933 129.531 7.22V12.796C129.531 12.8527 129.509 12.9037 129.463 12.949C129.429 12.983 129.384 13 129.327 13H127.763C127.707 13 127.656 12.983 127.61 12.949C127.576 12.9037 127.559 12.8527 127.559 12.796V7.628C127.559 7.10667 127.412 6.68733 127.117 6.37C126.823 6.04133 126.432 5.877 125.944 5.877C125.457 5.877 125.06 6.03567 124.754 6.353C124.46 6.67033 124.312 7.08967 124.312 7.611V12.796C124.312 12.8527 124.29 12.9037 124.244 12.949C124.21 12.983 124.165 13 124.108 13H122.544C122.488 13 122.437 12.983 122.391 12.949C122.357 12.9037 122.34 12.8527 122.34 12.796V4.517C122.34 4.46033 122.357 4.415 122.391 4.381C122.437 4.33567 122.488 4.313 122.544 4.313H124.108C124.165 4.313 124.21 4.33567 124.244 4.381C124.29 4.415 124.312 4.46033 124.312 4.517V5.061C124.312 5.095 124.324 5.11767 124.346 5.129C124.369 5.14033 124.386 5.129 124.397 5.095C124.862 4.483 125.565 4.177 126.505 4.177ZM137.248 4.517C137.248 4.46033 137.265 4.415 137.299 4.381C137.345 4.33567 137.396 4.313 137.452 4.313H139.016C139.073 4.313 139.118 4.33567 139.152 4.381C139.198 4.415 139.22 4.46033 139.22 4.517V12.422C139.22 13.8387 138.812 14.8473 137.996 15.448C137.192 16.06 136.132 16.366 134.817 16.366C134.466 16.366 134.12 16.349 133.78 16.315C133.656 16.3037 133.593 16.23 133.593 16.094L133.644 14.7C133.644 14.5753 133.724 14.513 133.882 14.513C134.211 14.547 134.506 14.564 134.766 14.564C135.616 14.564 136.24 14.394 136.636 14.054C137.044 13.7253 137.248 13.1643 137.248 12.371V12.235C137.248 12.201 137.237 12.184 137.214 12.184C137.192 12.1727 137.169 12.1783 137.146 12.201C136.682 12.6997 136.024 12.949 135.174 12.949C134.438 12.949 133.763 12.762 133.151 12.388C132.539 12.014 132.114 11.4417 131.876 10.671C131.729 10.1383 131.655 9.45267 131.655 8.614C131.655 7.67333 131.746 6.95367 131.927 6.455C132.154 5.76367 132.545 5.214 133.1 4.806C133.656 4.38667 134.307 4.177 135.055 4.177C135.951 4.177 136.648 4.43767 137.146 4.959C137.169 4.993 137.192 5.00433 137.214 4.993C137.237 4.98167 137.248 4.959 137.248 4.925V4.517ZM137.129 10.11C137.175 9.94 137.203 9.75867 137.214 9.566C137.237 9.362 137.248 9.039 137.248 8.597C137.248 8.16633 137.237 7.86033 137.214 7.679C137.203 7.48633 137.169 7.29933 137.112 7.118C137.022 6.744 136.835 6.44367 136.551 6.217C136.279 5.99033 135.928 5.877 135.497 5.877C135.089 5.877 134.744 5.99033 134.46 6.217C134.177 6.44367 133.973 6.744 133.848 7.118C133.712 7.43533 133.644 7.934 133.644 8.614C133.644 9.31667 133.701 9.80967 133.814 10.093C133.928 10.4557 134.132 10.756 134.426 10.994C134.732 11.2207 135.095 11.334 135.514 11.334C135.956 11.334 136.313 11.2207 136.585 10.994C136.857 10.7673 137.039 10.4727 137.129 10.11ZM148.962 13.136C148.089 13.136 147.336 12.915 146.701 12.473C146.066 12.0197 145.624 11.4133 145.375 10.654C145.194 10.144 145.103 9.464 145.103 8.614C145.103 7.798 145.194 7.12933 145.375 6.608C145.613 5.86 146.049 5.27067 146.684 4.84C147.33 4.398 148.089 4.177 148.962 4.177C149.846 4.177 150.617 4.398 151.274 4.84C151.931 5.282 152.368 5.83733 152.583 6.506C152.64 6.68733 152.679 6.86867 152.702 7.05V7.084C152.702 7.19733 152.64 7.26533 152.515 7.288L150.985 7.509H150.951C150.849 7.509 150.781 7.45233 150.747 7.339C150.747 7.28233 150.741 7.237 150.73 7.203C150.707 7.11233 150.685 7.033 150.662 6.965C150.56 6.64767 150.356 6.387 150.05 6.183C149.744 5.979 149.381 5.877 148.962 5.877C148.531 5.877 148.163 5.99033 147.857 6.217C147.562 6.43233 147.364 6.73267 147.262 7.118C147.149 7.48067 147.092 7.985 147.092 8.631C147.092 9.25433 147.143 9.75867 147.245 10.144C147.358 10.5407 147.562 10.858 147.857 11.096C148.152 11.3227 148.52 11.436 148.962 11.436C149.393 11.436 149.761 11.3283 150.067 11.113C150.384 10.8863 150.588 10.586 150.679 10.212C150.69 10.1893 150.696 10.161 150.696 10.127C150.707 10.1157 150.713 10.0987 150.713 10.076C150.747 9.94 150.826 9.88333 150.951 9.906L152.481 10.144C152.538 10.1553 152.583 10.1837 152.617 10.229C152.662 10.263 152.679 10.314 152.668 10.382C152.634 10.5633 152.606 10.6937 152.583 10.773C152.368 11.4983 151.931 12.0763 151.274 12.507C150.617 12.9263 149.846 13.136 148.962 13.136ZM158.318 13.136C157.423 13.136 156.652 12.9093 156.006 12.456C155.371 12.0027 154.924 11.3737 154.663 10.569C154.47 9.957 154.374 9.311 154.374 8.631C154.374 7.90567 154.465 7.25967 154.646 6.693C154.907 5.89967 155.36 5.282 156.006 4.84C156.652 4.398 157.428 4.177 158.335 4.177C159.196 4.177 159.939 4.398 160.562 4.84C161.197 5.282 161.644 5.894 161.905 6.676C162.109 7.22 162.211 7.866 162.211 8.614C162.211 9.328 162.115 9.974 161.922 10.552C161.661 11.3567 161.214 11.9913 160.579 12.456C159.944 12.9093 159.191 13.136 158.318 13.136ZM158.318 11.436C158.737 11.436 159.094 11.317 159.389 11.079C159.695 10.841 159.916 10.5067 160.052 10.076C160.165 9.702 160.222 9.226 160.222 8.648C160.222 8.036 160.165 7.56 160.052 7.22C159.927 6.78933 159.712 6.46067 159.406 6.234C159.1 5.996 158.726 5.877 158.284 5.877C157.865 5.877 157.502 5.996 157.196 6.234C156.89 6.46067 156.669 6.78933 156.533 7.22C156.42 7.61667 156.363 8.09267 156.363 8.648C156.363 9.20333 156.42 9.67933 156.533 10.076C156.658 10.5067 156.873 10.841 157.179 11.079C157.496 11.317 157.876 11.436 158.318 11.436ZM164.619 13C164.563 13 164.512 12.983 164.466 12.949C164.432 12.9037 164.415 12.8527 164.415 12.796V1.304C164.415 1.24733 164.432 1.202 164.466 1.168C164.512 1.12267 164.563 1.1 164.619 1.1H166.183C166.24 1.1 166.285 1.12267 166.319 1.168C166.365 1.202 166.387 1.24733 166.387 1.304V12.796C166.387 12.8527 166.365 12.9037 166.319 12.949C166.285 12.983 166.24 13 166.183 13H164.619ZM169.027 13C168.97 13 168.919 12.983 168.874 12.949C168.84 12.9037 168.823 12.8527 168.823 12.796V1.304C168.823 1.24733 168.84 1.202 168.874 1.168C168.919 1.12267 168.97 1.1 169.027 1.1H170.591C170.647 1.1 170.693 1.12267 170.727 1.168C170.772 1.202 170.795 1.24733 170.795 1.304V12.796C170.795 12.8527 170.772 12.9037 170.727 12.949C170.693 12.983 170.647 13 170.591 13H169.027ZM180.557 7.679C180.602 7.96233 180.625 8.27967 180.625 8.631L180.608 9.158C180.608 9.294 180.54 9.362 180.404 9.362H175.083C175.026 9.362 174.998 9.39033 174.998 9.447C175.032 9.821 175.083 10.076 175.151 10.212C175.423 11.028 176.086 11.4417 177.14 11.453C177.911 11.453 178.523 11.1357 178.976 10.501C179.021 10.433 179.078 10.399 179.146 10.399C179.191 10.399 179.231 10.416 179.265 10.45L180.319 11.317C180.421 11.3963 180.438 11.487 180.37 11.589C180.019 12.0877 179.548 12.473 178.959 12.745C178.381 13.017 177.735 13.153 177.021 13.153C176.137 13.153 175.383 12.9547 174.76 12.558C174.148 12.1613 173.7 11.606 173.417 10.892C173.156 10.28 173.026 9.43 173.026 8.342C173.026 7.68467 173.094 7.152 173.23 6.744C173.457 5.95067 173.882 5.32733 174.505 4.874C175.14 4.40933 175.899 4.177 176.783 4.177C179.016 4.177 180.274 5.34433 180.557 7.679ZM176.783 5.877C176.364 5.877 176.012 5.98467 175.729 6.2C175.457 6.404 175.264 6.693 175.151 7.067C175.083 7.25967 175.038 7.509 175.015 7.815C174.992 7.87167 175.015 7.9 175.083 7.9H178.534C178.591 7.9 178.619 7.87167 178.619 7.815C178.596 7.53167 178.562 7.31633 178.517 7.169C178.415 6.761 178.211 6.44367 177.905 6.217C177.61 5.99033 177.236 5.877 176.783 5.877ZM188.088 4.517C188.088 4.46033 188.105 4.415 188.139 4.381C188.185 4.33567 188.236 4.313 188.292 4.313H189.856C189.913 4.313 189.958 4.33567 189.992 4.381C190.038 4.415 190.06 4.46033 190.06 4.517V12.422C190.06 13.8387 189.652 14.8473 188.836 15.448C188.032 16.06 186.972 16.366 185.657 16.366C185.306 16.366 184.96 16.349 184.62 16.315C184.496 16.3037 184.433 16.23 184.433 16.094L184.484 14.7C184.484 14.5753 184.564 14.513 184.722 14.513C185.051 14.547 185.346 14.564 185.606 14.564C186.456 14.564 187.08 14.394 187.476 14.054C187.884 13.7253 188.088 13.1643 188.088 12.371V12.235C188.088 12.201 188.077 12.184 188.054 12.184C188.032 12.1727 188.009 12.1783 187.986 12.201C187.522 12.6997 186.864 12.949 186.014 12.949C185.278 12.949 184.603 12.762 183.991 12.388C183.379 12.014 182.954 11.4417 182.716 10.671C182.569 10.1383 182.495 9.45267 182.495 8.614C182.495 7.67333 182.586 6.95367 182.767 6.455C182.994 5.76367 183.385 5.214 183.94 4.806C184.496 4.38667 185.147 4.177 185.895 4.177C186.791 4.177 187.488 4.43767 187.986 4.959C188.009 4.993 188.032 5.00433 188.054 4.993C188.077 4.98167 188.088 4.959 188.088 4.925V4.517ZM187.969 10.11C188.015 9.94 188.043 9.75867 188.054 9.566C188.077 9.362 188.088 9.039 188.088 8.597C188.088 8.16633 188.077 7.86033 188.054 7.679C188.043 7.48633 188.009 7.29933 187.952 7.118C187.862 6.744 187.675 6.44367 187.391 6.217C187.119 5.99033 186.768 5.877 186.337 5.877C185.929 5.877 185.584 5.99033 185.3 6.217C185.017 6.44367 184.813 6.744 184.688 7.118C184.552 7.43533 184.484 7.934 184.484 8.614C184.484 9.31667 184.541 9.80967 184.654 10.093C184.768 10.4557 184.972 10.756 185.266 10.994C185.572 11.2207 185.935 11.334 186.354 11.334C186.796 11.334 187.153 11.2207 187.425 10.994C187.697 10.7673 187.879 10.4727 187.969 10.11ZM199.764 7.679C199.81 7.96233 199.832 8.27967 199.832 8.631L199.815 9.158C199.815 9.294 199.747 9.362 199.611 9.362H194.29C194.234 9.362 194.205 9.39033 194.205 9.447C194.239 9.821 194.29 10.076 194.358 10.212C194.63 11.028 195.293 11.4417 196.347 11.453C197.118 11.453 197.73 11.1357 198.183 10.501C198.229 10.433 198.285 10.399 198.353 10.399C198.399 10.399 198.438 10.416 198.472 10.45L199.526 11.317C199.628 11.3963 199.645 11.487 199.577 11.589C199.226 12.0877 198.756 12.473 198.166 12.745C197.588 13.017 196.942 13.153 196.228 13.153C195.344 13.153 194.591 12.9547 193.967 12.558C193.355 12.1613 192.908 11.606 192.624 10.892C192.364 10.28 192.233 9.43 192.233 8.342C192.233 7.68467 192.301 7.152 192.437 6.744C192.664 5.95067 193.089 5.32733 193.712 4.874C194.347 4.40933 195.106 4.177 195.99 4.177C198.223 4.177 199.481 5.34433 199.764 7.679ZM195.99 5.877C195.571 5.877 195.22 5.98467 194.936 6.2C194.664 6.404 194.472 6.693 194.358 7.067C194.29 7.25967 194.245 7.509 194.222 7.815C194.2 7.87167 194.222 7.9 194.29 7.9H197.741C197.798 7.9 197.826 7.87167 197.826 7.815C197.804 7.53167 197.77 7.31633 197.724 7.169C197.622 6.761 197.418 6.44367 197.112 6.217C196.818 5.99033 196.444 5.877 195.99 5.877Z" fill="#C2BEBE"/>
</svg>
