<svg width="107" height="17" viewBox="0 0 107 17" fill="none" xmlns="http://www.w3.org/2000/svg">
<path d="M5.083 13.136C4.199 13.136 3.42833 12.9943 2.771 12.711C2.11367 12.4277 1.60367 12.031 1.241 11.521C0.889667 11.011 0.714 10.4103 0.714 9.719V9.294C0.714 9.23733 0.731 9.192 0.765 9.158C0.810333 9.11267 0.861333 9.09 0.918 9.09H2.431C2.48767 9.09 2.533 9.11267 2.567 9.158C2.61233 9.192 2.635 9.23733 2.635 9.294V9.617C2.635 10.1383 2.86733 10.5747 3.332 10.926C3.79667 11.266 4.43133 11.436 5.236 11.436C5.92733 11.436 6.44867 11.2887 6.8 10.994C7.15133 10.6993 7.327 10.3197 7.327 9.855C7.327 9.53767 7.23067 9.27133 7.038 9.056C6.84533 8.82933 6.56767 8.62533 6.205 8.444C5.85367 8.26267 5.321 8.036 4.607 7.764C3.80233 7.46933 3.15067 7.19167 2.652 6.931C2.15333 6.67033 1.734 6.319 1.394 5.877C1.06533 5.42367 0.901 4.86267 0.901 4.194C0.901 3.19667 1.26367 2.409 1.989 1.831C2.71433 1.253 3.68333 0.964 4.896 0.964C5.746 0.964 6.494 1.11133 7.14 1.406C7.79733 1.70067 8.30733 2.11433 8.67 2.647C9.03267 3.16833 9.214 3.77467 9.214 4.466V4.755C9.214 4.81167 9.19133 4.86267 9.146 4.908C9.112 4.942 9.06667 4.959 9.01 4.959H7.48C7.42333 4.959 7.37233 4.942 7.327 4.908C7.293 4.86267 7.276 4.81167 7.276 4.755V4.568C7.276 4.03533 7.055 3.58767 6.613 3.225C6.18233 2.851 5.58167 2.664 4.811 2.664C4.18767 2.664 3.70033 2.79433 3.349 3.055C3.009 3.31567 2.839 3.684 2.839 4.16C2.839 4.5 2.92967 4.77767 3.111 4.993C3.29233 5.20833 3.56433 5.40667 3.927 5.588C4.28967 5.758 4.85067 5.979 5.61 6.251C6.41467 6.557 7.055 6.83467 7.531 7.084C8.01833 7.33333 8.432 7.68467 8.772 8.138C9.12333 8.58 9.299 9.13533 9.299 9.804C9.299 10.824 8.91933 11.6343 8.16 12.235C7.412 12.8357 6.38633 13.136 5.083 13.136ZM15.1269 13.136C14.2316 13.136 13.4609 12.9093 12.8149 12.456C12.1803 12.0027 11.7326 11.3737 11.4719 10.569C11.2793 9.957 11.1829 9.311 11.1829 8.631C11.1829 7.90567 11.2736 7.25967 11.4549 6.693C11.7156 5.89967 12.1689 5.282 12.8149 4.84C13.4609 4.398 14.2373 4.177 15.1439 4.177C16.0053 4.177 16.7476 4.398 17.3709 4.84C18.0056 5.282 18.4533 5.894 18.7139 6.676C18.9179 7.22 19.0199 7.866 19.0199 8.614C19.0199 9.328 18.9236 9.974 18.7309 10.552C18.4703 11.3567 18.0226 11.9913 17.3879 12.456C16.7533 12.9093 15.9996 13.136 15.1269 13.136ZM15.1269 11.436C15.5463 11.436 15.9033 11.317 16.1979 11.079C16.5039 10.841 16.7249 10.5067 16.8609 10.076C16.9743 9.702 17.0309 9.226 17.0309 8.648C17.0309 8.036 16.9743 7.56 16.8609 7.22C16.7363 6.78933 16.5209 6.46067 16.2149 6.234C15.9089 5.996 15.5349 5.877 15.0929 5.877C14.6736 5.877 14.3109 5.996 14.0049 6.234C13.6989 6.46067 13.4779 6.78933 13.3419 7.22C13.2286 7.61667 13.1719 8.09267 13.1719 8.648C13.1719 9.20333 13.2286 9.67933 13.3419 10.076C13.4666 10.5067 13.6819 10.841 13.9879 11.079C14.3053 11.317 14.6849 11.436 15.1269 11.436ZM30.5232 4.177C31.3959 4.177 32.0759 4.44333 32.5632 4.976C33.0619 5.49733 33.3112 6.22833 33.3112 7.169V12.796C33.3112 12.8527 33.2886 12.9037 33.2432 12.949C33.2092 12.983 33.1639 13 33.1072 13H31.5602C31.5036 13 31.4526 12.983 31.4072 12.949C31.3732 12.9037 31.3562 12.8527 31.3562 12.796V7.577C31.3562 7.05567 31.2146 6.642 30.9312 6.336C30.6592 6.03 30.2909 5.877 29.8262 5.877C29.3616 5.877 28.9819 6.03 28.6872 6.336C28.3926 6.642 28.2452 7.05 28.2452 7.56V12.796C28.2452 12.8527 28.2226 12.9037 28.1772 12.949C28.1432 12.983 28.0979 13 28.0412 13H26.4942C26.4376 13 26.3866 12.983 26.3412 12.949C26.3072 12.9037 26.2902 12.8527 26.2902 12.796V7.577C26.2902 7.05567 26.1486 6.642 25.8652 6.336C25.5819 6.03 25.2079 5.877 24.7432 5.877C24.3126 5.877 23.9556 6.00167 23.6722 6.251C23.4002 6.50033 23.2416 6.84033 23.1962 7.271V12.796C23.1962 12.8527 23.1736 12.9037 23.1282 12.949C23.0942 12.983 23.0489 13 22.9922 13H21.4282C21.3716 13 21.3206 12.983 21.2752 12.949C21.2412 12.9037 21.2242 12.8527 21.2242 12.796V4.517C21.2242 4.46033 21.2412 4.415 21.2752 4.381C21.3206 4.33567 21.3716 4.313 21.4282 4.313H22.9922C23.0489 4.313 23.0942 4.33567 23.1282 4.381C23.1736 4.415 23.1962 4.46033 23.1962 4.517V5.078C23.1962 5.112 23.2076 5.13467 23.2302 5.146C23.2529 5.15733 23.2756 5.146 23.2982 5.112C23.5476 4.79467 23.8536 4.56233 24.2162 4.415C24.5902 4.25633 25.0039 4.177 25.4572 4.177C26.0126 4.177 26.4999 4.29033 26.9192 4.517C27.3386 4.74367 27.6616 5.07233 27.8882 5.503C27.9222 5.54833 27.9619 5.54833 28.0072 5.503C28.2566 5.04967 28.6022 4.71533 29.0442 4.5C29.4862 4.28467 29.9792 4.177 30.5232 4.177ZM42.9196 7.679C42.9649 7.96233 42.9876 8.27967 42.9876 8.631L42.9706 9.158C42.9706 9.294 42.9026 9.362 42.7666 9.362H37.4456C37.3889 9.362 37.3606 9.39033 37.3606 9.447C37.3946 9.821 37.4456 10.076 37.5136 10.212C37.7856 11.028 38.4486 11.4417 39.5026 11.453C40.2732 11.453 40.8852 11.1357 41.3386 10.501C41.3839 10.433 41.4406 10.399 41.5086 10.399C41.5539 10.399 41.5936 10.416 41.6276 10.45L42.6816 11.317C42.7836 11.3963 42.8006 11.487 42.7326 11.589C42.3812 12.0877 41.9109 12.473 41.3216 12.745C40.7436 13.017 40.0976 13.153 39.3836 13.153C38.4996 13.153 37.7459 12.9547 37.1226 12.558C36.5106 12.1613 36.0629 11.606 35.7796 10.892C35.5189 10.28 35.3886 9.43 35.3886 8.342C35.3886 7.68467 35.4566 7.152 35.5926 6.744C35.8192 5.95067 36.2442 5.32733 36.8676 4.874C37.5022 4.40933 38.2616 4.177 39.1456 4.177C41.3782 4.177 42.6362 5.34433 42.9196 7.679ZM39.1456 5.877C38.7262 5.877 38.3749 5.98467 38.0916 6.2C37.8196 6.404 37.6269 6.693 37.5136 7.067C37.4456 7.25967 37.4002 7.509 37.3776 7.815C37.3549 7.87167 37.3776 7.9 37.4456 7.9H40.8966C40.9532 7.9 40.9816 7.87167 40.9816 7.815C40.9589 7.53167 40.9249 7.31633 40.8796 7.169C40.7776 6.761 40.5736 6.44367 40.2676 6.217C39.9729 5.99033 39.5989 5.877 39.1456 5.877ZM52.4941 13.136C51.6215 13.136 50.8678 12.915 50.2331 12.473C49.5985 12.0197 49.1565 11.4133 48.9071 10.654C48.7258 10.144 48.6351 9.464 48.6351 8.614C48.6351 7.798 48.7258 7.12933 48.9071 6.608C49.1451 5.86 49.5815 5.27067 50.2161 4.84C50.8621 4.398 51.6215 4.177 52.4941 4.177C53.3781 4.177 54.1488 4.398 54.8061 4.84C55.4635 5.282 55.8998 5.83733 56.1151 6.506C56.1718 6.68733 56.2115 6.86867 56.2341 7.05V7.084C56.2341 7.19733 56.1718 7.26533 56.0471 7.288L54.5171 7.509H54.4831C54.3811 7.509 54.3131 7.45233 54.2791 7.339C54.2791 7.28233 54.2735 7.237 54.2621 7.203C54.2395 7.11233 54.2168 7.033 54.1941 6.965C54.0921 6.64767 53.8881 6.387 53.5821 6.183C53.2761 5.979 52.9135 5.877 52.4941 5.877C52.0635 5.877 51.6951 5.99033 51.3891 6.217C51.0945 6.43233 50.8961 6.73267 50.7941 7.118C50.6808 7.48067 50.6241 7.985 50.6241 8.631C50.6241 9.25433 50.6751 9.75867 50.7771 10.144C50.8905 10.5407 51.0945 10.858 51.3891 11.096C51.6838 11.3227 52.0521 11.436 52.4941 11.436C52.9248 11.436 53.2931 11.3283 53.5991 11.113C53.9165 10.8863 54.1205 10.586 54.2111 10.212C54.2225 10.1893 54.2281 10.161 54.2281 10.127C54.2395 10.1157 54.2451 10.0987 54.2451 10.076C54.2791 9.94 54.3585 9.88333 54.4831 9.906L56.0131 10.144C56.0698 10.1553 56.1151 10.1837 56.1491 10.229C56.1945 10.263 56.2115 10.314 56.2001 10.382C56.1661 10.5633 56.1378 10.6937 56.1151 10.773C55.8998 11.4983 55.4635 12.0763 54.8061 12.507C54.1488 12.9263 53.3781 13.136 52.4941 13.136ZM61.8504 13.136C60.9551 13.136 60.1844 12.9093 59.5384 12.456C58.9037 12.0027 58.4561 11.3737 58.1954 10.569C58.0027 9.957 57.9064 9.311 57.9064 8.631C57.9064 7.90567 57.9971 7.25967 58.1784 6.693C58.4391 5.89967 58.8924 5.282 59.5384 4.84C60.1844 4.398 60.9607 4.177 61.8674 4.177C62.7287 4.177 63.4711 4.398 64.0944 4.84C64.7291 5.282 65.1767 5.894 65.4374 6.676C65.6414 7.22 65.7434 7.866 65.7434 8.614C65.7434 9.328 65.6471 9.974 65.4544 10.552C65.1937 11.3567 64.7461 11.9913 64.1114 12.456C63.4767 12.9093 62.7231 13.136 61.8504 13.136ZM61.8504 11.436C62.2697 11.436 62.6267 11.317 62.9214 11.079C63.2274 10.841 63.4484 10.5067 63.5844 10.076C63.6977 9.702 63.7544 9.226 63.7544 8.648C63.7544 8.036 63.6977 7.56 63.5844 7.22C63.4597 6.78933 63.2444 6.46067 62.9384 6.234C62.6324 5.996 62.2584 5.877 61.8164 5.877C61.3971 5.877 61.0344 5.996 60.7284 6.234C60.4224 6.46067 60.2014 6.78933 60.0654 7.22C59.9521 7.61667 59.8954 8.09267 59.8954 8.648C59.8954 9.20333 59.9521 9.67933 60.0654 10.076C60.1901 10.5067 60.4054 10.841 60.7114 11.079C61.0287 11.317 61.4084 11.436 61.8504 11.436ZM71.9937 4.211C72.3563 4.211 72.6737 4.28467 72.9457 4.432C73.0363 4.47733 73.0703 4.56233 73.0477 4.687L72.7587 6.217C72.7473 6.353 72.668 6.39267 72.5207 6.336C72.3507 6.27933 72.1523 6.251 71.9257 6.251C71.7783 6.251 71.665 6.25667 71.5857 6.268C71.1097 6.29067 70.713 6.46067 70.3957 6.778C70.0783 7.084 69.9197 7.48633 69.9197 7.985V12.796C69.9197 12.8527 69.897 12.9037 69.8517 12.949C69.8177 12.983 69.7723 13 69.7157 13H68.1517C68.095 13 68.044 12.983 67.9987 12.949C67.9647 12.9037 67.9477 12.8527 67.9477 12.796V4.517C67.9477 4.46033 67.9647 4.415 67.9987 4.381C68.044 4.33567 68.095 4.313 68.1517 4.313H69.7157C69.7723 4.313 69.8177 4.33567 69.8517 4.381C69.897 4.415 69.9197 4.46033 69.9197 4.517V5.282C69.9197 5.32733 69.9253 5.35567 69.9367 5.367C69.9593 5.367 69.982 5.35 70.0047 5.316C70.4807 4.57933 71.1437 4.211 71.9937 4.211ZM82.0403 6.557C82.2443 7.135 82.3463 7.84333 82.3463 8.682C82.3463 9.48667 82.2499 10.178 82.0573 10.756C81.8079 11.504 81.4056 12.0877 80.8503 12.507C80.3063 12.9263 79.6149 13.136 78.7763 13.136C77.9716 13.136 77.3256 12.847 76.8383 12.269C76.8156 12.2463 76.7929 12.2407 76.7703 12.252C76.7476 12.2633 76.7363 12.286 76.7363 12.32V16.009C76.7363 16.0657 76.7136 16.111 76.6683 16.145C76.6343 16.1903 76.5889 16.213 76.5323 16.213H74.9683C74.9116 16.213 74.8606 16.1903 74.8153 16.145C74.7813 16.111 74.7643 16.0657 74.7643 16.009V4.517C74.7643 4.46033 74.7813 4.415 74.8153 4.381C74.8606 4.33567 74.9116 4.313 74.9683 4.313H76.5323C76.5889 4.313 76.6343 4.33567 76.6683 4.381C76.7136 4.415 76.7363 4.46033 76.7363 4.517V5.027C76.7363 5.061 76.7476 5.08367 76.7703 5.095C76.7929 5.10633 76.8156 5.095 76.8383 5.061C77.3369 4.47167 77.9886 4.177 78.7933 4.177C79.5979 4.177 80.2779 4.38667 80.8333 4.806C81.3886 5.22533 81.7909 5.809 82.0403 6.557ZM79.8303 10.722C80.1703 10.2007 80.3403 9.50933 80.3403 8.648C80.3403 7.82067 80.2043 7.169 79.9323 6.693C79.6149 6.13767 79.1333 5.86 78.4873 5.86C77.8979 5.86 77.4559 6.132 77.1613 6.676C76.9006 7.118 76.7703 7.77533 76.7703 8.648C76.7703 9.54333 76.9119 10.2233 77.1953 10.688C77.4899 11.1867 77.9149 11.436 78.4703 11.436C79.0709 11.436 79.5243 11.198 79.8303 10.722ZM88.5457 13C88.489 13 88.438 12.983 88.3927 12.949C88.3587 12.9037 88.3417 12.8527 88.3417 12.796V1.304C88.3417 1.24733 88.3587 1.202 88.3927 1.168C88.438 1.12267 88.489 1.1 88.5457 1.1H90.1097C90.1664 1.1 90.2117 1.12267 90.2457 1.168C90.291 1.202 90.3137 1.24733 90.3137 1.304V12.796C90.3137 12.8527 90.291 12.9037 90.2457 12.949C90.2117 12.983 90.1664 13 90.1097 13H88.5457ZM97.3561 5.707C97.3561 5.76367 97.3334 5.81467 97.2881 5.86C97.2541 5.894 97.2087 5.911 97.1521 5.911H95.4181C95.3614 5.911 95.3331 5.93933 95.3331 5.996V10.093C95.3331 10.5237 95.4237 10.8353 95.6051 11.028C95.7977 11.2207 96.0981 11.317 96.5061 11.317H97.0161C97.0727 11.317 97.1181 11.3397 97.1521 11.385C97.1974 11.419 97.2201 11.4643 97.2201 11.521V12.796C97.2201 12.9207 97.1521 12.9943 97.0161 13.017L96.1321 13.034C95.2367 13.034 94.5681 12.881 94.1261 12.575C93.6841 12.269 93.4574 11.691 93.4461 10.841V5.996C93.4461 5.93933 93.4177 5.911 93.3611 5.911H92.3921C92.3354 5.911 92.2844 5.894 92.2391 5.86C92.2051 5.81467 92.1881 5.76367 92.1881 5.707V4.517C92.1881 4.46033 92.2051 4.415 92.2391 4.381C92.2844 4.33567 92.3354 4.313 92.3921 4.313H93.3611C93.4177 4.313 93.4461 4.28467 93.4461 4.228V2.239C93.4461 2.18233 93.4631 2.137 93.4971 2.103C93.5424 2.05767 93.5934 2.035 93.6501 2.035H95.1291C95.1857 2.035 95.2311 2.05767 95.2651 2.103C95.3104 2.137 95.3331 2.18233 95.3331 2.239V4.228C95.3331 4.28467 95.3614 4.313 95.4181 4.313H97.1521C97.2087 4.313 97.2541 4.33567 97.2881 4.381C97.3334 4.415 97.3561 4.46033 97.3561 4.517V5.707ZM104.67 1.304C104.67 1.24733 104.687 1.202 104.721 1.168C104.767 1.12267 104.818 1.1 104.874 1.1H106.438C106.495 1.1 106.54 1.12267 106.574 1.168C106.62 1.202 106.642 1.24733 106.642 1.304V12.796C106.642 12.8527 106.62 12.9037 106.574 12.949C106.54 12.983 106.495 13 106.438 13H104.874C104.818 13 104.767 12.983 104.721 12.949C104.687 12.9037 104.67 12.8527 104.67 12.796V12.286C104.67 12.252 104.659 12.2293 104.636 12.218C104.614 12.2067 104.591 12.218 104.568 12.252C104.07 12.8413 103.418 13.136 102.613 13.136C101.809 13.136 101.129 12.9263 100.573 12.507C100.018 12.0877 99.6158 11.504 99.3665 10.756C99.1625 10.1213 99.0605 9.413 99.0605 8.631C99.0605 7.82633 99.1568 7.135 99.3495 6.557C99.5988 5.809 100.001 5.22533 100.556 4.806C101.112 4.38667 101.809 4.177 102.647 4.177C103.429 4.177 104.07 4.46033 104.568 5.027C104.591 5.04967 104.614 5.061 104.636 5.061C104.659 5.04967 104.67 5.027 104.67 4.993V1.304ZM104.262 10.62C104.523 10.1553 104.653 9.498 104.653 8.648C104.653 7.764 104.512 7.08967 104.228 6.625C103.922 6.12633 103.492 5.877 102.936 5.877C102.358 5.877 101.905 6.115 101.576 6.591C101.236 7.08967 101.066 7.781 101.066 8.665C101.066 9.45833 101.202 10.11 101.474 10.62C101.792 11.164 102.273 11.436 102.919 11.436C103.497 11.436 103.945 11.164 104.262 10.62Z" fill="#C2BEBE"/>
</svg>
