<svg width="149" height="17" viewBox="0 0 149 17" fill="none" xmlns="http://www.w3.org/2000/svg">
<path d="M0.710227 3.99006V1.45455H12.6562V3.99006H8.20312V16H5.16335V3.99006H0.710227ZM17.9563 16.2131C16.8342 16.2131 15.8683 15.9858 15.0586 15.5312C14.2537 15.072 13.6334 14.4233 13.1978 13.5852C12.7622 12.7424 12.5444 11.7457 12.5444 10.5952C12.5444 9.47301 12.7622 8.48816 13.1978 7.64062C13.6334 6.79309 14.2466 6.13258 15.0373 5.65909C15.8327 5.18561 16.7655 4.94886 17.8356 4.94886C18.5553 4.94886 19.2253 5.06487 19.8455 5.29688C20.4705 5.52415 21.015 5.86742 21.479 6.3267C21.9478 6.78598 22.3124 7.36364 22.5728 8.05966C22.8332 8.75095 22.9634 9.56061 22.9634 10.4886V11.3196H13.7518V9.4446H20.1154C20.1154 9.009 20.0207 8.62311 19.8313 8.28693C19.6419 7.95076 19.3791 7.68797 19.043 7.49858C18.7115 7.30445 18.3256 7.20739 17.8853 7.20739C17.426 7.20739 17.0188 7.31392 16.6637 7.52699C16.3133 7.73532 16.0387 8.01705 15.8398 8.37216C15.641 8.72254 15.5392 9.11316 15.5344 9.54403V11.3267C15.5344 11.8665 15.6339 12.3329 15.8327 12.7259C16.0363 13.1188 16.3228 13.4219 16.6921 13.6349C17.0614 13.848 17.4994 13.9545 18.006 13.9545C18.3422 13.9545 18.65 13.9072 18.9293 13.8125C19.2087 13.7178 19.4478 13.5758 19.6467 13.3864C19.8455 13.197 19.997 12.965 20.1012 12.6903L22.8995 12.875C22.7575 13.5473 22.4663 14.1345 22.0259 14.6364C21.5903 15.1335 21.0269 15.5218 20.3356 15.8011C19.649 16.0758 18.8559 16.2131 17.9563 16.2131ZM29.8668 16.2131C28.7494 16.2131 27.7882 15.9763 26.9833 15.5028C26.1831 15.0246 25.5676 14.3617 25.1367 13.5142C24.7106 12.6667 24.4975 11.6913 24.4975 10.5881C24.4975 9.47064 24.7129 8.49053 25.1438 7.64773C25.5794 6.80019 26.1973 6.13968 26.9975 5.66619C27.7977 5.18797 28.7494 4.94886 29.8526 4.94886C30.8043 4.94886 31.6377 5.12169 32.3526 5.46733C33.0676 5.81297 33.6334 6.2983 34.0501 6.9233C34.4667 7.5483 34.6964 8.2822 34.739 9.125H31.8839C31.8034 8.58049 31.5903 8.14252 31.2447 7.81108C30.9038 7.47491 30.4563 7.30682 29.9023 7.30682C29.4336 7.30682 29.024 7.43466 28.6737 7.69034C28.328 7.94129 28.0581 8.30824 27.864 8.79119C27.6699 9.27415 27.5728 9.8589 27.5728 10.5455C27.5728 11.2415 27.6675 11.8333 27.8569 12.321C28.051 12.8087 28.3233 13.1804 28.6737 13.4361C29.024 13.6918 29.4336 13.8196 29.9023 13.8196C30.248 13.8196 30.5581 13.7486 30.8327 13.6065C31.1121 13.4645 31.3417 13.2585 31.5217 12.9886C31.7063 12.714 31.8271 12.3849 31.8839 12.0014H34.739C34.6916 12.8348 34.4644 13.5687 34.0572 14.2031C33.6547 14.8329 33.0984 15.3253 32.3881 15.6804C31.6779 16.0355 30.8375 16.2131 29.8668 16.2131ZM39.7017 9.69318V16H36.6761V1.45455H39.6165V7.01562H39.7443C39.9905 6.37169 40.3883 5.86742 40.9375 5.50284C41.4867 5.13352 42.1757 4.94886 43.0043 4.94886C43.7618 4.94886 44.4223 5.11458 44.9858 5.44602C45.554 5.77273 45.9943 6.24384 46.3068 6.85938C46.6241 7.47017 46.7803 8.2017 46.7756 9.05398V16H43.75V9.59375C43.7547 8.9214 43.5843 8.3982 43.2386 8.02415C42.8977 7.65009 42.4195 7.46307 41.804 7.46307C41.392 7.46307 41.0275 7.55066 40.7102 7.72585C40.3977 7.90104 40.1515 8.15672 39.9716 8.4929C39.7964 8.82434 39.7064 9.22443 39.7017 9.69318ZM52.1822 9.69318V16H49.1566V5.09091H52.0401V7.01562H52.168C52.4094 6.38116 52.8143 5.87926 53.3825 5.50994C53.9506 5.13589 54.6396 4.94886 55.4492 4.94886C56.2068 4.94886 56.8673 5.11458 57.4308 5.44602C57.9942 5.77746 58.4322 6.25095 58.7447 6.86648C59.0572 7.47727 59.2134 8.20644 59.2134 9.05398V16H56.1879V9.59375C56.1926 8.92614 56.0221 8.4053 55.6765 8.03125C55.3308 7.65246 54.855 7.46307 54.2489 7.46307C53.8417 7.46307 53.4819 7.55066 53.1694 7.72585C52.8616 7.90104 52.6201 8.15672 52.445 8.4929C52.2745 8.82434 52.1869 9.22443 52.1822 9.69318ZM61.598 16V5.09091H64.6236V16H61.598ZM63.1179 3.68466C62.6681 3.68466 62.2822 3.53551 61.9602 3.23722C61.643 2.93419 61.4844 2.57197 61.4844 2.15057C61.4844 1.7339 61.643 1.37642 61.9602 1.07812C62.2822 0.775094 62.6681 0.623579 63.1179 0.623579C63.5677 0.623579 63.9512 0.775094 64.2685 1.07812C64.5904 1.37642 64.7514 1.7339 64.7514 2.15057C64.7514 2.57197 64.5904 2.93419 64.2685 3.23722C63.9512 3.53551 63.5677 3.68466 63.1179 3.68466ZM71.9762 16.2131C70.8588 16.2131 69.8976 15.9763 69.0927 15.5028C68.2925 15.0246 67.677 14.3617 67.2461 13.5142C66.82 12.6667 66.6069 11.6913 66.6069 10.5881C66.6069 9.47064 66.8223 8.49053 67.2532 7.64773C67.6888 6.80019 68.3067 6.13968 69.1069 5.66619C69.9071 5.18797 70.8588 4.94886 71.962 4.94886C72.9137 4.94886 73.747 5.12169 74.462 5.46733C75.177 5.81297 75.7428 6.2983 76.1594 6.9233C76.5761 7.5483 76.8058 8.2822 76.8484 9.125H73.9933C73.9128 8.58049 73.6997 8.14252 73.354 7.81108C73.0131 7.47491 72.5657 7.30682 72.0117 7.30682C71.543 7.30682 71.1334 7.43466 70.783 7.69034C70.4374 7.94129 70.1675 8.30824 69.9734 8.79119C69.7792 9.27415 69.6822 9.8589 69.6822 10.5455C69.6822 11.2415 69.7769 11.8333 69.9663 12.321C70.1604 12.8087 70.4326 13.1804 70.783 13.4361C71.1334 13.6918 71.543 13.8196 72.0117 13.8196C72.3574 13.8196 72.6675 13.7486 72.9421 13.6065C73.2215 13.4645 73.4511 13.2585 73.631 12.9886C73.8157 12.714 73.9364 12.3849 73.9933 12.0014H76.8484C76.801 12.8348 76.5737 13.5687 76.1665 14.2031C75.7641 14.8329 75.2077 15.3253 74.4975 15.6804C73.7873 16.0355 72.9469 16.2131 71.9762 16.2131ZM81.8963 16.206C81.2003 16.206 80.58 16.0852 80.0355 15.8438C79.491 15.5975 79.0601 15.2353 78.7429 14.7571C78.4304 14.2741 78.2741 13.6728 78.2741 12.9531C78.2741 12.3471 78.3854 11.8381 78.608 11.4261C78.8305 11.0142 79.1335 10.6828 79.517 10.4318C79.9006 10.1809 80.3362 9.99148 80.8239 9.86364C81.3163 9.7358 81.8324 9.64583 82.3722 9.59375C83.0066 9.52746 83.518 9.46591 83.9062 9.40909C84.2945 9.34754 84.5762 9.25758 84.7514 9.1392C84.9266 9.02083 85.0142 8.84564 85.0142 8.61364V8.57102C85.0142 8.12121 84.8722 7.7732 84.5881 7.52699C84.3087 7.28078 83.911 7.15767 83.3949 7.15767C82.8504 7.15767 82.4171 7.27841 82.0952 7.51989C81.7732 7.75663 81.5601 8.05492 81.456 8.41477L78.6577 8.1875C78.7997 7.52462 79.0791 6.9517 79.4957 6.46875C79.9124 5.98106 80.4498 5.60701 81.108 5.34659C81.7708 5.08144 82.5379 4.94886 83.4091 4.94886C84.0152 4.94886 84.5952 5.01989 85.1491 5.16193C85.7079 5.30398 86.2027 5.52415 86.6335 5.82244C87.0691 6.12074 87.4124 6.50426 87.6634 6.97301C87.9143 7.43703 88.0398 7.99337 88.0398 8.64205V16H85.1705V14.4872H85.0852C84.91 14.8281 84.6757 15.1288 84.3821 15.3892C84.0885 15.6449 83.7358 15.8461 83.3239 15.9929C82.9119 16.1349 82.4361 16.206 81.8963 16.206ZM82.7628 14.1179C83.2079 14.1179 83.6009 14.0303 83.9418 13.8551C84.2827 13.6752 84.5502 13.4337 84.7443 13.1307C84.9384 12.8277 85.0355 12.4844 85.0355 12.1009V10.9432C84.9408 11.0047 84.8106 11.0616 84.6449 11.1136C84.4839 11.161 84.3016 11.206 84.098 11.2486C83.8944 11.2865 83.6908 11.322 83.4872 11.3551C83.2836 11.3835 83.099 11.4096 82.9332 11.4332C82.5781 11.4853 82.268 11.5682 82.0028 11.6818C81.7377 11.7955 81.5317 11.9493 81.3849 12.1435C81.2382 12.3329 81.1648 12.5696 81.1648 12.8537C81.1648 13.2656 81.3139 13.5805 81.6122 13.7983C81.9152 14.0114 82.2988 14.1179 82.7628 14.1179ZM93.4126 1.45455V16H90.3871V1.45455H93.4126ZM109.542 8.2017L106.772 8.37216C106.725 8.13542 106.623 7.92235 106.467 7.73295C106.31 7.53883 106.104 7.38494 105.849 7.27131C105.598 7.15294 105.297 7.09375 104.947 7.09375C104.478 7.09375 104.083 7.19318 103.761 7.39205C103.439 7.58617 103.278 7.84659 103.278 8.1733C103.278 8.43371 103.382 8.65388 103.59 8.83381C103.799 9.01373 104.156 9.15814 104.663 9.26705L106.637 9.66477C107.698 9.88258 108.488 10.233 109.009 10.7159C109.53 11.1989 109.79 11.8333 109.79 12.6193C109.79 13.3343 109.58 13.9616 109.158 14.5014C108.742 15.0412 108.169 15.4626 107.44 15.7656C106.715 16.0639 105.879 16.2131 104.933 16.2131C103.488 16.2131 102.338 15.9124 101.481 15.3111C100.629 14.705 100.129 13.8812 99.9822 12.8395L102.958 12.6832C103.048 13.1236 103.266 13.4598 103.612 13.6918C103.957 13.919 104.4 14.0327 104.94 14.0327C105.47 14.0327 105.896 13.9309 106.218 13.7273C106.545 13.5189 106.71 13.2514 106.715 12.9247C106.71 12.6501 106.594 12.4252 106.367 12.25C106.14 12.0701 105.79 11.9328 105.316 11.8381L103.427 11.4616C102.362 11.2486 101.568 10.8793 101.048 10.3537C100.531 9.82812 100.273 9.15814 100.273 8.34375C100.273 7.64299 100.463 7.0393 100.842 6.53267C101.225 6.02604 101.763 5.63542 102.454 5.3608C103.15 5.08617 103.964 4.94886 104.897 4.94886C106.275 4.94886 107.359 5.24006 108.15 5.82244C108.945 6.40483 109.409 7.19792 109.542 8.2017ZM114.437 12.8608L114.444 9.23153H114.885L118.379 5.09091H121.852L117.157 10.5739H116.44L114.437 12.8608ZM111.696 16V1.45455H114.721V16H111.696ZM118.514 16L115.304 11.2486L117.321 9.1108L122.058 16H118.514ZM123.336 16V5.09091H126.362V16H123.336ZM124.856 3.68466C124.406 3.68466 124.02 3.53551 123.699 3.23722C123.381 2.93419 123.223 2.57197 123.223 2.15057C123.223 1.7339 123.381 1.37642 123.699 1.07812C124.02 0.775094 124.406 0.623579 124.856 0.623579C125.306 0.623579 125.69 0.775094 126.007 1.07812C126.329 1.37642 126.49 1.7339 126.49 2.15057C126.49 2.57197 126.329 2.93419 126.007 3.23722C125.69 3.53551 125.306 3.68466 124.856 3.68466ZM131.811 1.45455V16H128.786V1.45455H131.811ZM137.26 1.45455V16H134.235V1.45455H137.26ZM148.761 8.2017L145.991 8.37216C145.943 8.13542 145.842 7.92235 145.685 7.73295C145.529 7.53883 145.323 7.38494 145.067 7.27131C144.817 7.15294 144.516 7.09375 144.165 7.09375C143.697 7.09375 143.301 7.19318 142.979 7.39205C142.657 7.58617 142.496 7.84659 142.496 8.1733C142.496 8.43371 142.601 8.65388 142.809 8.83381C143.017 9.01373 143.375 9.15814 143.881 9.26705L145.856 9.66477C146.916 9.88258 147.707 10.233 148.228 10.7159C148.749 11.1989 149.009 11.8333 149.009 12.6193C149.009 13.3343 148.799 13.9616 148.377 14.5014C147.96 15.0412 147.388 15.4626 146.658 15.7656C145.934 16.0639 145.098 16.2131 144.151 16.2131C142.707 16.2131 141.557 15.9124 140.7 15.3111C139.847 14.705 139.348 13.8812 139.201 12.8395L142.177 12.6832C142.267 13.1236 142.485 13.4598 142.83 13.6918C143.176 13.919 143.619 14.0327 144.158 14.0327C144.689 14.0327 145.115 13.9309 145.437 13.7273C145.763 13.5189 145.929 13.2514 145.934 12.9247C145.929 12.6501 145.813 12.4252 145.586 12.25C145.359 12.0701 145.008 11.9328 144.535 11.8381L142.646 11.4616C141.58 11.2486 140.787 10.8793 140.266 10.3537C139.75 9.82812 139.492 9.15814 139.492 8.34375C139.492 7.64299 139.682 7.0393 140.06 6.53267C140.444 6.02604 140.981 5.63542 141.673 5.3608C142.369 5.08617 143.183 4.94886 144.116 4.94886C145.494 4.94886 146.578 5.24006 147.369 5.82244C148.164 6.40483 148.628 7.19792 148.761 8.2017Z" fill="#AFAFAF"/>
</svg>
