<svg width="182" height="45" viewBox="0 0 182 45" fill="none" xmlns="http://www.w3.org/2000/svg">
<path d="M2.88991 10L0.267756 0.545454H1.76811L3.61009 7.86719H3.6978L5.61364 0.545454H7.10014L9.01598 7.8718H9.10369L10.9411 0.545454H12.446L9.81925 10H8.38352L6.39382 2.91832H6.31996L4.33026 10H2.88991ZM16.2538 10.1431C15.5552 10.1431 14.9535 9.99384 14.4487 9.69531C13.9471 9.3937 13.5593 8.97053 13.2854 8.42578C13.0146 7.87796 12.8791 7.23627 12.8791 6.50071C12.8791 5.77438 13.0146 5.13423 13.2854 4.58026C13.5593 4.02628 13.9409 3.59387 14.4303 3.28303C14.9227 2.97218 15.4982 2.81676 16.1568 2.81676C16.5569 2.81676 16.9447 2.88293 17.3202 3.01527C17.6957 3.14761 18.0327 3.35535 18.3312 3.63849C18.6297 3.92164 18.8652 4.28942 19.0375 4.74183C19.2099 5.19117 19.296 5.73745 19.296 6.38068V6.87003H13.6593V5.83594H17.9434C17.9434 5.47277 17.8696 5.15116 17.7218 4.87109C17.5741 4.58795 17.3664 4.36482 17.0986 4.2017C16.8339 4.03859 16.5231 3.95703 16.1661 3.95703C15.7783 3.95703 15.4397 4.05244 15.1504 4.24325C14.8642 4.43099 14.6426 4.6772 14.4857 4.98189C14.3318 5.2835 14.2549 5.61127 14.2549 5.9652V6.77308C14.2549 7.24704 14.3379 7.65021 14.5041 7.9826C14.6734 8.31499 14.9089 8.56889 15.2105 8.74432C15.5121 8.91667 15.8645 9.00284 16.2676 9.00284C16.5292 9.00284 16.7678 8.96591 16.9832 8.89205C17.1986 8.8151 17.3848 8.70123 17.5418 8.55043C17.6987 8.39962 17.8188 8.21342 17.9019 7.99183L19.2083 8.22727C19.1037 8.61198 18.916 8.94898 18.6451 9.23828C18.3774 9.5245 18.0404 9.74763 17.6341 9.90767C17.2309 10.0646 16.7708 10.1431 16.2538 10.1431ZM27.7749 10.1431C27.1101 10.1431 26.5299 9.99077 26.0344 9.68608C25.5389 9.38139 25.1542 8.95514 24.8803 8.40732C24.6064 7.85949 24.4695 7.21934 24.4695 6.48686C24.4695 5.7513 24.6064 5.10807 24.8803 4.55717C25.1542 4.00627 25.5389 3.57848 26.0344 3.27379C26.5299 2.96911 27.1101 2.81676 27.7749 2.81676C28.4396 2.81676 29.0198 2.96911 29.5153 3.27379C30.0108 3.57848 30.3955 4.00627 30.6694 4.55717C30.9433 5.10807 31.0802 5.7513 31.0802 6.48686C31.0802 7.21934 30.9433 7.85949 30.6694 8.40732C30.3955 8.95514 30.0108 9.38139 29.5153 9.68608C29.0198 9.99077 28.4396 10.1431 27.7749 10.1431ZM27.7795 8.98438C28.2103 8.98438 28.5673 8.8705 28.8505 8.64276C29.1336 8.41501 29.3429 8.11186 29.4783 7.73331C29.6168 7.35476 29.6861 6.93774 29.6861 6.48224C29.6861 6.02983 29.6168 5.61435 29.4783 5.2358C29.3429 4.85417 29.1336 4.54794 28.8505 4.31712C28.5673 4.08629 28.2103 3.97088 27.7795 3.97088C27.3455 3.97088 26.9854 4.08629 26.6992 4.31712C26.4161 4.54794 26.2052 4.85417 26.0668 5.2358C25.9313 5.61435 25.8636 6.02983 25.8636 6.48224C25.8636 6.93774 25.9313 7.35476 26.0668 7.73331C26.2052 8.11186 26.4161 8.41501 26.6992 8.64276C26.9854 8.8705 27.3455 8.98438 27.7795 8.98438ZM36.2556 2.90909V4.01705H32.2485V2.90909H36.2556ZM33.3473 10V2.08736C33.3473 1.64418 33.4442 1.2764 33.6381 0.98402C33.832 0.688565 34.089 0.468513 34.4091 0.323864C34.7291 0.176136 35.0769 0.102272 35.4524 0.102272C35.7294 0.102272 35.9663 0.125355 36.1633 0.17152C36.3603 0.214607 36.5065 0.254616 36.6019 0.291548L36.2787 1.40874C36.2141 1.39027 36.131 1.36873 36.0294 1.34411C35.9279 1.31641 35.8048 1.30256 35.6601 1.30256C35.3247 1.30256 35.0846 1.38565 34.9399 1.55185C34.7984 1.71804 34.7276 1.9581 34.7276 2.27202V10H33.3473ZM41.3145 2.90909V4.01705H37.3074V2.90909H41.3145ZM38.4061 10V2.08736C38.4061 1.64418 38.503 1.2764 38.6969 0.98402C38.8908 0.688565 39.1478 0.468513 39.4679 0.323864C39.788 0.176136 40.1357 0.102272 40.5112 0.102272C40.7882 0.102272 41.0252 0.125355 41.2221 0.17152C41.4191 0.214607 41.5653 0.254616 41.6607 0.291548L41.3376 1.40874C41.2729 1.39027 41.1898 1.36873 41.0883 1.34411C40.9867 1.31641 40.8636 1.30256 40.7189 1.30256C40.3835 1.30256 40.1434 1.38565 39.9988 1.55185C39.8572 1.71804 39.7864 1.9581 39.7864 2.27202V10H38.4061ZM45.7755 10.1431C45.0768 10.1431 44.4752 9.99384 43.9704 9.69531C43.4688 9.3937 43.081 8.97053 42.8071 8.42578C42.5362 7.87796 42.4008 7.23627 42.4008 6.50071C42.4008 5.77438 42.5362 5.13423 42.8071 4.58026C43.081 4.02628 43.4626 3.59387 43.952 3.28303C44.4444 2.97218 45.0199 2.81676 45.6785 2.81676C46.0786 2.81676 46.4664 2.88293 46.8419 3.01527C47.2173 3.14761 47.5543 3.35535 47.8529 3.63849C48.1514 3.92164 48.3869 4.28942 48.5592 4.74183C48.7316 5.19117 48.8177 5.73745 48.8177 6.38068V6.87003H43.181V5.83594H47.4651C47.4651 5.47277 47.3912 5.15116 47.2435 4.87109C47.0958 4.58795 46.888 4.36482 46.6203 4.2017C46.3556 4.03859 46.0448 3.95703 45.6878 3.95703C45.3 3.95703 44.9614 4.05244 44.6721 4.24325C44.3859 4.43099 44.1643 4.6772 44.0074 4.98189C43.8535 5.2835 43.7765 5.61127 43.7765 5.9652V6.77308C43.7765 7.24704 43.8596 7.65021 44.0258 7.9826C44.1951 8.31499 44.4305 8.56889 44.7321 8.74432C45.0338 8.91667 45.3861 9.00284 45.7893 9.00284C46.0509 9.00284 46.2894 8.96591 46.5049 8.89205C46.7203 8.8151 46.9065 8.70123 47.0635 8.55043C47.2204 8.39962 47.3405 8.21342 47.4235 7.99183L48.73 8.22727C48.6254 8.61198 48.4376 8.94898 48.1668 9.23828C47.899 9.5245 47.562 9.74763 47.1558 9.90767C46.7526 10.0646 46.2925 10.1431 45.7755 10.1431ZM50.6092 10V2.90909H51.9434V4.03551H52.0173C52.1465 3.65388 52.3743 3.35381 52.7005 3.1353C53.0298 2.91371 53.4022 2.80291 53.8177 2.80291C53.9039 2.80291 54.0054 2.80599 54.1224 2.81214C54.2424 2.8183 54.3363 2.82599 54.404 2.83523V4.15554C54.3486 4.14015 54.2501 4.12322 54.1085 4.10476C53.967 4.08321 53.8254 4.07244 53.6838 4.07244C53.3576 4.07244 53.0667 4.14169 52.8113 4.28018C52.5589 4.4156 52.3589 4.60488 52.2112 4.84801C52.0634 5.08807 51.9896 5.36198 51.9896 5.66974V10H50.6092ZM62.5458 10.1431C61.881 10.1431 61.3009 9.99077 60.8054 9.68608C60.3099 9.38139 59.9252 8.95514 59.6513 8.40732C59.3773 7.85949 59.2404 7.21934 59.2404 6.48686C59.2404 5.7513 59.3773 5.10807 59.6513 4.55717C59.9252 4.00627 60.3099 3.57848 60.8054 3.27379C61.3009 2.96911 61.881 2.81676 62.5458 2.81676C63.2106 2.81676 63.7907 2.96911 64.2862 3.27379C64.7817 3.57848 65.1664 4.00627 65.4403 4.55717C65.7142 5.10807 65.8512 5.7513 65.8512 6.48686C65.8512 7.21934 65.7142 7.85949 65.4403 8.40732C65.1664 8.95514 64.7817 9.38139 64.2862 9.68608C63.7907 9.99077 63.2106 10.1431 62.5458 10.1431ZM62.5504 8.98438C62.9813 8.98438 63.3383 8.8705 63.6214 8.64276C63.9046 8.41501 64.1139 8.11186 64.2493 7.73331C64.3878 7.35476 64.457 6.93774 64.457 6.48224C64.457 6.02983 64.3878 5.61435 64.2493 5.2358C64.1139 4.85417 63.9046 4.54794 63.6214 4.31712C63.3383 4.08629 62.9813 3.97088 62.5504 3.97088C62.1165 3.97088 61.7564 4.08629 61.4701 4.31712C61.187 4.54794 60.9762 4.85417 60.8377 5.2358C60.7023 5.61435 60.6346 6.02983 60.6346 6.48224C60.6346 6.93774 60.7023 7.35476 60.8377 7.73331C60.9762 8.11186 61.187 8.41501 61.4701 8.64276C61.7564 8.8705 62.1165 8.98438 62.5504 8.98438ZM69.0323 5.78977V10H67.6519V2.90909H68.9769V4.06321H69.0646C69.2277 3.68774 69.4831 3.38613 69.8309 3.15838C70.1818 2.93063 70.6234 2.81676 71.1558 2.81676C71.639 2.81676 72.0622 2.91832 72.4254 3.12145C72.7885 3.3215 73.0701 3.62003 73.2702 4.01705C73.4702 4.41406 73.5703 4.90495 73.5703 5.4897V10H72.1899V5.65589C72.1899 5.14193 72.0561 4.74029 71.7883 4.45099C71.5205 4.15862 71.1528 4.01243 70.685 4.01243C70.3649 4.01243 70.0802 4.08168 69.8309 4.22017C69.5847 4.35866 69.3893 4.56179 69.2446 4.82955C69.103 5.09422 69.0323 5.4143 69.0323 5.78977ZM77.0618 0.545454V10H75.6815V0.545454H77.0618ZM79.1788 10V2.90909H80.5591V10H79.1788ZM79.8759 1.81499C79.6358 1.81499 79.4296 1.73497 79.2573 1.57493C79.088 1.41181 79.0033 1.21792 79.0033 0.993252C79.0033 0.765506 79.088 0.571614 79.2573 0.411576C79.4296 0.248461 79.6358 0.166903 79.8759 0.166903C80.1159 0.166903 80.3206 0.248461 80.4899 0.411576C80.6622 0.571614 80.7484 0.765506 80.7484 0.993252C80.7484 1.21792 80.6622 1.41181 80.4899 1.57493C80.3206 1.73497 80.1159 1.81499 79.8759 1.81499ZM84.0564 5.78977V10H82.6761V2.90909H84.001V4.06321H84.0887C84.2518 3.68774 84.5073 3.38613 84.8551 3.15838C85.2059 2.93063 85.6475 2.81676 86.18 2.81676C86.6632 2.81676 87.0863 2.91832 87.4495 3.12145C87.8127 3.3215 88.0943 3.62003 88.2943 4.01705C88.4944 4.41406 88.5944 4.90495 88.5944 5.4897V10H87.2141V5.65589C87.2141 5.14193 87.0802 4.74029 86.8124 4.45099C86.5447 4.15862 86.1769 4.01243 85.7091 4.01243C85.389 4.01243 85.1043 4.08168 84.8551 4.22017C84.6088 4.35866 84.4134 4.56179 84.2688 4.82955C84.1272 5.09422 84.0564 5.4143 84.0564 5.78977ZM93.7617 10.1431C93.0631 10.1431 92.4614 9.99384 91.9567 9.69531C91.455 9.3937 91.0672 8.97053 90.7933 8.42578C90.5225 7.87796 90.3871 7.23627 90.3871 6.50071C90.3871 5.77438 90.5225 5.13423 90.7933 4.58026C91.0672 4.02628 91.4489 3.59387 91.9382 3.28303C92.4306 2.97218 93.0062 2.81676 93.6648 2.81676C94.0649 2.81676 94.4526 2.88293 94.8281 3.01527C95.2036 3.14761 95.5406 3.35535 95.8391 3.63849C96.1377 3.92164 96.3731 4.28942 96.5455 4.74183C96.7178 5.19117 96.804 5.73745 96.804 6.38068V6.87003H91.1673V5.83594H95.4513C95.4513 5.47277 95.3775 5.15116 95.2298 4.87109C95.082 4.58795 94.8743 4.36482 94.6065 4.2017C94.3419 4.03859 94.031 3.95703 93.674 3.95703C93.2862 3.95703 92.9477 4.05244 92.6584 4.24325C92.3722 4.43099 92.1506 4.6772 91.9936 4.98189C91.8397 5.2835 91.7628 5.61127 91.7628 5.9652V6.77308C91.7628 7.24704 91.8459 7.65021 92.0121 7.9826C92.1813 8.31499 92.4168 8.56889 92.7184 8.74432C93.02 8.91667 93.3724 9.00284 93.7756 9.00284C94.0372 9.00284 94.2757 8.96591 94.4911 8.89205C94.7066 8.8151 94.8928 8.70123 95.0497 8.55043C95.2067 8.39962 95.3267 8.21342 95.4098 7.99183L96.7163 8.22727C96.6116 8.61198 96.4239 8.94898 96.153 9.23828C95.8853 9.5245 95.5483 9.74763 95.142 9.90767C94.7389 10.0646 94.2788 10.1431 93.7617 10.1431ZM105.283 10.1431C104.596 10.1431 104.006 9.98769 103.51 9.67685C103.018 9.36293 102.639 8.93052 102.374 8.37962C102.11 7.82872 101.977 7.1978 101.977 6.48686C101.977 5.76669 102.113 5.13115 102.384 4.58026C102.654 4.02628 103.036 3.59387 103.529 3.28303C104.021 2.97218 104.601 2.81676 105.269 2.81676C105.808 2.81676 106.288 2.91679 106.709 3.11683C107.131 3.3138 107.471 3.59079 107.73 3.9478C107.991 4.30481 108.147 4.72183 108.196 5.19886H106.852C106.779 4.86648 106.609 4.58026 106.345 4.3402C106.083 4.10014 105.732 3.98011 105.292 3.98011C104.907 3.98011 104.57 4.08168 104.281 4.2848C103.995 4.48485 103.772 4.77107 103.612 5.14347C103.452 5.51278 103.372 5.94981 103.372 6.45455C103.372 6.97159 103.45 7.41785 103.607 7.79332C103.764 8.1688 103.986 8.45964 104.272 8.66584C104.561 8.87204 104.901 8.97514 105.292 8.97514C105.554 8.97514 105.791 8.92744 106.003 8.83203C106.218 8.73355 106.398 8.59351 106.543 8.41193C106.691 8.23035 106.794 8.01184 106.852 7.75639H108.196C108.147 8.21496 107.997 8.62429 107.748 8.98438C107.499 9.34446 107.165 9.6276 106.746 9.83381C106.331 10.04 105.843 10.1431 105.283 10.1431ZM112.919 10.1431C112.254 10.1431 111.674 9.99077 111.178 9.68608C110.683 9.38139 110.298 8.95514 110.024 8.40732C109.75 7.85949 109.613 7.21934 109.613 6.48686C109.613 5.7513 109.75 5.10807 110.024 4.55717C110.298 4.00627 110.683 3.57848 111.178 3.27379C111.674 2.96911 112.254 2.81676 112.919 2.81676C113.584 2.81676 114.164 2.96911 114.659 3.27379C115.155 3.57848 115.539 4.00627 115.813 4.55717C116.087 5.10807 116.224 5.7513 116.224 6.48686C116.224 7.21934 116.087 7.85949 115.813 8.40732C115.539 8.95514 115.155 9.38139 114.659 9.68608C114.164 9.99077 113.584 10.1431 112.919 10.1431ZM112.923 8.98438C113.354 8.98438 113.711 8.8705 113.994 8.64276C114.278 8.41501 114.487 8.11186 114.622 7.73331C114.761 7.35476 114.83 6.93774 114.83 6.48224C114.83 6.02983 114.761 5.61435 114.622 5.2358C114.487 4.85417 114.278 4.54794 113.994 4.31712C113.711 4.08629 113.354 3.97088 112.923 3.97088C112.489 3.97088 112.129 4.08629 111.843 4.31712C111.56 4.54794 111.349 4.85417 111.211 5.2358C111.075 5.61435 111.008 6.02983 111.008 6.48224C111.008 6.93774 111.075 7.35476 111.211 7.73331C111.349 8.11186 111.56 8.41501 111.843 8.64276C112.129 8.8705 112.489 8.98438 112.923 8.98438ZM120.679 10.1385C120.107 10.1385 119.596 9.99231 119.147 9.69993C118.7 9.40447 118.35 8.98437 118.094 8.43963C117.842 7.89181 117.716 7.23473 117.716 6.46839C117.716 5.70206 117.843 5.04652 118.099 4.50178C118.357 3.95703 118.711 3.54001 119.161 3.25071C119.61 2.96141 120.119 2.81676 120.689 2.81676C121.129 2.81676 121.483 2.89062 121.75 3.03835C122.021 3.183 122.231 3.35227 122.378 3.54616C122.529 3.74006 122.646 3.91087 122.729 4.05859H122.812V0.545454H124.193V10H122.845V8.89666H122.729C122.646 9.04747 122.526 9.21982 122.369 9.41371C122.215 9.6076 122.003 9.77687 121.732 9.92152C121.461 10.0662 121.11 10.1385 120.679 10.1385ZM120.984 8.96129C121.381 8.96129 121.717 8.85665 121.99 8.64737C122.267 8.43501 122.477 8.1411 122.618 7.76562C122.763 7.39015 122.835 6.95312 122.835 6.45455C122.835 5.96212 122.764 5.53125 122.623 5.16193C122.481 4.79261 122.274 4.50485 122 4.29865C121.726 4.09245 121.387 3.98935 120.984 3.98935C120.569 3.98935 120.222 4.09706 119.945 4.3125C119.668 4.52794 119.459 4.82185 119.318 5.19425C119.179 5.56664 119.11 5.98674 119.11 6.45455C119.11 6.9285 119.181 7.35476 119.322 7.73331C119.464 8.11186 119.673 8.41193 119.95 8.63352C120.23 8.85204 120.575 8.96129 120.984 8.96129ZM126.423 10V2.90909H127.803V10H126.423ZM127.12 1.81499C126.88 1.81499 126.673 1.73497 126.501 1.57493C126.332 1.41181 126.247 1.21792 126.247 0.993252C126.247 0.765506 126.332 0.571614 126.501 0.411576C126.673 0.248461 126.88 0.166903 127.12 0.166903C127.36 0.166903 127.564 0.248461 127.734 0.411576C127.906 0.571614 127.992 0.765506 127.992 0.993252C127.992 1.21792 127.906 1.41181 127.734 1.57493C127.564 1.73497 127.36 1.81499 127.12 1.81499ZM131.3 5.78977V10H129.92V2.90909H131.245V4.06321H131.333C131.496 3.68774 131.751 3.38613 132.099 3.15838C132.45 2.93063 132.891 2.81676 133.424 2.81676C133.907 2.81676 134.33 2.91832 134.693 3.12145C135.057 3.3215 135.338 3.62003 135.538 4.01705C135.738 4.41406 135.838 4.90495 135.838 5.4897V10H134.458V5.65589C134.458 5.14193 134.324 4.74029 134.056 4.45099C133.789 4.15862 133.421 4.01243 132.953 4.01243C132.633 4.01243 132.348 4.08168 132.099 4.22017C131.853 4.35866 131.657 4.56179 131.513 4.82955C131.371 5.09422 131.3 5.4143 131.3 5.78977ZM140.922 12.8068C140.359 12.8068 139.875 12.733 139.468 12.5852C139.065 12.4375 138.736 12.2421 138.48 11.9989C138.225 11.7558 138.034 11.4896 137.908 11.2003L139.094 10.7109C139.177 10.8464 139.288 10.9895 139.427 11.1403C139.568 11.2942 139.759 11.425 139.999 11.5327C140.242 11.6404 140.555 11.6942 140.936 11.6942C141.46 11.6942 141.892 11.5665 142.234 11.3111C142.575 11.0587 142.746 10.6555 142.746 10.1016V8.70739H142.658C142.575 8.85819 142.455 9.02592 142.298 9.21058C142.144 9.39524 141.932 9.55528 141.661 9.6907C141.39 9.82611 141.038 9.89382 140.604 9.89382C140.044 9.89382 139.539 9.76302 139.09 9.50142C138.643 9.23674 138.29 8.84742 138.028 8.33345C137.769 7.81641 137.64 7.18087 137.64 6.42685C137.64 5.67282 137.768 5.02651 138.023 4.48793C138.282 3.94934 138.636 3.53693 139.085 3.25071C139.534 2.96141 140.044 2.81676 140.613 2.81676C141.053 2.81676 141.409 2.89062 141.68 3.03835C141.95 3.183 142.161 3.35227 142.312 3.54616C142.466 3.74006 142.584 3.91087 142.667 4.05859H142.769V2.90909H144.122V10.157C144.122 10.7663 143.98 11.2665 143.697 11.6573C143.414 12.0482 143.031 12.3375 142.547 12.5252C142.067 12.7129 141.526 12.8068 140.922 12.8068ZM140.909 8.74893C141.306 8.74893 141.641 8.65661 141.915 8.47195C142.192 8.28421 142.401 8.01645 142.543 7.66868C142.687 7.31783 142.76 6.89773 142.76 6.40838C142.76 5.93134 142.689 5.51125 142.547 5.14808C142.406 4.78492 142.198 4.50178 141.924 4.29865C141.65 4.09245 141.312 3.98935 140.909 3.98935C140.493 3.98935 140.147 4.09706 139.87 4.3125C139.593 4.52486 139.384 4.81416 139.242 5.1804C139.104 5.54664 139.034 5.95597 139.034 6.40838C139.034 6.87311 139.105 7.28089 139.247 7.63175C139.388 7.9826 139.598 8.25651 139.875 8.45348C140.155 8.65045 140.499 8.74893 140.909 8.74893ZM3.98402 26.1431C3.28539 26.1431 2.68371 25.9938 2.17898 25.6953C1.67732 25.3937 1.28954 24.9705 1.01562 24.4258C0.744792 23.878 0.609375 23.2363 0.609375 22.5007C0.609375 21.7744 0.744792 21.1342 1.01562 20.5803C1.28954 20.0263 1.67116 19.5939 2.16051 19.283C2.65294 18.9722 3.22846 18.8168 3.88707 18.8168C4.28717 18.8168 4.67495 18.8829 5.05043 19.0153C5.4259 19.1476 5.7629 19.3554 6.06143 19.6385C6.35997 19.9216 6.59541 20.2894 6.76776 20.7418C6.9401 21.1912 7.02628 21.7375 7.02628 22.3807V22.87H1.38956V21.8359H5.67365C5.67365 21.4728 5.59979 21.1512 5.45206 20.8711C5.30433 20.5879 5.09659 20.3648 4.82884 20.2017C4.56416 20.0386 4.25331 19.957 3.89631 19.957C3.50852 19.957 3.16998 20.0524 2.88068 20.2433C2.59446 20.431 2.37287 20.6772 2.21591 20.9819C2.06203 21.2835 1.98509 21.6113 1.98509 21.9652V22.7731C1.98509 23.247 2.06818 23.6502 2.23438 23.9826C2.40365 24.315 2.63909 24.5689 2.9407 24.7443C3.24231 24.9167 3.5947 25.0028 3.99787 25.0028C4.25947 25.0028 4.49799 24.9659 4.71342 24.892C4.92886 24.8151 5.11506 24.7012 5.27202 24.5504C5.42898 24.3996 5.54901 24.2134 5.6321 23.9918L6.93857 24.2273C6.83393 24.612 6.64619 24.949 6.37536 25.2383C6.1076 25.5245 5.7706 25.7476 5.36435 25.9077C4.96117 26.0646 4.50107 26.1431 3.98402 26.1431ZM10.1981 21.7898V26H8.8178V18.9091H10.1427V20.0632H10.2304C10.3936 19.6877 10.649 19.3861 10.9968 19.1584C11.3476 18.9306 11.7893 18.8168 12.3217 18.8168C12.8049 18.8168 13.2281 18.9183 13.5912 19.1214C13.9544 19.3215 14.236 19.62 14.436 20.017C14.6361 20.4141 14.7361 20.9049 14.7361 21.4897V26H13.3558V21.6559C13.3558 21.1419 13.2219 20.7403 12.9542 20.451C12.6864 20.1586 12.3186 20.0124 11.8508 20.0124C11.5307 20.0124 11.2461 20.0817 10.9968 20.2202C10.7506 20.3587 10.5551 20.5618 10.4105 20.8295C10.2689 21.0942 10.1981 21.4143 10.1981 21.7898ZM22.6595 18.9091L20.0881 26H18.6108L16.0348 18.9091H17.5167L19.3125 24.3658H19.3864L21.1776 18.9091H22.6595ZM24.2167 26V18.9091H25.597V26H24.2167ZM24.9138 17.815C24.6737 17.815 24.4675 17.735 24.2952 17.5749C24.1259 17.4118 24.0413 17.2179 24.0413 16.9933C24.0413 16.7655 24.1259 16.5716 24.2952 16.4116C24.4675 16.2485 24.6737 16.1669 24.9138 16.1669C25.1538 16.1669 25.3585 16.2485 25.5278 16.4116C25.7001 16.5716 25.7863 16.7655 25.7863 16.9933C25.7863 17.2179 25.7001 17.4118 25.5278 17.5749C25.3585 17.735 25.1538 17.815 24.9138 17.815ZM27.714 26V18.9091H29.0482V20.0355H29.122C29.2513 19.6539 29.479 19.3538 29.8053 19.1353C30.1346 18.9137 30.507 18.8029 30.9225 18.8029C31.0086 18.8029 31.1102 18.806 31.2271 18.8121C31.3472 18.8183 31.441 18.826 31.5088 18.8352V20.1555C31.4534 20.1402 31.3549 20.1232 31.2133 20.1048C31.0717 20.0832 30.9302 20.0724 30.7886 20.0724C30.4623 20.0724 30.1715 20.1417 29.9161 20.2802C29.6637 20.4156 29.4637 20.6049 29.3159 20.848C29.1682 21.0881 29.0943 21.362 29.0943 21.6697V26H27.714ZM35.6962 26.1431C35.0314 26.1431 34.4513 25.9908 33.9558 25.6861C33.4603 25.3814 33.0756 24.9551 32.8017 24.4073C32.5278 23.8595 32.3908 23.2193 32.3908 22.4869C32.3908 21.7513 32.5278 21.1081 32.8017 20.5572C33.0756 20.0063 33.4603 19.5785 33.9558 19.2738C34.4513 18.9691 35.0314 18.8168 35.6962 18.8168C36.361 18.8168 36.9411 18.9691 37.4366 19.2738C37.9321 19.5785 38.3168 20.0063 38.5907 20.5572C38.8647 21.1081 39.0016 21.7513 39.0016 22.4869C39.0016 23.2193 38.8647 23.8595 38.5907 24.4073C38.3168 24.9551 37.9321 25.3814 37.4366 25.6861C36.9411 25.9908 36.361 26.1431 35.6962 26.1431ZM35.7008 24.9844C36.1317 24.9844 36.4887 24.8705 36.7719 24.6428C37.055 24.415 37.2643 24.1119 37.3997 23.7333C37.5382 23.3548 37.6074 22.9377 37.6074 22.4822C37.6074 22.0298 37.5382 21.6143 37.3997 21.2358C37.2643 20.8542 37.055 20.5479 36.7719 20.3171C36.4887 20.0863 36.1317 19.9709 35.7008 19.9709C35.2669 19.9709 34.9068 20.0863 34.6206 20.3171C34.3374 20.5479 34.1266 20.8542 33.9881 21.2358C33.8527 21.6143 33.785 22.0298 33.785 22.4822C33.785 22.9377 33.8527 23.3548 33.9881 23.7333C34.1266 24.1119 34.3374 24.415 34.6206 24.6428C34.9068 24.8705 35.2669 24.9844 35.7008 24.9844ZM42.1827 21.7898V26H40.8024V18.9091H42.1273V20.0632H42.215C42.3781 19.6877 42.6336 19.3861 42.9813 19.1584C43.3322 18.9306 43.7738 18.8168 44.3063 18.8168C44.7895 18.8168 45.2126 18.9183 45.5758 19.1214C45.939 19.3215 46.2206 19.62 46.4206 20.017C46.6207 20.4141 46.7207 20.9049 46.7207 21.4897V26H45.3404V21.6559C45.3404 21.1419 45.2065 20.7403 44.9387 20.451C44.671 20.1586 44.3032 20.0124 43.8354 20.0124C43.5153 20.0124 43.2306 20.0817 42.9813 20.2202C42.7351 20.3587 42.5397 20.5618 42.3951 20.8295C42.2535 21.0942 42.1827 21.4143 42.1827 21.7898ZM48.8319 26V18.9091H50.1568V20.0632H50.2445C50.3923 19.6723 50.6339 19.3677 50.9693 19.1491C51.3048 18.9276 51.7064 18.8168 52.1742 18.8168C52.6482 18.8168 53.0452 18.9276 53.3653 19.1491C53.6884 19.3707 53.9269 19.6754 54.0808 20.0632H54.1547C54.324 19.6847 54.5933 19.383 54.9626 19.1584C55.3319 18.9306 55.772 18.8168 56.2829 18.8168C56.9261 18.8168 57.4509 19.0183 57.8571 19.4215C58.2664 19.8247 58.4711 20.4325 58.4711 21.245V26H57.0908V21.3743C57.0908 20.8942 56.96 20.5464 56.6984 20.331C56.4368 20.1155 56.1244 20.0078 55.7612 20.0078C55.3119 20.0078 54.9626 20.1463 54.7133 20.4233C54.464 20.6972 54.3394 21.0496 54.3394 21.4805V26H52.9636V21.2866C52.9636 20.9019 52.8436 20.5926 52.6036 20.3587C52.3635 20.1248 52.0511 20.0078 51.6664 20.0078C51.4048 20.0078 51.1632 20.0771 50.9416 20.2156C50.7231 20.351 50.5461 20.5402 50.4107 20.7834C50.2784 21.0265 50.2122 21.3081 50.2122 21.6282V26H48.8319ZM63.6373 26.1431C62.9386 26.1431 62.337 25.9938 61.8322 25.6953C61.3306 25.3937 60.9428 24.9705 60.6689 24.4258C60.398 23.878 60.2626 23.2363 60.2626 22.5007C60.2626 21.7744 60.398 21.1342 60.6689 20.5803C60.9428 20.0263 61.3244 19.5939 61.8138 19.283C62.3062 18.9722 62.8817 18.8168 63.5403 18.8168C63.9404 18.8168 64.3282 18.8829 64.7037 19.0153C65.0791 19.1476 65.4161 19.3554 65.7147 19.6385C66.0132 19.9216 66.2487 20.2894 66.421 20.7418C66.5933 21.1912 66.6795 21.7375 66.6795 22.3807V22.87H61.0428V21.8359H65.3269C65.3269 21.4728 65.253 21.1512 65.1053 20.8711C64.9576 20.5879 64.7498 20.3648 64.4821 20.2017C64.2174 20.0386 63.9066 19.957 63.5496 19.957C63.1618 19.957 62.8232 20.0524 62.5339 20.2433C62.2477 20.431 62.0261 20.6772 61.8692 20.9819C61.7153 21.2835 61.6383 21.6113 61.6383 21.9652V22.7731C61.6383 23.247 61.7214 23.6502 61.8876 23.9826C62.0569 24.315 62.2923 24.5689 62.5939 24.7443C62.8955 24.9167 63.2479 25.0028 63.6511 25.0028C63.9127 25.0028 64.1512 24.9659 64.3667 24.892C64.5821 24.8151 64.7683 24.7012 64.9253 24.5504C65.0822 24.3996 65.2022 24.2134 65.2853 23.9918L66.5918 24.2273C66.4872 24.612 66.2994 24.949 66.0286 25.2383C65.7608 25.5245 65.4238 25.7476 65.0176 25.9077C64.6144 26.0646 64.1543 26.1431 63.6373 26.1431ZM69.8514 21.7898V26H68.471V18.9091H69.796V20.0632H69.8837C70.0468 19.6877 70.3022 19.3861 70.65 19.1584C71.0009 18.9306 71.4425 18.8168 71.9749 18.8168C72.4581 18.8168 72.8813 18.9183 73.2445 19.1214C73.6076 19.3215 73.8892 19.62 74.0893 20.017C74.2893 20.4141 74.3894 20.9049 74.3894 21.4897V26H73.009V21.6559C73.009 21.1419 72.8752 20.7403 72.6074 20.451C72.3396 20.1586 71.9719 20.0124 71.5041 20.0124C71.184 20.0124 70.8993 20.0817 70.65 20.2202C70.4038 20.3587 70.2084 20.5618 70.0637 20.8295C69.9221 21.0942 69.8514 21.4143 69.8514 21.7898ZM79.8106 18.9091V20.017H75.9374V18.9091H79.8106ZM76.9761 17.2102H78.3564V23.918C78.3564 24.1857 78.3964 24.3873 78.4764 24.5227C78.5564 24.6551 78.6595 24.7459 78.7857 24.7951C78.915 24.8413 79.055 24.8643 79.2058 24.8643C79.3166 24.8643 79.4136 24.8567 79.4967 24.8413C79.5798 24.8259 79.6444 24.8136 79.6906 24.8043L79.9398 25.9446C79.8598 25.9754 79.746 26.0062 79.5982 26.0369C79.4505 26.0708 79.2658 26.0893 79.0442 26.0923C78.6811 26.0985 78.3425 26.0339 78.0286 25.8984C77.7147 25.763 77.4608 25.5537 77.2669 25.2706C77.073 24.9875 76.9761 24.632 76.9761 24.2042V17.2102ZM86.7968 20.6403L85.5457 20.8619C85.4934 20.7018 85.4103 20.5495 85.2964 20.4048C85.1856 20.2602 85.0348 20.1417 84.844 20.0494C84.6532 19.957 84.4147 19.9109 84.1285 19.9109C83.7376 19.9109 83.4114 19.9986 83.1498 20.174C82.8882 20.3464 82.7574 20.5695 82.7574 20.8434C82.7574 21.0804 82.8451 21.2712 83.0205 21.4158C83.1959 21.5605 83.4791 21.679 83.8699 21.7713L84.9964 22.0298C85.6488 22.1806 86.1351 22.413 86.4552 22.7269C86.7752 23.0408 86.9353 23.4486 86.9353 23.9503C86.9353 24.375 86.8122 24.7536 86.566 25.0859C86.3228 25.4152 85.9828 25.6738 85.5457 25.8615C85.1118 26.0492 84.6086 26.1431 84.0361 26.1431C83.2421 26.1431 82.5943 25.9738 82.0926 25.6353C81.5909 25.2937 81.2832 24.8089 81.1693 24.1811L82.5035 23.978C82.5866 24.3258 82.7574 24.5889 83.0159 24.7674C83.2744 24.9428 83.6114 25.0305 84.0269 25.0305C84.4793 25.0305 84.8409 24.9367 85.1118 24.7489C85.3826 24.5581 85.518 24.3258 85.518 24.0518C85.518 23.8303 85.4349 23.6441 85.2687 23.4933C85.1056 23.3424 84.8548 23.2286 84.5163 23.1516L83.316 22.8885C82.6543 22.7377 82.1649 22.4976 81.8479 22.1683C81.534 21.839 81.377 21.422 81.377 20.9173C81.377 20.4987 81.494 20.1325 81.7279 19.8185C81.9618 19.5046 82.285 19.2599 82.6974 19.0845C83.1098 18.906 83.5822 18.8168 84.1146 18.8168C84.881 18.8168 85.4842 18.983 85.9243 19.3153C86.3644 19.6446 86.6552 20.0863 86.7968 20.6403ZM95.788 18.9091V20.017H91.7809V18.9091H95.788ZM92.8796 26V18.0874C92.8796 17.6442 92.9766 17.2764 93.1705 16.984C93.3644 16.6886 93.6214 16.4685 93.9414 16.3239C94.2615 16.1761 94.6093 16.1023 94.9848 16.1023C95.2617 16.1023 95.4987 16.1254 95.6957 16.1715C95.8927 16.2146 96.0389 16.2546 96.1343 16.2915L95.8111 17.4087C95.7465 17.3903 95.6634 17.3687 95.5618 17.3441C95.4603 17.3164 95.3371 17.3026 95.1925 17.3026C94.857 17.3026 94.617 17.3857 94.4723 17.5518C94.3308 17.718 94.26 17.9581 94.26 18.272V26H92.8796ZM100.18 26.1431C99.515 26.1431 98.9349 25.9908 98.4394 25.6861C97.9439 25.3814 97.5592 24.9551 97.2852 24.4073C97.0113 23.8595 96.8744 23.2193 96.8744 22.4869C96.8744 21.7513 97.0113 21.1081 97.2852 20.5572C97.5592 20.0063 97.9439 19.5785 98.4394 19.2738C98.9349 18.9691 99.515 18.8168 100.18 18.8168C100.845 18.8168 101.425 18.9691 101.92 19.2738C102.416 19.5785 102.8 20.0063 103.074 20.5572C103.348 21.1081 103.485 21.7513 103.485 22.4869C103.485 23.2193 103.348 23.8595 103.074 24.4073C102.8 24.9551 102.416 25.3814 101.92 25.6861C101.425 25.9908 100.845 26.1431 100.18 26.1431ZM100.184 24.9844C100.615 24.9844 100.972 24.8705 101.255 24.6428C101.539 24.415 101.748 24.1119 101.883 23.7333C102.022 23.3548 102.091 22.9377 102.091 22.4822C102.091 22.0298 102.022 21.6143 101.883 21.2358C101.748 20.8542 101.539 20.5479 101.255 20.3171C100.972 20.0863 100.615 19.9709 100.184 19.9709C99.7504 19.9709 99.3904 20.0863 99.1041 20.3171C98.821 20.5479 98.6102 20.8542 98.4717 21.2358C98.3363 21.6143 98.2686 22.0298 98.2686 22.4822C98.2686 22.9377 98.3363 23.3548 98.4717 23.7333C98.6102 24.1119 98.821 24.415 99.1041 24.6428C99.3904 24.8705 99.7504 24.9844 100.184 24.9844ZM105.286 26V18.9091H106.62V20.0355H106.694C106.823 19.6539 107.051 19.3538 107.377 19.1353C107.706 18.9137 108.079 18.8029 108.494 18.8029C108.581 18.8029 108.682 18.806 108.799 18.8121C108.919 18.8183 109.013 18.826 109.081 18.8352V20.1555C109.025 20.1402 108.927 20.1232 108.785 20.1048C108.644 20.0832 108.502 20.0724 108.36 20.0724C108.034 20.0724 107.743 20.1417 107.488 20.2802C107.236 20.4156 107.036 20.6049 106.888 20.848C106.74 21.0881 106.666 21.362 106.666 21.6697V26H105.286ZM114.236 26V18.9091H115.616V26H114.236ZM114.933 17.815C114.693 17.815 114.486 17.735 114.314 17.5749C114.145 17.4118 114.06 17.2179 114.06 16.9933C114.06 16.7655 114.145 16.5716 114.314 16.4116C114.486 16.2485 114.693 16.1669 114.933 16.1669C115.173 16.1669 115.377 16.2485 115.547 16.4116C115.719 16.5716 115.805 16.7655 115.805 16.9933C115.805 17.2179 115.719 17.4118 115.547 17.5749C115.377 17.735 115.173 17.815 114.933 17.815ZM119.113 21.7898V26H117.733V18.9091H119.058V20.0632H119.146C119.309 19.6877 119.564 19.3861 119.912 19.1584C120.263 18.9306 120.704 18.8168 121.237 18.8168C121.72 18.8168 122.143 18.9183 122.506 19.1214C122.87 19.3215 123.151 19.62 123.351 20.017C123.551 20.4141 123.651 20.9049 123.651 21.4897V26H122.271V21.6559C122.271 21.1419 122.137 20.7403 121.869 20.451C121.602 20.1586 121.234 20.0124 120.766 20.0124C120.446 20.0124 120.161 20.0817 119.912 20.2202C119.666 20.3587 119.47 20.5618 119.326 20.8295C119.184 21.0942 119.113 21.4143 119.113 21.7898ZM129.072 18.9091V20.017H125.199V18.9091H129.072ZM126.238 17.2102H127.618V23.918C127.618 24.1857 127.658 24.3873 127.738 24.5227C127.818 24.6551 127.921 24.7459 128.048 24.7951C128.177 24.8413 128.317 24.8643 128.468 24.8643C128.578 24.8643 128.675 24.8567 128.759 24.8413C128.842 24.8259 128.906 24.8136 128.952 24.8043L129.202 25.9446C129.122 25.9754 129.008 26.0062 128.86 26.0369C128.712 26.0708 128.528 26.0893 128.306 26.0923C127.943 26.0985 127.604 26.0339 127.29 25.8984C126.977 25.763 126.723 25.5537 126.529 25.2706C126.335 24.9875 126.238 24.632 126.238 24.2042V17.2102ZM133.839 26.1431C133.141 26.1431 132.539 25.9938 132.034 25.6953C131.533 25.3937 131.145 24.9705 130.871 24.4258C130.6 23.878 130.465 23.2363 130.465 22.5007C130.465 21.7744 130.6 21.1342 130.871 20.5803C131.145 20.0263 131.526 19.5939 132.016 19.283C132.508 18.9722 133.084 18.8168 133.742 18.8168C134.142 18.8168 134.53 18.8829 134.906 19.0153C135.281 19.1476 135.618 19.3554 135.917 19.6385C136.215 19.9216 136.451 20.2894 136.623 20.7418C136.795 21.1912 136.882 21.7375 136.882 22.3807V22.87H131.245V21.8359H135.529C135.529 21.4728 135.455 21.1512 135.307 20.8711C135.16 20.5879 134.952 20.3648 134.684 20.2017C134.419 20.0386 134.109 19.957 133.752 19.957C133.364 19.957 133.025 20.0524 132.736 20.2433C132.45 20.431 132.228 20.6772 132.071 20.9819C131.917 21.2835 131.84 21.6113 131.84 21.9652V22.7731C131.84 23.247 131.923 23.6502 132.09 23.9826C132.259 24.315 132.494 24.5689 132.796 24.7443C133.098 24.9167 133.45 25.0028 133.853 25.0028C134.115 25.0028 134.353 24.9659 134.569 24.892C134.784 24.8151 134.97 24.7012 135.127 24.5504C135.284 24.3996 135.404 24.2134 135.487 23.9918L136.794 24.2273C136.689 24.612 136.501 24.949 136.231 25.2383C135.963 25.5245 135.626 25.7476 135.22 25.9077C134.816 26.0646 134.356 26.1431 133.839 26.1431ZM138.673 26V18.9091H140.007V20.0355H140.081C140.21 19.6539 140.438 19.3538 140.764 19.1353C141.094 18.9137 141.466 18.8029 141.882 18.8029C141.968 18.8029 142.069 18.806 142.186 18.8121C142.306 18.8183 142.4 18.826 142.468 18.8352V20.1555C142.412 20.1402 142.314 20.1232 142.172 20.1048C142.031 20.0832 141.889 20.0724 141.748 20.0724C141.421 20.0724 141.131 20.1417 140.875 20.2802C140.623 20.4156 140.423 20.6049 140.275 20.848C140.127 21.0881 140.053 21.362 140.053 21.6697V26H138.673ZM145.922 26.157C145.473 26.157 145.067 26.0739 144.704 25.9077C144.341 25.7384 144.053 25.4937 143.84 25.1737C143.631 24.8536 143.526 24.4612 143.526 23.9964C143.526 23.5964 143.603 23.267 143.757 23.0085C143.911 22.75 144.119 22.5453 144.381 22.3945C144.642 22.2437 144.934 22.1299 145.258 22.0529C145.581 21.976 145.91 21.9175 146.246 21.8775C146.67 21.8282 147.015 21.7882 147.28 21.7575C147.544 21.7236 147.737 21.6697 147.857 21.5959C147.977 21.522 148.037 21.402 148.037 21.2358V21.2035C148.037 20.8003 147.923 20.4879 147.695 20.2663C147.47 20.0447 147.135 19.9339 146.689 19.9339C146.224 19.9339 145.858 20.037 145.59 20.2433C145.325 20.4464 145.142 20.6726 145.041 20.9219L143.743 20.6264C143.897 20.1955 144.122 19.8478 144.417 19.5831C144.716 19.3153 145.059 19.1214 145.447 19.0014C145.835 18.8783 146.242 18.8168 146.67 18.8168C146.953 18.8168 147.254 18.8506 147.57 18.9183C147.891 18.983 148.189 19.103 148.466 19.2784C148.746 19.4538 148.975 19.7047 149.154 20.0309C149.332 20.354 149.422 20.7741 149.422 21.2912V26H148.074V25.0305H148.018C147.929 25.209 147.795 25.3845 147.617 25.5568C147.438 25.7292 147.209 25.8723 146.929 25.9862C146.649 26.1 146.313 26.157 145.922 26.157ZM146.222 25.049C146.604 25.049 146.93 24.9736 147.201 24.8228C147.475 24.672 147.683 24.475 147.824 24.2319C147.969 23.9857 148.041 23.7225 148.041 23.4425V22.5284C147.992 22.5777 147.897 22.6238 147.755 22.6669C147.617 22.7069 147.458 22.7423 147.28 22.7731C147.101 22.8008 146.927 22.8269 146.758 22.8516C146.589 22.8731 146.447 22.8916 146.333 22.907C146.066 22.9408 145.821 22.9978 145.599 23.0778C145.381 23.1578 145.205 23.2732 145.073 23.424C144.944 23.5717 144.879 23.7687 144.879 24.0149C144.879 24.3565 145.005 24.6151 145.258 24.7905C145.51 24.9628 145.832 25.049 146.222 25.049ZM154.507 26.1431C153.821 26.1431 153.23 25.9877 152.734 25.6768C152.242 25.3629 151.863 24.9305 151.599 24.3796C151.334 23.8287 151.202 23.1978 151.202 22.4869C151.202 21.7667 151.337 21.1312 151.608 20.5803C151.879 20.0263 152.26 19.5939 152.753 19.283C153.245 18.9722 153.825 18.8168 154.493 18.8168C155.032 18.8168 155.512 18.9168 155.934 19.1168C156.355 19.3138 156.695 19.5908 156.954 19.9478C157.215 20.3048 157.371 20.7218 157.42 21.1989H156.077C156.003 20.8665 155.834 20.5803 155.569 20.3402C155.307 20.1001 154.956 19.9801 154.516 19.9801C154.132 19.9801 153.795 20.0817 153.505 20.2848C153.219 20.4848 152.996 20.7711 152.836 21.1435C152.676 21.5128 152.596 21.9498 152.596 22.4545C152.596 22.9716 152.674 23.4179 152.831 23.7933C152.988 24.1688 153.21 24.4596 153.496 24.6658C153.785 24.872 154.125 24.9751 154.516 24.9751C154.778 24.9751 155.015 24.9274 155.227 24.832C155.443 24.7335 155.623 24.5935 155.767 24.4119C155.915 24.2304 156.018 24.0118 156.077 23.7564H157.42C157.371 24.215 157.222 24.6243 156.972 24.9844C156.723 25.3445 156.389 25.6276 155.97 25.8338C155.555 26.04 155.067 26.1431 154.507 26.1431ZM162.466 18.9091V20.017H158.593V18.9091H162.466ZM159.632 17.2102H161.012V23.918C161.012 24.1857 161.052 24.3873 161.132 24.5227C161.212 24.6551 161.315 24.7459 161.441 24.7951C161.571 24.8413 161.711 24.8643 161.861 24.8643C161.972 24.8643 162.069 24.8567 162.152 24.8413C162.235 24.8259 162.3 24.8136 162.346 24.8043L162.595 25.9446C162.515 25.9754 162.402 26.0062 162.254 26.0369C162.106 26.0708 161.921 26.0893 161.7 26.0923C161.337 26.0985 160.998 26.0339 160.684 25.8984C160.37 25.763 160.116 25.5537 159.923 25.2706C159.729 24.9875 159.632 24.632 159.632 24.2042V17.2102ZM164.253 26V18.9091H165.633V26H164.253ZM164.95 17.815C164.71 17.815 164.504 17.735 164.332 17.5749C164.162 17.4118 164.078 17.2179 164.078 16.9933C164.078 16.7655 164.162 16.5716 164.332 16.4116C164.504 16.2485 164.71 16.1669 164.95 16.1669C165.19 16.1669 165.395 16.2485 165.564 16.4116C165.737 16.5716 165.823 16.7655 165.823 16.9933C165.823 17.2179 165.737 17.4118 165.564 17.5749C165.395 17.735 165.19 17.815 164.95 17.815ZM173.816 18.9091L171.245 26H169.768L167.192 18.9091H168.674L170.47 24.3658H170.543L172.335 18.9091H173.816ZM178.189 26.1431C177.49 26.1431 176.888 25.9938 176.384 25.6953C175.882 25.3937 175.494 24.9705 175.22 24.4258C174.949 23.878 174.814 23.2363 174.814 22.5007C174.814 21.7744 174.949 21.1342 175.22 20.5803C175.494 20.0263 175.876 19.5939 176.365 19.283C176.858 18.9722 177.433 18.8168 178.092 18.8168C178.492 18.8168 178.88 18.8829 179.255 19.0153C179.63 19.1476 179.967 19.3554 180.266 19.6385C180.565 19.9216 180.8 20.2894 180.972 20.7418C181.145 21.1912 181.231 21.7375 181.231 22.3807V22.87H175.594V21.8359H179.878C179.878 21.4728 179.804 21.1512 179.657 20.8711C179.509 20.5879 179.301 20.3648 179.033 20.2017C178.769 20.0386 178.458 19.957 178.101 19.957C177.713 19.957 177.375 20.0524 177.085 20.2433C176.799 20.431 176.577 20.6772 176.42 20.9819C176.267 21.2835 176.19 21.6113 176.19 21.9652V22.7731C176.19 23.247 176.273 23.6502 176.439 23.9826C176.608 24.315 176.844 24.5689 177.145 24.7443C177.447 24.9167 177.799 25.0028 178.202 25.0028C178.464 25.0028 178.703 24.9659 178.918 24.892C179.133 24.8151 179.32 24.7012 179.477 24.5504C179.634 24.3996 179.754 24.2134 179.837 23.9918L181.143 24.2273C181.038 24.612 180.851 24.949 180.58 25.2383C180.312 25.5245 179.975 25.7476 179.569 25.9077C179.166 26.0646 178.706 26.1431 178.189 26.1431ZM0.927912 44.6591V34.9091H2.27592V36.0586H2.39134C2.47135 35.9109 2.58677 35.7401 2.73757 35.5462C2.88838 35.3523 3.09766 35.183 3.36541 35.0384C3.63317 34.8906 3.9871 34.8168 4.4272 34.8168C4.99965 34.8168 5.51054 34.9614 5.95987 35.2507C6.40921 35.54 6.7616 35.957 7.01705 36.5018C7.27557 37.0465 7.40483 37.7021 7.40483 38.4684C7.40483 39.2347 7.27711 39.8918 7.02166 40.4396C6.76622 40.9844 6.41536 41.4045 5.96911 41.6999C5.52285 41.9923 5.01349 42.1385 4.44105 42.1385C4.01018 42.1385 3.65779 42.0662 3.38388 41.9215C3.11304 41.7769 2.90069 41.6076 2.7468 41.4137C2.59292 41.2198 2.47443 41.0475 2.39134 40.8967H2.30824V44.6591H0.927912ZM2.28054 38.4545C2.28054 38.9531 2.35286 39.3902 2.49751 39.7656C2.64216 40.1411 2.85144 40.435 3.12536 40.6474C3.39927 40.8567 3.73473 40.9613 4.13175 40.9613C4.54415 40.9613 4.88885 40.852 5.16584 40.6335C5.44283 40.4119 5.65211 40.1119 5.79368 39.7333C5.93833 39.3548 6.01065 38.9285 6.01065 38.4545C6.01065 37.9867 5.93987 37.5666 5.7983 37.1942C5.6598 36.8219 5.45052 36.5279 5.17045 36.3125C4.89347 36.0971 4.54723 35.9893 4.13175 35.9893C3.73165 35.9893 3.39311 36.0924 3.11612 36.2987C2.84221 36.5049 2.63447 36.7926 2.4929 37.1619C2.35133 37.5312 2.28054 37.9621 2.28054 38.4545ZM9.21135 42V34.9091H10.5455V36.0355H10.6194C10.7486 35.6539 10.9764 35.3538 11.3026 35.1353C11.6319 34.9137 12.0043 34.8029 12.4198 34.8029C12.506 34.8029 12.6075 34.806 12.7245 34.8121C12.8445 34.8183 12.9384 34.826 13.0061 34.8352V36.1555C12.9507 36.1402 12.8522 36.1232 12.7106 36.1048C12.5691 36.0832 12.4275 36.0724 12.2859 36.0724C11.9597 36.0724 11.6689 36.1417 11.4134 36.2802C11.161 36.4156 10.961 36.6049 10.8133 36.848C10.6655 37.0881 10.5917 37.362 10.5917 37.6697V42H9.21135ZM17.1936 42.1431C16.5288 42.1431 15.9487 41.9908 15.4532 41.6861C14.9576 41.3814 14.5729 40.9551 14.299 40.4073C14.0251 39.8595 13.8882 39.2193 13.8882 38.4869C13.8882 37.7513 14.0251 37.1081 14.299 36.5572C14.5729 36.0063 14.9576 35.5785 15.4532 35.2738C15.9487 34.9691 16.5288 34.8168 17.1936 34.8168C17.8583 34.8168 18.4385 34.9691 18.934 35.2738C19.4295 35.5785 19.8142 36.0063 20.0881 36.5572C20.362 37.1081 20.499 37.7513 20.499 38.4869C20.499 39.2193 20.362 39.8595 20.0881 40.4073C19.8142 40.9551 19.4295 41.3814 18.934 41.6861C18.4385 41.9908 17.8583 42.1431 17.1936 42.1431ZM17.1982 40.9844C17.6291 40.9844 17.9861 40.8705 18.2692 40.6428C18.5523 40.415 18.7616 40.1119 18.897 39.7333C19.0355 39.3548 19.1048 38.9377 19.1048 38.4822C19.1048 38.0298 19.0355 37.6143 18.897 37.2358C18.7616 36.8542 18.5523 36.5479 18.2692 36.3171C17.9861 36.0863 17.6291 35.9709 17.1982 35.9709C16.7642 35.9709 16.4041 36.0863 16.1179 36.3171C15.8348 36.5479 15.624 36.8542 15.4855 37.2358C15.35 37.6143 15.2823 38.0298 15.2823 38.4822C15.2823 38.9377 15.35 39.3548 15.4855 39.7333C15.624 40.1119 15.8348 40.415 16.1179 40.6428C16.4041 40.8705 16.7642 40.9844 17.1982 40.9844ZM25.2727 44.8068C24.7095 44.8068 24.2248 44.733 23.8185 44.5852C23.4154 44.4375 23.086 44.2421 22.8306 43.9989C22.5752 43.7558 22.3843 43.4896 22.2582 43.2003L23.4446 42.7109C23.5277 42.8464 23.6385 42.9895 23.777 43.1403C23.9186 43.2942 24.1094 43.425 24.3494 43.5327C24.5926 43.6404 24.9049 43.6942 25.2866 43.6942C25.8098 43.6942 26.2422 43.5665 26.5838 43.3111C26.9254 43.0587 27.0962 42.6555 27.0962 42.1016V40.7074H27.0085C26.9254 40.8582 26.8054 41.0259 26.6484 41.2106C26.4945 41.3952 26.2822 41.5553 26.0114 41.6907C25.7405 41.8261 25.3881 41.8938 24.9542 41.8938C24.3941 41.8938 23.8893 41.763 23.44 41.5014C22.9937 41.2367 22.6398 40.8474 22.3782 40.3335C22.1197 39.8164 21.9904 39.1809 21.9904 38.4268C21.9904 37.6728 22.1181 37.0265 22.3736 36.4879C22.6321 35.9493 22.986 35.5369 23.4354 35.2507C23.8847 34.9614 24.3941 34.8168 24.9634 34.8168C25.4035 34.8168 25.759 34.8906 26.0298 35.0384C26.3007 35.183 26.5115 35.3523 26.6623 35.5462C26.8162 35.7401 26.9347 35.9109 27.0177 36.0586H27.1193V34.9091H28.4719V42.157C28.4719 42.7663 28.3304 43.2665 28.0472 43.6573C27.7641 44.0482 27.3809 44.3375 26.8977 44.5252C26.4176 44.7129 25.8759 44.8068 25.2727 44.8068ZM25.2589 40.7489C25.6559 40.7489 25.9914 40.6566 26.2653 40.4719C26.5423 40.2842 26.7515 40.0165 26.8931 39.6687C27.0378 39.3178 27.1101 38.8977 27.1101 38.4084C27.1101 37.9313 27.0393 37.5112 26.8977 37.1481C26.7561 36.7849 26.5484 36.5018 26.2745 36.2987C26.0006 36.0924 25.662 35.9893 25.2589 35.9893C24.8434 35.9893 24.4972 36.0971 24.2202 36.3125C23.9432 36.5249 23.7339 36.8142 23.5923 37.1804C23.4538 37.5466 23.3846 37.956 23.3846 38.4084C23.3846 38.8731 23.4554 39.2809 23.5969 39.6317C23.7385 39.9826 23.9478 40.2565 24.2248 40.4535C24.5048 40.6504 24.8495 40.7489 25.2589 40.7489ZM30.5831 42V34.9091H31.9173V36.0355H31.9912C32.1204 35.6539 32.3482 35.3538 32.6744 35.1353C33.0037 34.9137 33.3761 34.8029 33.7916 34.8029C33.8778 34.8029 33.9793 34.806 34.0963 34.8121C34.2163 34.8183 34.3102 34.826 34.3779 34.8352V36.1555C34.3225 36.1402 34.224 36.1232 34.0824 36.1048C33.9409 36.0832 33.7993 36.0724 33.6577 36.0724C33.3315 36.0724 33.0407 36.1417 32.7852 36.2802C32.5328 36.4156 32.3328 36.6049 32.1851 36.848C32.0373 37.0881 31.9635 37.362 31.9635 37.6697V42H30.5831ZM37.8325 42.157C37.3832 42.157 36.9769 42.0739 36.6137 41.9077C36.2506 41.7384 35.9628 41.4937 35.7505 41.1737C35.5412 40.8536 35.4365 40.4612 35.4365 39.9964C35.4365 39.5964 35.5135 39.267 35.6674 39.0085C35.8212 38.75 36.029 38.5453 36.2906 38.3945C36.5522 38.2437 36.8446 38.1299 37.1677 38.0529C37.4909 37.976 37.8202 37.9175 38.1556 37.8775C38.5804 37.8282 38.9251 37.7882 39.1897 37.7575C39.4544 37.7236 39.6468 37.6697 39.7668 37.5959C39.8868 37.522 39.9468 37.402 39.9468 37.2358V37.2035C39.9468 36.8003 39.833 36.4879 39.6052 36.2663C39.3806 36.0447 39.0451 35.9339 38.5988 35.9339C38.1341 35.9339 37.7679 36.037 37.5001 36.2433C37.2354 36.4464 37.0523 36.6726 36.9507 36.9219L35.6535 36.6264C35.8074 36.1955 36.0321 35.8478 36.3275 35.5831C36.6261 35.3153 36.9692 35.1214 37.357 35.0014C37.7448 34.8783 38.1526 34.8168 38.5804 34.8168C38.8635 34.8168 39.1636 34.8506 39.4806 34.9183C39.8007 34.983 40.0992 35.103 40.3762 35.2784C40.6562 35.4538 40.8855 35.7047 41.064 36.0309C41.2425 36.354 41.3318 36.7741 41.3318 37.2912V42H39.9838V41.0305H39.9284C39.8391 41.209 39.7052 41.3845 39.5267 41.5568C39.3482 41.7292 39.119 41.8723 38.8389 41.9862C38.5588 42.1 38.2234 42.157 37.8325 42.157ZM38.1326 41.049C38.5142 41.049 38.8404 40.9736 39.1113 40.8228C39.3852 40.672 39.5929 40.475 39.7345 40.2319C39.8791 39.9857 39.9515 39.7225 39.9515 39.4425V38.5284C39.9022 38.5777 39.8068 38.6238 39.6652 38.6669C39.5267 38.7069 39.3682 38.7423 39.1897 38.7731C39.0112 38.8008 38.8373 38.8269 38.6681 38.8516C38.4988 38.8731 38.3572 38.8916 38.2434 38.907C37.9756 38.9408 37.7309 38.9978 37.5093 39.0778C37.2908 39.1578 37.1154 39.2732 36.9831 39.424C36.8538 39.5717 36.7892 39.7687 36.7892 40.0149C36.7892 40.3565 36.9154 40.6151 37.1677 40.7905C37.4201 40.9628 37.7417 41.049 38.1326 41.049ZM43.4303 42V34.9091H44.7552V36.0632H44.8429C44.9907 35.6723 45.2323 35.3677 45.5677 35.1491C45.9032 34.9276 46.3048 34.8168 46.7726 34.8168C47.2466 34.8168 47.6436 34.9276 47.9637 35.1491C48.2868 35.3707 48.5253 35.6754 48.6792 36.0632H48.7531C48.9224 35.6847 49.1917 35.383 49.561 35.1584C49.9303 34.9306 50.3704 34.8168 50.8813 34.8168C51.5245 34.8168 52.0493 35.0183 52.4555 35.4215C52.8648 35.8247 53.0695 36.4325 53.0695 37.245V42H51.6892V37.3743C51.6892 36.8942 51.5584 36.5464 51.2968 36.331C51.0352 36.1155 50.7228 36.0078 50.3596 36.0078C49.9103 36.0078 49.561 36.1463 49.3117 36.4233C49.0624 36.6972 48.9378 37.0496 48.9378 37.4805V42H47.562V37.2866C47.562 36.9019 47.442 36.5926 47.202 36.3587C46.9619 36.1248 46.6495 36.0078 46.2648 36.0078C46.0032 36.0078 45.7616 36.0771 45.54 36.2156C45.3215 36.351 45.1445 36.5402 45.0091 36.7834C44.8768 37.0265 44.8106 37.3081 44.8106 37.6282V42H43.4303ZM55.1796 42V34.9091H56.5045V36.0632H56.5922C56.7399 35.6723 56.9815 35.3677 57.317 35.1491C57.6524 34.9276 58.0541 34.8168 58.5219 34.8168C58.9958 34.8168 59.3929 34.9276 59.7129 35.1491C60.0361 35.3707 60.2746 35.6754 60.4285 36.0632H60.5024C60.6716 35.6847 60.9409 35.383 61.3102 35.1584C61.6796 34.9306 62.1197 34.8168 62.6305 34.8168C63.2738 34.8168 63.7985 35.0183 64.2048 35.4215C64.6141 35.8247 64.8188 36.4325 64.8188 37.245V42H63.4384V37.3743C63.4384 36.8942 63.3076 36.5464 63.046 36.331C62.7844 36.1155 62.472 36.0078 62.1089 36.0078C61.6595 36.0078 61.3102 36.1463 61.0609 36.4233C60.8117 36.6972 60.687 37.0496 60.687 37.4805V42H59.3113V37.2866C59.3113 36.9019 59.1913 36.5926 58.9512 36.3587C58.7112 36.1248 58.3988 36.0078 58.0141 36.0078C57.7525 36.0078 57.5109 36.0771 57.2893 36.2156C57.0708 36.351 56.8938 36.5402 56.7584 36.7834C56.626 37.0265 56.5599 37.3081 56.5599 37.6282V42H55.1796ZM66.9288 42V34.9091H68.3091V42H66.9288ZM67.6259 33.815C67.3858 33.815 67.1796 33.735 67.0073 33.5749C66.838 33.4118 66.7534 33.2179 66.7534 32.9933C66.7534 32.7655 66.838 32.5716 67.0073 32.4116C67.1796 32.2485 67.3858 32.1669 67.6259 32.1669C67.866 32.1669 68.0706 32.2485 68.2399 32.4116C68.4122 32.5716 68.4984 32.7655 68.4984 32.9933C68.4984 33.2179 68.4122 33.4118 68.2399 33.5749C68.0706 33.735 67.866 33.815 67.6259 33.815ZM71.8064 37.7898V42H70.4261V34.9091H71.751V36.0632H71.8388C72.0019 35.6877 72.2573 35.3861 72.6051 35.1584C72.9559 34.9306 73.3976 34.8168 73.93 34.8168C74.4132 34.8168 74.8364 34.9183 75.1995 35.1214C75.5627 35.3215 75.8443 35.62 76.0444 36.017C76.2444 36.4141 76.3444 36.9049 76.3444 37.4897V42H74.9641V37.6559C74.9641 37.1419 74.8302 36.7403 74.5625 36.451C74.2947 36.1586 73.9269 36.0124 73.4591 36.0124C73.1391 36.0124 72.8544 36.0817 72.6051 36.2202C72.3589 36.3587 72.1634 36.5618 72.0188 36.8295C71.8772 37.0942 71.8064 37.4143 71.8064 37.7898ZM81.4287 44.8068C80.8654 44.8068 80.3807 44.733 79.9745 44.5852C79.5713 44.4375 79.242 44.2421 78.9865 43.9989C78.7311 43.7558 78.5403 43.4896 78.4141 43.2003L79.6005 42.7109C79.6836 42.8464 79.7944 42.9895 79.9329 43.1403C80.0745 43.2942 80.2653 43.425 80.5054 43.5327C80.7485 43.6404 81.0609 43.6942 81.4425 43.6942C81.9657 43.6942 82.3981 43.5665 82.7397 43.3111C83.0814 43.0587 83.2522 42.6555 83.2522 42.1016V40.7074H83.1645C83.0814 40.8582 82.9613 41.0259 82.8044 41.2106C82.6505 41.3952 82.4381 41.5553 82.1673 41.6907C81.8965 41.8261 81.5441 41.8938 81.1101 41.8938C80.55 41.8938 80.0453 41.763 79.5959 41.5014C79.1497 41.2367 78.7957 40.8474 78.5341 40.3335C78.2756 39.8164 78.1463 39.1809 78.1463 38.4268C78.1463 37.6728 78.2741 37.0265 78.5295 36.4879C78.788 35.9493 79.142 35.5369 79.5913 35.2507C80.0406 34.9614 80.55 34.8168 81.1194 34.8168C81.5595 34.8168 81.9149 34.8906 82.1858 35.0384C82.4566 35.183 82.6674 35.3523 82.8182 35.5462C82.9721 35.7401 83.0906 35.9109 83.1737 36.0586H83.2752V34.9091H84.6279V42.157C84.6279 42.7663 84.4863 43.2665 84.2032 43.6573C83.92 44.0482 83.5368 44.3375 83.0537 44.5252C82.5735 44.7129 82.0319 44.8068 81.4287 44.8068ZM81.4148 40.7489C81.8118 40.7489 82.1473 40.6566 82.4212 40.4719C82.6982 40.2842 82.9075 40.0165 83.049 39.6687C83.1937 39.3178 83.266 38.8977 83.266 38.4084C83.266 37.9313 83.1952 37.5112 83.0537 37.1481C82.9121 36.7849 82.7043 36.5018 82.4304 36.2987C82.1565 36.0924 81.818 35.9893 81.4148 35.9893C80.9993 35.9893 80.6531 36.0971 80.3761 36.3125C80.0991 36.5249 79.8898 36.8142 79.7483 37.1804C79.6098 37.5466 79.5405 37.956 79.5405 38.4084C79.5405 38.8731 79.6113 39.2809 79.7529 39.6317C79.8944 39.9826 80.1037 40.2565 80.3807 40.4535C80.6608 40.6504 81.0055 40.7489 81.4148 40.7489ZM93.4956 42.1431C92.797 42.1431 92.1953 41.9938 91.6906 41.6953C91.1889 41.3937 90.8011 40.9705 90.5272 40.4258C90.2564 39.878 90.121 39.2363 90.121 38.5007C90.121 37.7744 90.2564 37.1342 90.5272 36.5803C90.8011 36.0263 91.1828 35.5939 91.6721 35.283C92.1645 34.9722 92.7401 34.8168 93.3987 34.8168C93.7988 34.8168 94.1866 34.8829 94.562 35.0153C94.9375 35.1476 95.2745 35.3554 95.573 35.6385C95.8716 35.9216 96.107 36.2894 96.2794 36.7418C96.4517 37.1912 96.5379 37.7375 96.5379 38.3807V38.87H90.9012V37.8359H95.1853C95.1853 37.4728 95.1114 37.1512 94.9637 36.8711C94.8159 36.5879 94.6082 36.3648 94.3404 36.2017C94.0758 36.0386 93.7649 35.957 93.4079 35.957C93.0201 35.957 92.6816 36.0524 92.3923 36.2433C92.1061 36.431 91.8845 36.6772 91.7275 36.9819C91.5736 37.2835 91.4967 37.6113 91.4967 37.9652V38.7731C91.4967 39.247 91.5798 39.6502 91.746 39.9826C91.9153 40.315 92.1507 40.5689 92.4523 40.7443C92.7539 40.9167 93.1063 41.0028 93.5095 41.0028C93.7711 41.0028 94.0096 40.9659 94.225 40.892C94.4405 40.8151 94.6267 40.7012 94.7836 40.5504C94.9406 40.3996 95.0606 40.2134 95.1437 39.9918L96.4502 40.2273C96.3455 40.612 96.1578 40.949 95.887 41.2383C95.6192 41.5245 95.2822 41.7476 94.876 41.9077C94.4728 42.0646 94.0127 42.1431 93.4956 42.1431ZM100.984 42.1385C100.411 42.1385 99.9005 41.9923 99.4512 41.6999C99.0049 41.4045 98.6541 40.9844 98.3986 40.4396C98.1463 39.8918 98.0201 39.2347 98.0201 38.4684C98.0201 37.7021 98.1478 37.0465 98.4033 36.5018C98.6618 35.957 99.0157 35.54 99.465 35.2507C99.9144 34.9614 100.424 34.8168 100.993 34.8168C101.433 34.8168 101.787 34.8906 102.055 35.0384C102.326 35.183 102.535 35.3523 102.683 35.5462C102.834 35.7401 102.95 35.9109 103.034 36.0586H103.117V32.5455H104.497V42H103.149V40.8967H103.034C102.95 41.0475 102.83 41.2198 102.673 41.4137C102.52 41.6076 102.307 41.7769 102.036 41.9215C101.766 42.0662 101.415 42.1385 100.984 42.1385ZM101.289 40.9613C101.686 40.9613 102.021 40.8567 102.295 40.6474C102.572 40.435 102.781 40.1411 102.923 39.7656C103.067 39.3902 103.14 38.9531 103.14 38.4545C103.14 37.9621 103.069 37.5312 102.927 37.1619C102.786 36.7926 102.578 36.5049 102.304 36.2987C102.03 36.0924 101.692 35.9893 101.289 35.9893C100.873 35.9893 100.527 36.0971 100.25 36.3125C99.9729 36.5279 99.7636 36.8219 99.622 37.1942C99.4835 37.5666 99.4143 37.9867 99.4143 38.4545C99.4143 38.9285 99.4851 39.3548 99.6266 39.7333C99.7682 40.1119 99.9775 40.4119 100.254 40.6335C100.535 40.852 100.879 40.9613 101.289 40.9613ZM111.219 39.0593V34.9091H112.604V42H111.247V40.772H111.173C111.01 41.1506 110.748 41.466 110.388 41.7184C110.031 41.9677 109.586 42.0923 109.054 42.0923C108.598 42.0923 108.195 41.9923 107.844 41.7923C107.497 41.5891 107.223 41.2891 107.023 40.892C106.826 40.495 106.727 40.0041 106.727 39.4194V34.9091H108.107V39.2532C108.107 39.7364 108.241 40.1211 108.509 40.4073C108.777 40.6935 109.125 40.8366 109.552 40.8366C109.811 40.8366 110.068 40.772 110.323 40.6428C110.582 40.5135 110.796 40.3181 110.965 40.0565C111.137 39.7949 111.222 39.4625 111.219 39.0593ZM117.705 42.1431C117.019 42.1431 116.428 41.9877 115.933 41.6768C115.44 41.3629 115.062 40.9305 114.797 40.3796C114.532 39.8287 114.4 39.1978 114.4 38.4869C114.4 37.7667 114.535 37.1312 114.806 36.5803C115.077 36.0263 115.459 35.5939 115.951 35.283C116.444 34.9722 117.024 34.8168 117.692 34.8168C118.23 34.8168 118.71 34.9168 119.132 35.1168C119.554 35.3138 119.894 35.5908 120.152 35.9478C120.414 36.3048 120.569 36.7218 120.618 37.1989H119.275C119.201 36.8665 119.032 36.5803 118.767 36.3402C118.506 36.1001 118.155 35.9801 117.715 35.9801C117.33 35.9801 116.993 36.0817 116.704 36.2848C116.417 36.4848 116.194 36.7711 116.034 37.1435C115.874 37.5128 115.794 37.9498 115.794 38.4545C115.794 38.9716 115.873 39.4179 116.03 39.7933C116.187 40.1688 116.408 40.4596 116.694 40.6658C116.984 40.872 117.324 40.9751 117.715 40.9751C117.976 40.9751 118.213 40.9274 118.426 40.832C118.641 40.7335 118.821 40.5935 118.966 40.4119C119.113 40.2304 119.217 40.0118 119.275 39.7564H120.618C120.569 40.215 120.42 40.6243 120.171 40.9844C119.921 41.3445 119.587 41.6276 119.169 41.8338C118.753 42.04 118.266 42.1431 117.705 42.1431ZM124.418 42.157C123.969 42.157 123.562 42.0739 123.199 41.9077C122.836 41.7384 122.548 41.4937 122.336 41.1737C122.127 40.8536 122.022 40.4612 122.022 39.9964C122.022 39.5964 122.099 39.267 122.253 39.0085C122.407 38.75 122.615 38.5453 122.876 38.3945C123.138 38.2437 123.43 38.1299 123.753 38.0529C124.076 37.976 124.406 37.9175 124.741 37.8775C125.166 37.8282 125.511 37.7882 125.775 37.7575C126.04 37.7236 126.232 37.6697 126.352 37.5959C126.472 37.522 126.532 37.402 126.532 37.2358V37.2035C126.532 36.8003 126.419 36.4879 126.191 36.2663C125.966 36.0447 125.631 35.9339 125.184 35.9339C124.72 35.9339 124.353 36.037 124.086 36.2433C123.821 36.4464 123.638 36.6726 123.536 36.9219L122.239 36.6264C122.393 36.1955 122.618 35.8478 122.913 35.5831C123.212 35.3153 123.555 35.1214 123.943 35.0014C124.33 34.8783 124.738 34.8168 125.166 34.8168C125.449 34.8168 125.749 34.8506 126.066 34.9183C126.386 34.983 126.685 35.103 126.962 35.2784C127.242 35.4538 127.471 35.7047 127.65 36.0309C127.828 36.354 127.917 36.7741 127.917 37.2912V42H126.569V41.0305H126.514C126.425 41.209 126.291 41.3845 126.112 41.5568C125.934 41.7292 125.705 41.8723 125.424 41.9862C125.144 42.1 124.809 42.157 124.418 42.157ZM124.718 41.049C125.1 41.049 125.426 40.9736 125.697 40.8228C125.971 40.672 126.178 40.475 126.32 40.2319C126.465 39.9857 126.537 39.7225 126.537 39.4425V38.5284C126.488 38.5777 126.392 38.6238 126.251 38.6669C126.112 38.7069 125.954 38.7423 125.775 38.7731C125.597 38.8008 125.423 38.8269 125.254 38.8516C125.084 38.8731 124.943 38.8916 124.829 38.907C124.561 38.9408 124.317 38.9978 124.095 39.0778C123.876 39.1578 123.701 39.2732 123.569 39.424C123.439 39.5717 123.375 39.7687 123.375 40.0149C123.375 40.3565 123.501 40.6151 123.753 40.7905C124.006 40.9628 124.327 41.049 124.718 41.049ZM133.326 34.9091V36.017H129.453V34.9091H133.326ZM130.491 33.2102H131.872V39.918C131.872 40.1857 131.912 40.3873 131.992 40.5227C132.072 40.6551 132.175 40.7459 132.301 40.7951C132.43 40.8413 132.57 40.8643 132.721 40.8643C132.832 40.8643 132.929 40.8567 133.012 40.8413C133.095 40.8259 133.16 40.8136 133.206 40.8043L133.455 41.9446C133.375 41.9754 133.261 42.0062 133.114 42.0369C132.966 42.0708 132.781 42.0893 132.56 42.0923C132.196 42.0985 131.858 42.0339 131.544 41.8984C131.23 41.763 130.976 41.5537 130.782 41.2706C130.588 40.9875 130.491 40.632 130.491 40.2042V33.2102ZM135.113 42V34.9091H136.493V42H135.113ZM135.81 33.815C135.57 33.815 135.364 33.735 135.191 33.5749C135.022 33.4118 134.937 33.2179 134.937 32.9933C134.937 32.7655 135.022 32.5716 135.191 32.4116C135.364 32.2485 135.57 32.1669 135.81 32.1669C136.05 32.1669 136.255 32.2485 136.424 32.4116C136.596 32.5716 136.682 32.7655 136.682 32.9933C136.682 33.2179 136.596 33.4118 136.424 33.5749C136.255 33.735 136.05 33.815 135.81 33.815ZM141.597 42.1431C140.932 42.1431 140.352 41.9908 139.857 41.6861C139.361 41.3814 138.976 40.9551 138.702 40.4073C138.429 39.8595 138.292 39.2193 138.292 38.4869C138.292 37.7513 138.429 37.1081 138.702 36.5572C138.976 36.0063 139.361 35.5785 139.857 35.2738C140.352 34.9691 140.932 34.8168 141.597 34.8168C142.262 34.8168 142.842 34.9691 143.337 35.2738C143.833 35.5785 144.218 36.0063 144.491 36.5572C144.765 37.1081 144.902 37.7513 144.902 38.4869C144.902 39.2193 144.765 39.8595 144.491 40.4073C144.218 40.9551 143.833 41.3814 143.337 41.6861C142.842 41.9908 142.262 42.1431 141.597 42.1431ZM141.602 40.9844C142.032 40.9844 142.389 40.8705 142.673 40.6428C142.956 40.415 143.165 40.1119 143.3 39.7333C143.439 39.3548 143.508 38.9377 143.508 38.4822C143.508 38.0298 143.439 37.6143 143.3 37.2358C143.165 36.8542 142.956 36.5479 142.673 36.3171C142.389 36.0863 142.032 35.9709 141.602 35.9709C141.168 35.9709 140.808 36.0863 140.521 36.3171C140.238 36.5479 140.027 36.8542 139.889 37.2358C139.753 37.6143 139.686 38.0298 139.686 38.4822C139.686 38.9377 139.753 39.3548 139.889 39.7333C140.027 40.1119 140.238 40.415 140.521 40.6428C140.808 40.8705 141.168 40.9844 141.602 40.9844ZM148.083 37.7898V42H146.703V34.9091H148.028V36.0632H148.116C148.279 35.6877 148.534 35.3861 148.882 35.1584C149.233 34.9306 149.675 34.8168 150.207 34.8168C150.69 34.8168 151.113 34.9183 151.477 35.1214C151.84 35.3215 152.121 35.62 152.321 36.017C152.521 36.4141 152.621 36.9049 152.621 37.4897V42H151.241V37.6559C151.241 37.1419 151.107 36.7403 150.839 36.451C150.572 36.1586 150.204 36.0124 149.736 36.0124C149.416 36.0124 149.131 36.0817 148.882 36.2202C148.636 36.3587 148.44 36.5618 148.296 36.8295C148.154 37.0942 148.083 37.4143 148.083 37.7898ZM155.642 42.0877C155.39 42.0877 155.173 41.9985 154.991 41.82C154.81 41.6384 154.719 41.4199 154.719 41.1644C154.719 40.9121 154.81 40.6966 154.991 40.5181C155.173 40.3365 155.39 40.2457 155.642 40.2457C155.894 40.2457 156.111 40.3365 156.293 40.5181C156.475 40.6966 156.565 40.9121 156.565 41.1644C156.565 41.3337 156.522 41.4891 156.436 41.6307C156.353 41.7692 156.242 41.88 156.104 41.9631C155.965 42.0462 155.811 42.0877 155.642 42.0877Z" fill="#F7F8F8"/>
</svg>
