<svg width="182" height="45" viewBox="0 0 182 45" fill="none" xmlns="http://www.w3.org/2000/svg">
<path d="M2.8489 10L0.22674 0.545454H1.7271L3.56907 7.86719H3.65678L5.57262 0.545454H7.05913L8.97496 7.8718H9.06268L10.9 0.545454H12.405L9.77823 10H8.34251L6.35281 2.91832H6.27894L4.28924 10H2.8489ZM16.2128 10.1431C15.5141 10.1431 14.9125 9.99384 14.4077 9.69531C13.9061 9.3937 13.5183 8.97053 13.2444 8.42578C12.9735 7.87796 12.8381 7.23627 12.8381 6.50071C12.8381 5.77438 12.9735 5.13423 13.2444 4.58026C13.5183 4.02628 13.8999 3.59387 14.3893 3.28303C14.8817 2.97218 15.4572 2.81676 16.1158 2.81676C16.5159 2.81676 16.9037 2.88293 17.2792 3.01527C17.6547 3.14761 17.9917 3.35535 18.2902 3.63849C18.5887 3.92164 18.8242 4.28942 18.9965 4.74183C19.1689 5.19117 19.255 5.73745 19.255 6.38068V6.87003H13.6183V5.83594H17.9024C17.9024 5.47277 17.8285 5.15116 17.6808 4.87109C17.5331 4.58795 17.3253 4.36482 17.0576 4.2017C16.7929 4.03859 16.4821 3.95703 16.1251 3.95703C15.7373 3.95703 15.3987 4.05244 15.1094 4.24325C14.8232 4.43099 14.6016 4.6772 14.4447 4.98189C14.2908 5.2835 14.2138 5.61127 14.2138 5.9652V6.77308C14.2138 7.24704 14.2969 7.65021 14.4631 7.9826C14.6324 8.31499 14.8678 8.56889 15.1694 8.74432C15.4711 8.91667 15.8234 9.00284 16.2266 9.00284C16.4882 9.00284 16.7267 8.96591 16.9422 8.89205C17.1576 8.8151 17.3438 8.70123 17.5008 8.55043C17.6577 8.39962 17.7778 8.21342 17.8609 7.99183L19.1673 8.22727C19.0627 8.61198 18.8749 8.94898 18.6041 9.23828C18.3363 9.5245 17.9993 9.74763 17.5931 9.90767C17.1899 10.0646 16.7298 10.1431 16.2128 10.1431ZM27.7338 10.1431C27.0691 10.1431 26.4889 9.99077 25.9934 9.68608C25.4979 9.38139 25.1132 8.95514 24.8393 8.40732C24.5654 7.85949 24.4284 7.21934 24.4284 6.48686C24.4284 5.7513 24.5654 5.10807 24.8393 4.55717C25.1132 4.00627 25.4979 3.57848 25.9934 3.27379C26.4889 2.96911 27.0691 2.81676 27.7338 2.81676C28.3986 2.81676 28.9787 2.96911 29.4742 3.27379C29.9697 3.57848 30.3545 4.00627 30.6284 4.55717C30.9023 5.10807 31.0392 5.7513 31.0392 6.48686C31.0392 7.21934 30.9023 7.85949 30.6284 8.40732C30.3545 8.95514 29.9697 9.38139 29.4742 9.68608C28.9787 9.99077 28.3986 10.1431 27.7338 10.1431ZM27.7385 8.98438C28.1693 8.98438 28.5263 8.8705 28.8095 8.64276C29.0926 8.41501 29.3019 8.11186 29.4373 7.73331C29.5758 7.35476 29.6451 6.93774 29.6451 6.48224C29.6451 6.02983 29.5758 5.61435 29.4373 5.2358C29.3019 4.85417 29.0926 4.54794 28.8095 4.31712C28.5263 4.08629 28.1693 3.97088 27.7385 3.97088C27.3045 3.97088 26.9444 4.08629 26.6582 4.31712C26.3751 4.54794 26.1642 4.85417 26.0257 5.2358C25.8903 5.61435 25.8226 6.02983 25.8226 6.48224C25.8226 6.93774 25.8903 7.35476 26.0257 7.73331C26.1642 8.11186 26.3751 8.41501 26.6582 8.64276C26.9444 8.8705 27.3045 8.98438 27.7385 8.98438ZM36.2146 2.90909V4.01705H32.2075V2.90909H36.2146ZM33.3062 10V2.08736C33.3062 1.64418 33.4032 1.2764 33.5971 0.98402C33.791 0.688565 34.048 0.468513 34.368 0.323864C34.6881 0.176136 35.0359 0.102272 35.4114 0.102272C35.6883 0.102272 35.9253 0.125355 36.1223 0.17152C36.3193 0.214607 36.4655 0.254616 36.5609 0.291548L36.2377 1.40874C36.1731 1.39027 36.09 1.36873 35.9884 1.34411C35.8869 1.31641 35.7638 1.30256 35.6191 1.30256C35.2836 1.30256 35.0436 1.38565 34.8989 1.55185C34.7574 1.71804 34.6866 1.9581 34.6866 2.27202V10H33.3062ZM41.2735 2.90909V4.01705H37.2664V2.90909H41.2735ZM38.3651 10V2.08736C38.3651 1.64418 38.462 1.2764 38.6559 0.98402C38.8498 0.688565 39.1068 0.468513 39.4269 0.323864C39.7469 0.176136 40.0947 0.102272 40.4702 0.102272C40.7472 0.102272 40.9842 0.125355 41.1811 0.17152C41.3781 0.214607 41.5243 0.254616 41.6197 0.291548L41.2965 1.40874C41.2319 1.39027 41.1488 1.36873 41.0472 1.34411C40.9457 1.31641 40.8226 1.30256 40.6779 1.30256C40.3425 1.30256 40.1024 1.38565 39.9578 1.55185C39.8162 1.71804 39.7454 1.9581 39.7454 2.27202V10H38.3651ZM45.7345 10.1431C45.0358 10.1431 44.4341 9.99384 43.9294 9.69531C43.4278 9.3937 43.04 8.97053 42.7661 8.42578C42.4952 7.87796 42.3598 7.23627 42.3598 6.50071C42.3598 5.77438 42.4952 5.13423 42.7661 4.58026C43.04 4.02628 43.4216 3.59387 43.9109 3.28303C44.4034 2.97218 44.9789 2.81676 45.6375 2.81676C46.0376 2.81676 46.4254 2.88293 46.8009 3.01527C47.1763 3.14761 47.5133 3.35535 47.8119 3.63849C48.1104 3.92164 48.3458 4.28942 48.5182 4.74183C48.6905 5.19117 48.7767 5.73745 48.7767 6.38068V6.87003H43.14V5.83594H47.4241C47.4241 5.47277 47.3502 5.15116 47.2025 4.87109C47.0548 4.58795 46.847 4.36482 46.5793 4.2017C46.3146 4.03859 46.0037 3.95703 45.6467 3.95703C45.259 3.95703 44.9204 4.05244 44.6311 4.24325C44.3449 4.43099 44.1233 4.6772 43.9663 4.98189C43.8125 5.2835 43.7355 5.61127 43.7355 5.9652V6.77308C43.7355 7.24704 43.8186 7.65021 43.9848 7.9826C44.1541 8.31499 44.3895 8.56889 44.6911 8.74432C44.9927 8.91667 45.3451 9.00284 45.7483 9.00284C46.0099 9.00284 46.2484 8.96591 46.4639 8.89205C46.6793 8.8151 46.8655 8.70123 47.0224 8.55043C47.1794 8.39962 47.2994 8.21342 47.3825 7.99183L48.689 8.22727C48.5844 8.61198 48.3966 8.94898 48.1258 9.23828C47.858 9.5245 47.521 9.74763 47.1148 9.90767C46.7116 10.0646 46.2515 10.1431 45.7345 10.1431ZM50.5682 10V2.90909H51.9024V4.03551H51.9762C52.1055 3.65388 52.3333 3.35381 52.6595 3.1353C52.9888 2.91371 53.3612 2.80291 53.7767 2.80291C53.8629 2.80291 53.9644 2.80599 54.0814 2.81214C54.2014 2.8183 54.2953 2.82599 54.363 2.83523V4.15554C54.3076 4.14015 54.2091 4.12322 54.0675 4.10476C53.9259 4.08321 53.7844 4.07244 53.6428 4.07244C53.3166 4.07244 53.0257 4.14169 52.7703 4.28018C52.5179 4.4156 52.3179 4.60488 52.1701 4.84801C52.0224 5.08807 51.9486 5.36198 51.9486 5.66974V10H50.5682ZM62.5048 10.1431C61.84 10.1431 61.2599 9.99077 60.7644 9.68608C60.2689 9.38139 59.8842 8.95514 59.6102 8.40732C59.3363 7.85949 59.1994 7.21934 59.1994 6.48686C59.1994 5.7513 59.3363 5.10807 59.6102 4.55717C59.8842 4.00627 60.2689 3.57848 60.7644 3.27379C61.2599 2.96911 61.84 2.81676 62.5048 2.81676C63.1695 2.81676 63.7497 2.96911 64.2452 3.27379C64.7407 3.57848 65.1254 4.00627 65.3993 4.55717C65.6732 5.10807 65.8102 5.7513 65.8102 6.48686C65.8102 7.21934 65.6732 7.85949 65.3993 8.40732C65.1254 8.95514 64.7407 9.38139 64.2452 9.68608C63.7497 9.99077 63.1695 10.1431 62.5048 10.1431ZM62.5094 8.98438C62.9403 8.98438 63.2973 8.8705 63.5804 8.64276C63.8636 8.41501 64.0728 8.11186 64.2083 7.73331C64.3467 7.35476 64.416 6.93774 64.416 6.48224C64.416 6.02983 64.3467 5.61435 64.2083 5.2358C64.0728 4.85417 63.8636 4.54794 63.5804 4.31712C63.2973 4.08629 62.9403 3.97088 62.5094 3.97088C62.0754 3.97088 61.7154 4.08629 61.4291 4.31712C61.146 4.54794 60.9352 4.85417 60.7967 5.2358C60.6613 5.61435 60.5936 6.02983 60.5936 6.48224C60.5936 6.93774 60.6613 7.35476 60.7967 7.73331C60.9352 8.11186 61.146 8.41501 61.4291 8.64276C61.7154 8.8705 62.0754 8.98438 62.5094 8.98438ZM68.9912 5.78977V10H67.6109V2.90909H68.9358V4.06321H69.0236C69.1867 3.68774 69.4421 3.38613 69.7899 3.15838C70.1407 2.93063 70.5824 2.81676 71.1148 2.81676C71.598 2.81676 72.0212 2.91832 72.3844 3.12145C72.7475 3.3215 73.0291 3.62003 73.2292 4.01705C73.4292 4.41406 73.5292 4.90495 73.5292 5.4897V10H72.1489V5.65589C72.1489 5.14193 72.015 4.74029 71.7473 4.45099C71.4795 4.15862 71.1117 4.01243 70.6439 4.01243C70.3239 4.01243 70.0392 4.08168 69.7899 4.22017C69.5437 4.35866 69.3483 4.56179 69.2036 4.82955C69.062 5.09422 68.9912 5.4143 68.9912 5.78977ZM77.0208 0.545454V10H75.6405V0.545454H77.0208ZM79.1378 10V2.90909H80.5181V10H79.1378ZM79.8348 1.81499C79.5948 1.81499 79.3886 1.73497 79.2162 1.57493C79.047 1.41181 78.9623 1.21792 78.9623 0.993252C78.9623 0.765506 79.047 0.571614 79.2162 0.411576C79.3886 0.248461 79.5948 0.166903 79.8348 0.166903C80.0749 0.166903 80.2796 0.248461 80.4488 0.411576C80.6212 0.571614 80.7074 0.765506 80.7074 0.993252C80.7074 1.21792 80.6212 1.41181 80.4488 1.57493C80.2796 1.73497 80.0749 1.81499 79.8348 1.81499ZM84.0154 5.78977V10H82.6351V2.90909H83.96V4.06321H84.0477C84.2108 3.68774 84.4663 3.38613 84.814 3.15838C85.1649 2.93063 85.6065 2.81676 86.139 2.81676C86.6222 2.81676 87.0453 2.91832 87.4085 3.12145C87.7717 3.3215 88.0533 3.62003 88.2533 4.01705C88.4534 4.41406 88.5534 4.90495 88.5534 5.4897V10H87.1731V5.65589C87.1731 5.14193 87.0392 4.74029 86.7714 4.45099C86.5037 4.15862 86.1359 4.01243 85.6681 4.01243C85.348 4.01243 85.0633 4.08168 84.814 4.22017C84.5678 4.35866 84.3724 4.56179 84.2277 4.82955C84.0862 5.09422 84.0154 5.4143 84.0154 5.78977ZM93.7207 10.1431C93.0221 10.1431 92.4204 9.99384 91.9157 9.69531C91.414 9.3937 91.0262 8.97053 90.7523 8.42578C90.4815 7.87796 90.3461 7.23627 90.3461 6.50071C90.3461 5.77438 90.4815 5.13423 90.7523 4.58026C91.0262 4.02628 91.4078 3.59387 91.8972 3.28303C92.3896 2.97218 92.9651 2.81676 93.6238 2.81676C94.0238 2.81676 94.4116 2.88293 94.7871 3.01527C95.1626 3.14761 95.4996 3.35535 95.7981 3.63849C96.0966 3.92164 96.3321 4.28942 96.5044 4.74183C96.6768 5.19117 96.763 5.73745 96.763 6.38068V6.87003H91.1262V5.83594H95.4103C95.4103 5.47277 95.3365 5.15116 95.1887 4.87109C95.041 4.58795 94.8333 4.36482 94.5655 4.2017C94.3008 4.03859 93.99 3.95703 93.633 3.95703C93.2452 3.95703 92.9067 4.05244 92.6174 4.24325C92.3311 4.43099 92.1095 4.6772 91.9526 4.98189C91.7987 5.2835 91.7218 5.61127 91.7218 5.9652V6.77308C91.7218 7.24704 91.8049 7.65021 91.9711 7.9826C92.1403 8.31499 92.3758 8.56889 92.6774 8.74432C92.979 8.91667 93.3314 9.00284 93.7345 9.00284C93.9961 9.00284 94.2347 8.96591 94.4501 8.89205C94.6655 8.8151 94.8517 8.70123 95.0087 8.55043C95.1657 8.39962 95.2857 8.21342 95.3688 7.99183L96.6752 8.22727C96.5706 8.61198 96.3829 8.94898 96.112 9.23828C95.8443 9.5245 95.5073 9.74763 95.101 9.90767C94.6979 10.0646 94.2377 10.1431 93.7207 10.1431ZM105.242 10.1431C104.555 10.1431 103.965 9.98769 103.469 9.67685C102.977 9.36293 102.598 8.93052 102.333 8.37962C102.069 7.82872 101.936 7.1978 101.936 6.48686C101.936 5.76669 102.072 5.13115 102.343 4.58026C102.613 4.02628 102.995 3.59387 103.488 3.28303C103.98 2.97218 104.56 2.81676 105.228 2.81676C105.767 2.81676 106.247 2.91679 106.668 3.11683C107.09 3.3138 107.43 3.59079 107.689 3.9478C107.95 4.30481 108.106 4.72183 108.155 5.19886H106.811C106.738 4.86648 106.568 4.58026 106.304 4.3402C106.042 4.10014 105.691 3.98011 105.251 3.98011C104.866 3.98011 104.529 4.08168 104.24 4.2848C103.954 4.48485 103.731 4.77107 103.571 5.14347C103.411 5.51278 103.331 5.94981 103.331 6.45455C103.331 6.97159 103.409 7.41785 103.566 7.79332C103.723 8.1688 103.945 8.45964 104.231 8.66584C104.52 8.87204 104.86 8.97514 105.251 8.97514C105.513 8.97514 105.75 8.92744 105.962 8.83203C106.177 8.73355 106.357 8.59351 106.502 8.41193C106.65 8.23035 106.753 8.01184 106.811 7.75639H108.155C108.106 8.21496 107.956 8.62429 107.707 8.98438C107.458 9.34446 107.124 9.6276 106.705 9.83381C106.29 10.04 105.802 10.1431 105.242 10.1431ZM112.878 10.1431C112.213 10.1431 111.633 9.99077 111.137 9.68608C110.642 9.38139 110.257 8.95514 109.983 8.40732C109.709 7.85949 109.572 7.21934 109.572 6.48686C109.572 5.7513 109.709 5.10807 109.983 4.55717C110.257 4.00627 110.642 3.57848 111.137 3.27379C111.633 2.96911 112.213 2.81676 112.878 2.81676C113.543 2.81676 114.123 2.96911 114.618 3.27379C115.114 3.57848 115.498 4.00627 115.772 4.55717C116.046 5.10807 116.183 5.7513 116.183 6.48686C116.183 7.21934 116.046 7.85949 115.772 8.40732C115.498 8.95514 115.114 9.38139 114.618 9.68608C114.123 9.99077 113.543 10.1431 112.878 10.1431ZM112.882 8.98438C113.313 8.98438 113.67 8.8705 113.953 8.64276C114.237 8.41501 114.446 8.11186 114.581 7.73331C114.72 7.35476 114.789 6.93774 114.789 6.48224C114.789 6.02983 114.72 5.61435 114.581 5.2358C114.446 4.85417 114.237 4.54794 113.953 4.31712C113.67 4.08629 113.313 3.97088 112.882 3.97088C112.448 3.97088 112.088 4.08629 111.802 4.31712C111.519 4.54794 111.308 4.85417 111.17 5.2358C111.034 5.61435 110.967 6.02983 110.967 6.48224C110.967 6.93774 111.034 7.35476 111.17 7.73331C111.308 8.11186 111.519 8.41501 111.802 8.64276C112.088 8.8705 112.448 8.98438 112.882 8.98438ZM120.638 10.1385C120.066 10.1385 119.555 9.99231 119.106 9.69993C118.659 9.40447 118.309 8.98437 118.053 8.43963C117.801 7.89181 117.675 7.23473 117.675 6.46839C117.675 5.70206 117.802 5.04652 118.058 4.50178C118.316 3.95703 118.67 3.54001 119.12 3.25071C119.569 2.96141 120.078 2.81676 120.648 2.81676C121.088 2.81676 121.442 2.89062 121.709 3.03835C121.98 3.183 122.189 3.35227 122.337 3.54616C122.488 3.74006 122.605 3.91087 122.688 4.05859H122.771V0.545454H124.152V10H122.803V8.89666H122.688C122.605 9.04747 122.485 9.21982 122.328 9.41371C122.174 9.6076 121.962 9.77687 121.691 9.92152C121.42 10.0662 121.069 10.1385 120.638 10.1385ZM120.943 8.96129C121.34 8.96129 121.676 8.85665 121.949 8.64737C122.226 8.43501 122.436 8.1411 122.577 7.76562C122.722 7.39015 122.794 6.95312 122.794 6.45455C122.794 5.96212 122.723 5.53125 122.582 5.16193C122.44 4.79261 122.233 4.50485 121.959 4.29865C121.685 4.09245 121.346 3.98935 120.943 3.98935C120.528 3.98935 120.181 4.09706 119.904 4.3125C119.627 4.52794 119.418 4.82185 119.277 5.19425C119.138 5.56664 119.069 5.98674 119.069 6.45455C119.069 6.9285 119.14 7.35476 119.281 7.73331C119.423 8.11186 119.632 8.41193 119.909 8.63352C120.189 8.85204 120.534 8.96129 120.943 8.96129ZM126.382 10V2.90909H127.762V10H126.382ZM127.079 1.81499C126.839 1.81499 126.632 1.73497 126.46 1.57493C126.291 1.41181 126.206 1.21792 126.206 0.993252C126.206 0.765506 126.291 0.571614 126.46 0.411576C126.632 0.248461 126.839 0.166903 127.079 0.166903C127.319 0.166903 127.523 0.248461 127.693 0.411576C127.865 0.571614 127.951 0.765506 127.951 0.993252C127.951 1.21792 127.865 1.41181 127.693 1.57493C127.523 1.73497 127.319 1.81499 127.079 1.81499ZM131.259 5.78977V10H129.879V2.90909H131.204V4.06321H131.292C131.455 3.68774 131.71 3.38613 132.058 3.15838C132.409 2.93063 132.85 2.81676 133.383 2.81676C133.866 2.81676 134.289 2.91832 134.652 3.12145C135.015 3.3215 135.297 3.62003 135.497 4.01705C135.697 4.41406 135.797 4.90495 135.797 5.4897V10H134.417V5.65589C134.417 5.14193 134.283 4.74029 134.015 4.45099C133.747 4.15862 133.38 4.01243 132.912 4.01243C132.592 4.01243 132.307 4.08168 132.058 4.22017C131.812 4.35866 131.616 4.56179 131.472 4.82955C131.33 5.09422 131.259 5.4143 131.259 5.78977ZM140.881 12.8068C140.318 12.8068 139.833 12.733 139.427 12.5852C139.024 12.4375 138.695 12.2421 138.439 11.9989C138.184 11.7558 137.993 11.4896 137.867 11.2003L139.053 10.7109C139.136 10.8464 139.247 10.9895 139.386 11.1403C139.527 11.2942 139.718 11.425 139.958 11.5327C140.201 11.6404 140.514 11.6942 140.895 11.6942C141.418 11.6942 141.851 11.5665 142.193 11.3111C142.534 11.0587 142.705 10.6555 142.705 10.1016V8.70739H142.617C142.534 8.85819 142.414 9.02592 142.257 9.21058C142.103 9.39524 141.891 9.55528 141.62 9.6907C141.349 9.82611 140.997 9.89382 140.563 9.89382C140.003 9.89382 139.498 9.76302 139.049 9.50142C138.602 9.23674 138.249 8.84742 137.987 8.33345C137.728 7.81641 137.599 7.18087 137.599 6.42685C137.599 5.67282 137.727 5.02651 137.982 4.48793C138.241 3.94934 138.595 3.53693 139.044 3.25071C139.493 2.96141 140.003 2.81676 140.572 2.81676C141.012 2.81676 141.368 2.89062 141.639 3.03835C141.909 3.183 142.12 3.35227 142.271 3.54616C142.425 3.74006 142.543 3.91087 142.626 4.05859H142.728V2.90909H144.081V10.157C144.081 10.7663 143.939 11.2665 143.656 11.6573C143.373 12.0482 142.99 12.3375 142.506 12.5252C142.026 12.7129 141.485 12.8068 140.881 12.8068ZM140.868 8.74893C141.265 8.74893 141.6 8.65661 141.874 8.47195C142.151 8.28421 142.36 8.01645 142.502 7.66868C142.646 7.31783 142.719 6.89773 142.719 6.40838C142.719 5.93134 142.648 5.51125 142.506 5.14808C142.365 4.78492 142.157 4.50178 141.883 4.29865C141.609 4.09245 141.271 3.98935 140.868 3.98935C140.452 3.98935 140.106 4.09706 139.829 4.3125C139.552 4.52486 139.343 4.81416 139.201 5.1804C139.063 5.54664 138.993 5.95597 138.993 6.40838C138.993 6.87311 139.064 7.28089 139.206 7.63175C139.347 7.9826 139.557 8.25651 139.833 8.45348C140.114 8.65045 140.458 8.74893 140.868 8.74893ZM3.943 26.1431C3.24438 26.1431 2.6427 25.9938 2.13796 25.6953C1.6363 25.3937 1.24852 24.9705 0.974609 24.4258C0.703776 23.878 0.568359 23.2363 0.568359 22.5007C0.568359 21.7744 0.703776 21.1342 0.974609 20.5803C1.24852 20.0263 1.63015 19.5939 2.1195 19.283C2.61192 18.9722 3.18744 18.8168 3.84606 18.8168C4.24615 18.8168 4.63394 18.8829 5.00941 19.0153C5.38488 19.1476 5.72189 19.3554 6.02042 19.6385C6.31895 19.9216 6.55439 20.2894 6.72674 20.7418C6.89909 21.1912 6.98526 21.7375 6.98526 22.3807V22.87H1.34854V21.8359H5.63264C5.63264 21.4728 5.55877 21.1512 5.41104 20.8711C5.26332 20.5879 5.05558 20.3648 4.78782 20.2017C4.52314 20.0386 4.2123 19.957 3.85529 19.957C3.46751 19.957 3.12897 20.0524 2.83967 20.2433C2.55344 20.431 2.33185 20.6772 2.17489 20.9819C2.02101 21.2835 1.94407 21.6113 1.94407 21.9652V22.7731C1.94407 23.247 2.02717 23.6502 2.19336 23.9826C2.36263 24.315 2.59807 24.5689 2.89968 24.7443C3.20129 24.9167 3.55368 25.0028 3.95685 25.0028C4.21845 25.0028 4.45697 24.9659 4.67241 24.892C4.88784 24.8151 5.07404 24.7012 5.231 24.5504C5.38796 24.3996 5.50799 24.2134 5.59109 23.9918L6.89755 24.2273C6.79291 24.612 6.60517 24.949 6.33434 25.2383C6.06658 25.5245 5.72958 25.7476 5.32333 25.9077C4.92016 26.0646 4.46005 26.1431 3.943 26.1431ZM10.1571 21.7898V26H8.77678V18.9091H10.1017V20.0632H10.1894C10.3525 19.6877 10.608 19.3861 10.9558 19.1584C11.3066 18.9306 11.7483 18.8168 12.2807 18.8168C12.7639 18.8168 13.1871 18.9183 13.5502 19.1214C13.9134 19.3215 14.195 19.62 14.395 20.017C14.5951 20.4141 14.6951 20.9049 14.6951 21.4897V26H13.3148V21.6559C13.3148 21.1419 13.1809 20.7403 12.9131 20.451C12.6454 20.1586 12.2776 20.0124 11.8098 20.0124C11.4897 20.0124 11.205 20.0817 10.9558 20.2202C10.7095 20.3587 10.5141 20.5618 10.3695 20.8295C10.2279 21.0942 10.1571 21.4143 10.1571 21.7898ZM22.6185 18.9091L20.0471 26H18.5698L15.9938 18.9091H17.4757L19.2715 24.3658H19.3454L21.1366 18.9091H22.6185ZM24.1757 26V18.9091H25.556V26H24.1757ZM24.8728 17.815C24.6327 17.815 24.4265 17.735 24.2542 17.5749C24.0849 17.4118 24.0003 17.2179 24.0003 16.9933C24.0003 16.7655 24.0849 16.5716 24.2542 16.4116C24.4265 16.2485 24.6327 16.1669 24.8728 16.1669C25.1128 16.1669 25.3175 16.2485 25.4868 16.4116C25.6591 16.5716 25.7453 16.7655 25.7453 16.9933C25.7453 17.2179 25.6591 17.4118 25.4868 17.5749C25.3175 17.735 25.1128 17.815 24.8728 17.815ZM27.673 26V18.9091H29.0072V20.0355H29.081C29.2103 19.6539 29.438 19.3538 29.7643 19.1353C30.0936 18.9137 30.466 18.8029 30.8814 18.8029C30.9676 18.8029 31.0692 18.806 31.1861 18.8121C31.3062 18.8183 31.4 18.826 31.4677 18.8352V20.1555C31.4123 20.1402 31.3139 20.1232 31.1723 20.1048C31.0307 20.0832 30.8891 20.0724 30.7476 20.0724C30.4213 20.0724 30.1305 20.1417 29.8751 20.2802C29.6227 20.4156 29.4226 20.6049 29.2749 20.848C29.1272 21.0881 29.0533 21.362 29.0533 21.6697V26H27.673ZM35.6552 26.1431C34.9904 26.1431 34.4103 25.9908 33.9148 25.6861C33.4193 25.3814 33.0346 24.9551 32.7607 24.4073C32.4868 23.8595 32.3498 23.2193 32.3498 22.4869C32.3498 21.7513 32.4868 21.1081 32.7607 20.5572C33.0346 20.0063 33.4193 19.5785 33.9148 19.2738C34.4103 18.9691 34.9904 18.8168 35.6552 18.8168C36.32 18.8168 36.9001 18.9691 37.3956 19.2738C37.8911 19.5785 38.2758 20.0063 38.5497 20.5572C38.8236 21.1081 38.9606 21.7513 38.9606 22.4869C38.9606 23.2193 38.8236 23.8595 38.5497 24.4073C38.2758 24.9551 37.8911 25.3814 37.3956 25.6861C36.9001 25.9908 36.32 26.1431 35.6552 26.1431ZM35.6598 24.9844C36.0907 24.9844 36.4477 24.8705 36.7308 24.6428C37.014 24.415 37.2233 24.1119 37.3587 23.7333C37.4972 23.3548 37.5664 22.9377 37.5664 22.4822C37.5664 22.0298 37.4972 21.6143 37.3587 21.2358C37.2233 20.8542 37.014 20.5479 36.7308 20.3171C36.4477 20.0863 36.0907 19.9709 35.6598 19.9709C35.2259 19.9709 34.8658 20.0863 34.5796 20.3171C34.2964 20.5479 34.0856 20.8542 33.9471 21.2358C33.8117 21.6143 33.744 22.0298 33.744 22.4822C33.744 22.9377 33.8117 23.3548 33.9471 23.7333C34.0856 24.1119 34.2964 24.415 34.5796 24.6428C34.8658 24.8705 35.2259 24.9844 35.6598 24.9844ZM42.1417 21.7898V26H40.7614V18.9091H42.0863V20.0632H42.174C42.3371 19.6877 42.5926 19.3861 42.9403 19.1584C43.2912 18.9306 43.7328 18.8168 44.2653 18.8168C44.7484 18.8168 45.1716 18.9183 45.5348 19.1214C45.898 19.3215 46.1796 19.62 46.3796 20.017C46.5797 20.4141 46.6797 20.9049 46.6797 21.4897V26H45.2993V21.6559C45.2993 21.1419 45.1655 20.7403 44.8977 20.451C44.63 20.1586 44.2622 20.0124 43.7944 20.0124C43.4743 20.0124 43.1896 20.0817 42.9403 20.2202C42.6941 20.3587 42.4987 20.5618 42.354 20.8295C42.2125 21.0942 42.1417 21.4143 42.1417 21.7898ZM48.7909 26V18.9091H50.1158V20.0632H50.2035C50.3512 19.6723 50.5928 19.3677 50.9283 19.1491C51.2638 18.9276 51.6654 18.8168 52.1332 18.8168C52.6072 18.8168 53.0042 18.9276 53.3243 19.1491C53.6474 19.3707 53.8859 19.6754 54.0398 20.0632H54.1137C54.2829 19.6847 54.5522 19.383 54.9216 19.1584C55.2909 18.9306 55.731 18.8168 56.2419 18.8168C56.8851 18.8168 57.4098 19.0183 57.8161 19.4215C58.2254 19.8247 58.4301 20.4325 58.4301 21.245V26H57.0498V21.3743C57.0498 20.8942 56.919 20.5464 56.6574 20.331C56.3958 20.1155 56.0834 20.0078 55.7202 20.0078C55.2709 20.0078 54.9216 20.1463 54.6723 20.4233C54.423 20.6972 54.2983 21.0496 54.2983 21.4805V26H52.9226V21.2866C52.9226 20.9019 52.8026 20.5926 52.5625 20.3587C52.3225 20.1248 52.0101 20.0078 51.6254 20.0078C51.3638 20.0078 51.1222 20.0771 50.9006 20.2156C50.6821 20.351 50.5051 20.5402 50.3697 20.7834C50.2374 21.0265 50.1712 21.3081 50.1712 21.6282V26H48.7909ZM63.5962 26.1431C62.8976 26.1431 62.2959 25.9938 61.7912 25.6953C61.2895 25.3937 60.9018 24.9705 60.6279 24.4258C60.357 23.878 60.2216 23.2363 60.2216 22.5007C60.2216 21.7744 60.357 21.1342 60.6279 20.5803C60.9018 20.0263 61.2834 19.5939 61.7727 19.283C62.2652 18.9722 62.8407 18.8168 63.4993 18.8168C63.8994 18.8168 64.2872 18.8829 64.6627 19.0153C65.0381 19.1476 65.3751 19.3554 65.6737 19.6385C65.9722 19.9216 66.2076 20.2894 66.38 20.7418C66.5523 21.1912 66.6385 21.7375 66.6385 22.3807V22.87H61.0018V21.8359H65.2859C65.2859 21.4728 65.212 21.1512 65.0643 20.8711C64.9166 20.5879 64.7088 20.3648 64.4411 20.2017C64.1764 20.0386 63.8655 19.957 63.5085 19.957C63.1208 19.957 62.7822 20.0524 62.4929 20.2433C62.2067 20.431 61.9851 20.6772 61.8281 20.9819C61.6743 21.2835 61.5973 21.6113 61.5973 21.9652V22.7731C61.5973 23.247 61.6804 23.6502 61.8466 23.9826C62.0159 24.315 62.2513 24.5689 62.5529 24.7443C62.8545 24.9167 63.2069 25.0028 63.6101 25.0028C63.8717 25.0028 64.1102 24.9659 64.3257 24.892C64.5411 24.8151 64.7273 24.7012 64.8842 24.5504C65.0412 24.3996 65.1612 24.2134 65.2443 23.9918L66.5508 24.2273C66.4462 24.612 66.2584 24.949 65.9876 25.2383C65.7198 25.5245 65.3828 25.7476 64.9766 25.9077C64.5734 26.0646 64.1133 26.1431 63.5962 26.1431ZM69.8103 21.7898V26H68.43V18.9091H69.7549V20.0632H69.8427C70.0058 19.6877 70.2612 19.3861 70.609 19.1584C70.9598 18.9306 71.4015 18.8168 71.9339 18.8168C72.4171 18.8168 72.8403 18.9183 73.2035 19.1214C73.5666 19.3215 73.8482 19.62 74.0483 20.017C74.2483 20.4141 74.3483 20.9049 74.3483 21.4897V26H72.968V21.6559C72.968 21.1419 72.8341 20.7403 72.5664 20.451C72.2986 20.1586 71.9308 20.0124 71.463 20.0124C71.143 20.0124 70.8583 20.0817 70.609 20.2202C70.3628 20.3587 70.1674 20.5618 70.0227 20.8295C69.8811 21.0942 69.8103 21.4143 69.8103 21.7898ZM79.7696 18.9091V20.017H75.8963V18.9091H79.7696ZM76.935 17.2102H78.3154V23.918C78.3154 24.1857 78.3554 24.3873 78.4354 24.5227C78.5154 24.6551 78.6185 24.7459 78.7447 24.7951C78.874 24.8413 79.014 24.8643 79.1648 24.8643C79.2756 24.8643 79.3725 24.8567 79.4556 24.8413C79.5387 24.8259 79.6034 24.8136 79.6495 24.8043L79.8988 25.9446C79.8188 25.9754 79.7049 26.0062 79.5572 26.0369C79.4095 26.0708 79.2248 26.0893 79.0032 26.0923C78.6401 26.0985 78.3015 26.0339 77.9876 25.8984C77.6737 25.763 77.4198 25.5537 77.2259 25.2706C77.032 24.9875 76.935 24.632 76.935 24.2042V17.2102ZM86.7558 20.6403L85.5047 20.8619C85.4524 20.7018 85.3693 20.5495 85.2554 20.4048C85.1446 20.2602 84.9938 20.1417 84.803 20.0494C84.6122 19.957 84.3737 19.9109 84.0875 19.9109C83.6966 19.9109 83.3704 19.9986 83.1088 20.174C82.8472 20.3464 82.7164 20.5695 82.7164 20.8434C82.7164 21.0804 82.8041 21.2712 82.9795 21.4158C83.1549 21.5605 83.4381 21.679 83.8289 21.7713L84.9553 22.0298C85.6078 22.1806 86.0941 22.413 86.4142 22.7269C86.7342 23.0408 86.8943 23.4486 86.8943 23.9503C86.8943 24.375 86.7712 24.7536 86.525 25.0859C86.2818 25.4152 85.9417 25.6738 85.5047 25.8615C85.0708 26.0492 84.5676 26.1431 83.9951 26.1431C83.2011 26.1431 82.5532 25.9738 82.0516 25.6353C81.5499 25.2937 81.2422 24.8089 81.1283 24.1811L82.4625 23.978C82.5455 24.3258 82.7164 24.5889 82.9749 24.7674C83.2334 24.9428 83.5704 25.0305 83.9859 25.0305C84.4383 25.0305 84.7999 24.9367 85.0708 24.7489C85.3416 24.5581 85.477 24.3258 85.477 24.0518C85.477 23.8303 85.3939 23.6441 85.2277 23.4933C85.0646 23.3424 84.8138 23.2286 84.4752 23.1516L83.275 22.8885C82.6133 22.7377 82.1239 22.4976 81.8069 22.1683C81.493 21.839 81.336 21.422 81.336 20.9173C81.336 20.4987 81.453 20.1325 81.6869 19.8185C81.9208 19.5046 82.2439 19.2599 82.6563 19.0845C83.0687 18.906 83.5412 18.8168 84.0736 18.8168C84.8399 18.8168 85.4432 18.983 85.8833 19.3153C86.3234 19.6446 86.6142 20.0863 86.7558 20.6403ZM95.747 18.9091V20.017H91.7399V18.9091H95.747ZM92.8386 26V18.0874C92.8386 17.6442 92.9356 17.2764 93.1295 16.984C93.3234 16.6886 93.5803 16.4685 93.9004 16.3239C94.2205 16.1761 94.5683 16.1023 94.9437 16.1023C95.2207 16.1023 95.4577 16.1254 95.6547 16.1715C95.8516 16.2146 95.9978 16.2546 96.0932 16.2915L95.7701 17.4087C95.7055 17.3903 95.6224 17.3687 95.5208 17.3441C95.4192 17.3164 95.2961 17.3026 95.1515 17.3026C94.816 17.3026 94.576 17.3857 94.4313 17.5518C94.2897 17.718 94.219 17.9581 94.219 18.272V26H92.8386ZM100.139 26.1431C99.474 26.1431 98.8938 25.9908 98.3983 25.6861C97.9028 25.3814 97.5181 24.9551 97.2442 24.4073C96.9703 23.8595 96.8334 23.2193 96.8334 22.4869C96.8334 21.7513 96.9703 21.1081 97.2442 20.5572C97.5181 20.0063 97.9028 19.5785 98.3983 19.2738C98.8938 18.9691 99.474 18.8168 100.139 18.8168C100.804 18.8168 101.384 18.9691 101.879 19.2738C102.375 19.5785 102.759 20.0063 103.033 20.5572C103.307 21.1081 103.444 21.7513 103.444 22.4869C103.444 23.2193 103.307 23.8595 103.033 24.4073C102.759 24.9551 102.375 25.3814 101.879 25.6861C101.384 25.9908 100.804 26.1431 100.139 26.1431ZM100.143 24.9844C100.574 24.9844 100.931 24.8705 101.214 24.6428C101.498 24.415 101.707 24.1119 101.842 23.7333C101.981 23.3548 102.05 22.9377 102.05 22.4822C102.05 22.0298 101.981 21.6143 101.842 21.2358C101.707 20.8542 101.498 20.5479 101.214 20.3171C100.931 20.0863 100.574 19.9709 100.143 19.9709C99.7094 19.9709 99.3493 20.0863 99.0631 20.3171C98.78 20.5479 98.5692 20.8542 98.4307 21.2358C98.2952 21.6143 98.2275 22.0298 98.2275 22.4822C98.2275 22.9377 98.2952 23.3548 98.4307 23.7333C98.5692 24.1119 98.78 24.415 99.0631 24.6428C99.3493 24.8705 99.7094 24.9844 100.143 24.9844ZM105.245 26V18.9091H106.579V20.0355H106.653C106.782 19.6539 107.01 19.3538 107.336 19.1353C107.665 18.9137 108.038 18.8029 108.453 18.8029C108.54 18.8029 108.641 18.806 108.758 18.8121C108.878 18.8183 108.972 18.826 109.04 18.8352V20.1555C108.984 20.1402 108.886 20.1232 108.744 20.1048C108.603 20.0832 108.461 20.0724 108.319 20.0724C107.993 20.0724 107.702 20.1417 107.447 20.2802C107.195 20.4156 106.995 20.6049 106.847 20.848C106.699 21.0881 106.625 21.362 106.625 21.6697V26H105.245ZM114.195 26V18.9091H115.575V26H114.195ZM114.892 17.815C114.652 17.815 114.445 17.735 114.273 17.5749C114.104 17.4118 114.019 17.2179 114.019 16.9933C114.019 16.7655 114.104 16.5716 114.273 16.4116C114.445 16.2485 114.652 16.1669 114.892 16.1669C115.132 16.1669 115.336 16.2485 115.506 16.4116C115.678 16.5716 115.764 16.7655 115.764 16.9933C115.764 17.2179 115.678 17.4118 115.506 17.5749C115.336 17.735 115.132 17.815 114.892 17.815ZM119.072 21.7898V26H117.692V18.9091H119.017V20.0632H119.105C119.268 19.6877 119.523 19.3861 119.871 19.1584C120.222 18.9306 120.663 18.8168 121.196 18.8168C121.679 18.8168 122.102 18.9183 122.465 19.1214C122.828 19.3215 123.11 19.62 123.31 20.017C123.51 20.4141 123.61 20.9049 123.61 21.4897V26H122.23V21.6559C122.23 21.1419 122.096 20.7403 121.828 20.451C121.561 20.1586 121.193 20.0124 120.725 20.0124C120.405 20.0124 120.12 20.0817 119.871 20.2202C119.625 20.3587 119.429 20.5618 119.285 20.8295C119.143 21.0942 119.072 21.4143 119.072 21.7898ZM129.031 18.9091V20.017H125.158V18.9091H129.031ZM126.197 17.2102H127.577V23.918C127.577 24.1857 127.617 24.3873 127.697 24.5227C127.777 24.6551 127.88 24.7459 128.007 24.7951C128.136 24.8413 128.276 24.8643 128.427 24.8643C128.537 24.8643 128.634 24.8567 128.718 24.8413C128.801 24.8259 128.865 24.8136 128.911 24.8043L129.161 25.9446C129.081 25.9754 128.967 26.0062 128.819 26.0369C128.671 26.0708 128.487 26.0893 128.265 26.0923C127.902 26.0985 127.563 26.0339 127.249 25.8984C126.936 25.763 126.682 25.5537 126.488 25.2706C126.294 24.9875 126.197 24.632 126.197 24.2042V17.2102ZM133.798 26.1431C133.1 26.1431 132.498 25.9938 131.993 25.6953C131.492 25.3937 131.104 24.9705 130.83 24.4258C130.559 23.878 130.424 23.2363 130.424 22.5007C130.424 21.7744 130.559 21.1342 130.83 20.5803C131.104 20.0263 131.485 19.5939 131.975 19.283C132.467 18.9722 133.043 18.8168 133.701 18.8168C134.101 18.8168 134.489 18.8829 134.865 19.0153C135.24 19.1476 135.577 19.3554 135.876 19.6385C136.174 19.9216 136.41 20.2894 136.582 20.7418C136.754 21.1912 136.841 21.7375 136.841 22.3807V22.87H131.204V21.8359H135.488C135.488 21.4728 135.414 21.1512 135.266 20.8711C135.119 20.5879 134.911 20.3648 134.643 20.2017C134.378 20.0386 134.068 19.957 133.711 19.957C133.323 19.957 132.984 20.0524 132.695 20.2433C132.409 20.431 132.187 20.6772 132.03 20.9819C131.876 21.2835 131.799 21.6113 131.799 21.9652V22.7731C131.799 23.247 131.882 23.6502 132.049 23.9826C132.218 24.315 132.453 24.5689 132.755 24.7443C133.057 24.9167 133.409 25.0028 133.812 25.0028C134.074 25.0028 134.312 24.9659 134.528 24.892C134.743 24.8151 134.929 24.7012 135.086 24.5504C135.243 24.3996 135.363 24.2134 135.446 23.9918L136.753 24.2273C136.648 24.612 136.46 24.949 136.19 25.2383C135.922 25.5245 135.585 25.7476 135.179 25.9077C134.775 26.0646 134.315 26.1431 133.798 26.1431ZM138.632 26V18.9091H139.966V20.0355H140.04C140.169 19.6539 140.397 19.3538 140.723 19.1353C141.053 18.9137 141.425 18.8029 141.841 18.8029C141.927 18.8029 142.028 18.806 142.145 18.8121C142.265 18.8183 142.359 18.826 142.427 18.8352V20.1555C142.371 20.1402 142.273 20.1232 142.131 20.1048C141.99 20.0832 141.848 20.0724 141.707 20.0724C141.38 20.0724 141.09 20.1417 140.834 20.2802C140.582 20.4156 140.382 20.6049 140.234 20.848C140.086 21.0881 140.012 21.362 140.012 21.6697V26H138.632ZM145.881 26.157C145.432 26.157 145.026 26.0739 144.663 25.9077C144.299 25.7384 144.012 25.4937 143.799 25.1737C143.59 24.8536 143.485 24.4612 143.485 23.9964C143.485 23.5964 143.562 23.267 143.716 23.0085C143.87 22.75 144.078 22.5453 144.339 22.3945C144.601 22.2437 144.893 22.1299 145.217 22.0529C145.54 21.976 145.869 21.9175 146.205 21.8775C146.629 21.8282 146.974 21.7882 147.239 21.7575C147.503 21.7236 147.696 21.6697 147.816 21.5959C147.936 21.522 147.996 21.402 147.996 21.2358V21.2035C147.996 20.8003 147.882 20.4879 147.654 20.2663C147.429 20.0447 147.094 19.9339 146.648 19.9339C146.183 19.9339 145.817 20.037 145.549 20.2433C145.284 20.4464 145.101 20.6726 145 20.9219L143.702 20.6264C143.856 20.1955 144.081 19.8478 144.376 19.5831C144.675 19.3153 145.018 19.1214 145.406 19.0014C145.794 18.8783 146.201 18.8168 146.629 18.8168C146.912 18.8168 147.212 18.8506 147.529 18.9183C147.85 18.983 148.148 19.103 148.425 19.2784C148.705 19.4538 148.934 19.7047 149.113 20.0309C149.291 20.354 149.381 20.7741 149.381 21.2912V26H148.033V25.0305H147.977C147.888 25.209 147.754 25.3845 147.576 25.5568C147.397 25.7292 147.168 25.8723 146.888 25.9862C146.608 26.1 146.272 26.157 145.881 26.157ZM146.181 25.049C146.563 25.049 146.889 24.9736 147.16 24.8228C147.434 24.672 147.642 24.475 147.783 24.2319C147.928 23.9857 148 23.7225 148 23.4425V22.5284C147.951 22.5777 147.856 22.6238 147.714 22.6669C147.576 22.7069 147.417 22.7423 147.239 22.7731C147.06 22.8008 146.886 22.8269 146.717 22.8516C146.548 22.8731 146.406 22.8916 146.292 22.907C146.025 22.9408 145.78 22.9978 145.558 23.0778C145.34 23.1578 145.164 23.2732 145.032 23.424C144.903 23.5717 144.838 23.7687 144.838 24.0149C144.838 24.3565 144.964 24.6151 145.217 24.7905C145.469 24.9628 145.791 25.049 146.181 25.049ZM154.466 26.1431C153.78 26.1431 153.189 25.9877 152.693 25.6768C152.201 25.3629 151.822 24.9305 151.558 24.3796C151.293 23.8287 151.161 23.1978 151.161 22.4869C151.161 21.7667 151.296 21.1312 151.567 20.5803C151.838 20.0263 152.219 19.5939 152.712 19.283C153.204 18.9722 153.784 18.8168 154.452 18.8168C154.991 18.8168 155.471 18.9168 155.893 19.1168C156.314 19.3138 156.654 19.5908 156.913 19.9478C157.174 20.3048 157.33 20.7218 157.379 21.1989H156.036C155.962 20.8665 155.793 20.5803 155.528 20.3402C155.266 20.1001 154.915 19.9801 154.475 19.9801C154.091 19.9801 153.754 20.0817 153.464 20.2848C153.178 20.4848 152.955 20.7711 152.795 21.1435C152.635 21.5128 152.555 21.9498 152.555 22.4545C152.555 22.9716 152.633 23.4179 152.79 23.7933C152.947 24.1688 153.169 24.4596 153.455 24.6658C153.744 24.872 154.084 24.9751 154.475 24.9751C154.737 24.9751 154.974 24.9274 155.186 24.832C155.402 24.7335 155.582 24.5935 155.726 24.4119C155.874 24.2304 155.977 24.0118 156.036 23.7564H157.379C157.33 24.215 157.181 24.6243 156.931 24.9844C156.682 25.3445 156.348 25.6276 155.929 25.8338C155.514 26.04 155.026 26.1431 154.466 26.1431ZM162.425 18.9091V20.017H158.552V18.9091H162.425ZM159.591 17.2102H160.971V23.918C160.971 24.1857 161.011 24.3873 161.091 24.5227C161.171 24.6551 161.274 24.7459 161.4 24.7951C161.53 24.8413 161.67 24.8643 161.82 24.8643C161.931 24.8643 162.028 24.8567 162.111 24.8413C162.194 24.8259 162.259 24.8136 162.305 24.8043L162.554 25.9446C162.474 25.9754 162.361 26.0062 162.213 26.0369C162.065 26.0708 161.88 26.0893 161.659 26.0923C161.296 26.0985 160.957 26.0339 160.643 25.8984C160.329 25.763 160.075 25.5537 159.882 25.2706C159.688 24.9875 159.591 24.632 159.591 24.2042V17.2102ZM164.212 26V18.9091H165.592V26H164.212ZM164.909 17.815C164.669 17.815 164.463 17.735 164.291 17.5749C164.121 17.4118 164.037 17.2179 164.037 16.9933C164.037 16.7655 164.121 16.5716 164.291 16.4116C164.463 16.2485 164.669 16.1669 164.909 16.1669C165.149 16.1669 165.354 16.2485 165.523 16.4116C165.696 16.5716 165.782 16.7655 165.782 16.9933C165.782 17.2179 165.696 17.4118 165.523 17.5749C165.354 17.735 165.149 17.815 164.909 17.815ZM173.775 18.9091L171.204 26H169.727L167.151 18.9091H168.633L170.428 24.3658H170.502L172.294 18.9091H173.775ZM178.148 26.1431C177.449 26.1431 176.847 25.9938 176.343 25.6953C175.841 25.3937 175.453 24.9705 175.179 24.4258C174.908 23.878 174.773 23.2363 174.773 22.5007C174.773 21.7744 174.908 21.1342 175.179 20.5803C175.453 20.0263 175.835 19.5939 176.324 19.283C176.816 18.9722 177.392 18.8168 178.051 18.8168C178.451 18.8168 178.839 18.8829 179.214 19.0153C179.589 19.1476 179.926 19.3554 180.225 19.6385C180.524 19.9216 180.759 20.2894 180.931 20.7418C181.104 21.1912 181.19 21.7375 181.19 22.3807V22.87H175.553V21.8359H179.837C179.837 21.4728 179.763 21.1512 179.616 20.8711C179.468 20.5879 179.26 20.3648 178.992 20.2017C178.728 20.0386 178.417 19.957 178.06 19.957C177.672 19.957 177.334 20.0524 177.044 20.2433C176.758 20.431 176.536 20.6772 176.379 20.9819C176.226 21.2835 176.149 21.6113 176.149 21.9652V22.7731C176.149 23.247 176.232 23.6502 176.398 23.9826C176.567 24.315 176.803 24.5689 177.104 24.7443C177.406 24.9167 177.758 25.0028 178.161 25.0028C178.423 25.0028 178.662 24.9659 178.877 24.892C179.092 24.8151 179.279 24.7012 179.436 24.5504C179.593 24.3996 179.713 24.2134 179.796 23.9918L181.102 24.2273C180.997 24.612 180.81 24.949 180.539 25.2383C180.271 25.5245 179.934 25.7476 179.528 25.9077C179.125 26.0646 178.665 26.1431 178.148 26.1431ZM0.886896 44.6591V34.9091H2.23491V36.0586H2.35032C2.43034 35.9109 2.54575 35.7401 2.69656 35.5462C2.84736 35.3523 3.05664 35.183 3.3244 35.0384C3.59215 34.8906 3.94608 34.8168 4.38619 34.8168C4.95863 34.8168 5.46952 34.9614 5.91886 35.2507C6.36819 35.54 6.72058 35.957 6.97603 36.5018C7.23455 37.0465 7.36381 37.7021 7.36381 38.4684C7.36381 39.2347 7.23609 39.8918 6.98065 40.4396C6.7252 40.9844 6.37435 41.4045 5.92809 41.6999C5.48183 41.9923 4.97248 42.1385 4.40004 42.1385C3.96916 42.1385 3.61677 42.0662 3.34286 41.9215C3.07203 41.7769 2.85967 41.6076 2.70579 41.4137C2.55191 41.2198 2.43342 41.0475 2.35032 40.8967H2.26722V44.6591H0.886896ZM2.23952 38.4545C2.23952 38.9531 2.31185 39.3902 2.4565 39.7656C2.60115 40.1411 2.81043 40.435 3.08434 40.6474C3.35825 40.8567 3.69371 40.9613 4.09073 40.9613C4.50314 40.9613 4.84783 40.852 5.12482 40.6335C5.40181 40.4119 5.61109 40.1119 5.75266 39.7333C5.89731 39.3548 5.96964 38.9285 5.96964 38.4545C5.96964 37.9867 5.89885 37.5666 5.75728 37.1942C5.61879 36.8219 5.40951 36.5279 5.12944 36.3125C4.85245 36.0971 4.50621 35.9893 4.09073 35.9893C3.69064 35.9893 3.3521 36.0924 3.07511 36.2987C2.8012 36.5049 2.59345 36.7926 2.45188 37.1619C2.31031 37.5312 2.23952 37.9621 2.23952 38.4545ZM9.17033 42V34.9091H10.5045V36.0355H10.5784C10.7076 35.6539 10.9354 35.3538 11.2616 35.1353C11.5909 34.9137 11.9633 34.8029 12.3788 34.8029C12.465 34.8029 12.5665 34.806 12.6835 34.8121C12.8035 34.8183 12.8974 34.826 12.9651 34.8352V36.1555C12.9097 36.1402 12.8112 36.1232 12.6696 36.1048C12.5281 36.0832 12.3865 36.0724 12.2449 36.0724C11.9187 36.0724 11.6278 36.1417 11.3724 36.2802C11.12 36.4156 10.92 36.6049 10.7723 36.848C10.6245 37.0881 10.5507 37.362 10.5507 37.6697V42H9.17033ZM17.1525 42.1431C16.4878 42.1431 15.9076 41.9908 15.4121 41.6861C14.9166 41.3814 14.5319 40.9551 14.258 40.4073C13.9841 39.8595 13.8471 39.2193 13.8471 38.4869C13.8471 37.7513 13.9841 37.1081 14.258 36.5572C14.5319 36.0063 14.9166 35.5785 15.4121 35.2738C15.9076 34.9691 16.4878 34.8168 17.1525 34.8168C17.8173 34.8168 18.3975 34.9691 18.893 35.2738C19.3885 35.5785 19.7732 36.0063 20.0471 36.5572C20.321 37.1081 20.4579 37.7513 20.4579 38.4869C20.4579 39.2193 20.321 39.8595 20.0471 40.4073C19.7732 40.9551 19.3885 41.3814 18.893 41.6861C18.3975 41.9908 17.8173 42.1431 17.1525 42.1431ZM17.1572 40.9844C17.588 40.9844 17.945 40.8705 18.2282 40.6428C18.5113 40.415 18.7206 40.1119 18.856 39.7333C18.9945 39.3548 19.0638 38.9377 19.0638 38.4822C19.0638 38.0298 18.9945 37.6143 18.856 37.2358C18.7206 36.8542 18.5113 36.5479 18.2282 36.3171C17.945 36.0863 17.588 35.9709 17.1572 35.9709C16.7232 35.9709 16.3631 36.0863 16.0769 36.3171C15.7938 36.5479 15.5829 36.8542 15.4445 37.2358C15.309 37.6143 15.2413 38.0298 15.2413 38.4822C15.2413 38.9377 15.309 39.3548 15.4445 39.7333C15.5829 40.1119 15.7938 40.415 16.0769 40.6428C16.3631 40.8705 16.7232 40.9844 17.1572 40.9844ZM25.2317 44.8068C24.6685 44.8068 24.1838 44.733 23.7775 44.5852C23.3743 44.4375 23.045 44.2421 22.7896 43.9989C22.5341 43.7558 22.3433 43.4896 22.2171 43.2003L23.4036 42.7109C23.4867 42.8464 23.5975 42.9895 23.736 43.1403C23.8775 43.2942 24.0684 43.425 24.3084 43.5327C24.5515 43.6404 24.8639 43.6942 25.2456 43.6942C25.7688 43.6942 26.2012 43.5665 26.5428 43.3111C26.8844 43.0587 27.0552 42.6555 27.0552 42.1016V40.7074H26.9675C26.8844 40.8582 26.7644 41.0259 26.6074 41.2106C26.4535 41.3952 26.2412 41.5553 25.9703 41.6907C25.6995 41.8261 25.3471 41.8938 24.9132 41.8938C24.353 41.8938 23.8483 41.763 23.399 41.5014C22.9527 41.2367 22.5988 40.8474 22.3372 40.3335C22.0787 39.8164 21.9494 39.1809 21.9494 38.4268C21.9494 37.6728 22.0771 37.0265 22.3326 36.4879C22.5911 35.9493 22.945 35.5369 23.3943 35.2507C23.8437 34.9614 24.353 34.8168 24.9224 34.8168C25.3625 34.8168 25.718 34.8906 25.9888 35.0384C26.2596 35.183 26.4705 35.3523 26.6213 35.5462C26.7751 35.7401 26.8936 35.9109 26.9767 36.0586H27.0783V34.9091H28.4309V42.157C28.4309 42.7663 28.2894 43.2665 28.0062 43.6573C27.7231 44.0482 27.3399 44.3375 26.8567 44.5252C26.3766 44.7129 25.8349 44.8068 25.2317 44.8068ZM25.2179 40.7489C25.6149 40.7489 25.9503 40.6566 26.2242 40.4719C26.5012 40.2842 26.7105 40.0165 26.8521 39.6687C26.9967 39.3178 27.0691 38.8977 27.0691 38.4084C27.0691 37.9313 26.9983 37.5112 26.8567 37.1481C26.7151 36.7849 26.5074 36.5018 26.2335 36.2987C25.9596 36.0924 25.621 35.9893 25.2179 35.9893C24.8024 35.9893 24.4561 36.0971 24.1791 36.3125C23.9022 36.5249 23.6929 36.8142 23.5513 37.1804C23.4128 37.5466 23.3436 37.956 23.3436 38.4084C23.3436 38.8731 23.4144 39.2809 23.5559 39.6317C23.6975 39.9826 23.9068 40.2565 24.1838 40.4535C24.4638 40.6504 24.8085 40.7489 25.2179 40.7489ZM30.5421 42V34.9091H31.8763V36.0355H31.9502C32.0794 35.6539 32.3072 35.3538 32.6334 35.1353C32.9627 34.9137 33.3351 34.8029 33.7506 34.8029C33.8368 34.8029 33.9383 34.806 34.0553 34.8121C34.1753 34.8183 34.2692 34.826 34.3369 34.8352V36.1555C34.2815 36.1402 34.183 36.1232 34.0414 36.1048C33.8998 36.0832 33.7583 36.0724 33.6167 36.0724C33.2905 36.0724 32.9996 36.1417 32.7442 36.2802C32.4918 36.4156 32.2918 36.6049 32.144 36.848C31.9963 37.0881 31.9225 37.362 31.9225 37.6697V42H30.5421ZM37.7915 42.157C37.3421 42.157 36.9359 42.0739 36.5727 41.9077C36.2096 41.7384 35.9218 41.4937 35.7094 41.1737C35.5002 40.8536 35.3955 40.4612 35.3955 39.9964C35.3955 39.5964 35.4725 39.267 35.6263 39.0085C35.7802 38.75 35.988 38.5453 36.2496 38.3945C36.5112 38.2437 36.8036 38.1299 37.1267 38.0529C37.4499 37.976 37.7792 37.9175 38.1146 37.8775C38.5393 37.8282 38.884 37.7882 39.1487 37.7575C39.4134 37.7236 39.6058 37.6697 39.7258 37.5959C39.8458 37.522 39.9058 37.402 39.9058 37.2358V37.2035C39.9058 36.8003 39.792 36.4879 39.5642 36.2663C39.3395 36.0447 39.0041 35.9339 38.5578 35.9339C38.0931 35.9339 37.7268 36.037 37.4591 36.2433C37.1944 36.4464 37.0113 36.6726 36.9097 36.9219L35.6125 36.6264C35.7664 36.1955 35.9911 35.8478 36.2865 35.5831C36.585 35.3153 36.9282 35.1214 37.316 35.0014C37.7038 34.8783 38.1116 34.8168 38.5393 34.8168C38.8225 34.8168 39.1226 34.8506 39.4396 34.9183C39.7596 34.983 40.0582 35.103 40.3352 35.2784C40.6152 35.4538 40.8445 35.7047 41.023 36.0309C41.2015 36.354 41.2908 36.7741 41.2908 37.2912V42H39.9428V41.0305H39.8874C39.7981 41.209 39.6642 41.3845 39.4857 41.5568C39.3072 41.7292 39.0779 41.8723 38.7979 41.9862C38.5178 42.1 38.1823 42.157 37.7915 42.157ZM38.0915 41.049C38.4732 41.049 38.7994 40.9736 39.0702 40.8228C39.3442 40.672 39.5519 40.475 39.6935 40.2319C39.8381 39.9857 39.9104 39.7225 39.9104 39.4425V38.5284C39.8612 38.5777 39.7658 38.6238 39.6242 38.6669C39.4857 38.7069 39.3272 38.7423 39.1487 38.7731C38.9702 38.8008 38.7963 38.8269 38.6271 38.8516C38.4578 38.8731 38.3162 38.8916 38.2023 38.907C37.9346 38.9408 37.6899 38.9978 37.4683 39.0778C37.2498 39.1578 37.0744 39.2732 36.942 39.424C36.8128 39.5717 36.7482 39.7687 36.7482 40.0149C36.7482 40.3565 36.8743 40.6151 37.1267 40.7905C37.3791 40.9628 37.7007 41.049 38.0915 41.049ZM43.3893 42V34.9091H44.7142V36.0632H44.8019C44.9496 35.6723 45.1912 35.3677 45.5267 35.1491C45.8622 34.9276 46.2638 34.8168 46.7316 34.8168C47.2056 34.8168 47.6026 34.9276 47.9227 35.1491C48.2458 35.3707 48.4843 35.6754 48.6382 36.0632H48.7121C48.8813 35.6847 49.1506 35.383 49.52 35.1584C49.8893 34.9306 50.3294 34.8168 50.8403 34.8168C51.4835 34.8168 52.0082 35.0183 52.4145 35.4215C52.8238 35.8247 53.0285 36.4325 53.0285 37.245V42H51.6482V37.3743C51.6482 36.8942 51.5174 36.5464 51.2558 36.331C50.9942 36.1155 50.6818 36.0078 50.3186 36.0078C49.8693 36.0078 49.52 36.1463 49.2707 36.4233C49.0214 36.6972 48.8967 37.0496 48.8967 37.4805V42H47.521V37.2866C47.521 36.9019 47.401 36.5926 47.1609 36.3587C46.9209 36.1248 46.6085 36.0078 46.2238 36.0078C45.9622 36.0078 45.7206 36.0771 45.499 36.2156C45.2805 36.351 45.1035 36.5402 44.9681 36.7834C44.8358 37.0265 44.7696 37.3081 44.7696 37.6282V42H43.3893ZM55.1385 42V34.9091H56.4635V36.0632H56.5512C56.6989 35.6723 56.9405 35.3677 57.276 35.1491C57.6114 34.9276 58.0131 34.8168 58.4809 34.8168C58.9548 34.8168 59.3518 34.9276 59.6719 35.1491C59.9951 35.3707 60.2336 35.6754 60.3875 36.0632H60.4613C60.6306 35.6847 60.8999 35.383 61.2692 35.1584C61.6385 34.9306 62.0786 34.8168 62.5895 34.8168C63.2328 34.8168 63.7575 35.0183 64.1637 35.4215C64.5731 35.8247 64.7777 36.4325 64.7777 37.245V42H63.3974V37.3743C63.3974 36.8942 63.2666 36.5464 63.005 36.331C62.7434 36.1155 62.431 36.0078 62.0679 36.0078C61.6185 36.0078 61.2692 36.1463 61.0199 36.4233C60.7706 36.6972 60.646 37.0496 60.646 37.4805V42H59.2703V37.2866C59.2703 36.9019 59.1503 36.5926 58.9102 36.3587C58.6701 36.1248 58.3578 36.0078 57.9731 36.0078C57.7115 36.0078 57.4699 36.0771 57.2483 36.2156C57.0298 36.351 56.8528 36.5402 56.7174 36.7834C56.585 37.0265 56.5189 37.3081 56.5189 37.6282V42H55.1385ZM66.8878 42V34.9091H68.2681V42H66.8878ZM67.5849 33.815C67.3448 33.815 67.1386 33.735 66.9663 33.5749C66.797 33.4118 66.7124 33.2179 66.7124 32.9933C66.7124 32.7655 66.797 32.5716 66.9663 32.4116C67.1386 32.2485 67.3448 32.1669 67.5849 32.1669C67.8249 32.1669 68.0296 32.2485 68.1989 32.4116C68.3712 32.5716 68.4574 32.7655 68.4574 32.9933C68.4574 33.2179 68.3712 33.4118 68.1989 33.5749C68.0296 33.735 67.8249 33.815 67.5849 33.815ZM71.7654 37.7898V42H70.3851V34.9091H71.71V36.0632H71.7977C71.9609 35.6877 72.2163 35.3861 72.5641 35.1584C72.9149 34.9306 73.3566 34.8168 73.889 34.8168C74.3722 34.8168 74.7954 34.9183 75.1585 35.1214C75.5217 35.3215 75.8033 35.62 76.0033 36.017C76.2034 36.4141 76.3034 36.9049 76.3034 37.4897V42H74.9231V37.6559C74.9231 37.1419 74.7892 36.7403 74.5215 36.451C74.2537 36.1586 73.8859 36.0124 73.4181 36.0124C73.098 36.0124 72.8134 36.0817 72.5641 36.2202C72.3179 36.3587 72.1224 36.5618 71.9778 36.8295C71.8362 37.0942 71.7654 37.4143 71.7654 37.7898ZM81.3876 44.8068C80.8244 44.8068 80.3397 44.733 79.9335 44.5852C79.5303 44.4375 79.201 44.2421 78.9455 43.9989C78.6901 43.7558 78.4993 43.4896 78.3731 43.2003L79.5595 42.7109C79.6426 42.8464 79.7534 42.9895 79.8919 43.1403C80.0335 43.2942 80.2243 43.425 80.4643 43.5327C80.7075 43.6404 81.0199 43.6942 81.4015 43.6942C81.9247 43.6942 82.3571 43.5665 82.6987 43.3111C83.0403 43.0587 83.2111 42.6555 83.2111 42.1016V40.7074H83.1234C83.0403 40.8582 82.9203 41.0259 82.7634 41.2106C82.6095 41.3952 82.3971 41.5553 82.1263 41.6907C81.8554 41.8261 81.5031 41.8938 81.0691 41.8938C80.509 41.8938 80.0042 41.763 79.5549 41.5014C79.1086 41.2367 78.7547 40.8474 78.4931 40.3335C78.2346 39.8164 78.1053 39.1809 78.1053 38.4268C78.1053 37.6728 78.233 37.0265 78.4885 36.4879C78.747 35.9493 79.1009 35.5369 79.5503 35.2507C79.9996 34.9614 80.509 34.8168 81.0783 34.8168C81.5184 34.8168 81.8739 34.8906 82.1447 35.0384C82.4156 35.183 82.6264 35.3523 82.7772 35.5462C82.9311 35.7401 83.0496 35.9109 83.1327 36.0586H83.2342V34.9091H84.5869V42.157C84.5869 42.7663 84.4453 43.2665 84.1621 43.6573C83.879 44.0482 83.4958 44.3375 83.0126 44.5252C82.5325 44.7129 81.9909 44.8068 81.3876 44.8068ZM81.3738 40.7489C81.7708 40.7489 82.1063 40.6566 82.3802 40.4719C82.6572 40.2842 82.8665 40.0165 83.008 39.6687C83.1527 39.3178 83.225 38.8977 83.225 38.4084C83.225 37.9313 83.1542 37.5112 83.0126 37.1481C82.8711 36.7849 82.6633 36.5018 82.3894 36.2987C82.1155 36.0924 81.777 35.9893 81.3738 35.9893C80.9583 35.9893 80.6121 36.0971 80.3351 36.3125C80.0581 36.5249 79.8488 36.8142 79.7072 37.1804C79.5687 37.5466 79.4995 37.956 79.4995 38.4084C79.4995 38.8731 79.5703 39.2809 79.7119 39.6317C79.8534 39.9826 80.0627 40.2565 80.3397 40.4535C80.6198 40.6504 80.9645 40.7489 81.3738 40.7489ZM93.4546 42.1431C92.756 42.1431 92.1543 41.9938 91.6496 41.6953C91.1479 41.3937 90.7601 40.9705 90.4862 40.4258C90.2154 39.878 90.08 39.2363 90.08 38.5007C90.08 37.7744 90.2154 37.1342 90.4862 36.5803C90.7601 36.0263 91.1418 35.5939 91.6311 35.283C92.1235 34.9722 92.699 34.8168 93.3577 34.8168C93.7578 34.8168 94.1455 34.8829 94.521 35.0153C94.8965 35.1476 95.2335 35.3554 95.532 35.6385C95.8306 35.9216 96.066 36.2894 96.2383 36.7418C96.4107 37.1912 96.4969 37.7375 96.4969 38.3807V38.87H90.8601V37.8359H95.1442C95.1442 37.4728 95.0704 37.1512 94.9226 36.8711C94.7749 36.5879 94.5672 36.3648 94.2994 36.2017C94.0347 36.0386 93.7239 35.957 93.3669 35.957C92.9791 35.957 92.6406 36.0524 92.3513 36.2433C92.065 36.431 91.8435 36.6772 91.6865 36.9819C91.5326 37.2835 91.4557 37.6113 91.4557 37.9652V38.7731C91.4557 39.247 91.5388 39.6502 91.705 39.9826C91.8742 40.315 92.1097 40.5689 92.4113 40.7443C92.7129 40.9167 93.0653 41.0028 93.4685 41.0028C93.7301 41.0028 93.9686 40.9659 94.184 40.892C94.3994 40.8151 94.5856 40.7012 94.7426 40.5504C94.8996 40.3996 95.0196 40.2134 95.1027 39.9918L96.4092 40.2273C96.3045 40.612 96.1168 40.949 95.8459 41.2383C95.5782 41.5245 95.2412 41.7476 94.8349 41.9077C94.4318 42.0646 93.9717 42.1431 93.4546 42.1431ZM100.943 42.1385C100.37 42.1385 99.8595 41.9923 99.4102 41.6999C98.9639 41.4045 98.6131 40.9844 98.3576 40.4396C98.1053 39.8918 97.9791 39.2347 97.9791 38.4684C97.9791 37.7021 98.1068 37.0465 98.3622 36.5018C98.6208 35.957 98.9747 35.54 99.424 35.2507C99.8734 34.9614 100.383 34.8168 100.952 34.8168C101.392 34.8168 101.746 34.8906 102.014 35.0384C102.285 35.183 102.494 35.3523 102.642 35.5462C102.793 35.7401 102.909 35.9109 102.993 36.0586H103.076V32.5455H104.456V42H103.108V40.8967H102.993C102.909 41.0475 102.789 41.2198 102.632 41.4137C102.479 41.6076 102.266 41.7769 101.995 41.9215C101.725 42.0662 101.374 42.1385 100.943 42.1385ZM101.248 40.9613C101.645 40.9613 101.98 40.8567 102.254 40.6474C102.531 40.435 102.74 40.1411 102.882 39.7656C103.026 39.3902 103.099 38.9531 103.099 38.4545C103.099 37.9621 103.028 37.5312 102.886 37.1619C102.745 36.7926 102.537 36.5049 102.263 36.2987C101.989 36.0924 101.651 35.9893 101.248 35.9893C100.832 35.9893 100.486 36.0971 100.209 36.3125C99.9318 36.5279 99.7226 36.8219 99.581 37.1942C99.4425 37.5666 99.3733 37.9867 99.3733 38.4545C99.3733 38.9285 99.444 39.3548 99.5856 39.7333C99.7272 40.1119 99.9365 40.4119 100.213 40.6335C100.494 40.852 100.838 40.9613 101.248 40.9613ZM111.178 39.0593V34.9091H112.563V42H111.206V40.772H111.132C110.969 41.1506 110.707 41.466 110.347 41.7184C109.99 41.9677 109.545 42.0923 109.013 42.0923C108.557 42.0923 108.154 41.9923 107.803 41.7923C107.455 41.5891 107.182 41.2891 106.982 40.892C106.785 40.495 106.686 40.0041 106.686 39.4194V34.9091H108.066V39.2532C108.066 39.7364 108.2 40.1211 108.468 40.4073C108.736 40.6935 109.084 40.8366 109.511 40.8366C109.77 40.8366 110.027 40.772 110.282 40.6428C110.541 40.5135 110.755 40.3181 110.924 40.0565C111.096 39.7949 111.181 39.4625 111.178 39.0593ZM117.664 42.1431C116.978 42.1431 116.387 41.9877 115.892 41.6768C115.399 41.3629 115.021 40.9305 114.756 40.3796C114.491 39.8287 114.359 39.1978 114.359 38.4869C114.359 37.7667 114.494 37.1312 114.765 36.5803C115.036 36.0263 115.418 35.5939 115.91 35.283C116.403 34.9722 116.983 34.8168 117.651 34.8168C118.189 34.8168 118.669 34.9168 119.091 35.1168C119.513 35.3138 119.853 35.5908 120.111 35.9478C120.373 36.3048 120.528 36.7218 120.577 37.1989H119.234C119.16 36.8665 118.991 36.5803 118.726 36.3402C118.465 36.1001 118.114 35.9801 117.674 35.9801C117.289 35.9801 116.952 36.0817 116.663 36.2848C116.376 36.4848 116.153 36.7711 115.993 37.1435C115.833 37.5128 115.753 37.9498 115.753 38.4545C115.753 38.9716 115.832 39.4179 115.989 39.7933C116.146 40.1688 116.367 40.4596 116.653 40.6658C116.943 40.872 117.283 40.9751 117.674 40.9751C117.935 40.9751 118.172 40.9274 118.385 40.832C118.6 40.7335 118.78 40.5935 118.925 40.4119C119.072 40.2304 119.176 40.0118 119.234 39.7564H120.577C120.528 40.215 120.379 40.6243 120.13 40.9844C119.88 41.3445 119.546 41.6276 119.128 41.8338C118.712 42.04 118.225 42.1431 117.664 42.1431ZM124.377 42.157C123.928 42.157 123.521 42.0739 123.158 41.9077C122.795 41.7384 122.507 41.4937 122.295 41.1737C122.086 40.8536 121.981 40.4612 121.981 39.9964C121.981 39.5964 122.058 39.267 122.212 39.0085C122.366 38.75 122.574 38.5453 122.835 38.3945C123.097 38.2437 123.389 38.1299 123.712 38.0529C124.035 37.976 124.365 37.9175 124.7 37.8775C125.125 37.8282 125.47 37.7882 125.734 37.7575C125.999 37.7236 126.191 37.6697 126.311 37.5959C126.431 37.522 126.491 37.402 126.491 37.2358V37.2035C126.491 36.8003 126.378 36.4879 126.15 36.2663C125.925 36.0447 125.59 35.9339 125.143 35.9339C124.679 35.9339 124.312 36.037 124.045 36.2433C123.78 36.4464 123.597 36.6726 123.495 36.9219L122.198 36.6264C122.352 36.1955 122.577 35.8478 122.872 35.5831C123.171 35.3153 123.514 35.1214 123.902 35.0014C124.289 34.8783 124.697 34.8168 125.125 34.8168C125.408 34.8168 125.708 34.8506 126.025 34.9183C126.345 34.983 126.644 35.103 126.921 35.2784C127.201 35.4538 127.43 35.7047 127.609 36.0309C127.787 36.354 127.876 36.7741 127.876 37.2912V42H126.528V41.0305H126.473C126.384 41.209 126.25 41.3845 126.071 41.5568C125.893 41.7292 125.664 41.8723 125.383 41.9862C125.103 42.1 124.768 42.157 124.377 42.157ZM124.677 41.049C125.059 41.049 125.385 40.9736 125.656 40.8228C125.93 40.672 126.137 40.475 126.279 40.2319C126.424 39.9857 126.496 39.7225 126.496 39.4425V38.5284C126.447 38.5777 126.351 38.6238 126.21 38.6669C126.071 38.7069 125.913 38.7423 125.734 38.7731C125.556 38.8008 125.382 38.8269 125.213 38.8516C125.043 38.8731 124.902 38.8916 124.788 38.907C124.52 38.9408 124.276 38.9978 124.054 39.0778C123.835 39.1578 123.66 39.2732 123.528 39.424C123.398 39.5717 123.334 39.7687 123.334 40.0149C123.334 40.3565 123.46 40.6151 123.712 40.7905C123.965 40.9628 124.286 41.049 124.677 41.049ZM133.285 34.9091V36.017H129.412V34.9091H133.285ZM130.45 33.2102H131.831V39.918C131.831 40.1857 131.871 40.3873 131.951 40.5227C132.031 40.6551 132.134 40.7459 132.26 40.7951C132.389 40.8413 132.529 40.8643 132.68 40.8643C132.791 40.8643 132.888 40.8567 132.971 40.8413C133.054 40.8259 133.119 40.8136 133.165 40.8043L133.414 41.9446C133.334 41.9754 133.22 42.0062 133.073 42.0369C132.925 42.0708 132.74 42.0893 132.519 42.0923C132.155 42.0985 131.817 42.0339 131.503 41.8984C131.189 41.763 130.935 41.5537 130.741 41.2706C130.547 40.9875 130.45 40.632 130.45 40.2042V33.2102ZM135.072 42V34.9091H136.452V42H135.072ZM135.769 33.815C135.529 33.815 135.323 33.735 135.15 33.5749C134.981 33.4118 134.896 33.2179 134.896 32.9933C134.896 32.7655 134.981 32.5716 135.15 32.4116C135.323 32.2485 135.529 32.1669 135.769 32.1669C136.009 32.1669 136.214 32.2485 136.383 32.4116C136.555 32.5716 136.641 32.7655 136.641 32.9933C136.641 33.2179 136.555 33.4118 136.383 33.5749C136.214 33.735 136.009 33.815 135.769 33.815ZM141.556 42.1431C140.891 42.1431 140.311 41.9908 139.816 41.6861C139.32 41.3814 138.935 40.9551 138.661 40.4073C138.388 39.8595 138.251 39.2193 138.251 38.4869C138.251 37.7513 138.388 37.1081 138.661 36.5572C138.935 36.0063 139.32 35.5785 139.816 35.2738C140.311 34.9691 140.891 34.8168 141.556 34.8168C142.221 34.8168 142.801 34.9691 143.296 35.2738C143.792 35.5785 144.177 36.0063 144.45 36.5572C144.724 37.1081 144.861 37.7513 144.861 38.4869C144.861 39.2193 144.724 39.8595 144.45 40.4073C144.177 40.9551 143.792 41.3814 143.296 41.6861C142.801 41.9908 142.221 42.1431 141.556 42.1431ZM141.561 40.9844C141.991 40.9844 142.348 40.8705 142.632 40.6428C142.915 40.415 143.124 40.1119 143.259 39.7333C143.398 39.3548 143.467 38.9377 143.467 38.4822C143.467 38.0298 143.398 37.6143 143.259 37.2358C143.124 36.8542 142.915 36.5479 142.632 36.3171C142.348 36.0863 141.991 35.9709 141.561 35.9709C141.127 35.9709 140.767 36.0863 140.48 36.3171C140.197 36.5479 139.986 36.8542 139.848 37.2358C139.712 37.6143 139.645 38.0298 139.645 38.4822C139.645 38.9377 139.712 39.3548 139.848 39.7333C139.986 40.1119 140.197 40.415 140.48 40.6428C140.767 40.8705 141.127 40.9844 141.561 40.9844ZM148.042 37.7898V42H146.662V34.9091H147.987V36.0632H148.075C148.238 35.6877 148.493 35.3861 148.841 35.1584C149.192 34.9306 149.634 34.8168 150.166 34.8168C150.649 34.8168 151.072 34.9183 151.436 35.1214C151.799 35.3215 152.08 35.62 152.28 36.017C152.48 36.4141 152.58 36.9049 152.58 37.4897V42H151.2V37.6559C151.2 37.1419 151.066 36.7403 150.798 36.451C150.531 36.1586 150.163 36.0124 149.695 36.0124C149.375 36.0124 149.09 36.0817 148.841 36.2202C148.595 36.3587 148.399 36.5618 148.255 36.8295C148.113 37.0942 148.042 37.4143 148.042 37.7898ZM155.601 42.0877C155.349 42.0877 155.132 41.9985 154.95 41.82C154.769 41.6384 154.678 41.4199 154.678 41.1644C154.678 40.9121 154.769 40.6966 154.95 40.5181C155.132 40.3365 155.349 40.2457 155.601 40.2457C155.853 40.2457 156.07 40.3365 156.252 40.5181C156.434 40.6966 156.524 40.9121 156.524 41.1644C156.524 41.3337 156.481 41.4891 156.395 41.6307C156.312 41.7692 156.201 41.88 156.063 41.9631C155.924 42.0462 155.77 42.0877 155.601 42.0877Z" fill="#F7F8F8"/>
</svg>
