<svg width="182" height="45" viewBox="0 0 182 45" fill="none" xmlns="http://www.w3.org/2000/svg">
<path d="M2.89382 10L0.271662 0.545454H1.77202L3.61399 7.86719H3.7017L5.61754 0.545454H7.10405L9.01989 7.8718H9.1076L10.945 0.545454H12.4499L9.82315 10H8.38743L6.39773 2.91832H6.32386L4.33416 10H2.89382ZM16.2577 10.1431C15.5591 10.1431 14.9574 9.99384 14.4526 9.69531C13.951 9.3937 13.5632 8.97053 13.2893 8.42578C13.0185 7.87796 12.883 7.23627 12.883 6.50071C12.883 5.77438 13.0185 5.13423 13.2893 4.58026C13.5632 4.02628 13.9448 3.59387 14.4342 3.28303C14.9266 2.97218 15.5021 2.81676 16.1607 2.81676C16.5608 2.81676 16.9486 2.88293 17.3241 3.01527C17.6996 3.14761 18.0366 3.35535 18.3351 3.63849C18.6336 3.92164 18.8691 4.28942 19.0414 4.74183C19.2138 5.19117 19.3 5.73745 19.3 6.38068V6.87003H13.6632V5.83594H17.9473C17.9473 5.47277 17.8735 5.15116 17.7257 4.87109C17.578 4.58795 17.3703 4.36482 17.1025 4.2017C16.8378 4.03859 16.527 3.95703 16.17 3.95703C15.7822 3.95703 15.4437 4.05244 15.1544 4.24325C14.8681 4.43099 14.6465 4.6772 14.4896 4.98189C14.3357 5.2835 14.2588 5.61127 14.2588 5.9652V6.77308C14.2588 7.24704 14.3419 7.65021 14.508 7.9826C14.6773 8.31499 14.9128 8.56889 15.2144 8.74432C15.516 8.91667 15.8684 9.00284 16.2715 9.00284C16.5331 9.00284 16.7717 8.96591 16.9871 8.89205C17.2025 8.8151 17.3887 8.70123 17.5457 8.55043C17.7026 8.39962 17.8227 8.21342 17.9058 7.99183L19.2122 8.22727C19.1076 8.61198 18.9199 8.94898 18.649 9.23828C18.3813 9.5245 18.0443 9.74763 17.638 9.90767C17.2348 10.0646 16.7747 10.1431 16.2577 10.1431ZM27.7788 10.1431C27.114 10.1431 26.5338 9.99077 26.0383 9.68608C25.5428 9.38139 25.1581 8.95514 24.8842 8.40732C24.6103 7.85949 24.4734 7.21934 24.4734 6.48686C24.4734 5.7513 24.6103 5.10807 24.8842 4.55717C25.1581 4.00627 25.5428 3.57848 26.0383 3.27379C26.5338 2.96911 27.114 2.81676 27.7788 2.81676C28.4435 2.81676 29.0237 2.96911 29.5192 3.27379C30.0147 3.57848 30.3994 4.00627 30.6733 4.55717C30.9472 5.10807 31.0842 5.7513 31.0842 6.48686C31.0842 7.21934 30.9472 7.85949 30.6733 8.40732C30.3994 8.95514 30.0147 9.38139 29.5192 9.68608C29.0237 9.99077 28.4435 10.1431 27.7788 10.1431ZM27.7834 8.98438C28.2142 8.98438 28.5713 8.8705 28.8544 8.64276C29.1375 8.41501 29.3468 8.11186 29.4822 7.73331C29.6207 7.35476 29.69 6.93774 29.69 6.48224C29.69 6.02983 29.6207 5.61435 29.4822 5.2358C29.3468 4.85417 29.1375 4.54794 28.8544 4.31712C28.5713 4.08629 28.2142 3.97088 27.7834 3.97088C27.3494 3.97088 26.9893 4.08629 26.7031 4.31712C26.42 4.54794 26.2092 4.85417 26.0707 5.2358C25.9352 5.61435 25.8675 6.02983 25.8675 6.48224C25.8675 6.93774 25.9352 7.35476 26.0707 7.73331C26.2092 8.11186 26.42 8.41501 26.7031 8.64276C26.9893 8.8705 27.3494 8.98438 27.7834 8.98438ZM36.2595 2.90909V4.01705H32.2524V2.90909H36.2595ZM33.3512 10V2.08736C33.3512 1.64418 33.4481 1.2764 33.642 0.98402C33.8359 0.688565 34.0929 0.468513 34.413 0.323864C34.733 0.176136 35.0808 0.102272 35.4563 0.102272C35.7333 0.102272 35.9703 0.125355 36.1672 0.17152C36.3642 0.214607 36.5104 0.254616 36.6058 0.291548L36.2826 1.40874C36.218 1.39027 36.1349 1.36873 36.0333 1.34411C35.9318 1.31641 35.8087 1.30256 35.664 1.30256C35.3286 1.30256 35.0885 1.38565 34.9439 1.55185C34.8023 1.71804 34.7315 1.9581 34.7315 2.27202V10H33.3512ZM41.3184 2.90909V4.01705H37.3113V2.90909H41.3184ZM38.41 10V2.08736C38.41 1.64418 38.5069 1.2764 38.7008 0.98402C38.8947 0.688565 39.1517 0.468513 39.4718 0.323864C39.7919 0.176136 40.1396 0.102272 40.5151 0.102272C40.7921 0.102272 41.0291 0.125355 41.226 0.17152C41.423 0.214607 41.5692 0.254616 41.6646 0.291548L41.3415 1.40874C41.2768 1.39027 41.1937 1.36873 41.0922 1.34411C40.9906 1.31641 40.8675 1.30256 40.7229 1.30256C40.3874 1.30256 40.1473 1.38565 40.0027 1.55185C39.8611 1.71804 39.7903 1.9581 39.7903 2.27202V10H38.41ZM45.7794 10.1431C45.0807 10.1431 44.4791 9.99384 43.9743 9.69531C43.4727 9.3937 43.0849 8.97053 42.811 8.42578C42.5401 7.87796 42.4047 7.23627 42.4047 6.50071C42.4047 5.77438 42.5401 5.13423 42.811 4.58026C43.0849 4.02628 43.4665 3.59387 43.9559 3.28303C44.4483 2.97218 45.0238 2.81676 45.6824 2.81676C46.0825 2.81676 46.4703 2.88293 46.8458 3.01527C47.2213 3.14761 47.5583 3.35535 47.8568 3.63849C48.1553 3.92164 48.3908 4.28942 48.5631 4.74183C48.7355 5.19117 48.8216 5.73745 48.8216 6.38068V6.87003H43.1849V5.83594H47.469C47.469 5.47277 47.3951 5.15116 47.2474 4.87109C47.0997 4.58795 46.8919 4.36482 46.6242 4.2017C46.3595 4.03859 46.0487 3.95703 45.6917 3.95703C45.3039 3.95703 44.9653 4.05244 44.676 4.24325C44.3898 4.43099 44.1682 4.6772 44.0113 4.98189C43.8574 5.2835 43.7804 5.61127 43.7804 5.9652V6.77308C43.7804 7.24704 43.8635 7.65021 44.0297 7.9826C44.199 8.31499 44.4344 8.56889 44.736 8.74432C45.0377 8.91667 45.39 9.00284 45.7932 9.00284C46.0548 9.00284 46.2933 8.96591 46.5088 8.89205C46.7242 8.8151 46.9104 8.70123 47.0674 8.55043C47.2243 8.39962 47.3444 8.21342 47.4275 7.99183L48.7339 8.22727C48.6293 8.61198 48.4415 8.94898 48.1707 9.23828C47.903 9.5245 47.5659 9.74763 47.1597 9.90767C46.7565 10.0646 46.2964 10.1431 45.7794 10.1431ZM50.6131 10V2.90909H51.9473V4.03551H52.0212C52.1504 3.65388 52.3782 3.35381 52.7044 3.1353C53.0337 2.91371 53.4061 2.80291 53.8216 2.80291C53.9078 2.80291 54.0093 2.80599 54.1263 2.81214C54.2463 2.8183 54.3402 2.82599 54.4079 2.83523V4.15554C54.3525 4.14015 54.254 4.12322 54.1124 4.10476C53.9709 4.08321 53.8293 4.07244 53.6877 4.07244C53.3615 4.07244 53.0707 4.14169 52.8152 4.28018C52.5628 4.4156 52.3628 4.60488 52.2151 4.84801C52.0673 5.08807 51.9935 5.36198 51.9935 5.66974V10H50.6131ZM62.5497 10.1431C61.8849 10.1431 61.3048 9.99077 60.8093 9.68608C60.3138 9.38139 59.9291 8.95514 59.6552 8.40732C59.3813 7.85949 59.2443 7.21934 59.2443 6.48686C59.2443 5.7513 59.3813 5.10807 59.6552 4.55717C59.9291 4.00627 60.3138 3.57848 60.8093 3.27379C61.3048 2.96911 61.8849 2.81676 62.5497 2.81676C63.2145 2.81676 63.7946 2.96911 64.2901 3.27379C64.7856 3.57848 65.1703 4.00627 65.4442 4.55717C65.7181 5.10807 65.8551 5.7513 65.8551 6.48686C65.8551 7.21934 65.7181 7.85949 65.4442 8.40732C65.1703 8.95514 64.7856 9.38139 64.2901 9.68608C63.7946 9.99077 63.2145 10.1431 62.5497 10.1431ZM62.5543 8.98438C62.9852 8.98438 63.3422 8.8705 63.6253 8.64276C63.9085 8.41501 64.1178 8.11186 64.2532 7.73331C64.3917 7.35476 64.4609 6.93774 64.4609 6.48224C64.4609 6.02983 64.3917 5.61435 64.2532 5.2358C64.1178 4.85417 63.9085 4.54794 63.6253 4.31712C63.3422 4.08629 62.9852 3.97088 62.5543 3.97088C62.1204 3.97088 61.7603 4.08629 61.4741 4.31712C61.1909 4.54794 60.9801 4.85417 60.8416 5.2358C60.7062 5.61435 60.6385 6.02983 60.6385 6.48224C60.6385 6.93774 60.7062 7.35476 60.8416 7.73331C60.9801 8.11186 61.1909 8.41501 61.4741 8.64276C61.7603 8.8705 62.1204 8.98438 62.5543 8.98438ZM69.0362 5.78977V10H67.6558V2.90909H68.9808V4.06321H69.0685C69.2316 3.68774 69.487 3.38613 69.8348 3.15838C70.1857 2.93063 70.6273 2.81676 71.1597 2.81676C71.6429 2.81676 72.0661 2.91832 72.4293 3.12145C72.7924 3.3215 73.074 3.62003 73.2741 4.01705C73.4741 4.41406 73.5742 4.90495 73.5742 5.4897V10H72.1938V5.65589C72.1938 5.14193 72.06 4.74029 71.7922 4.45099C71.5244 4.15862 71.1567 4.01243 70.6889 4.01243C70.3688 4.01243 70.0841 4.08168 69.8348 4.22017C69.5886 4.35866 69.3932 4.56179 69.2485 4.82955C69.107 5.09422 69.0362 5.4143 69.0362 5.78977ZM77.0657 0.545454V10H75.6854V0.545454H77.0657ZM79.1827 10V2.90909H80.563V10H79.1827ZM79.8798 1.81499C79.6397 1.81499 79.4335 1.73497 79.2612 1.57493C79.0919 1.41181 79.0073 1.21792 79.0073 0.993252C79.0073 0.765506 79.0919 0.571614 79.2612 0.411576C79.4335 0.248461 79.6397 0.166903 79.8798 0.166903C80.1198 0.166903 80.3245 0.248461 80.4938 0.411576C80.6661 0.571614 80.7523 0.765506 80.7523 0.993252C80.7523 1.21792 80.6661 1.41181 80.4938 1.57493C80.3245 1.73497 80.1198 1.81499 79.8798 1.81499ZM84.0603 5.78977V10H82.68V2.90909H84.0049V4.06321H84.0926C84.2557 3.68774 84.5112 3.38613 84.859 3.15838C85.2098 2.93063 85.6515 2.81676 86.1839 2.81676C86.6671 2.81676 87.0903 2.91832 87.4534 3.12145C87.8166 3.3215 88.0982 3.62003 88.2982 4.01705C88.4983 4.41406 88.5983 4.90495 88.5983 5.4897V10H87.218V5.65589C87.218 5.14193 87.0841 4.74029 86.8163 4.45099C86.5486 4.15862 86.1808 4.01243 85.713 4.01243C85.3929 4.01243 85.1082 4.08168 84.859 4.22017C84.6127 4.35866 84.4173 4.56179 84.2727 4.82955C84.1311 5.09422 84.0603 5.4143 84.0603 5.78977ZM93.7656 10.1431C93.067 10.1431 92.4653 9.99384 91.9606 9.69531C91.4589 9.3937 91.0711 8.97053 90.7972 8.42578C90.5264 7.87796 90.391 7.23627 90.391 6.50071C90.391 5.77438 90.5264 5.13423 90.7972 4.58026C91.0711 4.02628 91.4528 3.59387 91.9421 3.28303C92.4345 2.97218 93.0101 2.81676 93.6687 2.81676C94.0688 2.81676 94.4566 2.88293 94.832 3.01527C95.2075 3.14761 95.5445 3.35535 95.843 3.63849C96.1416 3.92164 96.377 4.28942 96.5494 4.74183C96.7217 5.19117 96.8079 5.73745 96.8079 6.38068V6.87003H91.1712V5.83594H95.4553C95.4553 5.47277 95.3814 5.15116 95.2337 4.87109C95.0859 4.58795 94.8782 4.36482 94.6104 4.2017C94.3458 4.03859 94.0349 3.95703 93.6779 3.95703C93.2901 3.95703 92.9516 4.05244 92.6623 4.24325C92.3761 4.43099 92.1545 4.6772 91.9975 4.98189C91.8436 5.2835 91.7667 5.61127 91.7667 5.9652V6.77308C91.7667 7.24704 91.8498 7.65021 92.016 7.9826C92.1852 8.31499 92.4207 8.56889 92.7223 8.74432C93.0239 8.91667 93.3763 9.00284 93.7795 9.00284C94.0411 9.00284 94.2796 8.96591 94.495 8.89205C94.7105 8.8151 94.8967 8.70123 95.0536 8.55043C95.2106 8.39962 95.3306 8.21342 95.4137 7.99183L96.7202 8.22727C96.6155 8.61198 96.4278 8.94898 96.157 9.23828C95.8892 9.5245 95.5522 9.74763 95.1459 9.90767C94.7428 10.0646 94.2827 10.1431 93.7656 10.1431ZM105.287 10.1431C104.6 10.1431 104.009 9.98769 103.514 9.67685C103.022 9.36293 102.643 8.93052 102.378 8.37962C102.114 7.82872 101.981 7.1978 101.981 6.48686C101.981 5.76669 102.117 5.13115 102.388 4.58026C102.658 4.02628 103.04 3.59387 103.532 3.28303C104.025 2.97218 104.605 2.81676 105.273 2.81676C105.811 2.81676 106.292 2.91679 106.713 3.11683C107.135 3.3138 107.475 3.59079 107.733 3.9478C107.995 4.30481 108.15 4.72183 108.2 5.19886H106.856C106.782 4.86648 106.613 4.58026 106.348 4.3402C106.087 4.10014 105.736 3.98011 105.296 3.98011C104.911 3.98011 104.574 4.08168 104.285 4.2848C103.999 4.48485 103.776 4.77107 103.616 5.14347C103.455 5.51278 103.375 5.94981 103.375 6.45455C103.375 6.97159 103.454 7.41785 103.611 7.79332C103.768 8.1688 103.989 8.45964 104.276 8.66584C104.565 8.87204 104.905 8.97514 105.296 8.97514C105.558 8.97514 105.795 8.92744 106.007 8.83203C106.222 8.73355 106.402 8.59351 106.547 8.41193C106.695 8.23035 106.798 8.01184 106.856 7.75639H108.2C108.15 8.21496 108.001 8.62429 107.752 8.98438C107.503 9.34446 107.169 9.6276 106.75 9.83381C106.335 10.04 105.847 10.1431 105.287 10.1431ZM112.923 10.1431C112.258 10.1431 111.678 9.99077 111.182 9.68608C110.687 9.38139 110.302 8.95514 110.028 8.40732C109.754 7.85949 109.617 7.21934 109.617 6.48686C109.617 5.7513 109.754 5.10807 110.028 4.55717C110.302 4.00627 110.687 3.57848 111.182 3.27379C111.678 2.96911 112.258 2.81676 112.923 2.81676C113.587 2.81676 114.168 2.96911 114.663 3.27379C115.159 3.57848 115.543 4.00627 115.817 4.55717C116.091 5.10807 116.228 5.7513 116.228 6.48686C116.228 7.21934 116.091 7.85949 115.817 8.40732C115.543 8.95514 115.159 9.38139 114.663 9.68608C114.168 9.99077 113.587 10.1431 112.923 10.1431ZM112.927 8.98438C113.358 8.98438 113.715 8.8705 113.998 8.64276C114.281 8.41501 114.491 8.11186 114.626 7.73331C114.765 7.35476 114.834 6.93774 114.834 6.48224C114.834 6.02983 114.765 5.61435 114.626 5.2358C114.491 4.85417 114.281 4.54794 113.998 4.31712C113.715 4.08629 113.358 3.97088 112.927 3.97088C112.493 3.97088 112.133 4.08629 111.847 4.31712C111.564 4.54794 111.353 4.85417 111.215 5.2358C111.079 5.61435 111.011 6.02983 111.011 6.48224C111.011 6.93774 111.079 7.35476 111.215 7.73331C111.353 8.11186 111.564 8.41501 111.847 8.64276C112.133 8.8705 112.493 8.98438 112.927 8.98438ZM120.683 10.1385C120.111 10.1385 119.6 9.99231 119.151 9.69993C118.704 9.40447 118.354 8.98437 118.098 8.43963C117.846 7.89181 117.72 7.23473 117.72 6.46839C117.72 5.70206 117.847 5.04652 118.103 4.50178C118.361 3.95703 118.715 3.54001 119.164 3.25071C119.614 2.96141 120.123 2.81676 120.693 2.81676C121.133 2.81676 121.487 2.89062 121.754 3.03835C122.025 3.183 122.234 3.35227 122.382 3.54616C122.533 3.74006 122.65 3.91087 122.733 4.05859H122.816V0.545454H124.196V10H122.848V8.89666H122.733C122.65 9.04747 122.53 9.21982 122.373 9.41371C122.219 9.6076 122.007 9.77687 121.736 9.92152C121.465 10.0662 121.114 10.1385 120.683 10.1385ZM120.988 8.96129C121.385 8.96129 121.72 8.85665 121.994 8.64737C122.271 8.43501 122.481 8.1411 122.622 7.76562C122.767 7.39015 122.839 6.95312 122.839 6.45455C122.839 5.96212 122.768 5.53125 122.627 5.16193C122.485 4.79261 122.278 4.50485 122.004 4.29865C121.73 4.09245 121.391 3.98935 120.988 3.98935C120.572 3.98935 120.226 4.09706 119.949 4.3125C119.672 4.52794 119.463 4.82185 119.321 5.19425C119.183 5.56664 119.114 5.98674 119.114 6.45455C119.114 6.9285 119.184 7.35476 119.326 7.73331C119.468 8.11186 119.677 8.41193 119.954 8.63352C120.234 8.85204 120.579 8.96129 120.988 8.96129ZM126.427 10V2.90909H127.807V10H126.427ZM127.124 1.81499C126.884 1.81499 126.677 1.73497 126.505 1.57493C126.336 1.41181 126.251 1.21792 126.251 0.993252C126.251 0.765506 126.336 0.571614 126.505 0.411576C126.677 0.248461 126.884 0.166903 127.124 0.166903C127.364 0.166903 127.568 0.248461 127.738 0.411576C127.91 0.571614 127.996 0.765506 127.996 0.993252C127.996 1.21792 127.91 1.41181 127.738 1.57493C127.568 1.73497 127.364 1.81499 127.124 1.81499ZM131.304 5.78977V10H129.924V2.90909H131.249V4.06321H131.336C131.5 3.68774 131.755 3.38613 132.103 3.15838C132.454 2.93063 132.895 2.81676 133.428 2.81676C133.911 2.81676 134.334 2.91832 134.697 3.12145C135.06 3.3215 135.342 3.62003 135.542 4.01705C135.742 4.41406 135.842 4.90495 135.842 5.4897V10H134.462V5.65589C134.462 5.14193 134.328 4.74029 134.06 4.45099C133.792 4.15862 133.425 4.01243 132.957 4.01243C132.637 4.01243 132.352 4.08168 132.103 4.22017C131.857 4.35866 131.661 4.56179 131.516 4.82955C131.375 5.09422 131.304 5.4143 131.304 5.78977ZM140.926 12.8068C140.363 12.8068 139.878 12.733 139.472 12.5852C139.069 12.4375 138.74 12.2421 138.484 11.9989C138.229 11.7558 138.038 11.4896 137.912 11.2003L139.098 10.7109C139.181 10.8464 139.292 10.9895 139.431 11.1403C139.572 11.2942 139.763 11.425 140.003 11.5327C140.246 11.6404 140.559 11.6942 140.94 11.6942C141.463 11.6942 141.896 11.5665 142.237 11.3111C142.579 11.0587 142.75 10.6555 142.75 10.1016V8.70739H142.662C142.579 8.85819 142.459 9.02592 142.302 9.21058C142.148 9.39524 141.936 9.55528 141.665 9.6907C141.394 9.82611 141.042 9.89382 140.608 9.89382C140.048 9.89382 139.543 9.76302 139.094 9.50142C138.647 9.23674 138.293 8.84742 138.032 8.33345C137.773 7.81641 137.644 7.18087 137.644 6.42685C137.644 5.67282 137.772 5.02651 138.027 4.48793C138.286 3.94934 138.64 3.53693 139.089 3.25071C139.538 2.96141 140.048 2.81676 140.617 2.81676C141.057 2.81676 141.413 2.89062 141.683 3.03835C141.954 3.183 142.165 3.35227 142.316 3.54616C142.47 3.74006 142.588 3.91087 142.671 4.05859H142.773V2.90909H144.126V10.157C144.126 10.7663 143.984 11.2665 143.701 11.6573C143.418 12.0482 143.035 12.3375 142.551 12.5252C142.071 12.7129 141.53 12.8068 140.926 12.8068ZM140.913 8.74893C141.31 8.74893 141.645 8.65661 141.919 8.47195C142.196 8.28421 142.405 8.01645 142.547 7.66868C142.691 7.31783 142.764 6.89773 142.764 6.40838C142.764 5.93134 142.693 5.51125 142.551 5.14808C142.41 4.78492 142.202 4.50178 141.928 4.29865C141.654 4.09245 141.316 3.98935 140.913 3.98935C140.497 3.98935 140.151 4.09706 139.874 4.3125C139.597 4.52486 139.388 4.81416 139.246 5.1804C139.107 5.54664 139.038 5.95597 139.038 6.40838C139.038 6.87311 139.109 7.28089 139.251 7.63175C139.392 7.9826 139.601 8.25651 139.878 8.45348C140.158 8.65045 140.503 8.74893 140.913 8.74893ZM3.98793 26.1431C3.2893 26.1431 2.68762 25.9938 2.18288 25.6953C1.68123 25.3937 1.29344 24.9705 1.01953 24.4258C0.748698 23.878 0.613281 23.2363 0.613281 22.5007C0.613281 21.7744 0.748698 21.1342 1.01953 20.5803C1.29344 20.0263 1.67507 19.5939 2.16442 19.283C2.65684 18.9722 3.23236 18.8168 3.89098 18.8168C4.29107 18.8168 4.67886 18.8829 5.05433 19.0153C5.42981 19.1476 5.76681 19.3554 6.06534 19.6385C6.36387 19.9216 6.59931 20.2894 6.77166 20.7418C6.94401 21.1912 7.03019 21.7375 7.03019 22.3807V22.87H1.39347V21.8359H5.67756C5.67756 21.4728 5.60369 21.1512 5.45597 20.8711C5.30824 20.5879 5.1005 20.3648 4.83274 20.2017C4.56806 20.0386 4.25722 19.957 3.90021 19.957C3.51243 19.957 3.17389 20.0524 2.88459 20.2433C2.59837 20.431 2.37678 20.6772 2.21982 20.9819C2.06593 21.2835 1.98899 21.6113 1.98899 21.9652V22.7731C1.98899 23.247 2.07209 23.6502 2.23828 23.9826C2.40755 24.315 2.64299 24.5689 2.9446 24.7443C3.24621 24.9167 3.5986 25.0028 4.00178 25.0028C4.26338 25.0028 4.50189 24.9659 4.71733 24.892C4.93277 24.8151 5.11896 24.7012 5.27592 24.5504C5.43288 24.3996 5.55291 24.2134 5.63601 23.9918L6.94247 24.2273C6.83783 24.612 6.65009 24.949 6.37926 25.2383C6.11151 25.5245 5.7745 25.7476 5.36825 25.9077C4.96508 26.0646 4.50497 26.1431 3.98793 26.1431ZM10.202 21.7898V26H8.8217V18.9091H10.1466V20.0632H10.2343C10.3975 19.6877 10.6529 19.3861 11.0007 19.1584C11.3515 18.9306 11.7932 18.8168 12.3256 18.8168C12.8088 18.8168 13.232 18.9183 13.5951 19.1214C13.9583 19.3215 14.2399 19.62 14.44 20.017C14.64 20.4141 14.74 20.9049 14.74 21.4897V26H13.3597V21.6559C13.3597 21.1419 13.2258 20.7403 12.9581 20.451C12.6903 20.1586 12.3225 20.0124 11.8547 20.0124C11.5347 20.0124 11.25 20.0817 11.0007 20.2202C10.7545 20.3587 10.559 20.5618 10.4144 20.8295C10.2728 21.0942 10.202 21.4143 10.202 21.7898ZM22.6634 18.9091L20.092 26H18.6147L16.0387 18.9091H17.5206L19.3164 24.3658H19.3903L21.1815 18.9091H22.6634ZM24.2206 26V18.9091H25.6009V26H24.2206ZM24.9177 17.815C24.6776 17.815 24.4714 17.735 24.2991 17.5749C24.1298 17.4118 24.0452 17.2179 24.0452 16.9933C24.0452 16.7655 24.1298 16.5716 24.2991 16.4116C24.4714 16.2485 24.6776 16.1669 24.9177 16.1669C25.1578 16.1669 25.3624 16.2485 25.5317 16.4116C25.704 16.5716 25.7902 16.7655 25.7902 16.9933C25.7902 17.2179 25.704 17.4118 25.5317 17.5749C25.3624 17.735 25.1578 17.815 24.9177 17.815ZM27.7179 26V18.9091H29.0521V20.0355H29.1259C29.2552 19.6539 29.4829 19.3538 29.8092 19.1353C30.1385 18.9137 30.5109 18.8029 30.9264 18.8029C31.0125 18.8029 31.1141 18.806 31.2311 18.8121C31.3511 18.8183 31.4449 18.826 31.5127 18.8352V20.1555C31.4573 20.1402 31.3588 20.1232 31.2172 20.1048C31.0756 20.0832 30.9341 20.0724 30.7925 20.0724C30.4663 20.0724 30.1754 20.1417 29.92 20.2802C29.6676 20.4156 29.4676 20.6049 29.3198 20.848C29.1721 21.0881 29.0982 21.362 29.0982 21.6697V26H27.7179ZM35.7001 26.1431C35.0354 26.1431 34.4552 25.9908 33.9597 25.6861C33.4642 25.3814 33.0795 24.9551 32.8056 24.4073C32.5317 23.8595 32.3947 23.2193 32.3947 22.4869C32.3947 21.7513 32.5317 21.1081 32.8056 20.5572C33.0795 20.0063 33.4642 19.5785 33.9597 19.2738C34.4552 18.9691 35.0354 18.8168 35.7001 18.8168C36.3649 18.8168 36.945 18.9691 37.4405 19.2738C37.936 19.5785 38.3207 20.0063 38.5947 20.5572C38.8686 21.1081 39.0055 21.7513 39.0055 22.4869C39.0055 23.2193 38.8686 23.8595 38.5947 24.4073C38.3207 24.9551 37.936 25.3814 37.4405 25.6861C36.945 25.9908 36.3649 26.1431 35.7001 26.1431ZM35.7047 24.9844C36.1356 24.9844 36.4926 24.8705 36.7758 24.6428C37.0589 24.415 37.2682 24.1119 37.4036 23.7333C37.5421 23.3548 37.6113 22.9377 37.6113 22.4822C37.6113 22.0298 37.5421 21.6143 37.4036 21.2358C37.2682 20.8542 37.0589 20.5479 36.7758 20.3171C36.4926 20.0863 36.1356 19.9709 35.7047 19.9709C35.2708 19.9709 34.9107 20.0863 34.6245 20.3171C34.3413 20.5479 34.1305 20.8542 33.992 21.2358C33.8566 21.6143 33.7889 22.0298 33.7889 22.4822C33.7889 22.9377 33.8566 23.3548 33.992 23.7333C34.1305 24.1119 34.3413 24.415 34.6245 24.6428C34.9107 24.8705 35.2708 24.9844 35.7047 24.9844ZM42.1866 21.7898V26H40.8063V18.9091H42.1312V20.0632H42.2189C42.382 19.6877 42.6375 19.3861 42.9853 19.1584C43.3361 18.9306 43.7777 18.8168 44.3102 18.8168C44.7934 18.8168 45.2165 18.9183 45.5797 19.1214C45.9429 19.3215 46.2245 19.62 46.4245 20.017C46.6246 20.4141 46.7246 20.9049 46.7246 21.4897V26H45.3443V21.6559C45.3443 21.1419 45.2104 20.7403 44.9426 20.451C44.6749 20.1586 44.3071 20.0124 43.8393 20.0124C43.5192 20.0124 43.2345 20.0817 42.9853 20.2202C42.739 20.3587 42.5436 20.5618 42.399 20.8295C42.2574 21.0942 42.1866 21.4143 42.1866 21.7898ZM48.8358 26V18.9091H50.1607V20.0632H50.2484C50.3962 19.6723 50.6378 19.3677 50.9732 19.1491C51.3087 18.9276 51.7103 18.8168 52.1781 18.8168C52.6521 18.8168 53.0491 18.9276 53.3692 19.1491C53.6923 19.3707 53.9309 19.6754 54.0847 20.0632H54.1586C54.3279 19.6847 54.5972 19.383 54.9665 19.1584C55.3358 18.9306 55.7759 18.8168 56.2868 18.8168C56.93 18.8168 57.4548 19.0183 57.861 19.4215C58.2703 19.8247 58.475 20.4325 58.475 21.245V26H57.0947V21.3743C57.0947 20.8942 56.9639 20.5464 56.7023 20.331C56.4407 20.1155 56.1283 20.0078 55.7651 20.0078C55.3158 20.0078 54.9665 20.1463 54.7172 20.4233C54.4679 20.6972 54.3433 21.0496 54.3433 21.4805V26H52.9675V21.2866C52.9675 20.9019 52.8475 20.5926 52.6075 20.3587C52.3674 20.1248 52.055 20.0078 51.6703 20.0078C51.4087 20.0078 51.1671 20.0771 50.9455 20.2156C50.727 20.351 50.5501 20.5402 50.4146 20.7834C50.2823 21.0265 50.2161 21.3081 50.2161 21.6282V26H48.8358ZM63.6412 26.1431C62.9425 26.1431 62.3409 25.9938 61.8361 25.6953C61.3345 25.3937 60.9467 24.9705 60.6728 24.4258C60.4019 23.878 60.2665 23.2363 60.2665 22.5007C60.2665 21.7744 60.4019 21.1342 60.6728 20.5803C60.9467 20.0263 61.3283 19.5939 61.8177 19.283C62.3101 18.9722 62.8856 18.8168 63.5442 18.8168C63.9443 18.8168 64.3321 18.8829 64.7076 19.0153C65.0831 19.1476 65.4201 19.3554 65.7186 19.6385C66.0171 19.9216 66.2526 20.2894 66.4249 20.7418C66.5973 21.1912 66.6834 21.7375 66.6834 22.3807V22.87H61.0467V21.8359H65.3308C65.3308 21.4728 65.2569 21.1512 65.1092 20.8711C64.9615 20.5879 64.7537 20.3648 64.486 20.2017C64.2213 20.0386 63.9105 19.957 63.5535 19.957C63.1657 19.957 62.8271 20.0524 62.5378 20.2433C62.2516 20.431 62.03 20.6772 61.8731 20.9819C61.7192 21.2835 61.6422 21.6113 61.6422 21.9652V22.7731C61.6422 23.247 61.7253 23.6502 61.8915 23.9826C62.0608 24.315 62.2962 24.5689 62.5978 24.7443C62.8995 24.9167 63.2518 25.0028 63.655 25.0028C63.9166 25.0028 64.1551 24.9659 64.3706 24.892C64.586 24.8151 64.7722 24.7012 64.9292 24.5504C65.0861 24.3996 65.2062 24.2134 65.2893 23.9918L66.5957 24.2273C66.4911 24.612 66.3033 24.949 66.0325 25.2383C65.7647 25.5245 65.4277 25.7476 65.0215 25.9077C64.6183 26.0646 64.1582 26.1431 63.6412 26.1431ZM69.8553 21.7898V26H68.4749V18.9091H69.7999V20.0632H69.8876C70.0507 19.6877 70.3061 19.3861 70.6539 19.1584C71.0048 18.9306 71.4464 18.8168 71.9788 18.8168C72.462 18.8168 72.8852 18.9183 73.2484 19.1214C73.6115 19.3215 73.8931 19.62 74.0932 20.017C74.2932 20.4141 74.3933 20.9049 74.3933 21.4897V26H73.0129V21.6559C73.0129 21.1419 72.8791 20.7403 72.6113 20.451C72.3435 20.1586 71.9758 20.0124 71.508 20.0124C71.1879 20.0124 70.9032 20.0817 70.6539 20.2202C70.4077 20.3587 70.2123 20.5618 70.0676 20.8295C69.9261 21.0942 69.8553 21.4143 69.8553 21.7898ZM79.8145 18.9091V20.017H75.9413V18.9091H79.8145ZM76.98 17.2102H78.3603V23.918C78.3603 24.1857 78.4003 24.3873 78.4803 24.5227C78.5603 24.6551 78.6634 24.7459 78.7896 24.7951C78.9189 24.8413 79.0589 24.8643 79.2097 24.8643C79.3205 24.8643 79.4175 24.8567 79.5006 24.8413C79.5837 24.8259 79.6483 24.8136 79.6945 24.8043L79.9437 25.9446C79.8637 25.9754 79.7499 26.0062 79.6021 26.0369C79.4544 26.0708 79.2697 26.0893 79.0482 26.0923C78.685 26.0985 78.3464 26.0339 78.0325 25.8984C77.7186 25.763 77.4647 25.5537 77.2708 25.2706C77.0769 24.9875 76.98 24.632 76.98 24.2042V17.2102ZM86.8007 20.6403L85.5496 20.8619C85.4973 20.7018 85.4142 20.5495 85.3003 20.4048C85.1895 20.2602 85.0387 20.1417 84.8479 20.0494C84.6571 19.957 84.4186 19.9109 84.1324 19.9109C83.7415 19.9109 83.4153 19.9986 83.1537 20.174C82.8921 20.3464 82.7613 20.5695 82.7613 20.8434C82.7613 21.0804 82.849 21.2712 83.0244 21.4158C83.1998 21.5605 83.483 21.679 83.8739 21.7713L85.0003 22.0298C85.6527 22.1806 86.139 22.413 86.4591 22.7269C86.7792 23.0408 86.9392 23.4486 86.9392 23.9503C86.9392 24.375 86.8161 24.7536 86.5699 25.0859C86.3267 25.4152 85.9867 25.6738 85.5496 25.8615C85.1157 26.0492 84.6125 26.1431 84.04 26.1431C83.246 26.1431 82.5982 25.9738 82.0965 25.6353C81.5948 25.2937 81.2871 24.8089 81.1732 24.1811L82.5074 23.978C82.5905 24.3258 82.7613 24.5889 83.0198 24.7674C83.2783 24.9428 83.6153 25.0305 84.0308 25.0305C84.4832 25.0305 84.8448 24.9367 85.1157 24.7489C85.3865 24.5581 85.5219 24.3258 85.5219 24.0518C85.5219 23.8303 85.4388 23.6441 85.2726 23.4933C85.1095 23.3424 84.8587 23.2286 84.5202 23.1516L83.3199 22.8885C82.6582 22.7377 82.1688 22.4976 81.8518 22.1683C81.5379 21.839 81.381 21.422 81.381 20.9173C81.381 20.4987 81.4979 20.1325 81.7318 19.8185C81.9657 19.5046 82.2889 19.2599 82.7013 19.0845C83.1137 18.906 83.5861 18.8168 84.1185 18.8168C84.8849 18.8168 85.4881 18.983 85.9282 19.3153C86.3683 19.6446 86.6591 20.0863 86.8007 20.6403ZM95.7919 18.9091V20.017H91.7848V18.9091H95.7919ZM92.8835 26V18.0874C92.8835 17.6442 92.9805 17.2764 93.1744 16.984C93.3683 16.6886 93.6253 16.4685 93.9453 16.3239C94.2654 16.1761 94.6132 16.1023 94.9887 16.1023C95.2657 16.1023 95.5026 16.1254 95.6996 16.1715C95.8966 16.2146 96.0428 16.2546 96.1382 16.2915L95.815 17.4087C95.7504 17.3903 95.6673 17.3687 95.5657 17.3441C95.4642 17.3164 95.3411 17.3026 95.1964 17.3026C94.8609 17.3026 94.6209 17.3857 94.4762 17.5518C94.3347 17.718 94.2639 17.9581 94.2639 18.272V26H92.8835ZM100.184 26.1431C99.5189 26.1431 98.9388 25.9908 98.4433 25.6861C97.9478 25.3814 97.5631 24.9551 97.2891 24.4073C97.0152 23.8595 96.8783 23.2193 96.8783 22.4869C96.8783 21.7513 97.0152 21.1081 97.2891 20.5572C97.5631 20.0063 97.9478 19.5785 98.4433 19.2738C98.9388 18.9691 99.5189 18.8168 100.184 18.8168C100.848 18.8168 101.429 18.9691 101.924 19.2738C102.42 19.5785 102.804 20.0063 103.078 20.5572C103.352 21.1081 103.489 21.7513 103.489 22.4869C103.489 23.2193 103.352 23.8595 103.078 24.4073C102.804 24.9551 102.42 25.3814 101.924 25.6861C101.429 25.9908 100.848 26.1431 100.184 26.1431ZM100.188 24.9844C100.619 24.9844 100.976 24.8705 101.259 24.6428C101.542 24.415 101.752 24.1119 101.887 23.7333C102.026 23.3548 102.095 22.9377 102.095 22.4822C102.095 22.0298 102.026 21.6143 101.887 21.2358C101.752 20.8542 101.542 20.5479 101.259 20.3171C100.976 20.0863 100.619 19.9709 100.188 19.9709C99.7543 19.9709 99.3943 20.0863 99.108 20.3171C98.8249 20.5479 98.6141 20.8542 98.4756 21.2358C98.3402 21.6143 98.2725 22.0298 98.2725 22.4822C98.2725 22.9377 98.3402 23.3548 98.4756 23.7333C98.6141 24.1119 98.8249 24.415 99.108 24.6428C99.3943 24.8705 99.7543 24.9844 100.188 24.9844ZM105.29 26V18.9091H106.624V20.0355H106.698C106.827 19.6539 107.055 19.3538 107.381 19.1353C107.71 18.9137 108.083 18.8029 108.498 18.8029C108.584 18.8029 108.686 18.806 108.803 18.8121C108.923 18.8183 109.017 18.826 109.085 18.8352V20.1555C109.029 20.1402 108.931 20.1232 108.789 20.1048C108.648 20.0832 108.506 20.0724 108.364 20.0724C108.038 20.0724 107.747 20.1417 107.492 20.2802C107.24 20.4156 107.039 20.6049 106.892 20.848C106.744 21.0881 106.67 21.362 106.67 21.6697V26H105.29ZM114.24 26V18.9091H115.62V26H114.24ZM114.937 17.815C114.697 17.815 114.49 17.735 114.318 17.5749C114.149 17.4118 114.064 17.2179 114.064 16.9933C114.064 16.7655 114.149 16.5716 114.318 16.4116C114.49 16.2485 114.697 16.1669 114.937 16.1669C115.177 16.1669 115.381 16.2485 115.551 16.4116C115.723 16.5716 115.809 16.7655 115.809 16.9933C115.809 17.2179 115.723 17.4118 115.551 17.5749C115.381 17.735 115.177 17.815 114.937 17.815ZM119.117 21.7898V26H117.737V18.9091H119.062V20.0632H119.149C119.313 19.6877 119.568 19.3861 119.916 19.1584C120.267 18.9306 120.708 18.8168 121.241 18.8168C121.724 18.8168 122.147 18.9183 122.51 19.1214C122.873 19.3215 123.155 19.62 123.355 20.017C123.555 20.4141 123.655 20.9049 123.655 21.4897V26H122.275V21.6559C122.275 21.1419 122.141 20.7403 121.873 20.451C121.605 20.1586 121.238 20.0124 120.77 20.0124C120.45 20.0124 120.165 20.0817 119.916 20.2202C119.67 20.3587 119.474 20.5618 119.33 20.8295C119.188 21.0942 119.117 21.4143 119.117 21.7898ZM129.076 18.9091V20.017H125.203V18.9091H129.076ZM126.242 17.2102H127.622V23.918C127.622 24.1857 127.662 24.3873 127.742 24.5227C127.822 24.6551 127.925 24.7459 128.052 24.7951C128.181 24.8413 128.321 24.8643 128.472 24.8643C128.582 24.8643 128.679 24.8567 128.762 24.8413C128.846 24.8259 128.91 24.8136 128.956 24.8043L129.206 25.9446C129.126 25.9754 129.012 26.0062 128.864 26.0369C128.716 26.0708 128.532 26.0893 128.31 26.0923C127.947 26.0985 127.608 26.0339 127.294 25.8984C126.98 25.763 126.727 25.5537 126.533 25.2706C126.339 24.9875 126.242 24.632 126.242 24.2042V17.2102ZM133.843 26.1431C133.145 26.1431 132.543 25.9938 132.038 25.6953C131.536 25.3937 131.149 24.9705 130.875 24.4258C130.604 23.878 130.469 23.2363 130.469 22.5007C130.469 21.7744 130.604 21.1342 130.875 20.5803C131.149 20.0263 131.53 19.5939 132.02 19.283C132.512 18.9722 133.088 18.8168 133.746 18.8168C134.146 18.8168 134.534 18.8829 134.91 19.0153C135.285 19.1476 135.622 19.3554 135.921 19.6385C136.219 19.9216 136.455 20.2894 136.627 20.7418C136.799 21.1912 136.885 21.7375 136.885 22.3807V22.87H131.249V21.8359H135.533C135.533 21.4728 135.459 21.1512 135.311 20.8711C135.164 20.5879 134.956 20.3648 134.688 20.2017C134.423 20.0386 134.112 19.957 133.755 19.957C133.368 19.957 133.029 20.0524 132.74 20.2433C132.454 20.431 132.232 20.6772 132.075 20.9819C131.921 21.2835 131.844 21.6113 131.844 21.9652V22.7731C131.844 23.247 131.927 23.6502 132.094 23.9826C132.263 24.315 132.498 24.5689 132.8 24.7443C133.101 24.9167 133.454 25.0028 133.857 25.0028C134.119 25.0028 134.357 24.9659 134.573 24.892C134.788 24.8151 134.974 24.7012 135.131 24.5504C135.288 24.3996 135.408 24.2134 135.491 23.9918L136.798 24.2273C136.693 24.612 136.505 24.949 136.235 25.2383C135.967 25.5245 135.63 25.7476 135.224 25.9077C134.82 26.0646 134.36 26.1431 133.843 26.1431ZM138.677 26V18.9091H140.011V20.0355H140.085C140.214 19.6539 140.442 19.3538 140.768 19.1353C141.098 18.9137 141.47 18.8029 141.885 18.8029C141.972 18.8029 142.073 18.806 142.19 18.8121C142.31 18.8183 142.404 18.826 142.472 18.8352V20.1555C142.416 20.1402 142.318 20.1232 142.176 20.1048C142.035 20.0832 141.893 20.0724 141.752 20.0724C141.425 20.0724 141.134 20.1417 140.879 20.2802C140.627 20.4156 140.427 20.6049 140.279 20.848C140.131 21.0881 140.057 21.362 140.057 21.6697V26H138.677ZM145.926 26.157C145.477 26.157 145.071 26.0739 144.708 25.9077C144.344 25.7384 144.057 25.4937 143.844 25.1737C143.635 24.8536 143.53 24.4612 143.53 23.9964C143.53 23.5964 143.607 23.267 143.761 23.0085C143.915 22.75 144.123 22.5453 144.384 22.3945C144.646 22.2437 144.938 22.1299 145.262 22.0529C145.585 21.976 145.914 21.9175 146.249 21.8775C146.674 21.8282 147.019 21.7882 147.284 21.7575C147.548 21.7236 147.741 21.6697 147.861 21.5959C147.981 21.522 148.041 21.402 148.041 21.2358V21.2035C148.041 20.8003 147.927 20.4879 147.699 20.2663C147.474 20.0447 147.139 19.9339 146.693 19.9339C146.228 19.9339 145.862 20.037 145.594 20.2433C145.329 20.4464 145.146 20.6726 145.045 20.9219L143.747 20.6264C143.901 20.1955 144.126 19.8478 144.421 19.5831C144.72 19.3153 145.063 19.1214 145.451 19.0014C145.839 18.8783 146.246 18.8168 146.674 18.8168C146.957 18.8168 147.257 18.8506 147.574 18.9183C147.894 18.983 148.193 19.103 148.47 19.2784C148.75 19.4538 148.979 19.7047 149.158 20.0309C149.336 20.354 149.426 20.7741 149.426 21.2912V26H148.078V25.0305H148.022C147.933 25.209 147.799 25.3845 147.621 25.5568C147.442 25.7292 147.213 25.8723 146.933 25.9862C146.653 26.1 146.317 26.157 145.926 26.157ZM146.226 25.049C146.608 25.049 146.934 24.9736 147.205 24.8228C147.479 24.672 147.687 24.475 147.828 24.2319C147.973 23.9857 148.045 23.7225 148.045 23.4425V22.5284C147.996 22.5777 147.901 22.6238 147.759 22.6669C147.621 22.7069 147.462 22.7423 147.284 22.7731C147.105 22.8008 146.931 22.8269 146.762 22.8516C146.593 22.8731 146.451 22.8916 146.337 22.907C146.069 22.9408 145.825 22.9978 145.603 23.0778C145.385 23.1578 145.209 23.2732 145.077 23.424C144.948 23.5717 144.883 23.7687 144.883 24.0149C144.883 24.3565 145.009 24.6151 145.262 24.7905C145.514 24.9628 145.836 25.049 146.226 25.049ZM154.511 26.1431C153.825 26.1431 153.234 25.9877 152.738 25.6768C152.246 25.3629 151.867 24.9305 151.603 24.3796C151.338 23.8287 151.206 23.1978 151.206 22.4869C151.206 21.7667 151.341 21.1312 151.612 20.5803C151.883 20.0263 152.264 19.5939 152.757 19.283C153.249 18.9722 153.829 18.8168 154.497 18.8168C155.036 18.8168 155.516 18.9168 155.937 19.1168C156.359 19.3138 156.699 19.5908 156.958 19.9478C157.219 20.3048 157.375 20.7218 157.424 21.1989H156.081C156.007 20.8665 155.837 20.5803 155.573 20.3402C155.311 20.1001 154.96 19.9801 154.52 19.9801C154.136 19.9801 153.799 20.0817 153.509 20.2848C153.223 20.4848 153 20.7711 152.84 21.1435C152.68 21.5128 152.6 21.9498 152.6 22.4545C152.6 22.9716 152.678 23.4179 152.835 23.7933C152.992 24.1688 153.214 24.4596 153.5 24.6658C153.789 24.872 154.129 24.9751 154.52 24.9751C154.782 24.9751 155.019 24.9274 155.231 24.832C155.447 24.7335 155.627 24.5935 155.771 24.4119C155.919 24.2304 156.022 24.0118 156.081 23.7564H157.424C157.375 24.215 157.225 24.6243 156.976 24.9844C156.727 25.3445 156.393 25.6276 155.974 25.8338C155.559 26.04 155.071 26.1431 154.511 26.1431ZM162.47 18.9091V20.017H158.597V18.9091H162.47ZM159.636 17.2102H161.016V23.918C161.016 24.1857 161.056 24.3873 161.136 24.5227C161.216 24.6551 161.319 24.7459 161.445 24.7951C161.575 24.8413 161.715 24.8643 161.865 24.8643C161.976 24.8643 162.073 24.8567 162.156 24.8413C162.239 24.8259 162.304 24.8136 162.35 24.8043L162.599 25.9446C162.519 25.9754 162.405 26.0062 162.258 26.0369C162.11 26.0708 161.925 26.0893 161.704 26.0923C161.341 26.0985 161.002 26.0339 160.688 25.8984C160.374 25.763 160.12 25.5537 159.926 25.2706C159.733 24.9875 159.636 24.632 159.636 24.2042V17.2102ZM164.257 26V18.9091H165.637V26H164.257ZM164.954 17.815C164.714 17.815 164.508 17.735 164.335 17.5749C164.166 17.4118 164.082 17.2179 164.082 16.9933C164.082 16.7655 164.166 16.5716 164.335 16.4116C164.508 16.2485 164.714 16.1669 164.954 16.1669C165.194 16.1669 165.399 16.2485 165.568 16.4116C165.74 16.5716 165.827 16.7655 165.827 16.9933C165.827 17.2179 165.74 17.4118 165.568 17.5749C165.399 17.735 165.194 17.815 164.954 17.815ZM173.82 18.9091L171.249 26H169.772L167.196 18.9091H168.678L170.473 24.3658H170.547L172.338 18.9091H173.82ZM178.193 26.1431C177.494 26.1431 176.892 25.9938 176.387 25.6953C175.886 25.3937 175.498 24.9705 175.224 24.4258C174.953 23.878 174.818 23.2363 174.818 22.5007C174.818 21.7744 174.953 21.1342 175.224 20.5803C175.498 20.0263 175.88 19.5939 176.369 19.283C176.861 18.9722 177.437 18.8168 178.096 18.8168C178.496 18.8168 178.883 18.8829 179.259 19.0153C179.634 19.1476 179.971 19.3554 180.27 19.6385C180.568 19.9216 180.804 20.2894 180.976 20.7418C181.149 21.1912 181.235 21.7375 181.235 22.3807V22.87H175.598V21.8359H179.882C179.882 21.4728 179.808 21.1512 179.661 20.8711C179.513 20.5879 179.305 20.3648 179.037 20.2017C178.773 20.0386 178.462 19.957 178.105 19.957C177.717 19.957 177.378 20.0524 177.089 20.2433C176.803 20.431 176.581 20.6772 176.424 20.9819C176.271 21.2835 176.194 21.6113 176.194 21.9652V22.7731C176.194 23.247 176.277 23.6502 176.443 23.9826C176.612 24.315 176.848 24.5689 177.149 24.7443C177.451 24.9167 177.803 25.0028 178.206 25.0028C178.468 25.0028 178.706 24.9659 178.922 24.892C179.137 24.8151 179.324 24.7012 179.48 24.5504C179.637 24.3996 179.757 24.2134 179.841 23.9918L181.147 24.2273C181.042 24.612 180.855 24.949 180.584 25.2383C180.316 25.5245 179.979 25.7476 179.573 25.9077C179.17 26.0646 178.71 26.1431 178.193 26.1431ZM0.931818 44.6591V34.9091H2.27983V36.0586H2.39524C2.47526 35.9109 2.59067 35.7401 2.74148 35.5462C2.89228 35.3523 3.10156 35.183 3.36932 35.0384C3.63707 34.8906 3.991 34.8168 4.43111 34.8168C5.00355 34.8168 5.51444 34.9614 5.96378 35.2507C6.41312 35.54 6.76551 35.957 7.02095 36.5018C7.27947 37.0465 7.40874 37.7021 7.40874 38.4684C7.40874 39.2347 7.28101 39.8918 7.02557 40.4396C6.77012 40.9844 6.41927 41.4045 5.97301 41.6999C5.52675 41.9923 5.0174 42.1385 4.44496 42.1385C4.01409 42.1385 3.6617 42.0662 3.38778 41.9215C3.11695 41.7769 2.90459 41.6076 2.75071 41.4137C2.59683 41.2198 2.47834 41.0475 2.39524 40.8967H2.31215V44.6591H0.931818ZM2.28445 38.4545C2.28445 38.9531 2.35677 39.3902 2.50142 39.7656C2.64607 40.1411 2.85535 40.435 3.12926 40.6474C3.40317 40.8567 3.73864 40.9613 4.13565 40.9613C4.54806 40.9613 4.89276 40.852 5.16974 40.6335C5.44673 40.4119 5.65601 40.1119 5.79759 39.7333C5.94224 39.3548 6.01456 38.9285 6.01456 38.4545C6.01456 37.9867 5.94377 37.5666 5.8022 37.1942C5.66371 36.8219 5.45443 36.5279 5.17436 36.3125C4.89737 36.0971 4.55114 35.9893 4.13565 35.9893C3.73556 35.9893 3.39702 36.0924 3.12003 36.2987C2.84612 36.5049 2.63838 36.7926 2.4968 37.1619C2.35523 37.5312 2.28445 37.9621 2.28445 38.4545ZM9.21526 42V34.9091H10.5494V36.0355H10.6233C10.7525 35.6539 10.9803 35.3538 11.3065 35.1353C11.6358 34.9137 12.0082 34.8029 12.4237 34.8029C12.5099 34.8029 12.6114 34.806 12.7284 34.8121C12.8484 34.8183 12.9423 34.826 13.01 34.8352V36.1555C12.9546 36.1402 12.8561 36.1232 12.7145 36.1048C12.573 36.0832 12.4314 36.0724 12.2898 36.0724C11.9636 36.0724 11.6728 36.1417 11.4173 36.2802C11.1649 36.4156 10.9649 36.6049 10.8172 36.848C10.6694 37.0881 10.5956 37.362 10.5956 37.6697V42H9.21526ZM17.1975 42.1431C16.5327 42.1431 15.9526 41.9908 15.4571 41.6861C14.9616 41.3814 14.5768 40.9551 14.3029 40.4073C14.029 39.8595 13.8921 39.2193 13.8921 38.4869C13.8921 37.7513 14.029 37.1081 14.3029 36.5572C14.5768 36.0063 14.9616 35.5785 15.4571 35.2738C15.9526 34.9691 16.5327 34.8168 17.1975 34.8168C17.8622 34.8168 18.4424 34.9691 18.9379 35.2738C19.4334 35.5785 19.8181 36.0063 20.092 36.5572C20.3659 37.1081 20.5029 37.7513 20.5029 38.4869C20.5029 39.2193 20.3659 39.8595 20.092 40.4073C19.8181 40.9551 19.4334 41.3814 18.9379 41.6861C18.4424 41.9908 17.8622 42.1431 17.1975 42.1431ZM17.2021 40.9844C17.633 40.9844 17.99 40.8705 18.2731 40.6428C18.5563 40.415 18.7655 40.1119 18.9009 39.7333C19.0394 39.3548 19.1087 38.9377 19.1087 38.4822C19.1087 38.0298 19.0394 37.6143 18.9009 37.2358C18.7655 36.8542 18.5563 36.5479 18.2731 36.3171C17.99 36.0863 17.633 35.9709 17.2021 35.9709C16.7681 35.9709 16.4081 36.0863 16.1218 36.3171C15.8387 36.5479 15.6279 36.8542 15.4894 37.2358C15.354 37.6143 15.2862 38.0298 15.2862 38.4822C15.2862 38.9377 15.354 39.3548 15.4894 39.7333C15.6279 40.1119 15.8387 40.415 16.1218 40.6428C16.4081 40.8705 16.7681 40.9844 17.2021 40.9844ZM25.2766 44.8068C24.7134 44.8068 24.2287 44.733 23.8224 44.5852C23.4193 44.4375 23.09 44.2421 22.8345 43.9989C22.5791 43.7558 22.3883 43.4896 22.2621 43.2003L23.4485 42.7109C23.5316 42.8464 23.6424 42.9895 23.7809 43.1403C23.9225 43.2942 24.1133 43.425 24.3533 43.5327C24.5965 43.6404 24.9088 43.6942 25.2905 43.6942C25.8137 43.6942 26.2461 43.5665 26.5877 43.3111C26.9293 43.0587 27.1001 42.6555 27.1001 42.1016V40.7074H27.0124C26.9293 40.8582 26.8093 41.0259 26.6523 41.2106C26.4985 41.3952 26.2861 41.5553 26.0153 41.6907C25.7444 41.8261 25.392 41.8938 24.9581 41.8938C24.398 41.8938 23.8932 41.763 23.4439 41.5014C22.9976 41.2367 22.6437 40.8474 22.3821 40.3335C22.1236 39.8164 21.9943 39.1809 21.9943 38.4268C21.9943 37.6728 22.122 37.0265 22.3775 36.4879C22.636 35.9493 22.9899 35.5369 23.4393 35.2507C23.8886 34.9614 24.398 34.8168 24.9673 34.8168C25.4074 34.8168 25.7629 34.8906 26.0337 35.0384C26.3046 35.183 26.5154 35.3523 26.6662 35.5462C26.8201 35.7401 26.9386 35.9109 27.0217 36.0586H27.1232V34.9091H28.4758V42.157C28.4758 42.7663 28.3343 43.2665 28.0511 43.6573C27.768 44.0482 27.3848 44.3375 26.9016 44.5252C26.4215 44.7129 25.8798 44.8068 25.2766 44.8068ZM25.2628 40.7489C25.6598 40.7489 25.9953 40.6566 26.2692 40.4719C26.5462 40.2842 26.7554 40.0165 26.897 39.6687C27.0417 39.3178 27.114 38.8977 27.114 38.4084C27.114 37.9313 27.0432 37.5112 26.9016 37.1481C26.7601 36.7849 26.5523 36.5018 26.2784 36.2987C26.0045 36.0924 25.666 35.9893 25.2628 35.9893C24.8473 35.9893 24.5011 36.0971 24.2241 36.3125C23.9471 36.5249 23.7378 36.8142 23.5962 37.1804C23.4577 37.5466 23.3885 37.956 23.3885 38.4084C23.3885 38.8731 23.4593 39.2809 23.6008 39.6317C23.7424 39.9826 23.9517 40.2565 24.2287 40.4535C24.5088 40.6504 24.8535 40.7489 25.2628 40.7489ZM30.5871 42V34.9091H31.9212V36.0355H31.9951C32.1243 35.6539 32.3521 35.3538 32.6783 35.1353C33.0076 34.9137 33.38 34.8029 33.7955 34.8029C33.8817 34.8029 33.9832 34.806 34.1002 34.8121C34.2202 34.8183 34.3141 34.826 34.3818 34.8352V36.1555C34.3264 36.1402 34.2279 36.1232 34.0863 36.1048C33.9448 36.0832 33.8032 36.0724 33.6616 36.0724C33.3354 36.0724 33.0446 36.1417 32.7891 36.2802C32.5367 36.4156 32.3367 36.6049 32.189 36.848C32.0412 37.0881 31.9674 37.362 31.9674 37.6697V42H30.5871ZM37.8364 42.157C37.3871 42.157 36.9808 42.0739 36.6176 41.9077C36.2545 41.7384 35.9667 41.4937 35.7544 41.1737C35.5451 40.8536 35.4404 40.4612 35.4404 39.9964C35.4404 39.5964 35.5174 39.267 35.6713 39.0085C35.8252 38.75 36.0329 38.5453 36.2945 38.3945C36.5561 38.2437 36.8485 38.1299 37.1716 38.0529C37.4948 37.976 37.8241 37.9175 38.1596 37.8775C38.5843 37.8282 38.929 37.7882 39.1936 37.7575C39.4583 37.7236 39.6507 37.6697 39.7707 37.5959C39.8907 37.522 39.9507 37.402 39.9507 37.2358V37.2035C39.9507 36.8003 39.8369 36.4879 39.6091 36.2663C39.3845 36.0447 39.049 35.9339 38.6027 35.9339C38.138 35.9339 37.7718 36.037 37.504 36.2433C37.2393 36.4464 37.0562 36.6726 36.9547 36.9219L35.6574 36.6264C35.8113 36.1955 36.036 35.8478 36.3314 35.5831C36.63 35.3153 36.9731 35.1214 37.3609 35.0014C37.7487 34.8783 38.1565 34.8168 38.5843 34.8168C38.8674 34.8168 39.1675 34.8506 39.4845 34.9183C39.8046 34.983 40.1031 35.103 40.3801 35.2784C40.6601 35.4538 40.8894 35.7047 41.0679 36.0309C41.2464 36.354 41.3357 36.7741 41.3357 37.2912V42H39.9877V41.0305H39.9323C39.843 41.209 39.7091 41.3845 39.5306 41.5568C39.3521 41.7292 39.1229 41.8723 38.8428 41.9862C38.5627 42.1 38.2273 42.157 37.8364 42.157ZM38.1365 41.049C38.5181 41.049 38.8443 40.9736 39.1152 40.8228C39.3891 40.672 39.5968 40.475 39.7384 40.2319C39.883 39.9857 39.9554 39.7225 39.9554 39.4425V38.5284C39.9061 38.5777 39.8107 38.6238 39.6691 38.6669C39.5306 38.7069 39.3721 38.7423 39.1936 38.7731C39.0151 38.8008 38.8413 38.8269 38.672 38.8516C38.5027 38.8731 38.3611 38.8916 38.2473 38.907C37.9795 38.9408 37.7348 38.9978 37.5132 39.0778C37.2947 39.1578 37.1193 39.2732 36.987 39.424C36.8577 39.5717 36.7931 39.7687 36.7931 40.0149C36.7931 40.3565 36.9193 40.6151 37.1716 40.7905C37.424 40.9628 37.7456 41.049 38.1365 41.049ZM43.4342 42V34.9091H44.7591V36.0632H44.8468C44.9946 35.6723 45.2362 35.3677 45.5716 35.1491C45.9071 34.9276 46.3087 34.8168 46.7765 34.8168C47.2505 34.8168 47.6475 34.9276 47.9676 35.1491C48.2907 35.3707 48.5293 35.6754 48.6831 36.0632H48.757C48.9263 35.6847 49.1956 35.383 49.5649 35.1584C49.9342 34.9306 50.3743 34.8168 50.8852 34.8168C51.5284 34.8168 52.0532 35.0183 52.4594 35.4215C52.8687 35.8247 53.0734 36.4325 53.0734 37.245V42H51.6931V37.3743C51.6931 36.8942 51.5623 36.5464 51.3007 36.331C51.0391 36.1155 50.7267 36.0078 50.3635 36.0078C49.9142 36.0078 49.5649 36.1463 49.3156 36.4233C49.0663 36.6972 48.9417 37.0496 48.9417 37.4805V42H47.5659V37.2866C47.5659 36.9019 47.4459 36.5926 47.2059 36.3587C46.9658 36.1248 46.6534 36.0078 46.2687 36.0078C46.0071 36.0078 45.7655 36.0771 45.5439 36.2156C45.3254 36.351 45.1485 36.5402 45.013 36.7834C44.8807 37.0265 44.8145 37.3081 44.8145 37.6282V42H43.4342ZM55.1835 42V34.9091H56.5084V36.0632H56.5961C56.7438 35.6723 56.9854 35.3677 57.3209 35.1491C57.6564 34.9276 58.058 34.8168 58.5258 34.8168C58.9997 34.8168 59.3968 34.9276 59.7168 35.1491C60.04 35.3707 60.2785 35.6754 60.4324 36.0632H60.5063C60.6755 35.6847 60.9448 35.383 61.3141 35.1584C61.6835 34.9306 62.1236 34.8168 62.6345 34.8168C63.2777 34.8168 63.8024 35.0183 64.2087 35.4215C64.618 35.8247 64.8227 36.4325 64.8227 37.245V42H63.4423V37.3743C63.4423 36.8942 63.3115 36.5464 63.0499 36.331C62.7883 36.1155 62.476 36.0078 62.1128 36.0078C61.6635 36.0078 61.3141 36.1463 61.0649 36.4233C60.8156 36.6972 60.6909 37.0496 60.6909 37.4805V42H59.3152V37.2866C59.3152 36.9019 59.1952 36.5926 58.9551 36.3587C58.7151 36.1248 58.4027 36.0078 58.018 36.0078C57.7564 36.0078 57.5148 36.0771 57.2932 36.2156C57.0747 36.351 56.8977 36.5402 56.7623 36.7834C56.63 37.0265 56.5638 37.3081 56.5638 37.6282V42H55.1835ZM66.9327 42V34.9091H68.313V42H66.9327ZM67.6298 33.815C67.3897 33.815 67.1835 33.735 67.0112 33.5749C66.8419 33.4118 66.7573 33.2179 66.7573 32.9933C66.7573 32.7655 66.8419 32.5716 67.0112 32.4116C67.1835 32.2485 67.3897 32.1669 67.6298 32.1669C67.8699 32.1669 68.0745 32.2485 68.2438 32.4116C68.4161 32.5716 68.5023 32.7655 68.5023 32.9933C68.5023 33.2179 68.4161 33.4118 68.2438 33.5749C68.0745 33.735 67.8699 33.815 67.6298 33.815ZM71.8103 37.7898V42H70.43V34.9091H71.7549V36.0632H71.8427C72.0058 35.6877 72.2612 35.3861 72.609 35.1584C72.9598 34.9306 73.4015 34.8168 73.9339 34.8168C74.4171 34.8168 74.8403 34.9183 75.2035 35.1214C75.5666 35.3215 75.8482 35.62 76.0483 36.017C76.2483 36.4141 76.3483 36.9049 76.3483 37.4897V42H74.968V37.6559C74.968 37.1419 74.8341 36.7403 74.5664 36.451C74.2986 36.1586 73.9308 36.0124 73.463 36.0124C73.143 36.0124 72.8583 36.0817 72.609 36.2202C72.3628 36.3587 72.1674 36.5618 72.0227 36.8295C71.8811 37.0942 71.8103 37.4143 71.8103 37.7898ZM81.4326 44.8068C80.8694 44.8068 80.3846 44.733 79.9784 44.5852C79.5752 44.4375 79.2459 44.2421 78.9904 43.9989C78.735 43.7558 78.5442 43.4896 78.418 43.2003L79.6044 42.7109C79.6875 42.8464 79.7983 42.9895 79.9368 43.1403C80.0784 43.2942 80.2692 43.425 80.5093 43.5327C80.7524 43.6404 81.0648 43.6942 81.4464 43.6942C81.9696 43.6942 82.402 43.5665 82.7436 43.3111C83.0853 43.0587 83.2561 42.6555 83.2561 42.1016V40.7074H83.1684C83.0853 40.8582 82.9652 41.0259 82.8083 41.2106C82.6544 41.3952 82.442 41.5553 82.1712 41.6907C81.9004 41.8261 81.548 41.8938 81.114 41.8938C80.5539 41.8938 80.0492 41.763 79.5998 41.5014C79.1536 41.2367 78.7996 40.8474 78.538 40.3335C78.2795 39.8164 78.1502 39.1809 78.1502 38.4268C78.1502 37.6728 78.278 37.0265 78.5334 36.4879C78.7919 35.9493 79.1459 35.5369 79.5952 35.2507C80.0445 34.9614 80.5539 34.8168 81.1233 34.8168C81.5634 34.8168 81.9188 34.8906 82.1897 35.0384C82.4605 35.183 82.6713 35.3523 82.8221 35.5462C82.976 35.7401 83.0945 35.9109 83.1776 36.0586H83.2792V34.9091H84.6318V42.157C84.6318 42.7663 84.4902 43.2665 84.2071 43.6573C83.9239 44.0482 83.5408 44.3375 83.0576 44.5252C82.5774 44.7129 82.0358 44.8068 81.4326 44.8068ZM81.4187 40.7489C81.8157 40.7489 82.1512 40.6566 82.4251 40.4719C82.7021 40.2842 82.9114 40.0165 83.0529 39.6687C83.1976 39.3178 83.2699 38.8977 83.2699 38.4084C83.2699 37.9313 83.1991 37.5112 83.0576 37.1481C82.916 36.7849 82.7082 36.5018 82.4343 36.2987C82.1604 36.0924 81.8219 35.9893 81.4187 35.9893C81.0032 35.9893 80.657 36.0971 80.38 36.3125C80.103 36.5249 79.8937 36.8142 79.7522 37.1804C79.6137 37.5466 79.5444 37.956 79.5444 38.4084C79.5444 38.8731 79.6152 39.2809 79.7568 39.6317C79.8984 39.9826 80.1076 40.2565 80.3846 40.4535C80.6647 40.6504 81.0094 40.7489 81.4187 40.7489ZM93.4995 42.1431C92.8009 42.1431 92.1992 41.9938 91.6945 41.6953C91.1928 41.3937 90.805 40.9705 90.5311 40.4258C90.2603 39.878 90.1249 39.2363 90.1249 38.5007C90.1249 37.7744 90.2603 37.1342 90.5311 36.5803C90.805 36.0263 91.1867 35.5939 91.676 35.283C92.1684 34.9722 92.744 34.8168 93.4026 34.8168C93.8027 34.8168 94.1905 34.8829 94.5659 35.0153C94.9414 35.1476 95.2784 35.3554 95.5769 35.6385C95.8755 35.9216 96.1109 36.2894 96.2833 36.7418C96.4556 37.1912 96.5418 37.7375 96.5418 38.3807V38.87H90.9051V37.8359H95.1892C95.1892 37.4728 95.1153 37.1512 94.9676 36.8711C94.8198 36.5879 94.6121 36.3648 94.3443 36.2017C94.0797 36.0386 93.7688 35.957 93.4118 35.957C93.024 35.957 92.6855 36.0524 92.3962 36.2433C92.11 36.431 91.8884 36.6772 91.7314 36.9819C91.5775 37.2835 91.5006 37.6113 91.5006 37.9652V38.7731C91.5006 39.247 91.5837 39.6502 91.7499 39.9826C91.9192 40.315 92.1546 40.5689 92.4562 40.7443C92.7578 40.9167 93.1102 41.0028 93.5134 41.0028C93.775 41.0028 94.0135 40.9659 94.2289 40.892C94.4444 40.8151 94.6306 40.7012 94.7875 40.5504C94.9445 40.3996 95.0645 40.2134 95.1476 39.9918L96.4541 40.2273C96.3494 40.612 96.1617 40.949 95.8909 41.2383C95.6231 41.5245 95.2861 41.7476 94.8799 41.9077C94.4767 42.0646 94.0166 42.1431 93.4995 42.1431ZM100.988 42.1385C100.415 42.1385 99.9044 41.9923 99.4551 41.6999C99.0088 41.4045 98.658 40.9844 98.4025 40.4396C98.1502 39.8918 98.024 39.2347 98.024 38.4684C98.024 37.7021 98.1517 37.0465 98.4072 36.5018C98.6657 35.957 99.0196 35.54 99.469 35.2507C99.9183 34.9614 100.428 34.8168 100.997 34.8168C101.437 34.8168 101.791 34.8906 102.059 35.0384C102.33 35.183 102.539 35.3523 102.687 35.5462C102.837 35.7401 102.954 35.9109 103.037 36.0586H103.121V32.5455H104.501V42H103.153V40.8967H103.037C102.954 41.0475 102.834 41.2198 102.677 41.4137C102.524 41.6076 102.311 41.7769 102.04 41.9215C101.769 42.0662 101.419 42.1385 100.988 42.1385ZM101.292 40.9613C101.689 40.9613 102.025 40.8567 102.299 40.6474C102.576 40.435 102.785 40.1411 102.927 39.7656C103.071 39.3902 103.144 38.9531 103.144 38.4545C103.144 37.9621 103.073 37.5312 102.931 37.1619C102.79 36.7926 102.582 36.5049 102.308 36.2987C102.034 36.0924 101.696 35.9893 101.292 35.9893C100.877 35.9893 100.531 36.0971 100.254 36.3125C99.9768 36.5279 99.7675 36.8219 99.6259 37.1942C99.4874 37.5666 99.4182 37.9867 99.4182 38.4545C99.4182 38.9285 99.489 39.3548 99.6305 39.7333C99.7721 40.1119 99.9814 40.4119 100.258 40.6335C100.538 40.852 100.883 40.9613 101.292 40.9613ZM111.223 39.0593V34.9091H112.608V42H111.251V40.772H111.177C111.014 41.1506 110.752 41.466 110.392 41.7184C110.035 41.9677 109.59 42.0923 109.058 42.0923C108.602 42.0923 108.199 41.9923 107.848 41.7923C107.5 41.5891 107.226 41.2891 107.026 40.892C106.829 40.495 106.731 40.0041 106.731 39.4194V34.9091H108.111V39.2532C108.111 39.7364 108.245 40.1211 108.513 40.4073C108.781 40.6935 109.128 40.8366 109.556 40.8366C109.815 40.8366 110.072 40.772 110.327 40.6428C110.586 40.5135 110.8 40.3181 110.969 40.0565C111.141 39.7949 111.226 39.4625 111.223 39.0593ZM117.709 42.1431C117.023 42.1431 116.432 41.9877 115.937 41.6768C115.444 41.3629 115.066 40.9305 114.801 40.3796C114.536 39.8287 114.404 39.1978 114.404 38.4869C114.404 37.7667 114.539 37.1312 114.81 36.5803C115.081 36.0263 115.463 35.5939 115.955 35.283C116.447 34.9722 117.028 34.8168 117.695 34.8168C118.234 34.8168 118.714 34.9168 119.136 35.1168C119.557 35.3138 119.898 35.5908 120.156 35.9478C120.418 36.3048 120.573 36.7218 120.622 37.1989H119.279C119.205 36.8665 119.036 36.5803 118.771 36.3402C118.509 36.1001 118.159 35.9801 117.719 35.9801C117.334 35.9801 116.997 36.0817 116.708 36.2848C116.421 36.4848 116.198 36.7711 116.038 37.1435C115.878 37.5128 115.798 37.9498 115.798 38.4545C115.798 38.9716 115.877 39.4179 116.034 39.7933C116.19 40.1688 116.412 40.4596 116.698 40.6658C116.988 40.872 117.328 40.9751 117.719 40.9751C117.98 40.9751 118.217 40.9274 118.429 40.832C118.645 40.7335 118.825 40.5935 118.97 40.4119C119.117 40.2304 119.22 40.0118 119.279 39.7564H120.622C120.573 40.215 120.424 40.6243 120.175 40.9844C119.925 41.3445 119.591 41.6276 119.173 41.8338C118.757 42.04 118.269 42.1431 117.709 42.1431ZM124.422 42.157C123.973 42.157 123.566 42.0739 123.203 41.9077C122.84 41.7384 122.552 41.4937 122.34 41.1737C122.131 40.8536 122.026 40.4612 122.026 39.9964C122.026 39.5964 122.103 39.267 122.257 39.0085C122.411 38.75 122.618 38.5453 122.88 38.3945C123.142 38.2437 123.434 38.1299 123.757 38.0529C124.08 37.976 124.41 37.9175 124.745 37.8775C125.17 37.8282 125.515 37.7882 125.779 37.7575C126.044 37.7236 126.236 37.6697 126.356 37.5959C126.476 37.522 126.536 37.402 126.536 37.2358V37.2035C126.536 36.8003 126.422 36.4879 126.195 36.2663C125.97 36.0447 125.635 35.9339 125.188 35.9339C124.724 35.9339 124.357 36.037 124.09 36.2433C123.825 36.4464 123.642 36.6726 123.54 36.9219L122.243 36.6264C122.397 36.1955 122.622 35.8478 122.917 35.5831C123.216 35.3153 123.559 35.1214 123.946 35.0014C124.334 34.8783 124.742 34.8168 125.17 34.8168C125.453 34.8168 125.753 34.8506 126.07 34.9183C126.39 34.983 126.689 35.103 126.966 35.2784C127.246 35.4538 127.475 35.7047 127.654 36.0309C127.832 36.354 127.921 36.7741 127.921 37.2912V42H126.573V41.0305H126.518C126.429 41.209 126.295 41.3845 126.116 41.5568C125.938 41.7292 125.708 41.8723 125.428 41.9862C125.148 42.1 124.813 42.157 124.422 42.157ZM124.722 41.049C125.104 41.049 125.43 40.9736 125.701 40.8228C125.975 40.672 126.182 40.475 126.324 40.2319C126.469 39.9857 126.541 39.7225 126.541 39.4425V38.5284C126.492 38.5777 126.396 38.6238 126.255 38.6669C126.116 38.7069 125.958 38.7423 125.779 38.7731C125.601 38.8008 125.427 38.8269 125.258 38.8516C125.088 38.8731 124.947 38.8916 124.833 38.907C124.565 38.9408 124.32 38.9978 124.099 39.0778C123.88 39.1578 123.705 39.2732 123.573 39.424C123.443 39.5717 123.379 39.7687 123.379 40.0149C123.379 40.3565 123.505 40.6151 123.757 40.7905C124.01 40.9628 124.331 41.049 124.722 41.049ZM133.33 34.9091V36.017H129.457V34.9091H133.33ZM130.495 33.2102H131.876V39.918C131.876 40.1857 131.916 40.3873 131.996 40.5227C132.076 40.6551 132.179 40.7459 132.305 40.7951C132.434 40.8413 132.574 40.8643 132.725 40.8643C132.836 40.8643 132.933 40.8567 133.016 40.8413C133.099 40.8259 133.164 40.8136 133.21 40.8043L133.459 41.9446C133.379 41.9754 133.265 42.0062 133.117 42.0369C132.97 42.0708 132.785 42.0893 132.563 42.0923C132.2 42.0985 131.862 42.0339 131.548 41.8984C131.234 41.763 130.98 41.5537 130.786 41.2706C130.592 40.9875 130.495 40.632 130.495 40.2042V33.2102ZM135.117 42V34.9091H136.497V42H135.117ZM135.814 33.815C135.574 33.815 135.368 33.735 135.195 33.5749C135.026 33.4118 134.941 33.2179 134.941 32.9933C134.941 32.7655 135.026 32.5716 135.195 32.4116C135.368 32.2485 135.574 32.1669 135.814 32.1669C136.054 32.1669 136.259 32.2485 136.428 32.4116C136.6 32.5716 136.686 32.7655 136.686 32.9933C136.686 33.2179 136.6 33.4118 136.428 33.5749C136.259 33.735 136.054 33.815 135.814 33.815ZM141.601 42.1431C140.936 42.1431 140.356 41.9908 139.86 41.6861C139.365 41.3814 138.98 40.9551 138.706 40.4073C138.432 39.8595 138.295 39.2193 138.295 38.4869C138.295 37.7513 138.432 37.1081 138.706 36.5572C138.98 36.0063 139.365 35.5785 139.86 35.2738C140.356 34.9691 140.936 34.8168 141.601 34.8168C142.266 34.8168 142.846 34.9691 143.341 35.2738C143.837 35.5785 144.221 36.0063 144.495 36.5572C144.769 37.1081 144.906 37.7513 144.906 38.4869C144.906 39.2193 144.769 39.8595 144.495 40.4073C144.221 40.9551 143.837 41.3814 143.341 41.6861C142.846 41.9908 142.266 42.1431 141.601 42.1431ZM141.605 40.9844C142.036 40.9844 142.393 40.8705 142.677 40.6428C142.96 40.415 143.169 40.1119 143.304 39.7333C143.443 39.3548 143.512 38.9377 143.512 38.4822C143.512 38.0298 143.443 37.6143 143.304 37.2358C143.169 36.8542 142.96 36.5479 142.677 36.3171C142.393 36.0863 142.036 35.9709 141.605 35.9709C141.172 35.9709 140.811 36.0863 140.525 36.3171C140.242 36.5479 140.031 36.8542 139.893 37.2358C139.757 37.6143 139.69 38.0298 139.69 38.4822C139.69 38.9377 139.757 39.3548 139.893 39.7333C140.031 40.1119 140.242 40.415 140.525 40.6428C140.811 40.8705 141.172 40.9844 141.605 40.9844ZM148.087 37.7898V42H146.707V34.9091H148.032V36.0632H148.12C148.283 35.6877 148.538 35.3861 148.886 35.1584C149.237 34.9306 149.678 34.8168 150.211 34.8168C150.694 34.8168 151.117 34.9183 151.48 35.1214C151.844 35.3215 152.125 35.62 152.325 36.017C152.525 36.4141 152.625 36.9049 152.625 37.4897V42H151.245V37.6559C151.245 37.1419 151.111 36.7403 150.843 36.451C150.576 36.1586 150.208 36.0124 149.74 36.0124C149.42 36.0124 149.135 36.0817 148.886 36.2202C148.64 36.3587 148.444 36.5618 148.3 36.8295C148.158 37.0942 148.087 37.4143 148.087 37.7898ZM155.646 42.0877C155.394 42.0877 155.177 41.9985 154.995 41.82C154.813 41.6384 154.723 41.4199 154.723 41.1644C154.723 40.9121 154.813 40.6966 154.995 40.5181C155.177 40.3365 155.394 40.2457 155.646 40.2457C155.898 40.2457 156.115 40.3365 156.297 40.5181C156.479 40.6966 156.569 40.9121 156.569 41.1644C156.569 41.3337 156.526 41.4891 156.44 41.6307C156.357 41.7692 156.246 41.88 156.108 41.9631C155.969 42.0462 155.815 42.0877 155.646 42.0877Z" fill="#F7F8F8"/>
</svg>
