<svg width="182" height="45" viewBox="0 0 182 45" fill="none" xmlns="http://www.w3.org/2000/svg">
<path d="M2.84499 10L0.222834 0.545454H1.72319L3.56516 7.86719H3.65288L5.56871 0.545454H7.05522L8.97106 7.8718H9.05877L10.8961 0.545454H12.4011L9.77433 10H8.3386L6.3489 2.91832H6.27504L4.28533 10H2.84499ZM16.2089 10.1431C15.5102 10.1431 14.9086 9.99384 14.4038 9.69531C13.9022 9.3937 13.5144 8.97053 13.2405 8.42578C12.9696 7.87796 12.8342 7.23627 12.8342 6.50071C12.8342 5.77438 12.9696 5.13423 13.2405 4.58026C13.5144 4.02628 13.896 3.59387 14.3854 3.28303C14.8778 2.97218 15.4533 2.81676 16.1119 2.81676C16.512 2.81676 16.8998 2.88293 17.2753 3.01527C17.6507 3.14761 17.9877 3.35535 18.2863 3.63849C18.5848 3.92164 18.8203 4.28942 18.9926 4.74183C19.1649 5.19117 19.2511 5.73745 19.2511 6.38068V6.87003H13.6144V5.83594H17.8985C17.8985 5.47277 17.8246 5.15116 17.6769 4.87109C17.5292 4.58795 17.3214 4.36482 17.0537 4.2017C16.789 4.03859 16.4782 3.95703 16.1212 3.95703C15.7334 3.95703 15.3948 4.05244 15.1055 4.24325C14.8193 4.43099 14.5977 4.6772 14.4408 4.98189C14.2869 5.2835 14.2099 5.61127 14.2099 5.9652V6.77308C14.2099 7.24704 14.293 7.65021 14.4592 7.9826C14.6285 8.31499 14.8639 8.56889 15.1655 8.74432C15.4671 8.91667 15.8195 9.00284 16.2227 9.00284C16.4843 9.00284 16.7228 8.96591 16.9383 8.89205C17.1537 8.8151 17.3399 8.70123 17.4969 8.55043C17.6538 8.39962 17.7738 8.21342 17.8569 7.99183L19.1634 8.22727C19.0588 8.61198 18.871 8.94898 18.6002 9.23828C18.3324 9.5245 17.9954 9.74763 17.5892 9.90767C17.186 10.0646 16.7259 10.1431 16.2089 10.1431ZM27.7299 10.1431C27.0652 10.1431 26.485 9.99077 25.9895 9.68608C25.494 9.38139 25.1093 8.95514 24.8354 8.40732C24.5615 7.85949 24.4245 7.21934 24.4245 6.48686C24.4245 5.7513 24.5615 5.10807 24.8354 4.55717C25.1093 4.00627 25.494 3.57848 25.9895 3.27379C26.485 2.96911 27.0652 2.81676 27.7299 2.81676C28.3947 2.81676 28.9748 2.96911 29.4703 3.27379C29.9658 3.57848 30.3505 4.00627 30.6245 4.55717C30.8984 5.10807 31.0353 5.7513 31.0353 6.48686C31.0353 7.21934 30.8984 7.85949 30.6245 8.40732C30.3505 8.95514 29.9658 9.38139 29.4703 9.68608C28.9748 9.99077 28.3947 10.1431 27.7299 10.1431ZM27.7345 8.98438C28.1654 8.98438 28.5224 8.8705 28.8056 8.64276C29.0887 8.41501 29.298 8.11186 29.4334 7.73331C29.5719 7.35476 29.6412 6.93774 29.6412 6.48224C29.6412 6.02983 29.5719 5.61435 29.4334 5.2358C29.298 4.85417 29.0887 4.54794 28.8056 4.31712C28.5224 4.08629 28.1654 3.97088 27.7345 3.97088C27.3006 3.97088 26.9405 4.08629 26.6543 4.31712C26.3711 4.54794 26.1603 4.85417 26.0218 5.2358C25.8864 5.61435 25.8187 6.02983 25.8187 6.48224C25.8187 6.93774 25.8864 7.35476 26.0218 7.73331C26.1603 8.11186 26.3711 8.41501 26.6543 8.64276C26.9405 8.8705 27.3006 8.98438 27.7345 8.98438ZM36.2107 2.90909V4.01705H32.2036V2.90909H36.2107ZM33.3023 10V2.08736C33.3023 1.64418 33.3993 1.2764 33.5932 0.98402C33.7871 0.688565 34.0441 0.468513 34.3641 0.323864C34.6842 0.176136 35.032 0.102272 35.4075 0.102272C35.6844 0.102272 35.9214 0.125355 36.1184 0.17152C36.3154 0.214607 36.4616 0.254616 36.557 0.291548L36.2338 1.40874C36.1692 1.39027 36.0861 1.36873 35.9845 1.34411C35.883 1.31641 35.7598 1.30256 35.6152 1.30256C35.2797 1.30256 35.0397 1.38565 34.895 1.55185C34.7535 1.71804 34.6827 1.9581 34.6827 2.27202V10H33.3023ZM41.2695 2.90909V4.01705H37.2624V2.90909H41.2695ZM38.3612 10V2.08736C38.3612 1.64418 38.4581 1.2764 38.652 0.98402C38.8459 0.688565 39.1029 0.468513 39.423 0.323864C39.743 0.176136 40.0908 0.102272 40.4663 0.102272C40.7433 0.102272 40.9802 0.125355 41.1772 0.17152C41.3742 0.214607 41.5204 0.254616 41.6158 0.291548L41.2926 1.40874C41.228 1.39027 41.1449 1.36873 41.0433 1.34411C40.9418 1.31641 40.8187 1.30256 40.674 1.30256C40.3386 1.30256 40.0985 1.38565 39.9539 1.55185C39.8123 1.71804 39.7415 1.9581 39.7415 2.27202V10H38.3612ZM45.7305 10.1431C45.0319 10.1431 44.4302 9.99384 43.9255 9.69531C43.4238 9.3937 43.0361 8.97053 42.7621 8.42578C42.4913 7.87796 42.3559 7.23627 42.3559 6.50071C42.3559 5.77438 42.4913 5.13423 42.7621 4.58026C43.0361 4.02628 43.4177 3.59387 43.907 3.28303C44.3995 2.97218 44.975 2.81676 45.6336 2.81676C46.0337 2.81676 46.4215 2.88293 46.797 3.01527C47.1724 3.14761 47.5094 3.35535 47.808 3.63849C48.1065 3.92164 48.3419 4.28942 48.5143 4.74183C48.6866 5.19117 48.7728 5.73745 48.7728 6.38068V6.87003H43.1361V5.83594H47.4202C47.4202 5.47277 47.3463 5.15116 47.1986 4.87109C47.0509 4.58795 46.8431 4.36482 46.5754 4.2017C46.3107 4.03859 45.9998 3.95703 45.6428 3.95703C45.255 3.95703 44.9165 4.05244 44.6272 4.24325C44.341 4.43099 44.1194 4.6772 43.9624 4.98189C43.8086 5.2835 43.7316 5.61127 43.7316 5.9652V6.77308C43.7316 7.24704 43.8147 7.65021 43.9809 7.9826C44.1502 8.31499 44.3856 8.56889 44.6872 8.74432C44.9888 8.91667 45.3412 9.00284 45.7444 9.00284C46.006 9.00284 46.2445 8.96591 46.4599 8.89205C46.6754 8.8151 46.8616 8.70123 47.0185 8.55043C47.1755 8.39962 47.2955 8.21342 47.3786 7.99183L48.6851 8.22727C48.5805 8.61198 48.3927 8.94898 48.1219 9.23828C47.8541 9.5245 47.5171 9.74763 47.1109 9.90767C46.7077 10.0646 46.2476 10.1431 45.7305 10.1431ZM50.5643 10V2.90909H51.8985V4.03551H51.9723C52.1016 3.65388 52.3294 3.35381 52.6556 3.1353C52.9849 2.91371 53.3573 2.80291 53.7728 2.80291C53.8589 2.80291 53.9605 2.80599 54.0775 2.81214C54.1975 2.8183 54.2914 2.82599 54.3591 2.83523V4.15554C54.3037 4.14015 54.2052 4.12322 54.0636 4.10476C53.922 4.08321 53.7805 4.07244 53.6389 4.07244C53.3127 4.07244 53.0218 4.14169 52.7664 4.28018C52.514 4.4156 52.314 4.60488 52.1662 4.84801C52.0185 5.08807 51.9446 5.36198 51.9446 5.66974V10H50.5643ZM62.5009 10.1431C61.8361 10.1431 61.256 9.99077 60.7605 9.68608C60.265 9.38139 59.8802 8.95514 59.6063 8.40732C59.3324 7.85949 59.1955 7.21934 59.1955 6.48686C59.1955 5.7513 59.3324 5.10807 59.6063 4.55717C59.8802 4.00627 60.265 3.57848 60.7605 3.27379C61.256 2.96911 61.8361 2.81676 62.5009 2.81676C63.1656 2.81676 63.7458 2.96911 64.2413 3.27379C64.7368 3.57848 65.1215 4.00627 65.3954 4.55717C65.6693 5.10807 65.8063 5.7513 65.8063 6.48686C65.8063 7.21934 65.6693 7.85949 65.3954 8.40732C65.1215 8.95514 64.7368 9.38139 64.2413 9.68608C63.7458 9.99077 63.1656 10.1431 62.5009 10.1431ZM62.5055 8.98438C62.9364 8.98438 63.2934 8.8705 63.5765 8.64276C63.8596 8.41501 64.0689 8.11186 64.2043 7.73331C64.3428 7.35476 64.4121 6.93774 64.4121 6.48224C64.4121 6.02983 64.3428 5.61435 64.2043 5.2358C64.0689 4.85417 63.8596 4.54794 63.5765 4.31712C63.2934 4.08629 62.9364 3.97088 62.5055 3.97088C62.0715 3.97088 61.7114 4.08629 61.4252 4.31712C61.1421 4.54794 60.9313 4.85417 60.7928 5.2358C60.6574 5.61435 60.5896 6.02983 60.5896 6.48224C60.5896 6.93774 60.6574 7.35476 60.7928 7.73331C60.9313 8.11186 61.1421 8.41501 61.4252 8.64276C61.7114 8.8705 62.0715 8.98438 62.5055 8.98438ZM68.9873 5.78977V10H67.607V2.90909H68.9319V4.06321H69.0197C69.1828 3.68774 69.4382 3.38613 69.786 3.15838C70.1368 2.93063 70.5785 2.81676 71.1109 2.81676C71.5941 2.81676 72.0173 2.91832 72.3804 3.12145C72.7436 3.3215 73.0252 3.62003 73.2253 4.01705C73.4253 4.41406 73.5253 4.90495 73.5253 5.4897V10H72.145V5.65589C72.145 5.14193 72.0111 4.74029 71.7434 4.45099C71.4756 4.15862 71.1078 4.01243 70.64 4.01243C70.32 4.01243 70.0353 4.08168 69.786 4.22017C69.5398 4.35866 69.3443 4.56179 69.1997 4.82955C69.0581 5.09422 68.9873 5.4143 68.9873 5.78977ZM77.0169 0.545454V10H75.6365V0.545454H77.0169ZM79.1339 10V2.90909H80.5142V10H79.1339ZM79.8309 1.81499C79.5909 1.81499 79.3847 1.73497 79.2123 1.57493C79.0431 1.41181 78.9584 1.21792 78.9584 0.993252C78.9584 0.765506 79.0431 0.571614 79.2123 0.411576C79.3847 0.248461 79.5909 0.166903 79.8309 0.166903C80.071 0.166903 80.2757 0.248461 80.4449 0.411576C80.6173 0.571614 80.7035 0.765506 80.7035 0.993252C80.7035 1.21792 80.6173 1.41181 80.4449 1.57493C80.2757 1.73497 80.071 1.81499 79.8309 1.81499ZM84.0115 5.78977V10H82.6312V2.90909H83.9561V4.06321H84.0438C84.2069 3.68774 84.4624 3.38613 84.8101 3.15838C85.161 2.93063 85.6026 2.81676 86.1351 2.81676C86.6182 2.81676 87.0414 2.91832 87.4046 3.12145C87.7678 3.3215 88.0494 3.62003 88.2494 4.01705C88.4495 4.41406 88.5495 4.90495 88.5495 5.4897V10H87.1691V5.65589C87.1691 5.14193 87.0353 4.74029 86.7675 4.45099C86.4998 4.15862 86.132 4.01243 85.6642 4.01243C85.3441 4.01243 85.0594 4.08168 84.8101 4.22017C84.5639 4.35866 84.3685 4.56179 84.2238 4.82955C84.0823 5.09422 84.0115 5.4143 84.0115 5.78977ZM93.7168 10.1431C93.0182 10.1431 92.4165 9.99384 91.9118 9.69531C91.4101 9.3937 91.0223 8.97053 90.7484 8.42578C90.4776 7.87796 90.3421 7.23627 90.3421 6.50071C90.3421 5.77438 90.4776 5.13423 90.7484 4.58026C91.0223 4.02628 91.4039 3.59387 91.8933 3.28303C92.3857 2.97218 92.9612 2.81676 93.6198 2.81676C94.0199 2.81676 94.4077 2.88293 94.7832 3.01527C95.1587 3.14761 95.4957 3.35535 95.7942 3.63849C96.0927 3.92164 96.3282 4.28942 96.5005 4.74183C96.6729 5.19117 96.7591 5.73745 96.7591 6.38068V6.87003H91.1223V5.83594H95.4064C95.4064 5.47277 95.3326 5.15116 95.1848 4.87109C95.0371 4.58795 94.8294 4.36482 94.5616 4.2017C94.2969 4.03859 93.9861 3.95703 93.6291 3.95703C93.2413 3.95703 92.9028 4.05244 92.6135 4.24325C92.3272 4.43099 92.1056 4.6772 91.9487 4.98189C91.7948 5.2835 91.7179 5.61127 91.7179 5.9652V6.77308C91.7179 7.24704 91.801 7.65021 91.9671 7.9826C92.1364 8.31499 92.3719 8.56889 92.6735 8.74432C92.9751 8.91667 93.3275 9.00284 93.7306 9.00284C93.9922 9.00284 94.2308 8.96591 94.4462 8.89205C94.6616 8.8151 94.8478 8.70123 95.0048 8.55043C95.1618 8.39962 95.2818 8.21342 95.3649 7.99183L96.6713 8.22727C96.5667 8.61198 96.379 8.94898 96.1081 9.23828C95.8404 9.5245 95.5034 9.74763 95.0971 9.90767C94.6939 10.0646 94.2338 10.1431 93.7168 10.1431ZM105.238 10.1431C104.552 10.1431 103.961 9.98769 103.465 9.67685C102.973 9.36293 102.594 8.93052 102.329 8.37962C102.065 7.82872 101.932 7.1978 101.932 6.48686C101.932 5.76669 102.068 5.13115 102.339 4.58026C102.61 4.02628 102.991 3.59387 103.484 3.28303C103.976 2.97218 104.556 2.81676 105.224 2.81676C105.763 2.81676 106.243 2.91679 106.664 3.11683C107.086 3.3138 107.426 3.59079 107.685 3.9478C107.946 4.30481 108.102 4.72183 108.151 5.19886H106.807C106.734 4.86648 106.564 4.58026 106.3 4.3402C106.038 4.10014 105.687 3.98011 105.247 3.98011C104.862 3.98011 104.525 4.08168 104.236 4.2848C103.95 4.48485 103.727 4.77107 103.567 5.14347C103.407 5.51278 103.327 5.94981 103.327 6.45455C103.327 6.97159 103.405 7.41785 103.562 7.79332C103.719 8.1688 103.941 8.45964 104.227 8.66584C104.516 8.87204 104.856 8.97514 105.247 8.97514C105.509 8.97514 105.746 8.92744 105.958 8.83203C106.173 8.73355 106.354 8.59351 106.498 8.41193C106.646 8.23035 106.749 8.01184 106.807 7.75639H108.151C108.102 8.21496 107.952 8.62429 107.703 8.98438C107.454 9.34446 107.12 9.6276 106.701 9.83381C106.286 10.04 105.798 10.1431 105.238 10.1431ZM112.874 10.1431C112.209 10.1431 111.629 9.99077 111.133 9.68608C110.638 9.38139 110.253 8.95514 109.979 8.40732C109.705 7.85949 109.568 7.21934 109.568 6.48686C109.568 5.7513 109.705 5.10807 109.979 4.55717C110.253 4.00627 110.638 3.57848 111.133 3.27379C111.629 2.96911 112.209 2.81676 112.874 2.81676C113.539 2.81676 114.119 2.96911 114.614 3.27379C115.11 3.57848 115.494 4.00627 115.768 4.55717C116.042 5.10807 116.179 5.7513 116.179 6.48686C116.179 7.21934 116.042 7.85949 115.768 8.40732C115.494 8.95514 115.11 9.38139 114.614 9.68608C114.119 9.99077 113.539 10.1431 112.874 10.1431ZM112.878 8.98438C113.309 8.98438 113.666 8.8705 113.949 8.64276C114.233 8.41501 114.442 8.11186 114.577 7.73331C114.716 7.35476 114.785 6.93774 114.785 6.48224C114.785 6.02983 114.716 5.61435 114.577 5.2358C114.442 4.85417 114.233 4.54794 113.949 4.31712C113.666 4.08629 113.309 3.97088 112.878 3.97088C112.445 3.97088 112.084 4.08629 111.798 4.31712C111.515 4.54794 111.304 4.85417 111.166 5.2358C111.03 5.61435 110.963 6.02983 110.963 6.48224C110.963 6.93774 111.03 7.35476 111.166 7.73331C111.304 8.11186 111.515 8.41501 111.798 8.64276C112.084 8.8705 112.445 8.98438 112.878 8.98438ZM120.634 10.1385C120.062 10.1385 119.551 9.99231 119.102 9.69993C118.656 9.40447 118.305 8.98437 118.049 8.43963C117.797 7.89181 117.671 7.23473 117.671 6.46839C117.671 5.70206 117.798 5.04652 118.054 4.50178C118.312 3.95703 118.666 3.54001 119.116 3.25071C119.565 2.96141 120.074 2.81676 120.644 2.81676C121.084 2.81676 121.438 2.89062 121.705 3.03835C121.976 3.183 122.186 3.35227 122.333 3.54616C122.484 3.74006 122.601 3.91087 122.684 4.05859H122.767V0.545454H124.148V10H122.8V8.89666H122.684C122.601 9.04747 122.481 9.21982 122.324 9.41371C122.17 9.6076 121.958 9.77687 121.687 9.92152C121.416 10.0662 121.065 10.1385 120.634 10.1385ZM120.939 8.96129C121.336 8.96129 121.672 8.85665 121.946 8.64737C122.223 8.43501 122.432 8.1411 122.573 7.76562C122.718 7.39015 122.79 6.95312 122.79 6.45455C122.79 5.96212 122.72 5.53125 122.578 5.16193C122.436 4.79261 122.229 4.50485 121.955 4.29865C121.681 4.09245 121.342 3.98935 120.939 3.98935C120.524 3.98935 120.177 4.09706 119.9 4.3125C119.623 4.52794 119.414 4.82185 119.273 5.19425C119.134 5.56664 119.065 5.98674 119.065 6.45455C119.065 6.9285 119.136 7.35476 119.277 7.73331C119.419 8.11186 119.628 8.41193 119.905 8.63352C120.185 8.85204 120.53 8.96129 120.939 8.96129ZM126.378 10V2.90909H127.758V10H126.378ZM127.075 1.81499C126.835 1.81499 126.629 1.73497 126.456 1.57493C126.287 1.41181 126.202 1.21792 126.202 0.993252C126.202 0.765506 126.287 0.571614 126.456 0.411576C126.629 0.248461 126.835 0.166903 127.075 0.166903C127.315 0.166903 127.519 0.248461 127.689 0.411576C127.861 0.571614 127.947 0.765506 127.947 0.993252C127.947 1.21792 127.861 1.41181 127.689 1.57493C127.519 1.73497 127.315 1.81499 127.075 1.81499ZM131.255 5.78977V10H129.875V2.90909H131.2V4.06321H131.288C131.451 3.68774 131.706 3.38613 132.054 3.15838C132.405 2.93063 132.846 2.81676 133.379 2.81676C133.862 2.81676 134.285 2.91832 134.648 3.12145C135.012 3.3215 135.293 3.62003 135.493 4.01705C135.693 4.41406 135.793 4.90495 135.793 5.4897V10H134.413V5.65589C134.413 5.14193 134.279 4.74029 134.011 4.45099C133.744 4.15862 133.376 4.01243 132.908 4.01243C132.588 4.01243 132.303 4.08168 132.054 4.22017C131.808 4.35866 131.612 4.56179 131.468 4.82955C131.326 5.09422 131.255 5.4143 131.255 5.78977ZM140.878 12.8068C140.314 12.8068 139.83 12.733 139.423 12.5852C139.02 12.4375 138.691 12.2421 138.435 11.9989C138.18 11.7558 137.989 11.4896 137.863 11.2003L139.049 10.7109C139.133 10.8464 139.243 10.9895 139.382 11.1403C139.523 11.2942 139.714 11.425 139.954 11.5327C140.197 11.6404 140.51 11.6942 140.891 11.6942C141.415 11.6942 141.847 11.5665 142.189 11.3111C142.53 11.0587 142.701 10.6555 142.701 10.1016V8.70739H142.613C142.53 8.85819 142.41 9.02592 142.253 9.21058C142.099 9.39524 141.887 9.55528 141.616 9.6907C141.345 9.82611 140.993 9.89382 140.559 9.89382C139.999 9.89382 139.494 9.76302 139.045 9.50142C138.599 9.23674 138.245 8.84742 137.983 8.33345C137.724 7.81641 137.595 7.18087 137.595 6.42685C137.595 5.67282 137.723 5.02651 137.978 4.48793C138.237 3.94934 138.591 3.53693 139.04 3.25071C139.49 2.96141 139.999 2.81676 140.568 2.81676C141.008 2.81676 141.364 2.89062 141.635 3.03835C141.905 3.183 142.116 3.35227 142.267 3.54616C142.421 3.74006 142.539 3.91087 142.623 4.05859H142.724V2.90909H144.077V10.157C144.077 10.7663 143.935 11.2665 143.652 11.6573C143.369 12.0482 142.986 12.3375 142.503 12.5252C142.022 12.7129 141.481 12.8068 140.878 12.8068ZM140.864 8.74893C141.261 8.74893 141.596 8.65661 141.87 8.47195C142.147 8.28421 142.356 8.01645 142.498 7.66868C142.643 7.31783 142.715 6.89773 142.715 6.40838C142.715 5.93134 142.644 5.51125 142.503 5.14808C142.361 4.78492 142.153 4.50178 141.879 4.29865C141.605 4.09245 141.267 3.98935 140.864 3.98935C140.448 3.98935 140.102 4.09706 139.825 4.3125C139.548 4.52486 139.339 4.81416 139.197 5.1804C139.059 5.54664 138.989 5.95597 138.989 6.40838C138.989 6.87311 139.06 7.28089 139.202 7.63175C139.343 7.9826 139.553 8.25651 139.83 8.45348C140.11 8.65045 140.454 8.74893 140.864 8.74893ZM3.9391 26.1431C3.24047 26.1431 2.63879 25.9938 2.13406 25.6953C1.6324 25.3937 1.24461 24.9705 0.970703 24.4258C0.69987 23.878 0.564453 23.2363 0.564453 22.5007C0.564453 21.7744 0.69987 21.1342 0.970703 20.5803C1.24461 20.0263 1.62624 19.5939 2.11559 19.283C2.60801 18.9722 3.18353 18.8168 3.84215 18.8168C4.24225 18.8168 4.63003 18.8829 5.0055 19.0153C5.38098 19.1476 5.71798 19.3554 6.01651 19.6385C6.31505 19.9216 6.55049 20.2894 6.72283 20.7418C6.89518 21.1912 6.98136 21.7375 6.98136 22.3807V22.87H1.34464V21.8359H5.62873C5.62873 21.4728 5.55487 21.1512 5.40714 20.8711C5.25941 20.5879 5.05167 20.3648 4.78391 20.2017C4.51924 20.0386 4.20839 19.957 3.85138 19.957C3.4636 19.957 3.12506 20.0524 2.83576 20.2433C2.54954 20.431 2.32795 20.6772 2.17099 20.9819C2.0171 21.2835 1.94016 21.6113 1.94016 21.9652V22.7731C1.94016 23.247 2.02326 23.6502 2.18945 23.9826C2.35872 24.315 2.59416 24.5689 2.89577 24.7443C3.19738 24.9167 3.54978 25.0028 3.95295 25.0028C4.21455 25.0028 4.45307 24.9659 4.6685 24.892C4.88394 24.8151 5.07014 24.7012 5.2271 24.5504C5.38406 24.3996 5.50408 24.2134 5.58718 23.9918L6.89364 24.2273C6.789 24.612 6.60127 24.949 6.33043 25.2383C6.06268 25.5245 5.72567 25.7476 5.31942 25.9077C4.91625 26.0646 4.45614 26.1431 3.9391 26.1431ZM10.1532 21.7898V26H8.77287V18.9091H10.0978V20.0632H10.1855C10.3486 19.6877 10.6041 19.3861 10.9519 19.1584C11.3027 18.9306 11.7443 18.8168 12.2768 18.8168C12.76 18.8168 13.1831 18.9183 13.5463 19.1214C13.9095 19.3215 14.1911 19.62 14.3911 20.017C14.5912 20.4141 14.6912 20.9049 14.6912 21.4897V26H13.3109V21.6559C13.3109 21.1419 13.177 20.7403 12.9092 20.451C12.6415 20.1586 12.2737 20.0124 11.8059 20.0124C11.4858 20.0124 11.2011 20.0817 10.9519 20.2202C10.7056 20.3587 10.5102 20.5618 10.3656 20.8295C10.224 21.0942 10.1532 21.4143 10.1532 21.7898ZM22.6145 18.9091L20.0432 26H18.5659L15.9899 18.9091H17.4718L19.2676 24.3658H19.3415L21.1327 18.9091H22.6145ZM24.1718 26V18.9091H25.5521V26H24.1718ZM24.8689 17.815C24.6288 17.815 24.4226 17.735 24.2503 17.5749C24.081 17.4118 23.9964 17.2179 23.9964 16.9933C23.9964 16.7655 24.081 16.5716 24.2503 16.4116C24.4226 16.2485 24.6288 16.1669 24.8689 16.1669C25.1089 16.1669 25.3136 16.2485 25.4829 16.4116C25.6552 16.5716 25.7414 16.7655 25.7414 16.9933C25.7414 17.2179 25.6552 17.4118 25.4829 17.5749C25.3136 17.735 25.1089 17.815 24.8689 17.815ZM27.6691 26V18.9091H29.0032V20.0355H29.0771C29.2064 19.6539 29.4341 19.3538 29.7603 19.1353C30.0897 18.9137 30.4621 18.8029 30.8775 18.8029C30.9637 18.8029 31.0653 18.806 31.1822 18.8121C31.3023 18.8183 31.3961 18.826 31.4638 18.8352V20.1555C31.4084 20.1402 31.3099 20.1232 31.1684 20.1048C31.0268 20.0832 30.8852 20.0724 30.7437 20.0724C30.4174 20.0724 30.1266 20.1417 29.8711 20.2802C29.6188 20.4156 29.4187 20.6049 29.271 20.848C29.1233 21.0881 29.0494 21.362 29.0494 21.6697V26H27.6691ZM35.6513 26.1431C34.9865 26.1431 34.4064 25.9908 33.9109 25.6861C33.4154 25.3814 33.0307 24.9551 32.7568 24.4073C32.4829 23.8595 32.3459 23.2193 32.3459 22.4869C32.3459 21.7513 32.4829 21.1081 32.7568 20.5572C33.0307 20.0063 33.4154 19.5785 33.9109 19.2738C34.4064 18.9691 34.9865 18.8168 35.6513 18.8168C36.3161 18.8168 36.8962 18.9691 37.3917 19.2738C37.8872 19.5785 38.2719 20.0063 38.5458 20.5572C38.8197 21.1081 38.9567 21.7513 38.9567 22.4869C38.9567 23.2193 38.8197 23.8595 38.5458 24.4073C38.2719 24.9551 37.8872 25.3814 37.3917 25.6861C36.8962 25.9908 36.3161 26.1431 35.6513 26.1431ZM35.6559 24.9844C36.0868 24.9844 36.4438 24.8705 36.7269 24.6428C37.0101 24.415 37.2194 24.1119 37.3548 23.7333C37.4933 23.3548 37.5625 22.9377 37.5625 22.4822C37.5625 22.0298 37.4933 21.6143 37.3548 21.2358C37.2194 20.8542 37.0101 20.5479 36.7269 20.3171C36.4438 20.0863 36.0868 19.9709 35.6559 19.9709C35.222 19.9709 34.8619 20.0863 34.5757 20.3171C34.2925 20.5479 34.0817 20.8542 33.9432 21.2358C33.8078 21.6143 33.7401 22.0298 33.7401 22.4822C33.7401 22.9377 33.8078 23.3548 33.9432 23.7333C34.0817 24.1119 34.2925 24.415 34.5757 24.6428C34.8619 24.8705 35.222 24.9844 35.6559 24.9844ZM42.1378 21.7898V26H40.7574V18.9091H42.0824V20.0632H42.1701C42.3332 19.6877 42.5886 19.3861 42.9364 19.1584C43.2873 18.9306 43.7289 18.8168 44.2614 18.8168C44.7445 18.8168 45.1677 18.9183 45.5309 19.1214C45.894 19.3215 46.1757 19.62 46.3757 20.017C46.5757 20.4141 46.6758 20.9049 46.6758 21.4897V26H45.2954V21.6559C45.2954 21.1419 45.1616 20.7403 44.8938 20.451C44.6261 20.1586 44.2583 20.0124 43.7905 20.0124C43.4704 20.0124 43.1857 20.0817 42.9364 20.2202C42.6902 20.3587 42.4948 20.5618 42.3501 20.8295C42.2086 21.0942 42.1378 21.4143 42.1378 21.7898ZM48.787 26V18.9091H50.1119V20.0632H50.1996C50.3473 19.6723 50.5889 19.3677 50.9244 19.1491C51.2599 18.9276 51.6615 18.8168 52.1293 18.8168C52.6033 18.8168 53.0003 18.9276 53.3204 19.1491C53.6435 19.3707 53.882 19.6754 54.0359 20.0632H54.1098C54.279 19.6847 54.5483 19.383 54.9177 19.1584C55.287 18.9306 55.7271 18.8168 56.238 18.8168C56.8812 18.8168 57.4059 19.0183 57.8122 19.4215C58.2215 19.8247 58.4262 20.4325 58.4262 21.245V26H57.0459V21.3743C57.0459 20.8942 56.9151 20.5464 56.6535 20.331C56.3919 20.1155 56.0795 20.0078 55.7163 20.0078C55.267 20.0078 54.9177 20.1463 54.6684 20.4233C54.4191 20.6972 54.2944 21.0496 54.2944 21.4805V26H52.9187V21.2866C52.9187 20.9019 52.7987 20.5926 52.5586 20.3587C52.3186 20.1248 52.0062 20.0078 51.6215 20.0078C51.3599 20.0078 51.1183 20.0771 50.8967 20.2156C50.6782 20.351 50.5012 20.5402 50.3658 20.7834C50.2335 21.0265 50.1673 21.3081 50.1673 21.6282V26H48.787ZM63.5923 26.1431C62.8937 26.1431 62.292 25.9938 61.7873 25.6953C61.2856 25.3937 60.8979 24.9705 60.6239 24.4258C60.3531 23.878 60.2177 23.2363 60.2177 22.5007C60.2177 21.7744 60.3531 21.1342 60.6239 20.5803C60.8979 20.0263 61.2795 19.5939 61.7688 19.283C62.2613 18.9722 62.8368 18.8168 63.4954 18.8168C63.8955 18.8168 64.2833 18.8829 64.6587 19.0153C65.0342 19.1476 65.3712 19.3554 65.6698 19.6385C65.9683 19.9216 66.2037 20.2894 66.3761 20.7418C66.5484 21.1912 66.6346 21.7375 66.6346 22.3807V22.87H60.9979V21.8359H65.282C65.282 21.4728 65.2081 21.1512 65.0604 20.8711C64.9127 20.5879 64.7049 20.3648 64.4372 20.2017C64.1725 20.0386 63.8616 19.957 63.5046 19.957C63.1168 19.957 62.7783 20.0524 62.489 20.2433C62.2028 20.431 61.9812 20.6772 61.8242 20.9819C61.6703 21.2835 61.5934 21.6113 61.5934 21.9652V22.7731C61.5934 23.247 61.6765 23.6502 61.8427 23.9826C62.012 24.315 62.2474 24.5689 62.549 24.7443C62.8506 24.9167 63.203 25.0028 63.6062 25.0028C63.8678 25.0028 64.1063 24.9659 64.3217 24.892C64.5372 24.8151 64.7234 24.7012 64.8803 24.5504C65.0373 24.3996 65.1573 24.2134 65.2404 23.9918L66.5469 24.2273C66.4422 24.612 66.2545 24.949 65.9837 25.2383C65.7159 25.5245 65.3789 25.7476 64.9727 25.9077C64.5695 26.0646 64.1094 26.1431 63.5923 26.1431ZM69.8064 21.7898V26H68.4261V18.9091H69.751V20.0632H69.8388C70.0019 19.6877 70.2573 19.3861 70.6051 19.1584C70.9559 18.9306 71.3976 18.8168 71.93 18.8168C72.4132 18.8168 72.8364 18.9183 73.1995 19.1214C73.5627 19.3215 73.8443 19.62 74.0444 20.017C74.2444 20.4141 74.3444 20.9049 74.3444 21.4897V26H72.9641V21.6559C72.9641 21.1419 72.8302 20.7403 72.5625 20.451C72.2947 20.1586 71.9269 20.0124 71.4591 20.0124C71.1391 20.0124 70.8544 20.0817 70.6051 20.2202C70.3589 20.3587 70.1634 20.5618 70.0188 20.8295C69.8772 21.0942 69.8064 21.4143 69.8064 21.7898ZM79.7657 18.9091V20.017H75.8924V18.9091H79.7657ZM76.9311 17.2102H78.3115V23.918C78.3115 24.1857 78.3515 24.3873 78.4315 24.5227C78.5115 24.6551 78.6146 24.7459 78.7408 24.7951C78.8701 24.8413 79.0101 24.8643 79.1609 24.8643C79.2717 24.8643 79.3686 24.8567 79.4517 24.8413C79.5348 24.8259 79.5995 24.8136 79.6456 24.8043L79.8949 25.9446C79.8149 25.9754 79.701 26.0062 79.5533 26.0369C79.4056 26.0708 79.2209 26.0893 78.9993 26.0923C78.6362 26.0985 78.2976 26.0339 77.9837 25.8984C77.6698 25.763 77.4159 25.5537 77.222 25.2706C77.0281 24.9875 76.9311 24.632 76.9311 24.2042V17.2102ZM86.7519 20.6403L85.5008 20.8619C85.4485 20.7018 85.3654 20.5495 85.2515 20.4048C85.1407 20.2602 84.9899 20.1417 84.7991 20.0494C84.6083 19.957 84.3698 19.9109 84.0835 19.9109C83.6927 19.9109 83.3665 19.9986 83.1049 20.174C82.8433 20.3464 82.7125 20.5695 82.7125 20.8434C82.7125 21.0804 82.8002 21.2712 82.9756 21.4158C83.151 21.5605 83.4342 21.679 83.825 21.7713L84.9514 22.0298C85.6039 22.1806 86.0902 22.413 86.4102 22.7269C86.7303 23.0408 86.8904 23.4486 86.8904 23.9503C86.8904 24.375 86.7673 24.7536 86.521 25.0859C86.2779 25.4152 85.9378 25.6738 85.5008 25.8615C85.0669 26.0492 84.5637 26.1431 83.9912 26.1431C83.1972 26.1431 82.5493 25.9738 82.0477 25.6353C81.546 25.2937 81.2383 24.8089 81.1244 24.1811L82.4585 23.978C82.5416 24.3258 82.7125 24.5889 82.971 24.7674C83.2295 24.9428 83.5665 25.0305 83.982 25.0305C84.4344 25.0305 84.796 24.9367 85.0669 24.7489C85.3377 24.5581 85.4731 24.3258 85.4731 24.0518C85.4731 23.8303 85.39 23.6441 85.2238 23.4933C85.0607 23.3424 84.8099 23.2286 84.4713 23.1516L83.271 22.8885C82.6093 22.7377 82.12 22.4976 81.803 22.1683C81.4891 21.839 81.3321 21.422 81.3321 20.9173C81.3321 20.4987 81.4491 20.1325 81.683 19.8185C81.9169 19.5046 82.24 19.2599 82.6524 19.0845C83.0648 18.906 83.5373 18.8168 84.0697 18.8168C84.836 18.8168 85.4393 18.983 85.8794 19.3153C86.3195 19.6446 86.6103 20.0863 86.7519 20.6403ZM95.7431 18.9091V20.017H91.736V18.9091H95.7431ZM92.8347 26V18.0874C92.8347 17.6442 92.9317 17.2764 93.1256 16.984C93.3195 16.6886 93.5764 16.4685 93.8965 16.3239C94.2166 16.1761 94.5644 16.1023 94.9398 16.1023C95.2168 16.1023 95.4538 16.1254 95.6508 16.1715C95.8477 16.2146 95.9939 16.2546 96.0893 16.2915L95.7662 17.4087C95.7016 17.3903 95.6185 17.3687 95.5169 17.3441C95.4153 17.3164 95.2922 17.3026 95.1476 17.3026C94.8121 17.3026 94.5721 17.3857 94.4274 17.5518C94.2858 17.718 94.215 17.9581 94.215 18.272V26H92.8347ZM100.135 26.1431C99.4701 26.1431 98.8899 25.9908 98.3944 25.6861C97.8989 25.3814 97.5142 24.9551 97.2403 24.4073C96.9664 23.8595 96.8295 23.2193 96.8295 22.4869C96.8295 21.7513 96.9664 21.1081 97.2403 20.5572C97.5142 20.0063 97.8989 19.5785 98.3944 19.2738C98.8899 18.9691 99.4701 18.8168 100.135 18.8168C100.8 18.8168 101.38 18.9691 101.875 19.2738C102.371 19.5785 102.755 20.0063 103.029 20.5572C103.303 21.1081 103.44 21.7513 103.44 22.4869C103.44 23.2193 103.303 23.8595 103.029 24.4073C102.755 24.9551 102.371 25.3814 101.875 25.6861C101.38 25.9908 100.8 26.1431 100.135 26.1431ZM100.139 24.9844C100.57 24.9844 100.927 24.8705 101.21 24.6428C101.494 24.415 101.703 24.1119 101.838 23.7333C101.977 23.3548 102.046 22.9377 102.046 22.4822C102.046 22.0298 101.977 21.6143 101.838 21.2358C101.703 20.8542 101.494 20.5479 101.21 20.3171C100.927 20.0863 100.57 19.9709 100.139 19.9709C99.7055 19.9709 99.3454 20.0863 99.0592 20.3171C98.7761 20.5479 98.5652 20.8542 98.4268 21.2358C98.2913 21.6143 98.2236 22.0298 98.2236 22.4822C98.2236 22.9377 98.2913 23.3548 98.4268 23.7333C98.5652 24.1119 98.7761 24.415 99.0592 24.6428C99.3454 24.8705 99.7055 24.9844 100.139 24.9844ZM105.241 26V18.9091H106.575V20.0355H106.649C106.778 19.6539 107.006 19.3538 107.332 19.1353C107.662 18.9137 108.034 18.8029 108.449 18.8029C108.536 18.8029 108.637 18.806 108.754 18.8121C108.874 18.8183 108.968 18.826 109.036 18.8352V20.1555C108.98 20.1402 108.882 20.1232 108.74 20.1048C108.599 20.0832 108.457 20.0724 108.316 20.0724C107.989 20.0724 107.699 20.1417 107.443 20.2802C107.191 20.4156 106.991 20.6049 106.843 20.848C106.695 21.0881 106.621 21.362 106.621 21.6697V26H105.241ZM114.191 26V18.9091H115.571V26H114.191ZM114.888 17.815C114.648 17.815 114.442 17.735 114.269 17.5749C114.1 17.4118 114.015 17.2179 114.015 16.9933C114.015 16.7655 114.1 16.5716 114.269 16.4116C114.442 16.2485 114.648 16.1669 114.888 16.1669C115.128 16.1669 115.332 16.2485 115.502 16.4116C115.674 16.5716 115.76 16.7655 115.76 16.9933C115.76 17.2179 115.674 17.4118 115.502 17.5749C115.332 17.735 115.128 17.815 114.888 17.815ZM119.068 21.7898V26H117.688V18.9091H119.013V20.0632H119.101C119.264 19.6877 119.519 19.3861 119.867 19.1584C120.218 18.9306 120.659 18.8168 121.192 18.8168C121.675 18.8168 122.098 18.9183 122.461 19.1214C122.825 19.3215 123.106 19.62 123.306 20.017C123.506 20.4141 123.606 20.9049 123.606 21.4897V26H122.226V21.6559C122.226 21.1419 122.092 20.7403 121.824 20.451C121.557 20.1586 121.189 20.0124 120.721 20.0124C120.401 20.0124 120.116 20.0817 119.867 20.2202C119.621 20.3587 119.425 20.5618 119.281 20.8295C119.139 21.0942 119.068 21.4143 119.068 21.7898ZM129.028 18.9091V20.017H125.154V18.9091H129.028ZM126.193 17.2102H127.573V23.918C127.573 24.1857 127.613 24.3873 127.693 24.5227C127.773 24.6551 127.876 24.7459 128.003 24.7951C128.132 24.8413 128.272 24.8643 128.423 24.8643C128.534 24.8643 128.631 24.8567 128.714 24.8413C128.797 24.8259 128.861 24.8136 128.908 24.8043L129.157 25.9446C129.077 25.9754 128.963 26.0062 128.815 26.0369C128.667 26.0708 128.483 26.0893 128.261 26.0923C127.898 26.0985 127.559 26.0339 127.246 25.8984C126.932 25.763 126.678 25.5537 126.484 25.2706C126.29 24.9875 126.193 24.632 126.193 24.2042V17.2102ZM133.794 26.1431C133.096 26.1431 132.494 25.9938 131.989 25.6953C131.488 25.3937 131.1 24.9705 130.826 24.4258C130.555 23.878 130.42 23.2363 130.42 22.5007C130.42 21.7744 130.555 21.1342 130.826 20.5803C131.1 20.0263 131.482 19.5939 131.971 19.283C132.463 18.9722 133.039 18.8168 133.697 18.8168C134.098 18.8168 134.485 18.8829 134.861 19.0153C135.236 19.1476 135.573 19.3554 135.872 19.6385C136.17 19.9216 136.406 20.2894 136.578 20.7418C136.75 21.1912 136.837 21.7375 136.837 22.3807V22.87H131.2V21.8359H135.484C135.484 21.4728 135.41 21.1512 135.262 20.8711C135.115 20.5879 134.907 20.3648 134.639 20.2017C134.375 20.0386 134.064 19.957 133.707 19.957C133.319 19.957 132.98 20.0524 132.691 20.2433C132.405 20.431 132.183 20.6772 132.026 20.9819C131.872 21.2835 131.795 21.6113 131.795 21.9652V22.7731C131.795 23.247 131.879 23.6502 132.045 23.9826C132.214 24.315 132.449 24.5689 132.751 24.7443C133.053 24.9167 133.405 25.0028 133.808 25.0028C134.07 25.0028 134.308 24.9659 134.524 24.892C134.739 24.8151 134.925 24.7012 135.082 24.5504C135.239 24.3996 135.359 24.2134 135.442 23.9918L136.749 24.2273C136.644 24.612 136.457 24.949 136.186 25.2383C135.918 25.5245 135.581 25.7476 135.175 25.9077C134.772 26.0646 134.311 26.1431 133.794 26.1431ZM138.628 26V18.9091H139.962V20.0355H140.036C140.165 19.6539 140.393 19.3538 140.719 19.1353C141.049 18.9137 141.421 18.8029 141.837 18.8029C141.923 18.8029 142.024 18.806 142.141 18.8121C142.261 18.8183 142.355 18.826 142.423 18.8352V20.1555C142.367 20.1402 142.269 20.1232 142.127 20.1048C141.986 20.0832 141.844 20.0724 141.703 20.0724C141.376 20.0724 141.086 20.1417 140.83 20.2802C140.578 20.4156 140.378 20.6049 140.23 20.848C140.082 21.0881 140.008 21.362 140.008 21.6697V26H138.628ZM145.877 26.157C145.428 26.157 145.022 26.0739 144.659 25.9077C144.296 25.7384 144.008 25.4937 143.795 25.1737C143.586 24.8536 143.482 24.4612 143.482 23.9964C143.482 23.5964 143.558 23.267 143.712 23.0085C143.866 22.75 144.074 22.5453 144.336 22.3945C144.597 22.2437 144.89 22.1299 145.213 22.0529C145.536 21.976 145.865 21.9175 146.201 21.8775C146.625 21.8282 146.97 21.7882 147.235 21.7575C147.499 21.7236 147.692 21.6697 147.812 21.5959C147.932 21.522 147.992 21.402 147.992 21.2358V21.2035C147.992 20.8003 147.878 20.4879 147.65 20.2663C147.426 20.0447 147.09 19.9339 146.644 19.9339C146.179 19.9339 145.813 20.037 145.545 20.2433C145.28 20.4464 145.097 20.6726 144.996 20.9219L143.699 20.6264C143.852 20.1955 144.077 19.8478 144.373 19.5831C144.671 19.3153 145.014 19.1214 145.402 19.0014C145.79 18.8783 146.198 18.8168 146.625 18.8168C146.909 18.8168 147.209 18.8506 147.526 18.9183C147.846 18.983 148.144 19.103 148.421 19.2784C148.701 19.4538 148.931 19.7047 149.109 20.0309C149.288 20.354 149.377 20.7741 149.377 21.2912V26H148.029V25.0305H147.973C147.884 25.209 147.75 25.3845 147.572 25.5568C147.393 25.7292 147.164 25.8723 146.884 25.9862C146.604 26.1 146.268 26.157 145.877 26.157ZM146.178 25.049C146.559 25.049 146.885 24.9736 147.156 24.8228C147.43 24.672 147.638 24.475 147.779 24.2319C147.924 23.9857 147.996 23.7225 147.996 23.4425V22.5284C147.947 22.5777 147.852 22.6238 147.71 22.6669C147.572 22.7069 147.413 22.7423 147.235 22.7731C147.056 22.8008 146.882 22.8269 146.713 22.8516C146.544 22.8731 146.402 22.8916 146.288 22.907C146.021 22.9408 145.776 22.9978 145.554 23.0778C145.336 23.1578 145.16 23.2732 145.028 23.424C144.899 23.5717 144.834 23.7687 144.834 24.0149C144.834 24.3565 144.96 24.6151 145.213 24.7905C145.465 24.9628 145.787 25.049 146.178 25.049ZM154.462 26.1431C153.776 26.1431 153.185 25.9877 152.689 25.6768C152.197 25.3629 151.818 24.9305 151.554 24.3796C151.289 23.8287 151.157 23.1978 151.157 22.4869C151.157 21.7667 151.292 21.1312 151.563 20.5803C151.834 20.0263 152.215 19.5939 152.708 19.283C153.2 18.9722 153.78 18.8168 154.448 18.8168C154.987 18.8168 155.467 18.9168 155.889 19.1168C156.31 19.3138 156.65 19.5908 156.909 19.9478C157.17 20.3048 157.326 20.7218 157.375 21.1989H156.032C155.958 20.8665 155.789 20.5803 155.524 20.3402C155.262 20.1001 154.911 19.9801 154.471 19.9801C154.087 19.9801 153.75 20.0817 153.46 20.2848C153.174 20.4848 152.951 20.7711 152.791 21.1435C152.631 21.5128 152.551 21.9498 152.551 22.4545C152.551 22.9716 152.629 23.4179 152.786 23.7933C152.943 24.1688 153.165 24.4596 153.451 24.6658C153.74 24.872 154.081 24.9751 154.471 24.9751C154.733 24.9751 154.97 24.9274 155.182 24.832C155.398 24.7335 155.578 24.5935 155.722 24.4119C155.87 24.2304 155.973 24.0118 156.032 23.7564H157.375C157.326 24.215 157.177 24.6243 156.927 24.9844C156.678 25.3445 156.344 25.6276 155.926 25.8338C155.51 26.04 155.022 26.1431 154.462 26.1431ZM162.421 18.9091V20.017H158.548V18.9091H162.421ZM159.587 17.2102H160.967V23.918C160.967 24.1857 161.007 24.3873 161.087 24.5227C161.167 24.6551 161.27 24.7459 161.396 24.7951C161.526 24.8413 161.666 24.8643 161.817 24.8643C161.927 24.8643 162.024 24.8567 162.107 24.8413C162.19 24.8259 162.255 24.8136 162.301 24.8043L162.551 25.9446C162.471 25.9754 162.357 26.0062 162.209 26.0369C162.061 26.0708 161.877 26.0893 161.655 26.0923C161.292 26.0985 160.953 26.0339 160.639 25.8984C160.325 25.763 160.072 25.5537 159.878 25.2706C159.684 24.9875 159.587 24.632 159.587 24.2042V17.2102ZM164.208 26V18.9091H165.589V26H164.208ZM164.905 17.815C164.665 17.815 164.459 17.735 164.287 17.5749C164.117 17.4118 164.033 17.2179 164.033 16.9933C164.033 16.7655 164.117 16.5716 164.287 16.4116C164.459 16.2485 164.665 16.1669 164.905 16.1669C165.145 16.1669 165.35 16.2485 165.519 16.4116C165.692 16.5716 165.778 16.7655 165.778 16.9933C165.778 17.2179 165.692 17.4118 165.519 17.5749C165.35 17.735 165.145 17.815 164.905 17.815ZM173.772 18.9091L171.2 26H169.723L167.147 18.9091H168.629L170.425 24.3658H170.498L172.29 18.9091H173.772ZM178.144 26.1431C177.445 26.1431 176.843 25.9938 176.339 25.6953C175.837 25.3937 175.449 24.9705 175.175 24.4258C174.904 23.878 174.769 23.2363 174.769 22.5007C174.769 21.7744 174.904 21.1342 175.175 20.5803C175.449 20.0263 175.831 19.5939 176.32 19.283C176.813 18.9722 177.388 18.8168 178.047 18.8168C178.447 18.8168 178.835 18.8829 179.21 19.0153C179.586 19.1476 179.923 19.3554 180.221 19.6385C180.52 19.9216 180.755 20.2894 180.927 20.7418C181.1 21.1912 181.186 21.7375 181.186 22.3807V22.87H175.549V21.8359H179.833C179.833 21.4728 179.759 21.1512 179.612 20.8711C179.464 20.5879 179.256 20.3648 178.988 20.2017C178.724 20.0386 178.413 19.957 178.056 19.957C177.668 19.957 177.33 20.0524 177.04 20.2433C176.754 20.431 176.533 20.6772 176.376 20.9819C176.222 21.2835 176.145 21.6113 176.145 21.9652V22.7731C176.145 23.247 176.228 23.6502 176.394 23.9826C176.563 24.315 176.799 24.5689 177.1 24.7443C177.402 24.9167 177.754 25.0028 178.158 25.0028C178.419 25.0028 178.658 24.9659 178.873 24.892C179.089 24.8151 179.275 24.7012 179.432 24.5504C179.589 24.3996 179.709 24.2134 179.792 23.9918L181.098 24.2273C180.994 24.612 180.806 24.949 180.535 25.2383C180.267 25.5245 179.93 25.7476 179.524 25.9077C179.121 26.0646 178.661 26.1431 178.144 26.1431ZM0.88299 44.6591V34.9091H2.231V36.0586H2.34641C2.42643 35.9109 2.54184 35.7401 2.69265 35.5462C2.84345 35.3523 3.05273 35.183 3.32049 35.0384C3.58825 34.8906 3.94218 34.8168 4.38228 34.8168C4.95472 34.8168 5.46561 34.9614 5.91495 35.2507C6.36429 35.54 6.71668 35.957 6.97212 36.5018C7.23065 37.0465 7.35991 37.7021 7.35991 38.4684C7.35991 39.2347 7.23219 39.8918 6.97674 40.4396C6.7213 40.9844 6.37044 41.4045 5.92418 41.6999C5.47792 41.9923 4.96857 42.1385 4.39613 42.1385C3.96526 42.1385 3.61287 42.0662 3.33896 41.9215C3.06812 41.7769 2.85576 41.6076 2.70188 41.4137C2.548 41.2198 2.42951 41.0475 2.34641 40.8967H2.26332V44.6591H0.88299ZM2.23562 38.4545C2.23562 38.9531 2.30794 39.3902 2.45259 39.7656C2.59724 40.1411 2.80652 40.435 3.08043 40.6474C3.35434 40.8567 3.68981 40.9613 4.08683 40.9613C4.49923 40.9613 4.84393 40.852 5.12092 40.6335C5.3979 40.4119 5.60719 40.1119 5.74876 39.7333C5.89341 39.3548 5.96573 38.9285 5.96573 38.4545C5.96573 37.9867 5.89495 37.5666 5.75337 37.1942C5.61488 36.8219 5.4056 36.5279 5.12553 36.3125C4.84854 36.0971 4.50231 35.9893 4.08683 35.9893C3.68673 35.9893 3.34819 36.0924 3.0712 36.2987C2.79729 36.5049 2.58955 36.7926 2.44798 37.1619C2.3064 37.5312 2.23562 37.9621 2.23562 38.4545ZM9.16643 42V34.9091H10.5006V36.0355H10.5745C10.7037 35.6539 10.9315 35.3538 11.2577 35.1353C11.587 34.9137 11.9594 34.8029 12.3749 34.8029C12.4611 34.8029 12.5626 34.806 12.6796 34.8121C12.7996 34.8183 12.8935 34.826 12.9612 34.8352V36.1555C12.9058 36.1402 12.8073 36.1232 12.6657 36.1048C12.5241 36.0832 12.3826 36.0724 12.241 36.0724C11.9148 36.0724 11.6239 36.1417 11.3685 36.2802C11.1161 36.4156 10.9161 36.6049 10.7683 36.848C10.6206 37.0881 10.5468 37.362 10.5468 37.6697V42H9.16643ZM17.1486 42.1431C16.4839 42.1431 15.9037 41.9908 15.4082 41.6861C14.9127 41.3814 14.528 40.9551 14.2541 40.4073C13.9802 39.8595 13.8432 39.2193 13.8432 38.4869C13.8432 37.7513 13.9802 37.1081 14.2541 36.5572C14.528 36.0063 14.9127 35.5785 15.4082 35.2738C15.9037 34.9691 16.4839 34.8168 17.1486 34.8168C17.8134 34.8168 18.3936 34.9691 18.8891 35.2738C19.3846 35.5785 19.7693 36.0063 20.0432 36.5572C20.3171 37.1081 20.454 37.7513 20.454 38.4869C20.454 39.2193 20.3171 39.8595 20.0432 40.4073C19.7693 40.9551 19.3846 41.3814 18.8891 41.6861C18.3936 41.9908 17.8134 42.1431 17.1486 42.1431ZM17.1533 40.9844C17.5841 40.9844 17.9411 40.8705 18.2243 40.6428C18.5074 40.415 18.7167 40.1119 18.8521 39.7333C18.9906 39.3548 19.0599 38.9377 19.0599 38.4822C19.0599 38.0298 18.9906 37.6143 18.8521 37.2358C18.7167 36.8542 18.5074 36.5479 18.2243 36.3171C17.9411 36.0863 17.5841 35.9709 17.1533 35.9709C16.7193 35.9709 16.3592 36.0863 16.073 36.3171C15.7899 36.5479 15.579 36.8542 15.4405 37.2358C15.3051 37.6143 15.2374 38.0298 15.2374 38.4822C15.2374 38.9377 15.3051 39.3548 15.4405 39.7333C15.579 40.1119 15.7899 40.415 16.073 40.6428C16.3592 40.8705 16.7193 40.9844 17.1533 40.9844ZM25.2278 44.8068C24.6646 44.8068 24.1799 44.733 23.7736 44.5852C23.3704 44.4375 23.0411 44.2421 22.7857 43.9989C22.5302 43.7558 22.3394 43.4896 22.2132 43.2003L23.3997 42.7109C23.4828 42.8464 23.5936 42.9895 23.7321 43.1403C23.8736 43.2942 24.0644 43.425 24.3045 43.5327C24.5476 43.6404 24.86 43.6942 25.2416 43.6942C25.7648 43.6942 26.1973 43.5665 26.5389 43.3111C26.8805 43.0587 27.0513 42.6555 27.0513 42.1016V40.7074H26.9636C26.8805 40.8582 26.7605 41.0259 26.6035 41.2106C26.4496 41.3952 26.2373 41.5553 25.9664 41.6907C25.6956 41.8261 25.3432 41.8938 24.9093 41.8938C24.3491 41.8938 23.8444 41.763 23.3951 41.5014C22.9488 41.2367 22.5949 40.8474 22.3333 40.3335C22.0747 39.8164 21.9455 39.1809 21.9455 38.4268C21.9455 37.6728 22.0732 37.0265 22.3287 36.4879C22.5872 35.9493 22.9411 35.5369 23.3904 35.2507C23.8398 34.9614 24.3491 34.8168 24.9185 34.8168C25.3586 34.8168 25.7141 34.8906 25.9849 35.0384C26.2557 35.183 26.4666 35.3523 26.6174 35.5462C26.7712 35.7401 26.8897 35.9109 26.9728 36.0586H27.0744V34.9091H28.427V42.157C28.427 42.7663 28.2854 43.2665 28.0023 43.6573C27.7192 44.0482 27.336 44.3375 26.8528 44.5252C26.3727 44.7129 25.831 44.8068 25.2278 44.8068ZM25.2139 40.7489C25.611 40.7489 25.9464 40.6566 26.2203 40.4719C26.4973 40.2842 26.7066 40.0165 26.8482 39.6687C26.9928 39.3178 27.0652 38.8977 27.0652 38.4084C27.0652 37.9313 26.9944 37.5112 26.8528 37.1481C26.7112 36.7849 26.5035 36.5018 26.2296 36.2987C25.9557 36.0924 25.6171 35.9893 25.2139 35.9893C24.7985 35.9893 24.4522 36.0971 24.1752 36.3125C23.8983 36.5249 23.689 36.8142 23.5474 37.1804C23.4089 37.5466 23.3397 37.956 23.3397 38.4084C23.3397 38.8731 23.4104 39.2809 23.552 39.6317C23.6936 39.9826 23.9029 40.2565 24.1799 40.4535C24.4599 40.6504 24.8046 40.7489 25.2139 40.7489ZM30.5382 42V34.9091H31.8724V36.0355H31.9463C32.0755 35.6539 32.3033 35.3538 32.6295 35.1353C32.9588 34.9137 33.3312 34.8029 33.7467 34.8029C33.8329 34.8029 33.9344 34.806 34.0514 34.8121C34.1714 34.8183 34.2653 34.826 34.333 34.8352V36.1555C34.2776 36.1402 34.1791 36.1232 34.0375 36.1048C33.8959 36.0832 33.7544 36.0724 33.6128 36.0724C33.2866 36.0724 32.9957 36.1417 32.7403 36.2802C32.4879 36.4156 32.2879 36.6049 32.1401 36.848C31.9924 37.0881 31.9186 37.362 31.9186 37.6697V42H30.5382ZM37.7876 42.157C37.3382 42.157 36.932 42.0739 36.5688 41.9077C36.2057 41.7384 35.9179 41.4937 35.7055 41.1737C35.4963 40.8536 35.3916 40.4612 35.3916 39.9964C35.3916 39.5964 35.4686 39.267 35.6224 39.0085C35.7763 38.75 35.9841 38.5453 36.2457 38.3945C36.5073 38.2437 36.7996 38.1299 37.1228 38.0529C37.446 37.976 37.7753 37.9175 38.1107 37.8775C38.5354 37.8282 38.8801 37.7882 39.1448 37.7575C39.4095 37.7236 39.6018 37.6697 39.7219 37.5959C39.8419 37.522 39.9019 37.402 39.9019 37.2358V37.2035C39.9019 36.8003 39.788 36.4879 39.5603 36.2663C39.3356 36.0447 39.0002 35.9339 38.5539 35.9339C38.0892 35.9339 37.7229 36.037 37.4552 36.2433C37.1905 36.4464 37.0074 36.6726 36.9058 36.9219L35.6086 36.6264C35.7625 36.1955 35.9871 35.8478 36.2826 35.5831C36.5811 35.3153 36.9243 35.1214 37.3121 35.0014C37.6999 34.8783 38.1076 34.8168 38.5354 34.8168C38.8186 34.8168 39.1187 34.8506 39.4357 34.9183C39.7557 34.983 40.0543 35.103 40.3312 35.2784C40.6113 35.4538 40.8406 35.7047 41.0191 36.0309C41.1976 36.354 41.2869 36.7741 41.2869 37.2912V42H39.9388V41.0305H39.8835C39.7942 41.209 39.6603 41.3845 39.4818 41.5568C39.3033 41.7292 39.074 41.8723 38.794 41.9862C38.5139 42.1 38.1784 42.157 37.7876 42.157ZM38.0876 41.049C38.4693 41.049 38.7955 40.9736 39.0663 40.8228C39.3402 40.672 39.548 40.475 39.6896 40.2319C39.8342 39.9857 39.9065 39.7225 39.9065 39.4425V38.5284C39.8573 38.5777 39.7619 38.6238 39.6203 38.6669C39.4818 38.7069 39.3233 38.7423 39.1448 38.7731C38.9663 38.8008 38.7924 38.8269 38.6232 38.8516C38.4539 38.8731 38.3123 38.8916 38.1984 38.907C37.9307 38.9408 37.686 38.9978 37.4644 39.0778C37.2459 39.1578 37.0705 39.2732 36.9381 39.424C36.8089 39.5717 36.7442 39.7687 36.7442 40.0149C36.7442 40.3565 36.8704 40.6151 37.1228 40.7905C37.3752 40.9628 37.6968 41.049 38.0876 41.049ZM43.3854 42V34.9091H44.7103V36.0632H44.798C44.9457 35.6723 45.1873 35.3677 45.5228 35.1491C45.8583 34.9276 46.2599 34.8168 46.7277 34.8168C47.2017 34.8168 47.5987 34.9276 47.9188 35.1491C48.2419 35.3707 48.4804 35.6754 48.6343 36.0632H48.7082C48.8774 35.6847 49.1467 35.383 49.5161 35.1584C49.8854 34.9306 50.3255 34.8168 50.8364 34.8168C51.4796 34.8168 52.0043 35.0183 52.4106 35.4215C52.8199 35.8247 53.0246 36.4325 53.0246 37.245V42H51.6443V37.3743C51.6443 36.8942 51.5135 36.5464 51.2519 36.331C50.9903 36.1155 50.6779 36.0078 50.3147 36.0078C49.8654 36.0078 49.5161 36.1463 49.2668 36.4233C49.0175 36.6972 48.8928 37.0496 48.8928 37.4805V42H47.5171V37.2866C47.5171 36.9019 47.3971 36.5926 47.157 36.3587C46.917 36.1248 46.6046 36.0078 46.2199 36.0078C45.9583 36.0078 45.7167 36.0771 45.4951 36.2156C45.2766 36.351 45.0996 36.5402 44.9642 36.7834C44.8319 37.0265 44.7657 37.3081 44.7657 37.6282V42H43.3854ZM55.1346 42V34.9091H56.4596V36.0632H56.5473C56.695 35.6723 56.9366 35.3677 57.2721 35.1491C57.6075 34.9276 58.0092 34.8168 58.477 34.8168C58.9509 34.8168 59.3479 34.9276 59.668 35.1491C59.9912 35.3707 60.2297 35.6754 60.3836 36.0632H60.4574C60.6267 35.6847 60.896 35.383 61.2653 35.1584C61.6346 34.9306 62.0747 34.8168 62.5856 34.8168C63.2289 34.8168 63.7536 35.0183 64.1598 35.4215C64.5692 35.8247 64.7738 36.4325 64.7738 37.245V42H63.3935V37.3743C63.3935 36.8942 63.2627 36.5464 63.0011 36.331C62.7395 36.1155 62.4271 36.0078 62.064 36.0078C61.6146 36.0078 61.2653 36.1463 61.016 36.4233C60.7667 36.6972 60.6421 37.0496 60.6421 37.4805V42H59.2664V37.2866C59.2664 36.9019 59.1463 36.5926 58.9063 36.3587C58.6662 36.1248 58.3539 36.0078 57.9691 36.0078C57.7075 36.0078 57.466 36.0771 57.2444 36.2156C57.0258 36.351 56.8489 36.5402 56.7135 36.7834C56.5811 37.0265 56.515 37.3081 56.515 37.6282V42H55.1346ZM66.8839 42V34.9091H68.2642V42H66.8839ZM67.581 33.815C67.3409 33.815 67.1347 33.735 66.9624 33.5749C66.7931 33.4118 66.7085 33.2179 66.7085 32.9933C66.7085 32.7655 66.7931 32.5716 66.9624 32.4116C67.1347 32.2485 67.3409 32.1669 67.581 32.1669C67.821 32.1669 68.0257 32.2485 68.195 32.4116C68.3673 32.5716 68.4535 32.7655 68.4535 32.9933C68.4535 33.2179 68.3673 33.4118 68.195 33.5749C68.0257 33.735 67.821 33.815 67.581 33.815ZM71.7615 37.7898V42H70.3812V34.9091H71.7061V36.0632H71.7938C71.9569 35.6877 72.2124 35.3861 72.5602 35.1584C72.911 34.9306 73.3527 34.8168 73.8851 34.8168C74.3683 34.8168 74.7915 34.9183 75.1546 35.1214C75.5178 35.3215 75.7994 35.62 75.9994 36.017C76.1995 36.4141 76.2995 36.9049 76.2995 37.4897V42H74.9192V37.6559C74.9192 37.1419 74.7853 36.7403 74.5176 36.451C74.2498 36.1586 73.882 36.0124 73.4142 36.0124C73.0941 36.0124 72.8095 36.0817 72.5602 36.2202C72.314 36.3587 72.1185 36.5618 71.9739 36.8295C71.8323 37.0942 71.7615 37.4143 71.7615 37.7898ZM81.3837 44.8068C80.8205 44.8068 80.3358 44.733 79.9295 44.5852C79.5264 44.4375 79.1971 44.2421 78.9416 43.9989C78.6862 43.7558 78.4954 43.4896 78.3692 43.2003L79.5556 42.7109C79.6387 42.8464 79.7495 42.9895 79.888 43.1403C80.0296 43.2942 80.2204 43.425 80.4604 43.5327C80.7036 43.6404 81.016 43.6942 81.3976 43.6942C81.9208 43.6942 82.3532 43.5665 82.6948 43.3111C83.0364 43.0587 83.2072 42.6555 83.2072 42.1016V40.7074H83.1195C83.0364 40.8582 82.9164 41.0259 82.7594 41.2106C82.6056 41.3952 82.3932 41.5553 82.1224 41.6907C81.8515 41.8261 81.4991 41.8938 81.0652 41.8938C80.5051 41.8938 80.0003 41.763 79.551 41.5014C79.1047 41.2367 78.7508 40.8474 78.4892 40.3335C78.2307 39.8164 78.1014 39.1809 78.1014 38.4268C78.1014 37.6728 78.2291 37.0265 78.4846 36.4879C78.7431 35.9493 79.097 35.5369 79.5464 35.2507C79.9957 34.9614 80.5051 34.8168 81.0744 34.8168C81.5145 34.8168 81.87 34.8906 82.1408 35.0384C82.4117 35.183 82.6225 35.3523 82.7733 35.5462C82.9272 35.7401 83.0457 35.9109 83.1288 36.0586H83.2303V34.9091H84.583V42.157C84.583 42.7663 84.4414 43.2665 84.1582 43.6573C83.8751 44.0482 83.4919 44.3375 83.0087 44.5252C82.5286 44.7129 81.987 44.8068 81.3837 44.8068ZM81.3699 40.7489C81.7669 40.7489 82.1024 40.6566 82.3763 40.4719C82.6533 40.2842 82.8625 40.0165 83.0041 39.6687C83.1488 39.3178 83.2211 38.8977 83.2211 38.4084C83.2211 37.9313 83.1503 37.5112 83.0087 37.1481C82.8672 36.7849 82.6594 36.5018 82.3855 36.2987C82.1116 36.0924 81.7731 35.9893 81.3699 35.9893C80.9544 35.9893 80.6082 36.0971 80.3312 36.3125C80.0542 36.5249 79.8449 36.8142 79.7033 37.1804C79.5648 37.5466 79.4956 37.956 79.4956 38.4084C79.4956 38.8731 79.5664 39.2809 79.708 39.6317C79.8495 39.9826 80.0588 40.2565 80.3358 40.4535C80.6159 40.6504 80.9606 40.7489 81.3699 40.7489ZM93.4507 42.1431C92.7521 42.1431 92.1504 41.9938 91.6457 41.6953C91.144 41.3937 90.7562 40.9705 90.4823 40.4258C90.2115 39.878 90.0761 39.2363 90.0761 38.5007C90.0761 37.7744 90.2115 37.1342 90.4823 36.5803C90.7562 36.0263 91.1378 35.5939 91.6272 35.283C92.1196 34.9722 92.6951 34.8168 93.3538 34.8168C93.7539 34.8168 94.1416 34.8829 94.5171 35.0153C94.8926 35.1476 95.2296 35.3554 95.5281 35.6385C95.8266 35.9216 96.0621 36.2894 96.2344 36.7418C96.4068 37.1912 96.493 37.7375 96.493 38.3807V38.87H90.8562V37.8359H95.1403C95.1403 37.4728 95.0665 37.1512 94.9187 36.8711C94.771 36.5879 94.5633 36.3648 94.2955 36.2017C94.0308 36.0386 93.72 35.957 93.363 35.957C92.9752 35.957 92.6367 36.0524 92.3474 36.2433C92.0611 36.431 91.8396 36.6772 91.6826 36.9819C91.5287 37.2835 91.4518 37.6113 91.4518 37.9652V38.7731C91.4518 39.247 91.5349 39.6502 91.7011 39.9826C91.8703 40.315 92.1058 40.5689 92.4074 40.7443C92.709 40.9167 93.0614 41.0028 93.4646 41.0028C93.7262 41.0028 93.9647 40.9659 94.1801 40.892C94.3955 40.8151 94.5817 40.7012 94.7387 40.5504C94.8957 40.3996 95.0157 40.2134 95.0988 39.9918L96.4052 40.2273C96.3006 40.612 96.1129 40.949 95.842 41.2383C95.5743 41.5245 95.2373 41.7476 94.831 41.9077C94.4279 42.0646 93.9677 42.1431 93.4507 42.1431ZM100.939 42.1385C100.367 42.1385 99.8556 41.9923 99.4063 41.6999C98.96 41.4045 98.6092 40.9844 98.3537 40.4396C98.1014 39.8918 97.9752 39.2347 97.9752 38.4684C97.9752 37.7021 98.1029 37.0465 98.3583 36.5018C98.6169 35.957 98.9708 35.54 99.4201 35.2507C99.8695 34.9614 100.379 34.8168 100.948 34.8168C101.388 34.8168 101.742 34.8906 102.01 35.0384C102.281 35.183 102.49 35.3523 102.638 35.5462C102.789 35.7401 102.906 35.9109 102.989 36.0586H103.072V32.5455H104.452V42H103.104V40.8967H102.989C102.906 41.0475 102.786 41.2198 102.629 41.4137C102.475 41.6076 102.262 41.7769 101.992 41.9215C101.721 42.0662 101.37 42.1385 100.939 42.1385ZM101.244 40.9613C101.641 40.9613 101.976 40.8567 102.25 40.6474C102.527 40.435 102.736 40.1411 102.878 39.7656C103.023 39.3902 103.095 38.9531 103.095 38.4545C103.095 37.9621 103.024 37.5312 102.882 37.1619C102.741 36.7926 102.533 36.5049 102.259 36.2987C101.985 36.0924 101.647 35.9893 101.244 35.9893C100.828 35.9893 100.482 36.0971 100.205 36.3125C99.9279 36.5279 99.7187 36.8219 99.5771 37.1942C99.4386 37.5666 99.3693 37.9867 99.3693 38.4545C99.3693 38.9285 99.4401 39.3548 99.5817 39.7333C99.7233 40.1119 99.9326 40.4119 100.21 40.6335C100.49 40.852 100.834 40.9613 101.244 40.9613ZM111.174 39.0593V34.9091H112.559V42H111.202V40.772H111.128C110.965 41.1506 110.703 41.466 110.343 41.7184C109.986 41.9677 109.541 42.0923 109.009 42.0923C108.553 42.0923 108.15 41.9923 107.799 41.7923C107.452 41.5891 107.178 41.2891 106.978 40.892C106.781 40.495 106.682 40.0041 106.682 39.4194V34.9091H108.062V39.2532C108.062 39.7364 108.196 40.1211 108.464 40.4073C108.732 40.6935 109.08 40.8366 109.507 40.8366C109.766 40.8366 110.023 40.772 110.278 40.6428C110.537 40.5135 110.751 40.3181 110.92 40.0565C111.092 39.7949 111.177 39.4625 111.174 39.0593ZM117.66 42.1431C116.974 42.1431 116.383 41.9877 115.888 41.6768C115.395 41.3629 115.017 40.9305 114.752 40.3796C114.487 39.8287 114.355 39.1978 114.355 38.4869C114.355 37.7667 114.49 37.1312 114.761 36.5803C115.032 36.0263 115.414 35.5939 115.906 35.283C116.399 34.9722 116.979 34.8168 117.647 34.8168C118.185 34.8168 118.665 34.9168 119.087 35.1168C119.509 35.3138 119.849 35.5908 120.107 35.9478C120.369 36.3048 120.524 36.7218 120.573 37.1989H119.23C119.156 36.8665 118.987 36.5803 118.722 36.3402C118.461 36.1001 118.11 35.9801 117.67 35.9801C117.285 35.9801 116.948 36.0817 116.659 36.2848C116.372 36.4848 116.149 36.7711 115.989 37.1435C115.829 37.5128 115.749 37.9498 115.749 38.4545C115.749 38.9716 115.828 39.4179 115.985 39.7933C116.142 40.1688 116.363 40.4596 116.649 40.6658C116.939 40.872 117.279 40.9751 117.67 40.9751C117.931 40.9751 118.168 40.9274 118.381 40.832C118.596 40.7335 118.776 40.5935 118.921 40.4119C119.069 40.2304 119.172 40.0118 119.23 39.7564H120.573C120.524 40.215 120.375 40.6243 120.126 40.9844C119.876 41.3445 119.542 41.6276 119.124 41.8338C118.708 42.04 118.221 42.1431 117.66 42.1431ZM124.373 42.157C123.924 42.157 123.518 42.0739 123.154 41.9077C122.791 41.7384 122.503 41.4937 122.291 41.1737C122.082 40.8536 121.977 40.4612 121.977 39.9964C121.977 39.5964 122.054 39.267 122.208 39.0085C122.362 38.75 122.57 38.5453 122.831 38.3945C123.093 38.2437 123.385 38.1299 123.708 38.0529C124.032 37.976 124.361 37.9175 124.696 37.8775C125.121 37.8282 125.466 37.7882 125.73 37.7575C125.995 37.7236 126.187 37.6697 126.307 37.5959C126.427 37.522 126.488 37.402 126.488 37.2358V37.2035C126.488 36.8003 126.374 36.4879 126.146 36.2663C125.921 36.0447 125.586 35.9339 125.139 35.9339C124.675 35.9339 124.309 36.037 124.041 36.2433C123.776 36.4464 123.593 36.6726 123.491 36.9219L122.194 36.6264C122.348 36.1955 122.573 35.8478 122.868 35.5831C123.167 35.3153 123.51 35.1214 123.898 35.0014C124.285 34.8783 124.693 34.8168 125.121 34.8168C125.404 34.8168 125.704 34.8506 126.021 34.9183C126.341 34.983 126.64 35.103 126.917 35.2784C127.197 35.4538 127.426 35.7047 127.605 36.0309C127.783 36.354 127.872 36.7741 127.872 37.2912V42H126.524V41.0305H126.469C126.38 41.209 126.246 41.3845 126.067 41.5568C125.889 41.7292 125.66 41.8723 125.38 41.9862C125.099 42.1 124.764 42.157 124.373 42.157ZM124.673 41.049C125.055 41.049 125.381 40.9736 125.652 40.8228C125.926 40.672 126.134 40.475 126.275 40.2319C126.42 39.9857 126.492 39.7225 126.492 39.4425V38.5284C126.443 38.5777 126.347 38.6238 126.206 38.6669C126.067 38.7069 125.909 38.7423 125.73 38.7731C125.552 38.8008 125.378 38.8269 125.209 38.8516C125.039 38.8731 124.898 38.8916 124.784 38.907C124.516 38.9408 124.272 38.9978 124.05 39.0778C123.831 39.1578 123.656 39.2732 123.524 39.424C123.394 39.5717 123.33 39.7687 123.33 40.0149C123.33 40.3565 123.456 40.6151 123.708 40.7905C123.961 40.9628 124.282 41.049 124.673 41.049ZM133.281 34.9091V36.017H129.408V34.9091H133.281ZM130.446 33.2102H131.827V39.918C131.827 40.1857 131.867 40.3873 131.947 40.5227C132.027 40.6551 132.13 40.7459 132.256 40.7951C132.385 40.8413 132.525 40.8643 132.676 40.8643C132.787 40.8643 132.884 40.8567 132.967 40.8413C133.05 40.8259 133.115 40.8136 133.161 40.8043L133.41 41.9446C133.33 41.9754 133.216 42.0062 133.069 42.0369C132.921 42.0708 132.736 42.0893 132.515 42.0923C132.151 42.0985 131.813 42.0339 131.499 41.8984C131.185 41.763 130.931 41.5537 130.737 41.2706C130.543 40.9875 130.446 40.632 130.446 40.2042V33.2102ZM135.068 42V34.9091H136.448V42H135.068ZM135.765 33.815C135.525 33.815 135.319 33.735 135.146 33.5749C134.977 33.4118 134.892 33.2179 134.892 32.9933C134.892 32.7655 134.977 32.5716 135.146 32.4116C135.319 32.2485 135.525 32.1669 135.765 32.1669C136.005 32.1669 136.21 32.2485 136.379 32.4116C136.551 32.5716 136.637 32.7655 136.637 32.9933C136.637 33.2179 136.551 33.4118 136.379 33.5749C136.21 33.735 136.005 33.815 135.765 33.815ZM141.552 42.1431C140.887 42.1431 140.307 41.9908 139.812 41.6861C139.316 41.3814 138.931 40.9551 138.658 40.4073C138.384 39.8595 138.247 39.2193 138.247 38.4869C138.247 37.7513 138.384 37.1081 138.658 36.5572C138.931 36.0063 139.316 35.5785 139.812 35.2738C140.307 34.9691 140.887 34.8168 141.552 34.8168C142.217 34.8168 142.797 34.9691 143.292 35.2738C143.788 35.5785 144.173 36.0063 144.447 36.5572C144.72 37.1081 144.857 37.7513 144.857 38.4869C144.857 39.2193 144.72 39.8595 144.447 40.4073C144.173 40.9551 143.788 41.3814 143.292 41.6861C142.797 41.9908 142.217 42.1431 141.552 42.1431ZM141.557 40.9844C141.988 40.9844 142.345 40.8705 142.628 40.6428C142.911 40.415 143.12 40.1119 143.256 39.7333C143.394 39.3548 143.463 38.9377 143.463 38.4822C143.463 38.0298 143.394 37.6143 143.256 37.2358C143.12 36.8542 142.911 36.5479 142.628 36.3171C142.345 36.0863 141.988 35.9709 141.557 35.9709C141.123 35.9709 140.763 36.0863 140.476 36.3171C140.193 36.5479 139.982 36.8542 139.844 37.2358C139.709 37.6143 139.641 38.0298 139.641 38.4822C139.641 38.9377 139.709 39.3548 139.844 39.7333C139.982 40.1119 140.193 40.415 140.476 40.6428C140.763 40.8705 141.123 40.9844 141.557 40.9844ZM148.039 37.7898V42H146.658V34.9091H147.983V36.0632H148.071C148.234 35.6877 148.489 35.3861 148.837 35.1584C149.188 34.9306 149.63 34.8168 150.162 34.8168C150.645 34.8168 151.068 34.9183 151.432 35.1214C151.795 35.3215 152.076 35.62 152.276 36.017C152.476 36.4141 152.577 36.9049 152.577 37.4897V42H151.196V37.6559C151.196 37.1419 151.062 36.7403 150.795 36.451C150.527 36.1586 150.159 36.0124 149.691 36.0124C149.371 36.0124 149.086 36.0817 148.837 36.2202C148.591 36.3587 148.396 36.5618 148.251 36.8295C148.109 37.0942 148.039 37.4143 148.039 37.7898ZM155.597 42.0877C155.345 42.0877 155.128 41.9985 154.946 41.82C154.765 41.6384 154.674 41.4199 154.674 41.1644C154.674 40.9121 154.765 40.6966 154.946 40.5181C155.128 40.3365 155.345 40.2457 155.597 40.2457C155.85 40.2457 156.067 40.3365 156.248 40.5181C156.43 40.6966 156.52 40.9121 156.52 41.1644C156.52 41.3337 156.477 41.4891 156.391 41.6307C156.308 41.7692 156.197 41.88 156.059 41.9631C155.92 42.0462 155.766 42.0877 155.597 42.0877Z" fill="#F7F8F8"/>
</svg>
