<svg width="339" height="56" viewBox="0 0 339 56" fill="none" xmlns="http://www.w3.org/2000/svg">
<path d="M5.55753 20L0.514915 1.81818H3.40021L6.94247 15.8984H7.11115L10.7955 1.81818H13.6541L17.3384 15.9073H17.5071L21.0405 1.81818H23.9347L18.8832 20H16.1222L12.2958 6.38139H12.1538L8.32741 20H5.55753ZM28.8774 11.9034V20H26.2229V1.81818H28.8419V8.5831H29.0106C29.3302 7.84919 29.8184 7.26622 30.4754 6.83416C31.1324 6.40211 31.9906 6.18608 33.05 6.18608C33.9851 6.18608 34.8019 6.37843 35.5003 6.76314C36.2046 7.14785 36.7491 7.72195 37.1338 8.48544C37.5244 9.24302 37.7197 10.19 37.7197 11.3263V20H35.0653V11.646C35.0653 10.6457 34.8078 9.87038 34.2929 9.31996C33.778 8.76361 33.0618 8.48544 32.1444 8.48544C31.5171 8.48544 30.9548 8.61861 30.4577 8.88494C29.9664 9.15128 29.5787 9.5419 29.2947 10.0568C29.0165 10.5658 28.8774 11.1813 28.8774 11.9034ZM45.2304 20.3018C44.3663 20.3018 43.585 20.142 42.8866 19.8224C42.1882 19.4969 41.6349 19.0264 41.2265 18.4109C40.824 17.7953 40.6228 17.0407 40.6228 16.147C40.6228 15.3776 40.7707 14.7443 41.0667 14.2472C41.3626 13.75 41.7621 13.3564 42.2652 13.0664C42.7683 12.7764 43.3305 12.5574 43.952 12.4094C44.5734 12.2615 45.2067 12.149 45.8518 12.0721C46.6686 11.9774 47.3315 11.9004 47.8405 11.8413C48.3495 11.7762 48.7194 11.6726 48.9502 11.5305C49.181 11.3885 49.2964 11.1577 49.2964 10.8381V10.7759C49.2964 10.0006 49.0774 9.39986 48.6395 8.97372C48.2074 8.54758 47.5623 8.33452 46.7041 8.33452C45.8104 8.33452 45.1061 8.53279 44.5912 8.92933C44.0822 9.31996 43.73 9.75497 43.5347 10.2344L41.04 9.66619C41.336 8.83759 41.768 8.1688 42.3362 7.6598C42.9103 7.14489 43.5702 6.77202 44.316 6.54119C45.0617 6.30445 45.8459 6.18608 46.6686 6.18608C47.2131 6.18608 47.7902 6.25118 48.3998 6.38139C49.0153 6.50568 49.5894 6.73651 50.1221 7.07386C50.6607 7.41122 51.1016 7.89358 51.4449 8.52095C51.7881 9.1424 51.9598 9.95028 51.9598 10.9446V20H49.3675V18.1357H49.2609C49.0893 18.4789 48.8318 18.8163 48.4885 19.1477C48.1453 19.4792 47.7043 19.7544 47.1657 19.9734C46.6272 20.1924 45.982 20.3018 45.2304 20.3018ZM45.8074 18.1712C46.5413 18.1712 47.1687 18.0262 47.6895 17.7362C48.2163 17.4461 48.6158 17.0674 48.8881 16.5998C49.1662 16.1263 49.3053 15.6203 49.3053 15.0817V13.3239C49.2106 13.4186 49.0271 13.5073 48.7549 13.5902C48.4885 13.6671 48.1837 13.7352 47.8405 13.7944C47.4972 13.8477 47.1628 13.898 46.8373 13.9453C46.5117 13.9867 46.2395 14.0223 46.0205 14.0518C45.5056 14.117 45.0351 14.2264 44.6089 14.3803C44.1887 14.5342 43.8514 14.7562 43.5969 15.0462C43.3483 15.3303 43.224 15.709 43.224 16.1825C43.224 16.8395 43.4666 17.3366 43.952 17.674C44.4373 18.0054 45.0558 18.1712 45.8074 18.1712ZM61.8608 6.36364V8.49432H54.4123V6.36364H61.8608ZM56.4098 3.09659H59.0643V15.9961C59.0643 16.511 59.1412 16.8987 59.2951 17.1591C59.449 17.4136 59.6473 17.5882 59.8899 17.6829C60.1385 17.7717 60.4078 17.8161 60.6978 17.8161C60.9109 17.8161 61.0973 17.8013 61.2571 17.7717C61.4169 17.7421 61.5412 17.7184 61.63 17.7006L62.1094 19.8935C61.9555 19.9527 61.7365 20.0118 61.4524 20.071C61.1683 20.1361 60.8132 20.1716 60.3871 20.1776C59.6887 20.1894 59.0376 20.0651 58.4339 19.8047C57.8303 19.5443 57.342 19.1418 56.9691 18.5973C56.5962 18.0528 56.4098 17.3692 56.4098 16.5465V3.09659ZM75.3817 20.3018C74.5176 20.3018 73.7364 20.142 73.038 19.8224C72.3396 19.4969 71.7862 19.0264 71.3778 18.4109C70.9754 17.7953 70.7741 17.0407 70.7741 16.147C70.7741 15.3776 70.9221 14.7443 71.218 14.2472C71.514 13.75 71.9135 13.3564 72.4165 13.0664C72.9196 12.7764 73.4819 12.5574 74.1033 12.4094C74.7248 12.2615 75.3581 12.149 76.0032 12.0721C76.82 11.9774 77.4828 11.9004 77.9918 11.8413C78.5008 11.7762 78.8707 11.6726 79.1016 11.5305C79.3324 11.3885 79.4478 11.1577 79.4478 10.8381V10.7759C79.4478 10.0006 79.2288 9.39986 78.7908 8.97372C78.3588 8.54758 77.7137 8.33452 76.8555 8.33452C75.9618 8.33452 75.2575 8.53279 74.7425 8.92933C74.2335 9.31996 73.8814 9.75497 73.6861 10.2344L71.1914 9.66619C71.4873 8.83759 71.9194 8.1688 72.4876 7.6598C73.0617 7.14489 73.7216 6.77202 74.4673 6.54119C75.2131 6.30445 75.9973 6.18608 76.82 6.18608C77.3645 6.18608 77.9415 6.25118 78.5511 6.38139C79.1667 6.50568 79.7408 6.73651 80.2734 7.07386C80.812 7.41122 81.253 7.89358 81.5962 8.52095C81.9395 9.1424 82.1112 9.95028 82.1112 10.9446V20H79.5188V18.1357H79.4123C79.2406 18.4789 78.9832 18.8163 78.6399 19.1477C78.2966 19.4792 77.8557 19.7544 77.3171 19.9734C76.7785 20.1924 76.1334 20.3018 75.3817 20.3018ZM75.9588 18.1712C76.6927 18.1712 77.3201 18.0262 77.8409 17.7362C78.3677 17.4461 78.7672 17.0674 79.0394 16.5998C79.3176 16.1263 79.4567 15.6203 79.4567 15.0817V13.3239C79.362 13.4186 79.1785 13.5073 78.9062 13.5902C78.6399 13.6671 78.3351 13.7352 77.9918 13.7944C77.6486 13.8477 77.3142 13.898 76.9886 13.9453C76.6631 13.9867 76.3909 14.0223 76.1719 14.0518C75.657 14.117 75.1864 14.2264 74.7603 14.3803C74.3401 14.5342 74.0027 14.7562 73.7482 15.0462C73.4996 15.3303 73.3754 15.709 73.3754 16.1825C73.3754 16.8395 73.618 17.3366 74.1033 17.674C74.5887 18.0054 75.2071 18.1712 75.9588 18.1712ZM85.6468 20V6.36364H88.2124V8.52983H88.3545C88.6031 7.79593 89.041 7.21887 89.6684 6.79865C90.3017 6.37251 91.0178 6.15945 91.8169 6.15945C91.9826 6.15945 92.1779 6.16536 92.4028 6.1772C92.6336 6.18904 92.8141 6.20383 92.9443 6.22159V8.76065C92.8378 8.73106 92.6484 8.69851 92.3762 8.663C92.1039 8.62157 91.8316 8.60085 91.5594 8.60085C90.932 8.60085 90.3727 8.73402 89.8815 9.00035C89.3962 9.26077 89.0115 9.62476 88.7274 10.0923C88.4433 10.554 88.3012 11.0807 88.3012 11.6726V20H85.6468ZM100.63 20.2752C99.2868 20.2752 98.1297 19.9882 97.1591 19.4141C96.1944 18.834 95.4486 18.0202 94.9219 16.9727C94.401 15.9192 94.1406 14.6851 94.1406 13.2706C94.1406 11.8738 94.401 10.6428 94.9219 9.57741C95.4486 8.51207 96.1825 7.68052 97.1236 7.08274C98.0705 6.48497 99.1773 6.18608 100.444 6.18608C101.213 6.18608 101.959 6.31333 102.681 6.56783C103.403 6.82232 104.051 7.22183 104.625 7.76634C105.199 8.31084 105.652 9.01811 105.984 9.88814C106.315 10.7522 106.481 11.8028 106.481 13.0398V13.9808H95.641V11.9922H103.88C103.88 11.2938 103.738 10.6753 103.453 10.1367C103.169 9.59221 102.77 9.16312 102.255 8.84943C101.746 8.53575 101.148 8.37891 100.462 8.37891C99.7159 8.37891 99.0649 8.56238 98.5085 8.92933C97.9581 9.29036 97.532 9.76385 97.2301 10.3498C96.9342 10.9298 96.7862 11.5601 96.7862 12.2408V13.7944C96.7862 14.7058 96.946 15.4812 97.2656 16.1204C97.5911 16.7596 98.0439 17.2479 98.6239 17.5852C99.204 17.9167 99.8816 18.0824 100.657 18.0824C101.16 18.0824 101.619 18.0114 102.033 17.8693C102.447 17.7214 102.805 17.5024 103.107 17.2124C103.409 16.9223 103.64 16.5643 103.8 16.1381L106.312 16.5909C106.111 17.3307 105.75 17.9788 105.229 18.5352C104.714 19.0856 104.066 19.5147 103.285 19.8224C102.509 20.1243 101.625 20.2752 100.63 20.2752ZM117.72 25.1136C117.324 25.1136 116.963 25.0811 116.637 25.016C116.312 24.9568 116.069 24.8917 115.909 24.8207L116.548 22.6456C117.034 22.7758 117.466 22.832 117.844 22.8143C118.223 22.7965 118.558 22.6545 118.848 22.3881C119.144 22.1218 119.404 21.6868 119.629 21.0831L119.957 20.1776L114.968 6.36364H117.809L121.262 16.946H121.404L124.858 6.36364H127.708L122.088 21.82C121.828 22.5302 121.496 23.1309 121.094 23.6222C120.691 24.1193 120.212 24.4922 119.656 24.7408C119.099 24.9893 118.454 25.1136 117.72 25.1136ZM135.483 20.2752C134.204 20.2752 133.088 19.9822 132.136 19.3963C131.183 18.8104 130.443 17.9906 129.916 16.9371C129.389 15.8836 129.126 14.6526 129.126 13.244C129.126 11.8294 129.389 10.5924 129.916 9.53303C130.443 8.4736 131.183 7.65092 132.136 7.06499C133.088 6.47905 134.204 6.18608 135.483 6.18608C136.761 6.18608 137.877 6.47905 138.829 7.06499C139.782 7.65092 140.522 8.4736 141.049 9.53303C141.576 10.5924 141.839 11.8294 141.839 13.244C141.839 14.6526 141.576 15.8836 141.049 16.9371C140.522 17.9906 139.782 18.8104 138.829 19.3963C137.877 19.9822 136.761 20.2752 135.483 20.2752ZM135.491 18.0469C136.32 18.0469 137.007 17.8279 137.551 17.3899C138.096 16.9519 138.498 16.369 138.758 15.641C139.025 14.913 139.158 14.111 139.158 13.2351C139.158 12.3651 139.025 11.5661 138.758 10.8381C138.498 10.1042 138.096 9.51527 137.551 9.07138C137.007 8.62749 136.32 8.40554 135.491 8.40554C134.657 8.40554 133.964 8.62749 133.414 9.07138C132.869 9.51527 132.464 10.1042 132.198 10.8381C131.937 11.5661 131.807 12.3651 131.807 13.2351C131.807 14.111 131.937 14.913 132.198 15.641C132.464 16.369 132.869 16.9519 133.414 17.3899C133.964 17.8279 134.657 18.0469 135.491 18.0469ZM153.44 14.3448V6.36364H156.104V20H153.493V17.6385H153.351C153.038 18.3665 152.535 18.9731 151.842 19.4585C151.156 19.9379 150.3 20.1776 149.276 20.1776C148.401 20.1776 147.625 19.9852 146.95 19.6005C146.282 19.2099 145.755 18.6328 145.37 17.8693C144.991 17.1058 144.802 16.1618 144.802 15.0373V6.36364H147.456V14.7177C147.456 15.6469 147.714 16.3867 148.229 16.9371C148.744 17.4876 149.413 17.7628 150.235 17.7628C150.732 17.7628 151.227 17.6385 151.718 17.3899C152.215 17.1413 152.626 16.7655 152.952 16.2624C153.283 15.7594 153.446 15.1201 153.44 14.3448ZM168.941 1.81818V20H166.286V1.81818H168.941ZM178.256 20.2752C176.978 20.2752 175.862 19.9822 174.909 19.3963C173.956 18.8104 173.216 17.9906 172.69 16.9371C172.163 15.8836 171.899 14.6526 171.899 13.244C171.899 11.8294 172.163 10.5924 172.69 9.53303C173.216 8.4736 173.956 7.65092 174.909 7.06499C175.862 6.47905 176.978 6.18608 178.256 6.18608C179.534 6.18608 180.65 6.47905 181.603 7.06499C182.556 7.65092 183.296 8.4736 183.822 9.53303C184.349 10.5924 184.612 11.8294 184.612 13.244C184.612 14.6526 184.349 15.8836 183.822 16.9371C183.296 17.9906 182.556 18.8104 181.603 19.3963C180.65 19.9822 179.534 20.2752 178.256 20.2752ZM178.265 18.0469C179.093 18.0469 179.78 17.8279 180.324 17.3899C180.869 16.9519 181.271 16.369 181.532 15.641C181.798 14.913 181.931 14.111 181.931 13.2351C181.931 12.3651 181.798 11.5661 181.532 10.8381C181.271 10.1042 180.869 9.51527 180.324 9.07138C179.78 8.62749 179.093 8.40554 178.265 8.40554C177.43 8.40554 176.738 8.62749 176.187 9.07138C175.643 9.51527 175.237 10.1042 174.971 10.8381C174.711 11.5661 174.581 12.3651 174.581 13.2351C174.581 14.111 174.711 14.913 174.971 15.641C175.237 16.369 175.643 16.9519 176.187 17.3899C176.738 17.8279 177.43 18.0469 178.265 18.0469ZM193.319 20.2752C192.041 20.2752 190.925 19.9822 189.972 19.3963C189.02 18.8104 188.28 17.9906 187.753 16.9371C187.226 15.8836 186.963 14.6526 186.963 13.244C186.963 11.8294 187.226 10.5924 187.753 9.53303C188.28 8.4736 189.02 7.65092 189.972 7.06499C190.925 6.47905 192.041 6.18608 193.319 6.18608C194.598 6.18608 195.713 6.47905 196.666 7.06499C197.619 7.65092 198.359 8.4736 198.886 9.53303C199.413 10.5924 199.676 11.8294 199.676 13.244C199.676 14.6526 199.413 15.8836 198.886 16.9371C198.359 17.9906 197.619 18.8104 196.666 19.3963C195.713 19.9822 194.598 20.2752 193.319 20.2752ZM193.328 18.0469C194.157 18.0469 194.843 17.8279 195.388 17.3899C195.932 16.9519 196.335 16.369 196.595 15.641C196.862 14.913 196.995 14.111 196.995 13.2351C196.995 12.3651 196.862 11.5661 196.595 10.8381C196.335 10.1042 195.932 9.51527 195.388 9.07138C194.843 8.62749 194.157 8.40554 193.328 8.40554C192.494 8.40554 191.801 8.62749 191.251 9.07138C190.706 9.51527 190.301 10.1042 190.035 10.8381C189.774 11.5661 189.644 12.3651 189.644 13.2351C189.644 14.111 189.774 14.913 190.035 15.641C190.301 16.369 190.706 16.9519 191.251 17.3899C191.801 17.8279 192.494 18.0469 193.328 18.0469ZM205.08 15.3746L205.063 12.1342H205.524L210.957 6.36364H214.136L207.939 12.9332H207.522L205.08 15.3746ZM202.639 20V1.81818H205.293V20H202.639ZM211.25 20L206.368 13.5192L208.196 11.6637L214.509 20H211.25ZM216.555 20V6.36364H219.209V20H216.555ZM217.896 4.25959C217.434 4.25959 217.037 4.1057 216.706 3.79794C216.38 3.48426 216.218 3.11139 216.218 2.67933C216.218 2.24136 216.38 1.86849 216.706 1.56072C217.037 1.24704 217.434 1.0902 217.896 1.0902C218.357 1.0902 218.751 1.24704 219.076 1.56072C219.408 1.86849 219.573 2.24136 219.573 2.67933C219.573 3.11139 219.408 3.48426 219.076 3.79794C218.751 4.1057 218.357 4.25959 217.896 4.25959ZM225.435 11.9034V20H222.781V6.36364H225.328V8.5831H225.497C225.811 7.86103 226.302 7.28101 226.971 6.84304C227.646 6.40507 228.495 6.18608 229.519 6.18608C230.448 6.18608 231.262 6.38139 231.96 6.77202C232.659 7.15672 233.2 7.73082 233.585 8.49432C233.97 9.25781 234.162 10.2018 234.162 11.3263V20H231.507V11.646C231.507 10.6576 231.25 9.88518 230.735 9.32884C230.22 8.76657 229.513 8.48544 228.613 8.48544C227.998 8.48544 227.45 8.61861 226.971 8.88494C226.497 9.15128 226.122 9.5419 225.843 10.0568C225.571 10.5658 225.435 11.1813 225.435 11.9034ZM243.439 25.3977C242.356 25.3977 241.424 25.2557 240.643 24.9716C239.867 24.6875 239.234 24.3117 238.743 23.8441C238.252 23.3765 237.885 22.8646 237.642 22.3082L239.924 21.3672C240.083 21.6276 240.297 21.9028 240.563 22.1928C240.835 22.4888 241.202 22.7403 241.664 22.9474C242.131 23.1546 242.732 23.2582 243.466 23.2582C244.472 23.2582 245.304 23.0125 245.961 22.5213C246.618 22.036 246.946 21.2607 246.946 20.1953V17.5142H246.777C246.618 17.8042 246.387 18.1268 246.085 18.4819C245.789 18.837 245.381 19.1448 244.86 19.4052C244.339 19.6656 243.661 19.7958 242.827 19.7958C241.75 19.7958 240.779 19.5443 239.915 19.0412C239.057 18.5322 238.376 17.7835 237.873 16.7951C237.376 15.8008 237.127 14.5786 237.127 13.1286C237.127 11.6785 237.373 10.4356 237.864 9.39986C238.361 8.36411 239.042 7.57102 239.906 7.0206C240.77 6.46425 241.75 6.18608 242.844 6.18608C243.691 6.18608 244.374 6.32812 244.895 6.61222C245.416 6.89039 245.821 7.21591 246.112 7.58878C246.407 7.96165 246.635 8.29013 246.795 8.57422H246.99V6.36364H249.592V20.3018C249.592 21.4737 249.319 22.4355 248.775 23.1871C248.23 23.9388 247.493 24.4951 246.564 24.8562C245.641 25.2172 244.599 25.3977 243.439 25.3977ZM243.413 17.5941C244.176 17.5941 244.821 17.4165 245.348 17.0614C245.881 16.7004 246.283 16.1855 246.555 15.5167C246.834 14.842 246.973 14.0341 246.973 13.093C246.973 12.1757 246.837 11.3678 246.564 10.6694C246.292 9.971 245.893 9.42649 245.366 9.03587C244.839 8.63932 244.188 8.44105 243.413 8.44105C242.614 8.44105 241.948 8.6482 241.415 9.0625C240.882 9.47088 240.48 10.0272 240.208 10.7315C239.941 11.4358 239.808 12.223 239.808 13.093C239.808 13.9867 239.944 14.771 240.217 15.4457C240.489 16.1204 240.891 16.6471 241.424 17.0259C241.963 17.4047 242.625 17.5941 243.413 17.5941ZM266.258 6.36364V8.49432H258.552V6.36364H266.258ZM260.665 20V4.78338C260.665 3.93111 260.851 3.22384 261.224 2.66158C261.597 2.09339 262.091 1.67022 262.706 1.39205C263.322 1.10795 263.991 0.965908 264.713 0.965908C265.245 0.965908 265.701 1.0103 266.08 1.09908C266.459 1.18194 266.74 1.25888 266.923 1.3299L266.302 3.47834C266.178 3.44283 266.018 3.4014 265.823 3.35405C265.627 3.30078 265.39 3.27415 265.112 3.27415C264.467 3.27415 264.006 3.43395 263.727 3.75355C263.455 4.07315 263.319 4.5348 263.319 5.13849V20H260.665ZM274.203 20.2752C272.925 20.2752 271.809 19.9822 270.856 19.3963C269.903 18.8104 269.164 17.9906 268.637 16.9371C268.11 15.8836 267.847 14.6526 267.847 13.244C267.847 11.8294 268.11 10.5924 268.637 9.53303C269.164 8.4736 269.903 7.65092 270.856 7.06499C271.809 6.47905 272.925 6.18608 274.203 6.18608C275.482 6.18608 276.597 6.47905 277.55 7.06499C278.503 7.65092 279.243 8.4736 279.77 9.53303C280.296 10.5924 280.56 11.8294 280.56 13.244C280.56 14.6526 280.296 15.8836 279.77 16.9371C279.243 17.9906 278.503 18.8104 277.55 19.3963C276.597 19.9822 275.482 20.2752 274.203 20.2752ZM274.212 18.0469C275.041 18.0469 275.727 17.8279 276.272 17.3899C276.816 16.9519 277.219 16.369 277.479 15.641C277.745 14.913 277.879 14.111 277.879 13.2351C277.879 12.3651 277.745 11.5661 277.479 10.8381C277.219 10.1042 276.816 9.51527 276.272 9.07138C275.727 8.62749 275.041 8.40554 274.212 8.40554C273.378 8.40554 272.685 8.62749 272.135 9.07138C271.59 9.51527 271.185 10.1042 270.918 10.8381C270.658 11.5661 270.528 12.3651 270.528 13.2351C270.528 14.111 270.658 14.913 270.918 15.641C271.185 16.369 271.59 16.9519 272.135 17.3899C272.685 17.8279 273.378 18.0469 274.212 18.0469ZM283.523 20V6.36364H286.088V8.52983H286.23C286.479 7.79593 286.917 7.21887 287.544 6.79865C288.178 6.37251 288.894 6.15945 289.693 6.15945C289.859 6.15945 290.054 6.16536 290.279 6.1772C290.51 6.18904 290.69 6.20383 290.82 6.22159V8.76065C290.714 8.73106 290.524 8.69851 290.252 8.663C289.98 8.62157 289.708 8.60085 289.435 8.60085C288.808 8.60085 288.249 8.73402 287.757 9.00035C287.272 9.26077 286.887 9.62476 286.603 10.0923C286.319 10.554 286.177 11.0807 286.177 11.6726V20H283.523ZM299.734 20V6.36364H302.388V20H299.734ZM301.074 4.25959C300.613 4.25959 300.216 4.1057 299.885 3.79794C299.559 3.48426 299.396 3.11139 299.396 2.67933C299.396 2.24136 299.559 1.86849 299.885 1.56072C300.216 1.24704 300.613 1.0902 301.074 1.0902C301.536 1.0902 301.929 1.24704 302.255 1.56072C302.586 1.86849 302.752 2.24136 302.752 2.67933C302.752 3.11139 302.586 3.48426 302.255 3.79794C301.929 4.1057 301.536 4.25959 301.074 4.25959ZM308.614 11.9034V20H305.959V6.36364H308.507V8.5831H308.676C308.99 7.86103 309.481 7.28101 310.15 6.84304C310.824 6.40507 311.674 6.18608 312.698 6.18608C313.627 6.18608 314.441 6.38139 315.139 6.77202C315.837 7.15672 316.379 7.73082 316.764 8.49432C317.148 9.25781 317.341 10.2018 317.341 11.3263V20H314.686V11.646C314.686 10.6576 314.429 9.88518 313.914 9.32884C313.399 8.76657 312.692 8.48544 311.792 8.48544C311.176 8.48544 310.629 8.61861 310.15 8.88494C309.676 9.15128 309.3 9.5419 309.022 10.0568C308.75 10.5658 308.614 11.1813 308.614 11.9034ZM331.485 20.3018C330.621 20.3018 329.84 20.142 329.142 19.8224C328.443 19.4969 327.89 19.0264 327.481 18.4109C327.079 17.7953 326.878 17.0407 326.878 16.147C326.878 15.3776 327.026 14.7443 327.322 14.2472C327.617 13.75 328.017 13.3564 328.52 13.0664C329.023 12.7764 329.585 12.5574 330.207 12.4094C330.828 12.2615 331.462 12.149 332.107 12.0721C332.923 11.9774 333.586 11.9004 334.095 11.8413C334.604 11.7762 334.974 11.6726 335.205 11.5305C335.436 11.3885 335.551 11.1577 335.551 10.8381V10.7759C335.551 10.0006 335.332 9.39986 334.894 8.97372C334.462 8.54758 333.817 8.33452 332.959 8.33452C332.065 8.33452 331.361 8.53279 330.846 8.92933C330.337 9.31996 329.985 9.75497 329.79 10.2344L327.295 9.66619C327.591 8.83759 328.023 8.1688 328.591 7.6598C329.165 7.14489 329.825 6.77202 330.571 6.54119C331.317 6.30445 332.101 6.18608 332.923 6.18608C333.468 6.18608 334.045 6.25118 334.655 6.38139C335.27 6.50568 335.844 6.73651 336.377 7.07386C336.916 7.41122 337.356 7.89358 337.7 8.52095C338.043 9.1424 338.215 9.95028 338.215 10.9446V20H335.622V18.1357H335.516C335.344 18.4789 335.087 18.8163 334.743 19.1477C334.4 19.4792 333.959 19.7544 333.421 19.9734C332.882 20.1924 332.237 20.3018 331.485 20.3018ZM332.062 18.1712C332.796 18.1712 333.424 18.0262 333.944 17.7362C334.471 17.4461 334.871 17.0674 335.143 16.5998C335.421 16.1263 335.56 15.6203 335.56 15.0817V13.3239C335.465 13.4186 335.282 13.5073 335.01 13.5902C334.743 13.6671 334.439 13.7352 334.095 13.7944C333.752 13.8477 333.418 13.898 333.092 13.9453C332.767 13.9867 332.494 14.0223 332.275 14.0518C331.76 14.117 331.29 14.2264 330.864 14.3803C330.444 14.5342 330.106 14.7562 329.852 15.0462C329.603 15.3303 329.479 15.709 329.479 16.1825C329.479 16.8395 329.722 17.3366 330.207 17.674C330.692 18.0054 331.311 18.1712 332.062 18.1712ZM7.52841 55.2752C6.20857 55.2752 5.07221 54.9763 4.11932 54.3786C3.17235 53.7749 2.44437 52.9433 1.93537 51.8839C1.42637 50.8245 1.17188 49.6112 1.17188 48.244C1.17188 46.859 1.43229 45.6368 1.95312 44.5774C2.47396 43.5121 3.20786 42.6805 4.15483 42.0827C5.1018 41.485 6.21745 41.1861 7.50178 41.1861C8.53752 41.1861 9.46082 41.3784 10.2717 41.7631C11.0825 42.1419 11.7365 42.6746 12.2337 43.3612C12.7367 44.0477 13.0356 44.8497 13.1303 45.767H10.5469C10.4048 45.1278 10.0793 44.5774 9.57031 44.1158C9.06723 43.6541 8.39252 43.4233 7.54616 43.4233C6.80635 43.4233 6.15826 43.6186 5.60192 44.0092C5.05149 44.3939 4.6224 44.9444 4.31463 45.6605C4.00687 46.3707 3.85298 47.2112 3.85298 48.1818C3.85298 49.1761 4.00391 50.0343 4.30575 50.7564C4.6076 51.4785 5.03374 52.0378 5.58416 52.4343C6.14051 52.8308 6.79451 53.0291 7.54616 53.0291C8.04924 53.0291 8.50497 52.9374 8.91335 52.7539C9.32765 52.5645 9.67389 52.2952 9.95206 51.946C10.2362 51.5968 10.4344 51.1766 10.5469 50.6854H13.1303C13.0356 51.5672 12.7486 52.3544 12.2692 53.0469C11.7898 53.7393 11.1476 54.2839 10.3427 54.6804C9.54368 55.0769 8.60559 55.2752 7.52841 55.2752ZM19.9374 55.3018C19.0733 55.3018 18.2921 55.142 17.5937 54.8224C16.8953 54.4969 16.3419 54.0264 15.9335 53.4109C15.531 52.7953 15.3298 52.0407 15.3298 51.147C15.3298 50.3776 15.4778 49.7443 15.7737 49.2472C16.0696 48.75 16.4691 48.3564 16.9722 48.0664C17.4753 47.7764 18.0376 47.5574 18.659 47.4094C19.2805 47.2615 19.9137 47.149 20.5589 47.0721C21.3756 46.9774 22.0385 46.9004 22.5475 46.8413C23.0565 46.7762 23.4264 46.6726 23.6572 46.5305C23.8881 46.3885 24.0035 46.1577 24.0035 45.8381V45.7759C24.0035 45.0006 23.7845 44.3999 23.3465 43.9737C22.9144 43.5476 22.2693 43.3345 21.4111 43.3345C20.5174 43.3345 19.8131 43.5328 19.2982 43.9293C18.7892 44.32 18.4371 44.755 18.2417 45.2344L15.7471 44.6662C16.043 43.8376 16.4751 43.1688 17.0432 42.6598C17.6173 42.1449 18.2773 41.772 19.023 41.5412C19.7687 41.3045 20.5529 41.1861 21.3756 41.1861C21.9201 41.1861 22.4972 41.2512 23.1068 41.3814C23.7223 41.5057 24.2964 41.7365 24.8291 42.0739C25.3677 42.4112 25.8086 42.8936 26.1519 43.521C26.4952 44.1424 26.6668 44.9503 26.6668 45.9446V55H24.0745V53.1357H23.968C23.7963 53.4789 23.5389 53.8163 23.1956 54.1477C22.8523 54.4792 22.4114 54.7544 21.8728 54.9734C21.3342 55.1924 20.6891 55.3018 19.9374 55.3018ZM20.5145 53.1712C21.2484 53.1712 21.8757 53.0262 22.3966 52.7362C22.9233 52.4461 23.3228 52.0674 23.5951 51.5998C23.8733 51.1263 24.0123 50.6203 24.0123 50.0817V48.3239C23.9176 48.4186 23.7342 48.5073 23.4619 48.5902C23.1956 48.6671 22.8908 48.7352 22.5475 48.7944C22.2042 48.8477 21.8698 48.898 21.5443 48.9453C21.2188 48.9867 20.9465 49.0223 20.7275 49.0518C20.2126 49.117 19.7421 49.2264 19.316 49.3803C18.8957 49.5342 18.5584 49.7562 18.3039 50.0462C18.0553 50.3303 17.931 50.709 17.931 51.1825C17.931 51.8395 18.1737 52.3366 18.659 52.674C19.1443 53.0054 19.7628 53.1712 20.5145 53.1712ZM32.8569 46.9034V55H30.2024V41.3636H32.7504V43.5831H32.919C33.2327 42.861 33.724 42.281 34.3928 41.843C35.0675 41.4051 35.9168 41.1861 36.9407 41.1861C37.8699 41.1861 38.6837 41.3814 39.3821 41.772C40.0805 42.1567 40.622 42.7308 41.0067 43.4943C41.3915 44.2578 41.5838 45.2018 41.5838 46.3263V55H38.9293V46.646C38.9293 45.6576 38.6719 44.8852 38.157 44.3288C37.642 43.7666 36.9348 43.4854 36.0352 43.4854C35.4196 43.4854 34.8722 43.6186 34.3928 43.8849C33.9193 44.1513 33.5434 44.5419 33.2653 45.0568C32.993 45.5658 32.8569 46.1813 32.8569 46.9034ZM50.2486 55.2663C49.1477 55.2663 48.1652 54.9852 47.3011 54.4229C46.4429 53.8548 45.7682 53.0469 45.277 51.9993C44.7917 50.9458 44.549 49.6822 44.549 48.2085C44.549 46.7347 44.7946 45.4741 45.2859 44.4265C45.783 43.3789 46.4637 42.5769 47.3278 42.0206C48.1919 41.4643 49.1714 41.1861 50.2663 41.1861C51.1127 41.1861 51.7933 41.3281 52.3082 41.6122C52.8291 41.8904 53.2315 42.2159 53.5156 42.5888C53.8056 42.9616 54.0305 43.2901 54.1903 43.5742H54.3501V36.8182H57.0046V55H54.4123V52.8782H54.1903C54.0305 53.1682 53.7997 53.4996 53.4979 53.8725C53.2019 54.2454 52.7936 54.5709 52.2727 54.8491C51.7519 55.1272 51.0772 55.2663 50.2486 55.2663ZM50.8345 53.0025C51.598 53.0025 52.2431 52.8013 52.7699 52.3988C53.3026 51.9904 53.705 51.4252 53.9773 50.7031C54.2554 49.9811 54.3945 49.1406 54.3945 48.1818C54.3945 47.2348 54.2584 46.4062 53.9862 45.696C53.7139 44.9858 53.3144 44.4324 52.7876 44.0359C52.2609 43.6393 51.6098 43.4411 50.8345 43.4411C50.0355 43.4411 49.3697 43.6482 48.837 44.0625C48.3043 44.4768 47.9019 45.042 47.6296 45.7582C47.3633 46.4743 47.2301 47.2822 47.2301 48.1818C47.2301 49.0933 47.3662 49.913 47.6385 50.641C47.9107 51.369 48.3132 51.946 48.8459 52.3722C49.3845 52.7924 50.0473 53.0025 50.8345 53.0025ZM60.7932 55V41.3636H63.4477V55H60.7932ZM62.1338 39.2596C61.6721 39.2596 61.2756 39.1057 60.9442 38.7979C60.6186 38.4843 60.4559 38.1114 60.4559 37.6793C60.4559 37.2414 60.6186 36.8685 60.9442 36.5607C61.2756 36.247 61.6721 36.0902 62.1338 36.0902C62.5954 36.0902 62.989 36.247 63.3145 36.5607C63.646 36.8685 63.8117 37.2414 63.8117 37.6793C63.8117 38.1114 63.646 38.4843 63.3145 38.7979C62.989 39.1057 62.5954 39.2596 62.1338 39.2596ZM72.1236 55.2663C71.0227 55.2663 70.0402 54.9852 69.1761 54.4229C68.3179 53.8548 67.6432 53.0469 67.152 51.9993C66.6667 50.9458 66.424 49.6822 66.424 48.2085C66.424 46.7347 66.6696 45.4741 67.1609 44.4265C67.658 43.3789 68.3387 42.5769 69.2028 42.0206C70.0669 41.4643 71.0464 41.1861 72.1413 41.1861C72.9877 41.1861 73.6683 41.3281 74.1832 41.6122C74.7041 41.8904 75.1065 42.2159 75.3906 42.5888C75.6806 42.9616 75.9055 43.2901 76.0653 43.5742H76.2251V36.8182H78.8796V55H76.2873V52.8782H76.0653C75.9055 53.1682 75.6747 53.4996 75.3729 53.8725C75.0769 54.2454 74.6686 54.5709 74.1477 54.8491C73.6269 55.1272 72.9522 55.2663 72.1236 55.2663ZM72.7095 53.0025C73.473 53.0025 74.1181 52.8013 74.6449 52.3988C75.1776 51.9904 75.58 51.4252 75.8523 50.7031C76.1304 49.9811 76.2695 49.1406 76.2695 48.1818C76.2695 47.2348 76.1334 46.4062 75.8612 45.696C75.5889 44.9858 75.1894 44.4324 74.6626 44.0359C74.1359 43.6393 73.4848 43.4411 72.7095 43.4411C71.9105 43.4411 71.2447 43.6482 70.712 44.0625C70.1793 44.4768 69.7769 45.042 69.5046 45.7582C69.2383 46.4743 69.1051 47.2822 69.1051 48.1818C69.1051 49.0933 69.2412 49.913 69.5135 50.641C69.7857 51.369 70.1882 51.946 70.7209 52.3722C71.2595 52.7924 71.9223 53.0025 72.7095 53.0025ZM86.6366 55.3018C85.7725 55.3018 84.9913 55.142 84.2929 54.8224C83.5945 54.4969 83.0411 54.0264 82.6327 53.4109C82.2303 52.7953 82.029 52.0407 82.029 51.147C82.029 50.3776 82.177 49.7443 82.4729 49.2472C82.7689 48.75 83.1684 48.3564 83.6714 48.0664C84.1745 47.7764 84.7368 47.5574 85.3582 47.4094C85.9797 47.2615 86.613 47.149 87.2581 47.0721C88.0748 46.9774 88.7377 46.9004 89.2467 46.8413C89.7557 46.7762 90.1256 46.6726 90.3564 46.5305C90.5873 46.3885 90.7027 46.1577 90.7027 45.8381V45.7759C90.7027 45.0006 90.4837 44.3999 90.0457 43.9737C89.6137 43.5476 88.9685 43.3345 88.1104 43.3345C87.2166 43.3345 86.5123 43.5328 85.9974 43.9293C85.4884 44.32 85.1363 44.755 84.941 45.2344L82.4463 44.6662C82.7422 43.8376 83.1743 43.1688 83.7425 42.6598C84.3166 42.1449 84.9765 41.772 85.7222 41.5412C86.468 41.3045 87.2522 41.1861 88.0748 41.1861C88.6193 41.1861 89.1964 41.2512 89.806 41.3814C90.4215 41.5057 90.9956 41.7365 91.5283 42.0739C92.0669 42.4112 92.5078 42.8936 92.8511 43.521C93.1944 44.1424 93.366 44.9503 93.366 45.9446V55H90.7737V53.1357H90.6672C90.4955 53.4789 90.2381 53.8163 89.8948 54.1477C89.5515 54.4792 89.1106 54.7544 88.572 54.9734C88.0334 55.1924 87.3883 55.3018 86.6366 55.3018ZM87.2137 53.1712C87.9476 53.1712 88.575 53.0262 89.0958 52.7362C89.6225 52.4461 90.022 52.0674 90.2943 51.5998C90.5725 51.1263 90.7116 50.6203 90.7116 50.0817V48.3239C90.6169 48.4186 90.4334 48.5073 90.1611 48.5902C89.8948 48.6671 89.59 48.7352 89.2467 48.7944C88.9034 48.8477 88.569 48.898 88.2435 48.9453C87.918 48.9867 87.6457 49.0223 87.4268 49.0518C86.9118 49.117 86.4413 49.2264 86.0152 49.3803C85.595 49.5342 85.2576 49.7562 85.0031 50.0462C84.7545 50.3303 84.6302 50.709 84.6302 51.1825C84.6302 51.8395 84.8729 52.3366 85.3582 52.674C85.8435 53.0054 86.462 53.1712 87.2137 53.1712ZM103.267 41.3636V43.4943H95.8185V41.3636H103.267ZM97.8161 38.0966H100.471V50.9961C100.471 51.511 100.547 51.8987 100.701 52.1591C100.855 52.4136 101.054 52.5882 101.296 52.6829C101.545 52.7717 101.814 52.8161 102.104 52.8161C102.317 52.8161 102.504 52.8013 102.663 52.7717C102.823 52.7421 102.947 52.7184 103.036 52.7006L103.516 54.8935C103.362 54.9527 103.143 55.0118 102.859 55.071C102.575 55.1361 102.219 55.1716 101.793 55.1776C101.095 55.1894 100.444 55.0651 99.8402 54.8047C99.2365 54.5443 98.7482 54.1418 98.3754 53.5973C98.0025 53.0528 97.8161 52.3692 97.8161 51.5465V38.0966ZM111.934 55.2752C110.591 55.2752 109.433 54.9882 108.463 54.4141C107.498 53.834 106.752 53.0202 106.226 51.9727C105.705 50.9192 105.444 49.6851 105.444 48.2706C105.444 46.8738 105.705 45.6428 106.226 44.5774C106.752 43.5121 107.486 42.6805 108.427 42.0827C109.374 41.485 110.481 41.1861 111.748 41.1861C112.517 41.1861 113.263 41.3133 113.985 41.5678C114.707 41.8223 115.355 42.2218 115.929 42.7663C116.503 43.3108 116.956 44.0181 117.287 44.8881C117.619 45.7522 117.785 46.8028 117.785 48.0398V48.9808H106.945V46.9922H115.183C115.183 46.2938 115.041 45.6753 114.757 45.1367C114.473 44.5922 114.074 44.1631 113.559 43.8494C113.05 43.5357 112.452 43.3789 111.765 43.3789C111.02 43.3789 110.369 43.5624 109.812 43.9293C109.262 44.2904 108.836 44.7638 108.534 45.3498C108.238 45.9298 108.09 46.5601 108.09 47.2408V48.7944C108.09 49.7058 108.25 50.4812 108.569 51.1204C108.895 51.7596 109.348 52.2479 109.928 52.5852C110.508 52.9167 111.185 53.0824 111.961 53.0824C112.464 53.0824 112.922 53.0114 113.337 52.8693C113.751 52.7214 114.109 52.5024 114.411 52.2124C114.713 51.9223 114.944 51.5643 115.103 51.1381L117.616 51.5909C117.415 52.3307 117.054 52.9788 116.533 53.5352C116.018 54.0856 115.37 54.5147 114.589 54.8224C113.813 55.1243 112.928 55.2752 111.934 55.2752ZM122.479 55.1687C121.993 55.1687 121.576 54.997 121.227 54.6538C120.878 54.3046 120.703 53.8844 120.703 53.3931C120.703 52.9078 120.878 52.4935 121.227 52.1502C121.576 51.801 121.993 51.6264 122.479 51.6264C122.964 51.6264 123.381 51.801 123.73 52.1502C124.08 52.4935 124.254 52.9078 124.254 53.3931C124.254 53.7186 124.171 54.0175 124.006 54.2898C123.846 54.5561 123.633 54.7692 123.366 54.929C123.1 55.0888 122.804 55.1687 122.479 55.1687ZM122.479 45.2433C121.993 45.2433 121.576 45.0687 121.227 44.7195C120.878 44.3703 120.703 43.953 120.703 43.4677C120.703 42.9824 120.878 42.5681 121.227 42.2248C121.576 41.8756 121.993 41.701 122.479 41.701C122.964 41.701 123.381 41.8756 123.73 42.2248C124.08 42.5681 124.254 42.9824 124.254 43.4677C124.254 43.7932 124.171 44.0921 124.006 44.3643C123.846 44.6307 123.633 44.8437 123.366 45.0036C123.1 45.1634 122.804 45.2433 122.479 45.2433Z" fill="#F7F8F8"/>
</svg>
