<svg width="166" height="21" viewBox="0 0 166 21" fill="none" xmlns="http://www.w3.org/2000/svg">
<path d="M4.53835 16L0.37642 1.45455H3.7358L6.14347 11.5611H6.2642L8.92045 1.45455H11.7969L14.446 11.5824H14.5739L16.9815 1.45455H20.3409L16.179 16H13.1818L10.4119 6.49006H10.2983L7.53551 16H4.53835ZM25.6871 16.2131C24.5839 16.2131 23.6299 15.9787 22.8249 15.5099C22.0247 15.0365 21.4068 14.3783 20.9712 13.5355C20.5356 12.688 20.3178 11.7055 20.3178 10.5881C20.3178 9.46117 20.5356 8.47633 20.9712 7.63352C21.4068 6.78598 22.0247 6.12784 22.8249 5.65909C23.6299 5.18561 24.5839 4.94886 25.6871 4.94886C26.7904 4.94886 27.7421 5.18561 28.5423 5.65909C29.3472 6.12784 29.9674 6.78598 30.4031 7.63352C30.8387 8.47633 31.0565 9.46117 31.0565 10.5881C31.0565 11.7055 30.8387 12.688 30.4031 13.5355C29.9674 14.3783 29.3472 15.0365 28.5423 15.5099C27.7421 15.9787 26.7904 16.2131 25.6871 16.2131ZM25.7013 13.8693C26.2032 13.8693 26.6223 13.7273 26.9585 13.4432C27.2946 13.1544 27.5479 12.7614 27.7184 12.2642C27.8936 11.767 27.9812 11.2012 27.9812 10.5668C27.9812 9.93229 27.8936 9.36648 27.7184 8.86932C27.5479 8.37216 27.2946 7.97917 26.9585 7.69034C26.6223 7.40151 26.2032 7.2571 25.7013 7.2571C25.1947 7.2571 24.7686 7.40151 24.4229 7.69034C24.082 7.97917 23.824 8.37216 23.6488 8.86932C23.4783 9.36648 23.3931 9.93229 23.3931 10.5668C23.3931 11.2012 23.4783 11.767 23.6488 12.2642C23.824 12.7614 24.082 13.1544 24.4229 13.4432C24.7686 13.7273 25.1947 13.8693 25.7013 13.8693ZM33.0238 16V5.09091H35.957V6.99432H36.0707C36.2695 6.31723 36.6033 5.80587 37.0721 5.46023C37.5408 5.10985 38.0806 4.93466 38.6914 4.93466C38.8429 4.93466 39.0063 4.94413 39.1815 4.96307C39.3567 4.98201 39.5105 5.00805 39.6431 5.04119V7.72585C39.5011 7.68324 39.3046 7.64536 39.0536 7.61222C38.8027 7.57907 38.573 7.5625 38.3647 7.5625C37.9196 7.5625 37.5219 7.65956 37.1715 7.85369C36.8259 8.04309 36.5513 8.30824 36.3477 8.64915C36.1488 8.99006 36.0494 9.38305 36.0494 9.82812V16H33.0238ZM43.9489 12.8608L43.956 9.23153H44.3963L47.8906 5.09091H51.3636L46.669 10.5739H45.9517L43.9489 12.8608ZM41.2074 16V1.45455H44.233V16H41.2074ZM48.0256 16L44.8153 11.2486L46.8324 9.1108L51.5696 16H48.0256ZM62.4485 16.2131C61.3263 16.2131 60.3604 15.9858 59.5508 15.5312C58.7459 15.072 58.1256 14.4233 57.69 13.5852C57.2544 12.7424 57.0366 11.7457 57.0366 10.5952C57.0366 9.47301 57.2544 8.48816 57.69 7.64062C58.1256 6.79309 58.7388 6.13258 59.5295 5.65909C60.3249 5.18561 61.2577 4.94886 62.3278 4.94886C63.0475 4.94886 63.7174 5.06487 64.3377 5.29688C64.9627 5.52415 65.5072 5.86742 65.9712 6.3267C66.44 6.78598 66.8046 7.36364 67.065 8.05966C67.3254 8.75095 67.4556 9.56061 67.4556 10.4886V11.3196H58.244V9.4446H64.6076C64.6076 9.009 64.5129 8.62311 64.3235 8.28693C64.1341 7.95076 63.8713 7.68797 63.5352 7.49858C63.2037 7.30445 62.8178 7.20739 62.3775 7.20739C61.9182 7.20739 61.511 7.31392 61.1559 7.52699C60.8055 7.73532 60.5309 8.01705 60.332 8.37216C60.1332 8.72254 60.0314 9.11316 60.0266 9.54403V11.3267C60.0266 11.8665 60.1261 12.3329 60.3249 12.7259C60.5285 13.1188 60.815 13.4219 61.1843 13.6349C61.5536 13.848 61.9916 13.9545 62.4982 13.9545C62.8344 13.9545 63.1422 13.9072 63.4215 13.8125C63.7009 13.7178 63.94 13.5758 64.1388 13.3864C64.3377 13.197 64.4892 12.965 64.5934 12.6903L67.3917 12.875C67.2496 13.5473 66.9585 14.1345 66.5181 14.6364C66.0825 15.1335 65.5191 15.5218 64.8278 15.8011C64.1412 16.0758 63.3481 16.2131 62.4485 16.2131ZM71.7631 5.09091L73.766 8.90483L75.8185 5.09091H78.9222L75.7617 10.5455L79.0075 16H75.918L73.766 12.2287L71.6495 16H68.5245L71.7631 10.5455L68.6381 5.09091H71.7631ZM80.7191 20.0909V5.09091H83.7021V6.9233H83.837C83.9696 6.62973 84.1613 6.33144 84.4123 6.02841C84.668 5.72064 84.9994 5.46496 85.4066 5.26136C85.8185 5.05303 86.3299 4.94886 86.9407 4.94886C87.7362 4.94886 88.4701 5.1572 89.1424 5.57386C89.8147 5.9858 90.3522 6.60843 90.7546 7.44176C91.1571 8.27036 91.3583 9.30966 91.3583 10.5597C91.3583 11.7765 91.1618 12.804 90.7688 13.642C90.3806 14.4754 89.8503 15.1075 89.1779 15.5384C88.5103 15.9645 87.7622 16.1776 86.9336 16.1776C86.3465 16.1776 85.8469 16.0805 85.435 15.8864C85.0278 15.6922 84.694 15.4484 84.4336 15.1548C84.1732 14.8565 83.9743 14.5559 83.837 14.2528H83.7447V20.0909H80.7191ZM83.6808 10.5455C83.6808 11.1941 83.7707 11.7599 83.9506 12.2429C84.1306 12.7259 84.391 13.1023 84.7319 13.3722C85.0728 13.6373 85.4871 13.7699 85.9748 13.7699C86.4672 13.7699 86.8839 13.6349 87.2248 13.3651C87.5657 13.0904 87.8237 12.7116 87.9989 12.2287C88.1789 11.741 88.2688 11.1799 88.2688 10.5455C88.2688 9.91572 88.1812 9.36174 88.006 8.88352C87.8308 8.4053 87.5728 8.03125 87.2319 7.76136C86.891 7.49148 86.4719 7.35653 85.9748 7.35653C85.4824 7.35653 85.0657 7.48674 84.7248 7.74716C84.3886 8.00758 84.1306 8.37689 83.9506 8.85511C83.7707 9.33333 83.6808 9.89678 83.6808 10.5455ZM98.3469 16.2131C97.2248 16.2131 96.2589 15.9858 95.4492 15.5312C94.6443 15.072 94.024 14.4233 93.5884 13.5852C93.1528 12.7424 92.935 11.7457 92.935 10.5952C92.935 9.47301 93.1528 8.48816 93.5884 7.64062C94.024 6.79309 94.6372 6.13258 95.4279 5.65909C96.2234 5.18561 97.1561 4.94886 98.2262 4.94886C98.9459 4.94886 99.6159 5.06487 100.236 5.29688C100.861 5.52415 101.406 5.86742 101.87 6.3267C102.338 6.78598 102.703 7.36364 102.963 8.05966C103.224 8.75095 103.354 9.56061 103.354 10.4886V11.3196H94.1424V9.4446H100.506C100.506 9.009 100.411 8.62311 100.222 8.28693C100.033 7.95076 99.7698 7.68797 99.4336 7.49858C99.1022 7.30445 98.7163 7.20739 98.2759 7.20739C97.8166 7.20739 97.4094 7.31392 97.0543 7.52699C96.704 7.73532 96.4293 8.01705 96.2305 8.37216C96.0316 8.72254 95.9298 9.11316 95.9251 9.54403V11.3267C95.9251 11.8665 96.0245 12.3329 96.2234 12.7259C96.427 13.1188 96.7134 13.4219 97.0827 13.6349C97.4521 13.848 97.89 13.9545 98.3967 13.9545C98.7328 13.9545 99.0406 13.9072 99.32 13.8125C99.5993 13.7178 99.8384 13.5758 100.037 13.3864C100.236 13.197 100.388 12.965 100.492 12.6903L103.29 12.875C103.148 13.5473 102.857 14.1345 102.417 14.6364C101.981 15.1335 101.417 15.5218 100.726 15.8011C100.04 16.0758 99.2466 16.2131 98.3469 16.2131ZM105.328 16V5.09091H108.262V6.99432H108.375C108.574 6.31723 108.908 5.80587 109.377 5.46023C109.846 5.10985 110.385 4.93466 110.996 4.93466C111.148 4.93466 111.311 4.94413 111.486 4.96307C111.661 4.98201 111.815 5.00805 111.948 5.04119V7.72585C111.806 7.68324 111.609 7.64536 111.358 7.61222C111.107 7.57907 110.878 7.5625 110.669 7.5625C110.224 7.5625 109.827 7.65956 109.476 7.85369C109.131 8.04309 108.856 8.30824 108.652 8.64915C108.453 8.99006 108.354 9.38305 108.354 9.82812V16H105.328ZM113.512 16V5.09091H116.538V16H113.512ZM115.032 3.68466C114.582 3.68466 114.196 3.53551 113.874 3.23722C113.557 2.93419 113.398 2.57197 113.398 2.15057C113.398 1.7339 113.557 1.37642 113.874 1.07812C114.196 0.775094 114.582 0.623579 115.032 0.623579C115.482 0.623579 115.865 0.775094 116.183 1.07812C116.504 1.37642 116.665 1.7339 116.665 2.15057C116.665 2.57197 116.504 2.93419 116.183 3.23722C115.865 3.53551 115.482 3.68466 115.032 3.68466ZM123.933 16.2131C122.811 16.2131 121.845 15.9858 121.035 15.5312C120.23 15.072 119.61 14.4233 119.174 13.5852C118.739 12.7424 118.521 11.7457 118.521 10.5952C118.521 9.47301 118.739 8.48816 119.174 7.64062C119.61 6.79309 120.223 6.13258 121.014 5.65909C121.809 5.18561 122.742 4.94886 123.812 4.94886C124.532 4.94886 125.202 5.06487 125.822 5.29688C126.447 5.52415 126.992 5.86742 127.456 6.3267C127.924 6.78598 128.289 7.36364 128.549 8.05966C128.81 8.75095 128.94 9.56061 128.94 10.4886V11.3196H119.728V9.4446H126.092C126.092 9.009 125.997 8.62311 125.808 8.28693C125.618 7.95076 125.356 7.68797 125.02 7.49858C124.688 7.30445 124.302 7.20739 123.862 7.20739C123.403 7.20739 122.995 7.31392 122.64 7.52699C122.29 7.73532 122.015 8.01705 121.816 8.37216C121.618 8.72254 121.516 9.11316 121.511 9.54403V11.3267C121.511 11.8665 121.61 12.3329 121.809 12.7259C122.013 13.1188 122.299 13.4219 122.669 13.6349C123.038 13.848 123.476 13.9545 123.983 13.9545C124.319 13.9545 124.627 13.9072 124.906 13.8125C125.185 13.7178 125.424 13.5758 125.623 13.3864C125.822 13.197 125.974 12.965 126.078 12.6903L128.876 12.875C128.734 13.5473 128.443 14.1345 128.002 14.6364C127.567 15.1335 127.003 15.5218 126.312 15.8011C125.626 16.0758 124.833 16.2131 123.933 16.2131ZM133.94 9.69318V16H130.914V5.09091H133.798V7.01562H133.926C134.167 6.38116 134.572 5.87926 135.14 5.50994C135.708 5.13589 136.397 4.94886 137.207 4.94886C137.965 4.94886 138.625 5.11458 139.189 5.44602C139.752 5.77746 140.19 6.25095 140.502 6.86648C140.815 7.47727 140.971 8.20644 140.971 9.05398V16H137.946V9.59375C137.95 8.92614 137.78 8.4053 137.434 8.03125C137.089 7.65246 136.613 7.46307 136.007 7.46307C135.6 7.46307 135.24 7.55066 134.927 7.72585C134.619 7.90104 134.378 8.15672 134.203 8.4929C134.032 8.82434 133.945 9.22443 133.94 9.69318ZM148.285 16.2131C147.167 16.2131 146.206 15.9763 145.401 15.5028C144.601 15.0246 143.986 14.3617 143.555 13.5142C143.129 12.6667 142.915 11.6913 142.915 10.5881C142.915 9.47064 143.131 8.49053 143.562 7.64773C143.997 6.80019 144.615 6.13968 145.415 5.66619C146.216 5.18797 147.167 4.94886 148.271 4.94886C149.222 4.94886 150.056 5.12169 150.771 5.46733C151.486 5.81297 152.051 6.2983 152.468 6.9233C152.885 7.5483 153.114 8.2822 153.157 9.125H150.302C150.221 8.58049 150.008 8.14252 149.663 7.81108C149.322 7.47491 148.874 7.30682 148.32 7.30682C147.852 7.30682 147.442 7.43466 147.092 7.69034C146.746 7.94129 146.476 8.30824 146.282 8.79119C146.088 9.27415 145.991 9.8589 145.991 10.5455C145.991 11.2415 146.085 11.8333 146.275 12.321C146.469 12.8087 146.741 13.1804 147.092 13.4361C147.442 13.6918 147.852 13.8196 148.32 13.8196C148.666 13.8196 148.976 13.7486 149.251 13.6065C149.53 13.4645 149.76 13.2585 149.94 12.9886C150.124 12.714 150.245 12.3849 150.302 12.0014H153.157C153.11 12.8348 152.882 13.5687 152.475 14.2031C152.073 14.8329 151.516 15.3253 150.806 15.6804C150.096 16.0355 149.255 16.2131 148.285 16.2131ZM160.066 16.2131C158.944 16.2131 157.978 15.9858 157.168 15.5312C156.363 15.072 155.743 14.4233 155.307 13.5852C154.872 12.7424 154.654 11.7457 154.654 10.5952C154.654 9.47301 154.872 8.48816 155.307 7.64062C155.743 6.79309 156.356 6.13258 157.147 5.65909C157.942 5.18561 158.875 4.94886 159.945 4.94886C160.665 4.94886 161.335 5.06487 161.955 5.29688C162.58 5.52415 163.124 5.86742 163.588 6.3267C164.057 6.78598 164.422 7.36364 164.682 8.05966C164.943 8.75095 165.073 9.56061 165.073 10.4886V11.3196H155.861V9.4446H162.225C162.225 9.009 162.13 8.62311 161.941 8.28693C161.751 7.95076 161.489 7.68797 161.152 7.49858C160.821 7.30445 160.435 7.20739 159.995 7.20739C159.535 7.20739 159.128 7.31392 158.773 7.52699C158.423 7.73532 158.148 8.01705 157.949 8.37216C157.75 8.72254 157.649 9.11316 157.644 9.54403V11.3267C157.644 11.8665 157.743 12.3329 157.942 12.7259C158.146 13.1188 158.432 13.4219 158.801 13.6349C159.171 13.848 159.609 13.9545 160.115 13.9545C160.452 13.9545 160.759 13.9072 161.039 13.8125C161.318 13.7178 161.557 13.5758 161.756 13.3864C161.955 13.197 162.106 12.965 162.211 12.6903L165.009 12.875C164.867 13.5473 164.576 14.1345 164.135 14.6364C163.7 15.1335 163.136 15.5218 162.445 15.8011C161.758 16.0758 160.965 16.2131 160.066 16.2131Z" fill="#AFAFAF"/>
</svg>
