<svg width="559" height="107" viewBox="0 0 559 107" fill="none" xmlns="http://www.w3.org/2000/svg">
<path d="M0.165838 1.36364H6.27344L15.5827 17.5636H15.9656L25.2749 1.36364H31.3825L18.4538 23.0099V37H13.0945V23.0099L0.165838 1.36364ZM43.8773 37.5394C41.3716 37.5394 39.1849 36.9652 37.3173 35.8168C35.4496 34.6683 33.9996 33.0617 32.9671 30.9968C31.9347 28.9319 31.4185 26.5191 31.4185 23.7582C31.4185 20.9857 31.9347 18.5612 32.9671 16.4847C33.9996 14.4083 35.4496 12.7958 37.3173 11.6474C39.1849 10.4989 41.3716 9.92472 43.8773 9.92472C46.383 9.92472 48.5696 10.4989 50.4373 11.6474C52.305 12.7958 53.755 14.4083 54.7874 16.4847C55.8199 18.5612 56.3361 20.9857 56.3361 23.7582C56.3361 26.5191 55.8199 28.9319 54.7874 30.9968C53.755 33.0617 52.305 34.6683 50.4373 35.8168C48.5696 36.9652 46.383 37.5394 43.8773 37.5394ZM43.8947 33.1719C45.5187 33.1719 46.8644 32.7427 47.9316 31.8842C48.9989 31.0258 49.7877 29.8832 50.2981 28.4563C50.8201 27.0295 51.0811 25.4576 51.0811 23.7408C51.0811 22.0355 50.8201 20.4695 50.2981 19.0426C49.7877 17.6042 48.9989 16.4499 47.9316 15.5799C46.8644 14.7099 45.5187 14.2749 43.8947 14.2749C42.259 14.2749 40.9018 14.7099 39.823 15.5799C38.7557 16.4499 37.9611 17.6042 37.4391 19.0426C36.9287 20.4695 36.6734 22.0355 36.6734 23.7408C36.6734 25.4576 36.9287 27.0295 37.4391 28.4563C37.9611 29.8832 38.7557 31.0258 39.823 31.8842C40.9018 32.7427 42.259 33.1719 43.8947 33.1719ZM80.0543 25.9158V10.2727H85.2745V37H80.1587V32.3714H79.8803C79.2655 33.7983 78.2794 34.9873 76.9222 35.9386C75.5765 36.8782 73.9003 37.348 71.8934 37.348C70.1766 37.348 68.6569 36.971 67.3345 36.217C66.0236 35.4513 64.9912 34.3203 64.2372 32.8239C63.4947 31.3274 63.1235 29.4772 63.1235 27.2731V10.2727H68.3263V26.6467C68.3263 28.4679 68.8309 29.918 69.8401 30.9968C70.8494 32.0756 72.1602 32.6151 73.7727 32.6151C74.7471 32.6151 75.7157 32.3714 76.6786 31.8842C77.653 31.397 78.4592 30.6604 79.0973 29.6744C79.7469 28.6883 80.0659 27.4355 80.0543 25.9158ZM93.2451 37V10.2727H98.2739V14.5185H98.5523C99.0395 13.08 99.898 11.949 101.128 11.1254C102.369 10.2901 103.772 9.87251 105.339 9.87251C105.663 9.87251 106.046 9.88411 106.487 9.90732C106.939 9.93051 107.293 9.95952 107.548 9.99432V14.9709C107.34 14.9129 106.968 14.8491 106.435 14.7795C105.901 14.6983 105.368 14.6577 104.834 14.6577C103.604 14.6577 102.508 14.9187 101.545 15.4407C100.594 15.9511 99.8399 16.6645 99.2831 17.581C98.7263 18.4858 98.4479 19.5182 98.4479 20.6783V37H93.2451ZM146.833 10.7251C146.647 9.07789 145.881 7.80185 144.536 6.89702C143.19 5.98059 141.496 5.52237 139.455 5.52237C137.993 5.52237 136.729 5.75438 135.661 6.21839C134.594 6.67081 133.765 7.29723 133.173 8.09766C132.593 8.88648 132.303 9.78551 132.303 10.7947C132.303 11.6416 132.5 12.3724 132.895 12.9872C133.301 13.602 133.829 14.1183 134.478 14.5359C135.139 14.9419 135.847 15.2841 136.601 15.5625C137.355 15.8293 138.08 16.0497 138.776 16.2237L142.256 17.1286C143.393 17.407 144.559 17.784 145.754 18.2596C146.949 18.7352 148.056 19.3616 149.077 20.1388C150.098 20.9161 150.922 21.8789 151.548 23.0273C152.186 24.1758 152.505 25.5504 152.505 27.1513C152.505 29.1697 151.983 30.962 150.939 32.5281C149.907 34.0941 148.404 35.3295 146.432 36.2344C144.472 37.1392 142.1 37.5916 139.316 37.5916C136.647 37.5916 134.339 37.1682 132.39 36.3214C130.441 35.4746 128.916 34.2739 127.814 32.7195C126.712 31.1534 126.103 29.2973 125.987 27.1513H131.381C131.485 28.4389 131.903 29.512 132.634 30.3704C133.376 31.2172 134.322 31.8494 135.47 32.267C136.63 32.6731 137.9 32.8761 139.281 32.8761C140.8 32.8761 142.152 32.6383 143.335 32.1626C144.53 31.6754 145.47 31.0026 146.154 30.1442C146.838 29.2741 147.181 28.2591 147.181 27.0991C147.181 26.0434 146.879 25.1792 146.276 24.5064C145.684 23.8336 144.878 23.2768 143.857 22.8359C142.848 22.3951 141.705 22.0065 140.429 21.6701L136.218 20.5217C133.365 19.7444 131.103 18.6018 129.432 17.0938C127.773 15.5857 126.944 13.5904 126.944 11.108C126.944 9.05469 127.501 7.26243 128.614 5.73118C129.728 4.19993 131.236 3.01089 133.138 2.16406C135.041 1.30563 137.187 0.876419 139.577 0.876419C141.989 0.876419 144.118 1.29983 145.963 2.14666C147.819 2.99349 149.28 4.15933 150.348 5.64417C151.415 7.11742 151.972 8.81108 152.018 10.7251H146.833ZM176.424 25.9158V10.2727H181.644V37H176.528V32.3714H176.25C175.635 33.7983 174.649 34.9873 173.291 35.9386C171.946 36.8782 170.27 37.348 168.263 37.348C166.546 37.348 165.026 36.971 163.704 36.217C162.393 35.4513 161.36 34.3203 160.606 32.8239C159.864 31.3274 159.493 29.4772 159.493 27.2731V10.2727H164.696V26.6467C164.696 28.4679 165.2 29.918 166.209 30.9968C167.219 32.0756 168.529 32.6151 170.142 32.6151C171.116 32.6151 172.085 32.3714 173.048 31.8842C174.022 31.397 174.828 30.6604 175.466 29.6744C176.116 28.6883 176.435 27.4355 176.424 25.9158ZM200.873 37.5394C198.286 37.5394 196.058 36.9536 194.191 35.782C192.335 34.5987 190.908 32.9689 189.91 30.8924C188.913 28.8159 188.414 26.4379 188.414 23.7582C188.414 21.0437 188.924 18.6482 189.945 16.5717C190.966 14.4837 192.404 12.8538 194.26 11.6822C196.116 10.5105 198.303 9.92472 200.82 9.92472C202.85 9.92472 204.66 10.3017 206.249 11.0558C207.839 11.7982 209.12 12.8422 210.095 14.1879C211.081 15.5335 211.667 17.1053 211.852 18.9034H206.789C206.51 17.6506 205.872 16.5717 204.875 15.6669C203.889 14.7621 202.566 14.3097 200.907 14.3097C199.457 14.3097 198.187 14.6925 197.097 15.4581C196.018 16.2121 195.177 17.291 194.574 18.6946C193.97 20.0866 193.669 21.7339 193.669 23.6364C193.669 25.5852 193.964 27.2673 194.556 28.6825C195.148 30.0978 195.983 31.194 197.062 31.9712C198.152 32.7485 199.434 33.1371 200.907 33.1371C201.893 33.1371 202.787 32.9573 203.587 32.5977C204.399 32.2264 205.078 31.6986 205.623 31.0142C206.18 30.3298 206.568 29.5062 206.789 28.5433H211.852C211.667 30.2718 211.104 31.8146 210.164 33.1719C209.225 34.5291 207.966 35.5964 206.388 36.3736C204.822 37.1508 202.984 37.5394 200.873 37.5394ZM229.654 37.5394C227.067 37.5394 224.84 36.9536 222.972 35.782C221.116 34.5987 219.69 32.9689 218.692 30.8924C217.694 28.8159 217.195 26.4379 217.195 23.7582C217.195 21.0437 217.706 18.6482 218.727 16.5717C219.748 14.4837 221.186 12.8538 223.042 11.6822C224.898 10.5105 227.085 9.92472 229.602 9.92472C231.632 9.92472 233.442 10.3017 235.031 11.0558C236.62 11.7982 237.902 12.8422 238.877 14.1879C239.863 15.5335 240.448 17.1053 240.634 18.9034H235.57C235.292 17.6506 234.654 16.5717 233.656 15.6669C232.67 14.7621 231.348 14.3097 229.689 14.3097C228.239 14.3097 226.969 14.6925 225.878 15.4581C224.8 16.2121 223.958 17.291 223.355 18.6946C222.752 20.0866 222.45 21.7339 222.45 23.6364C222.45 25.5852 222.746 27.2673 223.338 28.6825C223.929 30.0978 224.765 31.194 225.844 31.9712C226.934 32.7485 228.216 33.1371 229.689 33.1371C230.675 33.1371 231.568 32.9573 232.369 32.5977C233.181 32.2264 233.859 31.6986 234.405 31.0142C234.961 30.3298 235.35 29.5062 235.57 28.5433H240.634C240.448 30.2718 239.886 31.8146 238.946 33.1719C238.007 34.5291 236.748 35.5964 235.17 36.3736C233.604 37.1508 231.766 37.5394 229.654 37.5394ZM258.697 37.5394C256.064 37.5394 253.796 36.9768 251.893 35.8516C250.003 34.7147 248.541 33.1197 247.508 31.0664C246.488 29.0015 245.977 26.5829 245.977 23.8104C245.977 21.0727 246.488 18.6598 247.508 16.5717C248.541 14.4837 249.979 12.8538 251.824 11.6822C253.68 10.5105 255.849 9.92472 258.332 9.92472C259.84 9.92472 261.301 10.1741 262.717 10.6729C264.132 11.1718 265.402 11.9548 266.527 13.022C267.653 14.0893 268.54 15.4755 269.19 17.1808C269.839 18.8744 270.164 20.9335 270.164 23.358V25.2024H248.918V21.3047H265.066C265.066 19.9358 264.787 18.7236 264.23 17.668C263.674 16.6007 262.891 15.7597 261.881 15.1449C260.884 14.5301 259.712 14.2227 258.366 14.2227C256.905 14.2227 255.629 14.5823 254.538 15.3015C253.459 16.0091 252.624 16.9371 252.033 18.0856C251.453 19.2224 251.163 20.4579 251.163 21.7919V24.837C251.163 26.6235 251.476 28.1431 252.102 29.396C252.74 30.6488 253.628 31.6058 254.765 32.267C255.901 32.9167 257.23 33.2415 258.749 33.2415C259.735 33.2415 260.634 33.1023 261.446 32.8239C262.258 32.5339 262.96 32.1046 263.552 31.5362C264.143 30.9678 264.596 30.266 264.909 29.4308L269.833 30.3182C269.439 31.7682 268.731 33.0385 267.711 34.1289C266.701 35.2077 265.431 36.0488 263.9 36.652C262.38 37.2436 260.646 37.5394 258.697 37.5394ZM296.945 16.7979L292.229 17.6332C292.032 17.0299 291.719 16.4557 291.29 15.9105C290.872 15.3653 290.303 14.9187 289.584 14.5707C288.865 14.2227 287.966 14.0486 286.887 14.0486C285.414 14.0486 284.184 14.3793 283.198 15.0405C282.212 15.6901 281.719 16.5311 281.719 17.5636C281.719 18.4568 282.05 19.176 282.711 19.7212C283.372 20.2665 284.439 20.7131 285.913 21.0611L290.158 22.0355C292.618 22.6039 294.451 23.4798 295.657 24.663C296.863 25.8462 297.467 27.3833 297.467 29.2741C297.467 30.875 297.003 32.3018 296.075 33.5547C295.158 34.7959 293.876 35.7704 292.229 36.478C290.593 37.1856 288.697 37.5394 286.539 37.5394C283.546 37.5394 281.104 36.9014 279.214 35.6254C277.323 34.3377 276.163 32.5107 275.733 30.1442L280.762 29.3786C281.075 30.6894 281.719 31.6812 282.694 32.354C283.668 33.0153 284.938 33.3459 286.504 33.3459C288.21 33.3459 289.573 32.9921 290.593 32.2844C291.614 31.5652 292.125 30.6894 292.125 29.657C292.125 28.8217 291.812 28.1199 291.185 27.5515C290.57 26.9831 289.625 26.5539 288.349 26.2638L283.825 25.272C281.331 24.7036 279.486 23.7988 278.291 22.5575C277.108 21.3163 276.516 19.7444 276.516 17.842C276.516 16.2643 276.957 14.8839 277.839 13.7006C278.721 12.5174 279.939 11.5952 281.493 10.9339C283.047 10.2611 284.828 9.92472 286.835 9.92472C289.723 9.92472 291.997 10.5511 293.656 11.804C295.315 13.0452 296.411 14.7099 296.945 16.7979ZM324.195 16.7979L319.48 17.6332C319.282 17.0299 318.969 16.4557 318.54 15.9105C318.122 15.3653 317.554 14.9187 316.835 14.5707C316.116 14.2227 315.217 14.0486 314.138 14.0486C312.664 14.0486 311.435 14.3793 310.449 15.0405C309.463 15.6901 308.97 16.5311 308.97 17.5636C308.97 18.4568 309.3 19.176 309.962 19.7212C310.623 20.2665 311.69 20.7131 313.163 21.0611L317.409 22.0355C319.868 22.6039 321.701 23.4798 322.908 24.663C324.114 25.8462 324.717 27.3833 324.717 29.2741C324.717 30.875 324.253 32.3018 323.325 33.5547C322.409 34.7959 321.127 35.7704 319.48 36.478C317.844 37.1856 315.947 37.5394 313.79 37.5394C310.797 37.5394 308.355 36.9014 306.464 35.6254C304.573 34.3377 303.413 32.5107 302.984 30.1442L308.013 29.3786C308.326 30.6894 308.97 31.6812 309.944 32.354C310.919 33.0153 312.189 33.3459 313.755 33.3459C315.46 33.3459 316.823 32.9921 317.844 32.2844C318.865 31.5652 319.375 30.6894 319.375 29.657C319.375 28.8217 319.062 28.1199 318.436 27.5515C317.821 26.9831 316.875 26.5539 315.599 26.2638L311.075 25.272C308.581 24.7036 306.737 23.7988 305.542 22.5575C304.359 21.3163 303.767 19.7444 303.767 17.842C303.767 16.2643 304.208 14.8839 305.089 13.7006C305.971 12.5174 307.189 11.5952 308.744 10.9339C310.298 10.2611 312.079 9.92472 314.085 9.92472C316.974 9.92472 319.248 10.5511 320.907 11.804C322.565 13.0452 323.662 14.7099 324.195 16.7979ZM359.634 1.36364H364.993V26.6293C364.993 28.9145 364.541 30.8692 363.636 32.4933C362.743 34.1173 361.484 35.3585 359.86 36.217C358.236 37.0638 356.334 37.4872 354.153 37.4872C352.146 37.4872 350.342 37.1218 348.741 36.391C347.152 35.6602 345.893 34.5987 344.965 33.2067C344.049 31.803 343.591 30.0978 343.591 28.0909H348.933C348.933 29.0769 349.159 29.9296 349.611 30.6488C350.075 31.368 350.707 31.9306 351.508 32.3366C352.32 32.7311 353.248 32.9283 354.292 32.9283C355.429 32.9283 356.392 32.6905 357.18 32.2148C357.981 31.7276 358.59 31.0142 359.007 30.0746C359.425 29.1349 359.634 27.9865 359.634 26.6293V1.36364ZM384.64 37.5394C382.134 37.5394 379.947 36.9652 378.08 35.8168C376.212 34.6683 374.762 33.0617 373.73 30.9968C372.697 28.9319 372.181 26.5191 372.181 23.7582C372.181 20.9857 372.697 18.5612 373.73 16.4847C374.762 14.4083 376.212 12.7958 378.08 11.6474C379.947 10.4989 382.134 9.92472 384.64 9.92472C387.145 9.92472 389.332 10.4989 391.2 11.6474C393.067 12.7958 394.517 14.4083 395.55 16.4847C396.582 18.5612 397.099 20.9857 397.099 23.7582C397.099 26.5191 396.582 28.9319 395.55 30.9968C394.517 33.0617 393.067 34.6683 391.2 35.8168C389.332 36.9652 387.145 37.5394 384.64 37.5394ZM384.657 33.1719C386.281 33.1719 387.627 32.7427 388.694 31.8842C389.761 31.0258 390.55 29.8832 391.061 28.4563C391.583 27.0295 391.844 25.4576 391.844 23.7408C391.844 22.0355 391.583 20.4695 391.061 19.0426C390.55 17.6042 389.761 16.4499 388.694 15.5799C387.627 14.7099 386.281 14.2749 384.657 14.2749C383.021 14.2749 381.664 14.7099 380.585 15.5799C379.518 16.4499 378.724 17.6042 378.202 19.0426C377.691 20.4695 377.436 22.0355 377.436 23.7408C377.436 25.4576 377.691 27.0295 378.202 28.4563C378.724 29.8832 379.518 31.0258 380.585 31.8842C381.664 32.7427 383.021 33.1719 384.657 33.1719ZM420.817 25.9158V10.2727H426.037V37H420.921V32.3714H420.643C420.028 33.7983 419.042 34.9873 417.685 35.9386C416.339 36.8782 414.663 37.348 412.656 37.348C410.939 37.348 409.419 36.971 408.097 36.217C406.786 35.4513 405.754 34.3203 405 32.8239C404.257 31.3274 403.886 29.4772 403.886 27.2731V10.2727H409.089V26.6467C409.089 28.4679 409.593 29.918 410.603 30.9968C411.612 32.0756 412.923 32.6151 414.535 32.6151C415.51 32.6151 416.478 32.3714 417.441 31.8842C418.415 31.397 419.222 30.6604 419.86 29.6744C420.509 28.6883 420.828 27.4355 420.817 25.9158ZM434.008 37V10.2727H439.036V14.5185H439.315C439.802 13.08 440.66 11.949 441.89 11.1254C443.131 10.2901 444.535 9.87251 446.101 9.87251C446.426 9.87251 446.809 9.88411 447.249 9.90732C447.702 9.93051 448.056 9.95952 448.311 9.99432V14.9709C448.102 14.9129 447.731 14.8491 447.197 14.7795C446.664 14.6983 446.13 14.6577 445.596 14.6577C444.367 14.6577 443.27 14.9187 442.308 15.4407C441.356 15.9511 440.602 16.6645 440.046 17.581C439.489 18.4858 439.21 19.5182 439.21 20.6783V37H434.008ZM458.996 21.1307V37H453.793V10.2727H458.787V14.6229H459.118C459.733 13.2076 460.695 12.0708 462.006 11.2124C463.329 10.3539 464.993 9.92472 467 9.92472C468.822 9.92472 470.417 10.3075 471.785 11.0732C473.154 11.8272 474.216 12.9524 474.97 14.4489C475.724 15.9453 476.101 17.7956 476.101 19.9996V37H470.898V20.6261C470.898 18.6888 470.393 17.175 469.384 16.0845C468.375 14.9825 466.989 14.4315 465.225 14.4315C464.019 14.4315 462.946 14.6925 462.006 15.2145C461.078 15.7365 460.342 16.5021 459.796 17.5114C459.263 18.509 458.996 19.7154 458.996 21.1307ZM495.578 37.5394C492.944 37.5394 490.676 36.9768 488.774 35.8516C486.883 34.7147 485.421 33.1197 484.389 31.0664C483.368 29.0015 482.858 26.5829 482.858 23.8104C482.858 21.0727 483.368 18.6598 484.389 16.5717C485.421 14.4837 486.86 12.8538 488.704 11.6822C490.56 10.5105 492.73 9.92472 495.212 9.92472C496.72 9.92472 498.182 10.1741 499.597 10.6729C501.012 11.1718 502.283 11.9548 503.408 13.022C504.533 14.0893 505.421 15.4755 506.07 17.1808C506.72 18.8744 507.045 20.9335 507.045 23.358V25.2024H485.798V21.3047H501.946C501.946 19.9358 501.668 18.7236 501.111 17.668C500.554 16.6007 499.771 15.7597 498.762 15.1449C497.764 14.5301 496.593 14.2227 495.247 14.2227C493.785 14.2227 492.509 14.5823 491.419 15.3015C490.34 16.0091 489.505 16.9371 488.913 18.0856C488.333 19.2224 488.043 20.4579 488.043 21.7919V24.837C488.043 26.6235 488.356 28.1431 488.983 29.396C489.621 30.6488 490.508 31.6058 491.645 32.267C492.782 32.9167 494.11 33.2415 495.63 33.2415C496.616 33.2415 497.515 33.1023 498.327 32.8239C499.139 32.5339 499.841 32.1046 500.432 31.5362C501.024 30.9678 501.476 30.266 501.79 29.4308L506.714 30.3182C506.32 31.7682 505.612 33.0385 504.591 34.1289C503.582 35.2077 502.312 36.0488 500.78 36.652C499.261 37.2436 497.526 37.5394 495.578 37.5394ZM516.32 47.0227C515.543 47.0227 514.835 46.9589 514.197 46.8313C513.559 46.7153 513.084 46.5877 512.771 46.4485L514.023 42.1854C514.975 42.4406 515.821 42.5508 516.564 42.516C517.306 42.4812 517.962 42.2028 518.53 41.6808C519.11 41.1587 519.621 40.3061 520.061 39.1229L520.705 37.348L510.926 10.2727H516.494L523.263 31.0142H523.542L530.31 10.2727H535.896L524.881 40.5671C524.371 41.9592 523.721 43.1366 522.932 44.0994C522.144 45.0739 521.204 45.8047 520.114 46.2919C519.023 46.7791 517.759 47.0227 516.32 47.0227ZM2.91513 96V60.3636H15.9656C18.4944 60.3636 20.5883 60.7812 22.2472 61.6165C23.906 62.4401 25.1473 63.5595 25.9709 64.9748C26.7945 66.3784 27.2063 67.9619 27.2063 69.7251C27.2063 71.21 26.9337 72.4628 26.3885 73.4837C25.8433 74.4929 25.1125 75.3049 24.196 75.9197C23.2912 76.523 22.2936 76.9638 21.2031 77.2422V77.5902C22.3864 77.6482 23.5406 78.031 24.6658 78.7386C25.8027 79.4347 26.7423 80.4265 27.4847 81.7141C28.2272 83.0018 28.5984 84.5678 28.5984 86.4123C28.5984 88.2335 28.1692 89.8692 27.3107 91.3192C26.4639 92.7577 25.1531 93.9003 23.3782 94.7472C21.6033 95.5824 19.3355 96 16.5746 96H2.91513ZM8.2919 91.3888H16.0526C18.6278 91.3888 20.4723 90.89 21.5859 89.8924C22.6996 88.8948 23.2564 87.6477 23.2564 86.1513C23.2564 85.026 22.9722 83.9936 22.4038 83.054C21.8353 82.1143 21.0233 81.3661 19.9677 80.8093C18.9237 80.2525 17.6824 79.9741 16.244 79.9741H8.2919V91.3888ZM8.2919 75.7805H15.4957C16.7022 75.7805 17.7868 75.5485 18.7496 75.0845C19.7241 74.6205 20.4955 73.9709 21.0639 73.1357C21.6439 72.2888 21.9339 71.2912 21.9339 70.1428C21.9339 68.6695 21.4177 67.4341 20.3853 66.4364C19.3529 65.4388 17.7694 64.94 15.6349 64.94H8.2919V75.7805ZM47.0572 96.5394C44.424 96.5394 42.1561 95.9768 40.2536 94.8516C38.3628 93.7147 36.9011 92.1197 35.8687 90.0664C34.8478 88.0015 34.3374 85.5829 34.3374 82.8104C34.3374 80.0727 34.8478 77.6598 35.8687 75.5717C36.9011 73.4837 38.3396 71.8538 40.184 70.6822C42.0401 69.5105 44.2093 68.9247 46.6918 68.9247C48.1999 68.9247 49.6615 69.1741 51.0768 69.6729C52.492 70.1718 53.7623 70.9548 54.8875 72.022C56.0127 73.0893 56.9002 74.4755 57.5498 76.1808C58.1994 77.8744 58.5242 79.9335 58.5242 82.358V84.2024H37.2781V80.3047H53.4258C53.4258 78.9358 53.1474 77.7236 52.5906 76.668C52.0338 75.6007 51.2508 74.7597 50.2415 74.1449C49.2439 73.5301 48.0723 73.2227 46.7266 73.2227C45.265 73.2227 43.9889 73.5823 42.8985 74.3015C41.8197 75.0091 40.9844 75.9371 40.3928 77.0856C39.8128 78.2224 39.5228 79.4579 39.5228 80.7919V83.837C39.5228 85.6235 39.836 87.1431 40.4624 88.396C41.1004 89.6488 41.9879 90.6058 43.1247 91.267C44.2615 91.9167 45.5898 92.2415 47.1094 92.2415C48.0955 92.2415 48.9945 92.1023 49.8065 91.8239C50.6186 91.5339 51.3204 91.1046 51.912 90.5362C52.5036 89.9678 52.956 89.266 53.2692 88.4308L58.1936 89.3182C57.7992 90.7682 57.0916 92.0385 56.0707 93.1289C55.0615 94.2077 53.7913 95.0488 52.26 95.652C50.7404 96.2436 49.0061 96.5394 47.0572 96.5394ZM76.4828 106.58C74.3599 106.58 72.5329 106.301 71.0016 105.744C69.482 105.188 68.2407 104.451 67.2779 103.534C66.3151 102.618 65.5959 101.615 65.1202 100.524L69.5922 98.6797C69.9054 99.1901 70.323 99.7295 70.845 100.298C71.3786 100.878 72.0979 101.371 73.0027 101.777C73.9191 102.183 75.0966 102.386 76.535 102.386C78.5071 102.386 80.1369 101.905 81.4246 100.942C82.7122 99.9905 83.356 98.4709 83.356 96.3828V91.1278H83.0254C82.7122 91.6963 82.2598 92.3285 81.6682 93.0245C81.0882 93.7205 80.2877 94.3237 79.2669 94.8342C78.2461 95.3446 76.9178 95.5998 75.2822 95.5998C73.1709 95.5998 71.2684 95.1068 69.5748 94.1207C67.8927 93.1231 66.5587 91.6557 65.5727 89.7184C64.5982 87.7695 64.111 85.3741 64.111 82.532C64.111 79.6899 64.5924 77.2538 65.5553 75.2237C66.5297 73.1937 67.8637 71.6392 69.5574 70.5604C71.251 69.4699 73.1709 68.9247 75.317 68.9247C76.9758 68.9247 78.3157 69.2031 79.3365 69.7599C80.3573 70.3052 81.152 70.9432 81.7204 71.674C82.3004 72.4048 82.747 73.0487 83.0602 73.6055H83.443V69.2727H88.5414V96.5916C88.5414 98.8885 88.0078 100.774 86.9406 102.247C85.8733 103.72 84.4291 104.81 82.6078 105.518C80.7982 106.226 78.7565 106.58 76.4828 106.58ZM76.4306 91.2844C77.9271 91.2844 79.1915 90.9364 80.2239 90.2404C81.268 89.5328 82.0568 88.5236 82.5904 87.2127C83.1356 85.8903 83.4082 84.3068 83.4082 82.4624C83.4082 80.6643 83.1414 79.0808 82.6078 77.712C82.0742 76.3432 81.2912 75.2759 80.2587 74.5103C79.2263 73.7331 77.9503 73.3445 76.4306 73.3445C74.8646 73.3445 73.5595 73.7505 72.5155 74.5625C71.4715 75.3629 70.6826 76.4534 70.149 77.8338C69.627 79.2143 69.366 80.7571 69.366 82.4624C69.366 84.214 69.6328 85.7511 70.1664 87.0735C70.7 88.396 71.4889 89.4284 72.5329 90.1708C73.5885 90.9132 74.8878 91.2844 76.4306 91.2844ZM96.499 96V69.2727H101.702V96H96.499ZM99.1265 65.1488C98.2217 65.1488 97.4445 64.8472 96.7948 64.244C96.1568 63.6291 95.8378 62.8983 95.8378 62.0515C95.8378 61.1931 96.1568 60.4622 96.7948 59.859C97.4445 59.2442 98.2217 58.9368 99.1265 58.9368C100.031 58.9368 100.803 59.2442 101.441 59.859C102.09 60.4622 102.415 61.1931 102.415 62.0515C102.415 62.8983 102.09 63.6291 101.441 64.244C100.803 64.8472 100.031 65.1488 99.1265 65.1488ZM114.884 80.1307V96H109.681V69.2727H114.675V73.6229H115.006C115.621 72.2076 116.583 71.0708 117.894 70.2124C119.217 69.3539 120.881 68.9247 122.888 68.9247C124.709 68.9247 126.305 69.3075 127.673 70.0732C129.042 70.8272 130.104 71.9524 130.858 73.4489C131.612 74.9453 131.989 76.7956 131.989 78.9996V96H126.786V79.6261C126.786 77.6888 126.281 76.175 125.272 75.0845C124.263 73.9825 122.877 73.4315 121.113 73.4315C119.907 73.4315 118.834 73.6925 117.894 74.2145C116.966 74.7365 116.23 75.5021 115.684 76.5114C115.151 77.509 114.884 78.7154 114.884 80.1307ZM159.974 75.7979L155.259 76.6332C155.062 76.0299 154.748 75.4557 154.319 74.9105C153.902 74.3653 153.333 73.9187 152.614 73.5707C151.895 73.2227 150.996 73.0486 149.917 73.0486C148.444 73.0486 147.214 73.3793 146.228 74.0405C145.242 74.6901 144.749 75.5311 144.749 76.5636C144.749 77.4568 145.08 78.176 145.741 78.7212C146.402 79.2665 147.469 79.7131 148.942 80.0611L153.188 81.0355C155.647 81.6039 157.48 82.4798 158.687 83.663C159.893 84.8462 160.496 86.3833 160.496 88.2741C160.496 89.875 160.032 91.3018 159.104 92.5547C158.188 93.7959 156.906 94.7704 155.259 95.478C153.623 96.1856 151.727 96.5394 149.569 96.5394C146.576 96.5394 144.134 95.9014 142.243 94.6254C140.352 93.3377 139.192 91.5107 138.763 89.1442L143.792 88.3786C144.105 89.6894 144.749 90.6812 145.723 91.354C146.698 92.0153 147.968 92.3459 149.534 92.3459C151.239 92.3459 152.602 91.9921 153.623 91.2844C154.644 90.5652 155.154 89.6894 155.154 88.657C155.154 87.8217 154.841 87.1199 154.215 86.5515C153.6 85.9831 152.655 85.5539 151.379 85.2638L146.854 84.272C144.36 83.7036 142.516 82.7988 141.321 81.5575C140.138 80.3163 139.546 78.7444 139.546 76.842C139.546 75.2643 139.987 73.8839 140.869 72.7006C141.75 71.5174 142.968 70.5952 144.523 69.9339C146.077 69.2611 147.858 68.9247 149.865 68.9247C152.753 68.9247 155.027 69.5511 156.686 70.804C158.345 72.0452 159.441 73.7099 159.974 75.7979ZM186.939 96L179.074 69.2727H184.451L189.688 88.9006H189.949L195.204 69.2727H200.581L205.801 88.8136H206.062L211.265 69.2727H216.642L208.794 96H203.487L198.058 76.7028H197.658L192.229 96H186.939ZM222.559 96V69.2727H227.762V96H222.559ZM225.187 65.1488C224.282 65.1488 223.505 64.8472 222.855 64.244C222.217 63.6291 221.898 62.8983 221.898 62.0515C221.898 61.1931 222.217 60.4622 222.855 59.859C223.505 59.2442 224.282 58.9368 225.187 58.9368C226.092 58.9368 226.863 59.2442 227.501 59.859C228.151 60.4622 228.475 61.1931 228.475 62.0515C228.475 62.8983 228.151 63.6291 227.501 64.244C226.863 64.8472 226.092 65.1488 225.187 65.1488ZM248.218 69.2727V73.4489H233.618V69.2727H248.218ZM237.534 62.8693H242.736V88.1523C242.736 89.1616 242.887 89.9214 243.189 90.4318C243.49 90.9306 243.879 91.2728 244.355 91.4585C244.842 91.6325 245.37 91.7195 245.938 91.7195C246.356 91.7195 246.721 91.6905 247.034 91.6325C247.348 91.5745 247.591 91.5281 247.765 91.4933L248.705 95.7912C248.403 95.9072 247.974 96.0232 247.417 96.1392C246.86 96.2668 246.164 96.3364 245.329 96.348C243.96 96.3712 242.684 96.1276 241.501 95.6172C240.318 95.1068 239.361 94.3179 238.63 93.2507C237.899 92.1835 237.534 90.8436 237.534 89.2312V62.8693ZM260.73 80.1307V96H255.527V60.3636H260.66V73.6229H260.991C261.617 72.1844 262.574 71.0418 263.862 70.195C265.15 69.3481 266.832 68.9247 268.908 68.9247C270.741 68.9247 272.342 69.3017 273.711 70.0558C275.091 70.8098 276.158 71.935 276.912 73.4315C277.678 74.9163 278.061 76.7724 278.061 78.9996V96H272.858V79.6261C272.858 77.6656 272.353 76.146 271.344 75.0671C270.335 73.9767 268.931 73.4315 267.133 73.4315C265.904 73.4315 264.802 73.6925 263.827 74.2145C262.864 74.7365 262.104 75.5021 261.548 76.5114C261.002 77.509 260.73 78.7154 260.73 80.1307ZM300.349 96V60.3636H322.691V64.9922H305.726V75.8501H321.525V80.4613H305.726V91.3714H322.9V96H300.349ZM346.183 75.9197V80.4439H330.384V75.9197H346.183ZM354.515 96V60.3636H359.892V91.3714H376.04V96H354.515ZM394.255 96.5394C391.622 96.5394 389.354 95.9768 387.451 94.8516C385.56 93.7147 384.099 92.1197 383.066 90.0664C382.045 88.0015 381.535 85.5829 381.535 82.8104C381.535 80.0727 382.045 77.6598 383.066 75.5717C384.099 73.4837 385.537 71.8538 387.382 70.6822C389.238 69.5105 391.407 68.9247 393.889 68.9247C395.397 68.9247 396.859 69.1741 398.274 69.6729C399.69 70.1718 400.96 70.9548 402.085 72.022C403.21 73.0893 404.098 74.4755 404.747 76.1808C405.397 77.8744 405.722 79.9335 405.722 82.358V84.2024H384.476V80.3047H400.623C400.623 78.9358 400.345 77.7236 399.788 76.668C399.231 75.6007 398.448 74.7597 397.439 74.1449C396.441 73.5301 395.27 73.2227 393.924 73.2227C392.463 73.2227 391.186 73.5823 390.096 74.3015C389.017 75.0091 388.182 75.9371 387.59 77.0856C387.01 78.2224 386.72 79.4579 386.72 80.7919V83.837C386.72 85.6235 387.034 87.1431 387.66 88.396C388.298 89.6488 389.185 90.6058 390.322 91.267C391.459 91.9167 392.787 92.2415 394.307 92.2415C395.293 92.2415 396.192 92.1023 397.004 91.8239C397.816 91.5339 398.518 91.1046 399.11 90.5362C399.701 89.9678 400.154 89.266 400.467 88.4308L405.391 89.3182C404.997 90.7682 404.289 92.0385 403.268 93.1289C402.259 94.2077 400.989 95.0488 399.458 95.652C397.938 96.2436 396.204 96.5394 394.255 96.5394ZM420.252 96.5916C418.559 96.5916 417.028 96.2784 415.659 95.652C414.29 95.014 413.205 94.0917 412.405 92.8853C411.616 91.6789 411.222 90.1998 411.222 88.4482C411.222 86.9401 411.512 85.6989 412.092 84.7244C412.672 83.75 413.455 82.9786 414.441 82.4102C415.427 81.8417 416.529 81.4125 417.747 81.1225C418.965 80.8325 420.206 80.6121 421.47 80.4613C423.071 80.2757 424.371 80.1249 425.368 80.0089C426.366 79.8813 427.091 79.6783 427.543 79.3999C427.996 79.1214 428.222 78.669 428.222 78.0426V77.9208C428.222 76.4012 427.793 75.2237 426.934 74.3885C426.087 73.5533 424.823 73.1357 423.141 73.1357C421.389 73.1357 420.009 73.5243 419 74.3015C418.002 75.0671 417.312 75.9197 416.929 76.8594L412.039 75.7457C412.619 74.1217 413.466 72.8108 414.58 71.8132C415.705 70.804 416.999 70.0732 418.46 69.6207C419.922 69.1567 421.459 68.9247 423.071 68.9247C424.139 68.9247 425.27 69.0523 426.464 69.3075C427.671 69.5511 428.796 70.0036 429.84 70.6648C430.896 71.326 431.76 72.2714 432.433 73.5011C433.106 74.7191 433.442 76.3026 433.442 78.2514V96H428.361V92.3459H428.152C427.816 93.0187 427.311 93.6799 426.638 94.3295C425.966 94.9792 425.101 95.5186 424.046 95.9478C422.99 96.377 421.726 96.5916 420.252 96.5916ZM421.383 92.4155C422.822 92.4155 424.052 92.1313 425.072 91.5629C426.105 90.9944 426.888 90.252 427.421 89.3356C427.967 88.4076 428.239 87.4157 428.239 86.3601V82.9148C428.054 83.1004 427.694 83.2744 427.16 83.4368C426.638 83.5876 426.041 83.721 425.368 83.837C424.695 83.9414 424.04 84.04 423.402 84.1328C422.764 84.214 422.23 84.2836 421.801 84.3416C420.792 84.4692 419.87 84.6838 419.034 84.9854C418.211 85.287 417.55 85.7221 417.051 86.2905C416.564 86.8473 416.32 87.5897 416.32 88.5178C416.32 89.8054 416.796 90.7798 417.747 91.4411C418.698 92.0907 419.91 92.4155 421.383 92.4155ZM441.352 96V69.2727H446.381V73.5185H446.659C447.146 72.08 448.005 70.949 449.234 70.1254C450.476 69.2901 451.879 68.8725 453.445 68.8725C453.77 68.8725 454.153 68.8841 454.594 68.9073C455.046 68.9305 455.4 68.9595 455.655 68.9943V73.9709C455.446 73.9129 455.075 73.8491 454.541 73.7795C454.008 73.6983 453.474 73.6577 452.941 73.6577C451.711 73.6577 450.615 73.9187 449.652 74.4407C448.701 74.9511 447.947 75.6645 447.39 76.581C446.833 77.4858 446.555 78.5182 446.555 79.6783V96H441.352ZM466.34 80.1307V96H461.138V69.2727H466.131V73.6229H466.462C467.077 72.2076 468.04 71.0708 469.351 70.2124C470.673 69.3539 472.338 68.9247 474.345 68.9247C476.166 68.9247 477.761 69.3075 479.13 70.0732C480.499 70.8272 481.56 71.9524 482.314 73.4489C483.068 74.9453 483.445 76.7956 483.445 78.9996V96H478.242V79.6261C478.242 77.6888 477.738 76.175 476.728 75.0845C475.719 73.9825 474.333 73.4315 472.57 73.4315C471.363 73.4315 470.29 73.6925 469.351 74.2145C468.423 74.7365 467.686 75.5021 467.141 76.5114C466.607 77.509 466.34 78.7154 466.34 80.1307ZM491.403 96V69.2727H496.605V96H491.403ZM494.03 65.1488C493.125 65.1488 492.348 64.8472 491.698 64.244C491.06 63.6291 490.741 62.8983 490.741 62.0515C490.741 61.1931 491.06 60.4622 491.698 59.859C492.348 59.2442 493.125 58.9368 494.03 58.9368C494.935 58.9368 495.706 59.2442 496.344 59.859C496.994 60.4622 497.319 61.1931 497.319 62.0515C497.319 62.8983 496.994 63.6291 496.344 64.244C495.706 64.8472 494.935 65.1488 494.03 65.1488ZM509.788 80.1307V96H504.585V69.2727H509.579V73.6229H509.909C510.524 72.2076 511.487 71.0708 512.798 70.2124C514.12 69.3539 515.785 68.9247 517.792 68.9247C519.613 68.9247 521.208 69.3075 522.577 70.0732C523.946 70.8272 525.007 71.9524 525.761 73.4489C526.515 74.9453 526.892 76.7956 526.892 78.9996V96H521.69V79.6261C521.69 77.6888 521.185 76.175 520.176 75.0845C519.167 73.9825 517.78 73.4315 516.017 73.4315C514.811 73.4315 513.738 73.6925 512.798 74.2145C511.87 74.7365 511.133 75.5021 510.588 76.5114C510.054 77.509 509.788 78.7154 509.788 80.1307ZM546.056 106.58C543.933 106.58 542.106 106.301 540.575 105.744C539.055 105.188 537.814 104.451 536.851 103.534C535.888 102.618 535.169 101.615 534.693 100.524L539.165 98.6797C539.479 99.1901 539.896 99.7295 540.418 100.298C540.952 100.878 541.671 101.371 542.576 101.777C543.492 102.183 544.67 102.386 546.108 102.386C548.08 102.386 549.71 101.905 550.998 100.942C552.285 99.9905 552.929 98.4709 552.929 96.3828V91.1278H552.599C552.285 91.6963 551.833 92.3285 551.241 93.0245C550.661 93.7205 549.861 94.3237 548.84 94.8342C547.819 95.3446 546.491 95.5998 544.855 95.5998C542.744 95.5998 540.842 95.1068 539.148 94.1207C537.466 93.1231 536.132 91.6557 535.146 89.7184C534.171 87.7695 533.684 85.3741 533.684 82.532C533.684 79.6899 534.166 77.2538 535.128 75.2237C536.103 73.1937 537.437 71.6392 539.131 70.5604C540.824 69.4699 542.744 68.9247 544.89 68.9247C546.549 68.9247 547.889 69.2031 548.91 69.7599C549.93 70.3052 550.725 70.9432 551.294 71.674C551.874 72.4048 552.32 73.0487 552.633 73.6055H553.016V69.2727H558.115V96.5916C558.115 98.8885 557.581 100.774 556.514 102.247C555.446 103.72 554.002 104.81 552.181 105.518C550.371 106.226 548.33 106.58 546.056 106.58ZM546.004 91.2844C547.5 91.2844 548.765 90.9364 549.797 90.2404C550.841 89.5328 551.63 88.5236 552.164 87.2127C552.709 85.8903 552.981 84.3068 552.981 82.4624C552.981 80.6643 552.715 79.0808 552.181 77.712C551.647 76.3432 550.864 75.2759 549.832 74.5103C548.799 73.7331 547.523 73.3445 546.004 73.3445C544.438 73.3445 543.133 73.7505 542.089 74.5625C541.045 75.3629 540.256 76.4534 539.722 77.8338C539.2 79.2143 538.939 80.7571 538.939 82.4624C538.939 84.214 539.206 85.7511 539.74 87.0735C540.273 88.396 541.062 89.4284 542.106 90.1708C543.162 90.9132 544.461 91.2844 546.004 91.2844Z" fill="#F7F8F8"/>
</svg>
