<svg width="890" height="501" viewBox="0 0 890 501" fill="none" xmlns="http://www.w3.org/2000/svg">
<path d="M136.309 31.2156L208.162 76.8504C215.544 81.5386 215.11 89.4258 207.184 94.6219L198.384 100.391C191.227 105.082 189.94 112.038 195.315 116.966V116.966C202.37 123.433 217.634 123.694 226.978 117.508L262.04 94.2927C268.661 89.9085 279.198 89.4021 285.677 93.1565V93.1565C292.217 96.9461 292.159 103.645 285.548 108.113L268.183 119.848C259.173 125.937 258.821 135.025 267.387 140.417L339.033 185.512L410.949 230.612C418.391 235.28 417.992 243.187 410.052 248.392L401.301 254.129C394.145 258.82 392.857 265.777 398.233 270.704V270.704C405.288 277.171 420.552 277.432 429.895 271.246L464.957 248.031C471.579 243.647 482.115 243.14 488.595 246.894V246.894C495.135 250.684 495.077 257.383 488.466 261.851L471.1 273.586C462.09 279.675 461.739 288.763 470.304 294.155L498.454 311.872L541.95 339.25M541.951 339.25L614.022 384.447C621.375 389.058 620.913 396.923 612.985 402.12L604.396 407.751C597.143 412.506 595.797 419.534 601.191 424.478C608.235 430.935 623.52 431.138 632.941 424.9L667.766 401.842C674.452 397.416 685.025 396.873 691.498 400.624C698.045 404.417 697.93 411.167 691.241 415.687L674.025 427.322C665.017 433.409 664.594 442.461 673.068 447.795L701.375 465.612L744.872 492.989" stroke="url(#paint0_linear_239_5902)" stroke-width="11"/>
<g filter="url(#filter0_d_239_5902)">
<path d="M702.317 427.349L700.987 427.334C700.94 427.049 700.848 426.798 700.712 426.58C700.576 426.363 700.408 426.178 700.208 426.025C700.009 425.872 699.784 425.755 699.535 425.676C699.289 425.596 699.027 425.555 698.749 425.551C698.246 425.545 697.794 425.666 697.393 425.914C696.994 426.162 696.677 426.529 696.44 427.015C696.206 427.501 696.084 428.096 696.075 428.801C696.065 429.511 696.17 430.112 696.391 430.603C696.614 431.094 696.923 431.467 697.317 431.722C697.712 431.977 698.157 432.107 698.654 432.113C698.93 432.116 699.192 432.082 699.44 432.012C699.691 431.938 699.918 431.828 700.122 431.683C700.326 431.538 700.499 431.359 700.641 431.148C700.786 430.934 700.887 430.688 700.945 430.41L702.274 430.43C702.198 430.858 702.054 431.251 701.845 431.61C701.638 431.965 701.374 432.272 701.052 432.529C700.734 432.784 700.37 432.98 699.962 433.117C699.554 433.254 699.11 433.32 698.63 433.315C697.874 433.306 697.203 433.119 696.617 432.754C696.031 432.386 695.572 431.865 695.241 431.19C694.912 430.516 694.754 429.714 694.766 428.785C694.779 427.854 694.961 427.056 695.311 426.392C695.661 425.726 696.134 425.217 696.729 424.867C697.325 424.513 697.999 424.34 698.752 424.349C699.215 424.355 699.646 424.427 700.045 424.565C700.446 424.701 700.806 424.898 701.124 425.158C701.441 425.414 701.702 425.727 701.908 426.096C702.113 426.462 702.249 426.88 702.317 427.349ZM706.26 433.418C705.647 433.411 705.113 433.264 704.66 432.977C704.206 432.691 703.857 432.293 703.611 431.784C703.365 431.276 703.246 430.683 703.256 430.007C703.265 429.328 703.4 428.736 703.659 428.231C703.919 427.725 704.28 427.335 704.741 427.059C705.202 426.783 705.739 426.649 706.353 426.656C706.967 426.663 707.5 426.81 707.954 427.097C708.407 427.384 708.757 427.783 709.003 428.294C709.249 428.806 709.367 429.401 709.358 430.08C709.348 430.756 709.214 431.345 708.954 431.848C708.694 432.35 708.334 432.74 707.873 433.015C707.411 433.291 706.874 433.425 706.26 433.418ZM706.279 432.349C706.677 432.353 707.008 432.252 707.272 432.045C707.536 431.838 707.733 431.561 707.863 431.213C707.996 430.865 708.065 430.481 708.071 430.06C708.076 429.643 708.018 429.258 707.895 428.907C707.775 428.554 707.585 428.269 707.327 428.053C707.068 427.837 706.74 427.726 706.343 427.721C705.942 427.717 705.608 427.819 705.341 428.029C705.077 428.239 704.878 428.519 704.746 428.87C704.616 429.218 704.548 429.601 704.543 430.018C704.537 430.439 704.594 430.824 704.714 431.175C704.837 431.526 705.028 431.808 705.287 432.022C705.548 432.235 705.879 432.344 706.279 432.349ZM714.714 430.672L714.767 426.841L716.045 426.857L715.956 433.402L714.703 433.387L714.718 432.253L714.65 432.252C714.495 432.6 714.249 432.888 713.914 433.117C713.581 433.343 713.169 433.454 712.678 433.448C712.257 433.443 711.886 433.346 711.565 433.157C711.247 432.966 710.998 432.686 710.818 432.318C710.641 431.949 710.556 431.495 710.564 430.955L710.621 426.792L711.895 426.807L711.84 430.817C711.834 431.263 711.953 431.619 712.196 431.886C712.44 432.154 712.759 432.29 713.154 432.294C713.392 432.297 713.63 432.24 713.868 432.124C714.108 432.007 714.308 431.829 714.467 431.59C714.63 431.35 714.712 431.044 714.714 430.672ZM717.463 433.419L717.553 426.875L718.785 426.889L718.77 427.929L718.838 427.93C718.963 427.579 719.177 427.305 719.48 427.106C719.787 426.906 720.132 426.807 720.516 426.812C720.595 426.813 720.689 426.817 720.797 426.824C720.908 426.831 720.994 426.839 721.057 426.848L721.04 428.067C720.989 428.052 720.898 428.035 720.768 428.017C720.637 427.995 720.507 427.984 720.376 427.982C720.075 427.979 719.806 428.039 719.568 428.164C719.334 428.287 719.147 428.459 719.007 428.682C718.868 428.902 718.796 429.154 718.792 429.438L718.738 433.435L717.463 433.419ZM726.837 428.583L725.679 428.774C725.633 428.626 725.558 428.484 725.455 428.35C725.355 428.215 725.217 428.104 725.042 428.016C724.867 427.929 724.647 427.884 724.383 427.881C724.022 427.876 723.72 427.954 723.477 428.113C723.233 428.269 723.109 428.474 723.106 428.726C723.103 428.945 723.181 429.122 723.342 429.258C723.502 429.393 723.761 429.506 724.121 429.595L725.157 429.846C725.758 429.992 726.204 430.212 726.495 430.506C726.787 430.799 726.929 431.177 726.923 431.64C726.917 432.032 726.799 432.38 726.568 432.684C726.339 432.985 726.022 433.22 725.616 433.389C725.213 433.557 724.748 433.638 724.219 433.632C723.486 433.623 722.89 433.46 722.432 433.142C721.973 432.821 721.695 432.37 721.598 431.79L722.832 431.617C722.904 431.939 723.059 432.183 723.295 432.351C723.531 432.516 723.841 432.6 724.225 432.605C724.642 432.61 724.977 432.527 725.23 432.357C725.482 432.184 725.61 431.971 725.613 431.718C725.616 431.514 725.542 431.341 725.39 431.2C725.242 431.059 725.012 430.951 724.7 430.876L723.596 430.62C722.987 430.474 722.538 430.247 722.25 429.939C721.964 429.632 721.824 429.245 721.831 428.779C721.836 428.393 721.949 428.056 722.169 427.769C722.388 427.482 722.69 427.26 723.073 427.102C723.456 426.942 723.893 426.865 724.384 426.871C725.092 426.879 725.646 427.039 726.048 427.351C726.45 427.66 726.713 428.07 726.837 428.583ZM730.913 433.712C730.268 433.704 729.715 433.56 729.252 433.279C728.793 432.995 728.441 432.6 728.195 432.094C727.952 431.585 727.835 430.992 727.844 430.313C727.853 429.642 727.986 429.053 728.243 428.545C728.503 428.036 728.861 427.641 729.316 427.36C729.775 427.078 730.308 426.941 730.916 426.949C731.285 426.953 731.642 427.018 731.987 427.145C732.332 427.271 732.641 427.466 732.912 427.731C733.184 427.996 733.397 428.338 733.55 428.757C733.704 429.174 733.777 429.679 733.768 430.273L733.762 430.724L728.559 430.662L728.573 429.708L732.527 429.755C732.531 429.42 732.467 429.122 732.334 428.862C732.202 428.599 732.013 428.391 731.768 428.237C731.525 428.084 731.24 428.005 730.91 428.001C730.552 427.997 730.238 428.081 729.969 428.254C729.702 428.424 729.495 428.649 729.346 428.929C729.2 429.205 729.125 429.507 729.121 429.834L729.11 430.579C729.104 431.017 729.176 431.39 729.325 431.698C729.477 432.007 729.691 432.244 729.967 432.409C730.244 432.572 730.568 432.655 730.94 432.659C731.181 432.662 731.402 432.631 731.602 432.565C731.802 432.496 731.975 432.393 732.122 432.256C732.269 432.118 732.382 431.948 732.461 431.744L733.664 431.976C733.563 432.33 733.385 432.639 733.131 432.903C732.881 433.164 732.567 433.366 732.19 433.51C731.816 433.65 731.39 433.717 730.913 433.712ZM738.006 433.664L738.126 424.938L743.597 425.003L743.581 426.136L739.427 426.087L739.39 428.746L743.259 428.792L743.244 429.921L739.375 429.875L739.338 432.546L743.544 432.596L743.528 433.73L738.006 433.664ZM746.257 429.876L746.204 433.762L744.93 433.747L745.019 427.202L746.242 427.216L746.228 428.282L746.309 428.282C746.464 427.938 746.704 427.662 747.027 427.456C747.354 427.249 747.763 427.149 748.255 427.155C748.701 427.16 749.09 427.259 749.423 427.45C749.755 427.639 750.012 427.917 750.191 428.286C750.371 428.655 750.457 429.109 750.449 429.649L750.393 433.812L749.118 433.796L749.173 429.787C749.18 429.312 749.061 428.94 748.818 428.67C748.574 428.398 748.237 428.259 747.805 428.253C747.51 428.25 747.246 428.311 747.014 428.436C746.785 428.561 746.602 428.746 746.465 428.992C746.331 429.235 746.262 429.529 746.257 429.876ZM751.897 433.83L751.987 427.285L753.218 427.299L753.204 428.339L753.272 428.34C753.396 427.989 753.61 427.715 753.914 427.516C754.221 427.316 754.566 427.217 754.95 427.222C755.029 427.223 755.123 427.227 755.231 427.234C755.341 427.241 755.428 427.249 755.49 427.258L755.474 428.477C755.423 428.462 755.332 428.445 755.202 428.427C755.071 428.405 754.941 428.394 754.81 428.392C754.509 428.389 754.24 428.449 754.002 428.574C753.767 428.697 753.58 428.869 753.441 429.092C753.302 429.312 753.23 429.564 753.226 429.848L753.171 433.845L751.897 433.83ZM758.819 434.044C758.206 434.037 757.672 433.89 757.218 433.603C756.765 433.316 756.415 432.919 756.169 432.41C755.923 431.901 755.805 431.309 755.814 430.633C755.824 429.954 755.958 429.362 756.218 428.856C756.478 428.351 756.838 427.96 757.299 427.685C757.761 427.409 758.298 427.275 758.912 427.282C759.525 427.289 760.059 427.436 760.512 427.723C760.966 428.01 761.316 428.409 761.561 428.92C761.807 429.432 761.926 430.027 761.916 430.706C761.907 431.382 761.772 431.971 761.513 432.474C761.253 432.976 760.893 433.366 760.431 433.641C759.97 433.917 759.433 434.051 758.819 434.044ZM758.838 432.975C759.236 432.979 759.567 432.878 759.831 432.671C760.095 432.464 760.292 432.186 760.422 431.839C760.554 431.491 760.624 431.107 760.629 430.686C760.635 430.269 760.576 429.884 760.453 429.533C760.333 429.18 760.144 428.895 759.886 428.679C759.627 428.462 759.299 428.352 758.901 428.347C758.501 428.342 758.167 428.445 757.9 428.655C757.636 428.865 757.437 429.145 757.305 429.496C757.175 429.844 757.107 430.227 757.101 430.644C757.096 431.065 757.153 431.45 757.273 431.801C757.396 432.152 757.587 432.434 757.845 432.647C758.107 432.861 758.437 432.97 758.838 432.975ZM764.483 425.252L764.364 433.978L763.09 433.963L763.209 425.236L764.483 425.252ZM767.268 425.285L767.148 434.011L765.874 433.996L765.994 425.27L767.268 425.285ZM768.658 434.029L768.748 427.484L769.971 427.499L769.956 428.564L770.037 428.565C770.178 428.206 770.405 427.927 770.718 427.729C771.03 427.529 771.402 427.431 771.834 427.436C772.271 427.441 772.636 427.548 772.929 427.756C773.225 427.964 773.441 428.248 773.578 428.607L773.646 428.608C773.807 428.261 774.06 427.985 774.403 427.782C774.747 427.576 775.155 427.475 775.626 427.481C776.22 427.488 776.702 427.68 777.072 428.056C777.444 428.433 777.626 428.996 777.615 429.746L777.555 434.135L776.281 434.12L776.34 429.85C776.346 429.407 776.229 429.085 775.991 428.883C775.752 428.681 775.465 428.579 775.13 428.575C774.715 428.57 774.391 428.694 774.157 428.947C773.924 429.197 773.804 429.52 773.799 429.918L773.742 434.09L772.472 434.075L772.531 429.724C772.536 429.369 772.429 429.082 772.211 428.864C771.992 428.645 771.705 428.534 771.35 428.53C771.109 428.527 770.885 428.588 770.679 428.713C770.475 428.836 770.309 429.009 770.181 429.232C770.056 429.455 769.991 429.714 769.987 430.009L769.932 434.044L768.658 434.029ZM781.878 434.319C781.233 434.311 780.68 434.167 780.217 433.886C779.758 433.602 779.406 433.207 779.16 432.701C778.917 432.192 778.8 431.599 778.809 430.92C778.818 430.249 778.951 429.66 779.208 429.152C779.468 428.643 779.826 428.248 780.281 427.967C780.74 427.685 781.273 427.548 781.881 427.555C782.25 427.56 782.607 427.625 782.952 427.751C783.297 427.878 783.606 428.073 783.878 428.338C784.15 428.602 784.362 428.944 784.516 429.364C784.669 429.781 784.742 430.286 784.733 430.879L784.727 431.331L779.525 431.269L779.538 430.315L783.492 430.362C783.496 430.027 783.432 429.729 783.3 429.469C783.167 429.206 782.978 428.998 782.733 428.844C782.49 428.691 782.205 428.612 781.875 428.608C781.517 428.604 781.203 428.688 780.934 428.861C780.667 429.031 780.46 429.256 780.311 429.535C780.165 429.812 780.09 430.114 780.086 430.441L780.075 431.186C780.069 431.624 780.141 431.997 780.29 432.305C780.442 432.614 780.656 432.851 780.933 433.016C781.209 433.179 781.533 433.262 781.905 433.266C782.147 433.269 782.367 433.238 782.567 433.172C782.767 433.103 782.94 433 783.087 432.863C783.234 432.725 783.347 432.555 783.426 432.351L784.629 432.583C784.528 432.937 784.35 433.246 784.097 433.51C783.846 433.771 783.532 433.973 783.155 434.117C782.781 434.257 782.355 434.324 781.878 434.319ZM787.225 430.364L787.171 434.25L785.897 434.234L785.987 427.69L787.21 427.704L787.195 428.769L787.276 428.77C787.432 428.426 787.671 428.15 787.995 427.944C788.322 427.737 788.731 427.637 789.222 427.643C789.668 427.648 790.058 427.747 790.39 427.938C790.723 428.127 790.979 428.405 791.159 428.774C791.338 429.143 791.424 429.597 791.417 430.137L791.36 434.299L790.086 434.284L790.141 430.275C790.147 429.8 790.029 429.428 789.785 429.158C789.542 428.885 789.204 428.746 788.773 428.741C788.477 428.738 788.213 428.799 787.982 428.924C787.753 429.049 787.57 429.234 787.433 429.48C787.299 429.722 787.229 430.017 787.225 430.364ZM796.01 427.809L795.996 428.832L792.42 428.789L792.434 427.766L796.01 427.809ZM793.415 426.21L794.689 426.225L794.604 432.416C794.601 432.663 794.635 432.85 794.707 432.976C794.779 433.099 794.873 433.184 794.989 433.23C795.108 433.274 795.237 433.297 795.376 433.299C795.478 433.3 795.568 433.294 795.645 433.281C795.722 433.268 795.782 433.257 795.824 433.249L796.04 434.304C795.966 434.332 795.86 434.359 795.723 434.386C795.587 434.415 795.416 434.43 795.211 434.431C794.876 434.432 794.564 434.369 794.276 434.24C793.988 434.112 793.757 433.916 793.581 433.653C793.406 433.389 793.321 433.06 793.326 432.665L793.415 426.21Z" fill="#F7F8F8"/>
</g>
<path d="M310.044 136.752L310.164 128.025L313.112 128.06C313.794 128.068 314.352 128.192 314.786 128.43C315.221 128.665 315.54 128.986 315.745 129.392C315.95 129.797 316.048 130.257 316.041 130.772C316.034 131.286 315.923 131.74 315.707 132.136C315.492 132.531 315.165 132.839 314.727 133.061C314.29 133.281 313.733 133.386 313.057 133.378L310.67 133.35L310.683 132.395L313.036 132.423C313.501 132.429 313.877 132.365 314.163 132.232C314.452 132.099 314.662 131.909 314.793 131.66C314.927 131.409 314.997 131.109 315.002 130.759C315.007 130.41 314.945 130.104 314.818 129.841C314.691 129.578 314.485 129.374 314.2 129.228C313.915 129.08 313.537 129.003 313.065 128.997L311.208 128.975L311.101 136.764L310.044 136.752ZM314.206 132.881L316.299 136.826L315.072 136.812L313.012 132.866L314.206 132.881ZM320.051 137.007C319.42 137 318.878 136.854 318.425 136.57C317.974 136.284 317.629 135.887 317.388 135.382C317.151 134.873 317.037 134.284 317.046 133.613C317.055 132.943 317.186 132.353 317.437 131.845C317.691 131.334 318.04 130.937 318.484 130.656C318.932 130.371 319.451 130.233 320.041 130.24C320.382 130.244 320.718 130.304 321.049 130.422C321.38 130.54 321.68 130.728 321.949 130.987C322.218 131.243 322.431 131.581 322.587 132C322.743 132.42 322.817 132.935 322.809 133.546L322.803 133.972L317.758 133.912L317.77 133.042L321.792 133.09C321.797 132.721 321.728 132.391 321.584 132.099C321.443 131.808 321.239 131.576 320.972 131.406C320.707 131.235 320.393 131.147 320.029 131.143C319.629 131.138 319.281 131.233 318.985 131.429C318.693 131.621 318.466 131.874 318.306 132.188C318.145 132.501 318.063 132.838 318.058 133.199L318.05 133.779C318.043 134.273 318.122 134.693 318.288 135.039C318.457 135.382 318.693 135.644 318.998 135.827C319.302 136.007 319.657 136.099 320.063 136.104C320.328 136.107 320.567 136.073 320.781 136.002C320.998 135.928 321.185 135.816 321.344 135.667C321.502 135.516 321.625 135.327 321.714 135.101L322.681 135.385C322.575 135.713 322.399 136.001 322.154 136.248C321.909 136.492 321.608 136.682 321.251 136.817C320.894 136.949 320.494 137.013 320.051 137.007ZM328.794 131.895L327.887 132.14C327.833 131.989 327.751 131.841 327.642 131.698C327.536 131.552 327.39 131.431 327.204 131.335C327.018 131.239 326.778 131.189 326.486 131.186C326.085 131.181 325.75 131.269 325.48 131.451C325.214 131.629 325.079 131.859 325.075 132.141C325.071 132.391 325.159 132.589 325.339 132.736C325.519 132.883 325.802 133.007 326.187 133.108L327.155 133.359C327.738 133.508 328.171 133.73 328.454 134.026C328.737 134.319 328.875 134.695 328.869 135.152C328.864 135.527 328.751 135.861 328.531 136.154C328.314 136.446 328.013 136.676 327.627 136.842C327.241 137.008 326.794 137.088 326.286 137.081C325.618 137.074 325.067 136.922 324.634 136.627C324.2 136.332 323.929 135.906 323.82 135.347L324.778 135.12C324.864 135.474 325.033 135.74 325.283 135.919C325.536 136.098 325.869 136.19 326.281 136.195C326.749 136.201 327.123 136.106 327.401 135.91C327.682 135.712 327.825 135.472 327.829 135.191C327.832 134.963 327.755 134.772 327.598 134.617C327.441 134.459 327.198 134.339 326.87 134.259L325.782 133.99C325.185 133.841 324.748 133.615 324.47 133.314C324.196 133.009 324.062 132.631 324.068 132.18C324.073 131.81 324.182 131.485 324.393 131.203C324.607 130.922 324.895 130.702 325.258 130.545C325.624 130.387 326.037 130.311 326.498 130.316C327.145 130.324 327.652 130.472 328.017 130.761C328.385 131.049 328.644 131.427 328.794 131.895ZM334.315 134.364L334.368 130.495L335.374 130.507L335.284 137.052L334.279 137.04L334.294 135.932L334.226 135.932C334.068 136.262 333.825 136.542 333.498 136.771C333.171 136.997 332.76 137.107 332.266 137.102C331.857 137.097 331.495 137.003 331.179 136.82C330.863 136.635 330.617 136.359 330.44 135.993C330.263 135.624 330.179 135.162 330.186 134.605L330.243 130.446L331.249 130.458L331.193 134.549C331.187 135.026 331.315 135.408 331.578 135.696C331.844 135.983 332.186 136.129 332.603 136.134C332.853 136.137 333.108 136.076 333.369 135.951C333.632 135.827 333.853 135.633 334.033 135.371C334.215 135.109 334.31 134.773 334.315 134.364ZM336.922 137.072L337.012 130.527L337.983 130.538L337.969 131.561L338.054 131.562C338.195 131.214 338.419 130.946 338.726 130.756C339.033 130.564 339.399 130.47 339.825 130.475C340.257 130.48 340.615 130.583 340.899 130.782C341.186 130.979 341.408 131.253 341.565 131.604L341.634 131.605C341.806 131.269 342.061 131.003 342.399 130.808C342.737 130.611 343.14 130.515 343.609 130.52C344.194 130.527 344.67 130.716 345.037 131.087C345.405 131.455 345.583 132.024 345.572 132.794L345.512 137.174L344.507 137.162L344.567 132.782C344.573 132.299 344.446 131.952 344.185 131.742C343.923 131.531 343.614 131.424 343.256 131.42C342.795 131.414 342.437 131.549 342.18 131.824C341.924 132.097 341.793 132.445 341.787 132.868L341.728 137.129L340.706 137.117L340.767 132.634C340.772 132.262 340.656 131.961 340.417 131.731C340.179 131.498 339.87 131.379 339.489 131.375C339.228 131.372 338.982 131.438 338.753 131.575C338.527 131.711 338.342 131.902 338.2 132.148C338.06 132.39 337.988 132.672 337.984 132.993L337.928 137.084L336.922 137.072ZM349.889 137.363C349.259 137.355 348.717 137.209 348.263 136.926C347.812 136.639 347.467 136.243 347.227 135.737C346.989 135.228 346.875 134.639 346.884 133.969C346.893 133.298 347.024 132.709 347.275 132.2C347.529 131.689 347.878 131.293 348.323 131.011C348.77 130.727 349.289 130.588 349.88 130.595C350.22 130.599 350.556 130.66 350.887 130.777C351.218 130.895 351.518 131.083 351.787 131.342C352.056 131.598 352.269 131.936 352.425 132.355C352.582 132.775 352.655 133.29 352.647 133.901L352.641 134.327L347.596 134.267L347.608 133.398L351.631 133.446C351.636 133.076 351.566 132.746 351.422 132.454C351.282 132.163 351.077 131.932 350.81 131.761C350.545 131.59 350.231 131.503 349.867 131.498C349.467 131.493 349.119 131.589 348.823 131.784C348.531 131.977 348.305 132.23 348.144 132.543C347.983 132.857 347.901 133.194 347.896 133.554L347.888 134.134C347.881 134.628 347.961 135.048 348.126 135.394C348.295 135.737 348.531 136 348.836 136.182C349.14 136.362 349.495 136.454 349.902 136.459C350.166 136.462 350.405 136.428 350.619 136.357C350.836 136.283 351.024 136.171 351.182 136.023C351.34 135.871 351.464 135.682 351.552 135.456L352.52 135.74C352.413 136.069 352.237 136.356 351.992 136.603C351.747 136.848 351.446 137.037 351.089 137.172C350.732 137.304 350.332 137.368 349.889 137.363ZM357.234 137.314L357.353 128.587L360.404 128.624C361.012 128.631 361.512 128.742 361.904 128.957C362.296 129.169 362.586 129.452 362.775 129.807C362.963 130.158 363.054 130.547 363.049 130.973C363.043 131.348 362.972 131.657 362.836 131.9C362.702 132.143 362.526 132.334 362.308 132.473C362.093 132.613 361.86 132.715 361.609 132.78L361.608 132.865C361.875 132.886 362.142 132.983 362.409 133.156C362.677 133.33 362.899 133.577 363.077 133.897C363.254 134.218 363.34 134.608 363.333 135.068C363.327 135.505 363.223 135.898 363.019 136.245C362.815 136.592 362.498 136.865 362.066 137.064C361.634 137.264 361.075 137.359 360.387 137.351L357.234 137.314ZM358.304 136.389L360.4 136.414C361.09 136.422 361.582 136.294 361.876 136.031C362.172 135.764 362.323 135.439 362.328 135.056C362.332 134.761 362.26 134.487 362.113 134.235C361.966 133.981 361.754 133.776 361.478 133.622C361.202 133.466 360.873 133.385 360.493 133.381L358.345 133.355L358.304 136.389ZM358.358 132.435L360.318 132.458C360.636 132.462 360.924 132.403 361.181 132.281C361.441 132.159 361.648 131.985 361.802 131.76C361.958 131.534 362.039 131.268 362.043 130.961C362.048 130.578 361.919 130.251 361.656 129.981C361.392 129.708 360.971 129.568 360.392 129.561L358.397 129.537L358.358 132.435ZM368.859 134.776L368.912 130.907L369.918 130.919L369.828 137.464L368.822 137.452L368.838 136.344L368.769 136.343C368.612 136.674 368.369 136.953 368.042 137.182C367.715 137.409 367.304 137.519 366.81 137.513C366.401 137.508 366.039 137.414 365.723 137.231C365.407 137.046 365.161 136.77 364.984 136.404C364.807 136.036 364.723 135.573 364.73 135.016L364.787 130.858L365.793 130.87L365.737 134.96C365.73 135.437 365.859 135.82 366.122 136.107C366.388 136.394 366.73 136.54 367.147 136.545C367.397 136.548 367.652 136.487 367.913 136.363C368.176 136.238 368.397 136.044 368.577 135.782C368.759 135.52 368.854 135.185 368.859 134.776ZM371.466 137.483L371.556 130.938L372.561 130.95L372.472 137.495L371.466 137.483ZM372.082 129.854C371.886 129.851 371.718 129.782 371.577 129.647C371.44 129.512 371.373 129.351 371.375 129.163C371.378 128.976 371.45 128.816 371.591 128.684C371.735 128.552 371.904 128.488 372.1 128.49C372.296 128.492 372.463 128.561 372.601 128.696C372.741 128.832 372.81 128.993 372.807 129.18C372.804 129.368 372.731 129.527 372.587 129.659C372.446 129.791 372.278 129.856 372.082 129.854ZM375.234 128.8L375.115 137.527L374.109 137.515L374.229 128.788L375.234 128.8ZM379.222 137.712C378.677 137.705 378.197 137.562 377.784 137.281C377.37 136.998 377.049 136.602 376.82 136.094C376.591 135.582 376.481 134.98 376.491 134.287C376.5 133.6 376.626 133.004 376.869 132.502C377.112 131.999 377.445 131.612 377.869 131.342C378.293 131.071 378.781 130.939 379.332 130.946C379.758 130.951 380.094 131.026 380.339 131.171C380.587 131.313 380.775 131.474 380.904 131.655C381.035 131.832 381.136 131.979 381.209 132.093L381.294 132.094L381.338 128.873L382.344 128.885L382.224 137.611L381.253 137.6L381.266 136.594L381.147 136.593C381.072 136.711 380.964 136.86 380.826 137.041C380.687 137.218 380.49 137.376 380.235 137.515C379.98 137.651 379.643 137.717 379.222 137.712ZM379.371 136.81C379.775 136.815 380.117 136.714 380.398 136.507C380.679 136.297 380.895 136.006 381.045 135.633C381.195 135.257 381.274 134.821 381.28 134.327C381.287 133.838 381.222 133.41 381.085 133.042C380.948 132.671 380.742 132.382 380.466 132.174C380.19 131.963 379.848 131.855 379.439 131.85C379.013 131.845 378.656 131.95 378.369 132.166C378.085 132.378 377.869 132.67 377.722 133.04C377.578 133.408 377.503 133.822 377.497 134.282C377.49 134.748 377.555 135.172 377.692 135.554C377.832 135.934 378.041 136.237 378.319 136.465C378.6 136.69 378.951 136.805 379.371 136.81ZM384.002 137.632L384.091 131.088L385.097 131.1L385.007 137.644L384.002 137.632ZM384.617 130.003C384.421 130.001 384.253 129.932 384.113 129.797C383.976 129.661 383.908 129.5 383.911 129.313C383.913 129.125 383.985 128.965 384.126 128.834C384.27 128.702 384.44 128.637 384.636 128.639C384.832 128.642 384.999 128.71 385.136 128.846C385.276 128.981 385.345 129.142 385.343 129.33C385.34 129.517 385.267 129.677 385.123 129.809C384.982 129.94 384.813 130.005 384.617 130.003ZM387.704 133.739L387.651 137.676L386.645 137.664L386.735 131.119L387.706 131.131L387.692 132.153L387.777 132.154C387.935 131.824 388.172 131.559 388.487 131.362C388.802 131.161 389.207 131.063 389.701 131.069C390.145 131.074 390.531 131.17 390.861 131.356C391.191 131.539 391.446 131.814 391.625 132.183C391.805 132.549 391.891 133.01 391.883 133.567L391.826 137.726L390.821 137.714L390.877 133.623C390.884 133.109 390.756 132.707 390.493 132.417C390.23 132.124 389.865 131.975 389.399 131.969C389.078 131.965 388.79 132.031 388.536 132.168C388.284 132.304 388.084 132.505 387.935 132.77C387.787 133.035 387.71 133.358 387.704 133.739ZM396.066 140.367C395.581 140.361 395.164 140.294 394.816 140.165C394.469 140.038 394.18 139.873 393.949 139.669C393.722 139.467 393.542 139.252 393.408 139.023L394.217 138.47C394.306 138.59 394.42 138.728 394.557 138.883C394.694 139.041 394.882 139.178 395.122 139.295C395.365 139.414 395.684 139.476 396.079 139.481C396.607 139.487 397.045 139.365 397.392 139.113C397.739 138.861 397.917 138.463 397.924 137.918L397.942 136.588L397.857 136.587C397.781 136.706 397.674 136.852 397.536 137.026C397.4 137.198 397.204 137.351 396.95 137.484C396.698 137.615 396.359 137.677 395.933 137.672C395.404 137.666 394.932 137.535 394.515 137.28C394.101 137.025 393.775 136.658 393.537 136.178C393.302 135.698 393.189 135.117 393.198 134.435C393.208 133.764 393.334 133.182 393.576 132.688C393.819 132.191 394.152 131.808 394.576 131.541C395.001 131.27 395.488 131.138 396.039 131.145C396.465 131.15 396.802 131.225 397.05 131.37C397.301 131.512 397.492 131.673 397.623 131.854C397.757 132.032 397.861 132.178 397.933 132.292L398.035 132.293L398.049 131.254L399.021 131.265L398.929 137.998C398.921 138.56 398.787 139.016 398.526 139.365C398.269 139.717 397.924 139.973 397.493 140.133C397.065 140.295 396.589 140.373 396.066 140.367ZM396.082 136.771C396.485 136.775 396.827 136.687 397.108 136.506C397.389 136.324 397.604 136.061 397.754 135.716C397.903 135.372 397.982 134.958 397.988 134.475C397.995 134.003 397.929 133.586 397.792 133.224C397.655 132.861 397.449 132.576 397.173 132.368C396.898 132.161 396.555 132.054 396.146 132.049C395.72 132.044 395.364 132.148 395.076 132.361C394.792 132.573 394.577 132.86 394.43 133.222C394.286 133.584 394.21 133.987 394.204 134.43C394.198 134.884 394.264 135.287 394.401 135.638C394.541 135.986 394.75 136.262 395.029 136.464C395.31 136.663 395.661 136.766 396.082 136.771Z" fill="#F7F8F8"/>
<g filter="url(#filter1_d_239_5902)">
<path d="M134.914 12.9308L133.858 12.9182C133.799 12.6135 133.694 12.3452 133.541 12.1132C133.39 11.8813 133.205 11.6859 132.986 11.527C132.769 11.3653 132.528 11.2431 132.262 11.1604C131.996 11.0777 131.719 11.0346 131.429 11.0312C130.9 11.0249 130.42 11.1527 129.987 11.4146C129.558 11.6766 129.213 12.0659 128.953 12.5828C128.696 13.0996 128.562 13.7359 128.552 14.4915C128.541 15.2471 128.658 15.8863 128.9 16.4091C129.146 16.932 129.48 17.3294 129.903 17.6015C130.328 17.8737 130.805 18.0129 131.333 18.0192C131.623 18.0226 131.902 17.9862 132.17 17.9098C132.438 17.8334 132.683 17.7184 132.903 17.5648C133.127 17.4084 133.317 17.216 133.474 16.9878C133.633 16.7567 133.746 16.491 133.813 16.1906L134.87 16.2032C134.784 16.6482 134.634 17.0456 134.419 17.3953C134.204 17.7451 133.938 18.0417 133.622 18.2851C133.306 18.5256 132.953 18.7075 132.562 18.8307C132.174 18.954 131.76 19.0129 131.32 19.0077C130.575 18.9988 129.916 18.8092 129.341 18.4387C128.767 18.0681 128.318 17.5457 127.995 16.8714C127.672 16.197 127.516 15.3997 127.529 14.4793C127.542 13.5589 127.719 12.7655 128.06 12.0991C128.402 11.4327 128.865 10.9211 129.449 10.5644C130.034 10.2077 130.698 10.0338 131.442 10.0426C131.883 10.0479 132.295 10.1167 132.68 10.2491C133.067 10.3816 133.415 10.5733 133.724 10.8241C134.034 11.0721 134.291 11.3735 134.496 11.7283C134.702 12.0802 134.841 12.481 134.914 12.9308ZM136.2 18.9465L136.289 12.4016L137.261 12.4132L137.247 13.4018L137.315 13.4026C137.439 13.0802 137.659 12.82 137.974 12.622C138.289 12.424 138.643 12.3274 139.035 12.3321C139.109 12.3329 139.201 12.3355 139.312 12.3396C139.422 12.3438 139.506 12.349 139.563 12.3554L139.549 13.378C139.515 13.3691 139.437 13.3554 139.315 13.3369C139.196 13.3156 139.07 13.3041 138.936 13.3025C138.618 13.2988 138.333 13.3621 138.081 13.4927C137.832 13.6204 137.634 13.7999 137.486 14.0311C137.341 14.2595 137.266 14.5214 137.262 14.8168L137.205 18.9585L136.2 18.9465ZM142.384 19.1736C141.969 19.1686 141.594 19.086 141.258 18.9258C140.922 18.7627 140.657 18.5308 140.462 18.2301C140.267 17.9267 140.173 17.5619 140.179 17.1358C140.184 16.7608 140.262 16.4578 140.413 16.2266C140.564 15.9926 140.764 15.8103 141.013 15.6797C141.262 15.5491 141.536 15.453 141.835 15.3912C142.137 15.3266 142.44 15.2762 142.745 15.2401C143.143 15.1937 143.466 15.1592 143.714 15.1366C143.964 15.1111 144.146 15.0664 144.261 15.0024C144.378 14.9385 144.438 14.8256 144.44 14.6636L144.441 14.6295C144.447 14.2091 144.336 13.8811 144.109 13.6454C143.885 13.4098 143.541 13.2892 143.078 13.2837C142.598 13.278 142.22 13.3786 141.945 13.5856C141.669 13.7925 141.474 14.0146 141.36 14.2519L140.411 13.8997C140.586 13.504 140.818 13.1971 141.105 12.9789C141.395 12.7579 141.71 12.6054 142.049 12.5214C142.391 12.4345 142.727 12.3931 143.056 12.397C143.267 12.3995 143.508 12.4279 143.78 12.4823C144.055 12.5339 144.319 12.6379 144.572 12.7943C144.829 12.9508 145.04 13.1849 145.206 13.4965C145.373 13.8082 145.452 14.2239 145.445 14.7438L145.386 19.0559L144.38 19.0439L144.392 18.1576L144.341 18.157C144.271 18.2982 144.156 18.4489 143.994 18.6089C143.833 18.7689 143.619 18.9042 143.354 19.0146C143.088 19.1251 142.765 19.1781 142.384 19.1736ZM142.55 18.2721C142.948 18.2768 143.284 18.2027 143.559 18.0497C143.836 17.8967 144.046 17.6975 144.189 17.452C144.334 17.2066 144.409 16.9475 144.413 16.6748L144.425 15.7544C144.382 15.8051 144.288 15.8508 144.142 15.8917C144 15.9298 143.834 15.9633 143.646 15.9923C143.461 16.0186 143.281 16.042 143.104 16.0626C142.931 16.0804 142.79 16.0958 142.682 16.1087C142.42 16.1397 142.175 16.1922 141.947 16.2662C141.721 16.3373 141.538 16.4474 141.397 16.5963C141.258 16.7424 141.187 16.9432 141.184 17.1989C141.179 17.5483 141.305 17.814 141.561 17.9961C141.82 18.1753 142.149 18.2673 142.55 18.2721ZM149.674 19.2433C149.061 19.236 148.534 19.0849 148.095 18.7898C147.656 18.4948 147.321 18.0916 147.089 17.5803C146.857 17.069 146.746 16.4867 146.755 15.8333C146.764 15.1686 146.894 14.5835 147.145 14.0779C147.4 13.5695 147.749 13.1745 148.193 12.8929C148.64 12.6084 149.159 12.4697 149.75 12.4767C150.21 12.4822 150.624 12.5724 150.991 12.7472C151.358 12.922 151.657 13.1642 151.889 13.4738C152.12 13.7834 152.262 14.1431 152.313 14.5528L151.307 14.5409C151.235 14.2417 151.068 13.9755 150.807 13.7422C150.549 13.5062 150.198 13.3855 149.755 13.3802C149.363 13.3756 149.018 13.4737 148.719 13.6747C148.424 13.873 148.191 14.1557 148.022 14.523C147.855 14.8875 147.768 15.3169 147.761 15.8112C147.754 16.3168 147.828 16.7581 147.982 17.135C148.138 17.5118 148.362 17.8057 148.651 18.0166C148.944 18.2275 149.289 18.3353 149.687 18.34C149.948 18.3431 150.186 18.3005 150.4 18.2121C150.615 18.1238 150.797 17.9952 150.947 17.8266C151.097 17.6579 151.205 17.4546 151.271 17.2167L152.276 17.2287C152.214 17.6144 152.069 17.9607 151.84 18.2676C151.614 18.5718 151.317 18.8126 150.948 18.99C150.582 19.1646 150.157 19.2491 149.674 19.2433ZM154.486 16.7777L154.486 15.5333L154.691 15.5358L157.594 12.6554L158.838 12.6702L155.745 15.7188L155.66 15.7178L154.486 16.7777ZM153.516 19.1527L153.636 10.4262L154.641 10.4382L154.522 19.1647L153.516 19.1527ZM157.675 19.2022L155.163 15.9334L155.888 15.2432L158.953 19.2175L157.675 19.2022ZM164.322 10.5535L164.203 19.28L163.146 19.2674L163.266 10.5409L164.322 10.5535ZM167.041 15.376L166.987 19.3131L165.981 19.3011L166.071 12.7563L167.042 12.7679L167.028 13.7905L167.114 13.7915C167.272 13.461 167.508 13.1967 167.823 12.9988C168.139 12.798 168.543 12.7005 169.038 12.7064C169.481 12.7117 169.867 12.8072 170.197 12.993C170.527 13.1759 170.782 13.4517 170.962 13.8203C171.141 14.1861 171.227 14.6474 171.22 15.2041L171.163 19.3628L170.157 19.3509L170.213 15.2603C170.22 14.7462 170.092 14.3441 169.829 14.054C169.566 13.7611 169.202 13.6118 168.736 13.6063C168.415 13.6025 168.127 13.6686 167.872 13.8048C167.62 13.941 167.42 14.1418 167.271 14.4071C167.123 14.6724 167.046 14.9953 167.041 15.376ZM175.732 12.8714L175.721 13.7236L172.329 13.6832L172.341 12.831L175.732 12.8714ZM173.351 11.2747L174.356 11.2867L174.271 17.5247C174.267 17.8088 174.305 18.0223 174.386 18.1653C174.469 18.3056 174.576 18.4006 174.706 18.4504C174.838 18.4975 174.979 18.5219 175.127 18.5236C175.237 18.5249 175.328 18.5203 175.399 18.5098C175.471 18.4965 175.528 18.4858 175.57 18.4778L175.763 19.3835C175.694 19.4083 175.598 19.4327 175.476 19.4568C175.353 19.4838 175.198 19.4961 175.011 19.4939C174.727 19.4905 174.449 19.4261 174.178 19.3007C173.91 19.1754 173.688 18.9866 173.513 18.7345C173.34 18.4825 173.256 18.1661 173.261 17.7855L173.351 11.2747ZM179.623 19.6C178.993 19.5925 178.451 19.4468 177.997 19.163C177.546 18.8763 177.201 18.4801 176.961 17.9744C176.723 17.4659 176.609 16.8764 176.618 16.206C176.628 15.5356 176.758 14.9462 177.009 14.4378C177.263 13.9266 177.613 13.5302 178.057 13.2485C178.504 12.964 179.023 12.8253 179.614 12.8323C179.955 12.8364 180.29 12.8972 180.621 13.0148C180.952 13.1324 181.252 13.3206 181.521 13.5795C181.791 13.8356 182.003 14.1734 182.159 14.5929C182.316 15.0124 182.39 15.5275 182.381 16.1383L182.375 16.5644L177.33 16.5043L177.342 15.635L181.365 15.6829C181.37 15.3137 181.3 14.9833 181.157 14.6918C181.016 14.4003 180.811 14.1691 180.544 13.9983C180.279 13.8276 179.965 13.74 179.601 13.7357C179.201 13.7309 178.853 13.8262 178.558 14.0216C178.265 14.2141 178.039 14.4671 177.878 14.7806C177.718 15.094 177.635 15.4311 177.63 15.7919L177.622 16.3714C177.615 16.8656 177.695 17.2857 177.86 17.6314C178.029 17.9743 178.266 18.2371 178.57 18.4197C178.874 18.5995 179.23 18.6918 179.636 18.6967C179.9 18.6998 180.139 18.6657 180.353 18.5944C180.57 18.5203 180.758 18.4089 180.916 18.2602C181.074 18.1086 181.198 17.9197 181.286 17.6935L182.254 17.9778C182.147 18.3061 181.971 18.5938 181.726 18.8409C181.481 19.0851 181.181 19.2747 180.824 19.4097C180.467 19.5418 180.067 19.6053 179.623 19.6ZM183.661 19.5117L183.751 12.9668L184.722 12.9784L184.709 13.967L184.777 13.9678C184.901 13.6454 185.12 13.3852 185.435 13.1872C185.751 12.9892 186.104 12.8926 186.496 12.8973C186.57 12.8981 186.662 12.9007 186.773 12.9048C186.884 12.909 186.968 12.9142 187.024 12.9206L187.01 13.9432C186.976 13.9343 186.898 13.9206 186.776 13.9021C186.657 13.8808 186.531 13.8693 186.398 13.8677C186.079 13.864 185.794 13.9273 185.543 14.0579C185.294 14.1856 185.095 14.3651 184.947 14.5963C184.802 14.8247 184.727 15.0866 184.723 15.382L184.667 19.5237L183.661 19.5117ZM193.562 13.0837L191.052 19.5997L190.03 19.5875L187.699 13.0139L188.79 13.0269L190.525 18.2638L190.593 18.2646L192.471 13.0707L193.562 13.0837ZM194.596 19.6419L194.686 13.0971L195.691 13.109L195.602 19.6539L194.596 19.6419ZM195.212 12.0123C195.016 12.01 194.848 11.9412 194.708 11.806C194.57 11.6709 194.503 11.5096 194.505 11.3221C194.508 11.1346 194.58 10.9749 194.721 10.8431C194.865 10.7112 195.035 10.6465 195.231 10.6488C195.427 10.6512 195.593 10.7199 195.731 10.8551C195.871 10.9903 195.94 11.1516 195.937 11.3391C195.934 11.5266 195.861 11.6863 195.717 11.8181C195.576 11.9499 195.408 12.0147 195.212 12.0123ZM199.982 19.8424C199.351 19.8349 198.809 19.6892 198.355 19.4054C197.905 19.1188 197.559 18.7226 197.319 18.2168C197.082 17.7083 196.968 17.1188 196.977 16.4484C196.986 15.7781 197.116 15.1887 197.367 14.6802C197.622 14.169 197.971 13.7726 198.415 13.4909C198.862 13.2065 199.381 13.0677 199.972 13.0748C200.313 13.0788 200.649 13.1397 200.98 13.2573C201.31 13.3748 201.61 13.5631 201.88 13.822C202.149 14.078 202.362 14.4158 202.518 14.8353C202.674 15.2548 202.748 15.77 202.74 16.3807L202.734 16.8068L197.689 16.7467L197.701 15.8775L201.723 15.9254C201.728 15.5561 201.659 15.2257 201.515 14.9342C201.374 14.6427 201.17 14.4116 200.902 14.2408C200.638 14.07 200.323 13.9824 199.96 13.9781C199.559 13.9733 199.211 14.0686 198.916 14.264C198.624 14.4566 198.397 14.7096 198.236 15.023C198.076 15.3365 197.993 15.6736 197.988 16.0343L197.98 16.6138C197.974 17.1081 198.053 17.5281 198.219 17.8738C198.387 18.2168 198.624 18.4796 198.928 18.6622C199.233 18.8419 199.588 18.9343 199.994 18.9391C200.258 18.9422 200.497 18.9081 200.711 18.8368C200.928 18.7627 201.116 18.6513 201.274 18.5026C201.433 18.3511 201.556 18.1622 201.644 17.9359L202.612 18.2202C202.505 18.5485 202.33 18.8362 202.085 19.0833C201.84 19.3276 201.539 19.5172 201.182 19.6521C200.825 19.7843 200.425 19.8477 199.982 19.8424ZM205.502 19.7718L203.598 13.2032L204.654 13.2158L206 18.2435L206.069 18.2443L207.535 13.2501L208.609 13.2629L209.921 18.2732L209.989 18.274L211.472 13.297L212.529 13.3096L210.445 19.8306L209.456 19.8189L208.094 14.7739L207.991 14.7727L206.491 19.7836L205.502 19.7718ZM218.218 19.9232L216.314 13.3546L217.37 13.3672L218.717 18.3949L218.785 18.3958L220.251 13.4015L221.325 13.4143L222.637 18.4246L222.705 18.4254L224.188 13.4484L225.245 13.461L223.161 19.9821L222.173 19.9703L220.81 14.9253L220.707 14.9241L219.207 19.935L218.218 19.9232ZM226.281 20.0192L226.37 13.4744L227.376 13.4864L227.286 20.0312L226.281 20.0192ZM226.897 12.3897C226.701 12.3873 226.533 12.3186 226.392 12.1834C226.255 12.0482 226.188 11.8869 226.19 11.6994C226.193 11.5119 226.264 11.3522 226.406 11.2204C226.549 11.0886 226.719 11.0238 226.915 11.0262C227.111 11.0285 227.278 11.0972 227.415 11.2324C227.556 11.3676 227.624 11.529 227.622 11.7164C227.619 11.9039 227.546 12.0636 227.402 12.1954C227.261 12.3272 227.093 12.392 226.897 12.3897ZM231.86 13.5398L231.849 14.392L228.457 14.3516L228.468 13.4994L231.86 13.5398ZM229.478 11.9431L230.484 11.9551L230.399 18.1931C230.395 18.4772 230.433 18.6907 230.514 18.8338C230.597 18.974 230.703 19.069 230.834 19.1188C230.966 19.1659 231.107 19.1903 231.254 19.192C231.365 19.1933 231.456 19.1888 231.527 19.1782C231.599 19.1649 231.656 19.1542 231.698 19.1462L231.89 20.0519C231.822 20.0767 231.726 20.1011 231.604 20.1252C231.481 20.1522 231.326 20.1645 231.139 20.1623C230.855 20.1589 230.577 20.0945 230.306 19.9691C230.038 19.8438 229.816 19.655 229.641 19.4029C229.468 19.1509 229.384 18.8345 229.389 18.4539L229.478 11.9431ZM234.279 16.1767L234.226 20.1138L233.22 20.1019L233.339 11.3754L234.345 11.3874L234.301 14.5916L234.386 14.5926C234.544 14.2564 234.778 13.9907 235.088 13.7955C235.4 13.5975 235.813 13.5016 236.328 13.5077C236.774 13.513 237.163 13.6072 237.496 13.7901C237.828 13.9702 238.085 14.2446 238.264 14.6133C238.447 14.9791 238.534 15.4432 238.527 16.0057L238.47 20.1644L237.464 20.1524L237.52 16.0619C237.527 15.542 237.398 15.1385 237.132 14.8512C236.869 14.5611 236.5 14.4133 236.025 14.4076C235.696 14.4037 235.4 14.4698 235.136 14.6058C234.876 14.7419 234.669 14.9426 234.514 15.2078C234.363 15.4731 234.285 15.7961 234.279 16.1767ZM243.532 11.4968L244.793 11.5118L247.66 18.7908L247.762 18.792L250.827 11.5837L252.088 11.5987L251.969 20.3251L250.98 20.3134L251.071 13.6833L250.986 13.6823L248.168 20.2799L247.213 20.2685L244.577 13.606L244.492 13.605L244.401 20.235L243.412 20.2232L243.532 11.4968ZM256.404 20.5143C255.813 20.5073 255.297 20.3605 254.855 20.074C254.415 19.7875 254.074 19.3899 253.831 18.8813C253.591 18.3727 253.475 17.7804 253.485 17.1043C253.494 16.4226 253.626 15.8289 253.88 15.3234C254.137 14.8179 254.489 14.4272 254.936 14.1512C255.386 13.8753 255.906 13.7409 256.497 13.7479C257.088 13.755 257.603 13.9017 258.042 14.1882C258.484 14.4748 258.825 14.8737 259.066 15.3851C259.309 15.8966 259.425 16.4932 259.416 17.175C259.407 17.851 259.274 18.4404 259.017 18.9431C258.763 19.4457 258.411 19.835 257.961 20.111C257.514 20.3869 256.995 20.5214 256.404 20.5143ZM256.417 19.611C256.865 19.6163 257.236 19.5057 257.529 19.2791C257.822 19.0524 258.041 18.7524 258.185 18.3791C258.329 18.0058 258.404 17.6004 258.41 17.163C258.416 16.7255 258.352 16.3171 258.218 15.9376C258.084 15.5581 257.874 15.2502 257.588 15.0138C257.301 14.7774 256.933 14.6566 256.484 14.6512C256.036 14.6459 255.665 14.758 255.372 14.9874C255.079 15.2169 254.86 15.5197 254.716 15.8959C254.571 16.272 254.496 16.6788 254.49 17.1163C254.484 17.5538 254.548 17.9608 254.682 18.3374C254.816 18.714 255.027 19.0191 255.313 19.2527C255.6 19.4862 255.968 19.6057 256.417 19.611ZM263.36 20.5972C262.746 20.5899 262.22 20.4387 261.781 20.1437C261.341 19.8486 261.006 19.4455 260.774 18.9342C260.543 18.4228 260.431 17.8405 260.44 17.1872C260.449 16.5224 260.58 15.9373 260.831 15.4317C261.085 14.9234 261.434 14.5284 261.878 14.2467C262.326 13.9622 262.845 13.8235 263.435 13.8305C263.896 13.836 264.309 13.9262 264.676 14.101C265.043 14.2759 265.342 14.5181 265.574 14.8277C265.806 15.1373 265.947 15.4969 265.998 15.9067L264.993 15.8947C264.92 15.5955 264.753 15.3293 264.492 15.0961C264.234 14.86 263.883 14.7393 263.44 14.7341C263.048 14.7294 262.703 14.8276 262.405 15.0286C262.109 15.2268 261.877 15.5095 261.707 15.8769C261.54 16.2414 261.453 16.6708 261.446 17.165C261.439 17.6707 261.513 18.1119 261.667 18.4888C261.824 18.8657 262.047 19.1596 262.337 19.3704C262.629 19.5813 262.974 19.6891 263.372 19.6938C263.634 19.6969 263.871 19.6543 264.086 19.566C264.3 19.4776 264.482 19.3491 264.632 19.1804C264.782 19.0117 264.89 18.8084 264.956 18.5706L265.962 18.5825C265.899 18.9682 265.754 19.3145 265.525 19.6215C265.3 19.9256 265.002 20.1664 264.633 20.3438C264.267 20.5185 263.843 20.6029 263.36 20.5972ZM267.969 11.7878L270.169 15.4449L270.237 15.4457L272.536 11.8422L273.781 11.857L270.977 16.1876L273.661 20.5835L272.417 20.5686L270.216 16.9797L270.148 16.9789L267.849 20.5142L266.605 20.4994L269.477 16.1697L266.724 11.773L267.969 11.7878Z" fill="#F7F8F8"/>
</g>
<path d="M449.093 201.104L448.037 201.072C447.983 200.767 447.882 200.496 447.733 200.262C447.587 200.027 447.405 199.828 447.188 199.665C446.975 199.5 446.735 199.373 446.471 199.286C446.206 199.198 445.929 199.15 445.64 199.141C445.111 199.125 444.629 199.244 444.192 199.498C443.758 199.752 443.407 200.135 443.138 200.647C442.873 201.159 442.728 201.793 442.706 202.548C442.683 203.303 442.788 203.945 443.022 204.472C443.259 204.999 443.587 205.403 444.005 205.683C444.425 205.963 444.9 206.11 445.428 206.126C445.718 206.135 445.997 206.104 446.266 206.032C446.536 205.961 446.782 205.851 447.006 205.701C447.232 205.549 447.425 205.36 447.585 205.135C447.749 204.906 447.866 204.643 447.938 204.344L448.994 204.376C448.901 204.819 448.744 205.214 448.523 205.559C448.303 205.905 448.032 206.197 447.712 206.434C447.393 206.669 447.036 206.845 446.643 206.961C446.253 207.077 445.838 207.128 445.398 207.115C444.654 207.092 443.998 206.89 443.43 206.509C442.861 206.128 442.421 205.598 442.109 204.918C441.797 204.237 441.655 203.437 441.683 202.517C441.711 201.597 441.901 200.807 442.254 200.147C442.606 199.487 443.078 198.984 443.668 198.638C444.258 198.292 444.926 198.13 445.67 198.153C446.11 198.166 446.521 198.243 446.903 198.382C447.288 198.522 447.633 198.72 447.938 198.976C448.243 199.23 448.495 199.536 448.695 199.894C448.894 200.25 449.027 200.653 449.093 201.104ZM452.932 207.36C452.341 207.342 451.827 207.186 451.39 206.891C450.956 206.597 450.621 206.193 450.386 205.68C450.155 205.167 450.049 204.572 450.07 203.897C450.09 203.215 450.232 202.624 450.494 202.123C450.759 201.622 451.118 201.238 451.569 200.971C452.024 200.703 452.546 200.578 453.137 200.596C453.727 200.614 454.24 200.77 454.674 201.065C455.112 201.359 455.446 201.764 455.678 202.28C455.912 202.796 456.019 203.395 455.999 204.076C455.978 204.752 455.835 205.339 455.57 205.837C455.308 206.335 454.95 206.718 454.495 206.985C454.044 207.253 453.523 207.378 452.932 207.36ZM452.959 206.457C453.408 206.47 453.781 206.367 454.077 206.145C454.374 205.924 454.597 205.628 454.748 205.258C454.898 204.887 454.98 204.483 454.993 204.046C455.007 203.608 454.949 203.199 454.822 202.817C454.694 202.435 454.489 202.123 454.206 201.882C453.924 201.64 453.558 201.512 453.109 201.499C452.661 201.485 452.288 201.591 451.991 201.815C451.695 202.039 451.471 202.337 451.321 202.711C451.17 203.084 451.088 203.49 451.075 203.927C451.062 204.364 451.119 204.773 451.247 205.152C451.374 205.531 451.58 205.84 451.862 206.078C452.145 206.317 452.511 206.443 452.959 206.457ZM461.435 204.804L461.552 200.936L462.558 200.966L462.36 207.509L461.354 207.478L461.388 206.371L461.32 206.369C461.156 206.697 460.909 206.972 460.578 207.195C460.248 207.415 459.835 207.518 459.341 207.503C458.932 207.49 458.572 207.39 458.259 207.201C457.946 207.01 457.705 206.73 457.534 206.361C457.363 205.989 457.287 205.525 457.303 204.968L457.429 200.811L458.435 200.842L458.311 204.931C458.296 205.408 458.418 205.792 458.677 206.084C458.938 206.376 459.277 206.529 459.694 206.541C459.944 206.549 460.2 206.493 460.463 206.373C460.728 206.253 460.952 206.064 461.136 205.805C461.323 205.546 461.423 205.212 461.435 204.804ZM463.997 207.559L464.195 201.016L465.166 201.045L465.136 202.034L465.204 202.036C465.333 201.716 465.557 201.459 465.876 201.267C466.194 201.075 466.549 200.985 466.941 200.997C467.015 200.999 467.107 201.003 467.218 201.01C467.328 201.016 467.412 201.023 467.469 201.03L467.438 202.052C467.404 202.043 467.326 202.027 467.205 202.007C467.086 201.983 466.96 201.97 466.826 201.965C466.508 201.956 466.222 202.014 465.968 202.14C465.717 202.263 465.516 202.439 465.364 202.667C465.215 202.893 465.136 203.153 465.127 203.449L465.002 207.589L463.997 207.559ZM473.044 202.751L472.133 202.979C472.081 202.827 472.001 202.678 471.895 202.532C471.791 202.384 471.647 202.261 471.463 202.161C471.278 202.062 471.04 202.008 470.747 201.999C470.347 201.987 470.01 202.069 469.738 202.245C469.468 202.419 469.329 202.647 469.321 202.928C469.313 203.178 469.398 203.378 469.575 203.528C469.753 203.678 470.033 203.808 470.416 203.916L471.38 204.184C471.961 204.344 472.39 204.574 472.668 204.875C472.946 205.173 473.078 205.551 473.064 206.008C473.053 206.383 472.935 206.715 472.71 207.004C472.488 207.293 472.183 207.517 471.795 207.675C471.406 207.834 470.958 207.906 470.449 207.89C469.782 207.87 469.234 207.709 468.806 207.406C468.377 207.103 468.113 206.671 468.013 206.111L468.975 205.902C469.055 206.256 469.219 206.526 469.466 206.709C469.716 206.893 470.047 206.991 470.459 207.004C470.928 207.018 471.303 206.93 471.584 206.74C471.869 206.546 472.015 206.309 472.024 206.028C472.03 205.801 471.957 205.608 471.802 205.45C471.648 205.289 471.407 205.165 471.08 205.079L469.998 204.79C469.403 204.63 468.969 204.397 468.697 204.09C468.428 203.78 468.3 203.4 468.314 202.948C468.325 202.579 468.439 202.256 468.654 201.978C468.873 201.701 469.165 201.486 469.531 201.335C469.899 201.185 470.313 201.116 470.773 201.13C471.421 201.15 471.925 201.307 472.285 201.602C472.649 201.897 472.902 202.28 473.044 202.751ZM477.057 208.09C476.427 208.071 475.887 207.916 475.439 207.624C474.993 207.329 474.654 206.926 474.422 206.416C474.193 205.903 474.089 205.312 474.109 204.642C474.13 203.972 474.27 203.385 474.529 202.881C474.792 202.374 475.148 201.984 475.596 201.711C476.048 201.435 476.569 201.306 477.16 201.323C477.501 201.334 477.835 201.401 478.164 201.524C478.493 201.648 478.79 201.842 479.055 202.106C479.32 202.367 479.527 202.708 479.676 203.131C479.825 203.553 479.891 204.069 479.872 204.68L479.859 205.106L474.816 204.953L474.842 204.084L478.863 204.206C478.874 203.837 478.811 203.505 478.672 203.211C478.536 202.917 478.335 202.682 478.071 202.506C477.809 202.331 477.496 202.237 477.133 202.226C476.732 202.214 476.383 202.303 476.084 202.493C475.789 202.68 475.558 202.929 475.392 203.24C475.227 203.55 475.138 203.886 475.127 204.246L475.11 204.825C475.095 205.32 475.167 205.741 475.327 206.09C475.49 206.436 475.722 206.703 476.024 206.891C476.325 207.076 476.679 207.175 477.085 207.187C477.349 207.195 477.588 207.166 477.804 207.098C478.022 207.028 478.211 206.92 478.372 206.775C478.533 206.626 478.659 206.439 478.751 206.215L479.714 206.517C479.602 206.843 479.421 207.127 479.172 207.37C478.924 207.61 478.62 207.794 478.26 207.922C477.901 208.048 477.5 208.104 477.057 208.09ZM491.603 202.392L490.546 202.36C490.493 202.054 490.392 201.784 490.243 201.549C490.096 201.314 489.915 201.116 489.698 200.953C489.484 200.787 489.245 200.661 488.98 200.573C488.716 200.485 488.439 200.437 488.149 200.428C487.621 200.412 487.138 200.531 486.702 200.785C486.268 201.039 485.916 201.422 485.648 201.934C485.382 202.446 485.238 203.08 485.215 203.835C485.192 204.591 485.298 205.232 485.532 205.759C485.769 206.287 486.096 206.69 486.514 206.97C486.935 207.25 487.409 207.398 487.938 207.414C488.227 207.423 488.507 207.391 488.776 207.32C489.045 207.248 489.292 207.138 489.515 206.988C489.741 206.836 489.935 206.647 490.095 206.422C490.258 206.194 490.376 205.93 490.447 205.631L491.504 205.663C491.411 206.106 491.254 206.501 491.033 206.847C490.812 207.192 490.542 207.484 490.222 207.722C489.902 207.956 489.546 208.132 489.153 208.248C488.763 208.364 488.348 208.415 487.908 208.402C487.164 208.379 486.508 208.178 485.939 207.797C485.371 207.416 484.931 206.885 484.619 206.205C484.307 205.525 484.165 204.725 484.193 203.804C484.221 202.884 484.411 202.094 484.763 201.434C485.116 200.774 485.587 200.271 486.178 199.925C486.768 199.579 487.435 199.418 488.179 199.44C488.619 199.454 489.03 199.53 489.413 199.669C489.798 199.809 490.143 200.007 490.448 200.264C490.753 200.517 491.005 200.823 491.204 201.182C491.404 201.537 491.537 201.941 491.603 202.392ZM495.527 208.65C494.896 208.631 494.357 208.475 493.908 208.183C493.462 207.888 493.123 207.486 492.892 206.975C492.663 206.463 492.558 205.871 492.579 205.201C492.599 204.531 492.739 203.944 492.999 203.44C493.261 202.934 493.617 202.544 494.066 202.27C494.517 201.994 495.039 201.865 495.629 201.883C495.97 201.893 496.305 201.96 496.634 202.084C496.962 202.207 497.259 202.401 497.524 202.665C497.789 202.926 497.996 203.268 498.145 203.69C498.295 204.112 498.36 204.629 498.341 205.239L498.329 205.665L493.285 205.512L493.312 204.643L497.333 204.765C497.344 204.396 497.28 204.064 497.141 203.77C497.005 203.476 496.805 203.241 496.54 203.066C496.278 202.89 495.965 202.797 495.602 202.786C495.202 202.774 494.852 202.862 494.554 203.052C494.258 203.24 494.027 203.488 493.862 203.799C493.696 204.109 493.608 204.445 493.597 204.806L493.579 205.385C493.564 205.879 493.637 206.3 493.797 206.649C493.96 206.995 494.192 207.262 494.493 207.45C494.794 207.636 495.148 207.734 495.554 207.747C495.818 207.755 496.058 207.725 496.273 207.658C496.491 207.588 496.681 207.48 496.841 207.334C497.002 207.185 497.129 206.999 497.221 206.774L498.184 207.076C498.071 207.402 497.891 207.687 497.642 207.929C497.393 208.169 497.089 208.353 496.73 208.482C496.371 208.607 495.97 208.663 495.527 208.65ZM499.565 208.636L499.763 202.093L500.734 202.123L500.704 203.111L500.773 203.113C500.902 202.793 501.125 202.537 501.444 202.344C501.762 202.152 502.117 202.062 502.509 202.074C502.583 202.076 502.675 202.08 502.786 202.087C502.897 202.093 502.98 202.1 503.037 202.107L503.006 203.129C502.972 203.12 502.895 203.105 502.773 203.084C502.654 203.06 502.528 203.047 502.395 203.043C502.077 203.033 501.791 203.091 501.537 203.217C501.286 203.34 501.084 203.516 500.932 203.744C500.784 203.97 500.705 204.231 500.696 204.526L500.57 208.666L499.565 208.636ZM507.277 202.321L507.252 203.173L503.861 203.07L503.887 202.218L507.277 202.321ZM504.922 200.681L505.928 200.711L505.739 206.947C505.73 207.231 505.765 207.445 505.843 207.589C505.924 207.731 506.029 207.828 506.158 207.88C506.29 207.93 506.43 207.957 506.578 207.961C506.689 207.965 506.78 207.962 506.851 207.952C506.922 207.94 506.98 207.931 507.022 207.924L507.199 208.833C507.131 208.856 507.035 208.879 506.912 208.901C506.789 208.925 506.634 208.935 506.446 208.929C506.162 208.921 505.886 208.851 505.617 208.721C505.351 208.591 505.132 208.398 504.961 208.142C504.792 207.887 504.714 207.569 504.725 207.189L504.922 200.681ZM508.387 208.903L508.585 202.36L509.591 202.391L509.393 208.933L508.387 208.903ZM509.13 201.285C508.934 201.279 508.767 201.208 508.629 201.07C508.494 200.932 508.429 200.77 508.435 200.582C508.44 200.395 508.515 200.237 508.658 200.107C508.804 199.978 508.975 199.916 509.171 199.922C509.367 199.928 509.532 200 509.667 200.138C509.805 200.276 509.872 200.438 509.866 200.626C509.86 200.813 509.784 200.971 509.638 201.1C509.495 201.23 509.326 201.291 509.13 201.285ZM514.141 202.529L514.116 203.38L510.589 203.274L510.615 202.422L514.141 202.529ZM511.473 208.996L511.698 201.551C511.71 201.176 511.807 200.866 511.991 200.622C512.174 200.377 512.409 200.197 512.694 200.08C512.978 199.964 513.277 199.91 513.589 199.92C513.836 199.927 514.037 199.953 514.192 199.998C514.347 200.042 514.463 200.083 514.538 200.119L514.222 200.979C514.172 200.961 514.101 200.937 514.011 200.909C513.924 200.881 513.808 200.864 513.663 200.86C513.331 200.85 513.089 200.926 512.936 201.089C512.786 201.253 512.706 201.496 512.696 201.82L512.478 209.027L511.473 208.996ZM515.148 209.108L515.346 202.565L516.351 202.596L516.153 209.138L515.148 209.108ZM515.89 201.49C515.694 201.484 515.528 201.412 515.39 201.275C515.255 201.137 515.19 200.974 515.195 200.787C515.201 200.6 515.276 200.441 515.419 200.312C515.565 200.183 515.736 200.121 515.932 200.127C516.128 200.133 516.293 200.205 516.428 200.343C516.566 200.48 516.632 200.643 516.627 200.83C516.621 201.018 516.545 201.176 516.399 201.305C516.256 201.434 516.086 201.496 515.89 201.49ZM520.444 209.404C519.831 209.386 519.307 209.225 518.873 208.922C518.439 208.619 518.11 208.21 517.887 207.694C517.664 207.179 517.562 206.594 517.582 205.941C517.602 205.277 517.742 204.694 518.002 204.193C518.264 203.689 518.62 203.301 519.069 203.027C519.52 202.751 520.041 202.622 520.632 202.64C521.092 202.654 521.504 202.752 521.868 202.933C522.232 203.115 522.527 203.362 522.754 203.676C522.98 203.99 523.116 204.352 523.16 204.763L522.155 204.732C522.087 204.432 521.925 204.163 521.668 203.925C521.413 203.684 521.065 203.557 520.622 203.543C520.23 203.532 519.883 203.623 519.582 203.819C519.283 204.012 519.046 204.29 518.87 204.654C518.697 205.016 518.603 205.443 518.588 205.937C518.573 206.443 518.639 206.885 518.787 207.265C518.937 207.645 519.156 207.943 519.442 208.159C519.731 208.375 520.074 208.489 520.472 208.501C520.733 208.509 520.971 208.471 521.187 208.387C521.403 208.302 521.587 208.177 521.74 208.011C521.893 207.845 522.004 207.644 522.074 207.407L523.079 207.438C523.01 207.822 522.859 208.166 522.626 208.469C522.395 208.769 522.094 209.004 521.722 209.174C521.353 209.342 520.927 209.419 520.444 209.404ZM526.207 209.596C525.793 209.583 525.419 209.494 525.086 209.327C524.753 209.158 524.491 208.922 524.301 208.617C524.112 208.31 524.023 207.944 524.036 207.518C524.048 207.143 524.131 206.841 524.285 206.613C524.44 206.382 524.643 206.203 524.894 206.077C525.145 205.951 525.421 205.86 525.721 205.804C526.024 205.745 526.328 205.7 526.633 205.67C527.032 205.63 527.356 205.602 527.604 205.584C527.854 205.563 528.037 205.522 528.153 205.46C528.271 205.398 528.333 205.286 528.338 205.124L528.339 205.09C528.352 204.67 528.247 204.34 528.024 204.1C527.804 203.86 527.462 203.734 526.999 203.719C526.519 203.705 526.14 203.799 525.861 204.001C525.582 204.202 525.384 204.421 525.266 204.656L524.322 204.286C524.504 203.894 524.741 203.591 525.031 203.379C525.325 203.163 525.642 203.016 525.983 202.938C526.326 202.858 526.663 202.823 526.992 202.832C527.202 202.839 527.443 202.872 527.714 202.931C527.988 202.988 528.25 203.097 528.501 203.258C528.755 203.419 528.962 203.657 529.123 203.971C529.284 204.286 529.357 204.703 529.341 205.223L529.211 209.533L528.205 209.503L528.232 208.617L528.181 208.615C528.109 208.755 527.99 208.904 527.827 209.061C527.663 209.218 527.447 209.349 527.179 209.455C526.912 209.56 526.588 209.607 526.207 209.596ZM526.388 208.698C526.786 208.71 527.123 208.642 527.4 208.494C527.681 208.346 527.894 208.151 528.041 207.908C528.19 207.665 528.269 207.407 528.277 207.135L528.305 206.215C528.261 206.265 528.166 206.309 528.02 206.347C527.876 206.382 527.711 206.413 527.522 206.438C527.337 206.461 527.156 206.481 526.979 206.499C526.805 206.513 526.664 206.526 526.556 206.537C526.294 206.563 526.048 206.611 525.818 206.681C525.592 206.748 525.406 206.855 525.263 207.001C525.122 207.144 525.048 207.344 525.04 207.599C525.029 207.949 525.151 208.217 525.404 208.403C525.66 208.587 525.988 208.685 526.388 208.698ZM533.885 203.127L533.859 203.978L530.469 203.876L530.494 203.024L533.885 203.127ZM531.53 201.486L532.535 201.517L532.346 207.753C532.338 208.036 532.373 208.251 532.451 208.395C532.532 208.537 532.637 208.634 532.766 208.686C532.898 208.736 533.038 208.763 533.185 208.767C533.296 208.77 533.387 208.767 533.459 208.758C533.53 208.746 533.587 208.737 533.63 208.729L533.807 209.638C533.738 209.662 533.642 209.685 533.519 209.707C533.396 209.731 533.241 209.741 533.054 209.735C532.77 209.726 532.493 209.657 532.224 209.527C531.958 209.396 531.74 209.204 531.568 208.948C531.4 208.693 531.321 208.375 531.333 207.995L531.53 201.486ZM534.995 209.709L535.193 203.166L536.198 203.197L536 209.739L534.995 209.709ZM535.737 202.091C535.541 202.085 535.374 202.013 535.236 201.876C535.101 201.738 535.037 201.575 535.042 201.388C535.048 201.201 535.122 201.042 535.266 200.913C535.412 200.784 535.583 200.722 535.778 200.728C535.974 200.734 536.14 200.806 536.275 200.944C536.413 201.081 536.479 201.244 536.473 201.431C536.468 201.619 536.392 201.777 536.246 201.906C536.103 202.035 535.933 202.097 535.737 202.091ZM540.291 210.005C539.7 209.988 539.187 209.831 538.749 209.537C538.315 209.242 537.98 208.838 537.746 208.325C537.514 207.812 537.408 207.218 537.429 206.542C537.449 205.861 537.591 205.269 537.853 204.769C538.119 204.268 538.477 203.884 538.928 203.616C539.383 203.348 539.905 203.224 540.496 203.241C541.087 203.259 541.599 203.416 542.034 203.71C542.471 204.005 542.805 204.41 543.037 204.926C543.272 205.442 543.378 206.04 543.358 206.722C543.337 207.398 543.195 207.984 542.929 208.482C542.667 208.98 542.309 209.363 541.854 209.631C541.403 209.898 540.882 210.023 540.291 210.005ZM540.318 209.102C540.767 209.116 541.14 209.012 541.436 208.791C541.733 208.57 541.957 208.274 542.107 207.903C542.257 207.533 542.339 207.129 542.353 206.691C542.366 206.254 542.309 205.844 542.181 205.462C542.053 205.081 541.848 204.769 541.565 204.527C541.283 204.286 540.917 204.158 540.469 204.144C540.02 204.131 539.647 204.236 539.351 204.46C539.054 204.684 538.83 204.983 538.68 205.356C538.529 205.73 538.447 206.135 538.434 206.573C538.421 207.01 538.478 207.418 538.606 207.797C538.734 208.176 538.939 208.485 539.221 208.724C539.504 208.963 539.87 209.089 540.318 209.102ZM545.715 206.094L545.596 210.03L544.59 209.999L544.788 203.457L545.76 203.486L545.729 204.508L545.814 204.511C545.977 204.183 546.218 203.923 546.537 203.731C546.855 203.536 547.262 203.446 547.756 203.461C548.199 203.475 548.583 203.577 548.91 203.769C549.237 203.958 549.487 204.238 549.661 204.61C549.834 204.979 549.913 205.442 549.896 205.999L549.77 210.156L548.765 210.126L548.888 206.037C548.904 205.523 548.783 205.118 548.524 204.823C548.266 204.526 547.904 204.37 547.439 204.356C547.118 204.346 546.829 204.407 546.572 204.538C546.318 204.67 546.114 204.867 545.961 205.129C545.808 205.392 545.726 205.713 545.715 206.094Z" fill="#F7F8F8"/>
<ellipse cx="731.524" cy="449.269" rx="7.52748" ry="7.92125" transform="rotate(1.73458 731.524 449.269)" fill="white"/>
<path d="M730.566 480.94L731.285 457.187" stroke="white" stroke-width="2" stroke-linecap="round"/>
<ellipse cx="494.409" cy="222.92" rx="7.52748" ry="7.92125" transform="rotate(1.73458 494.409 222.92)" fill="white"/>
<path d="M493.451 254.59L494.17 230.838" stroke="white" stroke-width="2" stroke-linecap="round"/>
<ellipse cx="343.169" cy="153.146" rx="7.52748" ry="7.92125" transform="rotate(1.73458 343.169 153.146)" fill="white"/>
<path d="M342.21 184.816L342.93 161.063" stroke="white" stroke-width="2" stroke-linecap="round"/>
<ellipse cx="199.013" cy="35.9572" rx="7.52748" ry="7.92125" transform="rotate(1.73458 199.013 35.9572)" fill="white"/>
<path d="M198.054 67.6276L198.773 43.8748" stroke="white" stroke-width="2" stroke-linecap="round"/>
<path d="M614.533 384.99C621.926 389.619 621.51 397.487 613.597 402.669L605.025 408.283C597.786 413.024 596.478 420.052 601.911 425.011C609.006 431.486 624.32 431.723 633.723 425.504L668.479 402.513C675.151 398.099 685.741 397.58 692.248 401.347C698.828 405.157 698.753 411.909 692.078 416.416L674.897 428.018C665.908 434.088 665.537 443.143 674.058 448.499L702.522 466.387L746.259 493.874" stroke="url(#paint1_linear_239_5902)" stroke-width="12"/>
<defs>
<filter id="filter0_d_239_5902" x="694.705" y="424.303" width="109.455" height="16.1846" filterUnits="userSpaceOnUse" color-interpolation-filters="sRGB">
<feFlood flood-opacity="0" result="BackgroundImageFix"/>
<feColorMatrix in="SourceAlpha" type="matrix" values="0 0 0 0 0 0 0 0 0 0 0 0 0 0 0 0 0 0 127 0" result="hardAlpha"/>
<feOffset dx="6" dy="4"/>
<feGaussianBlur stdDeviation="1"/>
<feComposite in2="hardAlpha" operator="out"/>
<feColorMatrix type="matrix" values="0 0 0 0 0 0 0 0 0 0 0 0 0 0 0 0 0 0 0.25 0"/>
<feBlend mode="normal" in2="BackgroundImageFix" result="effect1_dropShadow_239_5902"/>
<feBlend mode="normal" in="SourceGraphic" in2="effect1_dropShadow_239_5902" result="shape"/>
</filter>
<filter id="filter1_d_239_5902" x="127.467" y="9.84326" width="154.318" height="16.8936" filterUnits="userSpaceOnUse" color-interpolation-filters="sRGB">
<feFlood flood-opacity="0" result="BackgroundImageFix"/>
<feColorMatrix in="SourceAlpha" type="matrix" values="0 0 0 0 0 0 0 0 0 0 0 0 0 0 0 0 0 0 127 0" result="hardAlpha"/>
<feOffset dx="6" dy="4"/>
<feGaussianBlur stdDeviation="1"/>
<feComposite in2="hardAlpha" operator="out"/>
<feColorMatrix type="matrix" values="0 0 0 0 0 0 0 0 0 0 0 0 0 0 0 0 0 0 0.25 0"/>
<feBlend mode="normal" in2="BackgroundImageFix" result="effect1_dropShadow_239_5902"/>
<feBlend mode="normal" in="SourceGraphic" in2="effect1_dropShadow_239_5902" result="shape"/>
</filter>
<linearGradient id="paint0_linear_239_5902" x1="79.2965" y1="74.4644" x2="523.923" y2="660.596" gradientUnits="userSpaceOnUse">
<stop stop-color="#00BEFF" stop-opacity="0"/>
<stop offset="0.167532" stop-color="#00BEFF"/>
<stop offset="0.802092" stop-color="#00BEFF"/>
<stop offset="1" stop-color="#00BEFF" stop-opacity="0"/>
</linearGradient>
<linearGradient id="paint1_linear_239_5902" x1="569.261" y1="360.242" x2="660.283" y2="541.158" gradientUnits="userSpaceOnUse">
<stop offset="0.14196" stop-color="#71B37F" stop-opacity="0"/>
<stop offset="0.339067" stop-color="#71B37F"/>
<stop offset="0.992805" stop-color="#71B37F" stop-opacity="0"/>
</linearGradient>
</defs>
</svg>
