<svg width="80" height="80" viewBox="0 0 80 80" fill="none" xmlns="http://www.w3.org/2000/svg">
<rect width="80" height="80" rx="5" fill="url(#paint0_linear_916_5414)"/>
<path d="M63.9968 55.9163V56.1977L64.0988 56.4599L65.67 60.5003H61.7729L63.3451 56.4577L63.4471 56.1954V55.914V36.5857L63.9968 36.3108V55.9163Z" stroke="white" stroke-width="3"/>
<path d="M35.6186 46.6541L35.6767 46.6832L35.737 46.7071C37.0631 47.2324 38.2296 47.5537 39.4647 47.5538C40.6999 47.554 41.8663 47.2328 43.1925 46.7075L43.2528 46.6836L43.3109 46.6546L55.7138 40.4534V45.2984C55.7138 46.8747 54.397 48.7055 51.3446 50.2317C48.382 51.7131 44.1841 52.6726 39.4653 52.6726C34.7466 52.6726 30.5488 51.7131 27.5861 50.2317C24.5337 48.7055 23.2168 46.8746 23.2168 45.2984V40.4535L35.6186 46.6541Z" stroke="white" stroke-width="3"/>
<path d="M40.3815 40.7959L40.3813 40.796C40.2091 40.8821 39.8793 40.965 39.465 40.965C39.0507 40.965 38.7207 40.8822 38.5481 40.7959C38.5481 40.7959 38.5481 40.7959 38.5481 40.7959L14.4213 28.7325L38.5481 16.6691C38.7207 16.5829 39.0506 16.5 39.465 16.5C39.8793 16.5 40.2091 16.5829 40.3813 16.669L40.3815 16.6691L64.5084 28.7325L40.3815 40.7959ZM13.275 28.1557C13.275 28.1557 13.2755 28.156 13.2764 28.1567L13.275 28.1557ZM13.275 29.3093C13.275 29.3093 13.2754 29.309 13.2763 29.3083L13.275 29.3093Z" stroke="white" stroke-width="3"/>
<defs>
<linearGradient id="paint0_linear_916_5414" x1="14" y1="-10" x2="54" y2="80" gradientUnits="userSpaceOnUse">
<stop stop-color="#5C67C7"/>
<stop offset="1" stop-color="#23329C"/>
</linearGradient>
</defs>
</svg>
