<svg width="17" height="17" viewBox="0 0 17 17" fill="none" xmlns="http://www.w3.org/2000/svg">
<g clip-path="url(#clip0_751_2256)">
<path d="M12.4877 0.40625C14.8547 0.40625 16.7734 2.32503 16.7734 4.69196V10.2406C16.7734 10.7729 16.5612 11.2833 16.1837 11.6587L11.9947 15.8244C11.6199 16.1971 11.1129 16.4063 10.5844 16.4063H5.05915C2.69221 16.4063 0.773438 14.4875 0.773438 12.1205V4.69196C0.773438 2.32503 2.69221 0.40625 5.05915 0.40625H12.4877ZM12.4877 2.12054H5.05915C3.63899 2.12054 2.48772 3.2718 2.48772 4.69196V12.1205C2.48772 13.5407 3.63899 14.692 5.05915 14.692H8.7723L8.77344 11.5491C8.77344 9.87764 10.0782 8.51094 11.7248 8.41199L11.9163 8.40625H15.0592V4.69196C15.0592 3.2718 13.9078 2.12054 12.4877 2.12054ZM15.0592 10.1205H11.9163C11.1273 10.1205 10.4877 10.7601 10.4877 11.5491L10.4866 14.692H10.5844C10.6599 14.692 10.7324 14.6621 10.7859 14.6089L14.9749 10.4432C15.0289 10.3895 15.0592 10.3166 15.0592 10.2406V10.1205Z" fill="#F7F8F8"/>
</g>
<defs>
<clipPath id="clip0_751_2256">
<rect width="16" height="16" fill="white" transform="translate(0.773438 0.40625)"/>
</clipPath>
</defs>
</svg>
