<svg width="17" height="16" viewBox="0 0 17 16" fill="none" xmlns="http://www.w3.org/2000/svg">
<g clip-path="url(#clip0_751_2225)">
<path d="M11.8518 7C14.061 7 15.8518 8.79086 15.8518 11C15.8518 13.2091 14.061 15 11.8518 15C9.64267 15 7.8518 13.2091 7.8518 11C7.8518 8.79086 9.64267 7 11.8518 7ZM11.5977 1C13.6688 1 15.3477 2.67893 15.3477 4.75V5.24561C15.3477 5.65982 15.0119 5.99561 14.5977 5.99561C14.1835 5.99561 13.8477 5.65982 13.8477 5.24561V4.75C13.8477 3.50736 12.8403 2.5 11.5977 2.5H5.59765C4.35501 2.5 3.34765 3.50736 3.34765 4.75V10.9705C3.34765 12.2131 4.35501 13.2205 5.59765 13.2205H6.90415C7.31837 13.2205 7.65415 13.5562 7.65415 13.9705C7.65415 14.3847 7.31837 14.7205 6.90415 14.7205H5.59765C3.52659 14.7205 1.84766 13.0415 1.84766 10.9705V4.75C1.84766 2.67893 3.52659 1 5.59765 1H11.5977ZM11.8518 8.25488L11.7501 8.26173C11.4173 8.30688 11.1538 8.57032 11.1087 8.90311L11.1018 9.00488V10.2509L9.8526 10.25L9.75082 10.2567C9.41798 10.3015 9.15426 10.5647 9.10876 10.8974L9.1018 10.9992L9.10854 11.101C9.15334 11.4338 9.4165 11.6975 9.74925 11.743L9.85101 11.75L11.1018 11.7509V13.0036L11.1087 13.1054C11.1538 13.4382 11.4173 13.7016 11.7501 13.7468L11.8518 13.7536L11.9536 13.7468C12.2864 13.7016 12.5498 13.4382 12.595 13.1054L12.6018 13.0036V11.7529L13.851 11.7542L13.9528 11.7475C14.2857 11.7027 14.5494 11.4395 14.5949 11.1068L14.6018 11.005L14.5951 10.9033C14.5503 10.5704 14.2871 10.3067 13.9544 10.2612L13.8526 10.2542L12.6018 10.2529V9.00488L12.595 8.90311C12.5498 8.57032 12.2864 8.30688 11.9536 8.26173L11.8518 8.25488Z" fill="#F7F8F8"/>
</g>
<defs>
<clipPath id="clip0_751_2225">
<rect width="16" height="16" fill="white" transform="translate(0.851562)"/>
</clipPath>
</defs>
</svg>
