<svg width="17" height="17" viewBox="0 0 17 17" fill="none" xmlns="http://www.w3.org/2000/svg">
<g clip-path="url(#clip0_751_2231)">
<path fill-rule="evenodd" clip-rule="evenodd" d="M15.7455 9.67988L13.7623 9.4212C13.7902 9.20753 13.8047 8.98877 13.8047 8.76562C13.8047 8.54248 13.7902 8.32372 13.7623 8.11005L15.7455 7.85136C15.7846 8.15059 15.8047 8.45575 15.8047 8.76562C15.8047 9.0755 15.7846 9.38066 15.7455 9.67988ZM15.2735 6.08611C15.0375 5.51702 14.7286 4.98581 14.3585 4.50413L12.7727 5.72278C13.0375 6.06747 13.258 6.44681 13.4261 6.85221L15.2735 6.08611ZM13.0662 3.21182L11.8475 4.79767C11.5028 4.53279 11.1235 4.31235 10.7181 4.14424L11.4842 2.29678C12.0533 2.53277 12.5845 2.84167 13.0662 3.21182ZM9.71895 1.8248L9.46026 3.808C9.24659 3.78012 9.02783 3.76562 8.80469 3.76562C8.58155 3.76562 8.36279 3.78012 8.14912 3.808L7.89043 1.8248C8.18965 1.78576 8.49482 1.76562 8.80469 1.76562C9.11456 1.76562 9.41973 1.78576 9.71895 1.8248ZM6.12518 2.29678L6.89128 4.14424C6.48588 4.31235 6.10654 4.53279 5.76185 4.79767L4.5432 3.21182C5.02488 2.84167 5.55609 2.53277 6.12518 2.29678ZM3.25089 4.50413L4.83673 5.72278C4.57185 6.06747 4.35142 6.44681 4.18331 6.85221L2.33585 6.08611C2.57184 5.51702 2.88074 4.98581 3.25089 4.50413ZM1.86386 7.85137C1.82482 8.15059 1.80469 8.45575 1.80469 8.76562C1.80469 9.0755 1.82482 9.38066 1.86386 9.67988L3.84706 9.4212C3.81918 9.20753 3.80469 8.98877 3.80469 8.76562C3.80469 8.54248 3.81918 8.32372 3.84706 8.11005L1.86386 7.85137ZM2.33585 11.4451L4.18331 10.679C4.35142 11.0844 4.57185 11.4637 4.83673 11.8084L3.25089 13.0271C2.88074 12.5454 2.57184 12.0142 2.33585 11.4451ZM4.5432 14.3194L5.76185 12.7336C6.10654 12.9984 6.48588 13.2189 6.89128 13.387L6.12518 15.2344C5.55609 14.9984 5.02488 14.6895 4.5432 14.3194ZM7.89043 15.7064L8.14912 13.7232C8.36279 13.7511 8.58155 13.7656 8.80469 13.7656C9.02783 13.7656 9.24659 13.7511 9.46026 13.7232L9.71896 15.7064C9.41973 15.7455 9.11456 15.7656 8.80469 15.7656C8.49482 15.7656 8.18965 15.7455 7.89043 15.7064ZM11.4842 15.2344L10.7181 13.387C11.1235 13.2189 11.5028 12.9984 11.8475 12.7336L13.0662 14.3194C12.5845 14.6895 12.0533 14.9984 11.4842 15.2344ZM14.3585 13.0271L12.7727 11.8084C13.0375 11.4637 13.258 11.0844 13.4261 10.679L15.2735 11.4451C15.0375 12.0142 14.7287 12.5454 14.3585 13.0271Z" fill="#F7F8F8"/>
</g>
<defs>
<clipPath id="clip0_751_2231">
<rect width="16" height="16" fill="white" transform="translate(0.804688 0.765625)"/>
</clipPath>
</defs>
</svg>
