<svg width="194" height="19" viewBox="0 0 194 19" fill="none" xmlns="http://www.w3.org/2000/svg">
<path d="M11.3844 0.299999C11.4544 0.299999 11.5104 0.327999 11.5524 0.383999C11.6084 0.425999 11.6364 0.482 11.6364 0.552V2.169C11.6364 2.239 11.6084 2.302 11.5524 2.358C11.5104 2.4 11.4544 2.421 11.3844 2.421H7.52041C7.45041 2.421 7.41541 2.456 7.41541 2.526V14.748C7.41541 14.818 7.38741 14.881 7.33141 14.937C7.28941 14.979 7.23341 15 7.16341 15H5.23141C5.16141 15 5.09841 14.979 5.04241 14.937C5.00041 14.881 4.97941 14.818 4.97941 14.748V2.526C4.97941 2.456 4.94441 2.421 4.87441 2.421H1.15741C1.08741 2.421 1.02441 2.4 0.968406 2.358C0.926406 2.302 0.905406 2.239 0.905406 2.169V0.552C0.905406 0.482 0.926406 0.425999 0.968406 0.383999C1.02441 0.327999 1.08741 0.299999 1.15741 0.299999H11.3844ZM19.8495 4.101C20.9835 4.101 21.8865 4.437 22.5585 5.109C23.2445 5.781 23.5875 6.698 23.5875 7.86V14.748C23.5875 14.818 23.5595 14.881 23.5035 14.937C23.4615 14.979 23.4055 15 23.3355 15H21.4035C21.3335 15 21.2705 14.979 21.2145 14.937C21.1725 14.881 21.1515 14.818 21.1515 14.748V8.364C21.1515 7.72 20.9695 7.202 20.6055 6.81C20.2415 6.404 19.7585 6.201 19.1565 6.201C18.5545 6.201 18.0645 6.397 17.6865 6.789C17.3225 7.181 17.1405 7.699 17.1405 8.343V14.748C17.1405 14.818 17.1125 14.881 17.0565 14.937C17.0145 14.979 16.9585 15 16.8885 15H14.9565C14.8865 15 14.8235 14.979 14.7675 14.937C14.7255 14.881 14.7045 14.818 14.7045 14.748V0.552C14.7045 0.482 14.7255 0.425999 14.7675 0.383999C14.8235 0.327999 14.8865 0.299999 14.9565 0.299999H16.8885C16.9585 0.299999 17.0145 0.327999 17.0565 0.383999C17.1125 0.425999 17.1405 0.482 17.1405 0.552V5.193C17.1405 5.235 17.1545 5.263 17.1825 5.277C17.2105 5.291 17.2315 5.277 17.2455 5.235C17.8195 4.479 18.6875 4.101 19.8495 4.101ZM36.1464 8.427C36.2024 8.777 36.2304 9.169 36.2304 9.603L36.2094 10.254C36.2094 10.422 36.1254 10.506 35.9574 10.506H29.3844C29.3144 10.506 29.2794 10.541 29.2794 10.611C29.3214 11.073 29.3844 11.388 29.4684 11.556C29.8044 12.564 30.6234 13.075 31.9254 13.089C32.8774 13.089 33.6334 12.697 34.1934 11.913C34.2494 11.829 34.3194 11.787 34.4034 11.787C34.4594 11.787 34.5084 11.808 34.5504 11.85L35.8524 12.921C35.9784 13.019 35.9994 13.131 35.9154 13.257C35.4814 13.873 34.9004 14.349 34.1724 14.685C33.4584 15.021 32.6604 15.189 31.7784 15.189C30.6864 15.189 29.7554 14.944 28.9854 14.454C28.2294 13.964 27.6764 13.278 27.3264 12.396C27.0044 11.64 26.8434 10.59 26.8434 9.246C26.8434 8.434 26.9274 7.776 27.0954 7.272C27.3754 6.292 27.9004 5.522 28.6704 4.962C29.4544 4.388 30.3924 4.101 31.4844 4.101C34.2424 4.101 35.7964 5.543 36.1464 8.427ZM31.4844 6.201C30.9664 6.201 30.5324 6.334 30.1824 6.6C29.8464 6.852 29.6084 7.209 29.4684 7.671C29.3844 7.909 29.3284 8.217 29.3004 8.595C29.2724 8.665 29.3004 8.7 29.3844 8.7H33.6474C33.7174 8.7 33.7524 8.665 33.7524 8.595C33.7244 8.245 33.6824 7.979 33.6264 7.797C33.5004 7.293 33.2484 6.901 32.8704 6.621C32.5064 6.341 32.0444 6.201 31.4844 6.201ZM54.4628 0.467999C54.5328 0.355999 54.6308 0.299999 54.7568 0.299999H56.6888C56.7588 0.299999 56.8148 0.327999 56.8568 0.383999C56.9128 0.425999 56.9408 0.482 56.9408 0.552V14.748C56.9408 14.818 56.9128 14.881 56.8568 14.937C56.8148 14.979 56.7588 15 56.6888 15H54.7568C54.6868 15 54.6238 14.979 54.5678 14.937C54.5258 14.881 54.5048 14.818 54.5048 14.748V4.731C54.5048 4.689 54.4838 4.661 54.4418 4.647C54.4138 4.633 54.3928 4.647 54.3788 4.689L51.7538 8.721C51.6838 8.833 51.5858 8.889 51.4598 8.889H50.4938C50.3678 8.889 50.2698 8.833 50.1998 8.721L47.5538 4.71C47.5398 4.668 47.5118 4.654 47.4698 4.668C47.4418 4.682 47.4278 4.71 47.4278 4.752V14.748C47.4278 14.818 47.3998 14.881 47.3438 14.937C47.3018 14.979 47.2458 15 47.1758 15H45.2438C45.1738 15 45.1108 14.979 45.0548 14.937C45.0128 14.881 44.9918 14.818 44.9918 14.748V0.552C44.9918 0.482 45.0128 0.425999 45.0548 0.383999C45.1108 0.327999 45.1738 0.299999 45.2438 0.299999H47.1758C47.3018 0.299999 47.3998 0.355999 47.4698 0.467999L50.8928 5.655C50.9208 5.683 50.9488 5.697 50.9768 5.697C51.0048 5.697 51.0258 5.683 51.0398 5.655L54.4628 0.467999ZM65.3795 15.168C64.2735 15.168 63.3215 14.888 62.5235 14.328C61.7395 13.768 61.1865 12.991 60.8645 11.997C60.6265 11.241 60.5075 10.443 60.5075 9.603C60.5075 8.707 60.6195 7.909 60.8435 7.209C61.1655 6.229 61.7255 5.466 62.5235 4.92C63.3215 4.374 64.2805 4.101 65.4005 4.101C66.4645 4.101 67.3815 4.374 68.1515 4.92C68.9355 5.466 69.4885 6.222 69.8105 7.188C70.0625 7.86 70.1885 8.658 70.1885 9.582C70.1885 10.464 70.0695 11.262 69.8315 11.976C69.5095 12.97 68.9565 13.754 68.1725 14.328C67.3885 14.888 66.4575 15.168 65.3795 15.168ZM65.3795 13.068C65.8975 13.068 66.3385 12.921 66.7025 12.627C67.0805 12.333 67.3535 11.92 67.5215 11.388C67.6615 10.926 67.7315 10.338 67.7315 9.624C67.7315 8.868 67.6615 8.28 67.5215 7.86C67.3675 7.328 67.1015 6.922 66.7235 6.642C66.3455 6.348 65.8835 6.201 65.3375 6.201C64.8195 6.201 64.3715 6.348 63.9935 6.642C63.6155 6.922 63.3425 7.328 63.1745 7.86C63.0345 8.35 62.9645 8.938 62.9645 9.624C62.9645 10.31 63.0345 10.898 63.1745 11.388C63.3285 11.92 63.5945 12.333 63.9725 12.627C64.3645 12.921 64.8335 13.068 65.3795 13.068ZM77.5315 15.126C76.6495 15.126 75.8725 15 75.2005 14.748C74.5425 14.482 74.0315 14.125 73.6675 13.677C73.3035 13.215 73.1215 12.704 73.1215 12.144V11.955C73.1215 11.885 73.1425 11.829 73.1845 11.787C73.2405 11.731 73.3035 11.703 73.3735 11.703H75.2215C75.2915 11.703 75.3475 11.731 75.3895 11.787C75.4455 11.829 75.4735 11.885 75.4735 11.955V11.997C75.4735 12.347 75.6625 12.655 76.0405 12.921C76.4325 13.173 76.9225 13.299 77.5105 13.299C78.0705 13.299 78.5255 13.187 78.8755 12.963C79.2255 12.725 79.4005 12.431 79.4005 12.081C79.4005 11.759 79.2535 11.521 78.9595 11.367C78.6795 11.199 78.2175 11.024 77.5735 10.842L76.7755 10.59C76.0615 10.38 75.4595 10.156 74.9695 9.918C74.4795 9.68 74.0665 9.358 73.7305 8.952C73.3945 8.532 73.2265 8 73.2265 7.356C73.2265 6.376 73.6115 5.599 74.3815 5.025C75.1515 4.437 76.1665 4.143 77.4265 4.143C78.2805 4.143 79.0295 4.283 79.6735 4.563C80.3175 4.829 80.8145 5.207 81.1645 5.697C81.5145 6.173 81.6895 6.719 81.6895 7.335C81.6895 7.405 81.6615 7.468 81.6055 7.524C81.5635 7.566 81.5075 7.587 81.4375 7.587H79.6525C79.5825 7.587 79.5195 7.566 79.4635 7.524C79.4215 7.468 79.4005 7.405 79.4005 7.335C79.4005 6.971 79.2185 6.67 78.8545 6.432C78.5045 6.18 78.0215 6.054 77.4055 6.054C76.8595 6.054 76.4115 6.159 76.0615 6.369C75.7255 6.565 75.5575 6.845 75.5575 7.209C75.5575 7.545 75.7185 7.804 76.0405 7.986C76.3765 8.154 76.9295 8.343 77.6995 8.553L78.1615 8.679C78.9035 8.903 79.5265 9.134 80.0305 9.372C80.5345 9.596 80.9615 9.918 81.3115 10.338C81.6615 10.744 81.8365 11.276 81.8365 11.934C81.8365 12.928 81.4445 13.712 80.6605 14.286C79.8765 14.846 78.8335 15.126 77.5315 15.126ZM90.6184 5.991C90.6184 6.061 90.5904 6.124 90.5344 6.18C90.4924 6.222 90.4364 6.243 90.3664 6.243H88.2244C88.1544 6.243 88.1194 6.278 88.1194 6.348V11.409C88.1194 11.941 88.2314 12.326 88.4554 12.564C88.6934 12.802 89.0644 12.921 89.5684 12.921H90.1984C90.2684 12.921 90.3244 12.949 90.3664 13.005C90.4224 13.047 90.4504 13.103 90.4504 13.173V14.748C90.4504 14.902 90.3664 14.993 90.1984 15.021L89.1064 15.042C88.0004 15.042 87.1744 14.853 86.6284 14.475C86.0824 14.097 85.8024 13.383 85.7884 12.333V6.348C85.7884 6.278 85.7534 6.243 85.6834 6.243H84.4864C84.4164 6.243 84.3534 6.222 84.2974 6.18C84.2554 6.124 84.2344 6.061 84.2344 5.991V4.521C84.2344 4.451 84.2554 4.395 84.2974 4.353C84.3534 4.297 84.4164 4.269 84.4864 4.269H85.6834C85.7534 4.269 85.7884 4.234 85.7884 4.164V1.707C85.7884 1.637 85.8094 1.581 85.8514 1.539C85.9074 1.483 85.9704 1.455 86.0404 1.455H87.8674C87.9374 1.455 87.9934 1.483 88.0354 1.539C88.0914 1.581 88.1194 1.637 88.1194 1.707V4.164C88.1194 4.234 88.1544 4.269 88.2244 4.269H90.3664C90.4364 4.269 90.4924 4.297 90.5344 4.353C90.5904 4.395 90.6184 4.451 90.6184 4.521V5.991ZM104.231 15.168C103.181 15.168 102.257 14.965 101.459 14.559C100.661 14.139 100.045 13.558 99.611 12.816C99.177 12.074 98.96 11.213 98.96 10.233V5.046C98.96 4.066 99.177 3.205 99.611 2.463C100.045 1.721 100.661 1.147 101.459 0.741C102.257 0.335 103.181 0.132 104.231 0.132C105.267 0.132 106.184 0.328 106.982 0.72C107.78 1.112 108.396 1.665 108.83 2.379C109.264 3.093 109.481 3.919 109.481 4.857C109.481 4.927 109.453 4.99 109.397 5.046C109.355 5.088 109.299 5.109 109.229 5.109L107.297 5.214C107.129 5.214 107.045 5.137 107.045 4.983C107.045 4.157 106.786 3.492 106.268 2.988C105.764 2.484 105.085 2.232 104.231 2.232C103.377 2.232 102.691 2.484 102.173 2.988C101.655 3.492 101.396 4.157 101.396 4.983V10.338C101.396 11.15 101.655 11.808 102.173 12.312C102.691 12.816 103.377 13.068 104.231 13.068C105.085 13.068 105.764 12.823 106.268 12.333C106.786 11.829 107.045 11.164 107.045 10.338C107.045 10.184 107.129 10.107 107.297 10.107L109.229 10.191C109.299 10.191 109.355 10.212 109.397 10.254C109.453 10.296 109.481 10.345 109.481 10.401C109.481 11.353 109.264 12.193 108.83 12.921C108.396 13.635 107.78 14.188 106.982 14.58C106.184 14.972 105.267 15.168 104.231 15.168ZM117.449 15.168C116.343 15.168 115.391 14.888 114.593 14.328C113.809 13.768 113.256 12.991 112.934 11.997C112.696 11.241 112.577 10.443 112.577 9.603C112.577 8.707 112.689 7.909 112.913 7.209C113.235 6.229 113.795 5.466 114.593 4.92C115.391 4.374 116.35 4.101 117.47 4.101C118.534 4.101 119.451 4.374 120.221 4.92C121.005 5.466 121.558 6.222 121.88 7.188C122.132 7.86 122.258 8.658 122.258 9.582C122.258 10.464 122.139 11.262 121.901 11.976C121.579 12.97 121.026 13.754 120.242 14.328C119.458 14.888 118.527 15.168 117.449 15.168ZM117.449 13.068C117.967 13.068 118.408 12.921 118.772 12.627C119.15 12.333 119.423 11.92 119.591 11.388C119.731 10.926 119.801 10.338 119.801 9.624C119.801 8.868 119.731 8.28 119.591 7.86C119.437 7.328 119.171 6.922 118.793 6.642C118.415 6.348 117.953 6.201 117.407 6.201C116.889 6.201 116.441 6.348 116.063 6.642C115.685 6.922 115.412 7.328 115.244 7.86C115.104 8.35 115.034 8.938 115.034 9.624C115.034 10.31 115.104 10.898 115.244 11.388C115.398 11.92 115.664 12.333 116.042 12.627C116.434 12.921 116.903 13.068 117.449 13.068ZM137.098 4.101C138.176 4.101 139.016 4.43 139.618 5.088C140.234 5.732 140.542 6.635 140.542 7.797V14.748C140.542 14.818 140.514 14.881 140.458 14.937C140.416 14.979 140.36 15 140.29 15H138.379C138.309 15 138.246 14.979 138.19 14.937C138.148 14.881 138.127 14.818 138.127 14.748V8.301C138.127 7.657 137.952 7.146 137.602 6.768C137.266 6.39 136.811 6.201 136.237 6.201C135.663 6.201 135.194 6.39 134.83 6.768C134.466 7.146 134.284 7.65 134.284 8.28V14.748C134.284 14.818 134.256 14.881 134.2 14.937C134.158 14.979 134.102 15 134.032 15H132.121C132.051 15 131.988 14.979 131.932 14.937C131.89 14.881 131.869 14.818 131.869 14.748V8.301C131.869 7.657 131.694 7.146 131.344 6.768C130.994 6.39 130.532 6.201 129.958 6.201C129.426 6.201 128.985 6.355 128.635 6.663C128.299 6.971 128.103 7.391 128.047 7.923V14.748C128.047 14.818 128.019 14.881 127.963 14.937C127.921 14.979 127.865 15 127.795 15H125.863C125.793 15 125.73 14.979 125.674 14.937C125.632 14.881 125.611 14.818 125.611 14.748V4.521C125.611 4.451 125.632 4.395 125.674 4.353C125.73 4.297 125.793 4.269 125.863 4.269H127.795C127.865 4.269 127.921 4.297 127.963 4.353C128.019 4.395 128.047 4.451 128.047 4.521V5.214C128.047 5.256 128.061 5.284 128.089 5.298C128.117 5.312 128.145 5.298 128.173 5.256C128.481 4.864 128.859 4.577 129.307 4.395C129.769 4.199 130.28 4.101 130.84 4.101C131.526 4.101 132.128 4.241 132.646 4.521C133.164 4.801 133.563 5.207 133.843 5.739C133.885 5.795 133.934 5.795 133.99 5.739C134.298 5.179 134.725 4.766 135.271 4.5C135.817 4.234 136.426 4.101 137.098 4.101ZM153.165 7.041C153.417 7.755 153.543 8.63 153.543 9.666C153.543 10.66 153.424 11.514 153.186 12.228C152.878 13.152 152.381 13.873 151.695 14.391C151.023 14.909 150.169 15.168 149.133 15.168C148.139 15.168 147.341 14.811 146.739 14.097C146.711 14.069 146.683 14.062 146.655 14.076C146.627 14.09 146.613 14.118 146.613 14.16V18.717C146.613 18.787 146.585 18.843 146.529 18.885C146.487 18.941 146.431 18.969 146.361 18.969H144.429C144.359 18.969 144.296 18.941 144.24 18.885C144.198 18.843 144.177 18.787 144.177 18.717V4.521C144.177 4.451 144.198 4.395 144.24 4.353C144.296 4.297 144.359 4.269 144.429 4.269H146.361C146.431 4.269 146.487 4.297 146.529 4.353C146.585 4.395 146.613 4.451 146.613 4.521V5.151C146.613 5.193 146.627 5.221 146.655 5.235C146.683 5.249 146.711 5.235 146.739 5.193C147.355 4.465 148.16 4.101 149.154 4.101C150.148 4.101 150.988 4.36 151.674 4.878C152.36 5.396 152.857 6.117 153.165 7.041ZM150.435 12.186C150.855 11.542 151.065 10.688 151.065 9.624C151.065 8.602 150.897 7.797 150.561 7.209C150.169 6.523 149.574 6.18 148.776 6.18C148.048 6.18 147.502 6.516 147.138 7.188C146.816 7.734 146.655 8.546 146.655 9.624C146.655 10.73 146.83 11.57 147.18 12.144C147.544 12.76 148.069 13.068 148.755 13.068C149.497 13.068 150.057 12.774 150.435 12.186ZM157.207 15C157.137 15 157.074 14.979 157.018 14.937C156.976 14.881 156.955 14.818 156.955 14.748V0.552C156.955 0.482 156.976 0.425999 157.018 0.383999C157.074 0.327999 157.137 0.299999 157.207 0.299999H159.139C159.209 0.299999 159.265 0.327999 159.307 0.383999C159.363 0.425999 159.391 0.482 159.391 0.552V14.748C159.391 14.818 159.363 14.881 159.307 14.937C159.265 14.979 159.209 15 159.139 15H157.207ZM172.08 8.427C172.136 8.777 172.164 9.169 172.164 9.603L172.143 10.254C172.143 10.422 172.059 10.506 171.891 10.506H165.318C165.248 10.506 165.213 10.541 165.213 10.611C165.255 11.073 165.318 11.388 165.402 11.556C165.738 12.564 166.557 13.075 167.859 13.089C168.811 13.089 169.567 12.697 170.127 11.913C170.183 11.829 170.253 11.787 170.337 11.787C170.393 11.787 170.442 11.808 170.484 11.85L171.786 12.921C171.912 13.019 171.933 13.131 171.849 13.257C171.415 13.873 170.834 14.349 170.106 14.685C169.392 15.021 168.594 15.189 167.712 15.189C166.62 15.189 165.689 14.944 164.919 14.454C164.163 13.964 163.61 13.278 163.26 12.396C162.938 11.64 162.777 10.59 162.777 9.246C162.777 8.434 162.861 7.776 163.029 7.272C163.309 6.292 163.834 5.522 164.604 4.962C165.388 4.388 166.326 4.101 167.418 4.101C170.176 4.101 171.73 5.543 172.08 8.427ZM167.418 6.201C166.9 6.201 166.466 6.334 166.116 6.6C165.78 6.852 165.542 7.209 165.402 7.671C165.318 7.909 165.262 8.217 165.234 8.595C165.206 8.665 165.234 8.7 165.318 8.7H169.581C169.651 8.7 169.686 8.665 169.686 8.595C169.658 8.245 169.616 7.979 169.56 7.797C169.434 7.293 169.182 6.901 168.804 6.621C168.44 6.341 167.978 6.201 167.418 6.201ZM180.927 5.991C180.927 6.061 180.899 6.124 180.843 6.18C180.801 6.222 180.745 6.243 180.675 6.243H178.533C178.463 6.243 178.428 6.278 178.428 6.348V11.409C178.428 11.941 178.54 12.326 178.764 12.564C179.002 12.802 179.373 12.921 179.877 12.921H180.507C180.577 12.921 180.633 12.949 180.675 13.005C180.731 13.047 180.759 13.103 180.759 13.173V14.748C180.759 14.902 180.675 14.993 180.507 15.021L179.415 15.042C178.309 15.042 177.483 14.853 176.937 14.475C176.391 14.097 176.111 13.383 176.097 12.333V6.348C176.097 6.278 176.062 6.243 175.992 6.243H174.795C174.725 6.243 174.662 6.222 174.606 6.18C174.564 6.124 174.543 6.061 174.543 5.991V4.521C174.543 4.451 174.564 4.395 174.606 4.353C174.662 4.297 174.725 4.269 174.795 4.269H175.992C176.062 4.269 176.097 4.234 176.097 4.164V1.707C176.097 1.637 176.118 1.581 176.16 1.539C176.216 1.483 176.279 1.455 176.349 1.455H178.176C178.246 1.455 178.302 1.483 178.344 1.539C178.4 1.581 178.428 1.637 178.428 1.707V4.164C178.428 4.234 178.463 4.269 178.533 4.269H180.675C180.745 4.269 180.801 4.297 180.843 4.353C180.899 4.395 180.927 4.451 180.927 4.521V5.991ZM192.986 8.427C193.042 8.777 193.07 9.169 193.07 9.603L193.049 10.254C193.049 10.422 192.965 10.506 192.797 10.506H186.224C186.154 10.506 186.119 10.541 186.119 10.611C186.161 11.073 186.224 11.388 186.308 11.556C186.644 12.564 187.463 13.075 188.765 13.089C189.717 13.089 190.473 12.697 191.033 11.913C191.089 11.829 191.159 11.787 191.243 11.787C191.299 11.787 191.348 11.808 191.39 11.85L192.692 12.921C192.818 13.019 192.839 13.131 192.755 13.257C192.321 13.873 191.74 14.349 191.012 14.685C190.298 15.021 189.5 15.189 188.618 15.189C187.526 15.189 186.595 14.944 185.825 14.454C185.069 13.964 184.516 13.278 184.166 12.396C183.844 11.64 183.683 10.59 183.683 9.246C183.683 8.434 183.767 7.776 183.935 7.272C184.215 6.292 184.74 5.522 185.51 4.962C186.294 4.388 187.232 4.101 188.324 4.101C191.082 4.101 192.636 5.543 192.986 8.427ZM188.324 6.201C187.806 6.201 187.372 6.334 187.022 6.6C186.686 6.852 186.448 7.209 186.308 7.671C186.224 7.909 186.168 8.217 186.14 8.595C186.112 8.665 186.14 8.7 186.224 8.7H190.487C190.557 8.7 190.592 8.665 190.592 8.595C190.564 8.245 190.522 7.979 190.466 7.797C190.34 7.293 190.088 6.901 189.71 6.621C189.346 6.341 188.884 6.201 188.324 6.201Z" fill="url(#paint0_linear_239_5880)"/>
<defs>
<linearGradient id="paint0_linear_239_5880" x1="185.191" y1="7.00002" x2="15.1914" y2="7.00002" gradientUnits="userSpaceOnUse">
<stop stop-color="white" stop-opacity="0.6"/>
<stop offset="1" stop-color="white" stop-opacity="0"/>
</linearGradient>
</defs>
</svg>
